<svg xmlns="http://www.w3.org/2000/svg" width="640" height="640" viewport-fill="#000" label="_shape #12 fractal #5"><defs><style type="text/css">
.f-0 { fill: #000;  }
.f-1 { fill: #101010;  }
.f-2 { fill: #202020;  }
.f-3 { fill: #303030;  }
.f-4 { fill: #404040;  }
.f-5 { fill: #505050;  }
.f-6 { fill: #606060;  }
.f-7 { fill: #707070;  }
.f-8 { fill: #808080;  }
.f-9 { fill: #909090;  }
.f-10 { fill: #a0a0a0;  }
.f-11 { fill: #b0b0b0;  }
.f-12 { fill: #c0c0c0;  }
.f-13 { fill: #d0d0d0;  }
.f-14 { fill: #e0e0e0;  }
.f-15 { fill: #f0f0f0;  }
.bgc { fill: #101010;  }
.fore { fill: #404040; stroke-color: #404040; sroke-width: 0;  }
text{ font-family: Freemono, Sans, Arial; } 
</style></defs><g fill-rule="evenodd" transform="translate(320,320)"><path d="M0,213.33333333333334L184.75208614068026,-106.66666666666663L-184.7520861406802,-106.66666666666677ZZ M0,142.22222222222223L123.16805742712017,-71.11111111111109L-123.16805742712015,-71.11111111111117ZZ M0,94.81481481481482L82.11203828474679,-47.40740740740739L-82.11203828474677,-47.407407407407455ZZ M0,63.20987654320988L54.741358856497854,-31.604938271604926L-54.74135885649784,-31.60493827160497ZZ M0,42.13991769547325L36.494239237665234,-21.069958847736615L-36.49423923766523,-21.069958847736643ZZ M0,28.093278463648833L24.329492825110158,-14.04663923182441L-24.32949282511015,-14.046639231824429ZZ M0,18.72885230909922L16.21966188340677,-9.364426154549607L-16.219661883406765,-9.36442615454962ZZ M0,12.48590153939948L10.813107922271179,-6.242950769699737L-10.813107922271177,-6.242950769699745ZZ M0,8.323934359599653L7.208738614847452,-4.161967179799825L-7.208738614847451,-4.16196717979983ZZ M0,5.549289573066435L4.805825743231635,-2.7746447865332162L-4.805825743231634,-2.77464478653322ZZ M0,3.69952638204429L3.20388382882109,-1.8497631910221441L-3.2038838288210894,-1.8497631910221466ZZ M0,2.46635092136286L2.1359225525473935,-1.2331754606814296L-2.1359225525473926,-1.2331754606814311ZZ M0,1.64423394757524L1.423948368364929,-0.8221169737876197L-1.4239483683649286,-0.8221169737876208ZZ M0,1.09615596505016L0.9492989122432859,-0.5480779825250798L-0.9492989122432857,-0.5480779825250804ZZ M0,0.7307706433667733L0.6328659414955239,-0.3653853216833865L-0.6328659414955238,-0.365385321683387ZZ M0,0.48718042891118224L0.42191062766368265,-0.243590214455591L-0.42191062766368254,-0.24359021445559134ZZ M0,0.3247869526074548L0.28127375177578845,-0.16239347630372733L-0.28127375177578834,-0.16239347630372755ZZ M0,0.21652463507163655L0.18751583451719228,-0.10826231753581823L-0.18751583451719223,-0.10826231753581837ZZ M0,0.14434975671442438L0.12501055634479485,-0.07217487835721216L-0.12501055634479483,-0.07217487835721226ZZ M0,0.09623317114294959L0.08334037089652992,-0.048116585571474774L-0.08334037089652989,-0.048116585571474836ZZ M0,0.06415544742863306L0.05556024726435328,-0.03207772371431652L-0.05556024726435326,-0.03207772371431656ZZ M0,0.042770298285755376L0.037040164842902186,-0.021385149142877678L-0.03704016484290218,-0.021385149142877705ZZ M0,0.028513532190503583L0.024693443228601456,-0.014256766095251784L-0.02469344322860145,-0.014256766095251804ZZ M0,0.019009021460335722L0.016462295485734305,-0.009504510730167857L-0.016462295485734302,-0.00950451073016787ZZ M0,0.012672680973557148L0.010974863657156204,-0.006336340486778572L-0.0109748636571562,-0.0063363404867785795ZZ M0,0.008448453982371432L0.007316575771437469,-0.004224226991185714L-0.007316575771437467,-0.00422422699118572ZZ M0,0.005632302654914288L0.004877717180958313,-0.002816151327457143L-0.004877717180958311,-0.0028161513274571467ZZ M0,0.0037548684366095256L0.0032518114539722086,-0.001877434218304762L-0.0032518114539722078,-0.0018774342183047645ZZ M0,0.0025032456244063503L0.002167874302648139,-0.0012516228122031745L-0.0021678743026481385,-0.0012516228122031762ZZ M0,0.0016688304162709002L0.0014452495350987594,-0.0008344152081354498L-0.001445249535098759,-0.0008344152081354508ZZ M0,0.0011125536108472667L0.0009634996900658395,-0.0005562768054236331L-0.0009634996900658391,-0.0005562768054236339ZZ M0,0.0007417024072315111L0.0006423331267105596,-0.0003708512036157554L-0.0006423331267105594,-0.0003708512036157559ZZ M0,0.0004944682714876741L0.0004282220844737064,-0.00024723413574383695L-0.0004282220844737063,-0.00024723413574383727ZZ M0,0.00032964551432511607L0.00028548138964913764,-0.00016482275716255795L-0.0002854813896491375,-0.00016482275716255817ZZ M0,0.00021976367621674405L0.00019032092643275842,-0.00010988183810837197L-0.00019032092643275837,-0.00010988183810837212ZZ M0,0.00014650911747782937L0.00012688061762183896,-0.00007325455873891466L-0.00012688061762183893,-0.00007325455873891475ZZ M0,0.00009767274498521959L0.0000845870784145593,-0.00004883637249260977L-0.00008458707841455928,-0.000048836372492609834ZZ M0,0.00006511516332347973L0.000056391385609706204,-0.00003255758166173985L-0.00005639138560970619,-0.00003255758166173989ZZ M0,0.00004341010888231982L0.00003759425707313747,-0.0000217050544411599L-0.00003759425707313746,-0.00002170505444115993ZZ M0,0.000028940072588213212L0.000025062838048758314,-0.0000144700362941066L-0.000025062838048758307,-0.00001447003629410662ZZ M0,0.000019293381725475475L0.00001670855869917221,-0.000009646690862737732L-0.000016708558699172206,-0.000009646690862737746ZZ M0,0.000012862254483650317L0.000011139039132781472,-0.000006431127241825156L-0.00001113903913278147,-0.000006431127241825164ZZ M0,0.000008574836322433545L0.000007426026088520982,-0.000004287418161216771L-0.000007426026088520981,-0.000004287418161216776ZZ M0,0.00000571655754828903L0.000004950684059013988,-0.0000028582787741445137L-0.000004950684059013987,-0.0000028582787741445175ZZ M0,0.00000381103836552602L0.0000033004560393426586,-0.0000019055191827630091L-0.0000033004560393426577,-0.0000019055191827630116ZZ M0,0.0000025406922436840134L0.000002200304026228439,-0.000001270346121842006L-0.0000022003040262284388,-0.0000012703461218420078ZZ M0,0.0000016937948291226755L0.0000014668693508189594,-8.468974145613373e-7L-0.000001466869350818959,-8.468974145613385e-7ZZ M0,0.0000011291965527484503L9.779129005459729e-7,-5.645982763742249e-7L-9.779129005459726e-7,-5.645982763742257e-7ZZ M0,7.527977018323002e-7L6.519419336973153e-7,-3.7639885091614996e-7L-6.519419336973151e-7,-3.7639885091615043e-7ZZ M0,5.018651345548668e-7L4.346279557982102e-7,-2.509325672774333e-7L-4.3462795579821004e-7,-2.509325672774336e-7ZZ M0,3.345767563699112e-7L2.8975197053214015e-7,-1.6728837818495552e-7L-2.8975197053214004e-7,-1.6728837818495576e-7ZZ                                                   " class="fore"></path></g></svg>