<svg xmlns="http://www.w3.org/2000/svg" width="640" height="640" viewport-fill="#000" label="_shape #31"><defs><style type="text/css">
.f-0 { fill: #000;  }
.f-1 { fill: #101010;  }
.f-2 { fill: #202020;  }
.f-3 { fill: #303030;  }
.f-4 { fill: #404040;  }
.f-5 { fill: #505050;  }
.f-6 { fill: #606060;  }
.f-7 { fill: #707070;  }
.f-8 { fill: #808080;  }
.f-9 { fill: #909090;  }
.f-10 { fill: #a0a0a0;  }
.f-11 { fill: #b0b0b0;  }
.f-12 { fill: #c0c0c0;  }
.f-13 { fill: #d0d0d0;  }
.f-14 { fill: #e0e0e0;  }
.f-15 { fill: #f0f0f0;  }
.bgc { fill: #101010;  }
.fore { fill: #404040; stroke-color: #404040; sroke-width: 0;  }
text{ font-family: Freemono, Sans, Arial; } 
</style></defs><g fill-rule="evenodd"><path d="M320,320L345.7144917878023,531.7778931409182L294.2855082121977,531.7778931409182L320,320L441.18714596931324,495.5698913906467L395.64904256907425,519.4701317728885L320,320L508.89728547268476,419.1409433693373L479.68229294316825,461.4661670913697L320,320L533.3333333333334,320.00000000000006L527.1342543842245,371.0540083813457L320,320L508.89728547268476,220.85905663066274L527.1342543842245,268.9459916186544L320,320L441.1871459693133,144.43010860935334L479.68229294316825,178.5338329086304L320,320L345.71449178780233,108.2221068590818L395.6490425690743,120.5298682271115L320,320L244.3509574309258,120.52986822711148L294.2855082121978,108.2221068590818L320,320L160.3177070568318,178.53383290863027L198.81285403068682,144.43010860935325L320,320L112.86574561577555,268.9459916186544L131.10271452731527,220.85905663066256L320,320L112.86574561577555,371.05400838134557L106.66666666666666,319.9999999999998L320,320L160.31770705683175,461.46616709136964L131.10271452731516,419.14094336933715L320,320L244.35095743092566,519.4701317728885L198.81285403068657,495.5698913906466L320,320Z" class="fore"></path></g></svg>