<svg xmlns="http://www.w3.org/2000/svg" viewBox="0 0 640 640" viewport-fill="#000" label="_shape #33"><defs><style type="text/css">
.f-0 { fill: #000;  }
.f-1 { fill: #101010;  }
.f-2 { fill: #202020;  }
.f-3 { fill: #303030;  }
.f-4 { fill: #404040;  }
.f-5 { fill: #505050;  }
.f-6 { fill: #606060;  }
.f-7 { fill: #707070;  }
.f-8 { fill: #808080;  }
.f-9 { fill: #909090;  }
.f-10 { fill: #a0a0a0;  }
.f-11 { fill: #b0b0b0;  }
.f-12 { fill: #c0c0c0;  }
.f-13 { fill: #d0d0d0;  }
.f-14 { fill: #e0e0e0;  }
.f-15 { fill: #f0f0f0;  }
.bgc { fill: #101010;  }
.fore { fill: #404040; stroke-color: #404040; sroke-width: 0;  }
text{ font-family: Freemono, Sans, Arial; } 
</style></defs><g fill-rule="evenodd"><path d="M345.7144917878023,531.7778931409182L294.2855082121977,531.7778931409182L307.1427541060989,425.8889465704591L332.8572458939011,425.8889465704591Z" class="fore"></path><path d="M441.18714596931324,495.5698913906467L395.64904256907425,519.4701317728885L357.8245212845371,419.73506588644426L380.5935729846566,407.78494569532336Z" class="fore"></path><path d="M508.89728547268476,419.1409433693373L479.68229294316825,461.4661670913697L399.8411464715841,390.73308354568485L414.4486427363424,369.57047168466863Z" class="fore"></path><path d="M533.3333333333334,320.00000000000006L527.1342543842245,371.0540083813457L423.56712719211225,345.52700419067287L426.6666666666667,320Z" class="fore"></path><path d="M508.89728547268476,220.85905663066274L527.1342543842245,268.9459916186544L423.56712719211225,294.4729958093272L414.4486427363424,270.42952831533137Z" class="fore"></path><path d="M441.1871459693133,144.43010860935334L479.68229294316825,178.5338329086304L399.8411464715841,249.2669164543152L380.59357298465665,232.21505430467667Z" class="fore"></path><path d="M345.71449178780233,108.2221068590818L395.6490425690743,120.5298682271115L357.8245212845371,220.26493411355574L332.85724589390117,214.1110534295409Z" class="fore"></path><path d="M244.3509574309258,120.52986822711148L294.2855082121978,108.2221068590818L307.1427541060989,214.1110534295409L282.1754787154629,220.26493411355574Z" class="fore"></path><path d="M160.3177070568318,178.53383290863027L198.81285403068682,144.43010860935325L259.4064270153434,232.21505430467664L240.1588535284159,249.26691645431515Z" class="fore"></path><path d="M112.86574561577555,268.9459916186544L131.10271452731527,220.85905663066256L225.55135726365762,270.42952831533125L216.43287280788778,294.4729958093272Z" class="fore"></path><path d="M112.86574561577555,371.05400838134557L106.66666666666666,319.9999999999998L213.33333333333331,319.9999999999999L216.43287280788778,345.52700419067276Z" class="fore"></path><path d="M160.31770705683175,461.46616709136964L131.10271452731516,419.14094336933715L225.55135726365756,369.5704716846686L240.15885352841588,390.73308354568485Z" class="fore"></path><path d="M244.35095743092566,519.4701317728885L198.81285403068657,495.5698913906466L259.4064270153433,407.7849456953233L282.1754787154628,419.73506588644426Z" class="fore"></path></g></svg>