<svg xmlns="http://www.w3.org/2000/svg" viewBox="0 0 640 640" viewport-fill="#000" label="_shape #42"><defs><style type="text/css">
.f-0 { fill: #000;  }
.f-1 { fill: #101010;  }
.f-2 { fill: #202020;  }
.f-3 { fill: #303030;  }
.f-4 { fill: #404040;  }
.f-5 { fill: #505050;  }
.f-6 { fill: #606060;  }
.f-7 { fill: #707070;  }
.f-8 { fill: #808080;  }
.f-9 { fill: #909090;  }
.f-10 { fill: #a0a0a0;  }
.f-11 { fill: #b0b0b0;  }
.f-12 { fill: #c0c0c0;  }
.f-13 { fill: #d0d0d0;  }
.f-14 { fill: #e0e0e0;  }
.f-15 { fill: #f0f0f0;  }
.bgc { fill: #101010;  }
.fore { fill: #404040; stroke-color: #404040; sroke-width: 0;  }
text{ font-family: Freemono, Sans, Arial; } 
</style></defs><g fill-rule="evenodd" transform="translate(320,320)"><path d="M125.39418715572761,172.59029213332212L189.3659196889906,-61.528717102211736L2.264235859756884e-14,-184.88888888888889L-162.31364544770622,-52.73890037332439L-91.95573724753362,126.56621423110288L83.59612477048503,115.0601947555481L121.73523408577967,-39.55417527999323L4.180127741089632e-14,-113.77777777777779L-94.68295984449527,-30.764358551105918L-50.157674862291074,69.03611685332883L41.7980623852425,57.53009737777407L54.104548482568745,-17.579633457774754L2.6125798381810196e-14,-42.66666666666666L-27.052274241284348,-8.789816728887407L-8.359612477048518,11.506019475554806L8.359612477048508,11.506019475554808L-16.719224954097015,23.012038951109616L-40.57841136192656,-13.184725093331087L-6.966879568482721e-15,-56.88888888888889L67.63068560321092,-21.974541822218495L50.15767486229107,69.03611685332885L-58.517287339339525,80.54213632888367L-108.20909696513749,-35.159266915549544L-4.702643708725836e-14,-128L135.2613712064218,-43.949083644437025L91.95573724753363,126.56621423110285L-100.31534972458202,138.07223370665778L-175.83978256834845,-57.133808737767964L-1.2192039244844761e-13,-199.11111111111111L202.89205680963275,-65.9236254666556" class="fore"></path></g></svg>