<svg xmlns="http://www.w3.org/2000/svg" viewBox="0 0 640 640" viewport-fill="#000" label="_shape #57 filtz #7"><defs><style type="text/css">
.f-0 { fill: #000;  }
.f-1 { fill: #101010;  }
.f-2 { fill: #202020;  }
.f-3 { fill: #303030;  }
.f-4 { fill: #404040;  }
.f-5 { fill: #505050;  }
.f-6 { fill: #606060;  }
.f-7 { fill: #707070;  }
.f-8 { fill: #808080;  }
.f-9 { fill: #909090;  }
.f-10 { fill: #a0a0a0;  }
.f-11 { fill: #b0b0b0;  }
.f-12 { fill: #c0c0c0;  }
.f-13 { fill: #d0d0d0;  }
.f-14 { fill: #e0e0e0;  }
.f-15 { fill: #f0f0f0;  }
.bgc { fill: #101010;  }
.fore { fill: #404040; stroke-color: #404040; sroke-width: 0;  }
text{ font-family: Freemono, Sans, Arial; } 
</style></defs><g fill-rule="evenodd"><g transform="translate(106.66666666666667,160)"><path d="M-32,-48L32,-48L32,48L-32,48Z" class="fore"></path><circle cx="-30.476190476190474" cy="-48" r="8.88888888888889" class="bgc"></circle><circle cx="30.476190476190474" cy="48" r="5.333333333333334" class="fore"></circle></g><g transform="translate(106.66666666666667,320)"><path d="M-32,-48L32,-48L32,48L-32,48Z" class="fore"></path><circle cx="-30.476190476190474" cy="-32" r="8.88888888888889" class="bgc"></circle><circle cx="30.476190476190474" cy="32" r="5.333333333333334" class="fore"></circle></g><g transform="translate(106.66666666666667,480)"><path d="M-32,-48L32,-48L32,48L-32,48Z" class="fore"></path><circle cx="-30.476190476190474" cy="-16" r="8.88888888888889" class="bgc"></circle><circle cx="30.476190476190474" cy="16" r="5.333333333333334" class="fore"></circle></g><g transform="translate(213.33333333333334,160)"><path d="M-32,-48L32,-48L32,48L-32,48Z" class="fore"></path><circle cx="-15.238095238095237" cy="-48" r="8.88888888888889" class="bgc"></circle><circle cx="15.238095238095237" cy="48" r="5.333333333333334" class="fore"></circle></g><g transform="translate(213.33333333333334,320)"><path d="M-32,-48L32,-48L32,48L-32,48Z" class="fore"></path><circle cx="-15.238095238095237" cy="-32" r="8.88888888888889" class="bgc"></circle><circle cx="15.238095238095237" cy="32" r="5.333333333333334" class="fore"></circle></g><g transform="translate(213.33333333333334,480)"><path d="M-32,-48L32,-48L32,48L-32,48Z" class="fore"></path><circle cx="-15.238095238095237" cy="-16" r="8.88888888888889" class="bgc"></circle><circle cx="15.238095238095237" cy="16" r="5.333333333333334" class="fore"></circle></g><g transform="translate(320,160)"><path d="M-32,-48L32,-48L32,48L-32,48Z" class="fore"></path><circle cx="0" cy="-48" r="8.88888888888889" class="bgc"></circle><circle cx="0" cy="48" r="5.333333333333334" class="fore"></circle></g><g transform="translate(320,320)"><path d="M-32,-48L32,-48L32,48L-32,48Z" class="fore"></path><circle cx="0" cy="-32" r="8.88888888888889" class="bgc"></circle><circle cx="0" cy="32" r="5.333333333333334" class="fore"></circle></g><g transform="translate(320,480)"><path d="M-32,-48L32,-48L32,48L-32,48Z" class="fore"></path><circle cx="0" cy="-16" r="8.88888888888889" class="bgc"></circle><circle cx="0" cy="16" r="5.333333333333334" class="fore"></circle></g><g transform="translate(426.6666666666667,160)"><path d="M-32,-48L32,-48L32,48L-32,48Z" class="fore"></path><circle cx="15.23809523809524" cy="-48" r="8.88888888888889" class="bgc"></circle><circle cx="-15.23809523809524" cy="48" r="5.333333333333334" class="fore"></circle></g><g transform="translate(426.6666666666667,320)"><path d="M-32,-48L32,-48L32,48L-32,48Z" class="fore"></path><circle cx="15.23809523809524" cy="-32" r="8.88888888888889" class="bgc"></circle><circle cx="-15.23809523809524" cy="32" r="5.333333333333334" class="fore"></circle></g><g transform="translate(426.6666666666667,480)"><path d="M-32,-48L32,-48L32,48L-32,48Z" class="fore"></path><circle cx="15.23809523809524" cy="-16" r="8.88888888888889" class="bgc"></circle><circle cx="-15.23809523809524" cy="16" r="5.333333333333334" class="fore"></circle></g><g transform="translate(533.3333333333334,160)"><path d="M-32,-48L32,-48L32,48L-32,48Z" class="fore"></path><circle cx="30.476190476190474" cy="-48" r="8.88888888888889" class="bgc"></circle><circle cx="-30.476190476190474" cy="48" r="5.333333333333334" class="fore"></circle></g><g transform="translate(533.3333333333334,320)"><path d="M-32,-48L32,-48L32,48L-32,48Z" class="fore"></path><circle cx="30.476190476190474" cy="-32" r="8.88888888888889" class="bgc"></circle><circle cx="-30.476190476190474" cy="32" r="5.333333333333334" class="fore"></circle></g><g transform="translate(533.3333333333334,480)"><path d="M-32,-48L32,-48L32,48L-32,48Z" class="fore"></path><circle cx="30.476190476190474" cy="-16" r="8.88888888888889" class="bgc"></circle><circle cx="-30.476190476190474" cy="16" r="5.333333333333334" class="fore"></circle></g></g></svg>