<svg xmlns="http://www.w3.org/2000/svg" width="640" height="640" viewport-fill="#000" label="_shape #64 seed #4"><defs><style type="text/css">
.f-0 { fill: #000;  }
.f-1 { fill: #101010;  }
.f-2 { fill: #202020;  }
.f-3 { fill: #303030;  }
.f-4 { fill: #404040;  }
.f-5 { fill: #505050;  }
.f-6 { fill: #606060;  }
.f-7 { fill: #707070;  }
.f-8 { fill: #808080;  }
.f-9 { fill: #909090;  }
.f-10 { fill: #a0a0a0;  }
.f-11 { fill: #b0b0b0;  }
.f-12 { fill: #c0c0c0;  }
.f-13 { fill: #d0d0d0;  }
.f-14 { fill: #e0e0e0;  }
.f-15 { fill: #f0f0f0;  }
.bgc { fill: #101010;  }
.fore { fill: #404040; stroke-color: #404040; sroke-width: 0;  }
text{ font-family: Freemono, Sans, Arial; } 
</style></defs><g fill-rule="evenodd"><path class="fore" d="M73.0629013041684,0L30.574298751085983,100L37.47961964220912,100L64.90952955021497,0L1.6172792530986677,0L99.44489371557154,100L52.52378474931535,100L34.606475342622815,0Z" transform="translate(10,10)"></path><path class="fore" d="M49.41521045152826,0L33.21355426764033,100L89.76979160432255,100L71.48468330415318,0L90.83471639423695,0L46.43680255587175,100L15.757760662196763,100L14.59071194006089,0Z" transform="translate(138,10)"></path><path class="fore" d="M87.28772149481027,0L10.893761303939932,100L12.526921385005707,100L38.70507879241409,0L15.496632308493224,0L29.00718441243617,100L81.17810685122485,100L79.4513204790001,0Z" transform="translate(266,10)"></path><path class="fore" d="M24.880245600710722,0L22.072121433720426,100L39.46620902115248,100L9.715656885954335,0L84.2763827905233,0L70.81354281399885,100L43.59891162687283,100L23.81635161475523,0Z" transform="translate(394,10)"></path><path class="fore" d="M56.31820918152255,0L75.29346098184591,100L51.088073453969216,100L9.25022116727399,0L76.3077536405272,0L76.6137145878781,100L78.38321619416104,100L69.73337990780192,0Z" transform="translate(522,10)"></path><path class="fore" d="M3.0081257645159796,0L32.12183262420369,100L45.77987593134314,100L68.95770821090527,0L49.800853703151276,0L67.11054503888339,100L32.344716442352315,100L84.82770271581298,0L82.31834791410716,0L52.585708581493606,100LNaN,100LNaN,0Z" transform="translate(10,138)"></path><path class="fore" d="M16.158107383311123,0L96.7736702454044,100L74.58565673911525,100L55.41468465406144,0L11.471353339678643,0L32.571150616663765,100L51.782304718466754,100L12.67169567505193,0L45.706504928192814,0L64.95381247072264,100LNaN,100LNaN,0Z" transform="translate(138,138)"></path><path class="fore" d="M91.6216004325322,0L73.67191321382305,100L99.7690373012521,100L41.44695384288079,0L69.44196712713831,0L55.90477510768892,100L60.71166800765692,100L23.0769626562093,0L77.5304074154908,0L96.5946244559892,100LNaN,100LNaN,0Z" transform="translate(266,138)"></path><path class="fore" d="M9.221778445042917,0L75.45991100364012,100L55.16528592544826,100L71.5275652367301,0L85.4579335929451,0L18.907109654165648,100L46.18633150435866,100L37.19178414811231,0L47.78283028263337,0L50.59699469984725,100LNaN,100LNaN,0Z" transform="translate(394,138)"></path><path class="fore" d="M35.79116603291288,0L24.436258730649335,100L50.115973359000655,100L67.10913366333669,0L19.80257055233138,0L47.06276296150484,100L74.46209753739618,100L47.50231227278603,0L99.01715014739723,0L65.40622303250983,100LNaN,100LNaN,0Z" transform="translate(522,138)"></path><path class="fore" d="M19.800961742336163,0L87.98540207576653,100L13.161730775175096,100L98.85171693384225,0L57.86224344551998,0L42.58669327780824,100L39.84611627902713,100L37.11486924705784,0L12.409345747961321,0L71.62786746328158,100L54.791190888290274,100L95.82402581542082,0Z" transform="translate(10,266)"></path><path class="fore" d="M73.31168132072669,0L97.19625292190224,100L3.2830585148762568,100L56.11500845349866,0L94.55628603576534,0L33.42064132665545,100L12.30574674209706,100L26.524830297706004,0L70.46210558017053,0L8.148345706354126,100L82.4382800559393,100L82.41971199903693,0Z" transform="translate(138,266)"></path><path class="fore" d="M69.73527579088356,0L38.14208971371654,100L87.01528317154646,100L5.65954243836692,0L49.93325871488074,0L45.92432050943672,100L5.331880678854222,100L21.055196875359915,0L52.76061592628602,0L18.035181101228172,100L58.96680856851903,100L90.37495877665492,0Z" transform="translate(266,266)"></path><path class="fore" d="M99.54590577574965,0L25.450689958643746,100L70.44484694748057,100L63.48204896517665,0L90.19744435002372,0L37.5096426787221,100L79.23144885762677,100L66.48148517844838,0L12.982923962228114,0L93.24892026195481,100L53.15867827204611,100L26.824250344124373,0Z" transform="translate(394,266)"></path><path class="fore" d="M5.7985370329161645,0L2.912510172288284,100L58.53022229901903,100L6.0257207839122255,0L97.93410233878387,0L37.39662060697829,100L1.8979537283844883,100L42.10090514797126,0L35.03346904230254,0L55.929001395562594,100L37.28768075351962,100L40.016532844687845,0Z" transform="translate(522,266)"></path><path class="fore" d="M22.1246904686864,0L82.78492522969798,100L60.233270563836015,100L54.42266660308389,0L54.01307756394728,0L11.799981998292223,100L80.2713412924247,100L43.31500351147387,0L58.85622979825859,0L82.56251178048399,100L84.44370169924305,100L17.386225613573817,0L66.21534467487706,0L2.5298954342382003,100LNaN,100LNaN,0Z" transform="translate(10,394)"></path><path class="fore" d="M70.69607724045882,0L74.71589526829139,100L0.9990467054734846,100L23.99314226193661,0L24.601697069042544,0L16.078918894371643,100L31.99640460732286,100L81.6411589519762,0L64.08383054112176,0L94.983323421648,100L27.75067139654969,100L41.813599216170886,0L8.407450451562045,0L89.81547279647192,100LNaN,100LNaN,0Z" transform="translate(138,394)"></path><path class="fore" d="M95.70133017566074,0L54.95775464303316,100L15.728230748220687,100L11.41469710332105,0L61.25077562836489,0L47.05841320568307,100L83.83950171586896,100L7.371731977331105,0L92.85935700614255,0L80.19463065191361,100L87.38411241103505,100L76.99754090101743,0L30.984278859931617,0L6.488682177516518,100LNaN,100LNaN,0Z" transform="translate(266,394)"></path><path class="fore" d="M36.31676242487402,0L47.691711242171245,100L45.23602888347027,100L67.07336340971682,0L22.774850961453023,0L95.62106812798788,100L74.34793228979292,100L23.667162919990233,0L92.14814736484357,0L52.52172871951492,100L29.820429027180058,100L63.718989454929186,0L32.05438774582183,0L37.20073209184784,100LNaN,100LNaN,0Z" transform="translate(394,394)"></path><path class="fore" d="M47.59620879150278,0L5.121628817121117,100L84.99741953172311,100L39.08072107484337,0L12.834963256252182,0L47.414014308697276,100L86.2520841290519,100L61.781544639337184,0L41.21806508414072,0L26.853330815843456,100L7.518962174000918,100L70.12287537677724,0L14.912977737799638,0L85.2577969264203,100LNaN,100LNaN,0Z" transform="translate(522,394)"></path><path class="fore" d="M31.391550322496204,0L3.450499123074863,100L63.314901800705684,100L73.79783042815855,0L77.07152497531678,0L27.64998632741457,100L79.77852213734931,100L33.18755111318905,0L41.156414490182655,0L65.07780087208536,100L78.07671203838466,100L42.795871719871194,0L83.13900686429552,0L1.6644440910712515,100L72.59965412806851,100L16.604653561399292,0Z" transform="translate(10,522)"></path><path class="fore" d="M32.1533530463956,0L2.134730489389113,100L8.628596510931063,100L18.48755070562036,0L77.21870473486831,0L13.418080609628868,100L5.88645419414808,100L48.91729587464656,0L42.77537544305565,0L96.8508161704645,100L47.757176629698215,100L47.16870888419118,0L12.13215086153001,0L66.4020189913096,100L7.619378617352162,100L16.83659365745093,0Z" transform="translate(138,522)"></path><path class="fore" d="M9.16334282580371,0L34.66931897874719,100L50.31095570643248,100L94.48287122739629,0L57.90195501761488,0L45.35774262568363,100L88.12395657376784,100L7.642005122281849,0L37.84603347907853,0L84.16511211780747,100L82.06568993667473,100L72.42019704793617,0L87.59726884871597,0L25.796843073501996,100L34.481400094441,100L9.696257865781789,0Z" transform="translate(266,522)"></path><path class="fore" d="M62.7107949065582,0L68.71116484630214,100L49.1449769304792,100L61.23108427605356,0L15.221184504650086,0L5.078960718689976,100L94.99433783731942,100L95.93727128125491,0L34.00964671690217,0L87.76920454872499,100L98.45945206021996,100L71.22082991195535,0L52.5761361283966,0L82.33979765562609,100L43.685095720192635,100L90.58637494979556,0Z" transform="translate(394,522)"></path><path class="fore" d="M53.053009900199896,0L68.13234451786934,100L22.23778668223546,100L8.905873999840416,0L96.34157218932683,0L80.41765779061828,100L53.026507627382976,100L79.96999518278355,0L53.74454170748444,0L54.163991818579525,100L93.82382206256024,100L18.274972407601233,0L76.38510108062965,0L60.43832071454587,100L41.017495941977295,100L99.04617807372922,0Z" transform="translate(522,522)"></path></g></svg>