<svg xmlns="http://www.w3.org/2000/svg" viewBox="0 0 640 640" viewport-fill="#000" label="_shape #70 seed #9"><defs><style type="text/css">
.f-0 { fill: #000;  }
.f-1 { fill: #101010;  }
.f-2 { fill: #202020;  }
.f-3 { fill: #303030;  }
.f-4 { fill: #404040;  }
.f-5 { fill: #505050;  }
.f-6 { fill: #606060;  }
.f-7 { fill: #707070;  }
.f-8 { fill: #808080;  }
.f-9 { fill: #909090;  }
.f-10 { fill: #a0a0a0;  }
.f-11 { fill: #b0b0b0;  }
.f-12 { fill: #c0c0c0;  }
.f-13 { fill: #d0d0d0;  }
.f-14 { fill: #e0e0e0;  }
.f-15 { fill: #f0f0f0;  }
.bgc { fill: #101010;  }
.fore { fill: #404040; stroke-color: #404040; sroke-width: 0;  }
text{ font-family: Freemono, Sans, Arial; } 
</style></defs><g fill-rule="evenodd"><path class="fore" d="M-59.55613766099899,-7.284673424673043L-48.3397631920428,-35.54247169988637L6.086511681848434,59.69048814967694L49.39810390143574,-34.056237768475825L56.357350949054634,-20.587593205741435L42.480700597884194,-42.37204357489644Z" transform="translate(70,70)"></path><path class="fore" d="M-2.0922771208329487,59.96350870695976L-9.474619838636608,-59.24720735117659L2.204108627934723,-59.959502209043265L-58.54238244815839,-13.14494036858122L-32.673969135114255,50.32307364378294L47.618129030458554,36.50361335044244Z" transform="translate(230,70)"></path><path class="fore" d="M52.185828777658514,-29.60809475107962L-35.96551913630069,48.02584130711704L13.321001636716167,-58.5025718699153L50.16449848410541,32.9169119426198L-42.988493485841516,41.856772783120306L39.09550147752974,-45.51419299757461Z" transform="translate(390,70)"></path><path class="fore" d="M49.61769719241638,33.735502446557334L-57.66855129139357,16.56315766850963L37.93599100622291,46.48505766776862L42.498111278151804,42.35458107206146L58.10824808155264,-14.94762539310958L-55.53592503979179,22.71037273966738Z" transform="translate(550,70)"></path><path class="fore" d="M59.9983015142968,0.4514591892192589L34.39430863866977,49.16331491333681L-50.093766569520696,33.024453831643775L59.83414589392424,4.45813695893132L58.987577108947676,10.975688899379024L36.87499730660275,-47.33111633627544Z" transform="translate(70,230)"></path><path class="fore" d="M-57.93619467524533,-15.601196958953967L23.48619573103096,-55.21230487929029L-23.198363093789535,-55.333858981357004L32.942065956987946,50.147983912471055L-59.797563648353176,4.924569191426872L-56.74479512441004,-19.494312665203942L-59.98980072223557,1.106259149776579L-4.098745710904253,-59.85983865328526L-59.69184987603209,6.073142380781755Z" transform="translate(230,230)"></path><path class="fore" d="M-58.64946923007993,12.658584400710346L11.272968217115025,58.93148723370143L-55.72769985290788,-22.235635118075912L0.7507442609701256,-59.99530300827408L-48.91996104248752,34.73956550680367L-53.76780087438884,26.6274968619296L54.092474768260956,-25.96159034891838L15.723717443552868,-57.90306304294541L-52.77789933656451,-28.539329733185106L53.72361110287675,-26.7165418807685L-9.705065932638346,-59.209895247696075L50.97655053417312,31.644767271018026Z" transform="translate(390,230)"></path><path class="fore" d="M-20.021367970687763,-56.560983235639725L39.59763917032183,45.07800985111249L42.88162349543266,41.966252708527094L15.990484625052769,-57.8299611054335L-12.079843621107825,58.771399320499256L-59.97966814417848,-1.5618608498265898L53.338083083716896,-27.47815301206603L-6.705095468221097,-59.62417039055589L-48.438468540076734,-35.407834803783146L-30.14701352678702,51.8763681787355L30.71444557004223,-51.542437207847605L-56.37836234698172,-20.529984390457628L59.56255043102459,7.232052692814984L-59.24325969629196,9.499272633086651L-59.79122337176403,-5.000960678491506Z" transform="translate(550,230)"></path><path class="fore" d="M-0.8706783006596723,59.9936823281982L-21.753299917951395,-55.91774264649509L-37.40167208476484,-46.91604123606043L-12.740230524040484,58.631787676944555L32.852393489623616,50.20677486159548L-58.577586997378695,-12.987159102918934Z" transform="translate(70,390)"></path><path class="fore" d="M-47.506333885073964,36.648986900047774L43.24002027986,-41.596882649993084L8.331523511489786,-59.41873202936505L-59.974950539830026,1.7335823444365372L-19.13262509373097,-56.86776465646189L55.65672678815224,22.41269201209389L14.24000180799952,-58.285695916821396L-2.250089255360833,-59.95779430852097L46.72863507367178,-37.63555053605051L-52.77536828009173,-28.54400993029338L56.829007744047516,19.247438240633162L9.377458061859599,-59.26266345936592Z" transform="translate(230,390)"></path><path class="fore" d="M-3.7029020454001698,59.885628630266304L59.96236471214908,2.124810139099289L-0.43720539404972425,-59.99840707421667L11.01037229406181,-58.98111309517782L-59.965735317164146,-2.027458475977415L-49.42526036850376,-34.01681404108287L56.82706183578352,19.25318267487317L-4.325170489353471,59.84390445348654L-28.449051052691736,-52.826617289027126L43.44054005650849,-41.387431420648475L42.18406019812938,42.667377060238856L-15.563032952418805,57.94645809125806L-41.11292631458764,43.70042665525461L44.15322788165296,40.62625342842758L26.94782325583427,-53.60797349063213L35.73479273181428,-48.197765388182404L-58.658270530833484,-12.61773744898632L-17.790781526488722,-57.30172853131699Z" transform="translate(390,390)"></path><path class="fore" d="M-59.66272624777501,-6.3528809750426385L-22.490017704555544,-55.625525648291884L-20.124499883127516,56.52437088950217L59.724835890737765,-5.739684470808639L-57.5776015817511,-16.876604993100177L-53.59712385211899,26.969395892022074L-10.515291352420238,59.07138603227214L12.289249638488807,58.72796900389884L51.79617152103581,-30.28459370312633L41.90543296287,42.94106063192208L29.39403237690534,52.306699959235054L-53.565623121848574,27.031907434882967L-56.74711692033493,-19.48755298209184L20.88914749889763,56.246275581315594L0.25160797979255123,-59.9994724428849L58.166389276134296,14.719754025703333L-10.355168877135958,-59.09966562956169L-34.11383888914667,49.35834272182712L40.68071128322113,-44.10305805146855L-43.698656482969135,41.11480781401586L15.197565074431722,-58.04338046503161L19.726826959805976,56.664382976415375L54.34596141342442,25.42668830285579L-32.04388816557254,-50.72661265284998Z" transform="translate(550,390)"></path><path class="fore" d="M-1.7116626425172137,59.975580122231506L-44.96188206817169,-39.7294495417168L-34.66222683897951,48.974789744960916L-51.60895598230493,-30.602543397837255L43.69402465931968,41.11973016777668L59.606291914677534,-6.86221277593808Z" transform="translate(70,550)"></path><path class="fore" d="M59.97594486857249,-1.698834047796544L-57.559266879120095,-16.939031741461154L42.40069431025971,-42.452103858441575L-57.89186005661589,15.764914816934528L-24.694571341588997,54.68252139628504L-11.829917536086722,-58.822215625470854L21.379559569178337,56.06170201329919L22.17760012150667,55.750821095752L-7.766398248634564,59.49523559280698L28.57129165867551,-52.76060360680969L48.466748395711264,-35.36911505744552L35.216672228246914,-48.57762856674071L10.91872393132564,58.99814800238646L-30.64049879197999,-51.58643071369323L42.701091438821,-42.14993226487378Z" transform="translate(230,550)"></path><path class="fore" d="M7.138170189856608,59.5738745285267L-21.838391696115742,-55.884565383717735L42.98860063279343,-41.85666273885428L59.02350807868293,10.780792831960504L-16.459305798368913,-57.69827772677257L-14.96914055229278,-58.10270932689545L24.46731002156779,-54.78458487849012L-31.69067571693629,-50.94802324530349L53.264301813238475,27.62090064332154L-51.09002550584989,-31.46123477887681L-52.96420019696125,28.192082177381113L-35.9747587240532,-48.01892059122276L40.51991843602622,44.250832872814755L-56.7390098006292,19.511144683080587L-53.35299020454418,27.449197369573724L-49.743820085924696,33.549252797330006L9.497366847696767,59.24356524518313L-57.81947187299045,-16.02837085696692L59.879974819612855,3.7932328695363293L59.98121179332043,1.5014099389701603L-54.851769580220555,24.3163190865392L-46.43159978853684,-38.00140183042127L29.5190172669754,-52.23626728233946L30.241654270432672,51.82125381527952Z" transform="translate(390,550)"></path><path class="fore" d="M-59.99044069336491,-1.0709927244700022L3.76384442091914,59.88182925708863L50.81846976998956,31.898011383731387L54.29539290758992,-25.534492534813264L-18.600801653847096,57.043931998366304L59.10612434602652,-10.318239423082353L-35.82752577897325,48.1288727954126L-16.00928657203956,57.82475891393162L39.436919178008466,45.218684254931915L-38.96910631863656,-45.62245886322656L26.80769574616296,53.67818410472877L-26.025503577303756,54.061753241526944L-59.52804328067835,7.51079644070359L55.808379682495044,-22.032357050812198L-18.38948808050699,-57.11240432810452L50.10333750055602,33.00993140413012L11.026491610704104,-58.97810172224155L-50.981303785537776,31.637108975484974L-56.83239159516281,19.237444361818632L-42.73420443322821,42.11635990276295L23.789709409445372,55.08220879934052L45.46049845553152,-39.15792487063911L-52.71108205642973,-28.662550975799974L59.41454750643606,8.361312373392874L59.78972807300532,5.018806327811345L-28.414555873947677,52.84517967124632L-45.5483463551667,-39.05570565627732L54.202005829533135,-25.732130966075385L8.671567936572332,-59.37005903249053L17.69275420232617,-57.332071728972686L-16.300692784203765,57.743288915293064L-59.94964928639282,-2.4575496817971936L-9.466965958746881,-59.24843082762553Z" transform="translate(550,550)"></path></g></svg>