<svg xmlns="http://www.w3.org/2000/svg" width="640" height="640" viewport-fill="#000" label="_shape #71 gradient #2"><defs><style type="text/css">
.f-0 { fill: #000;  }
.f-1 { fill: #101010;  }
.f-2 { fill: #202020;  }
.f-3 { fill: #303030;  }
.f-4 { fill: #404040;  }
.f-5 { fill: #505050;  }
.f-6 { fill: #606060;  }
.f-7 { fill: #707070;  }
.f-8 { fill: #808080;  }
.f-9 { fill: #909090;  }
.f-10 { fill: #a0a0a0;  }
.f-11 { fill: #b0b0b0;  }
.f-12 { fill: #c0c0c0;  }
.f-13 { fill: #d0d0d0;  }
.f-14 { fill: #e0e0e0;  }
.f-15 { fill: #f0f0f0;  }
.bgc { fill: #101010;  }
.fore { fill: #404040; stroke-color: #404040; sroke-width: 0;  }
text{ font-family: Freemono, Sans, Arial; } 
</style><pattern id="stripes-0" patternUnits="userSpaceOnUse" width="4" height="4"><path d="M-1,1 l2,-2 M0,4 l4,-4 M3,5 l2,-2" style="stroke-width: 0.375" class="fore"></path></pattern><pattern id="stripes-1" patternUnits="userSpaceOnUse" width="4" height="4"><path d="M-1,1 l2,-2 M0,4 l4,-4 M3,5 l2,-2" style="stroke-width: 0.75" class="fore"></path></pattern><pattern id="stripes-2" patternUnits="userSpaceOnUse" width="4" height="4"><path d="M-1,1 l2,-2 M0,4 l4,-4 M3,5 l2,-2" style="stroke-width: 1.125" class="fore"></path></pattern><pattern id="stripes-3" patternUnits="userSpaceOnUse" width="4" height="4"><path d="M-1,1 l2,-2 M0,4 l4,-4 M3,5 l2,-2" style="stroke-width: 1.5" class="fore"></path></pattern><pattern id="stripes-4" patternUnits="userSpaceOnUse" width="4" height="4"><path d="M-1,1 l2,-2 M0,4 l4,-4 M3,5 l2,-2" style="stroke-width: 1.875" class="fore"></path></pattern><pattern id="stripes-5" patternUnits="userSpaceOnUse" width="4" height="4"><path d="M-1,1 l2,-2 M0,4 l4,-4 M3,5 l2,-2" style="stroke-width: 2.25" class="fore"></path></pattern><pattern id="stripes-6" patternUnits="userSpaceOnUse" width="4" height="4"><path d="M-1,1 l2,-2 M0,4 l4,-4 M3,5 l2,-2" style="stroke-width: 2.625" class="fore"></path></pattern><pattern id="stripes-7" patternUnits="userSpaceOnUse" width="4" height="4"><path d="M-1,1 l2,-2 M0,4 l4,-4 M3,5 l2,-2" style="stroke-width: 3" class="fore"></path></pattern></defs><g fill-rule="evenodd"><path d="M-32,-71.11111111111111L32,-71.11111111111111L32,71.11111111111111L-32,71.11111111111111Z" transform="translate(96,320)" fill="url(#stripes-0)"></path><path d="M-32,-71.11111111111111L32,-71.11111111111111L32,71.11111111111111L-32,71.11111111111111Z" transform="translate(160,320)" fill="url(#stripes-1)"></path><path d="M-32,-71.11111111111111L32,-71.11111111111111L32,71.11111111111111L-32,71.11111111111111Z" transform="translate(224,320)" fill="url(#stripes-2)"></path><path d="M-32,-71.11111111111111L32,-71.11111111111111L32,71.11111111111111L-32,71.11111111111111Z" transform="translate(288,320)" fill="url(#stripes-3)"></path><path d="M-32,-71.11111111111111L32,-71.11111111111111L32,71.11111111111111L-32,71.11111111111111Z" transform="translate(352,320)" fill="url(#stripes-4)"></path><path d="M-32,-71.11111111111111L32,-71.11111111111111L32,71.11111111111111L-32,71.11111111111111Z" transform="translate(416,320)" fill="url(#stripes-5)"></path><path d="M-32,-71.11111111111111L32,-71.11111111111111L32,71.11111111111111L-32,71.11111111111111Z" transform="translate(480,320)" fill="url(#stripes-6)"></path><path d="M-32,-71.11111111111111L32,-71.11111111111111L32,71.11111111111111L-32,71.11111111111111Z" transform="translate(544,320)" fill="url(#stripes-7)"></path></g></svg>