<svg xmlns="http://www.w3.org/2000/svg" viewBox="0 0 640 640" viewport-fill="#000" label="_shape #72 sch tribute"><defs><style type="text/css">
.f-0 { fill: #000;  }
.f-1 { fill: #101010;  }
.f-2 { fill: #202020;  }
.f-3 { fill: #303030;  }
.f-4 { fill: #404040;  }
.f-5 { fill: #505050;  }
.f-6 { fill: #606060;  }
.f-7 { fill: #707070;  }
.f-8 { fill: #808080;  }
.f-9 { fill: #909090;  }
.f-10 { fill: #a0a0a0;  }
.f-11 { fill: #b0b0b0;  }
.f-12 { fill: #c0c0c0;  }
.f-13 { fill: #d0d0d0;  }
.f-14 { fill: #e0e0e0;  }
.f-15 { fill: #f0f0f0;  }
.bgc { fill: #101010;  }
.fore { fill: #404040; stroke-color: #404040; sroke-width: 0;  }
text{ font-family: Freemono, Sans, Arial; } 
</style><script type="text/javascript"><![CDATA[
window.onload = function () {

    var frameTime = 400;
    var minFrameTime = 10;
    var delta = 10;

    setTimeout(anim, frameTime)

    var gridX = 4; gridY = 16; cnt = 0;

    function anim() {
        cnt++;
        var x = Math.floor(Math.random() * gridX);
        var y = Math.floor(Math.random() * gridY);
        var className = 'window-' + y + '-' + x;
        var elements = document.getElementsByClassName(className);

        var color = getRandomMonoColor();
        for (i = 0; i < elements.length; i++) {
            elements[i].style.fill = color;
        }

        if (cnt % 10 === 0) {
            var element = document.getElementById('floor-' + y);
            element.style.fill = getRandomColor('ABCDEF')
        }
        if (minFrameTime < frameTime) {
            frameTime -= delta;
        }

        setTimeout(anim, frameTime)
    }

    function getRandomColor(letters) {
        letters = letters || '0123456789ABCDEF';
        let color = '#';
        for (var i = 0; i < 6; i++) {
            color += letters[Math.floor(Math.random() * letters.length)];
        }
        return color;
    }
    function getRandomMonoColor(letters) {
        letters = letters || '0123456789ABCDEF';
        let color = '';
        for (var i = 0; i < 1; i++) {
            color += letters[Math.floor(Math.random() * letters.length)];
        }
        color = '#' + color + color + color;
        return color;
    }
}

]]></script></defs><g fill-rule="evenodd"><path d="M-9,-9L9,-9L9,9L-9,9Z" transform="translate(180,53.333333333333336)" class="window window-0-0 f-2"></path><path d="M-9,-9L9,-9L9,9L-9,9Z" transform="translate(180,88.88888888888889)" class="window window-1-0 f-3"></path><path d="M-9,-9L9,-9L9,9L-9,9Z" transform="translate(180,124.44444444444446)" class="window window-2-0 f-4"></path><path d="M-9,-9L9,-9L9,9L-9,9Z" transform="translate(180,160)" class="window window-3-0 f-5"></path><path d="M-9,-9L9,-9L9,9L-9,9Z" transform="translate(180,195.55555555555557)" class="window window-4-0 f-6"></path><path d="M-9,-9L9,-9L9,9L-9,9Z" transform="translate(180,231.11111111111111)" class="window window-5-0 f-7"></path><path d="M-9,-9L9,-9L9,9L-9,9Z" transform="translate(180,266.6666666666667)" class="window window-6-0 f-8"></path><path d="M-9,-9L9,-9L9,9L-9,9Z" transform="translate(180,302.22222222222223)" class="window window-7-0 f-9"></path><path d="M-9,-9L9,-9L9,9L-9,9Z" transform="translate(180,337.77777777777777)" class="window window-8-0 f-10"></path><path d="M-9,-9L9,-9L9,9L-9,9Z" transform="translate(180,373.33333333333337)" class="window window-9-0 f-11"></path><path d="M-9,-9L9,-9L9,9L-9,9Z" transform="translate(180,408.8888888888889)" class="window window-10-0 f-12"></path><path d="M-9,-9L9,-9L9,9L-9,9Z" transform="translate(180,444.44444444444446)" class="window window-11-0 f-13"></path><path d="M-9,-9L9,-9L9,9L-9,9Z" transform="translate(180,480)" class="window window-12-0 f-14"></path><path d="M-9,-9L9,-9L9,9L-9,9Z" transform="translate(180,515.5555555555555)" class="window window-13-0 f-15"></path><path d="M-9,-9L9,-9L9,9L-9,9Z" transform="translate(180,551.1111111111111)" class="window window-14-0 f-16"></path><path d="M-9,-9L9,-9L9,9L-9,9Z" transform="translate(180,586.6666666666667)" class="window window-15-0 f-17"></path><path d="M-9,-9L9,-9L9,9L-9,9Z" transform="translate(208,53.333333333333336)" class="window window-0-0 f-2"></path><path d="M-9,-9L9,-9L9,9L-9,9Z" transform="translate(208,88.88888888888889)" class="window window-1-0 f-3"></path><path d="M-9,-9L9,-9L9,9L-9,9Z" transform="translate(208,124.44444444444446)" class="window window-2-0 f-4"></path><path d="M-9,-9L9,-9L9,9L-9,9Z" transform="translate(208,160)" class="window window-3-0 f-5"></path><path d="M-9,-9L9,-9L9,9L-9,9Z" transform="translate(208,195.55555555555557)" class="window window-4-0 f-6"></path><path d="M-9,-9L9,-9L9,9L-9,9Z" transform="translate(208,231.11111111111111)" class="window window-5-0 f-7"></path><path d="M-9,-9L9,-9L9,9L-9,9Z" transform="translate(208,266.6666666666667)" class="window window-6-0 f-8"></path><path d="M-9,-9L9,-9L9,9L-9,9Z" transform="translate(208,302.22222222222223)" class="window window-7-0 f-9"></path><path d="M-9,-9L9,-9L9,9L-9,9Z" transform="translate(208,337.77777777777777)" class="window window-8-0 f-10"></path><path d="M-9,-9L9,-9L9,9L-9,9Z" transform="translate(208,373.33333333333337)" class="window window-9-0 f-11"></path><path d="M-9,-9L9,-9L9,9L-9,9Z" transform="translate(208,408.8888888888889)" class="window window-10-0 f-12"></path><path d="M-9,-9L9,-9L9,9L-9,9Z" transform="translate(208,444.44444444444446)" class="window window-11-0 f-13"></path><path d="M-9,-9L9,-9L9,9L-9,9Z" transform="translate(208,480)" class="window window-12-0 f-14"></path><path d="M-9,-9L9,-9L9,9L-9,9Z" transform="translate(208,515.5555555555555)" class="window window-13-0 f-15"></path><path d="M-9,-9L9,-9L9,9L-9,9Z" transform="translate(208,551.1111111111111)" class="window window-14-0 f-16"></path><path d="M-9,-9L9,-9L9,9L-9,9Z" transform="translate(208,586.6666666666667)" class="window window-15-0 f-17"></path><path d="M-9,-9L9,-9L9,9L-9,9Z" transform="translate(244,53.333333333333336)" class="window window-0-1 f-3"></path><path d="M-9,-9L9,-9L9,9L-9,9Z" transform="translate(244,88.88888888888889)" class="window window-1-1 f-4"></path><path d="M-9,-9L9,-9L9,9L-9,9Z" transform="translate(244,124.44444444444446)" class="window window-2-1 f-5"></path><path d="M-9,-9L9,-9L9,9L-9,9Z" transform="translate(244,160)" class="window window-3-1 f-6"></path><path d="M-9,-9L9,-9L9,9L-9,9Z" transform="translate(244,195.55555555555557)" class="window window-4-1 f-7"></path><path d="M-9,-9L9,-9L9,9L-9,9Z" transform="translate(244,231.11111111111111)" class="window window-5-1 f-8"></path><path d="M-9,-9L9,-9L9,9L-9,9Z" transform="translate(244,266.6666666666667)" class="window window-6-1 f-9"></path><path d="M-9,-9L9,-9L9,9L-9,9Z" transform="translate(244,302.22222222222223)" class="window window-7-1 f-10"></path><path d="M-9,-9L9,-9L9,9L-9,9Z" transform="translate(244,337.77777777777777)" class="window window-8-1 f-11"></path><path d="M-9,-9L9,-9L9,9L-9,9Z" transform="translate(244,373.33333333333337)" class="window window-9-1 f-12"></path><path d="M-9,-9L9,-9L9,9L-9,9Z" transform="translate(244,408.8888888888889)" class="window window-10-1 f-13"></path><path d="M-9,-9L9,-9L9,9L-9,9Z" transform="translate(244,444.44444444444446)" class="window window-11-1 f-14"></path><path d="M-9,-9L9,-9L9,9L-9,9Z" transform="translate(244,480)" class="window window-12-1 f-15"></path><path d="M-9,-9L9,-9L9,9L-9,9Z" transform="translate(244,515.5555555555555)" class="window window-13-1 f-16"></path><path d="M-9,-9L9,-9L9,9L-9,9Z" transform="translate(244,551.1111111111111)" class="window window-14-1 f-17"></path><path d="M-9,-9L9,-9L9,9L-9,9Z" transform="translate(244,586.6666666666667)" class="window window-15-1 f-18"></path><path d="M-9,-9L9,-9L9,9L-9,9Z" transform="translate(272,53.333333333333336)" class="window window-0-1 f-3"></path><path d="M-9,-9L9,-9L9,9L-9,9Z" transform="translate(272,88.88888888888889)" class="window window-1-1 f-4"></path><path d="M-9,-9L9,-9L9,9L-9,9Z" transform="translate(272,124.44444444444446)" class="window window-2-1 f-5"></path><path d="M-9,-9L9,-9L9,9L-9,9Z" transform="translate(272,160)" class="window window-3-1 f-6"></path><path d="M-9,-9L9,-9L9,9L-9,9Z" transform="translate(272,195.55555555555557)" class="window window-4-1 f-7"></path><path d="M-9,-9L9,-9L9,9L-9,9Z" transform="translate(272,231.11111111111111)" class="window window-5-1 f-8"></path><path d="M-9,-9L9,-9L9,9L-9,9Z" transform="translate(272,266.6666666666667)" class="window window-6-1 f-9"></path><path d="M-9,-9L9,-9L9,9L-9,9Z" transform="translate(272,302.22222222222223)" class="window window-7-1 f-10"></path><path d="M-9,-9L9,-9L9,9L-9,9Z" transform="translate(272,337.77777777777777)" class="window window-8-1 f-11"></path><path d="M-9,-9L9,-9L9,9L-9,9Z" transform="translate(272,373.33333333333337)" class="window window-9-1 f-12"></path><path d="M-9,-9L9,-9L9,9L-9,9Z" transform="translate(272,408.8888888888889)" class="window window-10-1 f-13"></path><path d="M-9,-9L9,-9L9,9L-9,9Z" transform="translate(272,444.44444444444446)" class="window window-11-1 f-14"></path><path d="M-9,-9L9,-9L9,9L-9,9Z" transform="translate(272,480)" class="window window-12-1 f-15"></path><path d="M-9,-9L9,-9L9,9L-9,9Z" transform="translate(272,515.5555555555555)" class="window window-13-1 f-16"></path><path d="M-9,-9L9,-9L9,9L-9,9Z" transform="translate(272,551.1111111111111)" class="window window-14-1 f-17"></path><path d="M-9,-9L9,-9L9,9L-9,9Z" transform="translate(272,586.6666666666667)" class="window window-15-1 f-18"></path><path d="M-9,-9L9,-9L9,9L-9,9Z" transform="translate(308,53.333333333333336)" class="window window-0-2 f-4"></path><path d="M-9,-9L9,-9L9,9L-9,9Z" transform="translate(308,88.88888888888889)" class="window window-1-2 f-5"></path><path d="M-9,-9L9,-9L9,9L-9,9Z" transform="translate(308,124.44444444444446)" class="window window-2-2 f-6"></path><path d="M-9,-9L9,-9L9,9L-9,9Z" transform="translate(308,160)" class="window window-3-2 f-7"></path><path d="M-9,-9L9,-9L9,9L-9,9Z" transform="translate(308,195.55555555555557)" class="window window-4-2 f-8"></path><path d="M-9,-9L9,-9L9,9L-9,9Z" transform="translate(308,231.11111111111111)" class="window window-5-2 f-9"></path><path d="M-9,-9L9,-9L9,9L-9,9Z" transform="translate(308,266.6666666666667)" class="window window-6-2 f-10"></path><path d="M-9,-9L9,-9L9,9L-9,9Z" transform="translate(308,302.22222222222223)" class="window window-7-2 f-11"></path><path d="M-9,-9L9,-9L9,9L-9,9Z" transform="translate(308,337.77777777777777)" class="window window-8-2 f-12"></path><path d="M-9,-9L9,-9L9,9L-9,9Z" transform="translate(308,373.33333333333337)" class="window window-9-2 f-13"></path><path d="M-9,-9L9,-9L9,9L-9,9Z" transform="translate(308,408.8888888888889)" class="window window-10-2 f-14"></path><path d="M-9,-9L9,-9L9,9L-9,9Z" transform="translate(308,444.44444444444446)" class="window window-11-2 f-15"></path><path d="M-9,-9L9,-9L9,9L-9,9Z" transform="translate(308,480)" class="window window-12-2 f-16"></path><path d="M-9,-9L9,-9L9,9L-9,9Z" transform="translate(308,515.5555555555555)" class="window window-13-2 f-17"></path><path d="M-9,-9L9,-9L9,9L-9,9Z" transform="translate(308,551.1111111111111)" class="window window-14-2 f-18"></path><path d="M-9,-9L9,-9L9,9L-9,9Z" transform="translate(308,586.6666666666667)" class="window window-15-2 f-19"></path><path d="M-9,-9L9,-9L9,9L-9,9Z" transform="translate(336,53.333333333333336)" class="window window-0-2 f-4"></path><path d="M-9,-9L9,-9L9,9L-9,9Z" transform="translate(336,88.88888888888889)" class="window window-1-2 f-5"></path><path d="M-9,-9L9,-9L9,9L-9,9Z" transform="translate(336,124.44444444444446)" class="window window-2-2 f-6"></path><path d="M-9,-9L9,-9L9,9L-9,9Z" transform="translate(336,160)" class="window window-3-2 f-7"></path><path d="M-9,-9L9,-9L9,9L-9,9Z" transform="translate(336,195.55555555555557)" class="window window-4-2 f-8"></path><path d="M-9,-9L9,-9L9,9L-9,9Z" transform="translate(336,231.11111111111111)" class="window window-5-2 f-9"></path><path d="M-9,-9L9,-9L9,9L-9,9Z" transform="translate(336,266.6666666666667)" class="window window-6-2 f-10"></path><path d="M-9,-9L9,-9L9,9L-9,9Z" transform="translate(336,302.22222222222223)" class="window window-7-2 f-11"></path><path d="M-9,-9L9,-9L9,9L-9,9Z" transform="translate(336,337.77777777777777)" class="window window-8-2 f-12"></path><path d="M-9,-9L9,-9L9,9L-9,9Z" transform="translate(336,373.33333333333337)" class="window window-9-2 f-13"></path><path d="M-9,-9L9,-9L9,9L-9,9Z" transform="translate(336,408.8888888888889)" class="window window-10-2 f-14"></path><path d="M-9,-9L9,-9L9,9L-9,9Z" transform="translate(336,444.44444444444446)" class="window window-11-2 f-15"></path><path d="M-9,-9L9,-9L9,9L-9,9Z" transform="translate(336,480)" class="window window-12-2 f-16"></path><path d="M-9,-9L9,-9L9,9L-9,9Z" transform="translate(336,515.5555555555555)" class="window window-13-2 f-17"></path><path d="M-9,-9L9,-9L9,9L-9,9Z" transform="translate(336,551.1111111111111)" class="window window-14-2 f-18"></path><path d="M-9,-9L9,-9L9,9L-9,9Z" transform="translate(336,586.6666666666667)" class="window window-15-2 f-19"></path><path d="M-9,-9L9,-9L9,9L-9,9Z" transform="translate(372,53.333333333333336)" class="window window-0-3 f-5"></path><path d="M-9,-9L9,-9L9,9L-9,9Z" transform="translate(372,88.88888888888889)" class="window window-1-3 f-6"></path><path d="M-9,-9L9,-9L9,9L-9,9Z" transform="translate(372,124.44444444444446)" class="window window-2-3 f-7"></path><path d="M-9,-9L9,-9L9,9L-9,9Z" transform="translate(372,160)" class="window window-3-3 f-8"></path><path d="M-9,-9L9,-9L9,9L-9,9Z" transform="translate(372,195.55555555555557)" class="window window-4-3 f-9"></path><path d="M-9,-9L9,-9L9,9L-9,9Z" transform="translate(372,231.11111111111111)" class="window window-5-3 f-10"></path><path d="M-9,-9L9,-9L9,9L-9,9Z" transform="translate(372,266.6666666666667)" class="window window-6-3 f-11"></path><path d="M-9,-9L9,-9L9,9L-9,9Z" transform="translate(372,302.22222222222223)" class="window window-7-3 f-12"></path><path d="M-9,-9L9,-9L9,9L-9,9Z" transform="translate(372,337.77777777777777)" class="window window-8-3 f-13"></path><path d="M-9,-9L9,-9L9,9L-9,9Z" transform="translate(372,373.33333333333337)" class="window window-9-3 f-14"></path><path d="M-9,-9L9,-9L9,9L-9,9Z" transform="translate(372,408.8888888888889)" class="window window-10-3 f-15"></path><path d="M-9,-9L9,-9L9,9L-9,9Z" transform="translate(372,444.44444444444446)" class="window window-11-3 f-16"></path><path d="M-9,-9L9,-9L9,9L-9,9Z" transform="translate(372,480)" class="window window-12-3 f-17"></path><path d="M-9,-9L9,-9L9,9L-9,9Z" transform="translate(372,515.5555555555555)" class="window window-13-3 f-18"></path><path d="M-9,-9L9,-9L9,9L-9,9Z" transform="translate(372,551.1111111111111)" class="window window-14-3 f-19"></path><path d="M-9,-9L9,-9L9,9L-9,9Z" transform="translate(372,586.6666666666667)" class="window window-15-3 f-20"></path><path d="M-9,-9L9,-9L9,9L-9,9Z" transform="translate(400,53.333333333333336)" class="window window-0-3 f-5"></path><path d="M-9,-9L9,-9L9,9L-9,9Z" transform="translate(400,88.88888888888889)" class="window window-1-3 f-6"></path><path d="M-9,-9L9,-9L9,9L-9,9Z" transform="translate(400,124.44444444444446)" class="window window-2-3 f-7"></path><path d="M-9,-9L9,-9L9,9L-9,9Z" transform="translate(400,160)" class="window window-3-3 f-8"></path><path d="M-9,-9L9,-9L9,9L-9,9Z" transform="translate(400,195.55555555555557)" class="window window-4-3 f-9"></path><path d="M-9,-9L9,-9L9,9L-9,9Z" transform="translate(400,231.11111111111111)" class="window window-5-3 f-10"></path><path d="M-9,-9L9,-9L9,9L-9,9Z" transform="translate(400,266.6666666666667)" class="window window-6-3 f-11"></path><path d="M-9,-9L9,-9L9,9L-9,9Z" transform="translate(400,302.22222222222223)" class="window window-7-3 f-12"></path><path d="M-9,-9L9,-9L9,9L-9,9Z" transform="translate(400,337.77777777777777)" class="window window-8-3 f-13"></path><path d="M-9,-9L9,-9L9,9L-9,9Z" transform="translate(400,373.33333333333337)" class="window window-9-3 f-14"></path><path d="M-9,-9L9,-9L9,9L-9,9Z" transform="translate(400,408.8888888888889)" class="window window-10-3 f-15"></path><path d="M-9,-9L9,-9L9,9L-9,9Z" transform="translate(400,444.44444444444446)" class="window window-11-3 f-16"></path><path d="M-9,-9L9,-9L9,9L-9,9Z" transform="translate(400,480)" class="window window-12-3 f-17"></path><path d="M-9,-9L9,-9L9,9L-9,9Z" transform="translate(400,515.5555555555555)" class="window window-13-3 f-18"></path><path d="M-9,-9L9,-9L9,9L-9,9Z" transform="translate(400,551.1111111111111)" class="window window-14-3 f-19"></path><path d="M-9,-9L9,-9L9,9L-9,9Z" transform="translate(400,586.6666666666667)" class="window window-15-3 f-20"></path><path d="M-4.5,-9L4.5,-9L4.5,9L-4.5,9Z" transform="translate(480,53.333333333333336)" fill="#9CDBCB" id="floor-0"></path><path d="M-4.5,-9L4.5,-9L4.5,9L-4.5,9Z" transform="translate(480,88.88888888888889)" fill="#AB98CC" id="floor-1"></path><path d="M-4.5,-9L4.5,-9L4.5,9L-4.5,9Z" transform="translate(480,124.44444444444446)" fill="#BAAD8C" id="floor-2"></path><path d="M-4.5,-9L4.5,-9L4.5,9L-4.5,9Z" transform="translate(480,160)" fill="#998D9D" id="floor-3"></path><path d="M-4.5,-9L4.5,-9L4.5,9L-4.5,9Z" transform="translate(480,195.55555555555557)" fill="#CBAE99" id="floor-4"></path><path d="M-4.5,-9L4.5,-9L4.5,9L-4.5,9Z" transform="translate(480,231.11111111111111)" fill="#ACFF8D" id="floor-5"></path><path d="M-4.5,-9L4.5,-9L4.5,9L-4.5,9Z" transform="translate(480,266.6666666666667)" fill="#A9DFD9" id="floor-6"></path><path d="M-4.5,-9L4.5,-9L4.5,9L-4.5,9Z" transform="translate(480,302.22222222222223)" fill="#AFC89E" id="floor-7"></path><path d="M-4.5,-9L4.5,-9L4.5,9L-4.5,9Z" transform="translate(480,337.77777777777777)" fill="#9BCBD9" id="floor-8"></path><path d="M-4.5,-9L4.5,-9L4.5,9L-4.5,9Z" transform="translate(480,373.33333333333337)" fill="#8C9CAA" id="floor-9"></path><path d="M-4.5,-9L4.5,-9L4.5,9L-4.5,9Z" transform="translate(480,408.8888888888889)" fill="#8BDCDD" id="floor-10"></path><path d="M-4.5,-9L4.5,-9L4.5,9L-4.5,9Z" transform="translate(480,444.44444444444446)" fill="#DA9DD8" id="floor-11"></path><path d="M-4.5,-9L4.5,-9L4.5,9L-4.5,9Z" transform="translate(480,480)" fill="#EACE9D" id="floor-12"></path><path d="M-4.5,-9L4.5,-9L4.5,9L-4.5,9Z" transform="translate(480,515.5555555555555)" fill="#89EDCF" id="floor-13"></path><path d="M-4.5,-9L4.5,-9L4.5,9L-4.5,9Z" transform="translate(480,551.1111111111111)" fill="#E88CF8" id="floor-14"></path><path d="M-4.5,-9L4.5,-9L4.5,9L-4.5,9Z" transform="translate(480,586.6666666666667)" fill="#FEACE9" id="floor-15"></path></g></svg>