<svg xmlns="http://www.w3.org/2000/svg" viewBox="0 0 640 640" viewport-fill="#000" label="_shape #79 vasarely"><defs><style type="text/css">
.f-0 { fill: #000;  }
.f-1 { fill: #101010;  }
.f-2 { fill: #202020;  }
.f-3 { fill: #303030;  }
.f-4 { fill: #404040;  }
.f-5 { fill: #505050;  }
.f-6 { fill: #606060;  }
.f-7 { fill: #707070;  }
.f-8 { fill: #808080;  }
.f-9 { fill: #909090;  }
.f-10 { fill: #a0a0a0;  }
.f-11 { fill: #b0b0b0;  }
.f-12 { fill: #c0c0c0;  }
.f-13 { fill: #d0d0d0;  }
.f-14 { fill: #e0e0e0;  }
.f-15 { fill: #f0f0f0;  }
.bgc { fill: #101010;  }
.fore { fill: #404040; stroke-color: #404040; sroke-width: 0;  }
text{ font-family: Freemono, Sans, Arial; } 
</style></defs><g id="shape-77" fill-rule="evenodd" gridX="5" gridY="4"><path d="M0,0L0,-50L-35.35533905932737,-33.33333333333333L-35.35533905932737,16.666666666666668Z" transform="translate(137.14285714285714,160)" class="sq-0-0 f-7"></path><path d="M0,0L-35.35533905932737,16.666666666666668L0,33.333333333333336L35.35533905932737,16.666666666666668Z" transform="translate(137.14285714285714,160)" class="sq-0-0 f-6"></path><path d="M0,0L35.35533905932737,16.666666666666668L35.35533905932737,-33.33333333333333L0,-50Z" transform="translate(137.14285714285714,160)" class="sq-0-0 f-2"></path><path d="M0,0L0,-50L-35.35533905932737,-33.33333333333333L-35.35533905932737,16.666666666666668Z" transform="translate(137.14285714285714,266.6666666666667)" class="sq-0-1 f-4"></path><path d="M0,0L-35.35533905932737,16.666666666666668L0,33.333333333333336L35.35533905932737,16.666666666666668Z" transform="translate(137.14285714285714,266.6666666666667)" class="sq-0-1 f-8"></path><path d="M0,0L35.35533905932737,16.666666666666668L35.35533905932737,-33.33333333333333L0,-50Z" transform="translate(137.14285714285714,266.6666666666667)" class="sq-0-1 f-5"></path><path d="M0,0L0,-50L-35.35533905932737,-33.33333333333333L-35.35533905932737,16.666666666666668Z" transform="translate(137.14285714285714,373.33333333333337)" class="sq-0-2 f-8"></path><path d="M0,0L-35.35533905932737,16.666666666666668L0,33.333333333333336L35.35533905932737,16.666666666666668Z" transform="translate(137.14285714285714,373.33333333333337)" class="sq-0-2 f-3"></path><path d="M0,0L35.35533905932737,16.666666666666668L35.35533905932737,-33.33333333333333L0,-50Z" transform="translate(137.14285714285714,373.33333333333337)" class="sq-0-2 f-4"></path><path d="M0,0L0,-50L-35.35533905932737,-33.33333333333333L-35.35533905932737,16.666666666666668Z" transform="translate(137.14285714285714,480)" class="sq-0-3 f-3"></path><path d="M0,0L-35.35533905932737,16.666666666666668L0,33.333333333333336L35.35533905932737,16.666666666666668Z" transform="translate(137.14285714285714,480)" class="sq-0-3 f-8"></path><path d="M0,0L35.35533905932737,16.666666666666668L35.35533905932737,-33.33333333333333L0,-50Z" transform="translate(137.14285714285714,480)" class="sq-0-3 f-4"></path><path d="M0,0L0,-50L-35.35533905932737,-33.33333333333333L-35.35533905932737,16.666666666666668Z" transform="translate(228.57142857142858,160)" class="sq-1-0 f-2"></path><path d="M0,0L-35.35533905932737,16.666666666666668L0,33.333333333333336L35.35533905932737,16.666666666666668Z" transform="translate(228.57142857142858,160)" class="sq-1-0 f-2"></path><path d="M0,0L35.35533905932737,16.666666666666668L35.35533905932737,-33.33333333333333L0,-50Z" transform="translate(228.57142857142858,160)" class="sq-1-0 f-4"></path><path d="M0,0L0,-50L-35.35533905932737,-33.33333333333333L-35.35533905932737,16.666666666666668Z" transform="translate(228.57142857142858,266.6666666666667)" class="sq-1-1 f-2"></path><path d="M0,0L-35.35533905932737,16.666666666666668L0,33.333333333333336L35.35533905932737,16.666666666666668Z" transform="translate(228.57142857142858,266.6666666666667)" class="sq-1-1 f-7"></path><path d="M0,0L35.35533905932737,16.666666666666668L35.35533905932737,-33.33333333333333L0,-50Z" transform="translate(228.57142857142858,266.6666666666667)" class="sq-1-1 f-3"></path><path d="M0,0L0,-50L-35.35533905932737,-33.33333333333333L-35.35533905932737,16.666666666666668Z" transform="translate(228.57142857142858,373.33333333333337)" class="sq-1-2 f-6"></path><path d="M0,0L-35.35533905932737,16.666666666666668L0,33.333333333333336L35.35533905932737,16.666666666666668Z" transform="translate(228.57142857142858,373.33333333333337)" class="sq-1-2 f-5"></path><path d="M0,0L35.35533905932737,16.666666666666668L35.35533905932737,-33.33333333333333L0,-50Z" transform="translate(228.57142857142858,373.33333333333337)" class="sq-1-2 f-5"></path><path d="M0,0L0,-50L-35.35533905932737,-33.33333333333333L-35.35533905932737,16.666666666666668Z" transform="translate(228.57142857142858,480)" class="sq-1-3 f-6"></path><path d="M0,0L-35.35533905932737,16.666666666666668L0,33.333333333333336L35.35533905932737,16.666666666666668Z" transform="translate(228.57142857142858,480)" class="sq-1-3 f-7"></path><path d="M0,0L35.35533905932737,16.666666666666668L35.35533905932737,-33.33333333333333L0,-50Z" transform="translate(228.57142857142858,480)" class="sq-1-3 f-5"></path><path d="M0,0L0,-50L-35.35533905932737,-33.33333333333333L-35.35533905932737,16.666666666666668Z" transform="translate(320,160)" class="sq-2-0 f-2"></path><path d="M0,0L-35.35533905932737,16.666666666666668L0,33.333333333333336L35.35533905932737,16.666666666666668Z" transform="translate(320,160)" class="sq-2-0 f-6"></path><path d="M0,0L35.35533905932737,16.666666666666668L35.35533905932737,-33.33333333333333L0,-50Z" transform="translate(320,160)" class="sq-2-0 f-5"></path><path d="M0,0L0,-50L-35.35533905932737,-33.33333333333333L-35.35533905932737,16.666666666666668Z" transform="translate(320,266.6666666666667)" class="sq-2-1 f-4"></path><path d="M0,0L-35.35533905932737,16.666666666666668L0,33.333333333333336L35.35533905932737,16.666666666666668Z" transform="translate(320,266.6666666666667)" class="sq-2-1 f-5"></path><path d="M0,0L35.35533905932737,16.666666666666668L35.35533905932737,-33.33333333333333L0,-50Z" transform="translate(320,266.6666666666667)" class="sq-2-1 f-6"></path><path d="M0,0L0,-50L-35.35533905932737,-33.33333333333333L-35.35533905932737,16.666666666666668Z" transform="translate(320,373.33333333333337)" class="sq-2-2 f-3"></path><path d="M0,0L-35.35533905932737,16.666666666666668L0,33.333333333333336L35.35533905932737,16.666666666666668Z" transform="translate(320,373.33333333333337)" class="sq-2-2 f-5"></path><path d="M0,0L35.35533905932737,16.666666666666668L35.35533905932737,-33.33333333333333L0,-50Z" transform="translate(320,373.33333333333337)" class="sq-2-2 f-2"></path><path d="M0,0L0,-50L-35.35533905932737,-33.33333333333333L-35.35533905932737,16.666666666666668Z" transform="translate(320,480)" class="sq-2-3 f-8"></path><path d="M0,0L-35.35533905932737,16.666666666666668L0,33.333333333333336L35.35533905932737,16.666666666666668Z" transform="translate(320,480)" class="sq-2-3 f-7"></path><path d="M0,0L35.35533905932737,16.666666666666668L35.35533905932737,-33.33333333333333L0,-50Z" transform="translate(320,480)" class="sq-2-3 f-4"></path><path d="M0,0L0,-50L-35.35533905932737,-33.33333333333333L-35.35533905932737,16.666666666666668Z" transform="translate(411.42857142857144,160)" class="sq-3-0 f-8"></path><path d="M0,0L-35.35533905932737,16.666666666666668L0,33.333333333333336L35.35533905932737,16.666666666666668Z" transform="translate(411.42857142857144,160)" class="sq-3-0 f-4"></path><path d="M0,0L35.35533905932737,16.666666666666668L35.35533905932737,-33.33333333333333L0,-50Z" transform="translate(411.42857142857144,160)" class="sq-3-0 f-6"></path><path d="M0,0L0,-50L-35.35533905932737,-33.33333333333333L-35.35533905932737,16.666666666666668Z" transform="translate(411.42857142857144,266.6666666666667)" class="sq-3-1 f-7"></path><path d="M0,0L-35.35533905932737,16.666666666666668L0,33.333333333333336L35.35533905932737,16.666666666666668Z" transform="translate(411.42857142857144,266.6666666666667)" class="sq-3-1 f-8"></path><path d="M0,0L35.35533905932737,16.666666666666668L35.35533905932737,-33.33333333333333L0,-50Z" transform="translate(411.42857142857144,266.6666666666667)" class="sq-3-1 f-5"></path><path d="M0,0L0,-50L-35.35533905932737,-33.33333333333333L-35.35533905932737,16.666666666666668Z" transform="translate(411.42857142857144,373.33333333333337)" class="sq-3-2 f-2"></path><path d="M0,0L-35.35533905932737,16.666666666666668L0,33.333333333333336L35.35533905932737,16.666666666666668Z" transform="translate(411.42857142857144,373.33333333333337)" class="sq-3-2 f-7"></path><path d="M0,0L35.35533905932737,16.666666666666668L35.35533905932737,-33.33333333333333L0,-50Z" transform="translate(411.42857142857144,373.33333333333337)" class="sq-3-2 f-7"></path><path d="M0,0L0,-50L-35.35533905932737,-33.33333333333333L-35.35533905932737,16.666666666666668Z" transform="translate(411.42857142857144,480)" class="sq-3-3 f-7"></path><path d="M0,0L-35.35533905932737,16.666666666666668L0,33.333333333333336L35.35533905932737,16.666666666666668Z" transform="translate(411.42857142857144,480)" class="sq-3-3 f-5"></path><path d="M0,0L35.35533905932737,16.666666666666668L35.35533905932737,-33.33333333333333L0,-50Z" transform="translate(411.42857142857144,480)" class="sq-3-3 f-3"></path><path d="M0,0L0,-50L-35.35533905932737,-33.33333333333333L-35.35533905932737,16.666666666666668Z" transform="translate(502.8571428571429,160)" class="sq-4-0 f-4"></path><path d="M0,0L-35.35533905932737,16.666666666666668L0,33.333333333333336L35.35533905932737,16.666666666666668Z" transform="translate(502.8571428571429,160)" class="sq-4-0 f-6"></path><path d="M0,0L35.35533905932737,16.666666666666668L35.35533905932737,-33.33333333333333L0,-50Z" transform="translate(502.8571428571429,160)" class="sq-4-0 f-3"></path><path d="M0,0L0,-50L-35.35533905932737,-33.33333333333333L-35.35533905932737,16.666666666666668Z" transform="translate(502.8571428571429,266.6666666666667)" class="sq-4-1 f-3"></path><path d="M0,0L-35.35533905932737,16.666666666666668L0,33.333333333333336L35.35533905932737,16.666666666666668Z" transform="translate(502.8571428571429,266.6666666666667)" class="sq-4-1 f-5"></path><path d="M0,0L35.35533905932737,16.666666666666668L35.35533905932737,-33.33333333333333L0,-50Z" transform="translate(502.8571428571429,266.6666666666667)" class="sq-4-1 f-5"></path><path d="M0,0L0,-50L-35.35533905932737,-33.33333333333333L-35.35533905932737,16.666666666666668Z" transform="translate(502.8571428571429,373.33333333333337)" class="sq-4-2 f-3"></path><path d="M0,0L-35.35533905932737,16.666666666666668L0,33.333333333333336L35.35533905932737,16.666666666666668Z" transform="translate(502.8571428571429,373.33333333333337)" class="sq-4-2 f-8"></path><path d="M0,0L35.35533905932737,16.666666666666668L35.35533905932737,-33.33333333333333L0,-50Z" transform="translate(502.8571428571429,373.33333333333337)" class="sq-4-2 f-6"></path><path d="M0,0L0,-50L-35.35533905932737,-33.33333333333333L-35.35533905932737,16.666666666666668Z" transform="translate(502.8571428571429,480)" class="sq-4-3 f-8"></path><path d="M0,0L-35.35533905932737,16.666666666666668L0,33.333333333333336L35.35533905932737,16.666666666666668Z" transform="translate(502.8571428571429,480)" class="sq-4-3 f-8"></path><path d="M0,0L35.35533905932737,16.666666666666668L35.35533905932737,-33.33333333333333L0,-50Z" transform="translate(502.8571428571429,480)" class="sq-4-3 f-2"></path></g></svg>