<svg xmlns="http://www.w3.org/2000/svg" viewBox="0 0 640 640" viewport-fill="#000" label="_shape #82 gradient #3"><defs><style type="text/css">
.f-0 { fill: #000;  }
.f-1 { fill: #101010;  }
.f-2 { fill: #202020;  }
.f-3 { fill: #303030;  }
.f-4 { fill: #404040;  }
.f-5 { fill: #505050;  }
.f-6 { fill: #606060;  }
.f-7 { fill: #707070;  }
.f-8 { fill: #808080;  }
.f-9 { fill: #909090;  }
.f-10 { fill: #a0a0a0;  }
.f-11 { fill: #b0b0b0;  }
.f-12 { fill: #c0c0c0;  }
.f-13 { fill: #d0d0d0;  }
.f-14 { fill: #e0e0e0;  }
.f-15 { fill: #f0f0f0;  }
.bgc { fill: #101010;  }
.fore { fill: #404040; stroke-color: #404040; sroke-width: 0;  }
text{ font-family: Freemono, Sans, Arial; } 
</style><pattern id="stripes0" patternUnits="userSpaceOnUse" width="4" height="4"><path d="M-2,0L4,6" style="line-cap: butt; stroke: #333; stroke-width: 0.2" class="fore"></path><path d="M0,-2L6,4" style="line-cap: butt; stroke: #333; stroke-width: 0.2" class="fore"></path></pattern><pattern id="stripes1" patternUnits="userSpaceOnUse" width="4" height="4"><path d="M-2,0L4,6" style="line-cap: butt; stroke: #333; stroke-width: 0.4" class="fore"></path><path d="M0,-2L6,4" style="line-cap: butt; stroke: #333; stroke-width: 0.4" class="fore"></path></pattern><pattern id="stripes2" patternUnits="userSpaceOnUse" width="4" height="4"><path d="M-2,0L4,6" style="line-cap: butt; stroke: #333; stroke-width: 0.6000000000000001" class="fore"></path><path d="M0,-2L6,4" style="line-cap: butt; stroke: #333; stroke-width: 0.6000000000000001" class="fore"></path></pattern><pattern id="stripes3" patternUnits="userSpaceOnUse" width="4" height="4"><path d="M-2,0L4,6" style="line-cap: butt; stroke: #333; stroke-width: 0.8" class="fore"></path><path d="M0,-2L6,4" style="line-cap: butt; stroke: #333; stroke-width: 0.8" class="fore"></path></pattern><pattern id="stripes4" patternUnits="userSpaceOnUse" width="4" height="4"><path d="M-2,0L4,6" style="line-cap: butt; stroke: #333; stroke-width: 1" class="fore"></path><path d="M0,-2L6,4" style="line-cap: butt; stroke: #333; stroke-width: 1" class="fore"></path></pattern><pattern id="stripes5" patternUnits="userSpaceOnUse" width="4" height="4"><path d="M-2,0L4,6" style="line-cap: butt; stroke: #333; stroke-width: 1.2000000000000002" class="fore"></path><path d="M0,-2L6,4" style="line-cap: butt; stroke: #333; stroke-width: 1.2000000000000002" class="fore"></path></pattern><pattern id="stripes6" patternUnits="userSpaceOnUse" width="4" height="4"><path d="M-2,0L4,6" style="line-cap: butt; stroke: #333; stroke-width: 1.4000000000000001" class="fore"></path><path d="M0,-2L6,4" style="line-cap: butt; stroke: #333; stroke-width: 1.4000000000000001" class="fore"></path></pattern><pattern id="stripes7" patternUnits="userSpaceOnUse" width="4" height="4"><path d="M-2,0L4,6" style="line-cap: butt; stroke: #333; stroke-width: 1.6" class="fore"></path><path d="M0,-2L6,4" style="line-cap: butt; stroke: #333; stroke-width: 1.6" class="fore"></path></pattern><pattern id="stripes8" patternUnits="userSpaceOnUse" width="4" height="4"><path d="M-2,0L4,6" style="line-cap: butt; stroke: #333; stroke-width: 1.8" class="fore"></path><path d="M0,-2L6,4" style="line-cap: butt; stroke: #333; stroke-width: 1.8" class="fore"></path></pattern><pattern id="stripes9" patternUnits="userSpaceOnUse" width="4" height="4"><path d="M-2,0L4,6" style="line-cap: butt; stroke: #333; stroke-width: 2" class="fore"></path><path d="M0,-2L6,4" style="line-cap: butt; stroke: #333; stroke-width: 2" class="fore"></path></pattern><pattern id="stripes10" patternUnits="userSpaceOnUse" width="4" height="4"><path d="M-2,0L4,6" style="line-cap: butt; stroke: #333; stroke-width: 2.2" class="fore"></path><path d="M0,-2L6,4" style="line-cap: butt; stroke: #333; stroke-width: 2.2" class="fore"></path></pattern><pattern id="stripes11" patternUnits="userSpaceOnUse" width="4" height="4"><path d="M-2,0L4,6" style="line-cap: butt; stroke: #333; stroke-width: 2.4000000000000004" class="fore"></path><path d="M0,-2L6,4" style="line-cap: butt; stroke: #333; stroke-width: 2.4000000000000004" class="fore"></path></pattern><pattern id="stripes12" patternUnits="userSpaceOnUse" width="4" height="4"><path d="M-2,0L4,6" style="line-cap: butt; stroke: #333; stroke-width: 2.6" class="fore"></path><path d="M0,-2L6,4" style="line-cap: butt; stroke: #333; stroke-width: 2.6" class="fore"></path></pattern><pattern id="stripes13" patternUnits="userSpaceOnUse" width="4" height="4"><path d="M-2,0L4,6" style="line-cap: butt; stroke: #333; stroke-width: 2.8000000000000003" class="fore"></path><path d="M0,-2L6,4" style="line-cap: butt; stroke: #333; stroke-width: 2.8000000000000003" class="fore"></path></pattern><pattern id="stripes14" patternUnits="userSpaceOnUse" width="4" height="4"><path d="M-2,0L4,6" style="line-cap: butt; stroke: #333; stroke-width: 3" class="fore"></path><path d="M0,-2L6,4" style="line-cap: butt; stroke: #333; stroke-width: 3" class="fore"></path></pattern><pattern id="stripes15" patternUnits="userSpaceOnUse" width="4" height="4"><path d="M-2,0L4,6" style="line-cap: butt; stroke: #333; stroke-width: 3.2" class="fore"></path><path d="M0,-2L6,4" style="line-cap: butt; stroke: #333; stroke-width: 3.2" class="fore"></path></pattern><pattern id="stripes16" patternUnits="userSpaceOnUse" width="4" height="4"><path d="M-2,0L4,6" style="line-cap: butt; stroke: #333; stroke-width: 3.4000000000000004" class="fore"></path><path d="M0,-2L6,4" style="line-cap: butt; stroke: #333; stroke-width: 3.4000000000000004" class="fore"></path></pattern><pattern id="stripes17" patternUnits="userSpaceOnUse" width="4" height="4"><path d="M-2,0L4,6" style="line-cap: butt; stroke: #333; stroke-width: 3.6" class="fore"></path><path d="M0,-2L6,4" style="line-cap: butt; stroke: #333; stroke-width: 3.6" class="fore"></path></pattern><pattern id="stripes18" patternUnits="userSpaceOnUse" width="4" height="4"><path d="M-2,0L4,6" style="line-cap: butt; stroke: #333; stroke-width: 3.8000000000000003" class="fore"></path><path d="M0,-2L6,4" style="line-cap: butt; stroke: #333; stroke-width: 3.8000000000000003" class="fore"></path></pattern><pattern id="stripes19" patternUnits="userSpaceOnUse" width="4" height="4"><path d="M-2,0L4,6" style="line-cap: butt; stroke: #333; stroke-width: 4" class="fore"></path><path d="M0,-2L6,4" style="line-cap: butt; stroke: #333; stroke-width: 4" class="fore"></path></pattern><pattern id="stripes20" patternUnits="userSpaceOnUse" width="4" height="4"><path d="M-2,0L4,6" style="line-cap: butt; stroke: #333; stroke-width: 4.2" class="fore"></path><path d="M0,-2L6,4" style="line-cap: butt; stroke: #333; stroke-width: 4.2" class="fore"></path></pattern><pattern id="stripes21" patternUnits="userSpaceOnUse" width="4" height="4"><path d="M-2,0L4,6" style="line-cap: butt; stroke: #333; stroke-width: 4.4" class="fore"></path><path d="M0,-2L6,4" style="line-cap: butt; stroke: #333; stroke-width: 4.4" class="fore"></path></pattern><pattern id="stripes22" patternUnits="userSpaceOnUse" width="4" height="4"><path d="M-2,0L4,6" style="line-cap: butt; stroke: #333; stroke-width: 4.6000000000000005" class="fore"></path><path d="M0,-2L6,4" style="line-cap: butt; stroke: #333; stroke-width: 4.6000000000000005" class="fore"></path></pattern><pattern id="stripes23" patternUnits="userSpaceOnUse" width="4" height="4"><path d="M-2,0L4,6" style="line-cap: butt; stroke: #333; stroke-width: 4.800000000000001" class="fore"></path><path d="M0,-2L6,4" style="line-cap: butt; stroke: #333; stroke-width: 4.800000000000001" class="fore"></path></pattern><pattern id="stripes24" patternUnits="userSpaceOnUse" width="4" height="4"><path d="M-2,0L4,6" style="line-cap: butt; stroke: #333; stroke-width: 5" class="fore"></path><path d="M0,-2L6,4" style="line-cap: butt; stroke: #333; stroke-width: 5" class="fore"></path></pattern><pattern id="stripes25" patternUnits="userSpaceOnUse" width="4" height="4"><path d="M-2,0L4,6" style="line-cap: butt; stroke: #333; stroke-width: 5.2" class="fore"></path><path d="M0,-2L6,4" style="line-cap: butt; stroke: #333; stroke-width: 5.2" class="fore"></path></pattern><pattern id="stripes26" patternUnits="userSpaceOnUse" width="4" height="4"><path d="M-2,0L4,6" style="line-cap: butt; stroke: #333; stroke-width: 5.4" class="fore"></path><path d="M0,-2L6,4" style="line-cap: butt; stroke: #333; stroke-width: 5.4" class="fore"></path></pattern><pattern id="stripes27" patternUnits="userSpaceOnUse" width="4" height="4"><path d="M-2,0L4,6" style="line-cap: butt; stroke: #333; stroke-width: 5.6000000000000005" class="fore"></path><path d="M0,-2L6,4" style="line-cap: butt; stroke: #333; stroke-width: 5.6000000000000005" class="fore"></path></pattern><pattern id="stripes28" patternUnits="userSpaceOnUse" width="4" height="4"><path d="M-2,0L4,6" style="line-cap: butt; stroke: #333; stroke-width: 5.800000000000001" class="fore"></path><path d="M0,-2L6,4" style="line-cap: butt; stroke: #333; stroke-width: 5.800000000000001" class="fore"></path></pattern><pattern id="stripes29" patternUnits="userSpaceOnUse" width="4" height="4"><path d="M-2,0L4,6" style="line-cap: butt; stroke: #333; stroke-width: 6" class="fore"></path><path d="M0,-2L6,4" style="line-cap: butt; stroke: #333; stroke-width: 6" class="fore"></path></pattern><pattern id="stripes30" patternUnits="userSpaceOnUse" width="4" height="4"><path d="M-2,0L4,6" style="line-cap: butt; stroke: #333; stroke-width: 6.2" class="fore"></path><path d="M0,-2L6,4" style="line-cap: butt; stroke: #333; stroke-width: 6.2" class="fore"></path></pattern><pattern id="stripes31" patternUnits="userSpaceOnUse" width="4" height="4"><path d="M-2,0L4,6" style="line-cap: butt; stroke: #333; stroke-width: 6.4" class="fore"></path><path d="M0,-2L6,4" style="line-cap: butt; stroke: #333; stroke-width: 6.4" class="fore"></path></pattern><pattern id="stripes32" patternUnits="userSpaceOnUse" width="4" height="4"><path d="M-2,0L4,6" style="line-cap: butt; stroke: #333; stroke-width: 6.6000000000000005" class="fore"></path><path d="M0,-2L6,4" style="line-cap: butt; stroke: #333; stroke-width: 6.6000000000000005" class="fore"></path></pattern><pattern id="stripes33" patternUnits="userSpaceOnUse" width="4" height="4"><path d="M-2,0L4,6" style="line-cap: butt; stroke: #333; stroke-width: 6.800000000000001" class="fore"></path><path d="M0,-2L6,4" style="line-cap: butt; stroke: #333; stroke-width: 6.800000000000001" class="fore"></path></pattern><pattern id="stripes34" patternUnits="userSpaceOnUse" width="4" height="4"><path d="M-2,0L4,6" style="line-cap: butt; stroke: #333; stroke-width: 7" class="fore"></path><path d="M0,-2L6,4" style="line-cap: butt; stroke: #333; stroke-width: 7" class="fore"></path></pattern><pattern id="stripes35" patternUnits="userSpaceOnUse" width="4" height="4"><path d="M-2,0L4,6" style="line-cap: butt; stroke: #333; stroke-width: 7.2" class="fore"></path><path d="M0,-2L6,4" style="line-cap: butt; stroke: #333; stroke-width: 7.2" class="fore"></path></pattern><pattern id="stripes36" patternUnits="userSpaceOnUse" width="4" height="4"><path d="M-2,0L4,6" style="line-cap: butt; stroke: #333; stroke-width: 7.4" class="fore"></path><path d="M0,-2L6,4" style="line-cap: butt; stroke: #333; stroke-width: 7.4" class="fore"></path></pattern><pattern id="stripes37" patternUnits="userSpaceOnUse" width="4" height="4"><path d="M-2,0L4,6" style="line-cap: butt; stroke: #333; stroke-width: 7.6000000000000005" class="fore"></path><path d="M0,-2L6,4" style="line-cap: butt; stroke: #333; stroke-width: 7.6000000000000005" class="fore"></path></pattern><pattern id="stripes38" patternUnits="userSpaceOnUse" width="4" height="4"><path d="M-2,0L4,6" style="line-cap: butt; stroke: #333; stroke-width: 7.800000000000001" class="fore"></path><path d="M0,-2L6,4" style="line-cap: butt; stroke: #333; stroke-width: 7.800000000000001" class="fore"></path></pattern><pattern id="stripes39" patternUnits="userSpaceOnUse" width="4" height="4"><path d="M-2,0L4,6" style="line-cap: butt; stroke: #333; stroke-width: 8" class="fore"></path><path d="M0,-2L6,4" style="line-cap: butt; stroke: #333; stroke-width: 8" class="fore"></path></pattern><pattern id="stripes40" patternUnits="userSpaceOnUse" width="4" height="4"><path d="M-2,0L4,6" style="line-cap: butt; stroke: #333; stroke-width: 8.200000000000001" class="fore"></path><path d="M0,-2L6,4" style="line-cap: butt; stroke: #333; stroke-width: 8.200000000000001" class="fore"></path></pattern><pattern id="stripes41" patternUnits="userSpaceOnUse" width="4" height="4"><path d="M-2,0L4,6" style="line-cap: butt; stroke: #333; stroke-width: 8.4" class="fore"></path><path d="M0,-2L6,4" style="line-cap: butt; stroke: #333; stroke-width: 8.4" class="fore"></path></pattern><pattern id="stripes42" patternUnits="userSpaceOnUse" width="4" height="4"><path d="M-2,0L4,6" style="line-cap: butt; stroke: #333; stroke-width: 8.6" class="fore"></path><path d="M0,-2L6,4" style="line-cap: butt; stroke: #333; stroke-width: 8.6" class="fore"></path></pattern><pattern id="stripes43" patternUnits="userSpaceOnUse" width="4" height="4"><path d="M-2,0L4,6" style="line-cap: butt; stroke: #333; stroke-width: 8.8" class="fore"></path><path d="M0,-2L6,4" style="line-cap: butt; stroke: #333; stroke-width: 8.8" class="fore"></path></pattern><pattern id="stripes44" patternUnits="userSpaceOnUse" width="4" height="4"><path d="M-2,0L4,6" style="line-cap: butt; stroke: #333; stroke-width: 9" class="fore"></path><path d="M0,-2L6,4" style="line-cap: butt; stroke: #333; stroke-width: 9" class="fore"></path></pattern><pattern id="stripes45" patternUnits="userSpaceOnUse" width="4" height="4"><path d="M-2,0L4,6" style="line-cap: butt; stroke: #333; stroke-width: 9.200000000000001" class="fore"></path><path d="M0,-2L6,4" style="line-cap: butt; stroke: #333; stroke-width: 9.200000000000001" class="fore"></path></pattern><pattern id="stripes46" patternUnits="userSpaceOnUse" width="4" height="4"><path d="M-2,0L4,6" style="line-cap: butt; stroke: #333; stroke-width: 9.4" class="fore"></path><path d="M0,-2L6,4" style="line-cap: butt; stroke: #333; stroke-width: 9.4" class="fore"></path></pattern><pattern id="stripes47" patternUnits="userSpaceOnUse" width="4" height="4"><path d="M-2,0L4,6" style="line-cap: butt; stroke: #333; stroke-width: 9.600000000000001" class="fore"></path><path d="M0,-2L6,4" style="line-cap: butt; stroke: #333; stroke-width: 9.600000000000001" class="fore"></path></pattern><pattern id="stripes48" patternUnits="userSpaceOnUse" width="4" height="4"><path d="M-2,0L4,6" style="line-cap: butt; stroke: #333; stroke-width: 9.8" class="fore"></path><path d="M0,-2L6,4" style="line-cap: butt; stroke: #333; stroke-width: 9.8" class="fore"></path></pattern><pattern id="stripes49" patternUnits="userSpaceOnUse" width="4" height="4"><path d="M-2,0L4,6" style="line-cap: butt; stroke: #333; stroke-width: 10" class="fore"></path><path d="M0,-2L6,4" style="line-cap: butt; stroke: #333; stroke-width: 10" class="fore"></path></pattern><pattern id="stripes50" patternUnits="userSpaceOnUse" width="4" height="4"><path d="M-2,0L4,6" style="line-cap: butt; stroke: #333; stroke-width: 10.200000000000001" class="fore"></path><path d="M0,-2L6,4" style="line-cap: butt; stroke: #333; stroke-width: 10.200000000000001" class="fore"></path></pattern><pattern id="stripes51" patternUnits="userSpaceOnUse" width="4" height="4"><path d="M-2,0L4,6" style="line-cap: butt; stroke: #333; stroke-width: 10.4" class="fore"></path><path d="M0,-2L6,4" style="line-cap: butt; stroke: #333; stroke-width: 10.4" class="fore"></path></pattern><pattern id="stripes52" patternUnits="userSpaceOnUse" width="4" height="4"><path d="M-2,0L4,6" style="line-cap: butt; stroke: #333; stroke-width: 10.600000000000001" class="fore"></path><path d="M0,-2L6,4" style="line-cap: butt; stroke: #333; stroke-width: 10.600000000000001" class="fore"></path></pattern><pattern id="stripes53" patternUnits="userSpaceOnUse" width="4" height="4"><path d="M-2,0L4,6" style="line-cap: butt; stroke: #333; stroke-width: 10.8" class="fore"></path><path d="M0,-2L6,4" style="line-cap: butt; stroke: #333; stroke-width: 10.8" class="fore"></path></pattern><pattern id="stripes54" patternUnits="userSpaceOnUse" width="4" height="4"><path d="M-2,0L4,6" style="line-cap: butt; stroke: #333; stroke-width: 11" class="fore"></path><path d="M0,-2L6,4" style="line-cap: butt; stroke: #333; stroke-width: 11" class="fore"></path></pattern><pattern id="stripes55" patternUnits="userSpaceOnUse" width="4" height="4"><path d="M-2,0L4,6" style="line-cap: butt; stroke: #333; stroke-width: 11.200000000000001" class="fore"></path><path d="M0,-2L6,4" style="line-cap: butt; stroke: #333; stroke-width: 11.200000000000001" class="fore"></path></pattern><pattern id="stripes56" patternUnits="userSpaceOnUse" width="4" height="4"><path d="M-2,0L4,6" style="line-cap: butt; stroke: #333; stroke-width: 11.4" class="fore"></path><path d="M0,-2L6,4" style="line-cap: butt; stroke: #333; stroke-width: 11.4" class="fore"></path></pattern><pattern id="stripes57" patternUnits="userSpaceOnUse" width="4" height="4"><path d="M-2,0L4,6" style="line-cap: butt; stroke: #333; stroke-width: 11.600000000000001" class="fore"></path><path d="M0,-2L6,4" style="line-cap: butt; stroke: #333; stroke-width: 11.600000000000001" class="fore"></path></pattern><pattern id="stripes58" patternUnits="userSpaceOnUse" width="4" height="4"><path d="M-2,0L4,6" style="line-cap: butt; stroke: #333; stroke-width: 11.8" class="fore"></path><path d="M0,-2L6,4" style="line-cap: butt; stroke: #333; stroke-width: 11.8" class="fore"></path></pattern><pattern id="stripes59" patternUnits="userSpaceOnUse" width="4" height="4"><path d="M-2,0L4,6" style="line-cap: butt; stroke: #333; stroke-width: 12" class="fore"></path><path d="M0,-2L6,4" style="line-cap: butt; stroke: #333; stroke-width: 12" class="fore"></path></pattern><pattern id="stripes60" patternUnits="userSpaceOnUse" width="4" height="4"><path d="M-2,0L4,6" style="line-cap: butt; stroke: #333; stroke-width: 12.200000000000001" class="fore"></path><path d="M0,-2L6,4" style="line-cap: butt; stroke: #333; stroke-width: 12.200000000000001" class="fore"></path></pattern><pattern id="stripes61" patternUnits="userSpaceOnUse" width="4" height="4"><path d="M-2,0L4,6" style="line-cap: butt; stroke: #333; stroke-width: 12.4" class="fore"></path><path d="M0,-2L6,4" style="line-cap: butt; stroke: #333; stroke-width: 12.4" class="fore"></path></pattern><pattern id="stripes62" patternUnits="userSpaceOnUse" width="4" height="4"><path d="M-2,0L4,6" style="line-cap: butt; stroke: #333; stroke-width: 12.600000000000001" class="fore"></path><path d="M0,-2L6,4" style="line-cap: butt; stroke: #333; stroke-width: 12.600000000000001" class="fore"></path></pattern><pattern id="stripes63" patternUnits="userSpaceOnUse" width="4" height="4"><path d="M-2,0L4,6" style="line-cap: butt; stroke: #333; stroke-width: 12.8" class="fore"></path><path d="M0,-2L6,4" style="line-cap: butt; stroke: #333; stroke-width: 12.8" class="fore"></path></pattern></defs><g fill-rule="evenodd"><path d="M-32.1,-32.1L32.1,-32.1L32.1,32.1L-32.1,32.1Z" transform="translate(96,96)" fill="url(#stripes0)"></path><path d="M-32.1,-32.1L32.1,-32.1L32.1,32.1L-32.1,32.1Z" transform="translate(96,160)" fill="url(#stripes1)"></path><path d="M-32.1,-32.1L32.1,-32.1L32.1,32.1L-32.1,32.1Z" transform="translate(96,224)" fill="url(#stripes2)"></path><path d="M-32.1,-32.1L32.1,-32.1L32.1,32.1L-32.1,32.1Z" transform="translate(96,288)" fill="url(#stripes3)"></path><path d="M-32.1,-32.1L32.1,-32.1L32.1,32.1L-32.1,32.1Z" transform="translate(96,352)" fill="url(#stripes4)"></path><path d="M-32.1,-32.1L32.1,-32.1L32.1,32.1L-32.1,32.1Z" transform="translate(96,416)" fill="url(#stripes5)"></path><path d="M-32.1,-32.1L32.1,-32.1L32.1,32.1L-32.1,32.1Z" transform="translate(96,480)" fill="url(#stripes6)"></path><path d="M-32.1,-32.1L32.1,-32.1L32.1,32.1L-32.1,32.1Z" transform="translate(96,544)" fill="url(#stripes7)"></path><path d="M-32.1,-32.1L32.1,-32.1L32.1,32.1L-32.1,32.1Z" transform="translate(160,96)" fill="url(#stripes1)"></path><path d="M-32.1,-32.1L32.1,-32.1L32.1,32.1L-32.1,32.1Z" transform="translate(160,160)" fill="url(#stripes2)"></path><path d="M-32.1,-32.1L32.1,-32.1L32.1,32.1L-32.1,32.1Z" transform="translate(160,224)" fill="url(#stripes3)"></path><path d="M-32.1,-32.1L32.1,-32.1L32.1,32.1L-32.1,32.1Z" transform="translate(160,288)" fill="url(#stripes4)"></path><path d="M-32.1,-32.1L32.1,-32.1L32.1,32.1L-32.1,32.1Z" transform="translate(160,352)" fill="url(#stripes5)"></path><path d="M-32.1,-32.1L32.1,-32.1L32.1,32.1L-32.1,32.1Z" transform="translate(160,416)" fill="url(#stripes6)"></path><path d="M-32.1,-32.1L32.1,-32.1L32.1,32.1L-32.1,32.1Z" transform="translate(160,480)" fill="url(#stripes7)"></path><path d="M-32.1,-32.1L32.1,-32.1L32.1,32.1L-32.1,32.1Z" transform="translate(160,544)" fill="url(#stripes8)"></path><path d="M-32.1,-32.1L32.1,-32.1L32.1,32.1L-32.1,32.1Z" transform="translate(224,96)" fill="url(#stripes2)"></path><path d="M-32.1,-32.1L32.1,-32.1L32.1,32.1L-32.1,32.1Z" transform="translate(224,160)" fill="url(#stripes3)"></path><path d="M-32.1,-32.1L32.1,-32.1L32.1,32.1L-32.1,32.1Z" transform="translate(224,224)" fill="url(#stripes4)"></path><path d="M-32.1,-32.1L32.1,-32.1L32.1,32.1L-32.1,32.1Z" transform="translate(224,288)" fill="url(#stripes5)"></path><path d="M-32.1,-32.1L32.1,-32.1L32.1,32.1L-32.1,32.1Z" transform="translate(224,352)" fill="url(#stripes6)"></path><path d="M-32.1,-32.1L32.1,-32.1L32.1,32.1L-32.1,32.1Z" transform="translate(224,416)" fill="url(#stripes7)"></path><path d="M-32.1,-32.1L32.1,-32.1L32.1,32.1L-32.1,32.1Z" transform="translate(224,480)" fill="url(#stripes8)"></path><path d="M-32.1,-32.1L32.1,-32.1L32.1,32.1L-32.1,32.1Z" transform="translate(224,544)" fill="url(#stripes9)"></path><path d="M-32.1,-32.1L32.1,-32.1L32.1,32.1L-32.1,32.1Z" transform="translate(288,96)" fill="url(#stripes3)"></path><path d="M-32.1,-32.1L32.1,-32.1L32.1,32.1L-32.1,32.1Z" transform="translate(288,160)" fill="url(#stripes4)"></path><path d="M-32.1,-32.1L32.1,-32.1L32.1,32.1L-32.1,32.1Z" transform="translate(288,224)" fill="url(#stripes5)"></path><path d="M-32.1,-32.1L32.1,-32.1L32.1,32.1L-32.1,32.1Z" transform="translate(288,288)" fill="url(#stripes6)"></path><path d="M-32.1,-32.1L32.1,-32.1L32.1,32.1L-32.1,32.1Z" transform="translate(288,352)" fill="url(#stripes7)"></path><path d="M-32.1,-32.1L32.1,-32.1L32.1,32.1L-32.1,32.1Z" transform="translate(288,416)" fill="url(#stripes8)"></path><path d="M-32.1,-32.1L32.1,-32.1L32.1,32.1L-32.1,32.1Z" transform="translate(288,480)" fill="url(#stripes9)"></path><path d="M-32.1,-32.1L32.1,-32.1L32.1,32.1L-32.1,32.1Z" transform="translate(288,544)" fill="url(#stripes10)"></path><path d="M-32.1,-32.1L32.1,-32.1L32.1,32.1L-32.1,32.1Z" transform="translate(352,96)" fill="url(#stripes4)"></path><path d="M-32.1,-32.1L32.1,-32.1L32.1,32.1L-32.1,32.1Z" transform="translate(352,160)" fill="url(#stripes5)"></path><path d="M-32.1,-32.1L32.1,-32.1L32.1,32.1L-32.1,32.1Z" transform="translate(352,224)" fill="url(#stripes6)"></path><path d="M-32.1,-32.1L32.1,-32.1L32.1,32.1L-32.1,32.1Z" transform="translate(352,288)" fill="url(#stripes7)"></path><path d="M-32.1,-32.1L32.1,-32.1L32.1,32.1L-32.1,32.1Z" transform="translate(352,352)" fill="url(#stripes8)"></path><path d="M-32.1,-32.1L32.1,-32.1L32.1,32.1L-32.1,32.1Z" transform="translate(352,416)" fill="url(#stripes9)"></path><path d="M-32.1,-32.1L32.1,-32.1L32.1,32.1L-32.1,32.1Z" transform="translate(352,480)" fill="url(#stripes10)"></path><path d="M-32.1,-32.1L32.1,-32.1L32.1,32.1L-32.1,32.1Z" transform="translate(352,544)" fill="url(#stripes11)"></path><path d="M-32.1,-32.1L32.1,-32.1L32.1,32.1L-32.1,32.1Z" transform="translate(416,96)" fill="url(#stripes5)"></path><path d="M-32.1,-32.1L32.1,-32.1L32.1,32.1L-32.1,32.1Z" transform="translate(416,160)" fill="url(#stripes6)"></path><path d="M-32.1,-32.1L32.1,-32.1L32.1,32.1L-32.1,32.1Z" transform="translate(416,224)" fill="url(#stripes7)"></path><path d="M-32.1,-32.1L32.1,-32.1L32.1,32.1L-32.1,32.1Z" transform="translate(416,288)" fill="url(#stripes8)"></path><path d="M-32.1,-32.1L32.1,-32.1L32.1,32.1L-32.1,32.1Z" transform="translate(416,352)" fill="url(#stripes9)"></path><path d="M-32.1,-32.1L32.1,-32.1L32.1,32.1L-32.1,32.1Z" transform="translate(416,416)" fill="url(#stripes10)"></path><path d="M-32.1,-32.1L32.1,-32.1L32.1,32.1L-32.1,32.1Z" transform="translate(416,480)" fill="url(#stripes11)"></path><path d="M-32.1,-32.1L32.1,-32.1L32.1,32.1L-32.1,32.1Z" transform="translate(416,544)" fill="url(#stripes12)"></path><path d="M-32.1,-32.1L32.1,-32.1L32.1,32.1L-32.1,32.1Z" transform="translate(480,96)" fill="url(#stripes6)"></path><path d="M-32.1,-32.1L32.1,-32.1L32.1,32.1L-32.1,32.1Z" transform="translate(480,160)" fill="url(#stripes7)"></path><path d="M-32.1,-32.1L32.1,-32.1L32.1,32.1L-32.1,32.1Z" transform="translate(480,224)" fill="url(#stripes8)"></path><path d="M-32.1,-32.1L32.1,-32.1L32.1,32.1L-32.1,32.1Z" transform="translate(480,288)" fill="url(#stripes9)"></path><path d="M-32.1,-32.1L32.1,-32.1L32.1,32.1L-32.1,32.1Z" transform="translate(480,352)" fill="url(#stripes10)"></path><path d="M-32.1,-32.1L32.1,-32.1L32.1,32.1L-32.1,32.1Z" transform="translate(480,416)" fill="url(#stripes11)"></path><path d="M-32.1,-32.1L32.1,-32.1L32.1,32.1L-32.1,32.1Z" transform="translate(480,480)" fill="url(#stripes12)"></path><path d="M-32.1,-32.1L32.1,-32.1L32.1,32.1L-32.1,32.1Z" transform="translate(480,544)" fill="url(#stripes13)"></path><path d="M-32.1,-32.1L32.1,-32.1L32.1,32.1L-32.1,32.1Z" transform="translate(544,96)" fill="url(#stripes7)"></path><path d="M-32.1,-32.1L32.1,-32.1L32.1,32.1L-32.1,32.1Z" transform="translate(544,160)" fill="url(#stripes8)"></path><path d="M-32.1,-32.1L32.1,-32.1L32.1,32.1L-32.1,32.1Z" transform="translate(544,224)" fill="url(#stripes9)"></path><path d="M-32.1,-32.1L32.1,-32.1L32.1,32.1L-32.1,32.1Z" transform="translate(544,288)" fill="url(#stripes10)"></path><path d="M-32.1,-32.1L32.1,-32.1L32.1,32.1L-32.1,32.1Z" transform="translate(544,352)" fill="url(#stripes11)"></path><path d="M-32.1,-32.1L32.1,-32.1L32.1,32.1L-32.1,32.1Z" transform="translate(544,416)" fill="url(#stripes12)"></path><path d="M-32.1,-32.1L32.1,-32.1L32.1,32.1L-32.1,32.1Z" transform="translate(544,480)" fill="url(#stripes13)"></path><path d="M-32.1,-32.1L32.1,-32.1L32.1,32.1L-32.1,32.1Z" transform="translate(544,544)" fill="url(#stripes14)"></path></g></svg>