<svg xmlns="http://www.w3.org/2000/svg" viewBox="0 0 640 640" viewport-fill="#000" label="_shape #83 gradient #4"><defs><style type="text/css">
.f-0 { fill: #000;  }
.f-1 { fill: #101010;  }
.f-2 { fill: #202020;  }
.f-3 { fill: #303030;  }
.f-4 { fill: #404040;  }
.f-5 { fill: #505050;  }
.f-6 { fill: #606060;  }
.f-7 { fill: #707070;  }
.f-8 { fill: #808080;  }
.f-9 { fill: #909090;  }
.f-10 { fill: #a0a0a0;  }
.f-11 { fill: #b0b0b0;  }
.f-12 { fill: #c0c0c0;  }
.f-13 { fill: #d0d0d0;  }
.f-14 { fill: #e0e0e0;  }
.f-15 { fill: #f0f0f0;  }
.bgc { fill: #101010;  }
.fore { fill: #404040; stroke-color: #404040; sroke-width: 0;  }
text{ font-family: Freemono, Sans, Arial; } 
</style><pattern id="stripes-4-0" patternUnits="userSpaceOnUse" width="8" height="8"><path d="M-4,0L8,12" style="line-cap: butt; stroke: #333; stroke-width: 0.046153846153846156" class="fore"></path><path d="M0,-4L12,8" style="line-cap: butt; stroke: #333; stroke-width: 0.046153846153846156" class="fore"></path></pattern><pattern id="stripes-4-1" patternUnits="userSpaceOnUse" width="8" height="8"><path d="M-4,0L8,12" style="line-cap: butt; stroke: #333; stroke-width: 0.09230769230769231" class="fore"></path><path d="M0,-4L12,8" style="line-cap: butt; stroke: #333; stroke-width: 0.09230769230769231" class="fore"></path></pattern><pattern id="stripes-4-2" patternUnits="userSpaceOnUse" width="8" height="8"><path d="M-4,0L8,12" style="line-cap: butt; stroke: #333; stroke-width: 0.13846153846153847" class="fore"></path><path d="M0,-4L12,8" style="line-cap: butt; stroke: #333; stroke-width: 0.13846153846153847" class="fore"></path></pattern><pattern id="stripes-4-3" patternUnits="userSpaceOnUse" width="8" height="8"><path d="M-4,0L8,12" style="line-cap: butt; stroke: #333; stroke-width: 0.18461538461538463" class="fore"></path><path d="M0,-4L12,8" style="line-cap: butt; stroke: #333; stroke-width: 0.18461538461538463" class="fore"></path></pattern><pattern id="stripes-4-4" patternUnits="userSpaceOnUse" width="8" height="8"><path d="M-4,0L8,12" style="line-cap: butt; stroke: #333; stroke-width: 0.23076923076923078" class="fore"></path><path d="M0,-4L12,8" style="line-cap: butt; stroke: #333; stroke-width: 0.23076923076923078" class="fore"></path></pattern><pattern id="stripes-4-5" patternUnits="userSpaceOnUse" width="8" height="8"><path d="M-4,0L8,12" style="line-cap: butt; stroke: #333; stroke-width: 0.27692307692307694" class="fore"></path><path d="M0,-4L12,8" style="line-cap: butt; stroke: #333; stroke-width: 0.27692307692307694" class="fore"></path></pattern><pattern id="stripes-4-6" patternUnits="userSpaceOnUse" width="8" height="8"><path d="M-4,0L8,12" style="line-cap: butt; stroke: #333; stroke-width: 0.3230769230769231" class="fore"></path><path d="M0,-4L12,8" style="line-cap: butt; stroke: #333; stroke-width: 0.3230769230769231" class="fore"></path></pattern><pattern id="stripes-4-7" patternUnits="userSpaceOnUse" width="8" height="8"><path d="M-4,0L8,12" style="line-cap: butt; stroke: #333; stroke-width: 0.36923076923076925" class="fore"></path><path d="M0,-4L12,8" style="line-cap: butt; stroke: #333; stroke-width: 0.36923076923076925" class="fore"></path></pattern><pattern id="stripes-4-8" patternUnits="userSpaceOnUse" width="8" height="8"><path d="M-4,0L8,12" style="line-cap: butt; stroke: #333; stroke-width: 0.4153846153846154" class="fore"></path><path d="M0,-4L12,8" style="line-cap: butt; stroke: #333; stroke-width: 0.4153846153846154" class="fore"></path></pattern><pattern id="stripes-4-9" patternUnits="userSpaceOnUse" width="8" height="8"><path d="M-4,0L8,12" style="line-cap: butt; stroke: #333; stroke-width: 0.46153846153846156" class="fore"></path><path d="M0,-4L12,8" style="line-cap: butt; stroke: #333; stroke-width: 0.46153846153846156" class="fore"></path></pattern><pattern id="stripes-4-10" patternUnits="userSpaceOnUse" width="8" height="8"><path d="M-4,0L8,12" style="line-cap: butt; stroke: #333; stroke-width: 0.5076923076923077" class="fore"></path><path d="M0,-4L12,8" style="line-cap: butt; stroke: #333; stroke-width: 0.5076923076923077" class="fore"></path></pattern><pattern id="stripes-4-11" patternUnits="userSpaceOnUse" width="8" height="8"><path d="M-4,0L8,12" style="line-cap: butt; stroke: #333; stroke-width: 0.5538461538461539" class="fore"></path><path d="M0,-4L12,8" style="line-cap: butt; stroke: #333; stroke-width: 0.5538461538461539" class="fore"></path></pattern><pattern id="stripes-4-12" patternUnits="userSpaceOnUse" width="8" height="8"><path d="M-4,0L8,12" style="line-cap: butt; stroke: #333; stroke-width: 0.6000000000000001" class="fore"></path><path d="M0,-4L12,8" style="line-cap: butt; stroke: #333; stroke-width: 0.6000000000000001" class="fore"></path></pattern><pattern id="stripes-4-13" patternUnits="userSpaceOnUse" width="8" height="8"><path d="M-4,0L8,12" style="line-cap: butt; stroke: #333; stroke-width: 0.6461538461538462" class="fore"></path><path d="M0,-4L12,8" style="line-cap: butt; stroke: #333; stroke-width: 0.6461538461538462" class="fore"></path></pattern><pattern id="stripes-4-14" patternUnits="userSpaceOnUse" width="8" height="8"><path d="M-4,0L8,12" style="line-cap: butt; stroke: #333; stroke-width: 0.6923076923076923" class="fore"></path><path d="M0,-4L12,8" style="line-cap: butt; stroke: #333; stroke-width: 0.6923076923076923" class="fore"></path></pattern><pattern id="stripes-4-15" patternUnits="userSpaceOnUse" width="8" height="8"><path d="M-4,0L8,12" style="line-cap: butt; stroke: #333; stroke-width: 0.7384615384615385" class="fore"></path><path d="M0,-4L12,8" style="line-cap: butt; stroke: #333; stroke-width: 0.7384615384615385" class="fore"></path></pattern><pattern id="stripes-4-16" patternUnits="userSpaceOnUse" width="8" height="8"><path d="M-4,0L8,12" style="line-cap: butt; stroke: #333; stroke-width: 0.7846153846153847" class="fore"></path><path d="M0,-4L12,8" style="line-cap: butt; stroke: #333; stroke-width: 0.7846153846153847" class="fore"></path></pattern><pattern id="stripes-4-17" patternUnits="userSpaceOnUse" width="8" height="8"><path d="M-4,0L8,12" style="line-cap: butt; stroke: #333; stroke-width: 0.8307692307692308" class="fore"></path><path d="M0,-4L12,8" style="line-cap: butt; stroke: #333; stroke-width: 0.8307692307692308" class="fore"></path></pattern><pattern id="stripes-4-18" patternUnits="userSpaceOnUse" width="8" height="8"><path d="M-4,0L8,12" style="line-cap: butt; stroke: #333; stroke-width: 0.8769230769230769" class="fore"></path><path d="M0,-4L12,8" style="line-cap: butt; stroke: #333; stroke-width: 0.8769230769230769" class="fore"></path></pattern><pattern id="stripes-4-19" patternUnits="userSpaceOnUse" width="8" height="8"><path d="M-4,0L8,12" style="line-cap: butt; stroke: #333; stroke-width: 0.9230769230769231" class="fore"></path><path d="M0,-4L12,8" style="line-cap: butt; stroke: #333; stroke-width: 0.9230769230769231" class="fore"></path></pattern><pattern id="stripes-4-20" patternUnits="userSpaceOnUse" width="8" height="8"><path d="M-4,0L8,12" style="line-cap: butt; stroke: #333; stroke-width: 0.9692307692307693" class="fore"></path><path d="M0,-4L12,8" style="line-cap: butt; stroke: #333; stroke-width: 0.9692307692307693" class="fore"></path></pattern><pattern id="stripes-4-21" patternUnits="userSpaceOnUse" width="8" height="8"><path d="M-4,0L8,12" style="line-cap: butt; stroke: #333; stroke-width: 1.0153846153846153" class="fore"></path><path d="M0,-4L12,8" style="line-cap: butt; stroke: #333; stroke-width: 1.0153846153846153" class="fore"></path></pattern><pattern id="stripes-4-22" patternUnits="userSpaceOnUse" width="8" height="8"><path d="M-4,0L8,12" style="line-cap: butt; stroke: #333; stroke-width: 1.0615384615384615" class="fore"></path><path d="M0,-4L12,8" style="line-cap: butt; stroke: #333; stroke-width: 1.0615384615384615" class="fore"></path></pattern><pattern id="stripes-4-23" patternUnits="userSpaceOnUse" width="8" height="8"><path d="M-4,0L8,12" style="line-cap: butt; stroke: #333; stroke-width: 1.1076923076923078" class="fore"></path><path d="M0,-4L12,8" style="line-cap: butt; stroke: #333; stroke-width: 1.1076923076923078" class="fore"></path></pattern><pattern id="stripes-4-24" patternUnits="userSpaceOnUse" width="8" height="8"><path d="M-4,0L8,12" style="line-cap: butt; stroke: #333; stroke-width: 1.153846153846154" class="fore"></path><path d="M0,-4L12,8" style="line-cap: butt; stroke: #333; stroke-width: 1.153846153846154" class="fore"></path></pattern><pattern id="stripes-4-25" patternUnits="userSpaceOnUse" width="8" height="8"><path d="M-4,0L8,12" style="line-cap: butt; stroke: #333; stroke-width: 1.2000000000000002" class="fore"></path><path d="M0,-4L12,8" style="line-cap: butt; stroke: #333; stroke-width: 1.2000000000000002" class="fore"></path></pattern><pattern id="stripes-4-26" patternUnits="userSpaceOnUse" width="8" height="8"><path d="M-4,0L8,12" style="line-cap: butt; stroke: #333; stroke-width: 1.2461538461538462" class="fore"></path><path d="M0,-4L12,8" style="line-cap: butt; stroke: #333; stroke-width: 1.2461538461538462" class="fore"></path></pattern><pattern id="stripes-4-27" patternUnits="userSpaceOnUse" width="8" height="8"><path d="M-4,0L8,12" style="line-cap: butt; stroke: #333; stroke-width: 1.2923076923076924" class="fore"></path><path d="M0,-4L12,8" style="line-cap: butt; stroke: #333; stroke-width: 1.2923076923076924" class="fore"></path></pattern><pattern id="stripes-4-28" patternUnits="userSpaceOnUse" width="8" height="8"><path d="M-4,0L8,12" style="line-cap: butt; stroke: #333; stroke-width: 1.3384615384615386" class="fore"></path><path d="M0,-4L12,8" style="line-cap: butt; stroke: #333; stroke-width: 1.3384615384615386" class="fore"></path></pattern><pattern id="stripes-4-29" patternUnits="userSpaceOnUse" width="8" height="8"><path d="M-4,0L8,12" style="line-cap: butt; stroke: #333; stroke-width: 1.3846153846153846" class="fore"></path><path d="M0,-4L12,8" style="line-cap: butt; stroke: #333; stroke-width: 1.3846153846153846" class="fore"></path></pattern><pattern id="stripes-4-30" patternUnits="userSpaceOnUse" width="8" height="8"><path d="M-4,0L8,12" style="line-cap: butt; stroke: #333; stroke-width: 1.4307692307692308" class="fore"></path><path d="M0,-4L12,8" style="line-cap: butt; stroke: #333; stroke-width: 1.4307692307692308" class="fore"></path></pattern><pattern id="stripes-4-31" patternUnits="userSpaceOnUse" width="8" height="8"><path d="M-4,0L8,12" style="line-cap: butt; stroke: #333; stroke-width: 1.476923076923077" class="fore"></path><path d="M0,-4L12,8" style="line-cap: butt; stroke: #333; stroke-width: 1.476923076923077" class="fore"></path></pattern><pattern id="stripes-4-32" patternUnits="userSpaceOnUse" width="8" height="8"><path d="M-4,0L8,12" style="line-cap: butt; stroke: #333; stroke-width: 1.5230769230769232" class="fore"></path><path d="M0,-4L12,8" style="line-cap: butt; stroke: #333; stroke-width: 1.5230769230769232" class="fore"></path></pattern><pattern id="stripes-4-33" patternUnits="userSpaceOnUse" width="8" height="8"><path d="M-4,0L8,12" style="line-cap: butt; stroke: #333; stroke-width: 1.5692307692307694" class="fore"></path><path d="M0,-4L12,8" style="line-cap: butt; stroke: #333; stroke-width: 1.5692307692307694" class="fore"></path></pattern><pattern id="stripes-4-34" patternUnits="userSpaceOnUse" width="8" height="8"><path d="M-4,0L8,12" style="line-cap: butt; stroke: #333; stroke-width: 1.6153846153846154" class="fore"></path><path d="M0,-4L12,8" style="line-cap: butt; stroke: #333; stroke-width: 1.6153846153846154" class="fore"></path></pattern><pattern id="stripes-4-35" patternUnits="userSpaceOnUse" width="8" height="8"><path d="M-4,0L8,12" style="line-cap: butt; stroke: #333; stroke-width: 1.6615384615384616" class="fore"></path><path d="M0,-4L12,8" style="line-cap: butt; stroke: #333; stroke-width: 1.6615384615384616" class="fore"></path></pattern><pattern id="stripes-4-36" patternUnits="userSpaceOnUse" width="8" height="8"><path d="M-4,0L8,12" style="line-cap: butt; stroke: #333; stroke-width: 1.7076923076923078" class="fore"></path><path d="M0,-4L12,8" style="line-cap: butt; stroke: #333; stroke-width: 1.7076923076923078" class="fore"></path></pattern><pattern id="stripes-4-37" patternUnits="userSpaceOnUse" width="8" height="8"><path d="M-4,0L8,12" style="line-cap: butt; stroke: #333; stroke-width: 1.7538461538461538" class="fore"></path><path d="M0,-4L12,8" style="line-cap: butt; stroke: #333; stroke-width: 1.7538461538461538" class="fore"></path></pattern><pattern id="stripes-4-38" patternUnits="userSpaceOnUse" width="8" height="8"><path d="M-4,0L8,12" style="line-cap: butt; stroke: #333; stroke-width: 1.8" class="fore"></path><path d="M0,-4L12,8" style="line-cap: butt; stroke: #333; stroke-width: 1.8" class="fore"></path></pattern><pattern id="stripes-4-39" patternUnits="userSpaceOnUse" width="8" height="8"><path d="M-4,0L8,12" style="line-cap: butt; stroke: #333; stroke-width: 1.8461538461538463" class="fore"></path><path d="M0,-4L12,8" style="line-cap: butt; stroke: #333; stroke-width: 1.8461538461538463" class="fore"></path></pattern><pattern id="stripes-4-40" patternUnits="userSpaceOnUse" width="8" height="8"><path d="M-4,0L8,12" style="line-cap: butt; stroke: #333; stroke-width: 1.8923076923076925" class="fore"></path><path d="M0,-4L12,8" style="line-cap: butt; stroke: #333; stroke-width: 1.8923076923076925" class="fore"></path></pattern><pattern id="stripes-4-41" patternUnits="userSpaceOnUse" width="8" height="8"><path d="M-4,0L8,12" style="line-cap: butt; stroke: #333; stroke-width: 1.9384615384615387" class="fore"></path><path d="M0,-4L12,8" style="line-cap: butt; stroke: #333; stroke-width: 1.9384615384615387" class="fore"></path></pattern><pattern id="stripes-4-42" patternUnits="userSpaceOnUse" width="8" height="8"><path d="M-4,0L8,12" style="line-cap: butt; stroke: #333; stroke-width: 1.9846153846153847" class="fore"></path><path d="M0,-4L12,8" style="line-cap: butt; stroke: #333; stroke-width: 1.9846153846153847" class="fore"></path></pattern><pattern id="stripes-4-43" patternUnits="userSpaceOnUse" width="8" height="8"><path d="M-4,0L8,12" style="line-cap: butt; stroke: #333; stroke-width: 2.0307692307692307" class="fore"></path><path d="M0,-4L12,8" style="line-cap: butt; stroke: #333; stroke-width: 2.0307692307692307" class="fore"></path></pattern><pattern id="stripes-4-44" patternUnits="userSpaceOnUse" width="8" height="8"><path d="M-4,0L8,12" style="line-cap: butt; stroke: #333; stroke-width: 2.076923076923077" class="fore"></path><path d="M0,-4L12,8" style="line-cap: butt; stroke: #333; stroke-width: 2.076923076923077" class="fore"></path></pattern><pattern id="stripes-4-45" patternUnits="userSpaceOnUse" width="8" height="8"><path d="M-4,0L8,12" style="line-cap: butt; stroke: #333; stroke-width: 2.123076923076923" class="fore"></path><path d="M0,-4L12,8" style="line-cap: butt; stroke: #333; stroke-width: 2.123076923076923" class="fore"></path></pattern><pattern id="stripes-4-46" patternUnits="userSpaceOnUse" width="8" height="8"><path d="M-4,0L8,12" style="line-cap: butt; stroke: #333; stroke-width: 2.1692307692307695" class="fore"></path><path d="M0,-4L12,8" style="line-cap: butt; stroke: #333; stroke-width: 2.1692307692307695" class="fore"></path></pattern><pattern id="stripes-4-47" patternUnits="userSpaceOnUse" width="8" height="8"><path d="M-4,0L8,12" style="line-cap: butt; stroke: #333; stroke-width: 2.2153846153846155" class="fore"></path><path d="M0,-4L12,8" style="line-cap: butt; stroke: #333; stroke-width: 2.2153846153846155" class="fore"></path></pattern><pattern id="stripes-4-48" patternUnits="userSpaceOnUse" width="8" height="8"><path d="M-4,0L8,12" style="line-cap: butt; stroke: #333; stroke-width: 2.2615384615384615" class="fore"></path><path d="M0,-4L12,8" style="line-cap: butt; stroke: #333; stroke-width: 2.2615384615384615" class="fore"></path></pattern><pattern id="stripes-4-49" patternUnits="userSpaceOnUse" width="8" height="8"><path d="M-4,0L8,12" style="line-cap: butt; stroke: #333; stroke-width: 2.307692307692308" class="fore"></path><path d="M0,-4L12,8" style="line-cap: butt; stroke: #333; stroke-width: 2.307692307692308" class="fore"></path></pattern><pattern id="stripes-4-50" patternUnits="userSpaceOnUse" width="8" height="8"><path d="M-4,0L8,12" style="line-cap: butt; stroke: #333; stroke-width: 2.353846153846154" class="fore"></path><path d="M0,-4L12,8" style="line-cap: butt; stroke: #333; stroke-width: 2.353846153846154" class="fore"></path></pattern><pattern id="stripes-4-51" patternUnits="userSpaceOnUse" width="8" height="8"><path d="M-4,0L8,12" style="line-cap: butt; stroke: #333; stroke-width: 2.4000000000000004" class="fore"></path><path d="M0,-4L12,8" style="line-cap: butt; stroke: #333; stroke-width: 2.4000000000000004" class="fore"></path></pattern><pattern id="stripes-4-52" patternUnits="userSpaceOnUse" width="8" height="8"><path d="M-4,0L8,12" style="line-cap: butt; stroke: #333; stroke-width: 2.4461538461538463" class="fore"></path><path d="M0,-4L12,8" style="line-cap: butt; stroke: #333; stroke-width: 2.4461538461538463" class="fore"></path></pattern><pattern id="stripes-4-53" patternUnits="userSpaceOnUse" width="8" height="8"><path d="M-4,0L8,12" style="line-cap: butt; stroke: #333; stroke-width: 2.4923076923076923" class="fore"></path><path d="M0,-4L12,8" style="line-cap: butt; stroke: #333; stroke-width: 2.4923076923076923" class="fore"></path></pattern><pattern id="stripes-4-54" patternUnits="userSpaceOnUse" width="8" height="8"><path d="M-4,0L8,12" style="line-cap: butt; stroke: #333; stroke-width: 2.5384615384615388" class="fore"></path><path d="M0,-4L12,8" style="line-cap: butt; stroke: #333; stroke-width: 2.5384615384615388" class="fore"></path></pattern><pattern id="stripes-4-55" patternUnits="userSpaceOnUse" width="8" height="8"><path d="M-4,0L8,12" style="line-cap: butt; stroke: #333; stroke-width: 2.5846153846153848" class="fore"></path><path d="M0,-4L12,8" style="line-cap: butt; stroke: #333; stroke-width: 2.5846153846153848" class="fore"></path></pattern><pattern id="stripes-4-56" patternUnits="userSpaceOnUse" width="8" height="8"><path d="M-4,0L8,12" style="line-cap: butt; stroke: #333; stroke-width: 2.6307692307692307" class="fore"></path><path d="M0,-4L12,8" style="line-cap: butt; stroke: #333; stroke-width: 2.6307692307692307" class="fore"></path></pattern><pattern id="stripes-4-57" patternUnits="userSpaceOnUse" width="8" height="8"><path d="M-4,0L8,12" style="line-cap: butt; stroke: #333; stroke-width: 2.676923076923077" class="fore"></path><path d="M0,-4L12,8" style="line-cap: butt; stroke: #333; stroke-width: 2.676923076923077" class="fore"></path></pattern><pattern id="stripes-4-58" patternUnits="userSpaceOnUse" width="8" height="8"><path d="M-4,0L8,12" style="line-cap: butt; stroke: #333; stroke-width: 2.723076923076923" class="fore"></path><path d="M0,-4L12,8" style="line-cap: butt; stroke: #333; stroke-width: 2.723076923076923" class="fore"></path></pattern><pattern id="stripes-4-59" patternUnits="userSpaceOnUse" width="8" height="8"><path d="M-4,0L8,12" style="line-cap: butt; stroke: #333; stroke-width: 2.769230769230769" class="fore"></path><path d="M0,-4L12,8" style="line-cap: butt; stroke: #333; stroke-width: 2.769230769230769" class="fore"></path></pattern><pattern id="stripes-4-60" patternUnits="userSpaceOnUse" width="8" height="8"><path d="M-4,0L8,12" style="line-cap: butt; stroke: #333; stroke-width: 2.8153846153846156" class="fore"></path><path d="M0,-4L12,8" style="line-cap: butt; stroke: #333; stroke-width: 2.8153846153846156" class="fore"></path></pattern><pattern id="stripes-4-61" patternUnits="userSpaceOnUse" width="8" height="8"><path d="M-4,0L8,12" style="line-cap: butt; stroke: #333; stroke-width: 2.8615384615384616" class="fore"></path><path d="M0,-4L12,8" style="line-cap: butt; stroke: #333; stroke-width: 2.8615384615384616" class="fore"></path></pattern><pattern id="stripes-4-62" patternUnits="userSpaceOnUse" width="8" height="8"><path d="M-4,0L8,12" style="line-cap: butt; stroke: #333; stroke-width: 2.907692307692308" class="fore"></path><path d="M0,-4L12,8" style="line-cap: butt; stroke: #333; stroke-width: 2.907692307692308" class="fore"></path></pattern><pattern id="stripes-4-63" patternUnits="userSpaceOnUse" width="8" height="8"><path d="M-4,0L8,12" style="line-cap: butt; stroke: #333; stroke-width: 2.953846153846154" class="fore"></path><path d="M0,-4L12,8" style="line-cap: butt; stroke: #333; stroke-width: 2.953846153846154" class="fore"></path></pattern></defs><g fill-rule="evenodd"><path d="M-32.1,-32.1L32.1,-32.1L32.1,32.1L-32.1,32.1Z" transform="translate(96,96)" fill="url(#stripes-4-0)"></path><path d="M-32.1,-32.1L32.1,-32.1L32.1,32.1L-32.1,32.1Z" transform="translate(96,160)" fill="url(#stripes-4-8)"></path><path d="M-32.1,-32.1L32.1,-32.1L32.1,32.1L-32.1,32.1Z" transform="translate(96,224)" fill="url(#stripes-4-16)"></path><path d="M-32.1,-32.1L32.1,-32.1L32.1,32.1L-32.1,32.1Z" transform="translate(96,288)" fill="url(#stripes-4-24)"></path><path d="M-32.1,-32.1L32.1,-32.1L32.1,32.1L-32.1,32.1Z" transform="translate(96,352)" fill="url(#stripes-4-32)"></path><path d="M-32.1,-32.1L32.1,-32.1L32.1,32.1L-32.1,32.1Z" transform="translate(96,416)" fill="url(#stripes-4-40)"></path><path d="M-32.1,-32.1L32.1,-32.1L32.1,32.1L-32.1,32.1Z" transform="translate(96,480)" fill="url(#stripes-4-48)"></path><path d="M-32.1,-32.1L32.1,-32.1L32.1,32.1L-32.1,32.1Z" transform="translate(96,544)" fill="url(#stripes-4-56)"></path><path d="M-32.1,-32.1L32.1,-32.1L32.1,32.1L-32.1,32.1Z" transform="translate(160,96)" fill="url(#stripes-4-1)"></path><path d="M-32.1,-32.1L32.1,-32.1L32.1,32.1L-32.1,32.1Z" transform="translate(160,160)" fill="url(#stripes-4-9)"></path><path d="M-32.1,-32.1L32.1,-32.1L32.1,32.1L-32.1,32.1Z" transform="translate(160,224)" fill="url(#stripes-4-17)"></path><path d="M-32.1,-32.1L32.1,-32.1L32.1,32.1L-32.1,32.1Z" transform="translate(160,288)" fill="url(#stripes-4-25)"></path><path d="M-32.1,-32.1L32.1,-32.1L32.1,32.1L-32.1,32.1Z" transform="translate(160,352)" fill="url(#stripes-4-33)"></path><path d="M-32.1,-32.1L32.1,-32.1L32.1,32.1L-32.1,32.1Z" transform="translate(160,416)" fill="url(#stripes-4-41)"></path><path d="M-32.1,-32.1L32.1,-32.1L32.1,32.1L-32.1,32.1Z" transform="translate(160,480)" fill="url(#stripes-4-49)"></path><path d="M-32.1,-32.1L32.1,-32.1L32.1,32.1L-32.1,32.1Z" transform="translate(160,544)" fill="url(#stripes-4-57)"></path><path d="M-32.1,-32.1L32.1,-32.1L32.1,32.1L-32.1,32.1Z" transform="translate(224,96)" fill="url(#stripes-4-2)"></path><path d="M-32.1,-32.1L32.1,-32.1L32.1,32.1L-32.1,32.1Z" transform="translate(224,160)" fill="url(#stripes-4-10)"></path><path d="M-32.1,-32.1L32.1,-32.1L32.1,32.1L-32.1,32.1Z" transform="translate(224,224)" fill="url(#stripes-4-18)"></path><path d="M-32.1,-32.1L32.1,-32.1L32.1,32.1L-32.1,32.1Z" transform="translate(224,288)" fill="url(#stripes-4-26)"></path><path d="M-32.1,-32.1L32.1,-32.1L32.1,32.1L-32.1,32.1Z" transform="translate(224,352)" fill="url(#stripes-4-34)"></path><path d="M-32.1,-32.1L32.1,-32.1L32.1,32.1L-32.1,32.1Z" transform="translate(224,416)" fill="url(#stripes-4-42)"></path><path d="M-32.1,-32.1L32.1,-32.1L32.1,32.1L-32.1,32.1Z" transform="translate(224,480)" fill="url(#stripes-4-50)"></path><path d="M-32.1,-32.1L32.1,-32.1L32.1,32.1L-32.1,32.1Z" transform="translate(224,544)" fill="url(#stripes-4-58)"></path><path d="M-32.1,-32.1L32.1,-32.1L32.1,32.1L-32.1,32.1Z" transform="translate(288,96)" fill="url(#stripes-4-3)"></path><path d="M-32.1,-32.1L32.1,-32.1L32.1,32.1L-32.1,32.1Z" transform="translate(288,160)" fill="url(#stripes-4-11)"></path><path d="M-32.1,-32.1L32.1,-32.1L32.1,32.1L-32.1,32.1Z" transform="translate(288,224)" fill="url(#stripes-4-19)"></path><path d="M-32.1,-32.1L32.1,-32.1L32.1,32.1L-32.1,32.1Z" transform="translate(288,288)" fill="url(#stripes-4-27)"></path><path d="M-32.1,-32.1L32.1,-32.1L32.1,32.1L-32.1,32.1Z" transform="translate(288,352)" fill="url(#stripes-4-35)"></path><path d="M-32.1,-32.1L32.1,-32.1L32.1,32.1L-32.1,32.1Z" transform="translate(288,416)" fill="url(#stripes-4-43)"></path><path d="M-32.1,-32.1L32.1,-32.1L32.1,32.1L-32.1,32.1Z" transform="translate(288,480)" fill="url(#stripes-4-51)"></path><path d="M-32.1,-32.1L32.1,-32.1L32.1,32.1L-32.1,32.1Z" transform="translate(288,544)" fill="url(#stripes-4-59)"></path><path d="M-32.1,-32.1L32.1,-32.1L32.1,32.1L-32.1,32.1Z" transform="translate(352,96)" fill="url(#stripes-4-4)"></path><path d="M-32.1,-32.1L32.1,-32.1L32.1,32.1L-32.1,32.1Z" transform="translate(352,160)" fill="url(#stripes-4-12)"></path><path d="M-32.1,-32.1L32.1,-32.1L32.1,32.1L-32.1,32.1Z" transform="translate(352,224)" fill="url(#stripes-4-20)"></path><path d="M-32.1,-32.1L32.1,-32.1L32.1,32.1L-32.1,32.1Z" transform="translate(352,288)" fill="url(#stripes-4-28)"></path><path d="M-32.1,-32.1L32.1,-32.1L32.1,32.1L-32.1,32.1Z" transform="translate(352,352)" fill="url(#stripes-4-36)"></path><path d="M-32.1,-32.1L32.1,-32.1L32.1,32.1L-32.1,32.1Z" transform="translate(352,416)" fill="url(#stripes-4-44)"></path><path d="M-32.1,-32.1L32.1,-32.1L32.1,32.1L-32.1,32.1Z" transform="translate(352,480)" fill="url(#stripes-4-52)"></path><path d="M-32.1,-32.1L32.1,-32.1L32.1,32.1L-32.1,32.1Z" transform="translate(352,544)" fill="url(#stripes-4-60)"></path><path d="M-32.1,-32.1L32.1,-32.1L32.1,32.1L-32.1,32.1Z" transform="translate(416,96)" fill="url(#stripes-4-5)"></path><path d="M-32.1,-32.1L32.1,-32.1L32.1,32.1L-32.1,32.1Z" transform="translate(416,160)" fill="url(#stripes-4-13)"></path><path d="M-32.1,-32.1L32.1,-32.1L32.1,32.1L-32.1,32.1Z" transform="translate(416,224)" fill="url(#stripes-4-21)"></path><path d="M-32.1,-32.1L32.1,-32.1L32.1,32.1L-32.1,32.1Z" transform="translate(416,288)" fill="url(#stripes-4-29)"></path><path d="M-32.1,-32.1L32.1,-32.1L32.1,32.1L-32.1,32.1Z" transform="translate(416,352)" fill="url(#stripes-4-37)"></path><path d="M-32.1,-32.1L32.1,-32.1L32.1,32.1L-32.1,32.1Z" transform="translate(416,416)" fill="url(#stripes-4-45)"></path><path d="M-32.1,-32.1L32.1,-32.1L32.1,32.1L-32.1,32.1Z" transform="translate(416,480)" fill="url(#stripes-4-53)"></path><path d="M-32.1,-32.1L32.1,-32.1L32.1,32.1L-32.1,32.1Z" transform="translate(416,544)" fill="url(#stripes-4-61)"></path><path d="M-32.1,-32.1L32.1,-32.1L32.1,32.1L-32.1,32.1Z" transform="translate(480,96)" fill="url(#stripes-4-6)"></path><path d="M-32.1,-32.1L32.1,-32.1L32.1,32.1L-32.1,32.1Z" transform="translate(480,160)" fill="url(#stripes-4-14)"></path><path d="M-32.1,-32.1L32.1,-32.1L32.1,32.1L-32.1,32.1Z" transform="translate(480,224)" fill="url(#stripes-4-22)"></path><path d="M-32.1,-32.1L32.1,-32.1L32.1,32.1L-32.1,32.1Z" transform="translate(480,288)" fill="url(#stripes-4-30)"></path><path d="M-32.1,-32.1L32.1,-32.1L32.1,32.1L-32.1,32.1Z" transform="translate(480,352)" fill="url(#stripes-4-38)"></path><path d="M-32.1,-32.1L32.1,-32.1L32.1,32.1L-32.1,32.1Z" transform="translate(480,416)" fill="url(#stripes-4-46)"></path><path d="M-32.1,-32.1L32.1,-32.1L32.1,32.1L-32.1,32.1Z" transform="translate(480,480)" fill="url(#stripes-4-54)"></path><path d="M-32.1,-32.1L32.1,-32.1L32.1,32.1L-32.1,32.1Z" transform="translate(480,544)" fill="url(#stripes-4-62)"></path><path d="M-32.1,-32.1L32.1,-32.1L32.1,32.1L-32.1,32.1Z" transform="translate(544,96)" fill="url(#stripes-4-7)"></path><path d="M-32.1,-32.1L32.1,-32.1L32.1,32.1L-32.1,32.1Z" transform="translate(544,160)" fill="url(#stripes-4-15)"></path><path d="M-32.1,-32.1L32.1,-32.1L32.1,32.1L-32.1,32.1Z" transform="translate(544,224)" fill="url(#stripes-4-23)"></path><path d="M-32.1,-32.1L32.1,-32.1L32.1,32.1L-32.1,32.1Z" transform="translate(544,288)" fill="url(#stripes-4-31)"></path><path d="M-32.1,-32.1L32.1,-32.1L32.1,32.1L-32.1,32.1Z" transform="translate(544,352)" fill="url(#stripes-4-39)"></path><path d="M-32.1,-32.1L32.1,-32.1L32.1,32.1L-32.1,32.1Z" transform="translate(544,416)" fill="url(#stripes-4-47)"></path><path d="M-32.1,-32.1L32.1,-32.1L32.1,32.1L-32.1,32.1Z" transform="translate(544,480)" fill="url(#stripes-4-55)"></path><path d="M-32.1,-32.1L32.1,-32.1L32.1,32.1L-32.1,32.1Z" transform="translate(544,544)" fill="url(#stripes-4-63)"></path></g></svg>