<svg xmlns="http://www.w3.org/2000/svg" viewBox="0 0 640 640" viewport-fill="#000" label="_shape #84 gradient #5"><defs><style type="text/css">
.f-0 { fill: #000;  }
.f-1 { fill: #101010;  }
.f-2 { fill: #202020;  }
.f-3 { fill: #303030;  }
.f-4 { fill: #404040;  }
.f-5 { fill: #505050;  }
.f-6 { fill: #606060;  }
.f-7 { fill: #707070;  }
.f-8 { fill: #808080;  }
.f-9 { fill: #909090;  }
.f-10 { fill: #a0a0a0;  }
.f-11 { fill: #b0b0b0;  }
.f-12 { fill: #c0c0c0;  }
.f-13 { fill: #d0d0d0;  }
.f-14 { fill: #e0e0e0;  }
.f-15 { fill: #f0f0f0;  }
.bgc { fill: #101010;  }
.fore { fill: #404040; stroke-color: #404040; sroke-width: 0;  }
text{ font-family: Freemono, Sans, Arial; } 
</style><pattern id="stripes-5-0-0" patternUnits="userSpaceOnUse" width="8" height="8"><path d="M4,-1L4,9" style="line-cap: butt; stroke: #333; stroke-width: 0" class="fore"></path></pattern><pattern id="stripes-5-0-1" patternUnits="userSpaceOnUse" width="8" height="8"><path d="M4,-1L4,9" style="line-cap: butt; stroke: #333; stroke-width: 0.375" class="fore"></path></pattern><pattern id="stripes-5-0-2" patternUnits="userSpaceOnUse" width="8" height="8"><path d="M4,-1L4,9" style="line-cap: butt; stroke: #333; stroke-width: 0.75" class="fore"></path></pattern><pattern id="stripes-5-0-3" patternUnits="userSpaceOnUse" width="8" height="8"><path d="M4,-1L4,9" style="line-cap: butt; stroke: #333; stroke-width: 1.125" class="fore"></path></pattern><pattern id="stripes-5-0-4" patternUnits="userSpaceOnUse" width="8" height="8"><path d="M4,-1L4,9" style="line-cap: butt; stroke: #333; stroke-width: 1.5" class="fore"></path></pattern><pattern id="stripes-5-0-5" patternUnits="userSpaceOnUse" width="8" height="8"><path d="M4,-1L4,9" style="line-cap: butt; stroke: #333; stroke-width: 1.875" class="fore"></path></pattern><pattern id="stripes-5-0-6" patternUnits="userSpaceOnUse" width="8" height="8"><path d="M4,-1L4,9" style="line-cap: butt; stroke: #333; stroke-width: 2.25" class="fore"></path></pattern><pattern id="stripes-5-0-7" patternUnits="userSpaceOnUse" width="8" height="8"><path d="M4,-1L4,9" style="line-cap: butt; stroke: #333; stroke-width: 2.625" class="fore"></path></pattern><pattern id="stripes-5-1-0" patternUnits="userSpaceOnUse" width="8" height="8"><path d="M2.8873953302184283,-0.8746395609091184L5.112604669781572,8.874639560909118" style="line-cap: butt; stroke: #333; stroke-width: 0" class="fore"></path></pattern><pattern id="stripes-5-1-1" patternUnits="userSpaceOnUse" width="8" height="8"><path d="M2.8873953302184283,-0.8746395609091184L5.112604669781572,8.874639560909118" style="line-cap: butt; stroke: #333; stroke-width: 0.375" class="fore"></path></pattern><pattern id="stripes-5-1-2" patternUnits="userSpaceOnUse" width="8" height="8"><path d="M2.8873953302184283,-0.8746395609091184L5.112604669781572,8.874639560909118" style="line-cap: butt; stroke: #333; stroke-width: 0.75" class="fore"></path></pattern><pattern id="stripes-5-1-3" patternUnits="userSpaceOnUse" width="8" height="8"><path d="M2.8873953302184283,-0.8746395609091184L5.112604669781572,8.874639560909118" style="line-cap: butt; stroke: #333; stroke-width: 1.125" class="fore"></path></pattern><pattern id="stripes-5-1-4" patternUnits="userSpaceOnUse" width="8" height="8"><path d="M2.8873953302184283,-0.8746395609091184L5.112604669781572,8.874639560909118" style="line-cap: butt; stroke: #333; stroke-width: 1.5" class="fore"></path></pattern><pattern id="stripes-5-1-5" patternUnits="userSpaceOnUse" width="8" height="8"><path d="M2.8873953302184283,-0.8746395609091184L5.112604669781572,8.874639560909118" style="line-cap: butt; stroke: #333; stroke-width: 1.875" class="fore"></path></pattern><pattern id="stripes-5-1-6" patternUnits="userSpaceOnUse" width="8" height="8"><path d="M2.8873953302184283,-0.8746395609091184L5.112604669781572,8.874639560909118" style="line-cap: butt; stroke: #333; stroke-width: 2.25" class="fore"></path></pattern><pattern id="stripes-5-1-7" patternUnits="userSpaceOnUse" width="8" height="8"><path d="M2.8873953302184283,-0.8746395609091184L5.112604669781572,8.874639560909118" style="line-cap: butt; stroke: #333; stroke-width: 2.625" class="fore"></path></pattern><pattern id="stripes-5-2-0" patternUnits="userSpaceOnUse" width="8" height="8"><path d="M1.8305813044122092,-0.5048443395120961L6.16941869558779,8.504844339512097" style="line-cap: butt; stroke: #333; stroke-width: 0" class="fore"></path></pattern><pattern id="stripes-5-2-1" patternUnits="userSpaceOnUse" width="8" height="8"><path d="M1.8305813044122092,-0.5048443395120961L6.16941869558779,8.504844339512097" style="line-cap: butt; stroke: #333; stroke-width: 0.375" class="fore"></path></pattern><pattern id="stripes-5-2-2" patternUnits="userSpaceOnUse" width="8" height="8"><path d="M1.8305813044122092,-0.5048443395120961L6.16941869558779,8.504844339512097" style="line-cap: butt; stroke: #333; stroke-width: 0.75" class="fore"></path></pattern><pattern id="stripes-5-2-3" patternUnits="userSpaceOnUse" width="8" height="8"><path d="M1.8305813044122092,-0.5048443395120961L6.16941869558779,8.504844339512097" style="line-cap: butt; stroke: #333; stroke-width: 1.125" class="fore"></path></pattern><pattern id="stripes-5-2-4" patternUnits="userSpaceOnUse" width="8" height="8"><path d="M1.8305813044122092,-0.5048443395120961L6.16941869558779,8.504844339512097" style="line-cap: butt; stroke: #333; stroke-width: 1.5" class="fore"></path></pattern><pattern id="stripes-5-2-5" patternUnits="userSpaceOnUse" width="8" height="8"><path d="M1.8305813044122092,-0.5048443395120961L6.16941869558779,8.504844339512097" style="line-cap: butt; stroke: #333; stroke-width: 1.875" class="fore"></path></pattern><pattern id="stripes-5-2-6" patternUnits="userSpaceOnUse" width="8" height="8"><path d="M1.8305813044122092,-0.5048443395120961L6.16941869558779,8.504844339512097" style="line-cap: butt; stroke: #333; stroke-width: 2.25" class="fore"></path></pattern><pattern id="stripes-5-2-7" patternUnits="userSpaceOnUse" width="8" height="8"><path d="M1.8305813044122092,-0.5048443395120961L6.16941869558779,8.504844339512097" style="line-cap: butt; stroke: #333; stroke-width: 2.625" class="fore"></path></pattern><pattern id="stripes-5-3-0" patternUnits="userSpaceOnUse" width="8" height="8"><path d="M0.8825509907063327,0.09084258765985087L7.117449009293667,7.909157412340149" style="line-cap: butt; stroke: #333; stroke-width: 0" class="fore"></path></pattern><pattern id="stripes-5-3-1" patternUnits="userSpaceOnUse" width="8" height="8"><path d="M0.8825509907063327,0.09084258765985087L7.117449009293667,7.909157412340149" style="line-cap: butt; stroke: #333; stroke-width: 0.375" class="fore"></path></pattern><pattern id="stripes-5-3-2" patternUnits="userSpaceOnUse" width="8" height="8"><path d="M0.8825509907063327,0.09084258765985087L7.117449009293667,7.909157412340149" style="line-cap: butt; stroke: #333; stroke-width: 0.75" class="fore"></path></pattern><pattern id="stripes-5-3-3" patternUnits="userSpaceOnUse" width="8" height="8"><path d="M0.8825509907063327,0.09084258765985087L7.117449009293667,7.909157412340149" style="line-cap: butt; stroke: #333; stroke-width: 1.125" class="fore"></path></pattern><pattern id="stripes-5-3-4" patternUnits="userSpaceOnUse" width="8" height="8"><path d="M0.8825509907063327,0.09084258765985087L7.117449009293667,7.909157412340149" style="line-cap: butt; stroke: #333; stroke-width: 1.5" class="fore"></path></pattern><pattern id="stripes-5-3-5" patternUnits="userSpaceOnUse" width="8" height="8"><path d="M0.8825509907063327,0.09084258765985087L7.117449009293667,7.909157412340149" style="line-cap: butt; stroke: #333; stroke-width: 1.875" class="fore"></path></pattern><pattern id="stripes-5-3-6" patternUnits="userSpaceOnUse" width="8" height="8"><path d="M0.8825509907063327,0.09084258765985087L7.117449009293667,7.909157412340149" style="line-cap: butt; stroke: #333; stroke-width: 2.25" class="fore"></path></pattern><pattern id="stripes-5-3-7" patternUnits="userSpaceOnUse" width="8" height="8"><path d="M0.8825509907063327,0.09084258765985087L7.117449009293667,7.909157412340149" style="line-cap: butt; stroke: #333; stroke-width: 2.625" class="fore"></path></pattern><pattern id="stripes-5-4-0" patternUnits="userSpaceOnUse" width="8" height="8"><path d="M0.09084258765985087,0.8825509907063323L7.909157412340149,7.117449009293668" style="line-cap: butt; stroke: #333; stroke-width: 0" class="fore"></path></pattern><pattern id="stripes-5-4-1" patternUnits="userSpaceOnUse" width="8" height="8"><path d="M0.09084258765985087,0.8825509907063323L7.909157412340149,7.117449009293668" style="line-cap: butt; stroke: #333; stroke-width: 0.375" class="fore"></path></pattern><pattern id="stripes-5-4-2" patternUnits="userSpaceOnUse" width="8" height="8"><path d="M0.09084258765985087,0.8825509907063323L7.909157412340149,7.117449009293668" style="line-cap: butt; stroke: #333; stroke-width: 0.75" class="fore"></path></pattern><pattern id="stripes-5-4-3" patternUnits="userSpaceOnUse" width="8" height="8"><path d="M0.09084258765985087,0.8825509907063323L7.909157412340149,7.117449009293668" style="line-cap: butt; stroke: #333; stroke-width: 1.125" class="fore"></path></pattern><pattern id="stripes-5-4-4" patternUnits="userSpaceOnUse" width="8" height="8"><path d="M0.09084258765985087,0.8825509907063323L7.909157412340149,7.117449009293668" style="line-cap: butt; stroke: #333; stroke-width: 1.5" class="fore"></path></pattern><pattern id="stripes-5-4-5" patternUnits="userSpaceOnUse" width="8" height="8"><path d="M0.09084258765985087,0.8825509907063323L7.909157412340149,7.117449009293668" style="line-cap: butt; stroke: #333; stroke-width: 1.875" class="fore"></path></pattern><pattern id="stripes-5-4-6" patternUnits="userSpaceOnUse" width="8" height="8"><path d="M0.09084258765985087,0.8825509907063323L7.909157412340149,7.117449009293668" style="line-cap: butt; stroke: #333; stroke-width: 2.25" class="fore"></path></pattern><pattern id="stripes-5-4-7" patternUnits="userSpaceOnUse" width="8" height="8"><path d="M0.09084258765985087,0.8825509907063323L7.909157412340149,7.117449009293668" style="line-cap: butt; stroke: #333; stroke-width: 2.625" class="fore"></path></pattern><pattern id="stripes-5-5-0" patternUnits="userSpaceOnUse" width="8" height="8"><path d="M-0.5048443395120961,1.8305813044122092L8.504844339512097,6.16941869558779" style="line-cap: butt; stroke: #333; stroke-width: 0" class="fore"></path></pattern><pattern id="stripes-5-5-1" patternUnits="userSpaceOnUse" width="8" height="8"><path d="M-0.5048443395120961,1.8305813044122092L8.504844339512097,6.16941869558779" style="line-cap: butt; stroke: #333; stroke-width: 0.375" class="fore"></path></pattern><pattern id="stripes-5-5-2" patternUnits="userSpaceOnUse" width="8" height="8"><path d="M-0.5048443395120961,1.8305813044122092L8.504844339512097,6.16941869558779" style="line-cap: butt; stroke: #333; stroke-width: 0.75" class="fore"></path></pattern><pattern id="stripes-5-5-3" patternUnits="userSpaceOnUse" width="8" height="8"><path d="M-0.5048443395120961,1.8305813044122092L8.504844339512097,6.16941869558779" style="line-cap: butt; stroke: #333; stroke-width: 1.125" class="fore"></path></pattern><pattern id="stripes-5-5-4" patternUnits="userSpaceOnUse" width="8" height="8"><path d="M-0.5048443395120961,1.8305813044122092L8.504844339512097,6.16941869558779" style="line-cap: butt; stroke: #333; stroke-width: 1.5" class="fore"></path></pattern><pattern id="stripes-5-5-5" patternUnits="userSpaceOnUse" width="8" height="8"><path d="M-0.5048443395120961,1.8305813044122092L8.504844339512097,6.16941869558779" style="line-cap: butt; stroke: #333; stroke-width: 1.875" class="fore"></path></pattern><pattern id="stripes-5-5-6" patternUnits="userSpaceOnUse" width="8" height="8"><path d="M-0.5048443395120961,1.8305813044122092L8.504844339512097,6.16941869558779" style="line-cap: butt; stroke: #333; stroke-width: 2.25" class="fore"></path></pattern><pattern id="stripes-5-5-7" patternUnits="userSpaceOnUse" width="8" height="8"><path d="M-0.5048443395120961,1.8305813044122092L8.504844339512097,6.16941869558779" style="line-cap: butt; stroke: #333; stroke-width: 2.625" class="fore"></path></pattern><pattern id="stripes-5-6-0" patternUnits="userSpaceOnUse" width="8" height="8"><path d="M-0.8746395609091184,2.887395330218428L8.874639560909118,5.112604669781572" style="line-cap: butt; stroke: #333; stroke-width: 0" class="fore"></path></pattern><pattern id="stripes-5-6-1" patternUnits="userSpaceOnUse" width="8" height="8"><path d="M-0.8746395609091184,2.887395330218428L8.874639560909118,5.112604669781572" style="line-cap: butt; stroke: #333; stroke-width: 0.375" class="fore"></path></pattern><pattern id="stripes-5-6-2" patternUnits="userSpaceOnUse" width="8" height="8"><path d="M-0.8746395609091184,2.887395330218428L8.874639560909118,5.112604669781572" style="line-cap: butt; stroke: #333; stroke-width: 0.75" class="fore"></path></pattern><pattern id="stripes-5-6-3" patternUnits="userSpaceOnUse" width="8" height="8"><path d="M-0.8746395609091184,2.887395330218428L8.874639560909118,5.112604669781572" style="line-cap: butt; stroke: #333; stroke-width: 1.125" class="fore"></path></pattern><pattern id="stripes-5-6-4" patternUnits="userSpaceOnUse" width="8" height="8"><path d="M-0.8746395609091184,2.887395330218428L8.874639560909118,5.112604669781572" style="line-cap: butt; stroke: #333; stroke-width: 1.5" class="fore"></path></pattern><pattern id="stripes-5-6-5" patternUnits="userSpaceOnUse" width="8" height="8"><path d="M-0.8746395609091184,2.887395330218428L8.874639560909118,5.112604669781572" style="line-cap: butt; stroke: #333; stroke-width: 1.875" class="fore"></path></pattern><pattern id="stripes-5-6-6" patternUnits="userSpaceOnUse" width="8" height="8"><path d="M-0.8746395609091184,2.887395330218428L8.874639560909118,5.112604669781572" style="line-cap: butt; stroke: #333; stroke-width: 2.25" class="fore"></path></pattern><pattern id="stripes-5-6-7" patternUnits="userSpaceOnUse" width="8" height="8"><path d="M-0.8746395609091184,2.887395330218428L8.874639560909118,5.112604669781572" style="line-cap: butt; stroke: #333; stroke-width: 2.625" class="fore"></path></pattern><pattern id="stripes-5-7-0" patternUnits="userSpaceOnUse" width="8" height="8"><path d="M-1,3.9999999999999996L9,4" style="line-cap: butt; stroke: #333; stroke-width: 0" class="fore"></path></pattern><pattern id="stripes-5-7-1" patternUnits="userSpaceOnUse" width="8" height="8"><path d="M-1,3.9999999999999996L9,4" style="line-cap: butt; stroke: #333; stroke-width: 0.375" class="fore"></path></pattern><pattern id="stripes-5-7-2" patternUnits="userSpaceOnUse" width="8" height="8"><path d="M-1,3.9999999999999996L9,4" style="line-cap: butt; stroke: #333; stroke-width: 0.75" class="fore"></path></pattern><pattern id="stripes-5-7-3" patternUnits="userSpaceOnUse" width="8" height="8"><path d="M-1,3.9999999999999996L9,4" style="line-cap: butt; stroke: #333; stroke-width: 1.125" class="fore"></path></pattern><pattern id="stripes-5-7-4" patternUnits="userSpaceOnUse" width="8" height="8"><path d="M-1,3.9999999999999996L9,4" style="line-cap: butt; stroke: #333; stroke-width: 1.5" class="fore"></path></pattern><pattern id="stripes-5-7-5" patternUnits="userSpaceOnUse" width="8" height="8"><path d="M-1,3.9999999999999996L9,4" style="line-cap: butt; stroke: #333; stroke-width: 1.875" class="fore"></path></pattern><pattern id="stripes-5-7-6" patternUnits="userSpaceOnUse" width="8" height="8"><path d="M-1,3.9999999999999996L9,4" style="line-cap: butt; stroke: #333; stroke-width: 2.25" class="fore"></path></pattern><pattern id="stripes-5-7-7" patternUnits="userSpaceOnUse" width="8" height="8"><path d="M-1,3.9999999999999996L9,4" style="line-cap: butt; stroke: #333; stroke-width: 2.625" class="fore"></path></pattern></defs><g fill-rule="evenodd"><path d="M-32.1,-32.1L32.1,-32.1L32.1,32.1L-32.1,32.1Z" transform="translate(96,96)" fill="url(#stripes-5-0-0)"></path><path d="M-32.1,-32.1L32.1,-32.1L32.1,32.1L-32.1,32.1Z" transform="translate(96,160)" fill="url(#stripes-5-0-1)"></path><path d="M-32.1,-32.1L32.1,-32.1L32.1,32.1L-32.1,32.1Z" transform="translate(96,224)" fill="url(#stripes-5-0-2)"></path><path d="M-32.1,-32.1L32.1,-32.1L32.1,32.1L-32.1,32.1Z" transform="translate(96,288)" fill="url(#stripes-5-0-3)"></path><path d="M-32.1,-32.1L32.1,-32.1L32.1,32.1L-32.1,32.1Z" transform="translate(96,352)" fill="url(#stripes-5-0-4)"></path><path d="M-32.1,-32.1L32.1,-32.1L32.1,32.1L-32.1,32.1Z" transform="translate(96,416)" fill="url(#stripes-5-0-5)"></path><path d="M-32.1,-32.1L32.1,-32.1L32.1,32.1L-32.1,32.1Z" transform="translate(96,480)" fill="url(#stripes-5-0-6)"></path><path d="M-32.1,-32.1L32.1,-32.1L32.1,32.1L-32.1,32.1Z" transform="translate(96,544)" fill="url(#stripes-5-0-7)"></path><path d="M-32.1,-32.1L32.1,-32.1L32.1,32.1L-32.1,32.1Z" transform="translate(160,96)" fill="url(#stripes-5-1-0)"></path><path d="M-32.1,-32.1L32.1,-32.1L32.1,32.1L-32.1,32.1Z" transform="translate(160,160)" fill="url(#stripes-5-1-1)"></path><path d="M-32.1,-32.1L32.1,-32.1L32.1,32.1L-32.1,32.1Z" transform="translate(160,224)" fill="url(#stripes-5-1-2)"></path><path d="M-32.1,-32.1L32.1,-32.1L32.1,32.1L-32.1,32.1Z" transform="translate(160,288)" fill="url(#stripes-5-1-3)"></path><path d="M-32.1,-32.1L32.1,-32.1L32.1,32.1L-32.1,32.1Z" transform="translate(160,352)" fill="url(#stripes-5-1-4)"></path><path d="M-32.1,-32.1L32.1,-32.1L32.1,32.1L-32.1,32.1Z" transform="translate(160,416)" fill="url(#stripes-5-1-5)"></path><path d="M-32.1,-32.1L32.1,-32.1L32.1,32.1L-32.1,32.1Z" transform="translate(160,480)" fill="url(#stripes-5-1-6)"></path><path d="M-32.1,-32.1L32.1,-32.1L32.1,32.1L-32.1,32.1Z" transform="translate(160,544)" fill="url(#stripes-5-1-7)"></path><path d="M-32.1,-32.1L32.1,-32.1L32.1,32.1L-32.1,32.1Z" transform="translate(224,96)" fill="url(#stripes-5-2-0)"></path><path d="M-32.1,-32.1L32.1,-32.1L32.1,32.1L-32.1,32.1Z" transform="translate(224,160)" fill="url(#stripes-5-2-1)"></path><path d="M-32.1,-32.1L32.1,-32.1L32.1,32.1L-32.1,32.1Z" transform="translate(224,224)" fill="url(#stripes-5-2-2)"></path><path d="M-32.1,-32.1L32.1,-32.1L32.1,32.1L-32.1,32.1Z" transform="translate(224,288)" fill="url(#stripes-5-2-3)"></path><path d="M-32.1,-32.1L32.1,-32.1L32.1,32.1L-32.1,32.1Z" transform="translate(224,352)" fill="url(#stripes-5-2-4)"></path><path d="M-32.1,-32.1L32.1,-32.1L32.1,32.1L-32.1,32.1Z" transform="translate(224,416)" fill="url(#stripes-5-2-5)"></path><path d="M-32.1,-32.1L32.1,-32.1L32.1,32.1L-32.1,32.1Z" transform="translate(224,480)" fill="url(#stripes-5-2-6)"></path><path d="M-32.1,-32.1L32.1,-32.1L32.1,32.1L-32.1,32.1Z" transform="translate(224,544)" fill="url(#stripes-5-2-7)"></path><path d="M-32.1,-32.1L32.1,-32.1L32.1,32.1L-32.1,32.1Z" transform="translate(288,96)" fill="url(#stripes-5-3-0)"></path><path d="M-32.1,-32.1L32.1,-32.1L32.1,32.1L-32.1,32.1Z" transform="translate(288,160)" fill="url(#stripes-5-3-1)"></path><path d="M-32.1,-32.1L32.1,-32.1L32.1,32.1L-32.1,32.1Z" transform="translate(288,224)" fill="url(#stripes-5-3-2)"></path><path d="M-32.1,-32.1L32.1,-32.1L32.1,32.1L-32.1,32.1Z" transform="translate(288,288)" fill="url(#stripes-5-3-3)"></path><path d="M-32.1,-32.1L32.1,-32.1L32.1,32.1L-32.1,32.1Z" transform="translate(288,352)" fill="url(#stripes-5-3-4)"></path><path d="M-32.1,-32.1L32.1,-32.1L32.1,32.1L-32.1,32.1Z" transform="translate(288,416)" fill="url(#stripes-5-3-5)"></path><path d="M-32.1,-32.1L32.1,-32.1L32.1,32.1L-32.1,32.1Z" transform="translate(288,480)" fill="url(#stripes-5-3-6)"></path><path d="M-32.1,-32.1L32.1,-32.1L32.1,32.1L-32.1,32.1Z" transform="translate(288,544)" fill="url(#stripes-5-3-7)"></path><path d="M-32.1,-32.1L32.1,-32.1L32.1,32.1L-32.1,32.1Z" transform="translate(352,96)" fill="url(#stripes-5-4-0)"></path><path d="M-32.1,-32.1L32.1,-32.1L32.1,32.1L-32.1,32.1Z" transform="translate(352,160)" fill="url(#stripes-5-4-1)"></path><path d="M-32.1,-32.1L32.1,-32.1L32.1,32.1L-32.1,32.1Z" transform="translate(352,224)" fill="url(#stripes-5-4-2)"></path><path d="M-32.1,-32.1L32.1,-32.1L32.1,32.1L-32.1,32.1Z" transform="translate(352,288)" fill="url(#stripes-5-4-3)"></path><path d="M-32.1,-32.1L32.1,-32.1L32.1,32.1L-32.1,32.1Z" transform="translate(352,352)" fill="url(#stripes-5-4-4)"></path><path d="M-32.1,-32.1L32.1,-32.1L32.1,32.1L-32.1,32.1Z" transform="translate(352,416)" fill="url(#stripes-5-4-5)"></path><path d="M-32.1,-32.1L32.1,-32.1L32.1,32.1L-32.1,32.1Z" transform="translate(352,480)" fill="url(#stripes-5-4-6)"></path><path d="M-32.1,-32.1L32.1,-32.1L32.1,32.1L-32.1,32.1Z" transform="translate(352,544)" fill="url(#stripes-5-4-7)"></path><path d="M-32.1,-32.1L32.1,-32.1L32.1,32.1L-32.1,32.1Z" transform="translate(416,96)" fill="url(#stripes-5-5-0)"></path><path d="M-32.1,-32.1L32.1,-32.1L32.1,32.1L-32.1,32.1Z" transform="translate(416,160)" fill="url(#stripes-5-5-1)"></path><path d="M-32.1,-32.1L32.1,-32.1L32.1,32.1L-32.1,32.1Z" transform="translate(416,224)" fill="url(#stripes-5-5-2)"></path><path d="M-32.1,-32.1L32.1,-32.1L32.1,32.1L-32.1,32.1Z" transform="translate(416,288)" fill="url(#stripes-5-5-3)"></path><path d="M-32.1,-32.1L32.1,-32.1L32.1,32.1L-32.1,32.1Z" transform="translate(416,352)" fill="url(#stripes-5-5-4)"></path><path d="M-32.1,-32.1L32.1,-32.1L32.1,32.1L-32.1,32.1Z" transform="translate(416,416)" fill="url(#stripes-5-5-5)"></path><path d="M-32.1,-32.1L32.1,-32.1L32.1,32.1L-32.1,32.1Z" transform="translate(416,480)" fill="url(#stripes-5-5-6)"></path><path d="M-32.1,-32.1L32.1,-32.1L32.1,32.1L-32.1,32.1Z" transform="translate(416,544)" fill="url(#stripes-5-5-7)"></path><path d="M-32.1,-32.1L32.1,-32.1L32.1,32.1L-32.1,32.1Z" transform="translate(480,96)" fill="url(#stripes-5-6-0)"></path><path d="M-32.1,-32.1L32.1,-32.1L32.1,32.1L-32.1,32.1Z" transform="translate(480,160)" fill="url(#stripes-5-6-1)"></path><path d="M-32.1,-32.1L32.1,-32.1L32.1,32.1L-32.1,32.1Z" transform="translate(480,224)" fill="url(#stripes-5-6-2)"></path><path d="M-32.1,-32.1L32.1,-32.1L32.1,32.1L-32.1,32.1Z" transform="translate(480,288)" fill="url(#stripes-5-6-3)"></path><path d="M-32.1,-32.1L32.1,-32.1L32.1,32.1L-32.1,32.1Z" transform="translate(480,352)" fill="url(#stripes-5-6-4)"></path><path d="M-32.1,-32.1L32.1,-32.1L32.1,32.1L-32.1,32.1Z" transform="translate(480,416)" fill="url(#stripes-5-6-5)"></path><path d="M-32.1,-32.1L32.1,-32.1L32.1,32.1L-32.1,32.1Z" transform="translate(480,480)" fill="url(#stripes-5-6-6)"></path><path d="M-32.1,-32.1L32.1,-32.1L32.1,32.1L-32.1,32.1Z" transform="translate(480,544)" fill="url(#stripes-5-6-7)"></path><path d="M-32.1,-32.1L32.1,-32.1L32.1,32.1L-32.1,32.1Z" transform="translate(544,96)" fill="url(#stripes-5-7-0)"></path><path d="M-32.1,-32.1L32.1,-32.1L32.1,32.1L-32.1,32.1Z" transform="translate(544,160)" fill="url(#stripes-5-7-1)"></path><path d="M-32.1,-32.1L32.1,-32.1L32.1,32.1L-32.1,32.1Z" transform="translate(544,224)" fill="url(#stripes-5-7-2)"></path><path d="M-32.1,-32.1L32.1,-32.1L32.1,32.1L-32.1,32.1Z" transform="translate(544,288)" fill="url(#stripes-5-7-3)"></path><path d="M-32.1,-32.1L32.1,-32.1L32.1,32.1L-32.1,32.1Z" transform="translate(544,352)" fill="url(#stripes-5-7-4)"></path><path d="M-32.1,-32.1L32.1,-32.1L32.1,32.1L-32.1,32.1Z" transform="translate(544,416)" fill="url(#stripes-5-7-5)"></path><path d="M-32.1,-32.1L32.1,-32.1L32.1,32.1L-32.1,32.1Z" transform="translate(544,480)" fill="url(#stripes-5-7-6)"></path><path d="M-32.1,-32.1L32.1,-32.1L32.1,32.1L-32.1,32.1Z" transform="translate(544,544)" fill="url(#stripes-5-7-7)"></path></g></svg>