<svg xmlns="http://www.w3.org/2000/svg" viewBox="0 0 640 640" viewport-fill="#000" label="_shape #85 gradient #6"><defs><style type="text/css">
.f-0 { fill: #000;  }
.f-1 { fill: #101010;  }
.f-2 { fill: #202020;  }
.f-3 { fill: #303030;  }
.f-4 { fill: #404040;  }
.f-5 { fill: #505050;  }
.f-6 { fill: #606060;  }
.f-7 { fill: #707070;  }
.f-8 { fill: #808080;  }
.f-9 { fill: #909090;  }
.f-10 { fill: #a0a0a0;  }
.f-11 { fill: #b0b0b0;  }
.f-12 { fill: #c0c0c0;  }
.f-13 { fill: #d0d0d0;  }
.f-14 { fill: #e0e0e0;  }
.f-15 { fill: #f0f0f0;  }
.bgc { fill: #101010;  }
.fore { fill: #404040; stroke-color: #404040; sroke-width: 0;  }
text{ font-family: Freemono, Sans, Arial; } 
</style><pattern id="stripes-6-0-0" patternUnits="userSpaceOnUse" width="8" height="8"></pattern><pattern id="stripes-6-0-1" patternUnits="userSpaceOnUse" width="8" height="8"><path d="M3.3812815664617712,3.381281566461771L3.381281566461771,4.618718433538229L4.618718433538229,4.618718433538229L4.618718433538229,3.3812815664617712" class="fore"></path></pattern><pattern id="stripes-6-0-2" patternUnits="userSpaceOnUse" width="8" height="8"><path d="M2.762563132923542,2.7625631329235416L2.7625631329235416,5.2374368670764575L5.2374368670764575,5.237436867076458L5.237436867076458,2.762563132923542" class="fore"></path></pattern><pattern id="stripes-6-0-3" patternUnits="userSpaceOnUse" width="8" height="8"><path d="M2.143844699385313,2.143844699385313L2.143844699385313,5.856155300614687L5.856155300614687,5.856155300614688L5.856155300614688,2.1438446993853133" class="fore"></path></pattern><pattern id="stripes-6-0-4" patternUnits="userSpaceOnUse" width="8" height="8"><path d="M1.525126265847084,1.5251262658470837L1.5251262658470837,6.474873734152916L6.474873734152916,6.474873734152917L6.474873734152917,1.525126265847084" class="fore"></path></pattern><pattern id="stripes-6-0-5" patternUnits="userSpaceOnUse" width="8" height="8"><path d="M0.9064078323088549,0.9064078323088545L0.9064078323088545,7.0935921676911455L7.0935921676911455,7.0935921676911455L7.0935921676911455,0.9064078323088554" class="fore"></path></pattern><pattern id="stripes-6-0-6" patternUnits="userSpaceOnUse" width="8" height="8"><path d="M0.2876893987706257,0.28768939877062527L0.28768939877062527,7.712310601229374L7.712310601229374,7.712310601229375L7.712310601229375,0.2876893987706266" class="fore"></path></pattern><pattern id="stripes-6-0-7" patternUnits="userSpaceOnUse" width="8" height="8"><path d="M-0.33102903476760304,-0.3310290347676039L-0.3310290347676039,8.331029034767603L8.331029034767603,8.331029034767605L8.331029034767605,-0.33102903476760215" class="fore"></path><path d="M-0.33102903476760304,7.668970965232396L-0.3310290347676039,16.331029034767603L8.331029034767603,16.331029034767603L8.331029034767605,7.668970965232398" class="fore"></path><path d="M7.668970965232397,-0.3310290347676034L7.668970965232396,8.331029034767603L16.331029034767603,8.331029034767605L16.331029034767603,-0.33102903476760165" class="fore"></path><path d="M-0.33102903476760204,-8.331029034767603L-0.3310290347676029,0.33102903476760304L8.331029034767605,0.3310290347676048L8.331029034767607,-8.331029034767603" class="fore"></path><path d="M-8.331029034767603,-0.33102903476760537L-8.331029034767603,8.331029034767601L0.33102903476760304,8.331029034767603L0.3310290347676048,-0.3310290347676036" class="fore"></path></pattern><pattern id="stripes-6-1-0" patternUnits="userSpaceOnUse" width="8" height="8"></pattern><pattern id="stripes-6-1-1" patternUnits="userSpaceOnUse" width="8" height="8"><path d="M3.315897452840474,3.454446423373608L3.454446423373608,4.684102547159526L4.684102547159526,4.545553576626392L4.545553576626392,3.315897452840474" class="fore"></path></pattern><pattern id="stripes-6-1-2" patternUnits="userSpaceOnUse" width="8" height="8"><path d="M2.6317949056809478,2.908892846747216L2.908892846747216,5.368205094319052L5.368205094319052,5.091107153252784L5.091107153252784,2.631794905680948" class="fore"></path></pattern><pattern id="stripes-6-1-3" patternUnits="userSpaceOnUse" width="8" height="8"><path d="M1.9476923585214219,2.3633392701208242L2.3633392701208242,6.052307641478578L6.052307641478578,5.636660729879176L5.636660729879176,1.9476923585214219" class="fore"></path></pattern><pattern id="stripes-6-1-4" patternUnits="userSpaceOnUse" width="8" height="8"><path d="M1.2635898113618955,1.8177856934944323L1.8177856934944323,6.736410188638104L6.736410188638104,6.182214306505568L6.182214306505568,1.263589811361896" class="fore"></path></pattern><pattern id="stripes-6-1-5" patternUnits="userSpaceOnUse" width="8" height="8"><path d="M0.5794872642023696,1.2722321168680404L1.2722321168680404,7.4205127357976295L7.4205127357976295,6.7277678831319605L6.7277678831319605,0.5794872642023701" class="fore"></path></pattern><pattern id="stripes-6-1-6" patternUnits="userSpaceOnUse" width="8" height="8"><path d="M-0.10461528295715627,0.7266785402416485L0.7266785402416485,8.104615282957155L8.104615282957155,7.2733214597583515L7.2733214597583515,-0.10461528295715627" class="fore"></path><path d="M-0.10461528295715627,8.726678540241648L0.7266785402416485,16.104615282957155L8.104615282957155,15.273321459758352L7.2733214597583515,7.895384717042844" class="fore"></path><path d="M7.895384717042844,0.7266785402416489L8.726678540241648,8.104615282957155L16.104615282957155,7.273321459758352L15.273321459758352,-0.10461528295715579" class="fore"></path><path d="M-0.10461528295715529,-7.2733214597583515L0.7266785402416495,0.10461528295715539L8.104615282957157,-0.7266785402416485L7.273321459758352,-8.104615282957155" class="fore"></path><path d="M-8.104615282957155,0.726678540241647L-7.2733214597583515,8.104615282957154L0.10461528295715539,7.27332145975835L-0.7266785402416485,-0.10461528295715775" class="fore"></path></pattern><pattern id="stripes-6-1-7" patternUnits="userSpaceOnUse" width="8" height="8"><path d="M-0.7887178301166822,0.18112496361525654L0.18112496361525654,8.788717830116681L8.788717830116681,7.818875036384744L7.818875036384744,-0.7887178301166822" class="fore"></path><path d="M-0.7887178301166822,8.181124963615257L0.18112496361525654,16.78871783011668L8.788717830116681,15.818875036384744L7.818875036384744,7.211282169883318" class="fore"></path><path d="M7.211282169883318,0.18112496361525704L8.181124963615257,8.788717830116681L16.78871783011668,7.818875036384745L15.818875036384744,-0.7887178301166817" class="fore"></path><path d="M-0.7887178301166812,-7.8188750363847435L0.1811249636152575,0.7887178301166813L8.788717830116683,-0.18112496361525565L7.818875036384745,-8.788717830116681" class="fore"></path><path d="M-8.788717830116681,0.18112496361525507L-7.8188750363847435,8.78871783011668L0.7887178301166813,7.818875036384743L-0.18112496361525565,-0.7887178301166836" class="fore"></path></pattern><pattern id="stripes-6-2-0" patternUnits="userSpaceOnUse" width="8" height="8"></pattern><pattern id="stripes-6-2-1" patternUnits="userSpaceOnUse" width="8" height="8"><path d="M3.2591163256752513,3.5344719330490806L3.5344719330490806,4.740883674324749L4.740883674324749,4.465528066950919L4.465528066950919,3.2591163256752513" class="fore"></path></pattern><pattern id="stripes-6-2-2" patternUnits="userSpaceOnUse" width="8" height="8"><path d="M2.5182326513505027,3.068943866098161L3.0689438660981607,5.481767348649497L5.481767348649497,4.931056133901839L4.93105613390184,2.5182326513505027" class="fore"></path></pattern><pattern id="stripes-6-2-3" patternUnits="userSpaceOnUse" width="8" height="8"><path d="M1.777348977025754,2.6034157991472417L2.6034157991472413,6.2226510229742455L6.2226510229742455,5.396584200852759L5.396584200852759,1.7773489770257545" class="fore"></path></pattern><pattern id="stripes-6-2-4" patternUnits="userSpaceOnUse" width="8" height="8"><path d="M1.0364653027010053,2.137887732196322L2.1378877321963214,6.963534697298995L6.963534697298995,5.8621122678036786L5.8621122678036786,1.0364653027010058" class="fore"></path></pattern><pattern id="stripes-6-2-5" patternUnits="userSpaceOnUse" width="8" height="8"><path d="M0.2955816283762571,1.6723596652454025L1.672359665245402,7.704418371623743L7.704418371623743,6.327640334754598L6.327640334754598,0.29558162837625757" class="fore"></path></pattern><pattern id="stripes-6-2-6" patternUnits="userSpaceOnUse" width="8" height="8"><path d="M-0.445302045948492,1.206831598294483L1.2068315982944826,8.445302045948491L8.445302045948491,6.793168401705517L6.793168401705518,-0.4453020459484911" class="fore"></path><path d="M-0.445302045948492,9.206831598294483L1.2068315982944826,16.44530204594849L8.445302045948491,14.793168401705518L6.793168401705518,7.554697954051509" class="fore"></path><path d="M7.554697954051508,1.2068315982944835L9.206831598294482,8.445302045948491L16.44530204594849,6.793168401705518L14.793168401705518,-0.4453020459484906" class="fore"></path><path d="M-0.445302045948491,-6.7931684017055165L1.2068315982944835,0.4453020459484911L8.445302045948493,-1.2068315982944826L6.793168401705519,-8.445302045948491" class="fore"></path><path d="M-8.445302045948491,1.2068315982944815L-6.793168401705517,8.44530204594849L0.4453020459484911,6.793168401705516L-1.2068315982944817,-0.44530204594849254" class="fore"></path></pattern><pattern id="stripes-6-2-7" patternUnits="userSpaceOnUse" width="8" height="8"><path d="M-1.1861857202732402,0.7413035313435636L0.7413035313435627,9.18618572027324L9.18618572027324,7.258696468656437L7.258696468656438,-1.1861857202732393" class="fore"></path><path d="M-1.1861857202732402,8.741303531343563L0.7413035313435627,17.18618572027324L9.18618572027324,15.258696468656437L7.258696468656438,6.813814279726761" class="fore"></path><path d="M6.81381427972676,0.7413035313435641L8.741303531343563,9.18618572027324L17.18618572027324,7.258696468656438L15.258696468656439,-1.1861857202732389" class="fore"></path><path d="M-1.1861857202732393,-7.258696468656437L0.7413035313435637,1.1861857202732402L9.186185720273242,-0.7413035313435632L7.258696468656439,-9.18618572027324" class="fore"></path><path d="M-9.18618572027324,0.7413035313435622L-7.258696468656437,9.186185720273238L1.1861857202732402,7.258696468656435L-0.7413035313435623,-1.1861857202732409" class="fore"></path></pattern><pattern id="stripes-6-3-0" patternUnits="userSpaceOnUse" width="8" height="8"></pattern><pattern id="stripes-6-3-1" patternUnits="userSpaceOnUse" width="8" height="8"><path d="M3.211652240585383,3.6203517282721367L3.6203517282721367,4.788347759414616L4.788347759414616,4.379648271727864L4.379648271727864,3.2116522405853836" class="fore"></path></pattern><pattern id="stripes-6-3-2" patternUnits="userSpaceOnUse" width="8" height="8"><path d="M2.4233044811707662,3.2407034565442734L3.240703456544273,5.576695518829233L5.576695518829233,4.7592965434557275L4.7592965434557275,2.4233044811707667" class="fore"></path></pattern><pattern id="stripes-6-3-3" patternUnits="userSpaceOnUse" width="8" height="8"><path d="M1.6349567217561498,2.8610551848164096L2.8610551848164096,6.36504327824385L6.36504327824385,5.13894481518359L5.13894481518359,1.6349567217561498" class="fore"></path></pattern><pattern id="stripes-6-3-4" patternUnits="userSpaceOnUse" width="8" height="8"><path d="M0.8466089623415329,2.4814069130885463L2.481406913088546,7.153391037658467L7.153391037658467,5.518593086911454L5.518593086911454,0.8466089623415334" class="fore"></path></pattern><pattern id="stripes-6-3-5" patternUnits="userSpaceOnUse" width="8" height="8"><path d="M0.058261202926916056,2.101758641360683L2.101758641360683,7.941738797073083L7.941738797073083,5.898241358639318L5.898241358639318,0.058261202926916944" class="fore"></path></pattern><pattern id="stripes-6-3-6" patternUnits="userSpaceOnUse" width="8" height="8"><path d="M-0.7300865564877004,1.7221103696328197L1.7221103696328193,8.7300865564877L8.7300865564877,6.277889630367181L6.277889630367181,-0.7300865564877004" class="fore"></path><path d="M-0.7300865564877004,9.72211036963282L1.7221103696328193,16.7300865564877L8.7300865564877,14.27788963036718L6.277889630367181,7.2699134435123" class="fore"></path><path d="M7.2699134435123,1.7221103696328202L9.72211036963282,8.7300865564877L16.7300865564877,6.277889630367182L14.27788963036718,-0.7300865564876999" class="fore"></path><path d="M-0.7300865564876994,-6.277889630367181L1.7221103696328202,0.7300865564877004L8.730086556487702,-1.7221103696328193L6.277889630367182,-8.7300865564877" class="fore"></path><path d="M-8.7300865564877,1.7221103696328182L-6.277889630367181,8.730086556487699L0.7300865564877004,6.277889630367179L-1.7221103696328193,-0.7300865564877018" class="fore"></path></pattern><pattern id="stripes-6-3-7" patternUnits="userSpaceOnUse" width="8" height="8"><path d="M-1.5184343159023177,1.342462097904956L1.342462097904956,9.518434315902317L9.518434315902317,6.6575379020950445L6.657537902095045,-1.5184343159023168" class="fore"></path><path d="M-1.5184343159023177,9.342462097904956L1.342462097904956,17.51843431590232L9.518434315902317,14.657537902095044L6.657537902095045,6.481565684097683" class="fore"></path><path d="M6.481565684097682,1.3424620979049564L9.342462097904956,9.518434315902317L17.51843431590232,6.657537902095045L14.657537902095045,-1.5184343159023164" class="fore"></path><path d="M-1.5184343159023168,-6.657537902095044L1.3424620979049569,1.5184343159023168L9.518434315902319,-1.3424620979049555L6.657537902095046,-9.518434315902317" class="fore"></path><path d="M-9.518434315902319,1.3424620979049544L-6.657537902095044,9.518434315902315L1.5184343159023168,6.657537902095043L-1.3424620979049546,-1.5184343159023184" class="fore"></path></pattern><pattern id="stripes-6-4-0" patternUnits="userSpaceOnUse" width="8" height="8"></pattern><pattern id="stripes-6-4-1" patternUnits="userSpaceOnUse" width="8" height="8"><path d="M3.1741020859801785,3.7110058207892287L3.7110058207892287,4.825897914019822L4.825897914019821,4.288994179210771L4.288994179210771,3.1741020859801785" class="fore"></path></pattern><pattern id="stripes-6-4-2" patternUnits="userSpaceOnUse" width="8" height="8"><path d="M2.348204171960357,3.4220116415784574L3.4220116415784574,5.651795828039643L5.651795828039643,4.577988358421543L4.577988358421543,2.348204171960357" class="fore"></path></pattern><pattern id="stripes-6-4-3" patternUnits="userSpaceOnUse" width="8" height="8"><path d="M1.522306257940535,3.133017462367686L3.133017462367686,6.477693742059465L6.477693742059465,4.866982537632314L4.866982537632314,1.5223062579405355" class="fore"></path></pattern><pattern id="stripes-6-4-4" patternUnits="userSpaceOnUse" width="8" height="8"><path d="M0.6964083439207136,2.8440232831569148L2.8440232831569148,7.303591656079286L7.303591656079286,5.155976716843085L5.155976716843085,0.696408343920714" class="fore"></path></pattern><pattern id="stripes-6-4-5" patternUnits="userSpaceOnUse" width="8" height="8"><path d="M-0.1294895700991079,2.5550291039461435L2.5550291039461435,8.129489570099107L8.129489570099107,5.4449708960538565L5.4449708960538565,-0.1294895700991079" class="fore"></path><path d="M-0.1294895700991079,10.555029103946143L2.5550291039461435,16.129489570099107L8.129489570099107,13.444970896053857L5.4449708960538565,7.870510429900892" class="fore"></path><path d="M7.870510429900892,2.555029103946144L10.555029103946143,8.129489570099107L16.129489570099107,5.444970896053857L13.444970896053857,-0.1294895700991074" class="fore"></path><path d="M-0.12948957009910692,-5.4449708960538565L2.5550291039461444,0.129489570099107L8.129489570099109,-2.5550291039461435L5.444970896053857,-8.129489570099107" class="fore"></path><path d="M-8.129489570099107,2.555029103946142L-5.4449708960538565,8.129489570099105L0.129489570099107,5.444970896053855L-2.5550291039461435,-0.12948957009910936" class="fore"></path></pattern><pattern id="stripes-6-4-6" patternUnits="userSpaceOnUse" width="8" height="8"><path d="M-0.9553874841189298,2.266034924735372L2.266034924735372,8.95538748411893L8.95538748411893,5.733965075264628L5.733965075264629,-0.9553874841189289" class="fore"></path><path d="M-0.9553874841189298,10.266034924735372L2.266034924735372,16.95538748411893L8.95538748411893,13.733965075264628L5.733965075264629,7.044612515881071" class="fore"></path><path d="M7.04461251588107,2.2660349247353726L10.266034924735372,8.95538748411893L16.95538748411893,5.733965075264629L13.733965075264628,-0.9553874841189285" class="fore"></path><path d="M-0.9553874841189288,-5.733965075264628L2.266034924735373,0.9553874841189298L8.955387484118932,-2.266034924735372L5.73396507526463,-8.95538748411893" class="fore"></path><path d="M-8.95538748411893,2.266034924735371L-5.733965075264628,8.955387484118928L0.9553874841189298,5.733965075264626L-2.2660349247353713,-0.9553874841189304" class="fore"></path></pattern><pattern id="stripes-6-4-7" patternUnits="userSpaceOnUse" width="8" height="8"><path d="M-1.7812853981387518,1.9770407455246013L1.9770407455246009,9.781285398138753L9.78128539813875,6.022959254475399L6.0229592544754,-1.7812853981387509" class="fore"></path><path d="M-1.7812853981387518,9.9770407455246L1.9770407455246009,17.781285398138753L9.78128539813875,14.0229592544754L6.0229592544754,6.218714601861249" class="fore"></path><path d="M6.218714601861248,1.9770407455246017L9.9770407455246,9.781285398138753L17.78128539813875,6.0229592544754L14.0229592544754,-1.7812853981387504" class="fore"></path><path d="M-1.7812853981387509,-6.022959254475399L1.9770407455246017,1.7812853981387526L9.781285398138753,-1.9770407455246009L6.022959254475401,-9.78128539813875" class="fore"></path><path d="M-9.781285398138753,1.9770407455245997L-6.022959254475399,9.78128539813875L1.7812853981387509,6.022959254475397L-1.9770407455246,-1.7812853981387524" class="fore"></path></pattern><pattern id="stripes-6-5-0" patternUnits="userSpaceOnUse" width="8" height="8"></pattern><pattern id="stripes-6-5-1" patternUnits="userSpaceOnUse" width="8" height="8"><path d="M3.1469380768409043,3.805294182788225L3.805294182788225,4.853061923159096L4.853061923159096,4.1947058172117755L4.1947058172117755,3.1469380768409043" class="fore"></path></pattern><pattern id="stripes-6-5-2" patternUnits="userSpaceOnUse" width="8" height="8"><path d="M2.2938761536818086,3.61058836557645L3.6105883655764495,5.706123846318191L5.706123846318191,4.389411634423551L4.389411634423551,2.2938761536818086" class="fore"></path></pattern><pattern id="stripes-6-5-3" patternUnits="userSpaceOnUse" width="8" height="8"><path d="M1.440814230522713,3.4158825483646744L3.4158825483646744,6.559185769477287L6.559185769477287,4.584117451635326L4.584117451635326,1.4408142305227134" class="fore"></path></pattern><pattern id="stripes-6-5-4" patternUnits="userSpaceOnUse" width="8" height="8"><path d="M0.5877523073636173,3.2211767311528994L3.2211767311528994,7.412247692636383L7.412247692636383,4.778823268847101L4.778823268847101,0.5877523073636177" class="fore"></path></pattern><pattern id="stripes-6-5-5" patternUnits="userSpaceOnUse" width="8" height="8"><path d="M-0.26530961579547796,3.0264709139411243L3.026470913941124,8.265309615795477L8.265309615795477,4.973529086058877L4.973529086058877,-0.26530961579547796" class="fore"></path><path d="M-0.26530961579547796,11.026470913941125L3.026470913941124,16.265309615795477L8.265309615795477,12.973529086058877L4.973529086058877,7.734690384204522" class="fore"></path><path d="M7.734690384204522,3.0264709139411248L11.026470913941123,8.265309615795477L16.265309615795477,4.9735290860588774L12.973529086058877,-0.26530961579547746" class="fore"></path><path d="M-0.26530961579547696,-4.973529086058876L3.0264709139411248,0.26530961579547707L8.265309615795479,-3.0264709139411234L4.9735290860588774,-8.265309615795477" class="fore"></path><path d="M-8.265309615795477,3.026470913941123L-4.973529086058877,8.265309615795475L0.26530961579547707,4.973529086058875L-3.0264709139411234,-0.2653096157954794" class="fore"></path></pattern><pattern id="stripes-6-5-6" patternUnits="userSpaceOnUse" width="8" height="8"><path d="M-1.118371538954574,2.831765096729349L2.831765096729349,9.118371538954573L9.118371538954573,5.168234903270651L5.168234903270652,-1.1183715389545732" class="fore"></path><path d="M-1.118371538954574,10.831765096729349L2.831765096729349,17.118371538954573L9.118371538954573,13.168234903270651L5.168234903270652,6.881628461045427" class="fore"></path><path d="M6.881628461045426,2.8317650967293493L10.831765096729349,9.118371538954573L17.118371538954573,5.168234903270652L13.168234903270651,-1.1183715389545728" class="fore"></path><path d="M-1.1183715389545732,-5.168234903270651L2.8317650967293497,1.1183715389545732L9.118371538954575,-2.831765096729349L5.168234903270653,-9.118371538954573" class="fore"></path><path d="M-9.118371538954573,2.8317650967293475L-5.168234903270651,9.118371538954571L1.1183715389545732,5.168234903270649L-2.831765096729348,-1.1183715389545748" class="fore"></path></pattern><pattern id="stripes-6-5-7" patternUnits="userSpaceOnUse" width="8" height="8"><path d="M-1.9714334621136693,2.6370592795175742L2.6370592795175734,9.97143346211367L9.97143346211367,5.362940720482427L5.3629407204824275,-1.9714334621136693" class="fore"></path><path d="M-1.9714334621136693,10.637059279517574L2.6370592795175734,17.97143346211367L9.97143346211367,13.362940720482428L5.3629407204824275,6.028566537886331" class="fore"></path><path d="M6.028566537886331,2.6370592795175747L10.637059279517572,9.97143346211367L17.97143346211367,5.3629407204824275L13.362940720482428,-1.9714334621136689" class="fore"></path><path d="M-1.9714334621136684,-5.362940720482426L2.6370592795175742,1.9714334621136693L9.971433462113671,-2.6370592795175734L5.362940720482428,-9.97143346211367" class="fore"></path><path d="M-9.97143346211367,2.637059279517573L-5.362940720482427,9.971433462113668L1.9714334621136693,5.362940720482425L-2.6370592795175725,-1.9714334621136709" class="fore"></path></pattern><pattern id="stripes-6-6-0" patternUnits="userSpaceOnUse" width="8" height="8"></pattern><pattern id="stripes-6-6-1" patternUnits="userSpaceOnUse" width="8" height="8"><path d="M3.1305018163434126,3.9020310834096055L3.9020310834096055,4.869498183656587L4.869498183656587,4.0979689165903945L4.0979689165903945,3.1305018163434126" class="fore"></path></pattern><pattern id="stripes-6-6-2" patternUnits="userSpaceOnUse" width="8" height="8"><path d="M2.2610036326868252,3.804062166819211L3.804062166819211,5.738996367313175L5.738996367313175,4.195937833180789L4.195937833180789,2.2610036326868252" class="fore"></path></pattern><pattern id="stripes-6-6-3" patternUnits="userSpaceOnUse" width="8" height="8"><path d="M1.3915054490302383,3.706093250228817L3.7060932502288164,6.608494550969762L6.608494550969762,4.293906749771184L4.293906749771184,1.3915054490302383" class="fore"></path></pattern><pattern id="stripes-6-6-4" patternUnits="userSpaceOnUse" width="8" height="8"><path d="M0.5220072653736509,3.6081243336384223L3.608124333638422,7.4779927346263495L7.4779927346263495,4.391875666361578L4.391875666361578,0.5220072653736509" class="fore"></path></pattern><pattern id="stripes-6-6-5" patternUnits="userSpaceOnUse" width="8" height="8"><path d="M-0.34749091828293643,3.510155417048028L3.5101554170480274,8.347490918282936L8.347490918282936,4.489844582951973L4.489844582951973,-0.34749091828293643" class="fore"></path><path d="M-0.34749091828293643,11.510155417048027L3.5101554170480274,16.347490918282936L8.347490918282936,12.489844582951973L4.489844582951973,7.652509081717064" class="fore"></path><path d="M7.652509081717064,3.5101554170480282L11.510155417048027,8.347490918282936L16.347490918282936,4.4898445829519735L12.489844582951973,-0.34749091828293593" class="fore"></path><path d="M-0.34749091828293543,-4.489844582951973L3.5101554170480282,0.34749091828293643L8.347490918282938,-3.5101554170480274L4.4898445829519735,-8.347490918282936" class="fore"></path><path d="M-8.347490918282936,3.5101554170480265L-4.489844582951973,8.347490918282935L0.34749091828293643,4.489844582951971L-3.5101554170480274,-0.3474909182829379" class="fore"></path></pattern><pattern id="stripes-6-6-6" patternUnits="userSpaceOnUse" width="8" height="8"><path d="M-1.2169891019395234,3.4121865004576337L3.412186500457633,9.216989101939523L9.216989101939523,4.587813499542367L4.587813499542367,-1.2169891019395234" class="fore"></path><path d="M-1.2169891019395234,11.412186500457633L3.412186500457633,17.216989101939525L9.216989101939523,12.587813499542367L4.587813499542367,6.783010898060477" class="fore"></path><path d="M6.783010898060477,3.412186500457634L11.412186500457633,9.216989101939523L17.216989101939525,4.587813499542368L12.587813499542367,-1.216989101939523" class="fore"></path><path d="M-1.2169891019395225,-4.587813499542366L3.4121865004576337,1.2169891019395234L9.216989101939525,-3.412186500457633L4.587813499542368,-9.216989101939523" class="fore"></path><path d="M-9.216989101939523,3.4121865004576324L-4.587813499542367,9.216989101939522L1.2169891019395234,4.587813499542365L-3.412186500457633,-1.216989101939525" class="fore"></path></pattern><pattern id="stripes-6-6-7" patternUnits="userSpaceOnUse" width="8" height="8"><path d="M-2.086487285596111,3.314217583867239L3.3142175838672387,10.08648728559611L10.08648728559611,4.685782416132762L4.685782416132762,-2.086487285596111" class="fore"></path><path d="M-2.086487285596111,11.31421758386724L3.3142175838672387,18.08648728559611L10.08648728559611,12.685782416132762L4.685782416132762,5.913512714403889" class="fore"></path><path d="M5.913512714403889,3.3142175838672396L11.314217583867238,10.08648728559611L18.08648728559611,4.685782416132763L12.685782416132762,-2.0864872855961107" class="fore"></path><path d="M-2.0864872855961103,-4.685782416132761L3.3142175838672396,2.0864872855961103L10.086487285596112,-3.3142175838672383L4.685782416132763,-10.08648728559611" class="fore"></path><path d="M-10.08648728559611,3.314217583867238L-4.685782416132762,10.086487285596109L2.0864872855961103,4.68578241613276L-3.3142175838672383,-2.0864872855961125" class="fore"></path></pattern><pattern id="stripes-6-7-0" patternUnits="userSpaceOnUse" width="8" height="8"></pattern><pattern id="stripes-6-7-1" patternUnits="userSpaceOnUse" width="8" height="8"><path d="M3.125,4L4,4.875L4.875,4L4,3.125" class="fore"></path></pattern><pattern id="stripes-6-7-2" patternUnits="userSpaceOnUse" width="8" height="8"><path d="M2.25,4L4,5.75L5.75,4L4,2.25" class="fore"></path></pattern><pattern id="stripes-6-7-3" patternUnits="userSpaceOnUse" width="8" height="8"><path d="M1.375,4L3.9999999999999996,6.625L6.625,4.000000000000001L4.000000000000001,1.375" class="fore"></path></pattern><pattern id="stripes-6-7-4" patternUnits="userSpaceOnUse" width="8" height="8"><path d="M0.5,4L3.9999999999999996,7.5L7.5,4.000000000000001L4.000000000000001,0.5" class="fore"></path></pattern><pattern id="stripes-6-7-5" patternUnits="userSpaceOnUse" width="8" height="8"><path d="M-0.375,3.9999999999999996L3.9999999999999996,8.375L8.375,4.000000000000001L4.000000000000001,-0.375" class="fore"></path><path d="M-0.375,12L3.9999999999999996,16.375L8.375,12L4.000000000000001,7.625" class="fore"></path><path d="M7.625,4L12,8.375L16.375,4.000000000000002L12,-0.3749999999999995" class="fore"></path><path d="M-0.374999999999999,-4L4.000000000000001,0.375L8.375000000000002,-3.999999999999999L4.000000000000002,-8.375" class="fore"></path><path d="M-8.375,3.9999999999999982L-4,8.374999999999998L0.375,3.9999999999999996L-3.999999999999999,-0.37500000000000144" class="fore"></path></pattern><pattern id="stripes-6-7-6" patternUnits="userSpaceOnUse" width="8" height="8"><path d="M-1.25,3.9999999999999996L3.9999999999999996,9.25L9.25,4.000000000000001L4.000000000000001,-1.25" class="fore"></path><path d="M-1.25,12L3.9999999999999996,17.25L9.25,12L4.000000000000001,6.75" class="fore"></path><path d="M6.75,4L12,9.25L17.25,4.000000000000002L12,-1.2499999999999996" class="fore"></path><path d="M-1.2499999999999991,-4L4.000000000000001,1.25L9.250000000000002,-3.999999999999999L4.000000000000002,-9.25" class="fore"></path><path d="M-9.25,3.9999999999999982L-4,9.249999999999998L1.25,3.9999999999999996L-3.999999999999999,-1.2500000000000016" class="fore"></path></pattern><pattern id="stripes-6-7-7" patternUnits="userSpaceOnUse" width="8" height="8"><path d="M-2.125,3.9999999999999996L3.999999999999999,10.125L10.125,4.000000000000001L4.000000000000002,-2.125" class="fore"></path><path d="M-2.125,12L3.999999999999999,18.125L10.125,12L4.000000000000002,5.875" class="fore"></path><path d="M5.875,4L12,10.125L18.125,4.000000000000002L12.000000000000002,-2.1249999999999996" class="fore"></path><path d="M-2.124999999999999,-4L4,2.125L10.125000000000002,-3.999999999999999L4.000000000000003,-10.125" class="fore"></path><path d="M-10.125,3.9999999999999982L-4.000000000000001,10.124999999999998L2.125,3.9999999999999996L-3.9999999999999982,-2.1250000000000013" class="fore"></path></pattern></defs><g fill-rule="evenodd"><path d="M-32.1,-32.1L32.1,-32.1L32.1,32.1L-32.1,32.1Z" transform="translate(96,96)" fill="url(#stripes-6-0-0)"></path><path d="M-32.1,-32.1L32.1,-32.1L32.1,32.1L-32.1,32.1Z" transform="translate(96,160)" fill="url(#stripes-6-0-1)"></path><path d="M-32.1,-32.1L32.1,-32.1L32.1,32.1L-32.1,32.1Z" transform="translate(96,224)" fill="url(#stripes-6-0-2)"></path><path d="M-32.1,-32.1L32.1,-32.1L32.1,32.1L-32.1,32.1Z" transform="translate(96,288)" fill="url(#stripes-6-0-3)"></path><path d="M-32.1,-32.1L32.1,-32.1L32.1,32.1L-32.1,32.1Z" transform="translate(96,352)" fill="url(#stripes-6-0-4)"></path><path d="M-32.1,-32.1L32.1,-32.1L32.1,32.1L-32.1,32.1Z" transform="translate(96,416)" fill="url(#stripes-6-0-5)"></path><path d="M-32.1,-32.1L32.1,-32.1L32.1,32.1L-32.1,32.1Z" transform="translate(96,480)" fill="url(#stripes-6-0-6)"></path><path d="M-32.1,-32.1L32.1,-32.1L32.1,32.1L-32.1,32.1Z" transform="translate(96,544)" fill="url(#stripes-6-0-7)"></path><path d="M-32.1,-32.1L32.1,-32.1L32.1,32.1L-32.1,32.1Z" transform="translate(160,96)" fill="url(#stripes-6-1-0)"></path><path d="M-32.1,-32.1L32.1,-32.1L32.1,32.1L-32.1,32.1Z" transform="translate(160,160)" fill="url(#stripes-6-1-1)"></path><path d="M-32.1,-32.1L32.1,-32.1L32.1,32.1L-32.1,32.1Z" transform="translate(160,224)" fill="url(#stripes-6-1-2)"></path><path d="M-32.1,-32.1L32.1,-32.1L32.1,32.1L-32.1,32.1Z" transform="translate(160,288)" fill="url(#stripes-6-1-3)"></path><path d="M-32.1,-32.1L32.1,-32.1L32.1,32.1L-32.1,32.1Z" transform="translate(160,352)" fill="url(#stripes-6-1-4)"></path><path d="M-32.1,-32.1L32.1,-32.1L32.1,32.1L-32.1,32.1Z" transform="translate(160,416)" fill="url(#stripes-6-1-5)"></path><path d="M-32.1,-32.1L32.1,-32.1L32.1,32.1L-32.1,32.1Z" transform="translate(160,480)" fill="url(#stripes-6-1-6)"></path><path d="M-32.1,-32.1L32.1,-32.1L32.1,32.1L-32.1,32.1Z" transform="translate(160,544)" fill="url(#stripes-6-1-7)"></path><path d="M-32.1,-32.1L32.1,-32.1L32.1,32.1L-32.1,32.1Z" transform="translate(224,96)" fill="url(#stripes-6-2-0)"></path><path d="M-32.1,-32.1L32.1,-32.1L32.1,32.1L-32.1,32.1Z" transform="translate(224,160)" fill="url(#stripes-6-2-1)"></path><path d="M-32.1,-32.1L32.1,-32.1L32.1,32.1L-32.1,32.1Z" transform="translate(224,224)" fill="url(#stripes-6-2-2)"></path><path d="M-32.1,-32.1L32.1,-32.1L32.1,32.1L-32.1,32.1Z" transform="translate(224,288)" fill="url(#stripes-6-2-3)"></path><path d="M-32.1,-32.1L32.1,-32.1L32.1,32.1L-32.1,32.1Z" transform="translate(224,352)" fill="url(#stripes-6-2-4)"></path><path d="M-32.1,-32.1L32.1,-32.1L32.1,32.1L-32.1,32.1Z" transform="translate(224,416)" fill="url(#stripes-6-2-5)"></path><path d="M-32.1,-32.1L32.1,-32.1L32.1,32.1L-32.1,32.1Z" transform="translate(224,480)" fill="url(#stripes-6-2-6)"></path><path d="M-32.1,-32.1L32.1,-32.1L32.1,32.1L-32.1,32.1Z" transform="translate(224,544)" fill="url(#stripes-6-2-7)"></path><path d="M-32.1,-32.1L32.1,-32.1L32.1,32.1L-32.1,32.1Z" transform="translate(288,96)" fill="url(#stripes-6-3-0)"></path><path d="M-32.1,-32.1L32.1,-32.1L32.1,32.1L-32.1,32.1Z" transform="translate(288,160)" fill="url(#stripes-6-3-1)"></path><path d="M-32.1,-32.1L32.1,-32.1L32.1,32.1L-32.1,32.1Z" transform="translate(288,224)" fill="url(#stripes-6-3-2)"></path><path d="M-32.1,-32.1L32.1,-32.1L32.1,32.1L-32.1,32.1Z" transform="translate(288,288)" fill="url(#stripes-6-3-3)"></path><path d="M-32.1,-32.1L32.1,-32.1L32.1,32.1L-32.1,32.1Z" transform="translate(288,352)" fill="url(#stripes-6-3-4)"></path><path d="M-32.1,-32.1L32.1,-32.1L32.1,32.1L-32.1,32.1Z" transform="translate(288,416)" fill="url(#stripes-6-3-5)"></path><path d="M-32.1,-32.1L32.1,-32.1L32.1,32.1L-32.1,32.1Z" transform="translate(288,480)" fill="url(#stripes-6-3-6)"></path><path d="M-32.1,-32.1L32.1,-32.1L32.1,32.1L-32.1,32.1Z" transform="translate(288,544)" fill="url(#stripes-6-3-7)"></path><path d="M-32.1,-32.1L32.1,-32.1L32.1,32.1L-32.1,32.1Z" transform="translate(352,96)" fill="url(#stripes-6-4-0)"></path><path d="M-32.1,-32.1L32.1,-32.1L32.1,32.1L-32.1,32.1Z" transform="translate(352,160)" fill="url(#stripes-6-4-1)"></path><path d="M-32.1,-32.1L32.1,-32.1L32.1,32.1L-32.1,32.1Z" transform="translate(352,224)" fill="url(#stripes-6-4-2)"></path><path d="M-32.1,-32.1L32.1,-32.1L32.1,32.1L-32.1,32.1Z" transform="translate(352,288)" fill="url(#stripes-6-4-3)"></path><path d="M-32.1,-32.1L32.1,-32.1L32.1,32.1L-32.1,32.1Z" transform="translate(352,352)" fill="url(#stripes-6-4-4)"></path><path d="M-32.1,-32.1L32.1,-32.1L32.1,32.1L-32.1,32.1Z" transform="translate(352,416)" fill="url(#stripes-6-4-5)"></path><path d="M-32.1,-32.1L32.1,-32.1L32.1,32.1L-32.1,32.1Z" transform="translate(352,480)" fill="url(#stripes-6-4-6)"></path><path d="M-32.1,-32.1L32.1,-32.1L32.1,32.1L-32.1,32.1Z" transform="translate(352,544)" fill="url(#stripes-6-4-7)"></path><path d="M-32.1,-32.1L32.1,-32.1L32.1,32.1L-32.1,32.1Z" transform="translate(416,96)" fill="url(#stripes-6-5-0)"></path><path d="M-32.1,-32.1L32.1,-32.1L32.1,32.1L-32.1,32.1Z" transform="translate(416,160)" fill="url(#stripes-6-5-1)"></path><path d="M-32.1,-32.1L32.1,-32.1L32.1,32.1L-32.1,32.1Z" transform="translate(416,224)" fill="url(#stripes-6-5-2)"></path><path d="M-32.1,-32.1L32.1,-32.1L32.1,32.1L-32.1,32.1Z" transform="translate(416,288)" fill="url(#stripes-6-5-3)"></path><path d="M-32.1,-32.1L32.1,-32.1L32.1,32.1L-32.1,32.1Z" transform="translate(416,352)" fill="url(#stripes-6-5-4)"></path><path d="M-32.1,-32.1L32.1,-32.1L32.1,32.1L-32.1,32.1Z" transform="translate(416,416)" fill="url(#stripes-6-5-5)"></path><path d="M-32.1,-32.1L32.1,-32.1L32.1,32.1L-32.1,32.1Z" transform="translate(416,480)" fill="url(#stripes-6-5-6)"></path><path d="M-32.1,-32.1L32.1,-32.1L32.1,32.1L-32.1,32.1Z" transform="translate(416,544)" fill="url(#stripes-6-5-7)"></path><path d="M-32.1,-32.1L32.1,-32.1L32.1,32.1L-32.1,32.1Z" transform="translate(480,96)" fill="url(#stripes-6-6-0)"></path><path d="M-32.1,-32.1L32.1,-32.1L32.1,32.1L-32.1,32.1Z" transform="translate(480,160)" fill="url(#stripes-6-6-1)"></path><path d="M-32.1,-32.1L32.1,-32.1L32.1,32.1L-32.1,32.1Z" transform="translate(480,224)" fill="url(#stripes-6-6-2)"></path><path d="M-32.1,-32.1L32.1,-32.1L32.1,32.1L-32.1,32.1Z" transform="translate(480,288)" fill="url(#stripes-6-6-3)"></path><path d="M-32.1,-32.1L32.1,-32.1L32.1,32.1L-32.1,32.1Z" transform="translate(480,352)" fill="url(#stripes-6-6-4)"></path><path d="M-32.1,-32.1L32.1,-32.1L32.1,32.1L-32.1,32.1Z" transform="translate(480,416)" fill="url(#stripes-6-6-5)"></path><path d="M-32.1,-32.1L32.1,-32.1L32.1,32.1L-32.1,32.1Z" transform="translate(480,480)" fill="url(#stripes-6-6-6)"></path><path d="M-32.1,-32.1L32.1,-32.1L32.1,32.1L-32.1,32.1Z" transform="translate(480,544)" fill="url(#stripes-6-6-7)"></path><path d="M-32.1,-32.1L32.1,-32.1L32.1,32.1L-32.1,32.1Z" transform="translate(544,96)" fill="url(#stripes-6-7-0)"></path><path d="M-32.1,-32.1L32.1,-32.1L32.1,32.1L-32.1,32.1Z" transform="translate(544,160)" fill="url(#stripes-6-7-1)"></path><path d="M-32.1,-32.1L32.1,-32.1L32.1,32.1L-32.1,32.1Z" transform="translate(544,224)" fill="url(#stripes-6-7-2)"></path><path d="M-32.1,-32.1L32.1,-32.1L32.1,32.1L-32.1,32.1Z" transform="translate(544,288)" fill="url(#stripes-6-7-3)"></path><path d="M-32.1,-32.1L32.1,-32.1L32.1,32.1L-32.1,32.1Z" transform="translate(544,352)" fill="url(#stripes-6-7-4)"></path><path d="M-32.1,-32.1L32.1,-32.1L32.1,32.1L-32.1,32.1Z" transform="translate(544,416)" fill="url(#stripes-6-7-5)"></path><path d="M-32.1,-32.1L32.1,-32.1L32.1,32.1L-32.1,32.1Z" transform="translate(544,480)" fill="url(#stripes-6-7-6)"></path><path d="M-32.1,-32.1L32.1,-32.1L32.1,32.1L-32.1,32.1Z" transform="translate(544,544)" fill="url(#stripes-6-7-7)"></path></g></svg>