<svg xmlns="http://www.w3.org/2000/svg" viewBox="0 0 640 640" viewport-fill="#000" label="_shape #86 gradient #7"><defs><style type="text/css">
.f-0 { fill: #000;  }
.f-1 { fill: #101010;  }
.f-2 { fill: #202020;  }
.f-3 { fill: #303030;  }
.f-4 { fill: #404040;  }
.f-5 { fill: #505050;  }
.f-6 { fill: #606060;  }
.f-7 { fill: #707070;  }
.f-8 { fill: #808080;  }
.f-9 { fill: #909090;  }
.f-10 { fill: #a0a0a0;  }
.f-11 { fill: #b0b0b0;  }
.f-12 { fill: #c0c0c0;  }
.f-13 { fill: #d0d0d0;  }
.f-14 { fill: #e0e0e0;  }
.f-15 { fill: #f0f0f0;  }
.bgc { fill: #101010;  }
.fore { fill: #404040; stroke-color: #404040; sroke-width: 0;  }
text{ font-family: Freemono, Sans, Arial; } 
</style></defs><g fill-rule="evenodd"><path d="M-40.1,-40.1L40.1,-40.1L40.1,40.1L-40.1,40.1Z" transform="translate(40,40)" class="f-2"></path><path d="M-40.1,-40.1L40.1,-40.1L40.1,40.1L-40.1,40.1Z" transform="translate(40,120)" class="f-3"></path><path d="M-40.1,-40.1L40.1,-40.1L40.1,40.1L-40.1,40.1Z" transform="translate(40,200)" class="f-4"></path><path d="M-40.1,-40.1L40.1,-40.1L40.1,40.1L-40.1,40.1Z" transform="translate(40,280)" class="f-5"></path><path d="M-40.1,-40.1L40.1,-40.1L40.1,40.1L-40.1,40.1Z" transform="translate(40,360)" class="f-6"></path><path d="M-40.1,-40.1L40.1,-40.1L40.1,40.1L-40.1,40.1Z" transform="translate(40,440)" class="f-7"></path><path d="M-40.1,-40.1L40.1,-40.1L40.1,40.1L-40.1,40.1Z" transform="translate(40,520)" class="f-8"></path><path d="M-40.1,-40.1L40.1,-40.1L40.1,40.1L-40.1,40.1Z" transform="translate(40,600)" class="f-9"></path><path d="M-40.1,-40.1L40.1,-40.1L40.1,40.1L-40.1,40.1Z" transform="translate(120,40)" class="f-3"></path><path d="M-40.1,-40.1L40.1,-40.1L40.1,40.1L-40.1,40.1Z" transform="translate(120,120)" class="f-4"></path><path d="M-40.1,-40.1L40.1,-40.1L40.1,40.1L-40.1,40.1Z" transform="translate(120,200)" class="f-5"></path><path d="M-40.1,-40.1L40.1,-40.1L40.1,40.1L-40.1,40.1Z" transform="translate(120,280)" class="f-6"></path><path d="M-40.1,-40.1L40.1,-40.1L40.1,40.1L-40.1,40.1Z" transform="translate(120,360)" class="f-7"></path><path d="M-40.1,-40.1L40.1,-40.1L40.1,40.1L-40.1,40.1Z" transform="translate(120,440)" class="f-8"></path><path d="M-40.1,-40.1L40.1,-40.1L40.1,40.1L-40.1,40.1Z" transform="translate(120,520)" class="f-9"></path><path d="M-40.1,-40.1L40.1,-40.1L40.1,40.1L-40.1,40.1Z" transform="translate(120,600)" class="f-10"></path><path d="M-40.1,-40.1L40.1,-40.1L40.1,40.1L-40.1,40.1Z" transform="translate(200,40)" class="f-4"></path><path d="M-40.1,-40.1L40.1,-40.1L40.1,40.1L-40.1,40.1Z" transform="translate(200,120)" class="f-5"></path><path d="M-40.1,-40.1L40.1,-40.1L40.1,40.1L-40.1,40.1Z" transform="translate(200,200)" class="f-6"></path><path d="M-40.1,-40.1L40.1,-40.1L40.1,40.1L-40.1,40.1Z" transform="translate(200,280)" class="f-7"></path><path d="M-40.1,-40.1L40.1,-40.1L40.1,40.1L-40.1,40.1Z" transform="translate(200,360)" class="f-8"></path><path d="M-40.1,-40.1L40.1,-40.1L40.1,40.1L-40.1,40.1Z" transform="translate(200,440)" class="f-9"></path><path d="M-40.1,-40.1L40.1,-40.1L40.1,40.1L-40.1,40.1Z" transform="translate(200,520)" class="f-10"></path><path d="M-40.1,-40.1L40.1,-40.1L40.1,40.1L-40.1,40.1Z" transform="translate(200,600)" class="f-11"></path><path d="M-40.1,-40.1L40.1,-40.1L40.1,40.1L-40.1,40.1Z" transform="translate(280,40)" class="f-5"></path><path d="M-40.1,-40.1L40.1,-40.1L40.1,40.1L-40.1,40.1Z" transform="translate(280,120)" class="f-6"></path><path d="M-40.1,-40.1L40.1,-40.1L40.1,40.1L-40.1,40.1Z" transform="translate(280,200)" class="f-7"></path><path d="M-40.1,-40.1L40.1,-40.1L40.1,40.1L-40.1,40.1Z" transform="translate(280,280)" class="f-8"></path><path d="M-40.1,-40.1L40.1,-40.1L40.1,40.1L-40.1,40.1Z" transform="translate(280,360)" class="f-9"></path><path d="M-40.1,-40.1L40.1,-40.1L40.1,40.1L-40.1,40.1Z" transform="translate(280,440)" class="f-10"></path><path d="M-40.1,-40.1L40.1,-40.1L40.1,40.1L-40.1,40.1Z" transform="translate(280,520)" class="f-11"></path><path d="M-40.1,-40.1L40.1,-40.1L40.1,40.1L-40.1,40.1Z" transform="translate(280,600)" class="f-12"></path><path d="M-40.1,-40.1L40.1,-40.1L40.1,40.1L-40.1,40.1Z" transform="translate(360,40)" class="f-6"></path><path d="M-40.1,-40.1L40.1,-40.1L40.1,40.1L-40.1,40.1Z" transform="translate(360,120)" class="f-7"></path><path d="M-40.1,-40.1L40.1,-40.1L40.1,40.1L-40.1,40.1Z" transform="translate(360,200)" class="f-8"></path><path d="M-40.1,-40.1L40.1,-40.1L40.1,40.1L-40.1,40.1Z" transform="translate(360,280)" class="f-9"></path><path d="M-40.1,-40.1L40.1,-40.1L40.1,40.1L-40.1,40.1Z" transform="translate(360,360)" class="f-10"></path><path d="M-40.1,-40.1L40.1,-40.1L40.1,40.1L-40.1,40.1Z" transform="translate(360,440)" class="f-11"></path><path d="M-40.1,-40.1L40.1,-40.1L40.1,40.1L-40.1,40.1Z" transform="translate(360,520)" class="f-12"></path><path d="M-40.1,-40.1L40.1,-40.1L40.1,40.1L-40.1,40.1Z" transform="translate(360,600)" class="f-13"></path><path d="M-40.1,-40.1L40.1,-40.1L40.1,40.1L-40.1,40.1Z" transform="translate(440,40)" class="f-7"></path><path d="M-40.1,-40.1L40.1,-40.1L40.1,40.1L-40.1,40.1Z" transform="translate(440,120)" class="f-8"></path><path d="M-40.1,-40.1L40.1,-40.1L40.1,40.1L-40.1,40.1Z" transform="translate(440,200)" class="f-9"></path><path d="M-40.1,-40.1L40.1,-40.1L40.1,40.1L-40.1,40.1Z" transform="translate(440,280)" class="f-10"></path><path d="M-40.1,-40.1L40.1,-40.1L40.1,40.1L-40.1,40.1Z" transform="translate(440,360)" class="f-11"></path><path d="M-40.1,-40.1L40.1,-40.1L40.1,40.1L-40.1,40.1Z" transform="translate(440,440)" class="f-12"></path><path d="M-40.1,-40.1L40.1,-40.1L40.1,40.1L-40.1,40.1Z" transform="translate(440,520)" class="f-13"></path><path d="M-40.1,-40.1L40.1,-40.1L40.1,40.1L-40.1,40.1Z" transform="translate(440,600)" class="f-14"></path><path d="M-40.1,-40.1L40.1,-40.1L40.1,40.1L-40.1,40.1Z" transform="translate(520,40)" class="f-8"></path><path d="M-40.1,-40.1L40.1,-40.1L40.1,40.1L-40.1,40.1Z" transform="translate(520,120)" class="f-9"></path><path d="M-40.1,-40.1L40.1,-40.1L40.1,40.1L-40.1,40.1Z" transform="translate(520,200)" class="f-10"></path><path d="M-40.1,-40.1L40.1,-40.1L40.1,40.1L-40.1,40.1Z" transform="translate(520,280)" class="f-11"></path><path d="M-40.1,-40.1L40.1,-40.1L40.1,40.1L-40.1,40.1Z" transform="translate(520,360)" class="f-12"></path><path d="M-40.1,-40.1L40.1,-40.1L40.1,40.1L-40.1,40.1Z" transform="translate(520,440)" class="f-13"></path><path d="M-40.1,-40.1L40.1,-40.1L40.1,40.1L-40.1,40.1Z" transform="translate(520,520)" class="f-14"></path><path d="M-40.1,-40.1L40.1,-40.1L40.1,40.1L-40.1,40.1Z" transform="translate(520,600)" class="f-15"></path><path d="M-40.1,-40.1L40.1,-40.1L40.1,40.1L-40.1,40.1Z" transform="translate(600,40)" class="f-9"></path><path d="M-40.1,-40.1L40.1,-40.1L40.1,40.1L-40.1,40.1Z" transform="translate(600,120)" class="f-10"></path><path d="M-40.1,-40.1L40.1,-40.1L40.1,40.1L-40.1,40.1Z" transform="translate(600,200)" class="f-11"></path><path d="M-40.1,-40.1L40.1,-40.1L40.1,40.1L-40.1,40.1Z" transform="translate(600,280)" class="f-12"></path><path d="M-40.1,-40.1L40.1,-40.1L40.1,40.1L-40.1,40.1Z" transform="translate(600,360)" class="f-13"></path><path d="M-40.1,-40.1L40.1,-40.1L40.1,40.1L-40.1,40.1Z" transform="translate(600,440)" class="f-14"></path><path d="M-40.1,-40.1L40.1,-40.1L40.1,40.1L-40.1,40.1Z" transform="translate(600,520)" class="f-15"></path><path d="M-40.1,-40.1L40.1,-40.1L40.1,40.1L-40.1,40.1Z" transform="translate(600,600)" class="f-15"></path></g></svg>