<svg xmlns="http://www.w3.org/2000/svg" viewBox="0 0 640 640" viewport-fill="#000" label="_shape #86 gradient #7"><defs><style type="text/css">
.f-0 { fill: #000;  }
.f-1 { fill: #101010;  }
.f-2 { fill: #202020;  }
.f-3 { fill: #303030;  }
.f-4 { fill: #404040;  }
.f-5 { fill: #505050;  }
.f-6 { fill: #606060;  }
.f-7 { fill: #707070;  }
.f-8 { fill: #808080;  }
.f-9 { fill: #909090;  }
.f-10 { fill: #a0a0a0;  }
.f-11 { fill: #b0b0b0;  }
.f-12 { fill: #c0c0c0;  }
.f-13 { fill: #d0d0d0;  }
.f-14 { fill: #e0e0e0;  }
.f-15 { fill: #f0f0f0;  }
.bgc { fill: #101010;  }
.fore { fill: #404040; stroke-color: #404040; sroke-width: 0;  }
text{ font-family: Freemono, Sans, Arial; } 
</style></defs><g fill-rule="evenodd"><path d="M-32.1,-32.1L32.1,-32.1L32.1,32.1L-32.1,32.1Z" transform="translate(96,96)" class="f-2"></path><path d="M-32.1,-32.1L32.1,-32.1L32.1,32.1L-32.1,32.1Z" transform="translate(96,160)" class="f-3"></path><path d="M-32.1,-32.1L32.1,-32.1L32.1,32.1L-32.1,32.1Z" transform="translate(96,224)" class="f-4"></path><path d="M-32.1,-32.1L32.1,-32.1L32.1,32.1L-32.1,32.1Z" transform="translate(96,288)" class="f-5"></path><path d="M-32.1,-32.1L32.1,-32.1L32.1,32.1L-32.1,32.1Z" transform="translate(96,352)" class="f-6"></path><path d="M-32.1,-32.1L32.1,-32.1L32.1,32.1L-32.1,32.1Z" transform="translate(96,416)" class="f-7"></path><path d="M-32.1,-32.1L32.1,-32.1L32.1,32.1L-32.1,32.1Z" transform="translate(96,480)" class="f-8"></path><path d="M-32.1,-32.1L32.1,-32.1L32.1,32.1L-32.1,32.1Z" transform="translate(96,544)" class="f-9"></path><path d="M-32.1,-32.1L32.1,-32.1L32.1,32.1L-32.1,32.1Z" transform="translate(160,96)" class="f-3"></path><path d="M-32.1,-32.1L32.1,-32.1L32.1,32.1L-32.1,32.1Z" transform="translate(160,160)" class="f-4"></path><path d="M-32.1,-32.1L32.1,-32.1L32.1,32.1L-32.1,32.1Z" transform="translate(160,224)" class="f-5"></path><path d="M-32.1,-32.1L32.1,-32.1L32.1,32.1L-32.1,32.1Z" transform="translate(160,288)" class="f-6"></path><path d="M-32.1,-32.1L32.1,-32.1L32.1,32.1L-32.1,32.1Z" transform="translate(160,352)" class="f-7"></path><path d="M-32.1,-32.1L32.1,-32.1L32.1,32.1L-32.1,32.1Z" transform="translate(160,416)" class="f-8"></path><path d="M-32.1,-32.1L32.1,-32.1L32.1,32.1L-32.1,32.1Z" transform="translate(160,480)" class="f-9"></path><path d="M-32.1,-32.1L32.1,-32.1L32.1,32.1L-32.1,32.1Z" transform="translate(160,544)" class="f-10"></path><path d="M-32.1,-32.1L32.1,-32.1L32.1,32.1L-32.1,32.1Z" transform="translate(224,96)" class="f-4"></path><path d="M-32.1,-32.1L32.1,-32.1L32.1,32.1L-32.1,32.1Z" transform="translate(224,160)" class="f-5"></path><path d="M-32.1,-32.1L32.1,-32.1L32.1,32.1L-32.1,32.1Z" transform="translate(224,224)" class="f-6"></path><path d="M-32.1,-32.1L32.1,-32.1L32.1,32.1L-32.1,32.1Z" transform="translate(224,288)" class="f-7"></path><path d="M-32.1,-32.1L32.1,-32.1L32.1,32.1L-32.1,32.1Z" transform="translate(224,352)" class="f-8"></path><path d="M-32.1,-32.1L32.1,-32.1L32.1,32.1L-32.1,32.1Z" transform="translate(224,416)" class="f-9"></path><path d="M-32.1,-32.1L32.1,-32.1L32.1,32.1L-32.1,32.1Z" transform="translate(224,480)" class="f-10"></path><path d="M-32.1,-32.1L32.1,-32.1L32.1,32.1L-32.1,32.1Z" transform="translate(224,544)" class="f-11"></path><path d="M-32.1,-32.1L32.1,-32.1L32.1,32.1L-32.1,32.1Z" transform="translate(288,96)" class="f-5"></path><path d="M-32.1,-32.1L32.1,-32.1L32.1,32.1L-32.1,32.1Z" transform="translate(288,160)" class="f-6"></path><path d="M-32.1,-32.1L32.1,-32.1L32.1,32.1L-32.1,32.1Z" transform="translate(288,224)" class="f-7"></path><path d="M-32.1,-32.1L32.1,-32.1L32.1,32.1L-32.1,32.1Z" transform="translate(288,288)" class="f-8"></path><path d="M-32.1,-32.1L32.1,-32.1L32.1,32.1L-32.1,32.1Z" transform="translate(288,352)" class="f-9"></path><path d="M-32.1,-32.1L32.1,-32.1L32.1,32.1L-32.1,32.1Z" transform="translate(288,416)" class="f-10"></path><path d="M-32.1,-32.1L32.1,-32.1L32.1,32.1L-32.1,32.1Z" transform="translate(288,480)" class="f-11"></path><path d="M-32.1,-32.1L32.1,-32.1L32.1,32.1L-32.1,32.1Z" transform="translate(288,544)" class="f-12"></path><path d="M-32.1,-32.1L32.1,-32.1L32.1,32.1L-32.1,32.1Z" transform="translate(352,96)" class="f-6"></path><path d="M-32.1,-32.1L32.1,-32.1L32.1,32.1L-32.1,32.1Z" transform="translate(352,160)" class="f-7"></path><path d="M-32.1,-32.1L32.1,-32.1L32.1,32.1L-32.1,32.1Z" transform="translate(352,224)" class="f-8"></path><path d="M-32.1,-32.1L32.1,-32.1L32.1,32.1L-32.1,32.1Z" transform="translate(352,288)" class="f-9"></path><path d="M-32.1,-32.1L32.1,-32.1L32.1,32.1L-32.1,32.1Z" transform="translate(352,352)" class="f-10"></path><path d="M-32.1,-32.1L32.1,-32.1L32.1,32.1L-32.1,32.1Z" transform="translate(352,416)" class="f-11"></path><path d="M-32.1,-32.1L32.1,-32.1L32.1,32.1L-32.1,32.1Z" transform="translate(352,480)" class="f-12"></path><path d="M-32.1,-32.1L32.1,-32.1L32.1,32.1L-32.1,32.1Z" transform="translate(352,544)" class="f-13"></path><path d="M-32.1,-32.1L32.1,-32.1L32.1,32.1L-32.1,32.1Z" transform="translate(416,96)" class="f-7"></path><path d="M-32.1,-32.1L32.1,-32.1L32.1,32.1L-32.1,32.1Z" transform="translate(416,160)" class="f-8"></path><path d="M-32.1,-32.1L32.1,-32.1L32.1,32.1L-32.1,32.1Z" transform="translate(416,224)" class="f-9"></path><path d="M-32.1,-32.1L32.1,-32.1L32.1,32.1L-32.1,32.1Z" transform="translate(416,288)" class="f-10"></path><path d="M-32.1,-32.1L32.1,-32.1L32.1,32.1L-32.1,32.1Z" transform="translate(416,352)" class="f-11"></path><path d="M-32.1,-32.1L32.1,-32.1L32.1,32.1L-32.1,32.1Z" transform="translate(416,416)" class="f-12"></path><path d="M-32.1,-32.1L32.1,-32.1L32.1,32.1L-32.1,32.1Z" transform="translate(416,480)" class="f-13"></path><path d="M-32.1,-32.1L32.1,-32.1L32.1,32.1L-32.1,32.1Z" transform="translate(416,544)" class="f-14"></path><path d="M-32.1,-32.1L32.1,-32.1L32.1,32.1L-32.1,32.1Z" transform="translate(480,96)" class="f-8"></path><path d="M-32.1,-32.1L32.1,-32.1L32.1,32.1L-32.1,32.1Z" transform="translate(480,160)" class="f-9"></path><path d="M-32.1,-32.1L32.1,-32.1L32.1,32.1L-32.1,32.1Z" transform="translate(480,224)" class="f-10"></path><path d="M-32.1,-32.1L32.1,-32.1L32.1,32.1L-32.1,32.1Z" transform="translate(480,288)" class="f-11"></path><path d="M-32.1,-32.1L32.1,-32.1L32.1,32.1L-32.1,32.1Z" transform="translate(480,352)" class="f-12"></path><path d="M-32.1,-32.1L32.1,-32.1L32.1,32.1L-32.1,32.1Z" transform="translate(480,416)" class="f-13"></path><path d="M-32.1,-32.1L32.1,-32.1L32.1,32.1L-32.1,32.1Z" transform="translate(480,480)" class="f-14"></path><path d="M-32.1,-32.1L32.1,-32.1L32.1,32.1L-32.1,32.1Z" transform="translate(480,544)" class="f-15"></path><path d="M-32.1,-32.1L32.1,-32.1L32.1,32.1L-32.1,32.1Z" transform="translate(544,96)" class="f-9"></path><path d="M-32.1,-32.1L32.1,-32.1L32.1,32.1L-32.1,32.1Z" transform="translate(544,160)" class="f-10"></path><path d="M-32.1,-32.1L32.1,-32.1L32.1,32.1L-32.1,32.1Z" transform="translate(544,224)" class="f-11"></path><path d="M-32.1,-32.1L32.1,-32.1L32.1,32.1L-32.1,32.1Z" transform="translate(544,288)" class="f-12"></path><path d="M-32.1,-32.1L32.1,-32.1L32.1,32.1L-32.1,32.1Z" transform="translate(544,352)" class="f-13"></path><path d="M-32.1,-32.1L32.1,-32.1L32.1,32.1L-32.1,32.1Z" transform="translate(544,416)" class="f-14"></path><path d="M-32.1,-32.1L32.1,-32.1L32.1,32.1L-32.1,32.1Z" transform="translate(544,480)" class="f-15"></path><path d="M-32.1,-32.1L32.1,-32.1L32.1,32.1L-32.1,32.1Z" transform="translate(544,544)" class="f-15"></path></g></svg>