<svg xmlns="http://www.w3.org/2000/svg" viewBox="0 0 640 640" viewport-fill="#000" label="_shape #87 time #1 - day light"><defs><style type="text/css">
.f-0 { fill: #000;  }
.f-1 { fill: #101010;  }
.f-2 { fill: #202020;  }
.f-3 { fill: #303030;  }
.f-4 { fill: #404040;  }
.f-5 { fill: #505050;  }
.f-6 { fill: #606060;  }
.f-7 { fill: #707070;  }
.f-8 { fill: #808080;  }
.f-9 { fill: #909090;  }
.f-10 { fill: #a0a0a0;  }
.f-11 { fill: #b0b0b0;  }
.f-12 { fill: #c0c0c0;  }
.f-13 { fill: #d0d0d0;  }
.f-14 { fill: #e0e0e0;  }
.f-15 { fill: #f0f0f0;  }
.bgc { fill: #101010;  }
.fore { fill: #404040; stroke-color: #404040; sroke-width: 0;  }
text{ font-family: Freemono, Sans, Arial; } 
</style></defs><g><g transform="translate(91.42857142857143, 128)"><circle r="23.701333333333334" class="f-4"></circle><path d="M2.1771498651508502e-15,-35.55555555555556L0,0Z" class="f-2" style="opacity: 0.9"></path></g><g transform="translate(182.85714285714286, 128)"><circle r="23.701333333333334" class="f-4"></circle><path d="M2.1771498651508502e-15,-35.55555555555556A35.55555555555556,35.55555555555556,0,0,1,9.202454936978516,-34.34402937916688L0,0Z" class="f-2" style="opacity: 0.9"></path></g><g transform="translate(274.2857142857143, 128)"><circle r="23.701333333333334" class="f-5"></circle><path d="M2.1771498651508502e-15,-35.55555555555556A35.55555555555556,35.55555555555556,0,0,1,17.777777777777775,-30.792014356780044L0,0Z" class="f-3" style="opacity: 0.9"></path></g><g transform="translate(365.7142857142857, 128)"><circle r="23.701333333333334" class="f-6"></circle><path d="M2.1771498651508502e-15,-35.55555555555556A35.55555555555556,35.55555555555556,0,0,1,25.14157444218836,-25.141574442188354L0,0Z" class="f-4" style="opacity: 0.9"></path></g><g transform="translate(457.14285714285717, 128)"><circle r="23.701333333333334" class="f-7"></circle><path d="M2.1771498651508502e-15,-35.55555555555556A35.55555555555556,35.55555555555556,0,0,1,30.79201435678004,-17.77777777777778L0,0Z" class="f-5" style="opacity: 0.9"></path></g><g transform="translate(548.5714285714286, 128)"><circle r="23.701333333333334" class="f-8"></circle><path d="M2.1771498651508502e-15,-35.55555555555556A35.55555555555556,35.55555555555556,0,0,1,34.34402937916688,-9.202454936978514L0,0Z" class="f-6" style="opacity: 0.9"></path></g><g transform="translate(91.42857142857143, 256)"><circle r="23.701333333333334" class="f-9"></circle><path d="M2.1771498651508502e-15,-35.55555555555556A35.55555555555556,35.55555555555556,0,0,1,35.55555555555556,0L0,0Z" class="f-7" style="opacity: 0.9"></path></g><g transform="translate(182.85714285714286, 256)"><circle r="23.701333333333334" class="f-11"></circle><path d="M2.1771498651508502e-15,-35.55555555555556A35.55555555555556,35.55555555555556,0,0,1,34.34402937916687,9.202454936978521L0,0Z" class="f-9" style="opacity: 0.9"></path></g><g transform="translate(274.2857142857143, 256)"><circle r="23.701333333333334" class="f-12"></circle><path d="M2.1771498651508502e-15,-35.55555555555556A35.55555555555556,35.55555555555556,0,0,1,30.792014356780044,17.77777777777777L0,0Z" class="f-10" style="opacity: 0.9"></path></g><g transform="translate(365.7142857142857, 256)"><circle r="23.701333333333334" class="f-13"></circle><path d="M2.1771498651508502e-15,-35.55555555555556A35.55555555555556,35.55555555555556,0,0,1,25.14157444218836,25.141574442188354L0,0Z" class="f-11" style="opacity: 0.9"></path></g><g transform="translate(457.14285714285717, 256)"><circle r="23.701333333333334" class="f-14"></circle><path d="M2.1771498651508502e-15,-35.55555555555556A35.55555555555556,35.55555555555556,0,0,1,17.777777777777775,30.792014356780044L0,0Z" class="f-12" style="opacity: 0.9"></path></g><g transform="translate(548.5714285714286, 256)"><circle r="23.701333333333334" class="f-15"></circle><path d="M2.1771498651508502e-15,-35.55555555555556A35.55555555555556,35.55555555555556,0,0,1,9.202454936978523,34.34402937916687L0,0Z" class="f-13" style="opacity: 0.9"></path></g><g transform="translate(91.42857142857143, 384)"><circle r="23.701333333333334" class="f-15"></circle><path d="M2.1771498651508502e-15,-35.55555555555556A35.55555555555556,35.55555555555556,0,1,1,2.1771498651508502e-15,35.55555555555556L0,0Z" class="f-13" style="opacity: 0.9"></path></g><g transform="translate(182.85714285714286, 384)"><circle r="23.701333333333334" class="f-15"></circle><path d="M2.1771498651508502e-15,-35.55555555555556A35.55555555555556,35.55555555555556,0,1,1,-9.202454936978503,34.34402937916688L0,0Z" class="f-13" style="opacity: 0.9"></path></g><g transform="translate(274.2857142857143, 384)"><circle r="23.701333333333334" class="f-14"></circle><path d="M2.1771498651508502e-15,-35.55555555555556A35.55555555555556,35.55555555555556,0,1,1,-17.777777777777786,30.79201435678004L0,0Z" class="f-12" style="opacity: 0.9"></path></g><g transform="translate(365.7142857142857, 384)"><circle r="23.701333333333334" class="f-13"></circle><path d="M2.1771498651508502e-15,-35.55555555555556A35.55555555555556,35.55555555555556,0,1,1,-25.141574442188354,25.14157444218836L0,0Z" class="f-11" style="opacity: 0.9"></path></g><g transform="translate(457.14285714285717, 384)"><circle r="23.701333333333334" class="f-12"></circle><path d="M2.1771498651508502e-15,-35.55555555555556A35.55555555555556,35.55555555555556,0,1,1,-30.792014356780037,17.77777777777779L0,0Z" class="f-10" style="opacity: 0.9"></path></g><g transform="translate(548.5714285714286, 384)"><circle r="23.701333333333334" class="f-11"></circle><path d="M2.1771498651508502e-15,-35.55555555555556A35.55555555555556,35.55555555555556,0,1,1,-34.34402937916688,9.20245493697851L0,0Z" class="f-9" style="opacity: 0.9"></path></g><g transform="translate(91.42857142857143, 512)"><circle r="23.701333333333334" class="f-10"></circle><path d="M2.1771498651508502e-15,-35.55555555555556A35.55555555555556,35.55555555555556,0,1,1,-35.55555555555556,4.3542997303017005e-15L0,0Z" class="f-8" style="opacity: 0.9"></path></g><g transform="translate(182.85714285714286, 512)"><circle r="23.701333333333334" class="f-8"></circle><path d="M2.1771498651508502e-15,-35.55555555555556A35.55555555555556,35.55555555555556,0,1,1,-34.34402937916688,-9.202454936978501L0,0Z" class="f-6" style="opacity: 0.9"></path></g><g transform="translate(274.2857142857143, 512)"><circle r="23.701333333333334" class="f-7"></circle><path d="M2.1771498651508502e-15,-35.55555555555556A35.55555555555556,35.55555555555556,0,1,1,-30.79201435678004,-17.777777777777782L0,0Z" class="f-5" style="opacity: 0.9"></path></g><g transform="translate(365.7142857142857, 512)"><circle r="23.701333333333334" class="f-6"></circle><path d="M2.1771498651508502e-15,-35.55555555555556A35.55555555555556,35.55555555555556,0,1,1,-25.141574442188364,-25.141574442188354L0,0Z" class="f-4" style="opacity: 0.9"></path></g><g transform="translate(457.14285714285717, 512)"><circle r="23.701333333333334" class="f-5"></circle><path d="M2.1771498651508502e-15,-35.55555555555556A35.55555555555556,35.55555555555556,0,1,1,-17.777777777777793,-30.792014356780037L0,0Z" class="f-3" style="opacity: 0.9"></path></g><g transform="translate(548.5714285714286, 512)"><circle r="23.701333333333334" class="f-4"></circle><path d="M2.1771498651508502e-15,-35.55555555555556A35.55555555555556,35.55555555555556,0,1,1,-9.202454936978512,-34.34402937916688L0,0Z" class="f-2" style="opacity: 0.9"></path></g></g></svg>