<svg xmlns="http://www.w3.org/2000/svg" width="640" height="640" viewport-fill="#000" label="_shape #9 fractal #1"><defs><style type="text/css">
.f-0 { fill: #000;  }
.f-1 { fill: #101010;  }
.f-2 { fill: #202020;  }
.f-3 { fill: #303030;  }
.f-4 { fill: #404040;  }
.f-5 { fill: #505050;  }
.f-6 { fill: #606060;  }
.f-7 { fill: #707070;  }
.f-8 { fill: #808080;  }
.f-9 { fill: #909090;  }
.f-10 { fill: #a0a0a0;  }
.f-11 { fill: #b0b0b0;  }
.f-12 { fill: #c0c0c0;  }
.f-13 { fill: #d0d0d0;  }
.f-14 { fill: #e0e0e0;  }
.f-15 { fill: #f0f0f0;  }
.bgc { fill: #101010;  }
.fore { fill: #404040; stroke-color: #404040; sroke-width: 0;  }
text{ font-family: Freemono, Sans, Arial; } 
</style></defs><g fill-rule="evenodd" transform="translate(320,320)"><path d="M0,213.33333333333334L184.75208614068026,-106.66666666666663L-184.7520861406802,-106.66666666666677L0,142.22222222222223L123.16805742712017,-71.11111111111109L-123.16805742712015,-71.11111111111117L0,94.81481481481482L82.11203828474679,-47.40740740740739L-82.11203828474677,-47.407407407407455L0,63.20987654320988L54.741358856497854,-31.604938271604926L-54.74135885649784,-31.60493827160497L0,42.13991769547325L36.494239237665234,-21.069958847736615L-36.49423923766523,-21.069958847736643L0,28.093278463648833L24.329492825110158,-14.04663923182441L-24.32949282511015,-14.046639231824429L0,18.72885230909922L16.21966188340677,-9.364426154549607L-16.219661883406765,-9.36442615454962L0,12.48590153939948L10.813107922271179,-6.242950769699737L-10.813107922271177,-6.242950769699745L0,8.323934359599653L7.208738614847452,-4.161967179799825L-7.208738614847451,-4.16196717979983L0,5.549289573066435L4.805825743231635,-2.7746447865332162L-4.805825743231634,-2.77464478653322L0,3.69952638204429L3.20388382882109,-1.8497631910221441L-3.2038838288210894,-1.8497631910221466L0,2.46635092136286L2.1359225525473935,-1.2331754606814296L-2.1359225525473926,-1.2331754606814311L0,1.64423394757524L1.423948368364929,-0.8221169737876197L-1.4239483683649286,-0.8221169737876208L0,1.09615596505016L0.9492989122432859,-0.5480779825250798L-0.9492989122432857,-0.5480779825250804L0,0.7307706433667733L0.6328659414955239,-0.3653853216833865L-0.6328659414955238,-0.365385321683387L0,0.48718042891118224L0.42191062766368265,-0.243590214455591L-0.42191062766368254,-0.24359021445559134L0,0.3247869526074548L0.28127375177578845,-0.16239347630372733L-0.28127375177578834,-0.16239347630372755Z" class="fore"></path></g></svg>