<svg xmlns="http://www.w3.org/2000/svg" viewBox="0 0 640 640" viewport-fill="#000" label="_shape #90 time #4 - year - weeks"><defs><style type="text/css">
.f-0 { fill: #000;  }
.f-1 { fill: #101010;  }
.f-2 { fill: #202020;  }
.f-3 { fill: #303030;  }
.f-4 { fill: #404040;  }
.f-5 { fill: #505050;  }
.f-6 { fill: #606060;  }
.f-7 { fill: #707070;  }
.f-8 { fill: #808080;  }
.f-9 { fill: #909090;  }
.f-10 { fill: #a0a0a0;  }
.f-11 { fill: #b0b0b0;  }
.f-12 { fill: #c0c0c0;  }
.f-13 { fill: #d0d0d0;  }
.f-14 { fill: #e0e0e0;  }
.f-15 { fill: #f0f0f0;  }
.bgc { fill: #101010;  }
.fore { fill: #404040; stroke-color: #404040; sroke-width: 0;  }
text{ font-family: Freemono, Sans, Arial; } 
</style></defs><g><g transform="translate(128, 45.714285714285715)"><circle r="16.41025641025641" fill="#000"></circle><path d="M1.0048383993003923e-15,-16.41025641025641L0,0Z" fill="#202020"></path></g><g transform="translate(256, 45.714285714285715)"><circle r="16.41025641025641" fill="#000"></circle><path d="M1.0048383993003923e-15,-16.41025641025641A16.41025641025641,16.41025641025641,0,0,1,1.9780378298309416,-16.290607164686012L0,0Z" fill="#202020"></path></g><g transform="translate(384, 45.714285714285715)"><circle r="16.41025641025641" fill="#000"></circle><path d="M1.0048383993003923e-15,-16.41025641025641A16.41025641025641,16.41025641025641,0,0,1,3.9272314139496665,-15.933404183401878L0,0Z" fill="#202020"></path></g><g transform="translate(512, 45.714285714285715)"><circle r="16.41025641025641" fill="#000"></circle><path d="M1.0048383993003923e-15,-16.41025641025641A16.41025641025641,16.41025641025641,0,0,1,5.819157120698023,-15.343856290222188L0,0Z" fill="#202020"></path></g><g transform="translate(128, 91.42857142857143)"><circle r="16.41025641025641" fill="#000"></circle><path d="M1.0048383993003923e-15,-16.41025641025641A16.41025641025641,16.41025641025641,0,0,1,7.626226413025946,-14.530560420975752L0,0Z" fill="#303030"></path></g><g transform="translate(256, 91.42857142857143)"><circle r="16.41025641025641" fill="#000"></circle><path d="M1.0048383993003923e-15,-16.41025641025641A16.41025641025641,16.41025641025641,0,0,1,9.322088151485636,-13.505376260818975L0,0Z" fill="#303030"></path></g><g transform="translate(384, 91.42857142857143)"><circle r="16.41025641025641" fill="#000"></circle><path d="M1.0048383993003923e-15,-16.41025641025641A16.41025641025641,16.41025641025641,0,0,1,10.882012853182282,-12.283253303320633L0,0Z" fill="#404040"></path></g><g transform="translate(512, 91.42857142857143)"><circle r="16.41025641025641" fill="#000"></circle><path d="M1.0048383993003923e-15,-16.41025641025641A16.41025641025641,16.41025641025641,0,0,1,12.283253303320633,-10.88201285318228L0,0Z" fill="#404040"></path></g><g transform="translate(128, 137.14285714285714)"><circle r="16.41025641025641" fill="#000"></circle><path d="M1.0048383993003923e-15,-16.41025641025641A16.41025641025641,16.41025641025641,0,0,1,13.505376260818977,-9.322088151485632L0,0Z" fill="#505050"></path></g><g transform="translate(256, 137.14285714285714)"><circle r="16.41025641025641" fill="#000"></circle><path d="M1.0048383993003923e-15,-16.41025641025641A16.41025641025641,16.41025641025641,0,0,1,14.530560420975752,-7.626226413025945L0,0Z" fill="#505050"></path></g><g transform="translate(384, 137.14285714285714)"><circle r="16.41025641025641" fill="#000"></circle><path d="M1.0048383993003923e-15,-16.41025641025641A16.41025641025641,16.41025641025641,0,0,1,15.34385629022219,-5.819157120698018L0,0Z" fill="#606060"></path></g><g transform="translate(512, 137.14285714285714)"><circle r="16.41025641025641" fill="#000"></circle><path d="M1.0048383993003923e-15,-16.41025641025641A16.41025641025641,16.41025641025641,0,0,1,15.933404183401878,-3.9272314139496656L0,0Z" fill="#707070"></path></g><g transform="translate(128, 182.85714285714286)"><circle r="16.41025641025641" fill="#000"></circle><path d="M1.0048383993003923e-15,-16.41025641025641A16.41025641025641,16.41025641025641,0,0,1,16.290607164686012,-1.9780378298309405L0,0Z" fill="#808080"></path></g><g transform="translate(256, 182.85714285714286)"><circle r="16.41025641025641" fill="#000"></circle><path d="M1.0048383993003923e-15,-16.41025641025641A16.41025641025641,16.41025641025641,0,0,1,16.41025641025641,0L0,0Z" fill="#808080"></path></g><g transform="translate(384, 182.85714285714286)"><circle r="16.41025641025641" fill="#000"></circle><path d="M1.0048383993003923e-15,-16.41025641025641A16.41025641025641,16.41025641025641,0,0,1,16.290607164686012,1.9780378298309405L0,0Z" fill="#909090"></path></g><g transform="translate(512, 182.85714285714286)"><circle r="16.41025641025641" fill="#000"></circle><path d="M1.0048383993003923e-15,-16.41025641025641A16.41025641025641,16.41025641025641,0,0,1,15.93340418340188,3.9272314139496625L0,0Z" fill="#a0a0a0"></path></g><g transform="translate(128, 228.57142857142858)"><circle r="16.41025641025641" fill="#000"></circle><path d="M1.0048383993003923e-15,-16.41025641025641A16.41025641025641,16.41025641025641,0,0,1,15.34385629022219,5.819157120698022L0,0Z" fill="#b0b0b0"></path></g><g transform="translate(256, 228.57142857142858)"><circle r="16.41025641025641" fill="#000"></circle><path d="M1.0048383993003923e-15,-16.41025641025641A16.41025641025641,16.41025641025641,0,0,1,14.530560420975752,7.626226413025945L0,0Z" fill="#c0c0c0"></path></g><g transform="translate(384, 228.57142857142858)"><circle r="16.41025641025641" fill="#000"></circle><path d="M1.0048383993003923e-15,-16.41025641025641A16.41025641025641,16.41025641025641,0,0,1,13.505376260818977,9.322088151485632L0,0Z" fill="#c0c0c0"></path></g><g transform="translate(512, 228.57142857142858)"><circle r="16.41025641025641" fill="#000"></circle><path d="M1.0048383993003923e-15,-16.41025641025641A16.41025641025641,16.41025641025641,0,0,1,12.283253303320635,10.882012853182278L0,0Z" fill="#d0d0d0"></path></g><g transform="translate(128, 274.2857142857143)"><circle r="16.41025641025641" fill="#000"></circle><path d="M1.0048383993003923e-15,-16.41025641025641A16.41025641025641,16.41025641025641,0,0,1,10.882012853182278,12.283253303320635L0,0Z" fill="#d0d0d0"></path></g><g transform="translate(256, 274.2857142857143)"><circle r="16.41025641025641" fill="#000"></circle><path d="M1.0048383993003923e-15,-16.41025641025641A16.41025641025641,16.41025641025641,0,0,1,9.322088151485634,13.505376260818977L0,0Z" fill="#e0e0e0"></path></g><g transform="translate(384, 274.2857142857143)"><circle r="16.41025641025641" fill="#000"></circle><path d="M1.0048383993003923e-15,-16.41025641025641A16.41025641025641,16.41025641025641,0,0,1,7.626226413025946,14.530560420975752L0,0Z" fill="#e0e0e0"></path></g><g transform="translate(512, 274.2857142857143)"><circle r="16.41025641025641" fill="#000"></circle><path d="M1.0048383993003923e-15,-16.41025641025641A16.41025641025641,16.41025641025641,0,0,1,5.819157120698023,15.343856290222188L0,0Z" fill="#f0f0f0"></path></g><g transform="translate(128, 320)"><circle r="16.41025641025641" fill="#000"></circle><path d="M1.0048383993003923e-15,-16.41025641025641A16.41025641025641,16.41025641025641,0,0,1,3.9272314139496634,15.933404183401878L0,0Z" fill="#f0f0f0"></path></g><g transform="translate(256, 320)"><circle r="16.41025641025641" fill="#000"></circle><path d="M1.0048383993003923e-15,-16.41025641025641A16.41025641025641,16.41025641025641,0,0,1,1.9780378298309416,16.290607164686012L0,0Z" fill="#f0f0f0"></path></g><g transform="translate(384, 320)"><circle r="16.41025641025641" fill="#000"></circle><path d="M1.0048383993003923e-15,-16.41025641025641A16.41025641025641,16.41025641025641,0,1,1,1.0048383993003923e-15,16.41025641025641L0,0Z" fill="#f0f0f0"></path></g><g transform="translate(512, 320)"><circle r="16.41025641025641" fill="#000"></circle><path d="M1.0048383993003923e-15,-16.41025641025641A16.41025641025641,16.41025641025641,0,1,1,-1.9780378298309467,16.290607164686012L0,0Z" fill="#f0f0f0"></path></g><g transform="translate(128, 365.7142857142857)"><circle r="16.41025641025641" fill="#000"></circle><path d="M1.0048383993003923e-15,-16.41025641025641A16.41025641025641,16.41025641025641,0,1,1,-3.927231413949661,15.93340418340188L0,0Z" fill="#f0f0f0"></path></g><g transform="translate(256, 365.7142857142857)"><circle r="16.41025641025641" fill="#000"></circle><path d="M1.0048383993003923e-15,-16.41025641025641A16.41025641025641,16.41025641025641,0,1,1,-5.819157120698021,15.34385629022219L0,0Z" fill="#f0f0f0"></path></g><g transform="translate(384, 365.7142857142857)"><circle r="16.41025641025641" fill="#000"></circle><path d="M1.0048383993003923e-15,-16.41025641025641A16.41025641025641,16.41025641025641,0,1,1,-7.626226413025938,14.530560420975755L0,0Z" fill="#e0e0e0"></path></g><g transform="translate(512, 365.7142857142857)"><circle r="16.41025641025641" fill="#000"></circle><path d="M1.0048383993003923e-15,-16.41025641025641A16.41025641025641,16.41025641025641,0,1,1,-9.322088151485632,13.505376260818977L0,0Z" fill="#e0e0e0"></path></g><g transform="translate(128, 411.42857142857144)"><circle r="16.41025641025641" fill="#000"></circle><path d="M1.0048383993003923e-15,-16.41025641025641A16.41025641025641,16.41025641025641,0,1,1,-10.882012853182282,12.283253303320631L0,0Z" fill="#d0d0d0"></path></g><g transform="translate(256, 411.42857142857144)"><circle r="16.41025641025641" fill="#000"></circle><path d="M1.0048383993003923e-15,-16.41025641025641A16.41025641025641,16.41025641025641,0,1,1,-12.28325330332063,10.882012853182285L0,0Z" fill="#d0d0d0"></path></g><g transform="translate(384, 411.42857142857144)"><circle r="16.41025641025641" fill="#000"></circle><path d="M1.0048383993003923e-15,-16.41025641025641A16.41025641025641,16.41025641025641,0,1,1,-13.505376260818975,9.322088151485634L0,0Z" fill="#c0c0c0"></path></g><g transform="translate(512, 411.42857142857144)"><circle r="16.41025641025641" fill="#000"></circle><path d="M1.0048383993003923e-15,-16.41025641025641A16.41025641025641,16.41025641025641,0,1,1,-14.530560420975753,7.6262264130259405L0,0Z" fill="#c0c0c0"></path></g><g transform="translate(128, 457.14285714285717)"><circle r="16.41025641025641" fill="#000"></circle><path d="M1.0048383993003923e-15,-16.41025641025641A16.41025641025641,16.41025641025641,0,1,1,-15.343856290222188,5.819157120698024L0,0Z" fill="#b0b0b0"></path></g><g transform="translate(256, 457.14285714285717)"><circle r="16.41025641025641" fill="#000"></circle><path d="M1.0048383993003923e-15,-16.41025641025641A16.41025641025641,16.41025641025641,0,1,1,-15.933404183401878,3.9272314139496642L0,0Z" fill="#a0a0a0"></path></g><g transform="translate(384, 457.14285714285717)"><circle r="16.41025641025641" fill="#000"></circle><path d="M1.0048383993003923e-15,-16.41025641025641A16.41025641025641,16.41025641025641,0,1,1,-16.290607164686012,1.9780378298309496L0,0Z" fill="#909090"></path></g><g transform="translate(512, 457.14285714285717)"><circle r="16.41025641025641" fill="#000"></circle><path d="M1.0048383993003923e-15,-16.41025641025641A16.41025641025641,16.41025641025641,0,1,1,-16.41025641025641,2.0096767986007845e-15L0,0Z" fill="#909090"></path></g><g transform="translate(128, 502.8571428571429)"><circle r="16.41025641025641" fill="#000"></circle><path d="M1.0048383993003923e-15,-16.41025641025641A16.41025641025641,16.41025641025641,0,1,1,-16.290607164686012,-1.9780378298309458L0,0Z" fill="#808080"></path></g><g transform="translate(256, 502.8571428571429)"><circle r="16.41025641025641" fill="#000"></circle><path d="M1.0048383993003923e-15,-16.41025641025641A16.41025641025641,16.41025641025641,0,1,1,-15.93340418340188,-3.9272314139496602L0,0Z" fill="#707070"></path></g><g transform="translate(384, 502.8571428571429)"><circle r="16.41025641025641" fill="#000"></circle><path d="M1.0048383993003923e-15,-16.41025641025641A16.41025641025641,16.41025641025641,0,1,1,-15.34385629022219,-5.81915712069802L0,0Z" fill="#606060"></path></g><g transform="translate(512, 502.8571428571429)"><circle r="16.41025641025641" fill="#000"></circle><path d="M1.0048383993003923e-15,-16.41025641025641A16.41025641025641,16.41025641025641,0,1,1,-14.530560420975755,-7.626226413025937L0,0Z" fill="#505050"></path></g><g transform="translate(128, 548.5714285714286)"><circle r="16.41025641025641" fill="#000"></circle><path d="M1.0048383993003923e-15,-16.41025641025641A16.41025641025641,16.41025641025641,0,1,1,-13.505376260818979,-9.32208815148563L0,0Z" fill="#505050"></path></g><g transform="translate(256, 548.5714285714286)"><circle r="16.41025641025641" fill="#000"></circle><path d="M1.0048383993003923e-15,-16.41025641025641A16.41025641025641,16.41025641025641,0,1,1,-12.283253303320633,-10.882012853182282L0,0Z" fill="#404040"></path></g><g transform="translate(384, 548.5714285714286)"><circle r="16.41025641025641" fill="#000"></circle><path d="M1.0048383993003923e-15,-16.41025641025641A16.41025641025641,16.41025641025641,0,1,1,-10.882012853182285,-12.28325330332063L0,0Z" fill="#404040"></path></g><g transform="translate(512, 548.5714285714286)"><circle r="16.41025641025641" fill="#000"></circle><path d="M1.0048383993003923e-15,-16.41025641025641A16.41025641025641,16.41025641025641,0,1,1,-9.322088151485636,-13.505376260818975L0,0Z" fill="#303030"></path></g><g transform="translate(128, 594.2857142857143)"><circle r="16.41025641025641" fill="#000"></circle><path d="M1.0048383993003923e-15,-16.41025641025641A16.41025641025641,16.41025641025641,0,1,1,-7.626226413025941,-14.530560420975753L0,0Z" fill="#303030"></path></g><g transform="translate(256, 594.2857142857143)"><circle r="16.41025641025641" fill="#000"></circle><path d="M1.0048383993003923e-15,-16.41025641025641A16.41025641025641,16.41025641025641,0,1,1,-5.819157120698025,-15.343856290222188L0,0Z" fill="#202020"></path></g><g transform="translate(384, 594.2857142857143)"><circle r="16.41025641025641" fill="#000"></circle><path d="M1.0048383993003923e-15,-16.41025641025641A16.41025641025641,16.41025641025641,0,1,1,-3.927231413949665,-15.933404183401878L0,0Z" fill="#202020"></path></g><g transform="translate(512, 594.2857142857143)"><circle r="16.41025641025641" fill="#000"></circle><path d="M1.0048383993003923e-15,-16.41025641025641A16.41025641025641,16.41025641025641,0,1,1,-1.9780378298309509,-16.290607164686012L0,0Z" fill="#202020"></path></g></g></svg>