<svg xmlns="http://www.w3.org/2000/svg" viewBox="0 0 640 640" viewport-fill="#000" label="_shape #91 time #4 - life in years"><defs><style type="text/css">
.f-0 { fill: #000;  }
.f-1 { fill: #101010;  }
.f-2 { fill: #202020;  }
.f-3 { fill: #303030;  }
.f-4 { fill: #404040;  }
.f-5 { fill: #505050;  }
.f-6 { fill: #606060;  }
.f-7 { fill: #707070;  }
.f-8 { fill: #808080;  }
.f-9 { fill: #909090;  }
.f-10 { fill: #a0a0a0;  }
.f-11 { fill: #b0b0b0;  }
.f-12 { fill: #c0c0c0;  }
.f-13 { fill: #d0d0d0;  }
.f-14 { fill: #e0e0e0;  }
.f-15 { fill: #f0f0f0;  }
.bgc { fill: #101010;  }
.fore { fill: #404040; stroke-color: #404040; sroke-width: 0;  }
text{ font-family: Freemono, Sans, Arial; } 
</style></defs><g><g transform="translate(58.18181818181818, 71.11111111111111)"><circle r="21.333333333333332" fill="#000"></circle><path d="M1.30628991909051e-15,-21.333333333333332L0,0Z" fill="#202020"></path></g><g transform="translate(116.36363636363636, 71.11111111111111)"><circle r="21.333333333333332" fill="#000"></circle><path d="M1.30628991909051e-15,-21.333333333333332A21.333333333333332,21.333333333333332,0,0,1,1.6737940421940265,-21.26756978630673L0,0Z" fill="#202020"></path></g><g transform="translate(174.54545454545453, 71.11111111111111)"><circle r="21.333333333333332" fill="#000"></circle><path d="M1.30628991909051e-15,-21.333333333333332A21.333333333333332,21.333333333333332,0,0,1,3.3372685875249264,-21.070684599362938L0,0Z" fill="#202020"></path></g><g transform="translate(232.72727272727272, 71.11111111111111)"><circle r="21.333333333333332" fill="#000"></circle><path d="M1.30628991909051e-15,-21.333333333333332A21.333333333333332,21.333333333333332,0,0,1,4.980167762259317,-20.743891635150433L0,0Z" fill="#202020"></path></g><g transform="translate(290.9090909090909, 71.11111111111111)"><circle r="21.333333333333332" fill="#000"></circle><path d="M1.30628991909051e-15,-21.333333333333332A21.333333333333332,21.333333333333332,0,0,1,6.592362546665545,-20.289205680963274L0,0Z" fill="#202020"></path></g><g transform="translate(349.09090909090907, 71.11111111111111)"><circle r="21.333333333333332" fill="#000"></circle><path d="M1.30628991909051e-15,-21.333333333333332A21.333333333333332,21.333333333333332,0,0,1,8.163913223788583,-19.709430026907448L0,0Z" fill="#202020"></path></g><g transform="translate(407.27272727272725, 71.11111111111111)"><circle r="21.333333333333332" fill="#000"></circle><path d="M1.30628991909051e-15,-21.333333333333332A21.333333333333332,21.333333333333332,0,0,1,9.685130661110332,-19.008139182685177L0,0Z" fill="#303030"></path></g><g transform="translate(465.45454545454544, 71.11111111111111)"><circle r="21.333333333333332" fill="#000"></circle><path d="M1.30628991909051e-15,-21.333333333333332A21.333333333333332,21.333333333333332,0,0,1,11.146636047273576,-18.189656839553965L0,0Z" fill="#303030"></path></g><g transform="translate(523.6363636363636, 71.11111111111111)"><circle r="21.333333333333332" fill="#000"></circle><path d="M1.30628991909051e-15,-21.333333333333332A21.333333333333332,21.333333333333332,0,0,1,12.53941871557276,-17.259029213332212L0,0Z" fill="#303030"></path></g><g transform="translate(581.8181818181818, 71.11111111111111)"><circle r="21.333333333333332" fill="#000"></circle><path d="M1.30628991909051e-15,-21.333333333333332A21.333333333333332,21.333333333333332,0,0,1,13.854891697710585,-16.221993932800657L0,0Z" fill="#404040"></path></g><g transform="translate(58.18181818181818, 142.22222222222223)"><circle r="21.333333333333332" fill="#000"></circle><path d="M1.30628991909051e-15,-21.333333333333332A21.333333333333332,21.333333333333332,0,0,1,15.084944665313014,-15.084944665313012L0,0Z" fill="#404040"></path></g><g transform="translate(116.36363636363636, 142.22222222222223)"><circle r="21.333333333333332" fill="#000"></circle><path d="M1.30628991909051e-15,-21.333333333333332A21.333333333333332,21.333333333333332,0,0,1,16.22199393280066,-13.854891697710581L0,0Z" fill="#404040"></path></g><g transform="translate(174.54545454545453, 142.22222222222223)"><circle r="21.333333333333332" fill="#000"></circle><path d="M1.30628991909051e-15,-21.333333333333332A21.333333333333332,21.333333333333332,0,0,1,17.259029213332212,-12.53941871557276L0,0Z" fill="#505050"></path></g><g transform="translate(232.72727272727272, 142.22222222222223)"><circle r="21.333333333333332" fill="#000"></circle><path d="M1.30628991909051e-15,-21.333333333333332A21.333333333333332,21.333333333333332,0,0,1,18.18965683955397,-11.146636047273574L0,0Z" fill="#505050"></path></g><g transform="translate(290.9090909090909, 142.22222222222223)"><circle r="21.333333333333332" fill="#000"></circle><path d="M1.30628991909051e-15,-21.333333333333332A21.333333333333332,21.333333333333332,0,0,1,19.00813918268518,-9.68513066111033L0,0Z" fill="#606060"></path></g><g transform="translate(349.09090909090907, 142.22222222222223)"><circle r="21.333333333333332" fill="#000"></circle><path d="M1.30628991909051e-15,-21.333333333333332A21.333333333333332,21.333333333333332,0,0,1,19.709430026907448,-8.163913223788581L0,0Z" fill="#606060"></path></g><g transform="translate(407.27272727272725, 142.22222222222223)"><circle r="21.333333333333332" fill="#000"></circle><path d="M1.30628991909051e-15,-21.333333333333332A21.333333333333332,21.333333333333332,0,0,1,20.289205680963274,-6.592362546665544L0,0Z" fill="#606060"></path></g><g transform="translate(465.45454545454544, 142.22222222222223)"><circle r="21.333333333333332" fill="#000"></circle><path d="M1.30628991909051e-15,-21.333333333333332A21.333333333333332,21.333333333333332,0,0,1,20.743891635150433,-4.980167762259315L0,0Z" fill="#707070"></path></g><g transform="translate(523.6363636363636, 142.22222222222223)"><circle r="21.333333333333332" fill="#000"></circle><path d="M1.30628991909051e-15,-21.333333333333332A21.333333333333332,21.333333333333332,0,0,1,21.070684599362938,-3.337268587524925L0,0Z" fill="#707070"></path></g><g transform="translate(581.8181818181818, 142.22222222222223)"><circle r="21.333333333333332" fill="#000"></circle><path d="M1.30628991909051e-15,-21.333333333333332A21.333333333333332,21.333333333333332,0,0,1,21.26756978630673,-1.6737940421940254L0,0Z" fill="#808080"></path></g><g transform="translate(58.18181818181818, 213.33333333333334)"><circle r="21.333333333333332" fill="#000"></circle><path d="M1.30628991909051e-15,-21.333333333333332A21.333333333333332,21.333333333333332,0,0,1,21.333333333333332,0L0,0Z" fill="#808080"></path></g><g transform="translate(116.36363636363636, 213.33333333333334)"><circle r="21.333333333333332" fill="#000"></circle><path d="M1.30628991909051e-15,-21.333333333333332A21.333333333333332,21.333333333333332,0,0,1,21.26756978630673,1.6737940421940254L0,0Z" fill="#909090"></path></g><g transform="translate(174.54545454545453, 213.33333333333334)"><circle r="21.333333333333332" fill="#000"></circle><path d="M1.30628991909051e-15,-21.333333333333332A21.333333333333332,21.333333333333332,0,0,1,21.070684599362934,3.33726858752493L0,0Z" fill="#a0a0a0"></path></g><g transform="translate(232.72727272727272, 213.33333333333334)"><circle r="21.333333333333332" fill="#000"></circle><path d="M1.30628991909051e-15,-21.333333333333332A21.333333333333332,21.333333333333332,0,0,1,20.743891635150433,4.980167762259311L0,0Z" fill="#a0a0a0"></path></g><g transform="translate(290.9090909090909, 213.33333333333334)"><circle r="21.333333333333332" fill="#000"></circle><path d="M1.30628991909051e-15,-21.333333333333332A21.333333333333332,21.333333333333332,0,0,1,20.289205680963274,6.592362546665544L0,0Z" fill="#b0b0b0"></path></g><g transform="translate(349.09090909090907, 213.33333333333334)"><circle r="21.333333333333332" fill="#000"></circle><path d="M1.30628991909051e-15,-21.333333333333332A21.333333333333332,21.333333333333332,0,0,1,19.709430026907448,8.163913223788581L0,0Z" fill="#b0b0b0"></path></g><g transform="translate(407.27272727272725, 213.33333333333334)"><circle r="21.333333333333332" fill="#000"></circle><path d="M1.30628991909051e-15,-21.333333333333332A21.333333333333332,21.333333333333332,0,0,1,19.00813918268518,9.68513066111033L0,0Z" fill="#b0b0b0"></path></g><g transform="translate(465.45454545454544, 213.33333333333334)"><circle r="21.333333333333332" fill="#000"></circle><path d="M1.30628991909051e-15,-21.333333333333332A21.333333333333332,21.333333333333332,0,0,1,18.18965683955397,11.146636047273574L0,0Z" fill="#c0c0c0"></path></g><g transform="translate(523.6363636363636, 213.33333333333334)"><circle r="21.333333333333332" fill="#000"></circle><path d="M1.30628991909051e-15,-21.333333333333332A21.333333333333332,21.333333333333332,0,0,1,17.259029213332212,12.53941871557276L0,0Z" fill="#c0c0c0"></path></g><g transform="translate(581.8181818181818, 213.33333333333334)"><circle r="21.333333333333332" fill="#000"></circle><path d="M1.30628991909051e-15,-21.333333333333332A21.333333333333332,21.333333333333332,0,0,1,16.221993932800657,13.854891697710585L0,0Z" fill="#d0d0d0"></path></g><g transform="translate(58.18181818181818, 284.44444444444446)"><circle r="21.333333333333332" fill="#000"></circle><path d="M1.30628991909051e-15,-21.333333333333332A21.333333333333332,21.333333333333332,0,0,1,15.084944665313014,15.084944665313012L0,0Z" fill="#d0d0d0"></path></g><g transform="translate(116.36363636363636, 284.44444444444446)"><circle r="21.333333333333332" fill="#000"></circle><path d="M1.30628991909051e-15,-21.333333333333332A21.333333333333332,21.333333333333332,0,0,1,13.854891697710585,16.221993932800657L0,0Z" fill="#d0d0d0"></path></g><g transform="translate(174.54545454545453, 284.44444444444446)"><circle r="21.333333333333332" fill="#000"></circle><path d="M1.30628991909051e-15,-21.333333333333332A21.333333333333332,21.333333333333332,0,0,1,12.53941871557276,17.259029213332212L0,0Z" fill="#e0e0e0"></path></g><g transform="translate(232.72727272727272, 284.44444444444446)"><circle r="21.333333333333332" fill="#000"></circle><path d="M1.30628991909051e-15,-21.333333333333332A21.333333333333332,21.333333333333332,0,0,1,11.146636047273576,18.189656839553965L0,0Z" fill="#e0e0e0"></path></g><g transform="translate(290.9090909090909, 284.44444444444446)"><circle r="21.333333333333332" fill="#000"></circle><path d="M1.30628991909051e-15,-21.333333333333332A21.333333333333332,21.333333333333332,0,0,1,9.685130661110332,19.008139182685177L0,0Z" fill="#e0e0e0"></path></g><g transform="translate(349.09090909090907, 284.44444444444446)"><circle r="21.333333333333332" fill="#000"></circle><path d="M1.30628991909051e-15,-21.333333333333332A21.333333333333332,21.333333333333332,0,0,1,8.163913223788583,19.709430026907448L0,0Z" fill="#f0f0f0"></path></g><g transform="translate(407.27272727272725, 284.44444444444446)"><circle r="21.333333333333332" fill="#000"></circle><path d="M1.30628991909051e-15,-21.333333333333332A21.333333333333332,21.333333333333332,0,0,1,6.592362546665545,20.289205680963274L0,0Z" fill="#f0f0f0"></path></g><g transform="translate(465.45454545454544, 284.44444444444446)"><circle r="21.333333333333332" fill="#000"></circle><path d="M1.30628991909051e-15,-21.333333333333332A21.333333333333332,21.333333333333332,0,0,1,4.980167762259317,20.743891635150433L0,0Z" fill="#f0f0f0"></path></g><g transform="translate(523.6363636363636, 284.44444444444446)"><circle r="21.333333333333332" fill="#000"></circle><path d="M1.30628991909051e-15,-21.333333333333332A21.333333333333332,21.333333333333332,0,0,1,3.3372685875249264,21.070684599362938L0,0Z" fill="#f0f0f0"></path></g><g transform="translate(581.8181818181818, 284.44444444444446)"><circle r="21.333333333333332" fill="#000"></circle><path d="M1.30628991909051e-15,-21.333333333333332A21.333333333333332,21.333333333333332,0,0,1,1.6737940421940265,21.26756978630673L0,0Z" fill="#f0f0f0"></path></g><g transform="translate(58.18181818181818, 355.55555555555554)"><circle r="21.333333333333332" fill="#000"></circle><path d="M1.30628991909051e-15,-21.333333333333332A21.333333333333332,21.333333333333332,0,1,1,1.30628991909051e-15,21.333333333333332L0,0Z" fill="#f0f0f0"></path></g><g transform="translate(116.36363636363636, 355.55555555555554)"><circle r="21.333333333333332" fill="#000"></circle><path d="M1.30628991909051e-15,-21.333333333333332A21.333333333333332,21.333333333333332,0,1,1,-1.6737940421940147,21.26756978630673L0,0Z" fill="#f0f0f0"></path></g><g transform="translate(174.54545454545453, 355.55555555555554)"><circle r="21.333333333333332" fill="#000"></circle><path d="M1.30628991909051e-15,-21.333333333333332A21.333333333333332,21.333333333333332,0,1,1,-3.3372685875249237,21.070684599362938L0,0Z" fill="#f0f0f0"></path></g><g transform="translate(232.72727272727272, 355.55555555555554)"><circle r="21.333333333333332" fill="#000"></circle><path d="M1.30628991909051e-15,-21.333333333333332A21.333333333333332,21.333333333333332,0,1,1,-4.980167762259313,20.743891635150433L0,0Z" fill="#f0f0f0"></path></g><g transform="translate(290.9090909090909, 355.55555555555554)"><circle r="21.333333333333332" fill="#000"></circle><path d="M1.30628991909051e-15,-21.333333333333332A21.333333333333332,21.333333333333332,0,1,1,-6.592362546665552,20.28920568096327L0,0Z" fill="#f0f0f0"></path></g><g transform="translate(349.09090909090907, 355.55555555555554)"><circle r="21.333333333333332" fill="#000"></circle><path d="M1.30628991909051e-15,-21.333333333333332A21.333333333333332,21.333333333333332,0,1,1,-8.16391322378858,19.709430026907448L0,0Z" fill="#f0f0f0"></path></g><g transform="translate(407.27272727272725, 355.55555555555554)"><circle r="21.333333333333332" fill="#000"></circle><path d="M1.30628991909051e-15,-21.333333333333332A21.333333333333332,21.333333333333332,0,1,1,-9.685130661110321,19.008139182685184L0,0Z" fill="#e0e0e0"></path></g><g transform="translate(465.45454545454544, 355.55555555555554)"><circle r="21.333333333333332" fill="#000"></circle><path d="M1.30628991909051e-15,-21.333333333333332A21.333333333333332,21.333333333333332,0,1,1,-11.146636047273574,18.18965683955397L0,0Z" fill="#e0e0e0"></path></g><g transform="translate(523.6363636363636, 355.55555555555554)"><circle r="21.333333333333332" fill="#000"></circle><path d="M1.30628991909051e-15,-21.333333333333332A21.333333333333332,21.333333333333332,0,1,1,-12.539418715572758,17.259029213332212L0,0Z" fill="#e0e0e0"></path></g><g transform="translate(581.8181818181818, 355.55555555555554)"><circle r="21.333333333333332" fill="#000"></circle><path d="M1.30628991909051e-15,-21.333333333333332A21.333333333333332,21.333333333333332,0,1,1,-13.854891697710588,16.221993932800654L0,0Z" fill="#d0d0d0"></path></g><g transform="translate(58.18181818181818, 426.6666666666667)"><circle r="21.333333333333332" fill="#000"></circle><path d="M1.30628991909051e-15,-21.333333333333332A21.333333333333332,21.333333333333332,0,1,1,-15.084944665313012,15.084944665313014L0,0Z" fill="#d0d0d0"></path></g><g transform="translate(116.36363636363636, 426.6666666666667)"><circle r="21.333333333333332" fill="#000"></circle><path d="M1.30628991909051e-15,-21.333333333333332A21.333333333333332,21.333333333333332,0,1,1,-16.22199393280065,13.854891697710594L0,0Z" fill="#d0d0d0"></path></g><g transform="translate(174.54545454545453, 426.6666666666667)"><circle r="21.333333333333332" fill="#000"></circle><path d="M1.30628991909051e-15,-21.333333333333332A21.333333333333332,21.333333333333332,0,1,1,-17.25902921333221,12.539418715572761L0,0Z" fill="#c0c0c0"></path></g><g transform="translate(232.72727272727272, 426.6666666666667)"><circle r="21.333333333333332" fill="#000"></circle><path d="M1.30628991909051e-15,-21.333333333333332A21.333333333333332,21.333333333333332,0,1,1,-18.18965683955396,11.146636047273585L0,0Z" fill="#c0c0c0"></path></g><g transform="translate(290.9090909090909, 426.6666666666667)"><circle r="21.333333333333332" fill="#000"></circle><path d="M1.30628991909051e-15,-21.333333333333332A21.333333333333332,21.333333333333332,0,1,1,-19.008139182685177,9.685130661110332L0,0Z" fill="#b0b0b0"></path></g><g transform="translate(349.09090909090907, 426.6666666666667)"><circle r="21.333333333333332" fill="#000"></circle><path d="M1.30628991909051e-15,-21.333333333333332A21.333333333333332,21.333333333333332,0,1,1,-19.709430026907444,8.163913223788592L0,0Z" fill="#b0b0b0"></path></g><g transform="translate(407.27272727272725, 426.6666666666667)"><circle r="21.333333333333332" fill="#000"></circle><path d="M1.30628991909051e-15,-21.333333333333332A21.333333333333332,21.333333333333332,0,1,1,-20.289205680963274,6.592362546665546L0,0Z" fill="#b0b0b0"></path></g><g transform="translate(465.45454545454544, 426.6666666666667)"><circle r="21.333333333333332" fill="#000"></circle><path d="M1.30628991909051e-15,-21.333333333333332A21.333333333333332,21.333333333333332,0,1,1,-20.743891635150433,4.980167762259308L0,0Z" fill="#a0a0a0"></path></g><g transform="translate(523.6363636363636, 426.6666666666667)"><circle r="21.333333333333332" fill="#000"></circle><path d="M1.30628991909051e-15,-21.333333333333332A21.333333333333332,21.333333333333332,0,1,1,-21.070684599362934,3.3372685875249273L0,0Z" fill="#a0a0a0"></path></g><g transform="translate(581.8181818181818, 426.6666666666667)"><circle r="21.333333333333332" fill="#000"></circle><path d="M1.30628991909051e-15,-21.333333333333332A21.333333333333332,21.333333333333332,0,1,1,-21.26756978630673,1.6737940421940185L0,0Z" fill="#909090"></path></g><g transform="translate(58.18181818181818, 497.7777777777778)"><circle r="21.333333333333332" fill="#000"></circle><path d="M1.30628991909051e-15,-21.333333333333332A21.333333333333332,21.333333333333332,0,1,1,-21.333333333333332,2.61257983818102e-15L0,0Z" fill="#909090"></path></g><g transform="translate(116.36363636363636, 497.7777777777778)"><circle r="21.333333333333332" fill="#000"></circle><path d="M1.30628991909051e-15,-21.333333333333332A21.333333333333332,21.333333333333332,0,1,1,-21.26756978630673,-1.6737940421940132L0,0Z" fill="#808080"></path></g><g transform="translate(174.54545454545453, 497.7777777777778)"><circle r="21.333333333333332" fill="#000"></circle><path d="M1.30628991909051e-15,-21.333333333333332A21.333333333333332,21.333333333333332,0,1,1,-21.070684599362938,-3.337268587524922L0,0Z" fill="#707070"></path></g><g transform="translate(232.72727272727272, 497.7777777777778)"><circle r="21.333333333333332" fill="#000"></circle><path d="M1.30628991909051e-15,-21.333333333333332A21.333333333333332,21.333333333333332,0,1,1,-20.743891635150437,-4.9801677622593035L0,0Z" fill="#707070"></path></g><g transform="translate(290.9090909090909, 497.7777777777778)"><circle r="21.333333333333332" fill="#000"></circle><path d="M1.30628991909051e-15,-21.333333333333332A21.333333333333332,21.333333333333332,0,1,1,-20.289205680963278,-6.592362546665542L0,0Z" fill="#606060"></path></g><g transform="translate(349.09090909090907, 497.7777777777778)"><circle r="21.333333333333332" fill="#000"></circle><path d="M1.30628991909051e-15,-21.333333333333332A21.333333333333332,21.333333333333332,0,1,1,-19.709430026907448,-8.163913223788587L0,0Z" fill="#606060"></path></g><g transform="translate(407.27272727272725, 497.7777777777778)"><circle r="21.333333333333332" fill="#000"></circle><path d="M1.30628991909051e-15,-21.333333333333332A21.333333333333332,21.333333333333332,0,1,1,-19.00813918268518,-9.685130661110328L0,0Z" fill="#606060"></path></g><g transform="translate(465.45454545454544, 497.7777777777778)"><circle r="21.333333333333332" fill="#000"></circle><path d="M1.30628991909051e-15,-21.333333333333332A21.333333333333332,21.333333333333332,0,1,1,-18.18965683955396,-11.146636047273581L0,0Z" fill="#505050"></path></g><g transform="translate(523.6363636363636, 497.7777777777778)"><circle r="21.333333333333332" fill="#000"></circle><path d="M1.30628991909051e-15,-21.333333333333332A21.333333333333332,21.333333333333332,0,1,1,-17.259029213332212,-12.539418715572758L0,0Z" fill="#505050"></path></g><g transform="translate(581.8181818181818, 497.7777777777778)"><circle r="21.333333333333332" fill="#000"></circle><path d="M1.30628991909051e-15,-21.333333333333332A21.333333333333332,21.333333333333332,0,1,1,-16.221993932800654,-13.854891697710588L0,0Z" fill="#404040"></path></g><g transform="translate(58.18181818181818, 568.8888888888889)"><circle r="21.333333333333332" fill="#000"></circle><path d="M1.30628991909051e-15,-21.333333333333332A21.333333333333332,21.333333333333332,0,1,1,-15.084944665313017,-15.084944665313012L0,0Z" fill="#404040"></path></g><g transform="translate(116.36363636363636, 568.8888888888889)"><circle r="21.333333333333332" fill="#000"></circle><path d="M1.30628991909051e-15,-21.333333333333332A21.333333333333332,21.333333333333332,0,1,1,-13.854891697710594,-16.22199393280065L0,0Z" fill="#404040"></path></g><g transform="translate(174.54545454545453, 568.8888888888889)"><circle r="21.333333333333332" fill="#000"></circle><path d="M1.30628991909051e-15,-21.333333333333332A21.333333333333332,21.333333333333332,0,1,1,-12.539418715572761,-17.25902921333221L0,0Z" fill="#303030"></path></g><g transform="translate(232.72727272727272, 568.8888888888889)"><circle r="21.333333333333332" fill="#000"></circle><path d="M1.30628991909051e-15,-21.333333333333332A21.333333333333332,21.333333333333332,0,1,1,-11.146636047273585,-18.189656839553958L0,0Z" fill="#303030"></path></g><g transform="translate(290.9090909090909, 568.8888888888889)"><circle r="21.333333333333332" fill="#000"></circle><path d="M1.30628991909051e-15,-21.333333333333332A21.333333333333332,21.333333333333332,0,1,1,-9.685130661110334,-19.008139182685177L0,0Z" fill="#303030"></path></g><g transform="translate(349.09090909090907, 568.8888888888889)"><circle r="21.333333333333332" fill="#000"></circle><path d="M1.30628991909051e-15,-21.333333333333332A21.333333333333332,21.333333333333332,0,1,1,-8.163913223788594,-19.709430026907444L0,0Z" fill="#202020"></path></g><g transform="translate(407.27272727272725, 568.8888888888889)"><circle r="21.333333333333332" fill="#000"></circle><path d="M1.30628991909051e-15,-21.333333333333332A21.333333333333332,21.333333333333332,0,1,1,-6.592362546665548,-20.289205680963274L0,0Z" fill="#202020"></path></g><g transform="translate(465.45454545454544, 568.8888888888889)"><circle r="21.333333333333332" fill="#000"></circle><path d="M1.30628991909051e-15,-21.333333333333332A21.333333333333332,21.333333333333332,0,1,1,-4.98016776225931,-20.743891635150433L0,0Z" fill="#202020"></path></g><g transform="translate(523.6363636363636, 568.8888888888889)"><circle r="21.333333333333332" fill="#000"></circle><path d="M1.30628991909051e-15,-21.333333333333332A21.333333333333332,21.333333333333332,0,1,1,-3.3372685875249286,-21.070684599362934L0,0Z" fill="#202020"></path></g><g transform="translate(581.8181818181818, 568.8888888888889)"><circle r="21.333333333333332" fill="#000"></circle><path d="M1.30628991909051e-15,-21.333333333333332A21.333333333333332,21.333333333333332,0,1,1,-1.6737940421940198,-21.26756978630673L0,0Z" fill="#202020"></path></g></g></svg>