<svg xmlns="http://www.w3.org/2000/svg" width="640" height="640" viewport-fill="#000" label="_shape #0"><defs><style type="text/css">text{ font-family: Freemono, Sans, Arial; fill: #555} 

.f-0 { fill: #000 }
.f-1 { fill: #101010 }
.f-2 { fill: #202020 }
.f-3 { fill: #303030 }
.f-4 { fill: #404040 }
.f-5 { fill: #505050 }
.f-6 { fill: #606060 }
.f-7 { fill: #707070 }
.f-8 { fill: #808080 }
.f-9 { fill: #909090 }
.f-10 { fill: #a0a0a0 }
.f-11 { fill: #b0b0b0 }
.f-12 { fill: #c0c0c0 }
.f-13 { fill: #d0d0d0 }
.f-14 { fill: #e0e0e0 }
.f-15 { fill: #f0f0f0 }
.bgc { fill: #101010 }
.fore { fill: #404040 }</style></defs><circle cx="320" cy="320" r="106.66666666666667" class="fore"></circle><text x="639" y="11" text-anchor="end">This is for dealing with time.</text><text x="10" y="58.18181818181818" style="font-family: Freemono" class="fore">_shape #973 - Freemono</text><text x="10" y="116.36363636363636" style="font-family: Sans Serif" class="fore">_shape #632 - Sans Serif</text><text x="10" y="174.54545454545453" style="font-family: Prestige Elite" class="fore">_shape #329 - Prestige Elite</text><text x="10" y="232.72727272727272" style="font-family: Ethiopia Jiret" class="fore">_shape #612 - Ethiopia Jiret</text><text x="10" y="290.90909090909093" style="font-family: Arial" class="fore">_shape #178 - Arial</text><text x="10" y="349.09090909090907" style="font-family: Verdana" class="fore">_shape #162 - Verdana</text><text x="10" y="407.27272727272725" style="font-family: Helvetica" class="fore">_shape #98 - Helvetica</text><text x="10" y="465.45454545454544" style="font-family: Trebuchet MS" class="fore">_shape #205 - Trebuchet MS</text><text x="10" y="523.6363636363636" style="font-family: Courier" class="fore">_shape #27 - Courier</text><text x="10" y="581.8181818181819" style="font-family: Courier New" class="fore">_shape #897 - Courier New</text><path d="M320,480L458.5640646055102,240.00000000000003L181.43593539448983,239.99999999999994Z" class="bgc"></path><g fill-rule="evenodd"><path d="M-31.51041666666667,-21.006944444444446L31.51041666666667,-21.006944444444446L31.51041666666667,21.006944444444446L-31.51041666666667,21.006944444444446Z" transform="translate(576,53.333333333333336)" class="f-0"></path><path d="M-31.51041666666667,-21.006944444444446L31.51041666666667,-21.006944444444446L31.51041666666667,21.006944444444446L-31.51041666666667,21.006944444444446Z" transform="translate(576,88.88888888888889)" class="f-1"></path><path d="M-31.51041666666667,-21.006944444444446L31.51041666666667,-21.006944444444446L31.51041666666667,21.006944444444446L-31.51041666666667,21.006944444444446Z" transform="translate(576,124.44444444444446)" class="f-2"></path><path d="M-31.51041666666667,-21.006944444444446L31.51041666666667,-21.006944444444446L31.51041666666667,21.006944444444446L-31.51041666666667,21.006944444444446Z" transform="translate(576,160)" class="f-3"></path><path d="M-31.51041666666667,-21.006944444444446L31.51041666666667,-21.006944444444446L31.51041666666667,21.006944444444446L-31.51041666666667,21.006944444444446Z" transform="translate(576,195.55555555555557)" class="f-4"></path><path d="M-31.51041666666667,-21.006944444444446L31.51041666666667,-21.006944444444446L31.51041666666667,21.006944444444446L-31.51041666666667,21.006944444444446Z" transform="translate(576,231.11111111111111)" class="f-5"></path><path d="M-31.51041666666667,-21.006944444444446L31.51041666666667,-21.006944444444446L31.51041666666667,21.006944444444446L-31.51041666666667,21.006944444444446Z" transform="translate(576,266.6666666666667)" class="f-6"></path><path d="M-31.51041666666667,-21.006944444444446L31.51041666666667,-21.006944444444446L31.51041666666667,21.006944444444446L-31.51041666666667,21.006944444444446Z" transform="translate(576,302.22222222222223)" class="f-7"></path><path d="M-31.51041666666667,-21.006944444444446L31.51041666666667,-21.006944444444446L31.51041666666667,21.006944444444446L-31.51041666666667,21.006944444444446Z" transform="translate(576,337.77777777777777)" class="f-8"></path><path d="M-31.51041666666667,-21.006944444444446L31.51041666666667,-21.006944444444446L31.51041666666667,21.006944444444446L-31.51041666666667,21.006944444444446Z" transform="translate(576,373.33333333333337)" class="f-9"></path><path d="M-31.51041666666667,-21.006944444444446L31.51041666666667,-21.006944444444446L31.51041666666667,21.006944444444446L-31.51041666666667,21.006944444444446Z" transform="translate(576,408.8888888888889)" class="f-10"></path><path d="M-31.51041666666667,-21.006944444444446L31.51041666666667,-21.006944444444446L31.51041666666667,21.006944444444446L-31.51041666666667,21.006944444444446Z" transform="translate(576,444.44444444444446)" class="f-11"></path><path d="M-31.51041666666667,-21.006944444444446L31.51041666666667,-21.006944444444446L31.51041666666667,21.006944444444446L-31.51041666666667,21.006944444444446Z" transform="translate(576,480)" class="f-12"></path><path d="M-31.51041666666667,-21.006944444444446L31.51041666666667,-21.006944444444446L31.51041666666667,21.006944444444446L-31.51041666666667,21.006944444444446Z" transform="translate(576,515.5555555555555)" class="f-13"></path><path d="M-31.51041666666667,-21.006944444444446L31.51041666666667,-21.006944444444446L31.51041666666667,21.006944444444446L-31.51041666666667,21.006944444444446Z" transform="translate(576,551.1111111111111)" class="f-14"></path><path d="M-31.51041666666667,-21.006944444444446L31.51041666666667,-21.006944444444446L31.51041666666667,21.006944444444446L-31.51041666666667,21.006944444444446Z" transform="translate(576,586.6666666666667)" class="f-15"></path></g><g fill-rule="evenodd"><path d="M-22.22222222222222,-11.11111111111111L22.22222222222222,-11.11111111111111L22.22222222222222,11.11111111111111L-22.22222222222222,11.11111111111111Z" transform="translate(480,53.333333333333336)" class="f-0"></path><text>0</text><path d="M-22.22222222222222,-11.11111111111111L22.22222222222222,-11.11111111111111L22.22222222222222,11.11111111111111L-22.22222222222222,11.11111111111111Z" transform="translate(480,88.88888888888889)" class="f-1"></path><text>1</text><path d="M-22.22222222222222,-11.11111111111111L22.22222222222222,-11.11111111111111L22.22222222222222,11.11111111111111L-22.22222222222222,11.11111111111111Z" transform="translate(480,124.44444444444446)" class="f-2"></path><text>2</text><path d="M-22.22222222222222,-11.11111111111111L22.22222222222222,-11.11111111111111L22.22222222222222,11.11111111111111L-22.22222222222222,11.11111111111111Z" transform="translate(480,160)" class="f-3"></path><text>3</text><path d="M-22.22222222222222,-11.11111111111111L22.22222222222222,-11.11111111111111L22.22222222222222,11.11111111111111L-22.22222222222222,11.11111111111111Z" transform="translate(480,195.55555555555557)" class="f-4"></path><text>4</text><path d="M-22.22222222222222,-11.11111111111111L22.22222222222222,-11.11111111111111L22.22222222222222,11.11111111111111L-22.22222222222222,11.11111111111111Z" transform="translate(480,231.11111111111111)" class="f-5"></path><text>5</text><path d="M-22.22222222222222,-11.11111111111111L22.22222222222222,-11.11111111111111L22.22222222222222,11.11111111111111L-22.22222222222222,11.11111111111111Z" transform="translate(480,266.6666666666667)" class="f-6"></path><text>6</text><path d="M-22.22222222222222,-11.11111111111111L22.22222222222222,-11.11111111111111L22.22222222222222,11.11111111111111L-22.22222222222222,11.11111111111111Z" transform="translate(480,302.22222222222223)" class="f-7"></path><text>7</text><path d="M-22.22222222222222,-11.11111111111111L22.22222222222222,-11.11111111111111L22.22222222222222,11.11111111111111L-22.22222222222222,11.11111111111111Z" transform="translate(480,337.77777777777777)" class="f-8"></path><text>8</text><path d="M-22.22222222222222,-11.11111111111111L22.22222222222222,-11.11111111111111L22.22222222222222,11.11111111111111L-22.22222222222222,11.11111111111111Z" transform="translate(480,373.33333333333337)" class="f-9"></path><text>9</text><path d="M-22.22222222222222,-11.11111111111111L22.22222222222222,-11.11111111111111L22.22222222222222,11.11111111111111L-22.22222222222222,11.11111111111111Z" transform="translate(480,408.8888888888889)" class="f-10"></path><text>10</text><path d="M-22.22222222222222,-11.11111111111111L22.22222222222222,-11.11111111111111L22.22222222222222,11.11111111111111L-22.22222222222222,11.11111111111111Z" transform="translate(480,444.44444444444446)" class="f-11"></path><text>11</text><path d="M-22.22222222222222,-11.11111111111111L22.22222222222222,-11.11111111111111L22.22222222222222,11.11111111111111L-22.22222222222222,11.11111111111111Z" transform="translate(480,480)" class="f-12"></path><text>12</text><path d="M-22.22222222222222,-11.11111111111111L22.22222222222222,-11.11111111111111L22.22222222222222,11.11111111111111L-22.22222222222222,11.11111111111111Z" transform="translate(480,515.5555555555555)" class="f-13"></path><text>13</text><path d="M-22.22222222222222,-11.11111111111111L22.22222222222222,-11.11111111111111L22.22222222222222,11.11111111111111L-22.22222222222222,11.11111111111111Z" transform="translate(480,551.1111111111111)" class="f-14"></path><text>14</text><path d="M-22.22222222222222,-11.11111111111111L22.22222222222222,-11.11111111111111L22.22222222222222,11.11111111111111L-22.22222222222222,11.11111111111111Z" transform="translate(480,586.6666666666667)" class="f-15"></path><text>15</text></g></svg>