<svg xmlns="http://www.w3.org/2000/svg" width="640" height="640" viewport-fill="#000"><defs><style type="text/css">text{ font-family: Freemono, Sans, Arial; fill: #555} 
</style></defs><rect x="0" y="0" width="640" height="640" fill="#101010" stroke="#707070"></rect><g fill-rule="evenodd" transform="translate(320,320)"><path d="M0,213.33333333333334L202.89205680963275,65.92362546665547L125.39418715572764,-172.5902921333221L-125.39418715572758,-172.59029213332212L-202.89205680963278,65.92362546665541L0,170.66666666666669L162.31364544770622,52.73890037332437L100.3153497245821,-138.0722337066577L-100.31534972458208,-138.07223370665773L-162.31364544770625,52.738900373324334L0,136.53333333333336L129.850916358165,42.1911202986595L80.2522797796657,-110.45778696532616L-80.25227977966567,-110.45778696532618L-129.850916358165,42.19112029865947L0,109.22666666666669L103.88073308653199,33.7528962389276L64.20182382373255,-88.36622957226093L-64.20182382373254,-88.36622957226095L-103.880733086532,33.752896238927576L0,87.38133333333334L83.10458646922558,27.002316991142077L51.36145905898604,-70.69298365780874L-51.36145905898602,-70.69298365780875L-83.1045864692256,27.00231699114206L0,69.90506666666667L66.48366917538047,21.60185359291366L41.08916724718883,-56.55438692624699L-41.08916724718882,-56.554386926247L-66.48366917538047,21.601853592913645L0,55.92405333333333L53.186935340304366,17.281482874330926L32.87133379775106,-45.243509540997586L-32.87133379775105,-45.24350954099759L-53.18693534030437,17.281482874330916L0,44.73924266666667L42.5495482722435,13.825186299464743L26.29706703820085,-36.194807632798074L-26.297067038200844,-36.194807632798074L-42.549548272243506,13.825186299464733L0,35.791394133333334L34.03963861779479,11.060149039571794L21.03765363056068,-28.955846106238457L-21.037653630560673,-28.95584610623846L-34.0396386177948,11.060149039571787L0,28.633115306666667L27.23171089423584,8.848119231657435L16.830122904448544,-23.164676884990765L-16.830122904448537,-23.16467688499077L-27.23171089423584,8.84811923165743L0,22.906492245333332L21.785368715388667,7.078495385325947L13.464098323558835,-18.53174150799261L-13.46409832355883,-18.531741507992614L-21.78536871538867,7.078495385325943L0,18.325193796266667L17.428294972310937,5.662796308260758L10.771278658847068,-14.82539320639409L-10.771278658847065,-14.825393206394093L-17.428294972310937,5.662796308260755L0,14.660155037013334L13.942635977848749,4.530237046608607L8.617022927077656,-11.860314565115273L-8.617022927077652,-11.860314565115274L-13.94263597784875,4.530237046608604L0,11.728124029610667L11.154108782279,3.6241896372868854L6.8936183416621235,-9.488251652092218L-6.893618341662122,-9.488251652092218L-11.154108782279,3.6241896372868827L0,9.382499223688534L8.9232870258232,2.8993517098295083L5.5148946733296995,-7.590601321673774L-5.514894673329697,-7.590601321673775L-8.9232870258232,2.8993517098295065L0,7.505999378950827L7.13862962065856,2.319481367863607L4.411915738663759,-6.0724810573390196L-4.411915738663758,-6.07248105733902L-7.138629620658561,2.319481367863605L0,6.004799503160662L5.710903696526848,1.8555850942908856L3.529532590931008,-4.857984845871216L-3.5295325909310065,-4.857984845871217L-5.710903696526849,1.8555850942908843L0,4.803839602528529L4.568722957221478,1.4844680754327084L2.823626072744806,-3.8863878766969724L-2.823626072744805,-3.886387876696973L-4.568722957221478,1.4844680754327073L0,3.8430716820228232L3.654978365777182,1.1875744603461666L2.2589008581958447,-3.109110301357578L-2.258900858195844,-3.1091103013575783L-3.6549783657771826,1.1875744603461658L0,3.0744573456182587L2.923982692621746,0.9500595682769333L1.8071206865566758,-2.487288241086062L-1.8071206865566751,-2.4872882410860626L-2.9239826926217463,0.9500595682769326L0,2.459565876494607L2.339186154097397,0.7600476546215467L1.4456965492453406,-1.98983059286885L-1.4456965492453402,-1.9898305928688502L-2.3391861540973973,0.7600476546215461L0,1.9676527011956857L1.8713489232779175,0.6080381236972373L1.1565572393962726,-1.59186447429508L-1.1565572393962722,-1.5918644742950803L-1.8713489232779177,0.608038123697237L0,1.5741221609565486L1.497079138622334,0.4864304989577899L0.925245791517018,-1.273491579436064L-0.9252457915170177,-1.2734915794360642L-1.497079138622334,0.48643049895778956L0,1.259297728765239L1.1976633108978674,0.38914439916623195L0.7401966332136145,-1.0187932635488512L-0.7401966332136143,-1.0187932635488515L-1.1976633108978674,0.38914439916623167L0,1.0074381830121912L0.9581306487182939,0.31131551933298557L0.5921573065708917,-0.8150346108390811L-0.5921573065708914,-0.8150346108390812L-0.958130648718294,0.31131551933298535L0,0.8059505464097529L0.7665045189746351,0.24905241546638845L0.4737258452567133,-0.6520276886712648L-0.47372584525671313,-0.6520276886712649L-0.7665045189746352,0.24905241546638826L0,0.6447604371278024L0.6132036151797081,0.19924193237311077L0.3789806762053707,-0.5216221509370119L-0.3789806762053705,-0.5216221509370119L-0.6132036151797082,0.19924193237311064L0,0.5158083497022419L0.49056289214376647,0.15939354589848861L0.30318454096429653,-0.41729772074960947L-0.30318454096429637,-0.4172977207496095L-0.4905628921437665,0.1593935458984885L0,0.4126466797617935L0.39245031371501315,0.12751483671879088L0.2425476327714372,-0.33383817659968756L-0.2425476327714371,-0.3338381765996876L-0.3924503137150132,0.1275148367187908L0,0.3301173438094348L0.3139602509720105,0.1020118693750327L0.19403810621714976,-0.26707054127975005L-0.1940381062171497,-0.2670705412797501L-0.3139602509720106,0.10201186937503263L0,0.26409387504754783L0.25116820077760843,0.08160949550002616L0.1552304849737198,-0.21365643302380005L-0.15523048497371975,-0.21365643302380008L-0.25116820077760843,0.08160949550002611L0,0.21127510003803826L0.20093456062208673,0.06528759640002092L0.12418438797897584,-0.17092514641904002L-0.1241843879789758,-0.17092514641904005L-0.20093456062208676,0.06528759640002088L0,0.16902008003043062L0.1607476484976694,0.052230077120016746L0.09934751038318068,-0.13674011713523204L-0.09934751038318064,-0.13674011713523207L-0.1607476484976694,0.05223007712001671L0,0.1352160640243445L0.1285981187981355,0.0417840616960134L0.07947800830654454,-0.10939209370818563L-0.07947800830654451,-0.10939209370818564L-0.12859811879813554,0.04178406169601337L0,0.10817285121947559L0.1028784950385084,0.03342724935681072L0.06358240664523564,-0.0875136749665485L-0.06358240664523561,-0.08751367496654851L-0.10287849503850842,0.03342724935681069L0,0.08653828097558047L0.08230279603080673,0.026741799485448574L0.050865925316188505,-0.0700109399732388L-0.050865925316188484,-0.0700109399732388L-0.08230279603080673,0.026741799485448553L0,0.06923062478046438L0.06584223682464538,0.02139343958835886L0.040692740252950804,-0.05600875197859104L-0.04069274025295079,-0.05600875197859105L-0.06584223682464539,0.021393439588358844L0,0.055384499824371505L0.052673789459716305,0.017114751670687087L0.032554192202360645,-0.04480700158287283L-0.03255419220236063,-0.04480700158287284L-0.05267378945971631,0.017114751670687076L0,0.044307599859497206L0.042139031567773044,0.01369180133654967L0.026043353761888516,-0.035845601266298266L-0.02604335376188851,-0.03584560126629827L-0.04213903156777305,0.013691801336549661L0,0.035446079887597765L0.033711225254218435,0.010953441069239737L0.020834683009510815,-0.028676481013038616L-0.020834683009510805,-0.02867648101303862L-0.03371122525421844,0.010953441069239728L0,0.02835686391007821L0.026968980203374748,0.008762752855391789L0.01666774640760865,-0.02294118481043089L-0.016667746407608645,-0.022941184810430892L-0.02696898020337475,0.008762752855391782L0,0.02268549112806257L0.0215751841626998,0.007010202284313431L0.013334197126086921,-0.018352947848344715L-0.013334197126086916,-0.018352947848344715L-0.021575184162699802,0.007010202284313426L0,0.018148392902450055L0.01726014733015984,0.005608161827450745L0.010667357700869537,-0.01468235827867577L-0.010667357700869533,-0.014682358278675773L-0.01726014733015984,0.005608161827450741L0,0.014518714321960044L0.013808117864127872,0.004486529461960596L0.00853388616069563,-0.011745886622940616L-0.008533886160695626,-0.011745886622940618L-0.013808117864127873,0.0044865294619605926L0,0.011614971457568036L0.011046494291302297,0.003589223569568477L0.0068271089285565035,-0.009396709298352493L-0.006827108928556501,-0.009396709298352495L-0.011046494291302299,0.0035892235695684743L0,0.009291977166054429L0.008837195433041838,0.002871378855654782L0.005461687142845203,-0.007517367438681995L-0.005461687142845201,-0.007517367438681996L-0.00883719543304184,0.0028713788556547796L0,0.007433581732843543L0.00706975634643347,0.002297103084523825L0.004369349714276162,-0.006013893950945596L-0.004369349714276161,-0.006013893950945597L-0.007069756346433471,0.0022971030845238237L0,0.005946865386274834L0.005655805077146777,0.0018376824676190602L0.00349547977142093,-0.004811115160756476L-0.0034954797714209286,-0.004811115160756477L-0.005655805077146777,0.0018376824676190587L0,0.004757492309019867L0.004524644061717421,0.001470145974095248L0.0027963838171367436,-0.0038488921286051812L-0.0027963838171367428,-0.0038488921286051817L-0.0045246440617174215,0.0014701459740952471L0,0.003805993847215894L0.0036197152493739368,0.0011761167792761985L0.002237107053709395,-0.003079113702884145L-0.002237107053709394,-0.0030791137028841455L-0.003619715249373937,0.0011761167792761977L0,0.0030447950777727152L0.0028957721994991494,0.0009408934234209588L0.001789685642967516,-0.0024632909623073162L-0.0017896856429675154,-0.0024632909623073167L-0.00289577219949915,0.0009408934234209582Z" fill="#303030"></path></g><text x="320" y="632" text-anchor="middle" fill="#606060">_shape #10 fractal #2</text></svg>