<svg xmlns="http://www.w3.org/2000/svg" width="640" height="640" viewport-fill="#000" label="_shape #14 fractal #7"><defs><style type="text/css">
.f-0 { fill: #000;  }
.f-1 { fill: #101010;  }
.f-2 { fill: #202020;  }
.f-3 { fill: #303030;  }
.f-4 { fill: #404040;  }
.f-5 { fill: #505050;  }
.f-6 { fill: #606060;  }
.f-7 { fill: #707070;  }
.f-8 { fill: #808080;  }
.f-9 { fill: #909090;  }
.f-10 { fill: #a0a0a0;  }
.f-11 { fill: #b0b0b0;  }
.f-12 { fill: #c0c0c0;  }
.f-13 { fill: #d0d0d0;  }
.f-14 { fill: #e0e0e0;  }
.f-15 { fill: #f0f0f0;  }
.bgc { fill: #101010;  }
.fore { fill: #404040; stroke: #404040;  }
text{ font-family: Freemono, Sans, Arial; } 
</style></defs><g fill-rule="evenodd" transform="translate(320,320)"><path d="M2.6125798381810203e-14,-213.33333333333334L-184.75208614068035,106.66666666666653L184.7520861406802,106.66666666666679ZZ M1.3062899190905101e-14,0L-92.37604307034017,159.99999999999994L92.3760430703401,160.00000000000006ZZ M6.531449595452551e-15,106.66666666666666L-46.18802153517009,186.66666666666663L46.18802153517005,186.66666666666669ZZ M3.2657247977262754e-15,160L-23.094010767585043,199.99999999999997L23.094010767585026,200ZZ M1.6328623988631377e-15,186.66666666666666L-11.547005383792522,206.66666666666666L11.547005383792513,206.66666666666669ZZ M8.164311994315688e-16,200L-5.773502691896261,210L5.773502691896256,210ZZ  M-2.6645352591003757e-15,200L11.547005383792511,200L5.773502691896261,190ZZ  M0,200L-5.773502691896254,190L-11.547005383792516,199.99999999999997ZZ   M-5.329070518200751e-15,186.66666666666666L23.094010767585022,186.66666666666669L11.547005383792522,166.66666666666666ZZ M11.547005383792516,180L5.7735026918962555,190L17.32050807568877,190ZZ  M11.547005383792513,180L23.094010767585026,180L17.320508075688778,170ZZ  M11.547005383792516,180L5.773502691896263,170L-8.881784197001252e-16,179.99999999999997ZZ   M0,186.66666666666666L-11.547005383792508,166.66666666666663L-23.094010767585033,186.66666666666663ZZ M-11.547005383792513,179.99999999999997L-17.320508075688775,189.99999999999997L-5.773502691896256,189.99999999999997ZZ  M-11.547005383792516,179.99999999999997L-1.7763568394002505e-15,179.99999999999997L-5.773502691896252,169.99999999999997ZZ  M-11.547005383792515,179.99999999999997L-17.320508075688767,169.99999999999997L-23.094010767585033,179.99999999999994ZZ    M-1.0658141036401503e-14,160L46.188021535170044,160.00000000000006L23.094010767585043,120.00000000000001ZZ M23.094010767585033,146.66666666666669L11.547005383792511,166.66666666666669L34.64101615137754,166.6666666666667ZZ M23.094010767585033,160.00000000000003L17.32050807568877,170.00000000000003L28.867513459481287,170.00000000000003ZZ  M23.09401076758503,160.00000000000003L34.64101615137754,160.00000000000003L28.867513459481295,150.00000000000003ZZ  M23.094010767585033,160.00000000000003L17.32050807568878,150.00000000000003L11.547005383792516,160ZZ   M23.094010767585026,146.66666666666669L46.18802153517005,146.6666666666667L34.641016151377556,126.6666666666667ZZ M34.64101615137755,140.00000000000003L28.867513459481287,150.00000000000003L40.414518843273804,150.00000000000003ZZ  M34.64101615137755,140.00000000000003L46.188021535170066,140.00000000000003L40.41451884327381,130.00000000000003ZZ  M34.64101615137755,140.00000000000003L28.867513459481298,130.00000000000003L23.094010767585033,140ZZ   M23.094010767585033,146.66666666666669L11.547005383792525,126.66666666666667L-1.7763568394002505e-15,146.66666666666666ZZ M11.54700538379252,140L5.773502691896259,150L17.320508075688778,150ZZ  M11.547005383792516,140L23.094010767585033,140L17.32050807568878,130ZZ  M11.54700538379252,140L5.773502691896266,130L2.6645352591003757e-15,139.99999999999997ZZ    M0,160L-23.094010767585015,119.99999999999999L-46.188021535170066,159.99999999999997ZZ M-23.094010767585026,146.66666666666666L-34.64101615137755,166.66666666666666L-11.547005383792513,166.66666666666669ZZ M-23.094010767585026,160L-28.867513459481287,170L-17.32050807568877,170ZZ  M-23.09401076758503,160L-11.547005383792515,160L-17.320508075688764,150ZZ  M-23.094010767585026,160L-28.867513459481277,150L-34.64101615137754,159.99999999999997ZZ   M-23.094010767585033,146.66666666666666L-3.552713678800501e-15,146.66666666666669L-11.547005383792504,126.66666666666667ZZ M-11.54700538379251,140L-17.32050807568877,150L-5.773502691896253,150ZZ  M-11.547005383792513,140L1.7763568394002505e-15,140L-5.773502691896248,130ZZ  M-11.547005383792508,140L-17.32050807568876,130L-23.094010767585026,139.99999999999997ZZ   M-23.09401076758503,146.66666666666666L-34.641016151377535,126.66666666666664L-46.188021535170066,146.66666666666663ZZ M-34.64101615137754,139.99999999999997L-40.414518843273804,149.99999999999997L-28.867513459481287,149.99999999999997ZZ  M-34.64101615137754,139.99999999999997L-23.094010767585033,139.99999999999997L-28.86751345948128,129.99999999999997ZZ  M-34.64101615137754,139.99999999999997L-40.4145188432738,129.99999999999997L-46.18802153517006,139.99999999999994ZZ     M-2.1316282072803006e-14,106.66666666666664L92.37604307034009,106.66666666666676L46.18802153517009,26.66666666666668ZZ M46.188021535170066,80.00000000000001L23.094010767585022,120L69.28203230275508,120.00000000000003ZZ M46.188021535170066,106.66666666666669L34.64101615137754,126.66666666666667L57.735026918962575,126.66666666666669ZZ M46.188021535170066,120.00000000000001L40.414518843273804,130.00000000000003L51.96152422706632,130.00000000000003ZZ  M46.18802153517006,120.00000000000001L57.735026918962575,120.00000000000003L51.96152422706632,110.00000000000001ZZ  M46.188021535170066,120.00000000000001L40.41451884327381,110L34.64101615137755,120ZZ   M46.18802153517006,106.66666666666669L69.28203230275508,106.66666666666671L57.73502691896259,86.6666666666667ZZ M57.73502691896258,100.00000000000003L51.96152422706632,110.00000000000003L63.50852961085884,110.00000000000004ZZ  M57.73502691896258,100.00000000000003L69.2820323027551,100.00000000000004L63.508529610858844,90.00000000000003ZZ  M57.73502691896258,100.00000000000003L51.96152422706633,90.00000000000001L46.188021535170066,100.00000000000001ZZ   M46.188021535170066,106.66666666666669L34.64101615137756,86.66666666666669L23.094010767585033,106.66666666666667ZZ M34.641016151377556,100.00000000000001L28.867513459481295,110.00000000000001L40.41451884327381,110.00000000000003ZZ  M34.64101615137755,100.00000000000001L46.188021535170066,100.00000000000003L40.41451884327381,90.00000000000001ZZ  M34.641016151377556,100.00000000000001L28.867513459481305,90L23.09401076758504,100ZZ    M46.18802153517005,80L92.3760430703401,80.00000000000006L69.28203230275511,40.000000000000014ZZ M69.2820323027551,66.66666666666669L57.735026918962575,86.66666666666667L80.82903768654761,86.66666666666669ZZ M69.2820323027551,80.00000000000001L63.50852961085884,90.00000000000001L75.05553499465135,90.00000000000003ZZ  M69.2820323027551,80.00000000000001L80.82903768654761,80.00000000000003L75.05553499465135,70.00000000000001ZZ  M69.2820323027551,80.00000000000001L63.508529610858844,70L57.73502691896258,80ZZ   M69.2820323027551,66.66666666666669L92.37604307034013,66.6666666666667L80.82903768654762,46.666666666666686ZZ M80.82903768654762,60.00000000000002L75.05553499465137,70.00000000000001L86.60254037844388,70.00000000000003ZZ  M80.82903768654762,60.000000000000014L92.37604307034013,60.00000000000003L86.60254037844388,50.00000000000002ZZ  M80.82903768654762,60.00000000000002L75.05553499465137,50.00000000000002L69.28203230275511,60.000000000000014ZZ   M69.2820323027551,66.66666666666669L57.735026918962596,46.66666666666668L46.188021535170066,66.66666666666667ZZ M57.73502691896259,60.00000000000002L51.96152422706633,70.00000000000001L63.508529610858844,70.00000000000003ZZ  M57.73502691896258,60.000000000000014L69.2820323027551,60.00000000000003L63.508529610858844,50.00000000000002ZZ  M57.73502691896259,60.000000000000014L51.961524227066334,50.000000000000014L46.18802153517007,60.00000000000001ZZ    M46.188021535170066,80.00000000000001L23.09401076758505,40L-3.552713678800501e-15,79.99999999999999ZZ M23.09401076758504,66.66666666666667L11.547005383792518,86.66666666666666L34.641016151377556,86.66666666666667ZZ M23.09401076758504,80L17.320508075688778,90L28.867513459481295,90.00000000000001ZZ  M23.094010767585036,80L34.64101615137755,80.00000000000001L28.8675134594813,70ZZ  M23.09401076758504,80L17.32050807568879,69.99999999999999L11.547005383792524,79.99999999999999ZZ   M23.094010767585033,66.66666666666667L46.188021535170066,66.66666666666669L34.64101615137756,46.66666666666667ZZ M34.641016151377556,60.00000000000001L28.867513459481295,70L40.41451884327381,70.00000000000001ZZ  M34.64101615137755,60L46.188021535170066,60.000000000000014L40.41451884327381,50.00000000000001ZZ  M34.641016151377556,60.00000000000001L28.867513459481305,50.00000000000001L23.09401076758504,60ZZ   M23.09401076758504,66.66666666666667L11.547005383792532,46.666666666666664L5.329070518200751e-15,66.66666666666666ZZ M11.547005383792527,60.00000000000001L5.773502691896266,70L17.320508075688785,70.00000000000001ZZ  M11.547005383792524,60L23.09401076758504,60.000000000000014L17.32050807568879,50.00000000000001ZZ  M11.547005383792527,60L5.773502691896273,50L9.769962616701378e-15,59.99999999999999ZZ     M0,106.66666666666667L-46.18802153517003,26.666666666666636L-92.37604307034013,106.6666666666666ZZ M-46.18802153517005,79.99999999999997L-69.2820323027551,119.99999999999996L-23.094010767585026,119.99999999999999ZZ M-46.18802153517005,106.66666666666664L-57.735026918962575,126.66666666666663L-34.64101615137754,126.66666666666664ZZ M-46.18802153517005,119.99999999999997L-51.96152422706631,129.99999999999997L-40.4145188432738,129.99999999999997ZZ  M-46.18802153517006,119.99999999999997L-34.64101615137754,119.99999999999999L-40.4145188432738,109.99999999999997ZZ  M-46.18802153517005,119.99999999999997L-51.961524227066306,109.99999999999996L-57.73502691896257,119.99999999999996ZZ   M-46.18802153517006,106.66666666666663L-23.09401076758503,106.66666666666666L-34.64101615137753,86.66666666666664ZZ M-34.641016151377535,99.99999999999997L-40.4145188432738,109.99999999999997L-28.86751345948128,109.99999999999999ZZ  M-34.641016151377535,99.99999999999997L-23.094010767585026,99.99999999999999L-28.867513459481273,89.99999999999997ZZ  M-34.641016151377535,99.99999999999997L-40.41451884327379,89.99999999999996L-46.18802153517005,99.99999999999996ZZ   M-46.18802153517005,106.66666666666664L-57.735026918962554,86.66666666666664L-69.28203230275508,106.66666666666663ZZ M-57.73502691896256,99.99999999999997L-63.50852961085882,109.99999999999997L-51.961524227066306,109.99999999999999ZZ  M-57.73502691896257,99.99999999999997L-46.18802153517005,99.99999999999999L-51.961524227066306,89.99999999999997ZZ  M-57.73502691896256,99.99999999999997L-63.508529610858815,89.99999999999996L-69.28203230275507,99.99999999999996ZZ    M-46.188021535170066,79.99999999999996L-7.105427357601002e-15,80.00000000000001L-23.094010767585008,39.99999999999997ZZ M-23.09401076758502,66.66666666666664L-34.64101615137754,86.66666666666663L-11.547005383792506,86.66666666666664ZZ M-23.09401076758502,79.99999999999997L-28.86751345948128,89.99999999999997L-17.320508075688764,89.99999999999999ZZ  M-23.094010767585022,79.99999999999997L-11.547005383792508,79.99999999999999L-17.320508075688757,69.99999999999997ZZ  M-23.09401076758502,79.99999999999997L-28.86751345948127,69.99999999999996L-34.641016151377535,79.99999999999996ZZ   M-23.094010767585026,66.66666666666664L3.552713678800501e-15,66.66666666666666L-11.547005383792497,46.66666666666664ZZ M-11.547005383792502,59.99999999999998L-17.320508075688764,69.99999999999997L-5.773502691896246,69.99999999999999ZZ  M-11.547005383792506,59.99999999999997L8.881784197001252e-15,59.999999999999986L-5.773502691896241,49.99999999999998ZZ  M-11.5470053837925,59.99999999999998L-17.320508075688753,49.99999999999998L-23.09401076758502,59.99999999999997ZZ   M-23.094010767585015,66.66666666666664L-34.64101615137752,46.666666666666636L-46.18802153517005,66.66666666666663ZZ M-34.64101615137753,59.99999999999998L-40.41451884327379,69.99999999999997L-28.867513459481273,69.99999999999999ZZ  M-34.64101615137753,59.99999999999997L-23.09401076758502,59.999999999999986L-28.867513459481266,49.99999999999998ZZ  M-34.64101615137753,59.99999999999997L-40.41451884327378,49.99999999999997L-46.188021535170044,59.999999999999964ZZ    M-46.18802153517006,79.99999999999997L-69.28203230275507,39.99999999999996L-92.37604307034013,79.99999999999994ZZ M-69.28203230275508,66.66666666666663L-80.82903768654761,86.66666666666661L-57.735026918962575,86.66666666666663ZZ M-69.28203230275508,79.99999999999996L-75.05553499465134,89.99999999999996L-63.50852961085883,89.99999999999997ZZ  M-69.28203230275508,79.99999999999996L-57.735026918962575,79.99999999999997L-63.50852961085883,69.99999999999996ZZ  M-69.28203230275508,79.99999999999996L-75.05553499465134,69.99999999999994L-80.8290376865476,79.99999999999994ZZ   M-69.28203230275508,66.66666666666663L-46.188021535170066,66.66666666666664L-57.73502691896256,46.66666666666663ZZ M-57.73502691896257,59.999999999999964L-63.50852961085883,69.99999999999996L-51.96152422706631,69.99999999999997ZZ  M-57.73502691896257,59.99999999999996L-46.18802153517005,59.99999999999997L-51.961524227066306,49.999999999999964ZZ  M-57.73502691896257,59.999999999999964L-63.50852961085882,49.999999999999964L-69.28203230275508,59.99999999999996ZZ   M-69.28203230275508,66.66666666666663L-80.8290376865476,46.66666666666662L-92.37604307034012,66.66666666666661ZZ M-80.8290376865476,59.999999999999964L-86.60254037844385,69.99999999999996L-75.05553499465134,69.99999999999997ZZ  M-80.8290376865476,59.99999999999996L-69.28203230275508,59.99999999999997L-75.05553499465134,49.999999999999964ZZ  M-80.8290376865476,59.99999999999996L-86.60254037844385,49.99999999999996L-92.3760430703401,59.99999999999995ZZ      M-4.263256414560601e-14,-4.973799150320701e-14L184.75208614068018,1.6342482922482304e-13L92.37604307034017,-160ZZ M92.37604307034013,-53.333333333333314L46.188021535170044,26.666666666666654L138.56406460551017,26.666666666666718ZZ M92.37604307034013,2.1316282072803006e-14L69.28203230275508,40.00000000000001L115.47005383792515,40.000000000000036ZZ M92.37604307034013,26.666666666666686L80.82903768654761,46.66666666666668L103.92304845413264,46.66666666666669ZZ M92.37604307034013,40.00000000000002L86.60254037844388,50.000000000000014L98.14954576223639,50.00000000000002ZZ  M92.37604307034013,40.000000000000014L103.92304845413264,40.00000000000003L98.14954576223639,30.000000000000018ZZ  M92.37604307034013,40.00000000000002L86.60254037844388,30.000000000000018L80.82903768654762,40.000000000000014ZZ   M92.37604307034012,26.666666666666682L115.47005383792515,26.66666666666671L103.92304845413264,6.666666666666691ZZ M103.92304845413264,20.000000000000025L98.14954576223639,30.00000000000002L109.6965511460289,30.00000000000003ZZ  M103.92304845413264,20.00000000000002L115.47005383792515,20.000000000000036L109.6965511460289,10.000000000000025ZZ  M103.92304845413264,20.000000000000025L98.14954576223639,10.000000000000021L92.37604307034013,20.000000000000018ZZ   M92.37604307034013,26.66666666666669L80.82903768654762,6.66666666666668L69.2820323027551,26.66666666666667ZZ M80.82903768654762,20.000000000000014L75.05553499465137,30.00000000000001L86.60254037844388,30.000000000000018ZZ  M80.82903768654762,20.00000000000001L92.37604307034013,20.000000000000025L86.60254037844388,10.000000000000014ZZ  M80.82903768654762,20.000000000000014L75.05553499465137,10.00000000000001L69.28203230275511,20.000000000000007ZZ    M92.37604307034012,8.881784197001252e-15L138.56406460551017,6.217248937900877e-14L115.47005383792518,-39.99999999999997ZZ M115.47005383792516,-13.333333333333307L103.92304845413264,6.666666666666685L127.01705922171767,6.666666666666701ZZ M115.47005383792516,2.6645352591003757e-14L109.69655114602891,10.000000000000023L121.24355652982142,10.00000000000003ZZ  M115.47005383792516,2.353672812205332e-14L127.01705922171767,3.68594044175552e-14L121.24355652982142,-9.999999999999972ZZ  M115.47005383792516,2.708944180085382e-14L109.69655114602891,-9.999999999999977L103.92304845413265,1.7763568394002505e-14ZZ   M115.47005383792516,-13.333333333333314L138.5640646055102,-13.333333333333286L127.01705922171769,-33.33333333333331ZZ M127.01705922171769,-19.99999999999997L121.24355652982143,-9.999999999999975L132.79056191361394,-9.999999999999966ZZ  M127.01705922171769,-19.999999999999975L138.5640646055102,-19.99999999999996L132.79056191361394,-29.99999999999997ZZ  M127.01705922171769,-19.99999999999997L121.24355652982143,-29.999999999999975L115.47005383792518,-19.99999999999998ZZ   M115.47005383792516,-13.333333333333304L103.92304845413265,-33.333333333333314L92.37604307034013,-13.333333333333323ZZ M103.92304845413265,-19.99999999999998L98.1495457622364,-9.999999999999982L109.69655114602891,-9.999999999999973ZZ  M103.92304845413265,-19.999999999999982L115.47005383792516,-19.999999999999968L109.69655114602891,-29.99999999999998ZZ  M103.92304845413265,-19.99999999999998L98.1495457622364,-29.999999999999982L92.37604307034015,-19.999999999999986ZZ    M92.37604307034013,2.3092638912203256e-14L69.28203230275513,-39.99999999999999L46.188021535170066,-1.4210854715202004e-14ZZ M69.28203230275511,-13.333333333333325L57.73502691896259,6.666666666666667L80.82903768654762,6.666666666666683ZZ M69.28203230275511,8.881784197001252e-15L63.50852961085885,10.000000000000005L75.05553499465137,10.000000000000012ZZ  M69.28203230275511,5.773159728050814e-15L80.82903768654762,1.9095836023552692e-14L75.05553499465137,-9.99999999999999ZZ  M69.28203230275511,9.325873406851315e-15L63.50852961085886,-9.999999999999995L57.735026918962596,0ZZ   M69.2820323027551,-13.333333333333332L92.37604307034013,-13.333333333333304L80.82903768654762,-33.33333333333332ZZ M80.82903768654762,-19.99999999999999L75.05553499465137,-9.999999999999993L86.60254037844388,-9.999999999999984ZZ  M80.82903768654762,-19.999999999999993L92.37604307034013,-19.99999999999998L86.60254037844388,-29.99999999999999ZZ  M80.82903768654762,-19.99999999999999L75.05553499465137,-29.999999999999993L69.28203230275511,-19.999999999999996ZZ   M69.28203230275511,-13.333333333333325L57.73502691896261,-33.333333333333336L46.18802153517008,-13.333333333333345ZZ M57.7350269189626,-20L51.96152422706634,-10.000000000000004L63.50852961085886,-9.999999999999995ZZ  M57.735026918962596,-20.000000000000004L69.28203230275511,-19.99999999999999L63.50852961085886,-30ZZ  M57.7350269189626,-20L51.96152422706635,-30.000000000000004L46.18802153517009,-20.000000000000007ZZ     M92.3760430703401,-53.33333333333334L184.7520861406802,-53.33333333333323L138.56406460551023,-133.33333333333331ZZ M138.5640646055102,-79.99999999999997L115.47005383792515,-39.999999999999986L161.65807537309522,-39.99999999999995ZZ M138.5640646055102,-53.3333333333333L127.01705922171767,-33.33333333333331L150.1110699893027,-33.33333333333329ZZ M138.5640646055102,-39.999999999999964L132.79056191361394,-29.99999999999997L144.33756729740645,-29.999999999999964ZZ  M138.5640646055102,-39.99999999999997L150.1110699893027,-39.99999999999996L144.33756729740645,-49.999999999999964ZZ  M138.5640646055102,-39.999999999999964L132.79056191361394,-49.999999999999964L127.01705922171769,-39.99999999999997ZZ   M138.5640646055102,-53.33333333333331L161.65807537309522,-53.33333333333328L150.1110699893027,-73.3333333333333ZZ M150.1110699893027,-59.999999999999964L144.33756729740645,-49.99999999999997L155.88457268119896,-49.999999999999964ZZ  M150.1110699893027,-59.99999999999997L161.65807537309522,-59.99999999999996L155.88457268119896,-69.99999999999997ZZ  M150.1110699893027,-59.999999999999964L144.33756729740645,-69.99999999999997L138.5640646055102,-59.99999999999997ZZ   M138.5640646055102,-53.3333333333333L127.01705922171769,-73.3333333333333L115.47005383792516,-53.333333333333314ZZ M127.01705922171769,-59.99999999999997L121.24355652982143,-49.99999999999998L132.79056191361394,-49.99999999999997ZZ  M127.01705922171769,-59.99999999999997L138.5640646055102,-59.99999999999996L132.79056191361394,-69.99999999999997ZZ  M127.01705922171769,-59.99999999999997L121.24355652982143,-69.99999999999997L115.47005383792518,-59.99999999999998ZZ    M138.5640646055102,-79.99999999999999L184.75208614068026,-79.99999999999993L161.65807537309524,-119.99999999999997ZZ M161.65807537309524,-93.3333333333333L150.11106998930273,-73.33333333333331L173.20508075688775,-73.3333333333333ZZ M161.65807537309524,-79.99999999999997L155.884572681199,-69.99999999999997L167.4315780649915,-69.99999999999996ZZ  M161.65807537309524,-79.99999999999997L173.20508075688775,-79.99999999999996L167.4315780649915,-89.99999999999997ZZ  M161.65807537309524,-79.99999999999997L155.884572681199,-89.99999999999999L150.11106998930273,-79.99999999999999ZZ   M161.65807537309524,-93.33333333333331L184.75208614068026,-93.33333333333329L173.20508075688775,-113.3333333333333ZZ M173.20508075688775,-99.99999999999997L167.4315780649915,-89.99999999999997L178.978583448784,-89.99999999999996ZZ  M173.20508075688775,-99.99999999999997L184.75208614068026,-99.99999999999996L178.978583448784,-109.99999999999997ZZ  M173.20508075688775,-99.99999999999997L167.4315780649915,-109.99999999999999L161.65807537309524,-99.99999999999999ZZ   M161.65807537309524,-93.3333333333333L150.11106998930273,-113.3333333333333L138.56406460551023,-93.33333333333331ZZ M150.11106998930273,-99.99999999999997L144.33756729740648,-89.99999999999997L155.884572681199,-89.99999999999996ZZ  M150.11106998930273,-99.99999999999997L161.65807537309524,-99.99999999999996L155.884572681199,-109.99999999999997ZZ  M150.11106998930273,-99.99999999999997L144.33756729740648,-109.99999999999999L138.56406460551023,-99.99999999999999ZZ    M138.5640646055102,-79.99999999999997L115.47005383792519,-119.99999999999999L92.37604307034013,-80ZZ M115.47005383792518,-93.33333333333331L103.92304845413265,-73.33333333333333L127.01705922171769,-73.33333333333331ZZ M115.47005383792518,-79.99999999999999L109.69655114602892,-69.99999999999999L121.24355652982143,-69.99999999999997ZZ  M115.47005383792518,-79.99999999999999L127.01705922171769,-79.99999999999997L121.24355652982143,-89.99999999999999ZZ  M115.47005383792518,-79.99999999999999L109.69655114602892,-90L103.92304845413267,-80ZZ   M115.47005383792516,-93.33333333333331L138.5640646055102,-93.33333333333329L127.01705922171769,-113.3333333333333ZZ M127.01705922171769,-99.99999999999997L121.24355652982143,-89.99999999999997L132.79056191361394,-89.99999999999996ZZ  M127.01705922171769,-99.99999999999997L138.5640646055102,-99.99999999999996L132.79056191361394,-109.99999999999997ZZ  M127.01705922171769,-99.99999999999997L121.24355652982143,-109.99999999999999L115.47005383792518,-99.99999999999999ZZ   M115.47005383792518,-93.33333333333331L103.92304845413267,-113.33333333333331L92.37604307034015,-93.33333333333333ZZ M103.92304845413267,-99.99999999999999L98.14954576223641,-89.99999999999999L109.69655114602892,-89.99999999999997ZZ  M103.92304845413267,-99.99999999999999L115.47005383792518,-99.99999999999997L109.69655114602892,-109.99999999999999ZZ  M103.92304845413267,-99.99999999999999L98.14954576223641,-110L92.37604307034016,-100ZZ     M92.37604307034013,-53.3333333333333L46.1880215351701,-133.33333333333334L-7.105427357601002e-15,-53.33333333333338ZZ M46.18802153517008,-80L23.094010767585036,-40.000000000000014L69.28203230275511,-39.99999999999998ZZ M46.18802153517008,-53.33333333333333L34.641016151377556,-33.333333333333336L57.73502691896259,-33.33333333333332ZZ M46.18802153517008,-39.99999999999999L40.41451884327382,-30L51.961524227066334,-29.999999999999993ZZ  M46.18802153517007,-40L57.73502691896259,-39.999999999999986L51.961524227066334,-49.99999999999999ZZ  M46.18802153517008,-39.99999999999999L40.414518843273825,-49.99999999999999L34.64101615137756,-40ZZ   M46.18802153517007,-53.333333333333336L69.2820323027551,-53.33333333333331L57.7350269189626,-73.33333333333333ZZ M57.735026918962596,-59.99999999999999L51.961524227066334,-50L63.50852961085885,-49.99999999999999ZZ  M57.735026918962596,-60L69.28203230275511,-59.999999999999986L63.50852961085886,-70ZZ  M57.735026918962596,-59.99999999999999L51.96152422706634,-70L46.18802153517008,-60ZZ   M46.18802153517008,-53.33333333333333L34.64101615137758,-73.33333333333333L23.094010767585047,-53.33333333333334ZZ M34.64101615137757,-60L28.86751345948131,-50.00000000000001L40.414518843273825,-50ZZ  M34.64101615137756,-60L46.18802153517008,-59.999999999999986L40.414518843273825,-70ZZ  M34.64101615137757,-60L28.86751345948132,-70L23.094010767585054,-60.00000000000001ZZ    M46.188021535170066,-80.00000000000001L92.37604307034013,-79.99999999999996L69.28203230275513,-120ZZ M69.28203230275511,-93.33333333333333L57.73502691896259,-73.33333333333334L80.82903768654762,-73.33333333333333ZZ M69.28203230275511,-80L63.50852961085885,-70L75.05553499465137,-69.99999999999999ZZ  M69.28203230275511,-80L80.82903768654762,-79.99999999999999L75.05553499465137,-90ZZ  M69.28203230275511,-80L63.50852961085886,-90.00000000000001L57.735026918962596,-80.00000000000001ZZ   M69.2820323027551,-93.33333333333334L92.37604307034013,-93.33333333333331L80.82903768654762,-113.33333333333333ZZ M80.82903768654762,-100L75.05553499465137,-90L86.60254037844388,-89.99999999999999ZZ  M80.82903768654762,-100L92.37604307034013,-99.99999999999999L86.60254037844388,-110ZZ  M80.82903768654762,-100L75.05553499465137,-110.00000000000001L69.28203230275511,-100.00000000000001ZZ   M69.28203230275511,-93.33333333333333L57.73502691896261,-113.33333333333333L46.18802153517008,-93.33333333333334ZZ M57.7350269189626,-100L51.96152422706634,-90L63.50852961085886,-89.99999999999999ZZ  M57.735026918962596,-100L69.28203230275511,-99.99999999999999L63.50852961085886,-110ZZ  M57.7350269189626,-100L51.96152422706635,-110.00000000000001L46.18802153517009,-100.00000000000001ZZ    M46.18802153517008,-80L23.094010767585065,-120.00000000000001L1.0658141036401503e-14,-80.00000000000003ZZ M23.094010767585054,-93.33333333333334L11.547005383792532,-73.33333333333336L34.64101615137757,-73.33333333333334ZZ M23.094010767585054,-80.00000000000001L17.320508075688792,-70.00000000000001L28.86751345948131,-70ZZ  M23.09401076758505,-80.00000000000001L34.64101615137756,-80L28.867513459481316,-90.00000000000001ZZ  M23.094010767585054,-80.00000000000001L17.320508075688803,-90.00000000000003L11.547005383792538,-80.00000000000003ZZ   M23.094010767585047,-93.33333333333334L46.18802153517008,-93.33333333333331L34.64101615137758,-113.33333333333333ZZ M34.64101615137757,-100L28.86751345948131,-90L40.414518843273825,-89.99999999999999ZZ  M34.64101615137756,-100L46.18802153517008,-99.99999999999999L40.414518843273825,-110ZZ  M34.64101615137757,-100L28.86751345948132,-110.00000000000001L23.094010767585054,-100.00000000000001ZZ   M23.094010767585054,-93.33333333333334L11.547005383792547,-113.33333333333334L1.9539925233402755e-14,-93.33333333333336ZZ M11.547005383792541,-100.00000000000001L5.77350269189628,-90.00000000000001L17.3205080756888,-90ZZ  M11.547005383792538,-100.00000000000001L23.094010767585054,-100L17.320508075688803,-110.00000000000001ZZ  M11.547005383792541,-100.00000000000001L5.7735026918962875,-110.00000000000003L2.398081733190338e-14,-100.00000000000003ZZ      M0,7.105427357601002e-15L-92.37604307034006,-160.00000000000006L-184.75208614068026,-1.4210854715202004e-13ZZ M-92.3760430703401,-53.333333333333385L-138.5640646055102,26.666666666666583L-46.18802153517005,26.666666666666647ZZ M-92.3760430703401,-4.973799150320701e-14L-115.47005383792515,39.999999999999936L-69.28203230275508,39.999999999999964ZZ M-92.3760430703401,26.666666666666615L-103.92304845413263,46.66666666666661L-80.8290376865476,46.66666666666662ZZ M-92.3760430703401,39.99999999999995L-98.14954576223636,49.99999999999994L-86.60254037844385,49.99999999999995ZZ  M-92.3760430703401,39.99999999999994L-80.8290376865476,39.99999999999996L-86.60254037844385,29.999999999999947ZZ  M-92.3760430703401,39.99999999999995L-98.14954576223636,29.999999999999947L-103.92304845413261,39.99999999999994ZZ   M-92.37604307034012,26.66666666666661L-69.28203230275508,26.66666666666664L-80.8290376865476,6.66666666666662ZZ M-80.8290376865476,19.999999999999954L-86.60254037844385,29.99999999999995L-75.05553499465134,29.999999999999957ZZ  M-80.8290376865476,19.99999999999995L-69.28203230275508,19.999999999999964L-75.05553499465134,9.999999999999954ZZ  M-80.8290376865476,19.999999999999954L-86.60254037844385,9.99999999999995L-92.3760430703401,19.999999999999947ZZ   M-92.3760430703401,26.666666666666618L-103.92304845413261,6.666666666666609L-115.47005383792514,26.6666666666666ZZ M-103.92304845413261,19.999999999999943L-109.69655114602887,29.99999999999994L-98.14954576223636,29.999999999999947ZZ  M-103.92304845413261,19.99999999999994L-92.3760430703401,19.999999999999954L-98.14954576223636,9.999999999999943ZZ  M-103.92304845413261,19.999999999999943L-109.69655114602887,9.99999999999994L-115.47005383792512,19.999999999999936ZZ    M-92.37604307034012,-6.217248937900877e-14L-46.18802153517006,-8.881784197001252e-15L-69.28203230275506,-40.00000000000004ZZ M-69.28203230275507,-13.333333333333378L-80.8290376865476,6.666666666666614L-57.73502691896256,6.66666666666663ZZ M-69.28203230275507,-4.440892098500626e-14L-75.05553499465132,9.999999999999952L-63.508529610858815,9.99999999999996ZZ  M-69.28203230275507,-4.75175454539567e-14L-57.73502691896256,-3.419486915845482e-14L-63.508529610858815,-10.000000000000043ZZ  M-69.28203230275507,-4.39648317751562e-14L-75.05553499465132,-10.000000000000048L-80.82903768654758,-5.3290705182007514e-14ZZ   M-69.28203230275507,-13.333333333333385L-46.18802153517005,-13.333333333333357L-57.73502691896255,-33.33333333333338ZZ M-57.735026918962554,-20.000000000000043L-63.508529610858815,-10.000000000000046L-51.9615242270663,-10.000000000000037ZZ  M-57.735026918962554,-20.000000000000046L-46.18802153517004,-20.000000000000032L-51.96152422706629,-30.000000000000043ZZ  M-57.735026918962554,-20.000000000000043L-63.50852961085881,-30.000000000000046L-69.28203230275507,-20.00000000000005ZZ   M-69.28203230275507,-13.333333333333375L-80.82903768654758,-33.333333333333385L-92.3760430703401,-13.333333333333394ZZ M-80.82903768654758,-20.00000000000005L-86.60254037844383,-10.000000000000053L-75.05553499465132,-10.000000000000044ZZ  M-80.82903768654758,-20.000000000000053L-69.28203230275507,-20.00000000000004L-75.05553499465132,-30.00000000000005ZZ  M-80.82903768654758,-20.00000000000005L-86.60254037844383,-30.000000000000053L-92.37604307034009,-20.000000000000057ZZ    M-92.3760430703401,-4.796163466380676e-14L-115.47005383792511,-40.000000000000064L-138.56406460551017,-8.526512829121202e-14ZZ M-115.47005383792512,-13.333333333333396L-127.01705922171764,6.666666666666596L-103.92304845413261,6.666666666666612ZZ M-115.47005383792512,-6.217248937900877e-14L-121.24355652982138,9.999999999999934L-109.69655114602887,9.999999999999941ZZ  M-115.47005383792512,-6.52811138479592e-14L-103.92304845413261,-5.1958437552457326e-14L-109.69655114602887,-10.00000000000006ZZ  M-115.47005383792512,-6.17284001691587e-14L-121.24355652982138,-10.000000000000066L-127.01705922171763,-7.105427357601002e-14ZZ   M-115.47005383792514,-13.333333333333403L-92.3760430703401,-13.333333333333375L-103.92304845413261,-33.33333333333339ZZ M-103.92304845413261,-20.00000000000006L-109.69655114602887,-10.000000000000064L-98.14954576223636,-10.000000000000055ZZ  M-103.92304845413261,-20.000000000000064L-92.3760430703401,-20.00000000000005L-98.14954576223636,-30.00000000000006ZZ  M-103.92304845413261,-20.00000000000006L-109.69655114602887,-30.000000000000064L-115.47005383792512,-20.000000000000068ZZ   M-115.47005383792512,-13.333333333333396L-127.01705922171763,-33.33333333333341L-138.56406460551014,-13.333333333333416ZZ M-127.01705922171763,-20.00000000000007L-132.79056191361389,-10.000000000000075L-121.24355652982138,-10.000000000000066ZZ  M-127.01705922171763,-20.000000000000075L-115.47005383792512,-20.00000000000006L-121.24355652982138,-30.00000000000007ZZ  M-127.01705922171763,-20.00000000000007L-132.79056191361389,-30.000000000000075L-138.56406460551014,-20.000000000000078ZZ     M-92.37604307034013,-53.333333333333414L-1.4210854715202004e-14,-53.3333333333333L-46.188021535170016,-133.33333333333337ZZ M-46.18802153517004,-80.00000000000004L-69.28203230275508,-40.00000000000006L-23.09401076758501,-40.00000000000002ZZ M-46.18802153517004,-53.33333333333337L-57.73502691896256,-33.33333333333338L-34.64101615137753,-33.333333333333364ZZ M-46.18802153517004,-40.000000000000036L-51.9615242270663,-30.000000000000043L-40.41451884327378,-30.000000000000036ZZ  M-46.188021535170044,-40.00000000000004L-34.64101615137753,-40.00000000000003L-40.41451884327378,-50.000000000000036ZZ  M-46.18802153517004,-40.000000000000036L-51.96152422706629,-50.000000000000036L-57.735026918962554,-40.00000000000004ZZ   M-46.188021535170044,-53.33333333333338L-23.094010767585015,-53.33333333333335L-34.641016151377514,-73.33333333333337ZZ M-34.64101615137752,-60.000000000000036L-40.41451884327378,-50.00000000000004L-28.867513459481266,-50.000000000000036ZZ  M-34.64101615137752,-60.00000000000004L-23.09401076758501,-60.00000000000003L-28.86751345948126,-70.00000000000004ZZ  M-34.64101615137752,-60.000000000000036L-40.414518843273775,-70.00000000000004L-46.18802153517004,-60.00000000000004ZZ   M-46.18802153517004,-53.33333333333337L-57.73502691896254,-73.33333333333337L-69.28203230275507,-53.333333333333385ZZ M-57.73502691896255,-60.00000000000004L-63.50852961085881,-50.00000000000005L-51.96152422706629,-50.00000000000004ZZ  M-57.735026918962554,-60.00000000000004L-46.18802153517004,-60.00000000000003L-51.96152422706629,-70.00000000000004ZZ  M-57.73502691896255,-60.00000000000004L-63.5085296108588,-70.00000000000004L-69.28203230275506,-60.00000000000005ZZ    M-46.18802153517005,-80.00000000000006L7.105427357601002e-15,-80L-23.094010767584994,-120.00000000000004ZZ M-23.094010767585004,-93.33333333333337L-34.64101615137753,-73.33333333333339L-11.547005383792492,-73.33333333333337ZZ M-23.094010767585004,-80.00000000000004L-28.867513459481266,-70.00000000000004L-17.32050807568875,-70.00000000000003ZZ  M-23.094010767585008,-80.00000000000004L-11.547005383792493,-80.00000000000003L-17.320508075688743,-90.00000000000004ZZ  M-23.094010767585004,-80.00000000000004L-28.867513459481255,-90.00000000000006L-34.64101615137752,-80.00000000000006ZZ   M-23.09401076758501,-93.33333333333337L1.7763568394002505e-14,-93.33333333333334L-11.547005383792483,-113.33333333333336ZZ M-11.547005383792488,-100.00000000000003L-17.32050807568875,-90.00000000000003L-5.7735026918962316,-90.00000000000001ZZ  M-11.547005383792492,-100.00000000000003L2.3092638912203256e-14,-100.00000000000001L-5.773502691896227,-110.00000000000003ZZ  M-11.547005383792486,-100.00000000000003L-17.32050807568874,-110.00000000000004L-23.094010767585004,-100.00000000000004ZZ   M-23.094010767585,-93.33333333333337L-34.64101615137751,-113.33333333333337L-46.18802153517004,-93.33333333333339ZZ M-34.641016151377514,-100.00000000000004L-40.414518843273775,-90.00000000000004L-28.86751345948126,-90.00000000000003ZZ  M-34.641016151377514,-100.00000000000004L-23.094010767585004,-100.00000000000003L-28.867513459481252,-110.00000000000004ZZ  M-34.641016151377514,-100.00000000000004L-40.41451884327377,-110.00000000000006L-46.18802153517003,-100.00000000000006ZZ    M-46.18802153517003,-80.00000000000004L-69.28203230275504,-120.00000000000006L-92.3760430703401,-80.00000000000007ZZ M-69.28203230275506,-93.33333333333339L-80.82903768654758,-73.3333333333334L-57.73502691896255,-73.33333333333339ZZ M-69.28203230275506,-80.00000000000006L-75.05553499465131,-70.00000000000006L-63.5085296108588,-70.00000000000004ZZ  M-69.28203230275506,-80.00000000000006L-57.73502691896255,-80.00000000000004L-63.5085296108588,-90.00000000000006ZZ  M-69.28203230275506,-80.00000000000006L-75.05553499465131,-90.00000000000007L-80.82903768654757,-80.00000000000007ZZ   M-69.28203230275506,-93.3333333333334L-46.18802153517004,-93.33333333333337L-57.73502691896253,-113.33333333333339ZZ M-57.73502691896254,-100.00000000000006L-63.5085296108588,-90.00000000000006L-51.961524227066285,-90.00000000000004ZZ  M-57.73502691896254,-100.00000000000006L-46.18802153517002,-100.00000000000004L-51.96152422706628,-110.00000000000006ZZ  M-57.73502691896254,-100.00000000000006L-63.508529610858794,-110.00000000000007L-69.28203230275506,-100.00000000000007ZZ   M-69.28203230275506,-93.33333333333339L-80.82903768654757,-113.33333333333339L-92.37604307034009,-93.3333333333334ZZ M-80.82903768654757,-100.00000000000006L-86.60254037844382,-90.00000000000006L-75.05553499465131,-90.00000000000004ZZ  M-80.82903768654757,-100.00000000000006L-69.28203230275506,-100.00000000000004L-75.05553499465131,-110.00000000000006ZZ  M-80.82903768654757,-100.00000000000006L-86.60254037844382,-110.00000000000007L-92.37604307034007,-100.00000000000007ZZ     M-92.37604307034012,-53.333333333333385L-138.56406460551014,-133.33333333333343L-184.75208614068026,-53.333333333333464ZZ M-138.56406460551017,-80.00000000000009L-161.65807537309522,-40.0000000000001L-115.47005383792515,-40.000000000000064ZZ M-138.56406460551017,-53.333333333333414L-150.11106998930268,-33.33333333333342L-127.01705922171766,-33.33333333333341ZZ M-138.56406460551017,-40.00000000000008L-144.33756729740642,-30.000000000000085L-132.7905619136139,-30.000000000000078ZZ  M-138.56406460551017,-40.000000000000085L-127.01705922171766,-40.00000000000007L-132.7905619136139,-50.00000000000008ZZ  M-138.56406460551017,-40.00000000000008L-144.33756729740642,-50.00000000000008L-150.11106998930268,-40.000000000000085ZZ   M-138.56406460551017,-53.33333333333342L-115.47005383792515,-53.33333333333339L-127.01705922171766,-73.33333333333341ZZ M-127.01705922171766,-60.00000000000008L-132.7905619136139,-50.000000000000085L-121.2435565298214,-50.00000000000008ZZ  M-127.01705922171766,-60.000000000000085L-115.47005383792515,-60.00000000000007L-121.2435565298214,-70.00000000000009ZZ  M-127.01705922171766,-60.00000000000008L-132.7905619136139,-70.00000000000009L-138.56406460551017,-60.000000000000085ZZ   M-138.56406460551017,-53.333333333333414L-150.11106998930268,-73.33333333333341L-161.6580753730952,-53.33333333333343ZZ M-150.11106998930268,-60.000000000000085L-155.88457268119893,-50.00000000000009L-144.33756729740642,-50.000000000000085ZZ  M-150.11106998930268,-60.000000000000085L-138.56406460551017,-60.00000000000007L-144.33756729740642,-70.00000000000009ZZ  M-150.11106998930268,-60.000000000000085L-155.88457268119893,-70.00000000000009L-161.6580753730952,-60.00000000000009ZZ    M-138.56406460551017,-80.0000000000001L-92.37604307034013,-80.00000000000004L-115.47005383792512,-120.00000000000009ZZ M-115.47005383792514,-93.33333333333341L-127.01705922171766,-73.33333333333343L-103.92304845413263,-73.33333333333341ZZ M-115.47005383792514,-80.00000000000009L-121.24355652982139,-70.00000000000009L-109.69655114602888,-70.00000000000007ZZ  M-115.47005383792514,-80.00000000000009L-103.92304845413263,-80.00000000000007L-109.69655114602888,-90.00000000000009ZZ  M-115.47005383792514,-80.00000000000009L-121.24355652982139,-90.0000000000001L-127.01705922171764,-80.0000000000001ZZ   M-115.47005383792514,-93.33333333333343L-92.3760430703401,-93.3333333333334L-103.92304845413261,-113.33333333333341ZZ M-103.92304845413261,-100.00000000000009L-109.69655114602887,-90.00000000000009L-98.14954576223636,-90.00000000000007ZZ  M-103.92304845413261,-100.00000000000009L-92.3760430703401,-100.00000000000007L-98.14954576223636,-110.00000000000009ZZ  M-103.92304845413261,-100.00000000000009L-109.69655114602887,-110.0000000000001L-115.47005383792512,-100.0000000000001ZZ   M-115.47005383792514,-93.33333333333341L-127.01705922171764,-113.33333333333341L-138.56406460551017,-93.33333333333343ZZ M-127.01705922171764,-100.00000000000009L-132.7905619136139,-90.00000000000009L-121.24355652982139,-90.00000000000007ZZ  M-127.01705922171764,-100.00000000000009L-115.47005383792514,-100.00000000000007L-121.24355652982139,-110.00000000000009ZZ  M-127.01705922171766,-100.00000000000009L-132.7905619136139,-110.0000000000001L-138.56406460551017,-100.0000000000001ZZ    M-138.56406460551017,-80.00000000000009L-161.6580753730952,-120.0000000000001L-184.75208614068023,-80.00000000000011ZZ M-161.6580753730952,-93.33333333333343L-173.2050807568877,-73.33333333333344L-150.11106998930268,-73.33333333333343ZZ M-161.6580753730952,-80.0000000000001L-167.43157806499144,-70.0000000000001L-155.88457268119893,-70.00000000000009ZZ  M-161.6580753730952,-80.0000000000001L-150.11106998930268,-80.00000000000009L-155.88457268119893,-90.0000000000001ZZ  M-161.6580753730952,-80.0000000000001L-167.43157806499144,-90.00000000000011L-173.2050807568877,-80.00000000000011ZZ   M-161.6580753730952,-93.33333333333343L-138.56406460551017,-93.3333333333334L-150.11106998930268,-113.33333333333341ZZ M-150.11106998930268,-100.00000000000009L-155.88457268119893,-90.00000000000009L-144.33756729740642,-90.00000000000007ZZ  M-150.11106998930268,-100.00000000000009L-138.56406460551017,-100.00000000000007L-144.33756729740642,-110.00000000000009ZZ  M-150.11106998930268,-100.00000000000009L-155.88457268119893,-110.0000000000001L-161.6580753730952,-100.0000000000001ZZ   M-161.6580753730952,-93.33333333333343L-173.2050807568877,-113.33333333333343L-184.7520861406802,-93.33333333333344ZZ M-173.2050807568877,-100.0000000000001L-178.97858344878395,-90.0000000000001L-167.43157806499144,-90.00000000000009ZZ  M-173.2050807568877,-100.0000000000001L-161.6580753730952,-100.00000000000009L-167.43157806499144,-110.0000000000001ZZ  M-173.2050807568877,-100.0000000000001L-178.97858344878395,-110.00000000000011L-184.7520861406802,-100.00000000000011ZZ      " class="fore"></path></g></svg>