<svg xmlns="http://www.w3.org/2000/svg" width="640" height="640" viewport-fill="#000"><defs><style type="text/css">text{ font-family: Freemono, Sans, Arial; fill: #555} 
</style></defs><rect x="0" y="0" width="640" height="640" fill="#101010" stroke="#707070"></rect><g fill-rule="evenodd" transform="translate(320,320)"><path d="M184.75208614068023,106.6666666666667L2.6125798381810203e-14,-213.33333333333334L-184.75208614068035,106.66666666666653ZZ M0,106.66666666666667L46.188021535170066,26.66666666666668L-46.18802153517005,26.666666666666643ZZ M11.547005383792515,73.33333333333334L1.6328623988631377e-15,53.333333333333336L-11.547005383792522,73.33333333333333ZZ M0,73.33333333333333L2.886751345948129,68.33333333333333L-2.886751345948128,68.33333333333333ZZ M0.7216878364870322,71.25L1.020538999289461e-16,70L-0.7216878364870326,71.25ZZ  M1.4433756729740645,70L0.7216878364870324,68.75L-3.3306690738754696e-16,70ZZ  M1.1102230246251565e-16,70L-0.7216878364870319,68.75L-1.4433756729740645,70ZZ   M2.886751345948129,68.33333333333333L5.773502691896258,63.333333333333336L8.881784197001252e-16,63.33333333333333ZZ M3.6084391824351614,66.25L2.886751345948129,65L2.1650635094610964,66.25ZZ  M4.330127018922194,65L3.6084391824351614,63.74999999999999L2.8867513459481287,65ZZ  M2.8867513459481295,65L2.1650635094610973,63.74999999999999L1.4433756729740645,65ZZ   M-2.886751345948128,68.33333333333333L8.881784197001252e-16,63.333333333333336L-5.773502691896256,63.33333333333333ZZ M-2.165063509461096,66.25L-2.886751345948128,65L-3.608439182435161,66.25ZZ  M-1.4433756729740637,65L-2.165063509461096,63.74999999999999L-2.8867513459481287,65ZZ  M-2.8867513459481278,65L-3.60843918243516,63.74999999999999L-4.330127018922193,65ZZ    M23.094010767585033,53.33333333333334L11.547005383792518,33.333333333333336L-5.329070518200751e-15,53.33333333333333ZZ M11.547005383792516,53.33333333333334L14.433756729740645,48.33333333333334L8.660254037844389,48.333333333333336ZZ M12.268693220279548,51.25000000000001L11.547005383792516,50.00000000000001L10.825317547305485,51.25000000000001ZZ  M12.99038105676658,50.00000000000001L12.268693220279548,48.75000000000001L11.547005383792516,50.00000000000001ZZ  M11.547005383792516,50.00000000000001L10.825317547305485,48.75000000000001L10.103629710818453,50.00000000000001ZZ   M14.433756729740645,48.33333333333334L17.320508075688775,43.33333333333334L11.547005383792516,43.333333333333336ZZ M15.155444566227677,46.25000000000001L14.433756729740645,45.00000000000001L13.712068893253614,46.25000000000001ZZ  M15.87713240271471,45.00000000000001L15.155444566227677,43.75000000000001L14.433756729740645,45.00000000000001ZZ  M14.433756729740645,45.00000000000001L13.712068893253614,43.75000000000001L12.990381056766582,45.00000000000001ZZ   M8.660254037844389,48.333333333333336L11.547005383792518,43.333333333333336L5.773502691896261,43.33333333333333ZZ M9.381941874331421,46.25L8.660254037844389,45L7.938566201357356,46.25ZZ  M10.103629710818453,45L9.381941874331421,43.75L8.660254037844389,45ZZ  M8.660254037844389,45L7.938566201357357,43.75L7.2168783648703245,45ZZ    M1.7763568394002505e-15,53.333333333333336L-11.547005383792511,33.33333333333333L-23.094010767585033,53.33333333333332ZZ M-11.547005383792513,53.333333333333336L-8.660254037844384,48.333333333333336L-14.43375672974064,48.33333333333333ZZ M-10.825317547305481,51.25L-11.547005383792513,50L-12.268693220279545,51.25ZZ  M-10.10362971081845,50L-10.825317547305481,48.75L-11.547005383792513,50ZZ  M-11.547005383792513,50L-12.268693220279545,48.75L-12.990381056766577,50ZZ   M-8.660254037844384,48.333333333333336L-5.773502691896255,43.333333333333336L-11.547005383792513,43.33333333333333ZZ M-7.938566201357352,46.25L-8.660254037844384,45L-9.381941874331416,46.25ZZ  M-7.21687836487032,45L-7.938566201357352,43.75L-8.660254037844384,45ZZ  M-8.660254037844384,45L-9.381941874331416,43.75L-10.103629710818447,45ZZ   M-14.43375672974064,48.33333333333333L-11.547005383792511,43.33333333333333L-17.320508075688767,43.33333333333332ZZ M-13.712068893253608,46.24999999999999L-14.43375672974064,44.99999999999999L-15.155444566227672,46.24999999999999ZZ  M-12.990381056766577,44.99999999999999L-13.712068893253608,43.74999999999999L-14.43375672974064,44.99999999999999ZZ  M-14.43375672974064,44.99999999999999L-15.155444566227672,43.74999999999999L-15.877132402714704,44.99999999999999ZZ     M46.188021535170066,26.66666666666668L92.37604307034013,-53.333333333333314L1.4210854715202004e-14,-53.33333333333335ZZ M57.73502691896258,-6.6666666666666545L46.188021535170066,-26.666666666666657L34.64101615137754,-6.666666666666665ZZ M46.188021535170066,-6.666666666666655L49.07477288111819,-11.666666666666655L43.30127018922194,-11.666666666666657ZZ M46.9097093716571,-8.74999999999999L46.188021535170066,-9.99999999999999L45.46633369868303,-8.74999999999999ZZ  M47.631397208144136,-9.99999999999999L46.9097093716571,-11.24999999999999L46.188021535170066,-9.99999999999999ZZ  M46.188021535170066,-9.999999999999991L45.46633369868303,-11.249999999999991L44.744645862195995,-9.999999999999991ZZ   M49.07477288111819,-11.666666666666655L51.96152422706632,-16.666666666666657L46.188021535170066,-16.666666666666657ZZ M49.79646071760523,-13.74999999999999L49.07477288111819,-14.99999999999999L48.35308504463116,-13.74999999999999ZZ  M50.518148554092264,-14.99999999999999L49.79646071760523,-16.24999999999999L49.07477288111819,-14.99999999999999ZZ  M49.07477288111819,-14.999999999999991L48.35308504463116,-16.24999999999999L47.63139720814412,-14.999999999999991ZZ   M43.30127018922194,-11.666666666666657L46.188021535170066,-16.666666666666657L40.41451884327381,-16.66666666666666ZZ M44.022958025708974,-13.749999999999991L43.30127018922194,-14.999999999999991L42.5795823527349,-13.749999999999991ZZ  M44.74464586219601,-14.999999999999991L44.022958025708974,-16.24999999999999L43.30127018922194,-14.999999999999991ZZ  M43.30127018922194,-14.999999999999993L42.5795823527349,-16.249999999999993L41.85789451624787,-14.999999999999993ZZ    M69.2820323027551,-26.666666666666654L57.73502691896258,-46.66666666666666L46.18802153517006,-26.666666666666664ZZ M57.73502691896258,-26.666666666666657L60.62177826491071,-31.666666666666657L54.848275573014455,-31.666666666666657ZZ M58.45671475544962,-28.74999999999999L57.73502691896258,-29.99999999999999L57.01333908247555,-28.74999999999999ZZ  M59.17840259193665,-29.99999999999999L58.45671475544962,-31.24999999999999L57.73502691896258,-29.99999999999999ZZ  M57.73502691896258,-29.99999999999999L57.01333908247555,-31.24999999999999L56.29165124598851,-29.99999999999999ZZ   M60.62177826491071,-31.666666666666654L63.50852961085884,-36.66666666666665L57.73502691896258,-36.66666666666666ZZ M61.343466101397745,-33.749999999999986L60.62177826491071,-34.999999999999986L59.900090428423674,-33.749999999999986ZZ  M62.06515393788478,-34.999999999999986L61.343466101397745,-36.249999999999986L60.62177826491071,-34.999999999999986ZZ  M60.62177826491071,-34.999999999999986L59.900090428423674,-36.249999999999986L59.17840259193664,-34.999999999999986ZZ   M54.848275573014455,-31.66666666666666L57.73502691896258,-36.66666666666666L51.96152422706633,-36.666666666666664ZZ M55.56996340950149,-33.74999999999999L54.848275573014455,-34.99999999999999L54.12658773652742,-33.74999999999999ZZ  M56.291651245988525,-34.99999999999999L55.56996340950149,-36.24999999999999L54.848275573014455,-34.99999999999999ZZ  M54.848275573014455,-34.99999999999999L54.12658773652742,-36.24999999999999L53.404899900040384,-34.99999999999999ZZ    M46.18802153517007,-26.66666666666666L34.641016151377556,-46.666666666666664L23.094010767585033,-26.66666666666667ZZ M34.641016151377556,-26.666666666666664L37.527767497325684,-31.666666666666664L31.75426480542943,-31.666666666666664ZZ M35.36270398786459,-28.749999999999996L34.641016151377556,-29.999999999999996L33.91932831489052,-28.749999999999996ZZ  M36.08439182435163,-29.999999999999996L35.36270398786459,-31.249999999999996L34.641016151377556,-29.999999999999996ZZ  M34.641016151377556,-29.999999999999996L33.91932831489052,-31.249999999999996L33.197640478403486,-29.999999999999996ZZ   M37.527767497325684,-31.66666666666666L40.41451884327381,-36.66666666666666L34.641016151377556,-36.666666666666664ZZ M38.24945533381272,-33.74999999999999L37.527767497325684,-34.99999999999999L36.80607966083865,-33.74999999999999ZZ  M38.971143170299754,-34.99999999999999L38.24945533381272,-36.24999999999999L37.527767497325684,-34.99999999999999ZZ  M37.527767497325684,-34.99999999999999L36.80607966083865,-36.24999999999999L36.08439182435161,-34.99999999999999ZZ   M31.75426480542943,-31.666666666666668L34.641016151377556,-36.666666666666664L28.8675134594813,-36.66666666666667ZZ M32.475952641916464,-33.75L31.75426480542943,-35L31.032576968942397,-33.75ZZ  M33.1976404784035,-35L32.475952641916464,-36.25L31.754264805429433,-35ZZ  M31.75426480542943,-35L31.032576968942397,-36.25L30.310889132455365,-35ZZ     M-46.18802153517005,26.666666666666643L1.4210854715202004e-14,-53.33333333333335L-92.3760430703401,-53.333333333333385ZZ M-34.641016151377535,-6.66666666666669L-46.18802153517005,-26.666666666666693L-57.735026918962575,-6.666666666666701ZZ M-46.18802153517005,-6.666666666666691L-43.301270189221924,-11.666666666666691L-49.07477288111818,-11.666666666666693ZZ M-45.466333698683016,-8.750000000000025L-46.18802153517005,-10.000000000000025L-46.90970937165709,-8.750000000000025ZZ  M-44.74464586219598,-10.000000000000025L-45.466333698683016,-11.250000000000025L-46.18802153517005,-10.000000000000025ZZ  M-46.18802153517005,-10.000000000000027L-46.90970937165709,-11.250000000000027L-47.63139720814412,-10.000000000000027ZZ   M-43.301270189221924,-11.666666666666691L-40.4145188432738,-16.666666666666693L-46.18802153517005,-16.666666666666693ZZ M-42.57958235273489,-13.750000000000025L-43.301270189221924,-15.000000000000025L-44.02295802570896,-13.750000000000025ZZ  M-41.85789451624785,-15.000000000000025L-42.57958235273489,-16.250000000000025L-43.301270189221924,-15.000000000000025ZZ  M-43.301270189221924,-15.000000000000027L-44.02295802570896,-16.250000000000025L-44.744645862195995,-15.000000000000027ZZ   M-49.07477288111818,-11.666666666666693L-46.18802153517005,-16.666666666666693L-51.961524227066306,-16.666666666666696ZZ M-48.35308504463114,-13.750000000000027L-49.07477288111818,-15.000000000000027L-49.796460717605214,-13.750000000000027ZZ  M-47.63139720814411,-15.000000000000027L-48.35308504463114,-16.250000000000025L-49.07477288111818,-15.000000000000027ZZ  M-49.07477288111818,-15.000000000000028L-49.796460717605214,-16.25000000000003L-50.51814855409225,-15.000000000000028ZZ    M-23.09401076758502,-26.66666666666669L-34.641016151377535,-46.66666666666669L-46.18802153517006,-26.6666666666667ZZ M-34.641016151377535,-26.666666666666693L-31.754264805429408,-31.666666666666693L-37.52776749732566,-31.666666666666693ZZ M-33.9193283148905,-28.750000000000025L-34.641016151377535,-30.000000000000025L-35.36270398786457,-28.750000000000025ZZ  M-33.197640478403464,-30.000000000000025L-33.9193283148905,-31.250000000000025L-34.641016151377535,-30.000000000000025ZZ  M-34.641016151377535,-30.000000000000025L-35.36270398786457,-31.250000000000025L-36.084391824351606,-30.000000000000025ZZ   M-31.754264805429408,-31.66666666666669L-28.86751345948128,-36.666666666666686L-34.641016151377535,-36.66666666666669ZZ M-31.032576968942376,-33.75000000000002L-31.754264805429408,-35.00000000000002L-32.47595264191644,-33.75000000000002ZZ  M-30.310889132455344,-35.00000000000002L-31.032576968942376,-36.25000000000002L-31.754264805429408,-35.00000000000002ZZ  M-31.75426480542941,-35.00000000000002L-32.47595264191644,-36.25000000000002L-33.19764047840348,-35.00000000000002ZZ   M-37.52776749732566,-31.666666666666696L-34.641016151377535,-36.66666666666669L-40.41451884327379,-36.6666666666667ZZ M-36.80607966083863,-33.75000000000003L-37.52776749732566,-35.00000000000003L-38.2494553338127,-33.75000000000003ZZ  M-36.08439182435159,-35.00000000000003L-36.80607966083863,-36.25000000000003L-37.52776749732566,-35.00000000000003ZZ  M-37.52776749732566,-35.00000000000003L-38.2494553338127,-36.25000000000003L-38.97114317029973,-35.00000000000003ZZ    M-46.188021535170044,-26.666666666666696L-57.73502691896256,-46.6666666666667L-69.28203230275508,-26.666666666666707ZZ M-57.73502691896256,-26.6666666666667L-54.84827557301443,-31.6666666666667L-60.62177826491069,-31.6666666666667ZZ M-57.013339082475525,-28.750000000000032L-57.73502691896256,-30.000000000000032L-58.456714755449596,-28.750000000000032ZZ  M-56.29165124598849,-30.000000000000032L-57.013339082475525,-31.250000000000032L-57.73502691896256,-30.000000000000032ZZ  M-57.73502691896256,-30.000000000000032L-58.456714755449596,-31.250000000000032L-59.17840259193663,-30.000000000000032ZZ   M-54.84827557301443,-31.666666666666696L-51.961524227066306,-36.66666666666669L-57.73502691896256,-36.6666666666667ZZ M-54.1265877365274,-33.75000000000003L-54.84827557301443,-35.00000000000003L-55.56996340950147,-33.75000000000003ZZ  M-53.40489990004036,-35.00000000000003L-54.1265877365274,-36.25000000000003L-54.84827557301443,-35.00000000000003ZZ  M-54.84827557301443,-35.00000000000003L-55.56996340950147,-36.25000000000003L-56.291651245988504,-35.00000000000003ZZ   M-60.62177826491069,-31.666666666666703L-57.73502691896256,-36.6666666666667L-63.508529610858815,-36.66666666666671ZZ M-59.90009042842365,-33.750000000000036L-60.62177826491069,-35.000000000000036L-61.34346610139772,-33.750000000000036ZZ  M-59.17840259193662,-35.000000000000036L-59.90009042842365,-36.250000000000036L-60.62177826491069,-35.000000000000036ZZ  M-60.62177826491069,-35.000000000000036L-61.34346610139772,-36.250000000000036L-62.06515393788476,-35.000000000000036ZZ     " fill="#303030"></path></g><text x="320" y="632" text-anchor="middle" fill="#606060">_shape #14 fractal #7</text></svg>