<svg xmlns="http://www.w3.org/2000/svg" width="640" height="640" viewport-fill="#000" label="_shape #16 fractal #10"><defs><style type="text/css">text{ font-family: Freemono, Sans, Arial; fill: #555} 

.f-0 { fill: #000 }
.f-1 { fill: #101010 }
.f-2 { fill: #202020 }
.f-3 { fill: #303030 }
.f-4 { fill: #404040 }
.f-5 { fill: #505050 }
.f-6 { fill: #606060 }
.f-7 { fill: #707070 }
.f-8 { fill: #808080 }
.f-9 { fill: #909090 }
.f-10 { fill: #a0a0a0 }
.f-11 { fill: #b0b0b0 }
.f-12 { fill: #c0c0c0 }
.f-13 { fill: #d0d0d0 }
.f-14 { fill: #e0e0e0 }
.f-15 { fill: #f0f0f0 }
.bgc { fill: #101010, bacgkround-color: #101010 }
.fore { fill: #404040 }</style></defs><g fill-rule="evenodd" transform="translate(320,320)"><path d=" M -213.33333333333334, 0 a 213.33333333333334,213.33333333333334 0 1,0 426.6666666666667,0 a 213.33333333333334,213.33333333333334 0 1,0 -426.6666666666667,0Z  M 0, 6.531449595452551e-15 a 106.66666666666667,106.66666666666667 0 1,0 213.33333333333334,0 a 106.66666666666667,106.66666666666667 0 1,0 -213.33333333333334,0Z  M 106.66666666666666, 9.797174393178826e-15 a 53.333333333333336,53.333333333333336 0 1,0 106.66666666666667,0 a 53.333333333333336,53.333333333333336 0 1,0 -106.66666666666667,0Z  M 160, 1.1430036792041963e-14 a 26.666666666666668,26.666666666666668 0 1,0 53.333333333333336,0 a 26.666666666666668,26.666666666666668 0 1,0 -53.333333333333336,0Z  M 186.66666666666666, 1.2246467991473532e-14 a 13.333333333333334,13.333333333333334 0 1,0 26.666666666666668,0 a 13.333333333333334,13.333333333333334 0 1,0 -26.666666666666668,0Z  M 200, 1.2654683591189316e-14 a 6.666666666666667,6.666666666666667 0 1,0 13.333333333333334,0 a 6.666666666666667,6.666666666666667 0 1,0 -13.333333333333334,0Z  M 206.66666666666666, 1.2858791391047208e-14 a 3.3333333333333335,3.3333333333333335 0 1,0 6.666666666666667,0 a 3.3333333333333335,3.3333333333333335 0 1,0 -6.666666666666667,0Z  M 210, 1.2960845290976154e-14 a 1.6666666666666667,1.6666666666666667 0 1,0 3.3333333333333335,0 a 1.6666666666666667,1.6666666666666667 0 1,0 -3.3333333333333335,0Z  M 211.66666666666666, 1.3011872240940627e-14 a 0.8333333333333334,0.8333333333333334 0 1,0 1.6666666666666667,0 a 0.8333333333333334,0.8333333333333334 0 1,0 -1.6666666666666667,0Z         " class="fore"></path></g></svg>