<svg xmlns="http://www.w3.org/2000/svg" width="640" height="640" viewport-fill="#000" label="_shape #18 fractal #12"><defs><style type="text/css">
.f-0 { fill: #000;  }
.f-1 { fill: #101010;  }
.f-2 { fill: #202020;  }
.f-3 { fill: #303030;  }
.f-4 { fill: #404040;  }
.f-5 { fill: #505050;  }
.f-6 { fill: #606060;  }
.f-7 { fill: #707070;  }
.f-8 { fill: #808080;  }
.f-9 { fill: #909090;  }
.f-10 { fill: #a0a0a0;  }
.f-11 { fill: #b0b0b0;  }
.f-12 { fill: #c0c0c0;  }
.f-13 { fill: #d0d0d0;  }
.f-14 { fill: #e0e0e0;  }
.f-15 { fill: #f0f0f0;  }
.bgc { fill: #101010;  }
.fore { fill: #404040; stroke: #404040;  }
text{ font-family: Freemono, Sans, Arial; } 
</style></defs><g fill-rule="evenodd" transform="translate(320,320)"><path d=" M -213.33333333333334, 0 a 213.33333333333334,213.33333333333334 0 1,0 426.6666666666667,0 a 213.33333333333334,213.33333333333334 0 1,0 -426.6666666666667,0Z  M -170.66666666666666, 1.3062899190905106e-15 a 192,192 0 1,0 384,0 a 192,192 0 1,0 -384,0Z  M -132.26666666666668, 2.481950846271969e-15 a 172.8,172.8 0 1,0 345.6,0 a 172.8,172.8 0 1,0 -345.6,0Z  M -97.70666666666668, 3.5400456807352823e-15 a 155.52,155.52 0 1,0 311.04,0 a 155.52,155.52 0 1,0 -311.04,0Z  M -66.60266666666669, 4.4923310317522636e-15 a 139.96800000000002,139.96800000000002 0 1,0 279.93600000000004,0 a 139.96800000000002,139.96800000000002 0 1,0 -279.93600000000004,0Z  M -38.609066666666706, 5.349387847667547e-15 a 125.97120000000002,125.97120000000002 0 1,0 251.94240000000005,0 a 125.97120000000002,125.97120000000002 0 1,0 -251.94240000000005,0Z  M -13.414826666666698, 6.120738981991302e-15 a 113.37408000000002,113.37408000000002 0 1,0 226.74816000000004,0 a 113.37408000000002,113.37408000000002 0 1,0 -226.74816000000004,0Z  M 9.259989333333294, 6.8149550028826815e-15 a 102.03667200000002,102.03667200000002 0 1,0 204.07334400000005,0 a 102.03667200000002,102.03667200000002 0 1,0 -204.07334400000005,0Z  M 29.66732373333329, 7.439749421684924e-15 a 91.83300480000003,91.83300480000003 0 1,0 183.66600960000005,0 a 91.83300480000003,91.83300480000003 0 1,0 -183.66600960000005,0Z  M 48.033924693333276, 8.00206439860694e-15 a 82.64970432000003,82.64970432000003 0 1,0 165.29940864000005,0 a 82.64970432000003,82.64970432000003 0 1,0 -165.29940864000005,0Z  M 64.56386555733326, 8.508147877836756e-15 a 74.38473388800003,74.38473388800003 0 1,0 148.76946777600006,0 a 74.38473388800003,74.38473388800003 0 1,0 -148.76946777600006,0Z  M 79.44081233493326, 8.96362300914359e-15 a 66.94626049920002,66.94626049920002 0 1,0 133.89252099840004,0 a 66.94626049920002,66.94626049920002 0 1,0 -133.89252099840004,0Z  M 92.83006443477326, 9.373550627319741e-15 a 60.25163444928002,60.25163444928002 0 1,0 120.50326889856004,0 a 60.25163444928002,60.25163444928002 0 1,0 -120.50326889856004,0Z  M 104.88039132462924, 9.742485483678277e-15 a 54.22647100435202,54.22647100435202 0 1,0 108.45294200870404,0 a 54.22647100435202,54.22647100435202 0 1,0 -108.45294200870404,0Z  M 115.72568552549964, 1.007452685440096e-14 a 48.80382390391682,48.80382390391682 0 1,0 97.60764780783364,0 a 48.80382390391682,48.80382390391682 0 1,0 -97.60764780783364,0Z  M 125.48645030628299, 1.0373364088051373e-14 a 43.92344151352514,43.92344151352514 0 1,0 87.84688302705028,0 a 43.92344151352514,43.92344151352514 0 1,0 -87.84688302705028,0Z  M 134.27113860898802, 1.0642317598336745e-14 a 39.53109736217263,39.53109736217263 0 1,0 79.06219472434526,0 a 39.53109736217263,39.53109736217263 0 1,0 -79.06219472434526,0Z  M 142.17735808142257, 1.0884375757593581e-14 a 35.577987625955366,35.577987625955366 0 1,0 71.15597525191073,0 a 35.577987625955366,35.577987625955366 0 1,0 -71.15597525191073,0Z  M 149.29295560661362, 1.1102228100924734e-14 a 32.02018886335983,32.02018886335983 0 1,0 64.04037772671965,0 a 32.02018886335983,32.02018886335983 0 1,0 -64.04037772671965,0Z  M 155.6969933792856, 1.129829520992277e-14 a 28.818169977023846,28.818169977023846 0 1,0 57.63633995404769,0 a 28.818169977023846,28.818169977023846 0 1,0 -57.63633995404769,0Z  M 161.46062737469035, 1.1474755608021003e-14 a 25.936352979321462,25.936352979321462 0 1,0 51.872705958642925,0 a 25.936352979321462,25.936352979321462 0 1,0 -51.872705958642925,0Z  M 166.64789797055465, 1.1633569966309413e-14 a 23.342717681389317,23.342717681389317 0 1,0 46.685435362778634,0 a 23.342717681389317,23.342717681389317 0 1,0 -46.685435362778634,0Z  M 171.3164415068325, 1.1776502888768982e-14 a 21.008445913250387,21.008445913250387 0 1,0 42.016891826500775,0 a 21.008445913250387,21.008445913250387 0 1,0 -42.016891826500775,0Z  M 175.51813068948258, 1.1905142518982594e-14 a 18.90760132192535,18.90760132192535 0 1,0 37.8152026438507,0 a 18.90760132192535,18.90760132192535 0 1,0 -37.8152026438507,0Z  M 179.29965095386763, 1.2020918186174844e-14 a 17.016841189732816,17.016841189732816 0 1,0 34.03368237946563,0 a 17.016841189732816,17.016841189732816 0 1,0 -34.03368237946563,0Z  M 182.70301919181418, 1.212511628664787e-14 a 15.315157070759534,15.315157070759534 0 1,0 30.63031414151907,0 a 15.315157070759534,15.315157070759534 0 1,0 -30.63031414151907,0Z  M 185.7660506059661, 1.2218894577073593e-14 a 13.78364136368358,13.78364136368358 0 1,0 27.56728272736716,0 a 13.78364136368358,13.78364136368358 0 1,0 -27.56728272736716,0Z  M 188.5227788787028, 1.2303295038456744e-14 a 12.405277227315223,12.405277227315223 0 1,0 24.810554454630445,0 a 12.405277227315223,12.405277227315223 0 1,0 -24.810554454630445,0Z  M 191.00383432416584, 1.237925545370158e-14 a 11.1647495045837,11.1647495045837 0 1,0 22.3294990091674,0 a 11.1647495045837,11.1647495045837 0 1,0 -22.3294990091674,0Z  M 193.2367842250826, 1.2447619827421932e-14 a 10.04827455412533,10.04827455412533 0 1,0 20.09654910825066,0 a 10.04827455412533,10.04827455412533 0 1,0 -20.09654910825066,0Z  M 195.24643913590768, 1.250914776377025e-14 a 9.043447098712797,9.043447098712797 0 1,0 18.086894197425593,0 a 9.043447098712797,9.043447098712797 0 1,0 -18.086894197425593,0Z  M 197.05512855565024, 1.2564522906483735e-14 a 8.139102388841517,8.139102388841517 0 1,0 16.278204777683033,0 a 8.139102388841517,8.139102388841517 0 1,0 -16.278204777683033,0Z  M 198.68294903341854, 1.2614360534925872e-14 a 7.325192149957365,7.325192149957365 0 1,0 14.65038429991473,0 a 7.325192149957365,7.325192149957365 0 1,0 -14.65038429991473,0Z  M 200.14798746341, 1.2659214400523795e-14 a 6.592672934961628,6.592672934961628 0 1,0 13.185345869923257,0 a 6.592672934961628,6.592672934961628 0 1,0 -13.185345869923257,0Z  M 201.46652205040232, 1.2699582879561926e-14 a 5.933405641465466,5.933405641465466 0 1,0 11.866811282930932,0 a 5.933405641465466,5.933405641465466 0 1,0 -11.866811282930932,0Z  M 202.65320317869543, 1.2735914510696244e-14 a 5.340065077318919,5.340065077318919 0 1,0 10.680130154637839,0 a 5.340065077318919,5.340065077318919 0 1,0 -10.680130154637839,0Z                                    " class="fore"></path></g></svg>