<svg xmlns="http://www.w3.org/2000/svg" width="640" height="640" viewport-fill="#000" label="_shape #19 fractal #13"><defs><style type="text/css">text{ font-family: Freemono, Sans, Arial; fill: #555} 

.f-0 { fill: #000 }
.f-1 { fill: #101010 }
.f-2 { fill: #202020 }
.f-3 { fill: #303030 }
.f-4 { fill: #404040 }
.f-5 { fill: #505050 }
.f-6 { fill: #606060 }
.f-7 { fill: #707070 }
.f-8 { fill: #808080 }
.f-9 { fill: #909090 }
.f-10 { fill: #a0a0a0 }
.f-11 { fill: #b0b0b0 }
.f-12 { fill: #c0c0c0 }
.f-13 { fill: #d0d0d0 }
.f-14 { fill: #e0e0e0 }
.f-15 { fill: #f0f0f0 }
.bgc { fill: #101010 }
.fore { fill: #404040 }</style></defs><g fill-rule="evenodd" transform="translate(320,320)"><path d="M213.33333333333334,1.3062899190905101e-14L2.6125798381810203e-14,-213.33333333333334L-213.33333333333334,-3.9188697572715304e-14L-5.2251596763620406e-14,213.33333333333334Z M-15.6209716700508,-91.04569499661588L-91.04569499661588,-91.04569499661588L-91.04569499661588,-15.620971670050807L-15.620971670050807,-15.620971670050793Z M-66.66666666666667,-80L-80,-66.66666666666667L-66.66666666666667,-53.333333333333336L-53.333333333333336,-66.66666666666667Z M-72.35702260395516,-72.35702260395516L-72.35702260395516,-67.64297739604484L-67.64297739604484,-67.64297739604484L-67.64297739604484,-72.35702260395516Z  M-72.35702260395516,-65.6903559372885L-72.35702260395516,-60.97631072937818L-67.64297739604484,-60.97631072937818L-67.64297739604484,-65.69035593728849Z  M-65.6903559372885,-72.35702260395516L-65.6903559372885,-67.64297739604484L-60.97631072937818,-67.64297739604484L-60.97631072937818,-72.35702260395516Z  M-65.6903559372885,-65.6903559372885L-65.6903559372885,-60.97631072937818L-60.97631072937818,-60.97631072937818L-60.97631072937818,-65.69035593728849Z   M-66.66666666666667,-53.333333333333336L-80,-40L-66.66666666666667,-26.666666666666664L-53.333333333333336,-39.99999999999999Z M-72.35702260395516,-45.690355937288494L-72.35702260395516,-40.97631072937818L-67.64297739604484,-40.97631072937818L-67.64297739604484,-45.690355937288494Z  M-72.35702260395516,-39.02368927062182L-72.35702260395516,-34.309644062711506L-67.64297739604484,-34.309644062711506L-67.64297739604484,-39.02368927062182Z  M-65.6903559372885,-45.690355937288494L-65.6903559372885,-40.97631072937818L-60.97631072937818,-40.97631072937818L-60.97631072937818,-45.690355937288494Z  M-65.6903559372885,-39.02368927062182L-65.6903559372885,-34.309644062711506L-60.97631072937818,-34.309644062711506L-60.97631072937818,-39.02368927062182Z   M-40,-80L-53.333333333333336,-66.66666666666667L-40,-53.333333333333336L-26.666666666666664,-66.66666666666667Z M-45.690355937288494,-72.35702260395516L-45.690355937288494,-67.64297739604484L-40.97631072937818,-67.64297739604484L-40.97631072937818,-72.35702260395516Z  M-45.690355937288494,-65.6903559372885L-45.690355937288494,-60.97631072937818L-40.97631072937818,-60.97631072937818L-40.97631072937818,-65.69035593728849Z  M-39.02368927062182,-72.35702260395516L-39.02368927062182,-67.64297739604484L-34.309644062711506,-67.64297739604484L-34.309644062711506,-72.35702260395516Z  M-39.02368927062182,-65.6903559372885L-39.02368927062182,-60.97631072937818L-34.309644062711506,-60.97631072937818L-34.309644062711506,-65.69035593728849Z   M-40,-53.333333333333336L-53.333333333333336,-40L-40,-26.666666666666664L-26.666666666666664,-39.99999999999999Z M-45.690355937288494,-45.690355937288494L-45.690355937288494,-40.97631072937818L-40.97631072937818,-40.97631072937818L-40.97631072937818,-45.690355937288494Z  M-45.690355937288494,-39.02368927062182L-45.690355937288494,-34.309644062711506L-40.97631072937818,-34.309644062711506L-40.97631072937818,-39.02368927062182Z  M-39.02368927062182,-45.690355937288494L-39.02368927062182,-40.97631072937818L-34.309644062711506,-40.97631072937818L-34.309644062711506,-45.690355937288494Z  M-39.02368927062182,-39.02368927062182L-39.02368927062182,-34.309644062711506L-34.309644062711506,-34.309644062711506L-34.309644062711506,-39.02368927062182Z    M-15.6209716700508,15.6209716700508L-91.04569499661588,15.620971670050793L-91.04569499661588,91.04569499661586L-15.620971670050807,91.04569499661588Z M-66.66666666666667,26.666666666666664L-80,40L-66.66666666666667,53.333333333333336L-53.333333333333336,40.00000000000001Z M-72.35702260395516,34.309644062711506L-72.35702260395516,39.02368927062182L-67.64297739604484,39.02368927062182L-67.64297739604484,34.309644062711506Z  M-72.35702260395516,40.97631072937818L-72.35702260395516,45.690355937288494L-67.64297739604484,45.690355937288494L-67.64297739604484,40.97631072937818Z  M-65.6903559372885,34.309644062711506L-65.6903559372885,39.02368927062182L-60.97631072937818,39.02368927062182L-60.97631072937818,34.309644062711506Z  M-65.6903559372885,40.97631072937818L-65.6903559372885,45.690355937288494L-60.97631072937818,45.690355937288494L-60.97631072937818,40.97631072937818Z   M-66.66666666666667,53.333333333333336L-80,66.66666666666667L-66.66666666666667,80L-53.333333333333336,66.66666666666667Z M-72.35702260395516,60.97631072937818L-72.35702260395516,65.69035593728849L-67.64297739604484,65.6903559372885L-67.64297739604484,60.97631072937818Z  M-72.35702260395516,67.64297739604484L-72.35702260395516,72.35702260395516L-67.64297739604484,72.35702260395516L-67.64297739604484,67.64297739604484Z  M-65.6903559372885,60.97631072937818L-65.6903559372885,65.69035593728849L-60.97631072937818,65.6903559372885L-60.97631072937818,60.97631072937818Z  M-65.6903559372885,67.64297739604484L-65.6903559372885,72.35702260395516L-60.97631072937818,72.35702260395516L-60.97631072937818,67.64297739604484Z   M-40,26.666666666666664L-53.333333333333336,40L-40,53.333333333333336L-26.666666666666664,40.00000000000001Z M-45.690355937288494,34.309644062711506L-45.690355937288494,39.02368927062182L-40.97631072937818,39.02368927062182L-40.97631072937818,34.309644062711506Z  M-45.690355937288494,40.97631072937818L-45.690355937288494,45.690355937288494L-40.97631072937818,45.690355937288494L-40.97631072937818,40.97631072937818Z  M-39.02368927062182,34.309644062711506L-39.02368927062182,39.02368927062182L-34.309644062711506,39.02368927062182L-34.309644062711506,34.309644062711506Z  M-39.02368927062182,40.97631072937818L-39.02368927062182,45.690355937288494L-34.309644062711506,45.690355937288494L-34.309644062711506,40.97631072937818Z   M-40,53.333333333333336L-53.333333333333336,66.66666666666667L-40,80L-26.666666666666664,66.66666666666667Z M-45.690355937288494,60.97631072937818L-45.690355937288494,65.69035593728849L-40.97631072937818,65.6903559372885L-40.97631072937818,60.97631072937818Z  M-45.690355937288494,67.64297739604484L-45.690355937288494,72.35702260395516L-40.97631072937818,72.35702260395516L-40.97631072937818,67.64297739604484Z  M-39.02368927062182,60.97631072937818L-39.02368927062182,65.69035593728849L-34.309644062711506,65.6903559372885L-34.309644062711506,60.97631072937818Z  M-39.02368927062182,67.64297739604484L-39.02368927062182,72.35702260395516L-34.309644062711506,72.35702260395516L-34.309644062711506,67.64297739604484Z    M91.04569499661588,-91.04569499661588L15.6209716700508,-91.04569499661588L15.620971670050793,-15.620971670050807L91.04569499661586,-15.620971670050793Z M40,-80L26.666666666666664,-66.66666666666667L40,-53.333333333333336L53.333333333333336,-66.66666666666667Z M34.309644062711506,-72.35702260395516L34.309644062711506,-67.64297739604484L39.02368927062182,-67.64297739604484L39.02368927062182,-72.35702260395516Z  M34.309644062711506,-65.6903559372885L34.309644062711506,-60.97631072937818L39.02368927062182,-60.97631072937818L39.02368927062182,-65.69035593728849Z  M40.97631072937818,-72.35702260395516L40.97631072937818,-67.64297739604484L45.690355937288494,-67.64297739604484L45.690355937288494,-72.35702260395516Z  M40.97631072937818,-65.6903559372885L40.97631072937818,-60.97631072937818L45.690355937288494,-60.97631072937818L45.690355937288494,-65.69035593728849Z   M40,-53.333333333333336L26.666666666666664,-40L40,-26.666666666666664L53.333333333333336,-39.99999999999999Z M34.309644062711506,-45.690355937288494L34.309644062711506,-40.97631072937818L39.02368927062182,-40.97631072937818L39.02368927062182,-45.690355937288494Z  M34.309644062711506,-39.02368927062182L34.309644062711506,-34.309644062711506L39.02368927062182,-34.309644062711506L39.02368927062182,-39.02368927062182Z  M40.97631072937818,-45.690355937288494L40.97631072937818,-40.97631072937818L45.690355937288494,-40.97631072937818L45.690355937288494,-45.690355937288494Z  M40.97631072937818,-39.02368927062182L40.97631072937818,-34.309644062711506L45.690355937288494,-34.309644062711506L45.690355937288494,-39.02368927062182Z   M66.66666666666667,-80L53.333333333333336,-66.66666666666667L66.66666666666667,-53.333333333333336L80,-66.66666666666667Z M60.97631072937818,-72.35702260395516L60.97631072937818,-67.64297739604484L65.69035593728849,-67.64297739604484L65.6903559372885,-72.35702260395516Z  M60.97631072937818,-65.6903559372885L60.97631072937818,-60.97631072937818L65.69035593728849,-60.97631072937818L65.6903559372885,-65.69035593728849Z  M67.64297739604484,-72.35702260395516L67.64297739604484,-67.64297739604484L72.35702260395516,-67.64297739604484L72.35702260395516,-72.35702260395516Z  M67.64297739604484,-65.6903559372885L67.64297739604484,-60.97631072937818L72.35702260395516,-60.97631072937818L72.35702260395516,-65.69035593728849Z   M66.66666666666667,-53.333333333333336L53.333333333333336,-40L66.66666666666667,-26.666666666666664L80,-39.99999999999999Z M60.97631072937818,-45.690355937288494L60.97631072937818,-40.97631072937818L65.69035593728849,-40.97631072937818L65.6903559372885,-45.690355937288494Z  M60.97631072937818,-39.02368927062182L60.97631072937818,-34.309644062711506L65.69035593728849,-34.309644062711506L65.6903559372885,-39.02368927062182Z  M67.64297739604484,-45.690355937288494L67.64297739604484,-40.97631072937818L72.35702260395516,-40.97631072937818L72.35702260395516,-45.690355937288494Z  M67.64297739604484,-39.02368927062182L67.64297739604484,-34.309644062711506L72.35702260395516,-34.309644062711506L72.35702260395516,-39.02368927062182Z    M91.04569499661588,15.6209716700508L15.6209716700508,15.620971670050793L15.620971670050793,91.04569499661586L91.04569499661586,91.04569499661588Z M40,26.666666666666664L26.666666666666664,40L40,53.333333333333336L53.333333333333336,40.00000000000001Z M34.309644062711506,34.309644062711506L34.309644062711506,39.02368927062182L39.02368927062182,39.02368927062182L39.02368927062182,34.309644062711506Z  M34.309644062711506,40.97631072937818L34.309644062711506,45.690355937288494L39.02368927062182,45.690355937288494L39.02368927062182,40.97631072937818Z  M40.97631072937818,34.309644062711506L40.97631072937818,39.02368927062182L45.690355937288494,39.02368927062182L45.690355937288494,34.309644062711506Z  M40.97631072937818,40.97631072937818L40.97631072937818,45.690355937288494L45.690355937288494,45.690355937288494L45.690355937288494,40.97631072937818Z   M40,53.333333333333336L26.666666666666664,66.66666666666667L40,80L53.333333333333336,66.66666666666667Z M34.309644062711506,60.97631072937818L34.309644062711506,65.69035593728849L39.02368927062182,65.6903559372885L39.02368927062182,60.97631072937818Z  M34.309644062711506,67.64297739604484L34.309644062711506,72.35702260395516L39.02368927062182,72.35702260395516L39.02368927062182,67.64297739604484Z  M40.97631072937818,60.97631072937818L40.97631072937818,65.69035593728849L45.690355937288494,65.6903559372885L45.690355937288494,60.97631072937818Z  M40.97631072937818,67.64297739604484L40.97631072937818,72.35702260395516L45.690355937288494,72.35702260395516L45.690355937288494,67.64297739604484Z   M66.66666666666667,26.666666666666664L53.333333333333336,40L66.66666666666667,53.333333333333336L80,40.00000000000001Z M60.97631072937818,34.309644062711506L60.97631072937818,39.02368927062182L65.69035593728849,39.02368927062182L65.6903559372885,34.309644062711506Z  M60.97631072937818,40.97631072937818L60.97631072937818,45.690355937288494L65.69035593728849,45.690355937288494L65.6903559372885,40.97631072937818Z  M67.64297739604484,34.309644062711506L67.64297739604484,39.02368927062182L72.35702260395516,39.02368927062182L72.35702260395516,34.309644062711506Z  M67.64297739604484,40.97631072937818L67.64297739604484,45.690355937288494L72.35702260395516,45.690355937288494L72.35702260395516,40.97631072937818Z   M66.66666666666667,53.333333333333336L53.333333333333336,66.66666666666667L66.66666666666667,80L80,66.66666666666667Z M60.97631072937818,60.97631072937818L60.97631072937818,65.69035593728849L65.69035593728849,65.6903559372885L65.6903559372885,60.97631072937818Z  M60.97631072937818,67.64297739604484L60.97631072937818,72.35702260395516L65.69035593728849,72.35702260395516L65.6903559372885,67.64297739604484Z  M67.64297739604484,60.97631072937818L67.64297739604484,65.69035593728849L72.35702260395516,65.6903559372885L72.35702260395516,60.97631072937818Z  M67.64297739604484,67.64297739604484L67.64297739604484,72.35702260395516L72.35702260395516,72.35702260395516L72.35702260395516,67.64297739604484Z    " class="fore"></path></g></svg>