<svg xmlns="http://www.w3.org/2000/svg" width="640" height="640" viewport-fill="#000" label="_shape #20 fractal #14"><defs><style type="text/css">text{ font-family: Freemono, Sans, Arial; fill: #555} 

.f-0 { fill: #000 }
.f-1 { fill: #101010 }
.f-2 { fill: #202020 }
.f-3 { fill: #303030 }
.f-4 { fill: #404040 }
.f-5 { fill: #505050 }
.f-6 { fill: #606060 }
.f-7 { fill: #707070 }
.f-8 { fill: #808080 }
.f-9 { fill: #909090 }
.f-10 { fill: #a0a0a0 }
.f-11 { fill: #b0b0b0 }
.f-12 { fill: #c0c0c0 }
.f-13 { fill: #d0d0d0 }
.f-14 { fill: #e0e0e0 }
.f-15 { fill: #f0f0f0 }
.bgc { fill: #101010 }
.fore { fill: #404040 }</style></defs><g fill-rule="evenodd" transform="translate(320,320)"><path d="M213.33333333333334,1.3062899190905101e-14L2.6125798381810203e-14,-213.33333333333334L-213.33333333333334,-3.9188697572715304e-14L-5.2251596763620406e-14,213.33333333333334Z M42.666666666666664,-53.33333333333333L-53.33333333333332,-149.33333333333334L-149.33333333333334,-53.33333333333335L-53.33333333333336,42.666666666666664Z M-34.13333333333334,-77.33333333333334L-77.33333333333334,-120.53333333333335L-120.53333333333335,-77.33333333333336L-77.33333333333336,-34.13333333333334Z M-68.69333333333334,-88.13333333333334L-88.13333333333334,-107.57333333333334L-107.57333333333334,-88.13333333333334L-88.13333333333334,-68.69333333333334Z M-84.24533333333333,-92.99333333333334L-92.99333333333334,-101.74133333333334L-101.74133333333334,-92.99333333333334L-92.99333333333334,-84.24533333333333Z  M-84.24533333333333,-83.27333333333334L-92.99333333333334,-92.02133333333335L-101.74133333333334,-83.27333333333334L-92.99333333333334,-74.52533333333334Z  M-74.52533333333334,-92.99333333333334L-83.27333333333334,-101.74133333333334L-92.02133333333335,-92.99333333333334L-83.27333333333334,-84.24533333333333Z  M-74.52533333333334,-83.27333333333334L-83.27333333333334,-92.02133333333335L-92.02133333333335,-83.27333333333334L-83.27333333333334,-74.52533333333334Z   M-68.69333333333334,-66.53333333333335L-88.13333333333334,-85.97333333333334L-107.57333333333334,-66.53333333333335L-88.13333333333334,-47.09333333333335Z M-84.24533333333333,-71.39333333333335L-92.99333333333334,-80.14133333333335L-101.74133333333334,-71.39333333333335L-92.99333333333334,-62.64533333333334Z  M-84.24533333333333,-61.673333333333346L-92.99333333333334,-70.42133333333335L-101.74133333333334,-61.673333333333346L-92.99333333333334,-52.92533333333334Z  M-74.52533333333334,-71.39333333333335L-83.27333333333334,-80.14133333333335L-92.02133333333335,-71.39333333333335L-83.27333333333334,-62.64533333333334Z  M-74.52533333333334,-61.673333333333346L-83.27333333333334,-70.42133333333335L-92.02133333333335,-61.673333333333346L-83.27333333333334,-52.92533333333334Z   M-47.09333333333335,-88.13333333333334L-66.53333333333335,-107.57333333333334L-85.97333333333334,-88.13333333333334L-66.53333333333335,-68.69333333333334Z M-62.64533333333334,-92.99333333333334L-71.39333333333335,-101.74133333333334L-80.14133333333335,-92.99333333333334L-71.39333333333335,-84.24533333333333Z  M-62.64533333333334,-83.27333333333334L-71.39333333333335,-92.02133333333335L-80.14133333333335,-83.27333333333334L-71.39333333333335,-74.52533333333334Z  M-52.92533333333334,-92.99333333333334L-61.673333333333346,-101.74133333333334L-70.42133333333335,-92.99333333333334L-61.673333333333346,-84.24533333333333Z  M-52.92533333333334,-83.27333333333334L-61.673333333333346,-92.02133333333335L-70.42133333333335,-83.27333333333334L-61.673333333333346,-74.52533333333334Z   M-47.09333333333335,-66.53333333333335L-66.53333333333335,-85.97333333333334L-85.97333333333334,-66.53333333333335L-66.53333333333335,-47.09333333333335Z M-62.64533333333334,-71.39333333333335L-71.39333333333335,-80.14133333333335L-80.14133333333335,-71.39333333333335L-71.39333333333335,-62.64533333333334Z  M-62.64533333333334,-61.673333333333346L-71.39333333333335,-70.42133333333335L-80.14133333333335,-61.673333333333346L-71.39333333333335,-52.92533333333334Z  M-52.92533333333334,-71.39333333333335L-61.673333333333346,-80.14133333333335L-70.42133333333335,-71.39333333333335L-61.673333333333346,-62.64533333333334Z  M-52.92533333333334,-61.673333333333346L-61.673333333333346,-70.42133333333335L-70.42133333333335,-61.673333333333346L-61.673333333333346,-52.92533333333334Z    M-34.13333333333334,-29.333333333333332L-77.33333333333334,-72.53333333333333L-120.53333333333335,-29.333333333333343L-77.33333333333336,13.866666666666667Z M-68.69333333333334,-40.13333333333334L-88.13333333333334,-59.57333333333334L-107.57333333333334,-40.13333333333335L-88.13333333333334,-20.69333333333334Z M-84.24533333333333,-44.99333333333334L-92.99333333333334,-53.741333333333344L-101.74133333333334,-44.99333333333334L-92.99333333333334,-36.245333333333335Z  M-84.24533333333333,-35.27333333333334L-92.99333333333334,-44.021333333333345L-101.74133333333334,-35.27333333333334L-92.99333333333334,-26.52533333333334Z  M-74.52533333333334,-44.99333333333334L-83.27333333333334,-53.741333333333344L-92.02133333333335,-44.99333333333334L-83.27333333333334,-36.245333333333335Z  M-74.52533333333334,-35.27333333333334L-83.27333333333334,-44.021333333333345L-92.02133333333335,-35.27333333333334L-83.27333333333334,-26.52533333333334Z   M-68.69333333333334,-18.533333333333335L-88.13333333333334,-37.973333333333336L-107.57333333333334,-18.53333333333334L-88.13333333333334,0.9066666666666663Z M-84.24533333333333,-23.393333333333334L-92.99333333333334,-32.141333333333336L-101.74133333333334,-23.393333333333334L-92.99333333333334,-14.645333333333333Z  M-84.24533333333333,-13.673333333333336L-92.99333333333334,-22.421333333333337L-101.74133333333334,-13.673333333333337L-92.99333333333334,-4.9253333333333345Z  M-74.52533333333334,-23.393333333333334L-83.27333333333334,-32.141333333333336L-92.02133333333335,-23.393333333333334L-83.27333333333334,-14.645333333333333Z  M-74.52533333333334,-13.673333333333336L-83.27333333333334,-22.421333333333337L-92.02133333333335,-13.673333333333337L-83.27333333333334,-4.9253333333333345Z   M-47.09333333333335,-40.13333333333334L-66.53333333333335,-59.57333333333334L-85.97333333333334,-40.13333333333335L-66.53333333333335,-20.69333333333334Z M-62.64533333333334,-44.99333333333334L-71.39333333333335,-53.741333333333344L-80.14133333333335,-44.99333333333334L-71.39333333333335,-36.245333333333335Z  M-62.64533333333334,-35.27333333333334L-71.39333333333335,-44.021333333333345L-80.14133333333335,-35.27333333333334L-71.39333333333335,-26.52533333333334Z  M-52.92533333333334,-44.99333333333334L-61.673333333333346,-53.741333333333344L-70.42133333333335,-44.99333333333334L-61.673333333333346,-36.245333333333335Z  M-52.92533333333334,-35.27333333333334L-61.673333333333346,-44.021333333333345L-70.42133333333335,-35.27333333333334L-61.673333333333346,-26.52533333333334Z   M-47.09333333333335,-18.533333333333335L-66.53333333333335,-37.973333333333336L-85.97333333333334,-18.53333333333334L-66.53333333333335,0.9066666666666663Z M-62.64533333333334,-23.393333333333334L-71.39333333333335,-32.141333333333336L-80.14133333333335,-23.393333333333334L-71.39333333333335,-14.645333333333333Z  M-62.64533333333334,-13.673333333333336L-71.39333333333335,-22.421333333333337L-80.14133333333335,-13.673333333333337L-71.39333333333335,-4.9253333333333345Z  M-52.92533333333334,-23.393333333333334L-61.673333333333346,-32.141333333333336L-70.42133333333335,-23.393333333333334L-61.673333333333346,-14.645333333333333Z  M-52.92533333333334,-13.673333333333336L-61.673333333333346,-22.421333333333337L-70.42133333333335,-13.673333333333337L-61.673333333333346,-4.9253333333333345Z    M13.866666666666667,-77.33333333333334L-29.333333333333332,-120.53333333333335L-72.53333333333333,-77.33333333333336L-29.333333333333346,-34.13333333333334Z M-20.69333333333334,-88.13333333333334L-40.13333333333334,-107.57333333333334L-59.57333333333334,-88.13333333333334L-40.13333333333335,-68.69333333333334Z M-36.245333333333335,-92.99333333333334L-44.99333333333334,-101.74133333333334L-53.741333333333344,-92.99333333333334L-44.99333333333334,-84.24533333333333Z  M-36.245333333333335,-83.27333333333334L-44.99333333333334,-92.02133333333335L-53.741333333333344,-83.27333333333334L-44.99333333333334,-74.52533333333334Z  M-26.52533333333334,-92.99333333333334L-35.27333333333334,-101.74133333333334L-44.021333333333345,-92.99333333333334L-35.27333333333334,-84.24533333333333Z  M-26.52533333333334,-83.27333333333334L-35.27333333333334,-92.02133333333335L-44.021333333333345,-83.27333333333334L-35.27333333333334,-74.52533333333334Z   M-20.69333333333334,-66.53333333333335L-40.13333333333334,-85.97333333333334L-59.57333333333334,-66.53333333333335L-40.13333333333335,-47.09333333333335Z M-36.245333333333335,-71.39333333333335L-44.99333333333334,-80.14133333333335L-53.741333333333344,-71.39333333333335L-44.99333333333334,-62.64533333333334Z  M-36.245333333333335,-61.673333333333346L-44.99333333333334,-70.42133333333335L-53.741333333333344,-61.673333333333346L-44.99333333333334,-52.92533333333334Z  M-26.52533333333334,-71.39333333333335L-35.27333333333334,-80.14133333333335L-44.021333333333345,-71.39333333333335L-35.27333333333334,-62.64533333333334Z  M-26.52533333333334,-61.673333333333346L-35.27333333333334,-70.42133333333335L-44.021333333333345,-61.673333333333346L-35.27333333333334,-52.92533333333334Z   M0.9066666666666663,-88.13333333333334L-18.53333333333333,-107.57333333333334L-37.973333333333336,-88.13333333333334L-18.53333333333334,-68.69333333333334Z M-14.645333333333333,-92.99333333333334L-23.393333333333334,-101.74133333333334L-32.141333333333336,-92.99333333333334L-23.393333333333338,-84.24533333333333Z  M-14.645333333333333,-83.27333333333334L-23.393333333333334,-92.02133333333335L-32.141333333333336,-83.27333333333334L-23.393333333333338,-74.52533333333334Z  M-4.9253333333333345,-92.99333333333334L-13.673333333333334,-101.74133333333334L-22.421333333333337,-92.99333333333334L-13.673333333333337,-84.24533333333333Z  M-4.9253333333333345,-83.27333333333334L-13.673333333333334,-92.02133333333335L-22.421333333333337,-83.27333333333334L-13.673333333333337,-74.52533333333334Z   M0.9066666666666663,-66.53333333333335L-18.53333333333333,-85.97333333333334L-37.973333333333336,-66.53333333333335L-18.53333333333334,-47.09333333333335Z M-14.645333333333333,-71.39333333333335L-23.393333333333334,-80.14133333333335L-32.141333333333336,-71.39333333333335L-23.393333333333338,-62.64533333333334Z  M-14.645333333333333,-61.673333333333346L-23.393333333333334,-70.42133333333335L-32.141333333333336,-61.673333333333346L-23.393333333333338,-52.92533333333334Z  M-4.9253333333333345,-71.39333333333335L-13.673333333333334,-80.14133333333335L-22.421333333333337,-71.39333333333335L-13.673333333333337,-62.64533333333334Z  M-4.9253333333333345,-61.673333333333346L-13.673333333333334,-70.42133333333335L-22.421333333333337,-61.673333333333346L-13.673333333333337,-52.92533333333334Z    M13.866666666666667,-29.333333333333332L-29.333333333333332,-72.53333333333333L-72.53333333333333,-29.333333333333343L-29.333333333333346,13.866666666666667Z M-20.69333333333334,-40.13333333333334L-40.13333333333334,-59.57333333333334L-59.57333333333334,-40.13333333333335L-40.13333333333335,-20.69333333333334Z M-36.245333333333335,-44.99333333333334L-44.99333333333334,-53.741333333333344L-53.741333333333344,-44.99333333333334L-44.99333333333334,-36.245333333333335Z  M-36.245333333333335,-35.27333333333334L-44.99333333333334,-44.021333333333345L-53.741333333333344,-35.27333333333334L-44.99333333333334,-26.52533333333334Z  M-26.52533333333334,-44.99333333333334L-35.27333333333334,-53.741333333333344L-44.021333333333345,-44.99333333333334L-35.27333333333334,-36.245333333333335Z  M-26.52533333333334,-35.27333333333334L-35.27333333333334,-44.021333333333345L-44.021333333333345,-35.27333333333334L-35.27333333333334,-26.52533333333334Z   M-20.69333333333334,-18.533333333333335L-40.13333333333334,-37.973333333333336L-59.57333333333334,-18.53333333333334L-40.13333333333335,0.9066666666666663Z M-36.245333333333335,-23.393333333333334L-44.99333333333334,-32.141333333333336L-53.741333333333344,-23.393333333333334L-44.99333333333334,-14.645333333333333Z  M-36.245333333333335,-13.673333333333336L-44.99333333333334,-22.421333333333337L-53.741333333333344,-13.673333333333337L-44.99333333333334,-4.9253333333333345Z  M-26.52533333333334,-23.393333333333334L-35.27333333333334,-32.141333333333336L-44.021333333333345,-23.393333333333334L-35.27333333333334,-14.645333333333333Z  M-26.52533333333334,-13.673333333333336L-35.27333333333334,-22.421333333333337L-44.021333333333345,-13.673333333333337L-35.27333333333334,-4.9253333333333345Z   M0.9066666666666663,-40.13333333333334L-18.53333333333333,-59.57333333333334L-37.973333333333336,-40.13333333333335L-18.53333333333334,-20.69333333333334Z M-14.645333333333333,-44.99333333333334L-23.393333333333334,-53.741333333333344L-32.141333333333336,-44.99333333333334L-23.393333333333338,-36.245333333333335Z  M-14.645333333333333,-35.27333333333334L-23.393333333333334,-44.021333333333345L-32.141333333333336,-35.27333333333334L-23.393333333333338,-26.52533333333334Z  M-4.9253333333333345,-44.99333333333334L-13.673333333333334,-53.741333333333344L-22.421333333333337,-44.99333333333334L-13.673333333333337,-36.245333333333335Z  M-4.9253333333333345,-35.27333333333334L-13.673333333333334,-44.021333333333345L-22.421333333333337,-35.27333333333334L-13.673333333333337,-26.52533333333334Z   M0.9066666666666663,-18.533333333333335L-18.53333333333333,-37.973333333333336L-37.973333333333336,-18.53333333333334L-18.53333333333334,0.9066666666666663Z M-14.645333333333333,-23.393333333333334L-23.393333333333334,-32.141333333333336L-32.141333333333336,-23.393333333333334L-23.393333333333338,-14.645333333333333Z  M-14.645333333333333,-13.673333333333336L-23.393333333333334,-22.421333333333337L-32.141333333333336,-13.673333333333337L-23.393333333333338,-4.9253333333333345Z  M-4.9253333333333345,-23.393333333333334L-13.673333333333334,-32.141333333333336L-22.421333333333337,-23.393333333333334L-13.673333333333337,-14.645333333333333Z  M-4.9253333333333345,-13.673333333333336L-13.673333333333334,-22.421333333333337L-22.421333333333337,-13.673333333333337L-13.673333333333337,-4.9253333333333345Z     M42.666666666666664,53.33333333333334L-53.33333333333332,-42.666666666666664L-149.33333333333334,53.33333333333332L-53.33333333333336,149.33333333333334Z M-34.13333333333334,29.33333333333334L-77.33333333333334,-13.866666666666667L-120.53333333333335,29.33333333333333L-77.33333333333336,72.53333333333333Z M-68.69333333333334,18.533333333333335L-88.13333333333334,-0.9066666666666663L-107.57333333333334,18.53333333333333L-88.13333333333334,37.973333333333336Z M-84.24533333333333,13.673333333333336L-92.99333333333334,4.9253333333333345L-101.74133333333334,13.673333333333334L-92.99333333333334,22.421333333333337Z  M-84.24533333333333,23.393333333333334L-92.99333333333334,14.645333333333333L-101.74133333333334,23.393333333333334L-92.99333333333334,32.141333333333336Z  M-74.52533333333334,13.673333333333336L-83.27333333333334,4.9253333333333345L-92.02133333333335,13.673333333333334L-83.27333333333334,22.421333333333337Z  M-74.52533333333334,23.393333333333334L-83.27333333333334,14.645333333333333L-92.02133333333335,23.393333333333334L-83.27333333333334,32.141333333333336Z   M-68.69333333333334,40.13333333333334L-88.13333333333334,20.69333333333334L-107.57333333333334,40.13333333333333L-88.13333333333334,59.57333333333334Z M-84.24533333333333,35.27333333333334L-92.99333333333334,26.52533333333334L-101.74133333333334,35.27333333333334L-92.99333333333334,44.021333333333345Z  M-84.24533333333333,44.99333333333334L-92.99333333333334,36.245333333333335L-101.74133333333334,44.99333333333334L-92.99333333333334,53.741333333333344Z  M-74.52533333333334,35.27333333333334L-83.27333333333334,26.52533333333334L-92.02133333333335,35.27333333333334L-83.27333333333334,44.021333333333345Z  M-74.52533333333334,44.99333333333334L-83.27333333333334,36.245333333333335L-92.02133333333335,44.99333333333334L-83.27333333333334,53.741333333333344Z   M-47.09333333333335,18.533333333333335L-66.53333333333335,-0.9066666666666663L-85.97333333333334,18.53333333333333L-66.53333333333335,37.973333333333336Z M-62.64533333333334,13.673333333333336L-71.39333333333335,4.9253333333333345L-80.14133333333335,13.673333333333334L-71.39333333333335,22.421333333333337Z  M-62.64533333333334,23.393333333333334L-71.39333333333335,14.645333333333333L-80.14133333333335,23.393333333333334L-71.39333333333335,32.141333333333336Z  M-52.92533333333334,13.673333333333336L-61.673333333333346,4.9253333333333345L-70.42133333333335,13.673333333333334L-61.673333333333346,22.421333333333337Z  M-52.92533333333334,23.393333333333334L-61.673333333333346,14.645333333333333L-70.42133333333335,23.393333333333334L-61.673333333333346,32.141333333333336Z   M-47.09333333333335,40.13333333333334L-66.53333333333335,20.69333333333334L-85.97333333333334,40.13333333333333L-66.53333333333335,59.57333333333334Z M-62.64533333333334,35.27333333333334L-71.39333333333335,26.52533333333334L-80.14133333333335,35.27333333333334L-71.39333333333335,44.021333333333345Z  M-62.64533333333334,44.99333333333334L-71.39333333333335,36.245333333333335L-80.14133333333335,44.99333333333334L-71.39333333333335,53.741333333333344Z  M-52.92533333333334,35.27333333333334L-61.673333333333346,26.52533333333334L-70.42133333333335,35.27333333333334L-61.673333333333346,44.021333333333345Z  M-52.92533333333334,44.99333333333334L-61.673333333333346,36.245333333333335L-70.42133333333335,44.99333333333334L-61.673333333333346,53.741333333333344Z    M-34.13333333333334,77.33333333333334L-77.33333333333334,34.13333333333334L-120.53333333333335,77.33333333333333L-77.33333333333336,120.53333333333335Z M-68.69333333333334,66.53333333333335L-88.13333333333334,47.09333333333335L-107.57333333333334,66.53333333333335L-88.13333333333334,85.97333333333334Z M-84.24533333333333,61.673333333333346L-92.99333333333334,52.92533333333334L-101.74133333333334,61.673333333333346L-92.99333333333334,70.42133333333335Z  M-84.24533333333333,71.39333333333335L-92.99333333333334,62.64533333333334L-101.74133333333334,71.39333333333335L-92.99333333333334,80.14133333333335Z  M-74.52533333333334,61.673333333333346L-83.27333333333334,52.92533333333334L-92.02133333333335,61.673333333333346L-83.27333333333334,70.42133333333335Z  M-74.52533333333334,71.39333333333335L-83.27333333333334,62.64533333333334L-92.02133333333335,71.39333333333335L-83.27333333333334,80.14133333333335Z   M-68.69333333333334,88.13333333333334L-88.13333333333334,68.69333333333334L-107.57333333333334,88.13333333333334L-88.13333333333334,107.57333333333334Z M-84.24533333333333,83.27333333333334L-92.99333333333334,74.52533333333334L-101.74133333333334,83.27333333333334L-92.99333333333334,92.02133333333335Z  M-84.24533333333333,92.99333333333334L-92.99333333333334,84.24533333333333L-101.74133333333334,92.99333333333334L-92.99333333333334,101.74133333333334Z  M-74.52533333333334,83.27333333333334L-83.27333333333334,74.52533333333334L-92.02133333333335,83.27333333333334L-83.27333333333334,92.02133333333335Z  M-74.52533333333334,92.99333333333334L-83.27333333333334,84.24533333333333L-92.02133333333335,92.99333333333334L-83.27333333333334,101.74133333333334Z   M-47.09333333333335,66.53333333333335L-66.53333333333335,47.09333333333335L-85.97333333333334,66.53333333333335L-66.53333333333335,85.97333333333334Z M-62.64533333333334,61.673333333333346L-71.39333333333335,52.92533333333334L-80.14133333333335,61.673333333333346L-71.39333333333335,70.42133333333335Z  M-62.64533333333334,71.39333333333335L-71.39333333333335,62.64533333333334L-80.14133333333335,71.39333333333335L-71.39333333333335,80.14133333333335Z  M-52.92533333333334,61.673333333333346L-61.673333333333346,52.92533333333334L-70.42133333333335,61.673333333333346L-61.673333333333346,70.42133333333335Z  M-52.92533333333334,71.39333333333335L-61.673333333333346,62.64533333333334L-70.42133333333335,71.39333333333335L-61.673333333333346,80.14133333333335Z   M-47.09333333333335,88.13333333333334L-66.53333333333335,68.69333333333334L-85.97333333333334,88.13333333333334L-66.53333333333335,107.57333333333334Z M-62.64533333333334,83.27333333333334L-71.39333333333335,74.52533333333334L-80.14133333333335,83.27333333333334L-71.39333333333335,92.02133333333335Z  M-62.64533333333334,92.99333333333334L-71.39333333333335,84.24533333333333L-80.14133333333335,92.99333333333334L-71.39333333333335,101.74133333333334Z  M-52.92533333333334,83.27333333333334L-61.673333333333346,74.52533333333334L-70.42133333333335,83.27333333333334L-61.673333333333346,92.02133333333335Z  M-52.92533333333334,92.99333333333334L-61.673333333333346,84.24533333333333L-70.42133333333335,92.99333333333334L-61.673333333333346,101.74133333333334Z    M13.866666666666667,29.33333333333334L-29.333333333333332,-13.866666666666667L-72.53333333333333,29.33333333333333L-29.333333333333346,72.53333333333333Z M-20.69333333333334,18.533333333333335L-40.13333333333334,-0.9066666666666663L-59.57333333333334,18.53333333333333L-40.13333333333335,37.973333333333336Z M-36.245333333333335,13.673333333333336L-44.99333333333334,4.9253333333333345L-53.741333333333344,13.673333333333334L-44.99333333333334,22.421333333333337Z  M-36.245333333333335,23.393333333333334L-44.99333333333334,14.645333333333333L-53.741333333333344,23.393333333333334L-44.99333333333334,32.141333333333336Z  M-26.52533333333334,13.673333333333336L-35.27333333333334,4.9253333333333345L-44.021333333333345,13.673333333333334L-35.27333333333334,22.421333333333337Z  M-26.52533333333334,23.393333333333334L-35.27333333333334,14.645333333333333L-44.021333333333345,23.393333333333334L-35.27333333333334,32.141333333333336Z   M-20.69333333333334,40.13333333333334L-40.13333333333334,20.69333333333334L-59.57333333333334,40.13333333333333L-40.13333333333335,59.57333333333334Z M-36.245333333333335,35.27333333333334L-44.99333333333334,26.52533333333334L-53.741333333333344,35.27333333333334L-44.99333333333334,44.021333333333345Z  M-36.245333333333335,44.99333333333334L-44.99333333333334,36.245333333333335L-53.741333333333344,44.99333333333334L-44.99333333333334,53.741333333333344Z  M-26.52533333333334,35.27333333333334L-35.27333333333334,26.52533333333334L-44.021333333333345,35.27333333333334L-35.27333333333334,44.021333333333345Z  M-26.52533333333334,44.99333333333334L-35.27333333333334,36.245333333333335L-44.021333333333345,44.99333333333334L-35.27333333333334,53.741333333333344Z   M0.9066666666666663,18.533333333333335L-18.53333333333333,-0.9066666666666663L-37.973333333333336,18.53333333333333L-18.53333333333334,37.973333333333336Z M-14.645333333333333,13.673333333333336L-23.393333333333334,4.9253333333333345L-32.141333333333336,13.673333333333334L-23.393333333333338,22.421333333333337Z  M-14.645333333333333,23.393333333333334L-23.393333333333334,14.645333333333333L-32.141333333333336,23.393333333333334L-23.393333333333338,32.141333333333336Z  M-4.9253333333333345,13.673333333333336L-13.673333333333334,4.9253333333333345L-22.421333333333337,13.673333333333334L-13.673333333333337,22.421333333333337Z  M-4.9253333333333345,23.393333333333334L-13.673333333333334,14.645333333333333L-22.421333333333337,23.393333333333334L-13.673333333333337,32.141333333333336Z   M0.9066666666666663,40.13333333333334L-18.53333333333333,20.69333333333334L-37.973333333333336,40.13333333333333L-18.53333333333334,59.57333333333334Z M-14.645333333333333,35.27333333333334L-23.393333333333334,26.52533333333334L-32.141333333333336,35.27333333333334L-23.393333333333338,44.021333333333345Z  M-14.645333333333333,44.99333333333334L-23.393333333333334,36.245333333333335L-32.141333333333336,44.99333333333334L-23.393333333333338,53.741333333333344Z  M-4.9253333333333345,35.27333333333334L-13.673333333333334,26.52533333333334L-22.421333333333337,35.27333333333334L-13.673333333333337,44.021333333333345Z  M-4.9253333333333345,44.99333333333334L-13.673333333333334,36.245333333333335L-22.421333333333337,44.99333333333334L-13.673333333333337,53.741333333333344Z    M13.866666666666667,77.33333333333334L-29.333333333333332,34.13333333333334L-72.53333333333333,77.33333333333333L-29.333333333333346,120.53333333333335Z M-20.69333333333334,66.53333333333335L-40.13333333333334,47.09333333333335L-59.57333333333334,66.53333333333335L-40.13333333333335,85.97333333333334Z M-36.245333333333335,61.673333333333346L-44.99333333333334,52.92533333333334L-53.741333333333344,61.673333333333346L-44.99333333333334,70.42133333333335Z  M-36.245333333333335,71.39333333333335L-44.99333333333334,62.64533333333334L-53.741333333333344,71.39333333333335L-44.99333333333334,80.14133333333335Z  M-26.52533333333334,61.673333333333346L-35.27333333333334,52.92533333333334L-44.021333333333345,61.673333333333346L-35.27333333333334,70.42133333333335Z  M-26.52533333333334,71.39333333333335L-35.27333333333334,62.64533333333334L-44.021333333333345,71.39333333333335L-35.27333333333334,80.14133333333335Z   M-20.69333333333334,88.13333333333334L-40.13333333333334,68.69333333333334L-59.57333333333334,88.13333333333334L-40.13333333333335,107.57333333333334Z M-36.245333333333335,83.27333333333334L-44.99333333333334,74.52533333333334L-53.741333333333344,83.27333333333334L-44.99333333333334,92.02133333333335Z  M-36.245333333333335,92.99333333333334L-44.99333333333334,84.24533333333333L-53.741333333333344,92.99333333333334L-44.99333333333334,101.74133333333334Z  M-26.52533333333334,83.27333333333334L-35.27333333333334,74.52533333333334L-44.021333333333345,83.27333333333334L-35.27333333333334,92.02133333333335Z  M-26.52533333333334,92.99333333333334L-35.27333333333334,84.24533333333333L-44.021333333333345,92.99333333333334L-35.27333333333334,101.74133333333334Z   M0.9066666666666663,66.53333333333335L-18.53333333333333,47.09333333333335L-37.973333333333336,66.53333333333335L-18.53333333333334,85.97333333333334Z M-14.645333333333333,61.673333333333346L-23.393333333333334,52.92533333333334L-32.141333333333336,61.673333333333346L-23.393333333333338,70.42133333333335Z  M-14.645333333333333,71.39333333333335L-23.393333333333334,62.64533333333334L-32.141333333333336,71.39333333333335L-23.393333333333338,80.14133333333335Z  M-4.9253333333333345,61.673333333333346L-13.673333333333334,52.92533333333334L-22.421333333333337,61.673333333333346L-13.673333333333337,70.42133333333335Z  M-4.9253333333333345,71.39333333333335L-13.673333333333334,62.64533333333334L-22.421333333333337,71.39333333333335L-13.673333333333337,80.14133333333335Z   M0.9066666666666663,88.13333333333334L-18.53333333333333,68.69333333333334L-37.973333333333336,88.13333333333334L-18.53333333333334,107.57333333333334Z M-14.645333333333333,83.27333333333334L-23.393333333333334,74.52533333333334L-32.141333333333336,83.27333333333334L-23.393333333333338,92.02133333333335Z  M-14.645333333333333,92.99333333333334L-23.393333333333334,84.24533333333333L-32.141333333333336,92.99333333333334L-23.393333333333338,101.74133333333334Z  M-4.9253333333333345,83.27333333333334L-13.673333333333334,74.52533333333334L-22.421333333333337,83.27333333333334L-13.673333333333337,92.02133333333335Z  M-4.9253333333333345,92.99333333333334L-13.673333333333334,84.24533333333333L-22.421333333333337,92.99333333333334L-13.673333333333337,101.74133333333334Z     M149.33333333333334,-53.33333333333333L53.33333333333335,-149.33333333333334L-42.666666666666664,-53.33333333333335L53.333333333333314,42.666666666666664Z M72.53333333333333,-77.33333333333334L29.33333333333334,-120.53333333333335L-13.866666666666667,-77.33333333333336L29.333333333333325,-34.13333333333334Z M37.973333333333336,-88.13333333333334L18.53333333333334,-107.57333333333334L-0.9066666666666663,-88.13333333333334L18.53333333333333,-68.69333333333334Z M22.421333333333337,-92.99333333333334L13.673333333333337,-101.74133333333334L4.9253333333333345,-92.99333333333334L13.673333333333334,-84.24533333333333Z  M22.421333333333337,-83.27333333333334L13.673333333333337,-92.02133333333335L4.9253333333333345,-83.27333333333334L13.673333333333334,-74.52533333333334Z  M32.141333333333336,-92.99333333333334L23.393333333333334,-101.74133333333334L14.645333333333333,-92.99333333333334L23.39333333333333,-84.24533333333333Z  M32.141333333333336,-83.27333333333334L23.393333333333334,-92.02133333333335L14.645333333333333,-83.27333333333334L23.39333333333333,-74.52533333333334Z   M37.973333333333336,-66.53333333333335L18.53333333333334,-85.97333333333334L-0.9066666666666663,-66.53333333333335L18.53333333333333,-47.09333333333335Z M22.421333333333337,-71.39333333333335L13.673333333333337,-80.14133333333335L4.9253333333333345,-71.39333333333335L13.673333333333334,-62.64533333333334Z  M22.421333333333337,-61.673333333333346L13.673333333333337,-70.42133333333335L4.9253333333333345,-61.673333333333346L13.673333333333334,-52.92533333333334Z  M32.141333333333336,-71.39333333333335L23.393333333333334,-80.14133333333335L14.645333333333333,-71.39333333333335L23.39333333333333,-62.64533333333334Z  M32.141333333333336,-61.673333333333346L23.393333333333334,-70.42133333333335L14.645333333333333,-61.673333333333346L23.39333333333333,-52.92533333333334Z   M59.57333333333334,-88.13333333333334L40.13333333333334,-107.57333333333334L20.69333333333334,-88.13333333333334L40.13333333333333,-68.69333333333334Z M44.021333333333345,-92.99333333333334L35.27333333333334,-101.74133333333334L26.52533333333334,-92.99333333333334L35.27333333333334,-84.24533333333333Z  M44.021333333333345,-83.27333333333334L35.27333333333334,-92.02133333333335L26.52533333333334,-83.27333333333334L35.27333333333334,-74.52533333333334Z  M53.741333333333344,-92.99333333333334L44.99333333333334,-101.74133333333334L36.245333333333335,-92.99333333333334L44.99333333333334,-84.24533333333333Z  M53.741333333333344,-83.27333333333334L44.99333333333334,-92.02133333333335L36.245333333333335,-83.27333333333334L44.99333333333334,-74.52533333333334Z   M59.57333333333334,-66.53333333333335L40.13333333333334,-85.97333333333334L20.69333333333334,-66.53333333333335L40.13333333333333,-47.09333333333335Z M44.021333333333345,-71.39333333333335L35.27333333333334,-80.14133333333335L26.52533333333334,-71.39333333333335L35.27333333333334,-62.64533333333334Z  M44.021333333333345,-61.673333333333346L35.27333333333334,-70.42133333333335L26.52533333333334,-61.673333333333346L35.27333333333334,-52.92533333333334Z  M53.741333333333344,-71.39333333333335L44.99333333333334,-80.14133333333335L36.245333333333335,-71.39333333333335L44.99333333333334,-62.64533333333334Z  M53.741333333333344,-61.673333333333346L44.99333333333334,-70.42133333333335L36.245333333333335,-61.673333333333346L44.99333333333334,-52.92533333333334Z    M72.53333333333333,-29.333333333333332L29.33333333333334,-72.53333333333333L-13.866666666666667,-29.333333333333343L29.333333333333325,13.866666666666667Z M37.973333333333336,-40.13333333333334L18.53333333333334,-59.57333333333334L-0.9066666666666663,-40.13333333333335L18.53333333333333,-20.69333333333334Z M22.421333333333337,-44.99333333333334L13.673333333333337,-53.741333333333344L4.9253333333333345,-44.99333333333334L13.673333333333334,-36.245333333333335Z  M22.421333333333337,-35.27333333333334L13.673333333333337,-44.021333333333345L4.9253333333333345,-35.27333333333334L13.673333333333334,-26.52533333333334Z  M32.141333333333336,-44.99333333333334L23.393333333333334,-53.741333333333344L14.645333333333333,-44.99333333333334L23.39333333333333,-36.245333333333335Z  M32.141333333333336,-35.27333333333334L23.393333333333334,-44.021333333333345L14.645333333333333,-35.27333333333334L23.39333333333333,-26.52533333333334Z   M37.973333333333336,-18.533333333333335L18.53333333333334,-37.973333333333336L-0.9066666666666663,-18.53333333333334L18.53333333333333,0.9066666666666663Z M22.421333333333337,-23.393333333333334L13.673333333333337,-32.141333333333336L4.9253333333333345,-23.393333333333334L13.673333333333334,-14.645333333333333Z  M22.421333333333337,-13.673333333333336L13.673333333333337,-22.421333333333337L4.9253333333333345,-13.673333333333337L13.673333333333334,-4.9253333333333345Z  M32.141333333333336,-23.393333333333334L23.393333333333334,-32.141333333333336L14.645333333333333,-23.393333333333334L23.39333333333333,-14.645333333333333Z  M32.141333333333336,-13.673333333333336L23.393333333333334,-22.421333333333337L14.645333333333333,-13.673333333333337L23.39333333333333,-4.9253333333333345Z   M59.57333333333334,-40.13333333333334L40.13333333333334,-59.57333333333334L20.69333333333334,-40.13333333333335L40.13333333333333,-20.69333333333334Z M44.021333333333345,-44.99333333333334L35.27333333333334,-53.741333333333344L26.52533333333334,-44.99333333333334L35.27333333333334,-36.245333333333335Z  M44.021333333333345,-35.27333333333334L35.27333333333334,-44.021333333333345L26.52533333333334,-35.27333333333334L35.27333333333334,-26.52533333333334Z  M53.741333333333344,-44.99333333333334L44.99333333333334,-53.741333333333344L36.245333333333335,-44.99333333333334L44.99333333333334,-36.245333333333335Z  M53.741333333333344,-35.27333333333334L44.99333333333334,-44.021333333333345L36.245333333333335,-35.27333333333334L44.99333333333334,-26.52533333333334Z   M59.57333333333334,-18.533333333333335L40.13333333333334,-37.973333333333336L20.69333333333334,-18.53333333333334L40.13333333333333,0.9066666666666663Z M44.021333333333345,-23.393333333333334L35.27333333333334,-32.141333333333336L26.52533333333334,-23.393333333333334L35.27333333333334,-14.645333333333333Z  M44.021333333333345,-13.673333333333336L35.27333333333334,-22.421333333333337L26.52533333333334,-13.673333333333337L35.27333333333334,-4.9253333333333345Z  M53.741333333333344,-23.393333333333334L44.99333333333334,-32.141333333333336L36.245333333333335,-23.393333333333334L44.99333333333334,-14.645333333333333Z  M53.741333333333344,-13.673333333333336L44.99333333333334,-22.421333333333337L36.245333333333335,-13.673333333333337L44.99333333333334,-4.9253333333333345Z    M120.53333333333335,-77.33333333333334L77.33333333333334,-120.53333333333335L34.13333333333334,-77.33333333333336L77.33333333333333,-34.13333333333334Z M85.97333333333334,-88.13333333333334L66.53333333333335,-107.57333333333334L47.09333333333335,-88.13333333333334L66.53333333333335,-68.69333333333334Z M70.42133333333335,-92.99333333333334L61.673333333333346,-101.74133333333334L52.92533333333334,-92.99333333333334L61.673333333333346,-84.24533333333333Z  M70.42133333333335,-83.27333333333334L61.673333333333346,-92.02133333333335L52.92533333333334,-83.27333333333334L61.673333333333346,-74.52533333333334Z  M80.14133333333335,-92.99333333333334L71.39333333333335,-101.74133333333334L62.64533333333334,-92.99333333333334L71.39333333333335,-84.24533333333333Z  M80.14133333333335,-83.27333333333334L71.39333333333335,-92.02133333333335L62.64533333333334,-83.27333333333334L71.39333333333335,-74.52533333333334Z   M85.97333333333334,-66.53333333333335L66.53333333333335,-85.97333333333334L47.09333333333335,-66.53333333333335L66.53333333333335,-47.09333333333335Z M70.42133333333335,-71.39333333333335L61.673333333333346,-80.14133333333335L52.92533333333334,-71.39333333333335L61.673333333333346,-62.64533333333334Z  M70.42133333333335,-61.673333333333346L61.673333333333346,-70.42133333333335L52.92533333333334,-61.673333333333346L61.673333333333346,-52.92533333333334Z  M80.14133333333335,-71.39333333333335L71.39333333333335,-80.14133333333335L62.64533333333334,-71.39333333333335L71.39333333333335,-62.64533333333334Z  M80.14133333333335,-61.673333333333346L71.39333333333335,-70.42133333333335L62.64533333333334,-61.673333333333346L71.39333333333335,-52.92533333333334Z   M107.57333333333334,-88.13333333333334L88.13333333333334,-107.57333333333334L68.69333333333334,-88.13333333333334L88.13333333333334,-68.69333333333334Z M92.02133333333335,-92.99333333333334L83.27333333333334,-101.74133333333334L74.52533333333334,-92.99333333333334L83.27333333333334,-84.24533333333333Z  M92.02133333333335,-83.27333333333334L83.27333333333334,-92.02133333333335L74.52533333333334,-83.27333333333334L83.27333333333334,-74.52533333333334Z  M101.74133333333334,-92.99333333333334L92.99333333333334,-101.74133333333334L84.24533333333333,-92.99333333333334L92.99333333333334,-84.24533333333333Z  M101.74133333333334,-83.27333333333334L92.99333333333334,-92.02133333333335L84.24533333333333,-83.27333333333334L92.99333333333334,-74.52533333333334Z   M107.57333333333334,-66.53333333333335L88.13333333333334,-85.97333333333334L68.69333333333334,-66.53333333333335L88.13333333333334,-47.09333333333335Z M92.02133333333335,-71.39333333333335L83.27333333333334,-80.14133333333335L74.52533333333334,-71.39333333333335L83.27333333333334,-62.64533333333334Z  M92.02133333333335,-61.673333333333346L83.27333333333334,-70.42133333333335L74.52533333333334,-61.673333333333346L83.27333333333334,-52.92533333333334Z  M101.74133333333334,-71.39333333333335L92.99333333333334,-80.14133333333335L84.24533333333333,-71.39333333333335L92.99333333333334,-62.64533333333334Z  M101.74133333333334,-61.673333333333346L92.99333333333334,-70.42133333333335L84.24533333333333,-61.673333333333346L92.99333333333334,-52.92533333333334Z    M120.53333333333335,-29.333333333333332L77.33333333333334,-72.53333333333333L34.13333333333334,-29.333333333333343L77.33333333333333,13.866666666666667Z M85.97333333333334,-40.13333333333334L66.53333333333335,-59.57333333333334L47.09333333333335,-40.13333333333335L66.53333333333335,-20.69333333333334Z M70.42133333333335,-44.99333333333334L61.673333333333346,-53.741333333333344L52.92533333333334,-44.99333333333334L61.673333333333346,-36.245333333333335Z  M70.42133333333335,-35.27333333333334L61.673333333333346,-44.021333333333345L52.92533333333334,-35.27333333333334L61.673333333333346,-26.52533333333334Z  M80.14133333333335,-44.99333333333334L71.39333333333335,-53.741333333333344L62.64533333333334,-44.99333333333334L71.39333333333335,-36.245333333333335Z  M80.14133333333335,-35.27333333333334L71.39333333333335,-44.021333333333345L62.64533333333334,-35.27333333333334L71.39333333333335,-26.52533333333334Z   M85.97333333333334,-18.533333333333335L66.53333333333335,-37.973333333333336L47.09333333333335,-18.53333333333334L66.53333333333335,0.9066666666666663Z M70.42133333333335,-23.393333333333334L61.673333333333346,-32.141333333333336L52.92533333333334,-23.393333333333334L61.673333333333346,-14.645333333333333Z  M70.42133333333335,-13.673333333333336L61.673333333333346,-22.421333333333337L52.92533333333334,-13.673333333333337L61.673333333333346,-4.9253333333333345Z  M80.14133333333335,-23.393333333333334L71.39333333333335,-32.141333333333336L62.64533333333334,-23.393333333333334L71.39333333333335,-14.645333333333333Z  M80.14133333333335,-13.673333333333336L71.39333333333335,-22.421333333333337L62.64533333333334,-13.673333333333337L71.39333333333335,-4.9253333333333345Z   M107.57333333333334,-40.13333333333334L88.13333333333334,-59.57333333333334L68.69333333333334,-40.13333333333335L88.13333333333334,-20.69333333333334Z M92.02133333333335,-44.99333333333334L83.27333333333334,-53.741333333333344L74.52533333333334,-44.99333333333334L83.27333333333334,-36.245333333333335Z  M92.02133333333335,-35.27333333333334L83.27333333333334,-44.021333333333345L74.52533333333334,-35.27333333333334L83.27333333333334,-26.52533333333334Z  M101.74133333333334,-44.99333333333334L92.99333333333334,-53.741333333333344L84.24533333333333,-44.99333333333334L92.99333333333334,-36.245333333333335Z  M101.74133333333334,-35.27333333333334L92.99333333333334,-44.021333333333345L84.24533333333333,-35.27333333333334L92.99333333333334,-26.52533333333334Z   M107.57333333333334,-18.533333333333335L88.13333333333334,-37.973333333333336L68.69333333333334,-18.53333333333334L88.13333333333334,0.9066666666666663Z M92.02133333333335,-23.393333333333334L83.27333333333334,-32.141333333333336L74.52533333333334,-23.393333333333334L83.27333333333334,-14.645333333333333Z  M92.02133333333335,-13.673333333333336L83.27333333333334,-22.421333333333337L74.52533333333334,-13.673333333333337L83.27333333333334,-4.9253333333333345Z  M101.74133333333334,-23.393333333333334L92.99333333333334,-32.141333333333336L84.24533333333333,-23.393333333333334L92.99333333333334,-14.645333333333333Z  M101.74133333333334,-13.673333333333336L92.99333333333334,-22.421333333333337L84.24533333333333,-13.673333333333337L92.99333333333334,-4.9253333333333345Z     M149.33333333333334,53.33333333333334L53.33333333333335,-42.666666666666664L-42.666666666666664,53.33333333333332L53.333333333333314,149.33333333333334Z M72.53333333333333,29.33333333333334L29.33333333333334,-13.866666666666667L-13.866666666666667,29.33333333333333L29.333333333333325,72.53333333333333Z M37.973333333333336,18.533333333333335L18.53333333333334,-0.9066666666666663L-0.9066666666666663,18.53333333333333L18.53333333333333,37.973333333333336Z M22.421333333333337,13.673333333333336L13.673333333333337,4.9253333333333345L4.9253333333333345,13.673333333333334L13.673333333333334,22.421333333333337Z  M22.421333333333337,23.393333333333334L13.673333333333337,14.645333333333333L4.9253333333333345,23.393333333333334L13.673333333333334,32.141333333333336Z  M32.141333333333336,13.673333333333336L23.393333333333334,4.9253333333333345L14.645333333333333,13.673333333333334L23.39333333333333,22.421333333333337Z  M32.141333333333336,23.393333333333334L23.393333333333334,14.645333333333333L14.645333333333333,23.393333333333334L23.39333333333333,32.141333333333336Z   M37.973333333333336,40.13333333333334L18.53333333333334,20.69333333333334L-0.9066666666666663,40.13333333333333L18.53333333333333,59.57333333333334Z M22.421333333333337,35.27333333333334L13.673333333333337,26.52533333333334L4.9253333333333345,35.27333333333334L13.673333333333334,44.021333333333345Z  M22.421333333333337,44.99333333333334L13.673333333333337,36.245333333333335L4.9253333333333345,44.99333333333334L13.673333333333334,53.741333333333344Z  M32.141333333333336,35.27333333333334L23.393333333333334,26.52533333333334L14.645333333333333,35.27333333333334L23.39333333333333,44.021333333333345Z  M32.141333333333336,44.99333333333334L23.393333333333334,36.245333333333335L14.645333333333333,44.99333333333334L23.39333333333333,53.741333333333344Z   M59.57333333333334,18.533333333333335L40.13333333333334,-0.9066666666666663L20.69333333333334,18.53333333333333L40.13333333333333,37.973333333333336Z M44.021333333333345,13.673333333333336L35.27333333333334,4.9253333333333345L26.52533333333334,13.673333333333334L35.27333333333334,22.421333333333337Z  M44.021333333333345,23.393333333333334L35.27333333333334,14.645333333333333L26.52533333333334,23.393333333333334L35.27333333333334,32.141333333333336Z  M53.741333333333344,13.673333333333336L44.99333333333334,4.9253333333333345L36.245333333333335,13.673333333333334L44.99333333333334,22.421333333333337Z  M53.741333333333344,23.393333333333334L44.99333333333334,14.645333333333333L36.245333333333335,23.393333333333334L44.99333333333334,32.141333333333336Z   M59.57333333333334,40.13333333333334L40.13333333333334,20.69333333333334L20.69333333333334,40.13333333333333L40.13333333333333,59.57333333333334Z M44.021333333333345,35.27333333333334L35.27333333333334,26.52533333333334L26.52533333333334,35.27333333333334L35.27333333333334,44.021333333333345Z  M44.021333333333345,44.99333333333334L35.27333333333334,36.245333333333335L26.52533333333334,44.99333333333334L35.27333333333334,53.741333333333344Z  M53.741333333333344,35.27333333333334L44.99333333333334,26.52533333333334L36.245333333333335,35.27333333333334L44.99333333333334,44.021333333333345Z  M53.741333333333344,44.99333333333334L44.99333333333334,36.245333333333335L36.245333333333335,44.99333333333334L44.99333333333334,53.741333333333344Z    M72.53333333333333,77.33333333333334L29.33333333333334,34.13333333333334L-13.866666666666667,77.33333333333333L29.333333333333325,120.53333333333335Z M37.973333333333336,66.53333333333335L18.53333333333334,47.09333333333335L-0.9066666666666663,66.53333333333335L18.53333333333333,85.97333333333334Z M22.421333333333337,61.673333333333346L13.673333333333337,52.92533333333334L4.9253333333333345,61.673333333333346L13.673333333333334,70.42133333333335Z  M22.421333333333337,71.39333333333335L13.673333333333337,62.64533333333334L4.9253333333333345,71.39333333333335L13.673333333333334,80.14133333333335Z  M32.141333333333336,61.673333333333346L23.393333333333334,52.92533333333334L14.645333333333333,61.673333333333346L23.39333333333333,70.42133333333335Z  M32.141333333333336,71.39333333333335L23.393333333333334,62.64533333333334L14.645333333333333,71.39333333333335L23.39333333333333,80.14133333333335Z   M37.973333333333336,88.13333333333334L18.53333333333334,68.69333333333334L-0.9066666666666663,88.13333333333334L18.53333333333333,107.57333333333334Z M22.421333333333337,83.27333333333334L13.673333333333337,74.52533333333334L4.9253333333333345,83.27333333333334L13.673333333333334,92.02133333333335Z  M22.421333333333337,92.99333333333334L13.673333333333337,84.24533333333333L4.9253333333333345,92.99333333333334L13.673333333333334,101.74133333333334Z  M32.141333333333336,83.27333333333334L23.393333333333334,74.52533333333334L14.645333333333333,83.27333333333334L23.39333333333333,92.02133333333335Z  M32.141333333333336,92.99333333333334L23.393333333333334,84.24533333333333L14.645333333333333,92.99333333333334L23.39333333333333,101.74133333333334Z   M59.57333333333334,66.53333333333335L40.13333333333334,47.09333333333335L20.69333333333334,66.53333333333335L40.13333333333333,85.97333333333334Z M44.021333333333345,61.673333333333346L35.27333333333334,52.92533333333334L26.52533333333334,61.673333333333346L35.27333333333334,70.42133333333335Z  M44.021333333333345,71.39333333333335L35.27333333333334,62.64533333333334L26.52533333333334,71.39333333333335L35.27333333333334,80.14133333333335Z  M53.741333333333344,61.673333333333346L44.99333333333334,52.92533333333334L36.245333333333335,61.673333333333346L44.99333333333334,70.42133333333335Z  M53.741333333333344,71.39333333333335L44.99333333333334,62.64533333333334L36.245333333333335,71.39333333333335L44.99333333333334,80.14133333333335Z   M59.57333333333334,88.13333333333334L40.13333333333334,68.69333333333334L20.69333333333334,88.13333333333334L40.13333333333333,107.57333333333334Z M44.021333333333345,83.27333333333334L35.27333333333334,74.52533333333334L26.52533333333334,83.27333333333334L35.27333333333334,92.02133333333335Z  M44.021333333333345,92.99333333333334L35.27333333333334,84.24533333333333L26.52533333333334,92.99333333333334L35.27333333333334,101.74133333333334Z  M53.741333333333344,83.27333333333334L44.99333333333334,74.52533333333334L36.245333333333335,83.27333333333334L44.99333333333334,92.02133333333335Z  M53.741333333333344,92.99333333333334L44.99333333333334,84.24533333333333L36.245333333333335,92.99333333333334L44.99333333333334,101.74133333333334Z    M120.53333333333335,29.33333333333334L77.33333333333334,-13.866666666666667L34.13333333333334,29.33333333333333L77.33333333333333,72.53333333333333Z M85.97333333333334,18.533333333333335L66.53333333333335,-0.9066666666666663L47.09333333333335,18.53333333333333L66.53333333333335,37.973333333333336Z M70.42133333333335,13.673333333333336L61.673333333333346,4.9253333333333345L52.92533333333334,13.673333333333334L61.673333333333346,22.421333333333337Z  M70.42133333333335,23.393333333333334L61.673333333333346,14.645333333333333L52.92533333333334,23.393333333333334L61.673333333333346,32.141333333333336Z  M80.14133333333335,13.673333333333336L71.39333333333335,4.9253333333333345L62.64533333333334,13.673333333333334L71.39333333333335,22.421333333333337Z  M80.14133333333335,23.393333333333334L71.39333333333335,14.645333333333333L62.64533333333334,23.393333333333334L71.39333333333335,32.141333333333336Z   M85.97333333333334,40.13333333333334L66.53333333333335,20.69333333333334L47.09333333333335,40.13333333333333L66.53333333333335,59.57333333333334Z M70.42133333333335,35.27333333333334L61.673333333333346,26.52533333333334L52.92533333333334,35.27333333333334L61.673333333333346,44.021333333333345Z  M70.42133333333335,44.99333333333334L61.673333333333346,36.245333333333335L52.92533333333334,44.99333333333334L61.673333333333346,53.741333333333344Z  M80.14133333333335,35.27333333333334L71.39333333333335,26.52533333333334L62.64533333333334,35.27333333333334L71.39333333333335,44.021333333333345Z  M80.14133333333335,44.99333333333334L71.39333333333335,36.245333333333335L62.64533333333334,44.99333333333334L71.39333333333335,53.741333333333344Z   M107.57333333333334,18.533333333333335L88.13333333333334,-0.9066666666666663L68.69333333333334,18.53333333333333L88.13333333333334,37.973333333333336Z M92.02133333333335,13.673333333333336L83.27333333333334,4.9253333333333345L74.52533333333334,13.673333333333334L83.27333333333334,22.421333333333337Z  M92.02133333333335,23.393333333333334L83.27333333333334,14.645333333333333L74.52533333333334,23.393333333333334L83.27333333333334,32.141333333333336Z  M101.74133333333334,13.673333333333336L92.99333333333334,4.9253333333333345L84.24533333333333,13.673333333333334L92.99333333333334,22.421333333333337Z  M101.74133333333334,23.393333333333334L92.99333333333334,14.645333333333333L84.24533333333333,23.393333333333334L92.99333333333334,32.141333333333336Z   M107.57333333333334,40.13333333333334L88.13333333333334,20.69333333333334L68.69333333333334,40.13333333333333L88.13333333333334,59.57333333333334Z M92.02133333333335,35.27333333333334L83.27333333333334,26.52533333333334L74.52533333333334,35.27333333333334L83.27333333333334,44.021333333333345Z  M92.02133333333335,44.99333333333334L83.27333333333334,36.245333333333335L74.52533333333334,44.99333333333334L83.27333333333334,53.741333333333344Z  M101.74133333333334,35.27333333333334L92.99333333333334,26.52533333333334L84.24533333333333,35.27333333333334L92.99333333333334,44.021333333333345Z  M101.74133333333334,44.99333333333334L92.99333333333334,36.245333333333335L84.24533333333333,44.99333333333334L92.99333333333334,53.741333333333344Z    M120.53333333333335,77.33333333333334L77.33333333333334,34.13333333333334L34.13333333333334,77.33333333333333L77.33333333333333,120.53333333333335Z M85.97333333333334,66.53333333333335L66.53333333333335,47.09333333333335L47.09333333333335,66.53333333333335L66.53333333333335,85.97333333333334Z M70.42133333333335,61.673333333333346L61.673333333333346,52.92533333333334L52.92533333333334,61.673333333333346L61.673333333333346,70.42133333333335Z  M70.42133333333335,71.39333333333335L61.673333333333346,62.64533333333334L52.92533333333334,71.39333333333335L61.673333333333346,80.14133333333335Z  M80.14133333333335,61.673333333333346L71.39333333333335,52.92533333333334L62.64533333333334,61.673333333333346L71.39333333333335,70.42133333333335Z  M80.14133333333335,71.39333333333335L71.39333333333335,62.64533333333334L62.64533333333334,71.39333333333335L71.39333333333335,80.14133333333335Z   M85.97333333333334,88.13333333333334L66.53333333333335,68.69333333333334L47.09333333333335,88.13333333333334L66.53333333333335,107.57333333333334Z M70.42133333333335,83.27333333333334L61.673333333333346,74.52533333333334L52.92533333333334,83.27333333333334L61.673333333333346,92.02133333333335Z  M70.42133333333335,92.99333333333334L61.673333333333346,84.24533333333333L52.92533333333334,92.99333333333334L61.673333333333346,101.74133333333334Z  M80.14133333333335,83.27333333333334L71.39333333333335,74.52533333333334L62.64533333333334,83.27333333333334L71.39333333333335,92.02133333333335Z  M80.14133333333335,92.99333333333334L71.39333333333335,84.24533333333333L62.64533333333334,92.99333333333334L71.39333333333335,101.74133333333334Z   M107.57333333333334,66.53333333333335L88.13333333333334,47.09333333333335L68.69333333333334,66.53333333333335L88.13333333333334,85.97333333333334Z M92.02133333333335,61.673333333333346L83.27333333333334,52.92533333333334L74.52533333333334,61.673333333333346L83.27333333333334,70.42133333333335Z  M92.02133333333335,71.39333333333335L83.27333333333334,62.64533333333334L74.52533333333334,71.39333333333335L83.27333333333334,80.14133333333335Z  M101.74133333333334,61.673333333333346L92.99333333333334,52.92533333333334L84.24533333333333,61.673333333333346L92.99333333333334,70.42133333333335Z  M101.74133333333334,71.39333333333335L92.99333333333334,62.64533333333334L84.24533333333333,71.39333333333335L92.99333333333334,80.14133333333335Z   M107.57333333333334,88.13333333333334L88.13333333333334,68.69333333333334L68.69333333333334,88.13333333333334L88.13333333333334,107.57333333333334Z M92.02133333333335,83.27333333333334L83.27333333333334,74.52533333333334L74.52533333333334,83.27333333333334L83.27333333333334,92.02133333333335Z  M92.02133333333335,92.99333333333334L83.27333333333334,84.24533333333333L74.52533333333334,92.99333333333334L83.27333333333334,101.74133333333334Z  M101.74133333333334,83.27333333333334L92.99333333333334,74.52533333333334L84.24533333333333,83.27333333333334L92.99333333333334,92.02133333333335Z  M101.74133333333334,92.99333333333334L92.99333333333334,84.24533333333333L84.24533333333333,92.99333333333334L92.99333333333334,101.74133333333334Z     " class="fore"></path></g></svg>