<svg xmlns="http://www.w3.org/2000/svg" width="640" height="640" viewport-fill="#000"><defs><style type="text/css">text{ font-family: Freemono, Sans, Arial; fill: #555} 
</style></defs><rect x="0" y="0" width="640" height="640" fill="#101010" stroke="#707070"></rect><g fill-rule="evenodd"><path d="M135.24791385931977,426.6666666666667L504.75208614068026,426.6666666666667L493.88431636769906,407.843137254902L135.24791385931977,426.6666666666667L483.01654659471785,389.0196078431373L472.1487768217367,370.19607843137254L135.24791385931977,426.6666666666667L461.2810070487555,351.37254901960785L450.4132372757743,332.54901960784315L135.24791385931977,426.6666666666667L439.5454675027931,313.72549019607845L428.67769772981194,294.90196078431376L135.24791385931977,426.6666666666667L417.80992795683073,276.07843137254906L406.94215818384953,257.2549019607843L135.24791385931977,426.6666666666667L396.0743884108683,238.4313725490196L385.2066186378871,219.60784313725492L135.24791385931977,426.6666666666667L374.3388488649059,200.7843137254902L363.47107909192476,181.96078431372553L135.24791385931977,426.6666666666667L352.6033093189436,163.13725490196083L341.7355395459624,144.31372549019608L135.24791385931977,426.6666666666667L330.8677697729812,125.49019607843138L320,106.66666666666669L135.24791385931977,426.6666666666667L320,106.66666666666666L309.1322302270188,125.49019607843137L504.75208614068026,426.6666666666667L298.26446045403765,144.31372549019608L287.39669068105644,163.13725490196077L504.75208614068026,426.6666666666667L276.52892090807524,181.96078431372547L265.66115113509403,200.7843137254902L504.75208614068026,426.6666666666667L254.79338136211285,219.60784313725492L243.92561158913168,238.43137254901958L504.75208614068026,426.6666666666667L233.05784181615047,257.2549019607843L222.19007204316927,276.078431372549L504.75208614068026,426.6666666666667L211.3223022701881,294.9019607843137L200.4545324972069,313.72549019607845L504.75208614068026,426.6666666666667L189.5867627242257,332.54901960784315L178.71899295124453,351.37254901960785L504.75208614068026,426.6666666666667L167.85122317826335,370.1960784313725L156.98345340528215,389.01960784313724L504.75208614068026,426.6666666666667L146.11568363230097,407.843137254902L135.24791385931977,426.66666666666663L504.75208614068026,426.6666666666667Z" fill="#303030"></path></g><text x="320" y="632" text-anchor="middle" fill="#606060">_shape #24</text></svg>