<svg xmlns="http://www.w3.org/2000/svg" width="640" height="640" viewport-fill="#000" label="_shape #25"><defs><style type="text/css">
.f-0 { fill: #000;  }
.f-1 { fill: #101010;  }
.f-2 { fill: #202020;  }
.f-3 { fill: #303030;  }
.f-4 { fill: #404040;  }
.f-5 { fill: #505050;  }
.f-6 { fill: #606060;  }
.f-7 { fill: #707070;  }
.f-8 { fill: #808080;  }
.f-9 { fill: #909090;  }
.f-10 { fill: #a0a0a0;  }
.f-11 { fill: #b0b0b0;  }
.f-12 { fill: #c0c0c0;  }
.f-13 { fill: #d0d0d0;  }
.f-14 { fill: #e0e0e0;  }
.f-15 { fill: #f0f0f0;  }
.bgc { fill: #101010;  }
.fore { fill: #404040; stroke: #404040;  }
text{ font-family: Freemono, Sans, Arial; } 
</style></defs><g fill-rule="evenodd"><path d="M135.24791385931977,426.6666666666667L504.75208614068026,426.6666666666667L490.54038720678176,402.05128205128204L135.24791385931977,426.6666666666667L476.3286882728833,377.43589743589746L462.1169893389848,352.8205128205128L135.24791385931977,426.6666666666667L447.90529040508636,328.20512820512823L433.69359147118786,303.5897435897436L135.24791385931977,426.6666666666667L419.48189253728935,278.974358974359L405.2701936033909,254.3589743589744L135.24791385931977,426.6666666666667L391.0584946694924,229.74358974358975L376.8467957355939,205.12820512820514L135.24791385931977,426.6666666666667L362.63509680169545,180.51282051282053L348.423397867797,155.8974358974359L135.24791385931977,426.6666666666667L334.21169893389845,131.28205128205127L320,106.66666666666669L135.24791385931977,426.6666666666667L320,106.66666666666666L305.7883010661015,131.28205128205127L504.75208614068026,426.6666666666667L291.57660213220305,155.89743589743588L277.36490319830455,180.5128205128205L504.75208614068026,426.6666666666667L263.1532042644061,205.12820512820514L248.9415053305076,229.74358974358972L504.75208614068026,426.6666666666667L234.72980639660912,254.35897435897436L220.51810746271065,278.97435897435895L504.75208614068026,426.6666666666667L206.30640852881214,303.5897435897436L192.0947095949137,328.2051282051282L504.75208614068026,426.6666666666667L177.8830106610152,352.8205128205128L163.67131172711672,377.43589743589746L504.75208614068026,426.6666666666667L149.45961279321824,402.0512820512821L135.24791385931977,426.66666666666663L504.75208614068026,426.6666666666667L135.24791385931977,426.6666666666667L163.67131172711674,426.6666666666667L320,106.66666666666666L192.0947095949137,426.6666666666667L220.51810746271065,426.6666666666667L320,106.66666666666666L248.94150533050762,426.6666666666667L277.3649031983046,426.6666666666667L320,106.66666666666666L305.78830106610155,426.6666666666667L334.2116989338985,426.6666666666667L320,106.66666666666666L362.63509680169545,426.6666666666667L391.05849466949246,426.6666666666667L320,106.66666666666666L419.48189253728947,426.6666666666667L447.90529040508636,426.6666666666667L320,106.66666666666666L476.32868827288337,426.6666666666667L504.75208614068026,426.6666666666667L320,106.66666666666666Z" class="fore"></path></g></svg>