<svg xmlns="http://www.w3.org/2000/svg" width="640" height="640" viewport-fill="#000"><defs><style type="text/css">text{ font-family: Freemono, Sans, Arial; fill: #555} 
</style></defs><rect x="0" y="0" width="640" height="640" fill="#101010" stroke="#707070"></rect><g fill-rule="evenodd" transform="translate(320,320)"><path d="M0,213.33333333333334L201.2689203551557,65.39623646292222L123.387880161236,-169.82884745918895L-122.38472666399012,-168.4481251221224L-196.39951099172455,63.814069451722446L-5.016153289307559e-14,204.8L193.15323808277037,62.75929144425605L118.37211267500692,-162.92523577385606L-117.36895917776097,-161.54451343678954L-188.28382871933925,61.177124433056186L-9.614293804506155e-14,196.26666666666668L185.03755581038504,60.122346425589875L113.35634518877785,-156.02162408852314L-112.35319169153183,-154.64090175145668L-180.16814644695393,58.54017941438992L-1.3794421545595786e-13,187.73333333333335L176.92187353799972,57.48540140692369L108.34057770254879,-149.11801240319022L-107.33742420530271,-147.73729006612382L-172.05246417456866,55.90323439572367L-1.7556536512576457e-13,179.20000000000002L168.8061912656144,54.84845638825751L103.32481021631972,-142.21440071785733L-102.32165671907357,-140.83367838079099L-163.93678190218336,53.26628937705741L-2.0900638705448165e-13,170.66666666666669L160.6905089932291,52.21151136959132L98.30904273009062,-135.3107890325244L-97.30588923284445,-133.9300666954581L-155.82109962979803,50.629344358391165L-2.3826728124210907e-13,162.13333333333335L152.57482672084376,49.57456635092514L93.29327524386154,-128.40717734719155L-92.29012174661531,-127.02645501012523L-147.70541735741273,47.992399339724926L-2.6334804768864686e-13,153.60000000000002L144.45914444845846,46.93762133225894L88.27750775763245,-121.5035656618586L-87.27435426038619,-120.12284332479237L-139.58973508502743,45.35545432105869L-2.84248686394095e-13,145.06666666666666L136.34346217607313,44.30067631359274L83.26174027140338,-114.59995397652574L-82.25858677415708,-113.2192316394595L-131.47405281264213,42.718509302392455L-3.0096919735845356e-13,136.53333333333336L128.22777990368783,41.663731294926535L78.24597278517427,-107.69634229119283L-77.24281928792797,-106.31561995412662L-123.35837054025683,40.081564283726216L-3.1350958058172243e-13,128L120.11209763130225,39.026786276261184L73.23020529894518,-100.79273060585994L-72.22705180169956,-99.41200826879323L-115.24268826787153,37.44461926505999L-1.1707315577186348e-12,119.46666666666668L111.9964153589172,36.38984125759412L68.21443781271542,-93.88911892052755L-67.21128431546974,-92.50839658346085L-107.12700599548646,34.80767424639301L-3.2604996380499135e-13,110.93333333333335L103.88073308653213,33.75289623892717L63.19867032648698,-86.98550723519416L-62.19551682924003,-85.60478489812841L-99.0113237231009,32.170729227727556L4.0154579761335133e-13,102.40000000000002L95.76505081414658,31.11595122026169L58.18290284025845,-80.08189554986087L-57.17974934301154,-78.70117321279508L-90.89564145071539,29.533784209061984L-3.2186983606390175e-13,93.86666666666669L87.64936854176106,28.479006201596086L53.16713535402877,-73.1782838645284L-52.16398185678295,-71.79756152746182L-82.77995917833027,26.896839190395127L-9.198393817636748e-13,85.33333333333336L79.53368626937598,25.84206118292924L48.15136786779919,-66.27467217919586L-47.14821437055333,-64.8939498421293L-74.66427690594514,24.25989417172839L-3.0096919735845356e-13,76.80000000000001L71.41800399699083,23.205116164262506L43.13560038157054,-59.37106049386264L-42.13244688432383,-57.99033815679671L-66.54859463355966,21.62294915306272L2.0081515455146676e-13,68.26666666666668L63.30232172460537,20.56817114559678L38.1198328953418,-52.46744880852951L-37.11667939809515,-51.086726471463514L-58.43291236117421,18.98600413439694L-2.633480476886469e-13,59.73333333333335L55.186639452219936,17.93122612693093L33.10406540911231,-45.563837123196905L-32.10091191186638,-44.18311478613039L-50.317230088789024,16.34905911573033L-6.020651619512805e-13,51.20000000000002L47.07095717983476,15.294281108264297L28.088297922882905,-38.66022543786424L-27.08514442563699,-37.27950310079772L-42.20154781640381,13.71211409706384L-2.0900638705448172e-13,42.666666666666686L38.95527490744952,12.657336089597766L23.072530436654503,-31.756613752530846L-22.069376939407697,-30.375891415464974L-34.08586554401839,11.075169078397952L6.696655534701635e-14,34.133333333333354L30.839592635064278,10.020391070931353L18.0567629504251,-24.853002067198183L-17.053609453178836,-23.472279730131913L-25.970183271633008,8.438224059731954L-5.017420961651295e-13,25.600000000000023L22.723910362678787,7.383446052265699L13.040995464195786,-17.949390381865452L-12.037841966949886,-16.56866804479892L-17.854500999247666,5.801279041065844L-2.1740889828145228e-13,17.06666666666669L14.608228090293546,4.74650103359928L8.02522797796657,-11.045778696532652L-7.022074480720564,-9.665056359466195L-9.738818726862421,3.1643340223993386L-5.016153289307574e-14,8.53333333333336L6.492545817908266,2.1095560149329713L3.009460491737448,-4.142167011199782L-2.0063069944916183,-2.7614446741331977L-1.6231364544770757,0.527389003733237L2.791561433537697e-29,2.842170943040401e-14L-1.6231364544770348,-0.5273890037332714L-2.006306994491658,2.7614446741330987L3.009460491737422,4.142167011199731L6.492545817908234,-2.1095560149329757L-6.692429960222497e-14,-8.533333333333303L-9.738818726862311,-3.1643340223995873L-7.022074480720787,9.665056359465964L8.025227977966557,11.04577869653259L14.608228090293643,-4.746501033598885L2.341294092458101e-13,-17.066666666666634L-17.854500999247623,-5.801279041065793L-12.03784196694982,16.568668044798898L13.040995464195788,17.94939038186538L22.723910362678957,-7.383446052265089L1.7556536512576432e-13,-25.599999999999966L-25.970183271632973,-8.438224059731885L-17.053609453179444,23.472279730131437L18.056762950424407,24.853002067198613L30.839592635064232,-10.020391070931407L-8.451148958219701e-17,-34.1333333333333L-34.08586554401836,-11.075169078397868L-22.06937693940848,30.375891415464366L23.07253043665363,31.75661375253141L38.95527490744947,-12.657336089597832L9.198393817636738e-13,-42.66666666666663L-42.20154781640339,-13.712114097064937L-27.085144425637413,37.279503100797335L28.088297922882965,38.66022543786416L47.07095717983468,-15.294281108264371L7.525497606305064e-13,-51.19999999999996L-50.3172300887888,-16.349059115730935L-32.10091191186628,44.18311478613043L33.104065409111065,45.563837123197736L55.18663945222033,-17.93122612692944L4.681743070020387e-13,-59.73333333333332L-58.43291236117419,-18.986004134396808L-37.116679398095016,51.08672647146354L38.119832895340394,52.46744880853049L63.30232172460556,-20.568171145595983L6.671302087826968e-14,-68.26666666666662L-66.54859463355906,-21.62294915306447L-42.13244688432535,57.99033815679557L43.13560038156978,59.371060493863126L71.4180039969907,-23.205116164262616L-4.5183409774080006e-13,-76.79999999999998L-74.66427690594445,-24.259894171730352L-47.14821437055409,64.89394984212868L48.1513678677993,66.27467217919575L79.5336862693766,-25.842061182927118L1.337852155872637e-12,-85.33333333333329L-82.77995917832992,-26.896839190396133L-52.163981856782776,71.79756152746191L53.16713535402888,73.17828386452825L87.6493685417618,-28.479006201593766L8.276652927357471e-13,-93.86666666666665L-90.89564145071539,-29.533784209061793L-57.17974934301357,78.70117321279352L58.18290284025631,80.08189554986238L95.7650508141469,-31.1159512202605L2.0039259710355565e-13,-102.39999999999995L-99.01132372310094,-32.17072922772735L-62.19551682924226,85.60478489812674L63.19867032648588,86.98550723519489L103.88073308653203,-33.75289623892737L2.608949035122214e-12,-110.93333333333331L-107.12700599548549,-34.807674246395834L-67.21128431547082,92.50839658345997L68.21443781271559,93.88911892052737L111.99641535891708,-36.38984125759432L1.9900365949722015e-12,-119.46666666666661L-115.24268826787105,-37.4446192650614L-72.22705180169933,99.41200826879333L73.23020529894248,100.79273060586182L120.11209763130324,-39.026786276258L1.2540383223268895e-12,-127.99999999999997L-123.35837054025657,-40.081564283726834L-77.24281928792773,106.31561995412676L78.24597278517217,107.69634229119431L128.22777990368945,-41.663731294921305L4.281464944750768e-12,-136.53333333333327L-131.474052812641,-42.71850930239592L-82.25858677415924,113.21923163945787L83.26174027140193,114.59995397652669L136.34346217607333,-44.300676313592035L-5.692157204496385e-13,-145.06666666666663L-139.5897350850278,-45.3554543210574L-87.27435426038423,120.12284332479375L88.27750775762834,121.50356566186156L144.45914444845965,-46.9376213322551L2.7091030779292016e-12,-153.6L-147.70541735741213,-47.992399339726724L-92.29012174661594,127.02645501012472L93.29327524386176,128.40717734719126L152.5748267208433,-49.57456635092651L6.355399884758301e-12,-162.1333333333333L-155.8210996297963,-50.629344358396374L-97.30588923284797,133.9300666954555L98.30904273008797,135.3107890325263L160.69050899322968,-52.211511369589346L6.6839788112643e-13,-170.66666666666666L-163.9367819021834,-53.266289377057085L-102.32165671907227,140.83367838079187L103.32481021632196,142.2144007178556L168.80619126561623,-54.84845638825183L4.565586863910491e-12,-179.19999999999996L-172.0524641745675,-55.903234395726976L-107.3374242053045,147.7372900661225L108.34057770254799,149.11801240319076L176.92187353799957,-57.485401406924026L-1.8406506456575443e-12,-187.73333333333332L-180.1681464469515,-58.54017941439723L-112.35319169153699,154.64090175145287L113.3563451887737,156.02162408852612L185.03755581038618,-60.12234642558628L2.3074305130814764e-12,-196.26666666666662L-188.28382871933886,-61.177124433057124L-117.36895917776064,161.54451343678974L118.37211267500835,162.92523577385492L193.15323808276932,-62.759291444259155L6.823489680270759e-12,-204.79999999999998L-196.3995109917228,-63.81406945172762L-122.38472666399335,168.44812512212L123.38788016123388,169.82884745919046L201.268920355156,-65.39623646292117" fill="#303030"></path></g><text x="320" y="632" text-anchor="middle" fill="#606060">_shape #27</text></svg>