<svg xmlns="http://www.w3.org/2000/svg" width="640" height="640" viewport-fill="#000" label="_shape #32"><defs><style type="text/css">
.f-0 { fill: #000 }
.f-1 { fill: #101010 }
.f-2 { fill: #202020 }
.f-3 { fill: #303030 }
.f-4 { fill: #404040 }
.f-5 { fill: #505050 }
.f-6 { fill: #606060 }
.f-7 { fill: #707070 }
.f-8 { fill: #808080 }
.f-9 { fill: #909090 }
.f-10 { fill: #a0a0a0 }
.f-11 { fill: #b0b0b0 }
.f-12 { fill: #c0c0c0 }
.f-13 { fill: #d0d0d0 }
.f-14 { fill: #e0e0e0 }
.f-15 { fill: #f0f0f0 }
.bgc { fill: #101010 }
.fore { fill: #404040 }
text{ font-family: Freemono, Sans, Arial; } 
</style></defs><g fill-rule="evenodd"><path d="M294.2855082121977,531.7778931409182C287.8568852652472,514.129735379175,300.71413115914834,443.53710433220226,307.1427541060989,425.8889465704591C313.57137705304945,408.24078880871593,326.42862294695055,408.24078880871593,332.8572458939011,425.8889465704591C339.28586884085166,443.53710433220226,352.1431147347528,514.129735379175,345.7144917878023,531.7778931409182C339.2858688408517,549.4260509026614,300.7141311591483,549.4260509026614,294.2855082121977,531.7778931409182" class="fore"></path><path d="M395.64904256907425,519.4701317728885C381.75527178827826,506.8309941888548,360.3337662152734,438.3492635660385,357.8245212845371,419.73506588644426C355.31527635380087,401.12086820685005,366.6998022038606,395.1458081112896,380.5935729846566,407.78494569532336C394.4873437654526,420.4240832793571,438.677901038577,476.9556937110525,441.18714596931324,495.5698913906467C443.6963909000495,514.1840890702409,409.54281334987024,532.1092693569223,395.64904256907425,519.4701317728885" class="fore"></path><path d="M479.68229294316825,461.4661670913697C461.50626977631816,456.7315237874276,410.7134215060551,406.049032780135,399.8411464715841,390.73308354568485C388.96887143711314,375.4171343112347,396.2726195694923,364.8358283807265,414.4486427363424,369.57047168466863C432.62466590319247,374.30511498861074,498.02501043821377,403.82499413488716,508.89728547268476,419.1409433693373C519.7695605071557,434.4568926037875,497.85831611001834,466.2008103953118,479.68229294316825,461.4661670913697" class="fore"></path><path d="M527.1342543842245,371.0540083813457C508.839886694021,375.3085090797912,440.31172514503857,354.0360055875638,423.56712719211225,345.52700419067287C406.82252923918594,337.01800279378193,408.3722989764632,324.25450069844544,426.6666666666667,320C444.9610343568702,315.74549930155456,516.5887353804071,311.4909986031091,533.3333333333334,320.00000000000006C550.0779312862596,328.509001396891,545.4286220744281,366.7995076829002,527.1342543842245,371.0540083813457" class="fore"></path><path d="M527.1342543842245,268.9459916186544C512.9125613374624,281.2149814817651,442.3480624667593,294.22573969321434,423.56712719211225,294.4729958093272C404.7861919174652,294.72025192544004,400.2269496895803,282.6985181784421,414.4486427363424,270.42952831533137C428.67033578310446,258.16053845222064,490.1163501980377,221.10631274677556,508.89728547268476,220.85905663066274C527.6782207473318,220.6118005145499,541.3559474309866,256.67700175554364,527.1342543842245,268.9459916186544" class="fore"></path><path d="M479.68229294316825,178.5338329086304C472.79129302688006,196.00663421612404,416.3559331313361,240.32004622164084,399.8411464715841,249.2669164543152C383.32635981183216,258.2137866869896,373.70257306836845,249.68785561217032,380.59357298465665,232.21505430467667C387.48457290094484,214.74225299718302,424.67235930956133,153.3769788420277,441.1871459693133,144.43010860935334C457.70193262906525,135.48323837667897,486.57329285945644,161.06103160113673,479.68229294316825,178.5338329086304" class="fore"></path><path d="M395.6490425690743,120.5298682271115C397.6673808185301,139.20367276952382,368.2898207303993,204.66806991315084,357.8245212845371,220.26493411355574C347.35922183867496,235.86179831396063,334.87558414335695,232.78485797195322,332.85724589390117,214.1110534295409C330.8389076444454,195.4372488871286,335.24919234194016,123.8189710594867,345.71449178780233,108.2221068590818C356.1797912336645,92.62524265867691,393.63070431961853,101.8560636846992,395.6490425690743,120.5298682271115" class="fore"></path><path d="M294.2855082121978,108.2221068590818C304.75080765805995,123.81897105948671,309.16109235555473,195.4372488871286,307.1427541060989,214.1110534295409C305.12441585664305,232.78485797195322,292.64077816132504,235.86179831396063,282.1754787154629,220.26493411355574C271.7101792696007,204.66806991315084,242.33261918147,139.2036727695238,244.3509574309258,120.52986822711148C246.3692956803816,101.85606368469917,283.8202087663356,92.6252426586769,294.2855082121978,108.2221068590818" class="fore"></path><path d="M198.81285403068682,144.43010860935325C215.32764069043876,153.37697884202765,252.51542709905522,214.742252997183,259.4064270153434,232.21505430467664C266.2974269316316,249.6878556121703,256.67364018816784,258.2137866869895,240.1588535284159,249.26691645431515C223.64406686866397,240.32004622164075,167.20870697312,196.00663421612393,160.3177070568318,178.53383290863027C153.4267071405436,161.06103160113662,182.2980673709349,135.48323837667886,198.81285403068682,144.43010860935325" class="fore"></path><path d="M131.10271452731527,220.85905663066256C149.8836498019623,221.1063127467754,211.32966421689554,258.16053845222046,225.55135726365762,270.42952831533125C239.7730503104197,282.69851817844204,235.2138080825348,294.72025192544,216.43287280788778,294.4729958093272C197.65193753324075,294.2257396932144,127.08743866253764,281.21498148176516,112.86574561577555,268.9459916186544C98.64405256901347,256.6770017555436,112.32177925266826,220.61180051454974,131.10271452731527,220.85905663066256" class="fore"></path><path d="M106.66666666666666,319.9999999999998C123.41126461959294,311.49099860310884,195.03896564312979,315.7454993015544,213.33333333333331,319.9999999999999C231.62770102353684,324.2545006984454,233.17747076081406,337.0180027937818,216.43287280788778,345.52700419067276C199.6882748549615,354.0360055875637,131.16011330597908,375.30850907979107,112.86574561577555,371.05400838134557C94.57137792557204,366.79950768290007,89.92206871374037,328.5090013968907,106.66666666666666,319.9999999999998" class="fore"></path><path d="M131.10271452731516,419.14094336933715C141.97498956178612,403.824994134887,207.37533409680745,374.3051149886106,225.55135726365756,369.5704716846686C243.72738043050768,364.8358283807265,251.03112856288683,375.4171343112347,240.15885352841588,390.73308354568485C229.28657849394492,406.049032780135,178.49373022368187,456.7315237874276,160.31770705683175,461.46616709136964C142.14168388998164,466.2008103953117,120.23043949284418,434.4568926037873,131.10271452731516,419.14094336933715" class="fore"></path><path d="M198.81285403068657,495.5698913906466C201.32209896142285,476.9556937110524,245.51265623454725,420.42408327935703,259.4064270153433,407.7849456953233C273.30019779613934,395.14580811128957,284.6847236461991,401.12086820685005,282.1754787154628,419.73506588644426C279.66623378472656,438.3492635660385,258.2447282117217,506.8309941888548,244.35095743092566,519.4701317728885C230.45718665012961,532.1092693569223,196.30360909995028,514.1840890702408,198.81285403068657,495.5698913906466" class="fore"></path></g></svg>