<svg xmlns="http://www.w3.org/2000/svg" width="640" height="640" viewport-fill="#000" label="_shape #35"><defs><style type="text/css">text{ font-family: Freemono, Sans, Arial; fill: #555} 

.f-0 { fill: #000 }
.f-1 { fill: #101010 }
.f-2 { fill: #202020 }
.f-3 { fill: #303030 }
.f-4 { fill: #404040 }
.f-5 { fill: #505050 }
.f-6 { fill: #606060 }
.f-7 { fill: #707070 }
.f-8 { fill: #808080 }
.f-9 { fill: #909090 }
.f-10 { fill: #a0a0a0 }
.f-11 { fill: #b0b0b0 }
.f-12 { fill: #c0c0c0 }
.f-13 { fill: #d0d0d0 }
.f-14 { fill: #e0e0e0 }
.f-15 { fill: #f0f0f0 }
.bgc { fill: #101010, bacgkround-color: #101010 }
.fore { fill: #404040 }</style></defs><g fill-rule="evenodd"><path d="M383.0835248409129,530.7136472145884L358.19461526246414,536.6124271453059L355.89527387542614,523.5722141399028L379.2858544491522,518.0285447066868Z" class="fore"></path><path d="M428.87356321839076,508.57454309531505L406.2452308947792,519.9389187211484L401.00058847550207,507.7804709610786L422.2528735632184,497.10717223141074Z" class="fore"></path><path d="M467.9126803829252,476.7782819169863L448.71170013345574,492.88981736255846L440.8044967122878,482.26859991366405L458.82589455735297,467.14685162857074Z" class="fore"></path><path d="M498.2373997680931,437.22858198843863L483.4228145320486,457.1280233997951L473.27932949212834,448.61662884394576L487.17438874800456,429.9523251753631Z" class="fore"></path><path d="M518.3939546965008,392.20949416788375L508.6694751432234,414.7533717462309L496.83654638859616,408.8106515670248L505.95112826954255,387.68067571833006Z" class="fore"></path><path d="M527.5069010381328,344.25407824299066L523.2880869845848,368.1801616852252L510.4036307672519,365.1264894657391L514.3550551976878,342.71684793181515Z" class="fore"></path><path d="M525.314926731392,296.00212680887194L526.7126436781609,320L513.4712643678162,320L512.163080890947,297.5393571200474Z" class="fore"></path><path d="M512.1725414830216,250.05491505689312L518.9932682454738,272.8377290546035L506.10881202814096,275.8914012740896L499.7297150560634,254.5837335064468Z" class="fore"></path><path d="M489.0182239180194,208.83496535579104L500.7808559734719,229.20844170657315L488.94792721884465,235.15116188577926L477.95521289793083,216.11122216886653Z" class="fore"></path><path d="M457.3114302530911,174.45838675283187L473.27932949212834,191.3833711560543L463.1358444522081,199.89476571190363L448.22464442751885,184.08981704124741Z" class="fore"></path><path d="M418.94252873563227,148.62651320054147L438.16876223856514,161.27180590263407L430.2615588173972,171.89302335152843L412.3218390804598,160.09388406444575Z" class="fore"></path><path d="M376.12112912268515,132.54237404989792L397.50416019598396,140.32516087896798L392.25951777670684,152.4836086390378L372.3234587309245,145.22747655779958Z" class="fore"></path><path d="M331.24935356576015,126.85605839055188L353.5959324883882,129.46799886550016L351.2965911013502,142.50821187090318L330.47943583122145,140.0750353828335Z" class="fore"></path><path d="M286.7872910761182,131.64136769973396L308.878966056663,129.0592212225988L309.64888379120174,142.27819821488043L289.08663246315615,144.681580705137Z" class="fore"></path><path d="M245.11816101365463,146.40438475900288L265.77770607319525,138.88492530384875L269.57537646495587,151.57002781175038L250.36280343293174,158.5628325190727Z" class="fore"></path><path d="M208.4205739457415,170.12282044337937L226.57471264367814,158.18265558712835L233.19540229885055,169.65002645103263L216.32777736690943,180.74403789227375Z" class="fore"></path><path d="M178.5547363877786,201.31333147121182L193.28981987674322,185.69505542264997L202.37660570231543,195.32648571106552L188.69822142769885,209.8247260270612Z" class="fore"></path><path d="M156.968537158469,238.1225219753823L167.57629261211355,219.7493505754041L178.6393036322021,227.0256073884796L168.80146591309625,244.06524215458842Z" class="fore"></path><path d="M144.62823481963636,278.4361281236613L150.63930696640182,258.35774888107477L163.08213339336004,262.88656733062845L157.5126910369692,281.4898003431474Z" class="fore"></path><path d="M141.97701149425285,319.99999999999994L143.18073925623892,299.33279248308537L156.33258509668397,300.8700227942608L155.2183908045977,319.99999999999994Z" class="fore"></path><path d="M148.92305355874728,360.54598113650997L145.37271356297975,340.41100246505187L158.5245594034248,338.8737721538764L161.8075097760801,357.4923089170238Z" class="fore"></path><path d="M164.85715632822047,397.9156645718135L156.8607201798809,379.37784189414816L169.30354660683912,374.84902344459454L176.69008508284773,391.9729443926074Z" class="fore"></path><path d="M188.69822142769883,430.1752739729388L176.79546846218722,414.1871020803661L187.85847948227575,406.9108452672906L198.84170646761908,421.66387941708945Z" class="fore"></path><path d="M218.963511840632,455.7155562914281L203.89107000657742,443.06827590753187L212.97785583214963,433.4368456191163L226.87071526179994,445.0943388425337Z" class="fore"></path><path d="M253.85923171244977,473.3315356408807L236.5057471264367,464.6162881170152L243.12643678160913,453.1489172531109L259.10387413172685,461.1730878808109Z" class="fore"></path><path d="M291.3859738501941,482.27820628945994L272.74010179142306,477.8590534316649L276.5377721831837,465.17395092376324L293.6853152372321,469.23799328405687Z" class="fore"></path><path d="M329.45287885183643,482.299661960791L310.54712114816346,482.299661960791L311.3170388827022,469.08068496850944L328.68296111729774,469.08068496850944Z" class="fore"></path><path d="M365.99400807799,473.630685929031L347.84757902079315,477.93146862099223L345.5482376337552,464.8912556155892L362.19633768622936,460.94558342112936Z" class="fore"></path><path d="M399.08045977011494,456.9713742077457L382.6443400080321,465.22590380083415L377.399697588755,453.06745604076434L392.45977011494256,445.5040033438414Z" class="fore"></path><path d="M427.0221441678503,433.43684561911635L413.12928473819994,445.0943388425338L405.22208131703206,434.4731213936394L417.9353583422781,423.80541533070084Z" class="fore"></path><path d="M448.45385017769473,404.4854263295989L437.7771318524075,418.826747898473L427.6336468124872,410.31535334262367L437.3908391576062,397.2091695165234Z" class="fore"></path><path d="M462.4012357751887,371.8298111448921L455.4212957474008,388.0111309398034L443.58836699277356,382.0684107605973L449.9584093482305,367.30099269533844Z" class="fore"></path><path d="M468.3235947561302,337.336541842701L465.30803400658704,354.4386366975378L452.4235777892542,351.38496447805164L455.17174891568516,335.7993115315256Z" class="fore"></path><path d="M466.13162044938935,302.9196632091615L467.1264367816092,320.00000000000006L453.8850574712644,320.00000000000006L452.9797746089443,304.45689352033696Z" class="fore"></path><path d="M456.1798225617096,270.4345980798848L461.0132152674761,286.57925404229087L448.12875905014323,289.632926261777L443.7369961347514,274.96341652943846Z" class="fore"></path><path d="M439.234674327621,241.57812101463088L447.5326765776493,255.95068251300074L435.699747823022,261.89340269220685L428.17166330753247,248.85437782770637Z" class="fore"></path><path d="M416.42089403801634,217.799823050702L427.6336468124873,229.68464665737648L417.4901617725671,238.1960412132258L407.3341082124441,227.43125333911752Z" class="fore"></path><path d="M389.1494252873565,200.22968208811085L402.58634684330946,209.0672844226588L394.6791434221416,219.68850187155317L382.52873563218407,211.6970529520151Z" class="fore"></path><path d="M359.0316123597625,189.6253353354554L373.90326930923715,195.03817579928233L368.65862688996,207.19662355935213L355.23394196800183,202.31043784335702Z" class="fore"></path><path d="M327.7847237603361,186.34145485581917L343.2488962467173,188.1489573898138L340.9495548596793,201.18917039521682L327.0148060257973,199.5604318481008Z" class="fore"></path><path d="M297.13432731778937,190.32232622404757L312.34359586208734,188.5446176878661L313.11351359662603,201.76359468014772L299.4336687048273,203.36253922945062Z" class="fore"></path><path d="M268.7190519004017,201.1173996793171L282.8672228361182,195.96788658940613L286.6648932278788,208.6529890973078L273.96369431967884,213.27584743938695Z" class="fore"></path><path d="M244.00298934099737,217.91829896340388L256.3678160919541,209.78582447469756L262.9885057471265,221.25319533860187L251.91019276216528,228.53951641229827Z" class="fore"></path><path d="M224.2004190674199,239.6146069725338L234.18035609181814,229.03649172051988L243.26714191739035,238.66792200893542L234.3439041073401,248.12600152838314Z" class="fore"></path><path d="M210.21671655429174,264.86476278180965L217.35984220251197,252.49250623424388L228.42285322260048,259.76876304731934L222.04964530891897,270.8074829610158Z" class="fore"></path><path d="M202.60828779763415,292.17765311134866L206.63202588771384,278.73743190406645L219.07485231467206,283.26625035362014L215.492744014967,295.2313253308348Z" class="fore"></path><path d="M201.5632183908046,319.9999999999998L202.3640455382416,306.25032888337495L215.51589137868666,307.7875591945504L214.80459770114942,319.9999999999998Z" class="fore"></path><path d="M206.90310653674504,346.80445614882234L204.55601984498242,333.4934660647624L217.70786568542746,331.95623575358695L219.7875627540779,343.75078392933625Z" class="fore"></path><path d="M218.10533572404302,371.1734237653858L212.85343910119295,358.99815887115665L225.29626552815117,354.46934042160296L229.93826447867025,365.23070358617974Z" class="fore"></path><path d="M234.34390410733994,391.87399847161663L226.5790180525857,381.44394642152645L237.64202907267423,374.1676896084509L244.48738914726022,383.3626039157673Z" class="fore"></path><path d="M254.54592723588752,407.92007777140327L244.78160622165228,399.7268396096619L253.86839204722452,390.0954093212464L262.45313065705545,397.2988603225089Z" class="fore"></path><path d="M277.46012259919667,418.6185207205664L266.2988505747127,413.0131192294459L272.91954022988506,401.5457483655416L282.7047650184738,406.4600729604966Z" class="fore"></path><path d="M301.73301009186474,423.5972477651463L289.8296185543459,420.7760921461075L293.6272889461066,408.0909896382059L304.03235147890274,410.55703475974326Z" class="fore"></path><path d="M325.9882490464121,422.8142654955237L314.0117509535878,422.8142654955237L314.7816686881265,409.5952885032421L325.2183313118734,409.5952885032421Z" class="fore"></path><path d="M348.90449131506693,416.54772464347366L337.50054277912227,419.2505100966786L335.20120139208433,406.2102970912756L345.1068209233063,403.86262213557205Z" class="fore"></path><path d="M369.28735632183896,405.36820532017646L359.0434491212852,410.5128888805199L353.79880670200805,398.3544411204501L362.6666666666666,393.90083445627215Z" class="fore"></path><path d="M386.1316079527753,390.0954093212466L377.5468693429443,397.2988603225091L369.6396659217764,386.67764287361473L377.04482212720313,380.46397903283105Z" class="fore"></path><path d="M398.6703005872962,371.7422706707592L392.13144917276634,380.5254723971509L381.98796413284606,372.0140778413015L387.60728956720766,364.46601385768366Z" class="fore"></path><path d="M406.40851685387656,351.4501281219007L402.17311635157813,361.26889013337586L390.34018759695084,355.32616995416976L393.96569042691834,346.92130967234704Z" class="fore"></path><path d="M409.1402884741275,330.41900544241156L407.32798102858925,340.6971117098502L394.44352481125645,337.64343949036413L395.98844263368244,328.8817751312361Z" class="fore"></path><path d="M406.9483141673867,309.83719960945126L407.5402298850575,320.00000000000006L394.2988505747127,320.00000000000006L393.79646832694164,311.3744299206267Z" class="fore"></path><path d="M400.18710364039754,290.81428110287635L403.0331622894783,300.32077902997844L390.14870607214544,303.3744512494645L387.7442772134393,295.34309955243003Z" class="fore"></path><path d="M389.4511247372226,274.3212766734706L394.2844971818267,282.6929233194283L382.4515684271994,288.6356434986344L378.38811371713405,281.59753348654607Z" class="fore"></path><path d="M375.53035782294126,261.14125934857174L381.98796413284606,267.9859221586984L371.8444790929258,276.49731671454776L366.4435719973691,270.77268963698725Z" class="fore"></path><path d="M359.3563218390806,251.83285097568012L367.00393144805383,256.8627629426835L359.0967280268859,267.4839803915778L352.73563218390814,263.3002218395844Z" class="fore"></path><path d="M341.94209559683947,246.70829662101275L350.30237842249005,249.75119071959654L345.05773600321294,261.90963847966634L338.1444252050788,259.39339912891444Z" class="fore"></path><path d="M324.3200939549118,245.82685132108645L332.90186000504644,246.82991591412744L330.60251861800845,259.87012891953043L323.5501762203731,259.0458283133681Z" class="fore"></path><path d="M307.4813635594601,249.00328474836124L315.8082256675115,248.03001415313338L316.5781434020502,261.248991145415L309.780704946498,262.0434977537643Z" class="fore"></path><path d="M292.3199427871486,255.8304145996314L299.9567395990411,253.05084787496352L303.7544099908017,265.7359503828652L297.5645852064257,267.9888623597013Z" class="fore"></path><path d="M279.58540473625277,265.71377748342877L286.16091954022994,261.3889933622669L292.7816091954023,272.8563642261712L287.4926081574207,276.3349949323232Z" class="fore"></path><path d="M269.84610174706086,277.9158824738561L275.07089230689303,272.3779280183898L284.1576781324652,282.0093583068053L279.98958678698114,286.4272770297054Z" class="fore"></path><path d="M263.46489595011417,291.6070035882376L267.1433917929103,285.2356618930837L278.2064028129988,292.51191870615924L275.2978247047414,297.54972376744365Z" class="fore"></path><path d="M260.5883407756319,305.91917809903634L262.62474480902597,299.1171149270579L275.0675712359842,303.6459333766116L273.47279699296473,308.97285031852243Z" class="fore"></path><path d="M261.1494252873563,320.00000000000006L261.5473518202443,313.1678652836645L274.6991976606893,314.70509559484003L274.39080459770116,320.00000000000006Z" class="fore"></path><path d="M264.8831595147429,333.0629311611351L263.73932612698513,326.5759296644728L276.8911719674302,325.0386993532973L277.7676157320757,330.00925894164897Z" class="fore"></path><path d="M271.3535151198658,344.43118295895863L268.84615802250505,338.6184758481652L281.28898444946327,334.0896573986115L283.1864438744931,338.48846277975247Z" class="fore"></path><path d="M279.9895867869812,353.57272297029465L276.362567642984,348.7007907626866L287.4255786630726,341.42453394961115L290.1330718269014,345.0613284144453Z" class="fore"></path><path d="M290.1283426311434,360.12459925137875L285.6721424367272,356.385403311792L294.75892826229943,346.7539730233765L298.03554605231136,349.5033818024844Z" class="fore"></path><path d="M301.0610134859439,363.90550580025223L296.0919540229885,361.40995034187665L302.71264367816093,349.94257947797234L306.30565590522093,351.74705804018237Z" class="fore"></path><path d="M312.080046333536,364.91628924083267L306.9191353172689,363.6931308605501L310.7168057090296,351.00802835264847L314.37938772057396,351.87607623542965Z" class="fore"></path><path d="M322.523619240988,363.32886903025644L317.47638075901193,363.3288690302564L318.2462984935506,350.1098920379748L321.7537015064493,350.1098920379748Z" class="fore"></path><path d="M331.8149745521443,359.46476335791624L327.15350653745145,360.56955157236496L324.85416515041345,347.529338566962L328.0173041603836,346.7796608500146Z" class="fore"></path><path d="M339.4942528735633,353.7650364326071L335.4425582345382,355.7998739602057L330.19791581526107,343.6414262001358L332.87356321839087,342.29766556870277Z" class="fore"></path><path d="M345.2410717377006,346.75397302337643L341.9644539476887,349.50338180248434L334.05725052652076,338.88216435359L336.1542859121284,337.1225427349609Z" class="fore"></path><path d="M348.88675099689783,338.99911501191934L346.4857664931251,342.22419689582887L336.3422814532048,333.71280233997953L337.8237399768093,331.7228581988438Z" class="fore"></path><path d="M350.4157979325646,331.070445098909L348.92493695575547,334.5266493269483L337.09200820112824,328.5839291477422L337.9729715056063,326.5416266493553Z" class="fore"></path><path d="M349.9569821921248,323.5014690421218L349.34792805059146,326.9555867221628L336.4634718332586,323.9019145026767L336.8051363516798,321.96423873094636Z" class="fore"></path><path d="M347.76500788538397,316.7547360097406L347.95402298850576,319.99999999999994L334.71264367816093,320L334.6131620449389,318.2919663209161Z" class="fore"></path><path d="M344.19438471908546,311.1939641258678L345.0531093114805,314.06230401766595L332.16865309414766,317.11597623715204L331.75155829212724,315.72278257542155Z" class="fore"></path><path d="M339.66757514682405,307.06443233231016L341.036317786004,309.4351641258558L329.2033890313768,315.3778843050619L328.6045641267355,314.3406891453857Z" class="fore"></path><path d="M334.6398216078663,304.4826956464416L336.34228145320486,306.2871976600205L326.1987964132846,314.79859221586986L325.5530357822941,314.11412593485716Z" class="fore"></path><path d="M329.56321839080454,303.4360198632493L331.4215160527981,304.65824146270813L323.5143126316302,315.2794589116025L322.94252873563215,314.90339072715363Z" class="fore"></path><path d="M324.85257883391637,303.7912579065701L326.701487535743,304.4642056399108L321.45684511646584,316.6226533999806L321.05490844215575,316.47636041447174Z" class="fore"></path><path d="M320.85546414948743,305.31224778635374L322.55482376337557,305.5108744384411L320.25548237633757,318.5510874438441L320.08554641494874,318.53122477863536Z" class="fore"></path><path d="M317.8283998011308,307.68424327267496L319.27285547293565,307.51541061840067L320.0427732074744,320.7343876106823L320.1277411881688,320.7244562780779Z" class="fore"></path></g></svg>