<svg xmlns="http://www.w3.org/2000/svg" width="640" height="640" viewport-fill="#000" label="_shape #36"><defs><style type="text/css">text{ font-family: Freemono, Sans, Arial; fill: #555} 

.f-0 { fill: #000 }
.f-1 { fill: #101010 }
.f-2 { fill: #202020 }
.f-3 { fill: #303030 }
.f-4 { fill: #404040 }
.f-5 { fill: #505050 }
.f-6 { fill: #606060 }
.f-7 { fill: #707070 }
.f-8 { fill: #808080 }
.f-9 { fill: #909090 }
.f-10 { fill: #a0a0a0 }
.f-11 { fill: #b0b0b0 }
.f-12 { fill: #c0c0c0 }
.f-13 { fill: #d0d0d0 }
.f-14 { fill: #e0e0e0 }
.f-15 { fill: #f0f0f0 }
.bgc { fill: #101010 }
.fore { fill: #404040 }</style></defs><g fill-rule="evenodd"><path d="M381.18468964503256,524.3710959606376L357.04494456894514,530.0923206426044L357.04494456894514,530.0923206426044L381.18468964503256,524.3710959606376Z" class="fore"></path><path d="M425.8942528735632,503.4142262065581L403.88514180610446,514.467617229117L403.36067756417674,513.25177245311L425.23218390804595,502.2674891201677Z" class="fore"></path><path d="M464.2779660526963,472.9257098016201L445.54881876498854,488.6413303830007L443.96737808075494,486.5170868932218L462.4606088875819,470.999423743937Z" class="fore"></path><path d="M494.3653459110621,434.6818921038622L479.8725947680765,454.1490353052478L476.82954925610045,451.59561693849304L491.04644260503557,432.49901505993955Z" class="fore"></path><path d="M514.6611067684133,390.8508486330177L505.11959651683526,412.9705556924691L500.38642501498435,410.59346762078667L509.68397619763,389.0393212531962Z" class="fore"></path><path d="M524.2189395780216,343.86977066519677L520.0669729302516,367.41674363035366L513.6247448215852,365.8899075206106L517.6430166577991,343.10115550960904Z" class="fore"></path><path d="M522.684557563303,296.30957287110704L524.064367816092,320L516.119540229885,320L514.793450059036,297.23191105781234Z" class="fore"></path><path d="M510.30611751897794,250.7342378243262L517.0605998128739,273.2957798875264L508.0414804607409,275.4333504411667L501.59613902010716,253.90441073901377Z" class="fore"></path><path d="M487.91192281601053,209.56259103709857L499.5975630980092,229.80271372449377L490.13122009430737,234.55688986785867L479.0615139999397,215.38359648755898Z" class="fore"></path><path d="M456.85709096181245,174.93995826725265L472.77215524013235,191.80894088384676L463.6430187042041,199.46919598411117L448.6789837187975,183.60824552682664Z" class="fore"></path><path d="M418.94252873563227,148.62651320054147L438.16876223856514,161.27180590263407L430.2615588173972,171.89302335152843L412.3218390804598,160.09388406444575Z" class="fore"></path><path d="M376.31101264227317,131.90811892450284L397.7663923169478,139.7172384909645L391.997285655743,153.0915310270413L372.13357521133645,145.86173168319465Z" class="fore"></path><path d="M331.326345339214,125.5341606913237L353.82586662709195,128.16397756495985L351.0666569626464,143.8122331714435L330.4024440577676,141.39693308206165Z" class="fore"></path><path d="M286.4423898680625,129.6853357489235L308.7634783964822,127.07637467375656L309.76437145138254,144.26104476372268L289.43153367121187,146.63761265594746Z" class="fore"></path><path d="M244.0692325297992,143.9726952069889L265.0181719948431,136.34790480226843L270.334910543308,154.10704831333072L251.41173191678715,160.9945220710867Z" class="fore"></path><path d="M206.44377309044953,167.4675160811558L224.91954022988503,155.31581287115227L234.85057471264366,172.5168691670087L218.3045782222014,183.39934225449736Z" class="fore"></path><path d="M175.51169087580251,198.759913104457L190.56378412907156,182.8056263361253L205.1026414499871,198.2159147975902L191.74126693967494,212.378144393816Z" class="fore"></path><path d="M152.82701209434947,236.04256991266016L163.70423875508254,217.20266069082768L182.51135748923306,229.57229727305605L172.9429909772158,246.14519421731057Z" class="fore"></path><path d="M139.4744523327032,277.21465923586686L145.66217639561853,256.5462215012533L168.05926396414335,264.69809471044994L162.6664735239023,282.71126923094187Z" class="fore"></path><path d="M136.0183908045977,319.99999999999994L137.26240862803866,298.6410388430564L162.25091572488424,301.56177643428975L161.17701149425287,319.99999999999994Z" class="fore"></path><path d="M142.48082545008086,362.072817246253L138.79679064275723,341.1796176206396L165.1004823236473,338.1051569982887L168.24973788474654,355.9654728072808Z" class="fore"></path><path d="M158.34904551317547,401.1841606703769L150.01716564505386,381.8686920414027L176.14710114166616,372.35817329734L183.1981958978927,388.7044482940441Z" class="fore"></path><path d="M182.61213040374668,435.2821107064484L170.15766185013408,418.5528561682114L194.49628609432887,402.5450911794453L204.92779749157125,416.5570426835798Z" class="fore"></path><path d="M213.82382961687287,462.61934763320943L197.9846592199555,449.32870559500196L218.88426661877156,427.1764159316462L232.0103974855591,438.19054750075236Z" class="fore"></path><path d="M250.18798201895578,481.84244907292964L231.871264367816,472.6434477217482L247.76091954022982,445.1217576483779L262.7751238252209,452.662174448762Z" class="fore"></path><path d="M289.6614678099156,492.0583660435122L269.89184899760255,487.3728803125911L279.3860249770042,455.660124042837L295.40982127751056,459.4578335300046Z" class="fore"></path><path d="M330.06881303946744,492.87484355461635L309.9311869605325,492.87484355461635L311.93297307033316,458.5055033746841L328.0670269296668,458.5055033746841Z" class="fore"></path><path d="M369.2220279109865,484.41302306074743L349.80201919977543,489.0156496755848L343.5937974547729,453.8070745609966L358.9683178532328,450.163246289413Z" class="fore"></path><path d="M405.0390804597701,467.2920079852596L387.3645181853815,476.16850678489703L372.6795194114056,442.12485305670145L386.5011494252874,435.18336956632754Z" class="fore"></path><path d="M435.6545907021439,442.5867043931111L420.6411279883095,455.18449541898343L397.7102380669225,424.38296481718976L409.3029118079845,414.6555565567061Z" class="fore"></path><path d="M459.51686119778327,411.76168314267437L447.9206168923277,427.3381424543224L417.4901617725669,401.80395878677433L426.32782813751766,389.93291270344787Z" class="fore"></path><path d="M475.46620352349487,376.5850705169235L467.8458709397594,394.25098712796984L431.1637918004149,375.8285545724309L436.89344159992436,362.5457333233071Z" class="fore"></path><path d="M482.7906251806197,339.027495184994L479.4809358456531,357.79767613897246L438.25067595018805,348.02592503661697L440.7047184911956,334.10835818923255Z" class="fore"></path><path d="M481.25624316590114,301.15184835130975L482.3540229885058,320.00000000000006L438.6574712643678,320.00000000000006L437.8551518924325,306.2247083781888Z" class="fore"></path><path d="M471.1112142740595,265.0000159404204L476.4745627282755,282.91484737890755L432.6674115893438,293.29733292516033L428.8056044224015,280.39799866890286Z" class="fore"></path><path d="M453.0634381027317,232.48279999828654L462.32383752093335,248.5222822889931L420.908586879738,269.3218029162145L414.34289953242177,257.9496988440507Z" class="fore"></path><path d="M428.2337156112602,205.27896367576182L440.8201773643837,218.61983373477236L404.3036312206707,249.26085413582996L395.52128663920024,239.95211271405768Z" class="fore"></path><path d="M398.0873563218393,184.74873142184006L413.26107146188616,194.7286408666514L384.0044188035648,234.02714542756058L373.5908045977013,227.1780036182859Z" class="fore"></path><path d="M364.3483509082274,171.8661918243931L381.24576869622507,178.01634893518457L361.31612750297205,224.2184504234499L349.91720341953686,220.0695813544193Z" class="fore"></path><path d="M328.90110447541724,167.1739382170108L346.5829412579224,169.2406485319794L337.6155098484743,220.09747925305123L325.89842531071616,218.72794848690916Z" class="fore"></path><path d="M293.68531523723243,170.76200671594302L311.1887192602793,168.71615219944366L314.26839019843413,221.59206016857013L302.8826807853842,222.92285873755515Z" class="fore"></path><path d="M260.5898561505223,182.27180565120884L276.9808337288892,176.3059777021586L292.5512823351078,228.31489798455533L282.09289006955834,232.12144146749517Z" class="fore"></path><path d="M231.35146386712873,200.92435104517287L245.7747126436783,191.4380310924507L273.5816091954024,239.60098872084876L264.5617182360339,245.5334643305293Z" class="fore"></path><path d="M207.46366875155147,225.57080595538235L219.18715947962403,213.14463174463424L258.2603385295845,254.5597819848211L251.08065442320853,262.1698025455346Z" class="fore"></path><path d="M190.1007376714254,254.7621384771592L198.55272346836145,240.12286965201548L247.229971956751,272.13839962954773L242.16562419178527,280.9101072656662Z" class="fore"></path><path d="M180.06048941730168,286.83372672724795L184.85707964053694,270.8119996173475L240.849798561849,291.1916826403391L238.04054239529944,300.5752517149355Z" class="fore"></path><path d="M177.72873563218388,319.9999999999997L178.69072302544055,303.4833143232591L239.1892138914877,310.55457375466625L238.6390804597701,319.99999999999983Z" class="fore"></path><path d="M183.06686253467927,352.4537497548716L180.22510504015912,336.337342140437L242.0387804902508,329.1123596779123L243.62380675614364,338.10149032328695Z" class="fore"></path><path d="M195.6227710902512,382.4645921058774L189.21206888997227,367.6029139253086L248.93763573937184,345.86458536745096L252.42082911246206,353.93953524568815Z" class="fore"></path><path d="M214.5641082794954,408.4712178555228L205.00614656341304,395.6326472070237L259.2149005618469,359.97898882295374L264.2671849751047,366.76538453186106Z" class="fore"></path><path d="M238.73152039355162,429.162512669192L226.6080345705079,418.989700186493L272.04196369836893,370.8325487444153L278.2675374993914,376.0564254247202Z" class="fore"></path><path d="M266.7086056396785,443.54333862870953L252.7264367816092,436.52122950044975L286.4919540229885,378.03763809453784L293.45628197799186,381.5352550523535Z" class="fore"></path><path d="M296.90439317908493,450.98169507649266L281.85451073164853,447.41480741270095L301.60239676880394,381.4522743716124L308.86096839168255,383.17258744839694Z" class="fore"></path><path d="M327.6435721756703,451.2350660289292L312.35642782432956,451.2350660289292L316.43699181738475,381.1744879698366L323.5630081826152,381.1744879698366Z" class="fore"></path><path d="M357.25936617694026,444.4549501608573L342.5590938306058,447.9389787085653L330.14265034060077,377.5218284793889L336.75194606143293,375.9553966181884Z" class="fore"></path><path d="M384.18390804597686,431.16978976396115L370.8438945646587,437.86939634067704L341.9983612586346,370.9979336602929L347.77011494252866,368.09925001248746Z" class="fore"></path><path d="M407.0312153515913,412.2476989846024L395.73343721163053,421.72766045496616L351.4530980530902,362.24884274115766L356.1452147283871,358.31168936947523Z" class="fore"></path><path d="M424.6683764845043,388.84147418148666L415.96863901657895,400.52724960339685L358.15077428903345,352.01230063505557L361.6092136699997,347.36681034695624Z" class="fore"></path><path d="M436.27130027857635,362.3192924008296L430.5721453626835,375.5314185634706L361.94115858584547,341.063641524075L364.1029070022186,336.05214539341813Z" class="fore"></path><path d="M441.3623107832178,334.1852197047915L438.8948987610548,348.1786086475912L362.8766070787909,330.1619425526232L363.7664203245921,325.11556086885616Z" class="fore"></path><path d="M439.82792876849925,305.9941238315127L440.64367816091954,320.00000000000006L361.1954022988506,320L360.916853725829,315.2175056985653Z" class="fore"></path><path d="M431.916311029141,279.2657940565145L435.88852564367704,292.53391487028887L357.29334271794676,311.1613154091541L356.0150698246958,306.8915865987919Z" class="fore"></path><path d="M418.21495338945283,255.40300895947433L425.05011194385753,267.2418508534924L351.68595366516854,304.0867159645703L349.6242850649038,300.51580120054234Z" class="fore"></path><path d="M399.61034026070763,235.61796908427058L408.86819948863473,245.43072658569758L344.96424373713705,299.05251228754855L342.3635895596027,296.29597990128843Z" class="fore"></path><path d="M377.2321839080461,220.87094964313854L388.35338068520724,228.18547583066868L337.7472787897325,296.1612675035926L334.85977011494253,294.26212317212594Z" class="fore"></path><path d="M352.3856891741813,211.82426472428327L364.72514507550216,216.3154593794045L330.63496935020083,295.34536981985843L327.70083162773693,294.2774310256439Z" class="fore"></path><path d="M326.47586361162024,208.81371574269792L339.34001588875276,210.31731949899896L324.16436273430213,296.38272533465897L321.3944065636646,296.0589638917566Z" class="fore"></path><path d="M300.92824060640197,211.8386776829626L313.61396012407624,210.35592972513078L318.7724089454855,298.92307557341763L316.3338278995562,299.20810481916294Z" class="fore"></path><path d="M277.11047977124497,220.5709160954289L288.94349546293523,216.26405060204877L314.7676541269076,302.52274765578L312.7740482223293,303.2483608639038Z" class="fore"></path><path d="M256.25915464380734,234.3811860091904L266.62988505747137,227.56024931374924L312.31264367816095,306.6851082746889L310.81885824986614,307.66758640656155Z" class="fore"></path><path d="M239.41564662730002,252.38169880630812L247.81053483017646,243.48363715314315L311.41803560918186,310.903649172052L310.420041906742,311.9614606972534Z" class="fore"></path><path d="M227.374463248501,273.48170704165904L233.40120818164024,263.0430786132035L311.9485864242689,314.70450198603953L311.38825740635457,315.6750203140222Z" class="fore"></path><path d="M220.6465265019001,296.4527942186294L224.05198288545546,285.0777777334414L313.64033315955464,317.6852705702281L313.4146112666965,318.43923419892934Z" class="fore"></path><path d="M219.4390804597701,320.0000000000001L220.11903742284238,308.3255898034618L316.12751205809116,319.54737107504275L316.10114942528736,320Z" class="fore"></path><path d="M223.6528996192778,342.8346822634907L221.65341943756098,331.4950666602343L318.97707865685425,320.11956235753587L318.9978756275408,320.23750783929336Z" class="fore"></path><path d="M232.8964966673273,363.7450235413786L228.4069721348908,353.33713580921466L321.72817033707753,319.370997437562L321.64346232703156,319.1746221973325Z" class="fore"></path><path d="M246.51608615524435,381.6603250045975L239.85463127669183,372.7124382458357L323.9335150293648,317.41288646646206L323.6065724586383,316.97372638014247Z" class="fore"></path><path d="M263.63921117023096,395.70567770517493L255.23140992106033,388.65069477798403L325.1996607779663,314.48868155718446L324.5246775132239,313.9223033486882Z" class="fore"></path><path d="M283.2292292604018,405.24422818448966L273.5816091954023,400.3990112791512L325.22298850574714,310.9535185406977L324.137440130763,310.4083356559449Z" class="fore"></path><path d="M304.1473185482551,409.9050241094732L293.81717246569474,407.45673451281084L323.81876856060376,307.24442470038775L322.3121155058548,306.8873413667892Z" class="fore"></path><path d="M325.21833131187356,409.5952885032421L314.78166868812633,409.59528850324205L320.9410105644362,303.84347256498916L319.0589894355638,303.84347256498916Z" class="fore"></path></g></svg>