<svg xmlns="http://www.w3.org/2000/svg" width="640" height="640" viewport-fill="#000" label="_shape #40"><defs><style type="text/css">
.f-0 { fill: #000;  }
.f-1 { fill: #101010;  }
.f-2 { fill: #202020;  }
.f-3 { fill: #303030;  }
.f-4 { fill: #404040;  }
.f-5 { fill: #505050;  }
.f-6 { fill: #606060;  }
.f-7 { fill: #707070;  }
.f-8 { fill: #808080;  }
.f-9 { fill: #909090;  }
.f-10 { fill: #a0a0a0;  }
.f-11 { fill: #b0b0b0;  }
.f-12 { fill: #c0c0c0;  }
.f-13 { fill: #d0d0d0;  }
.f-14 { fill: #e0e0e0;  }
.f-15 { fill: #f0f0f0;  }
.bgc { fill: #101010;  }
.fore { fill: #404040; stroke-color: #404040; sroke-width: 0;  }
text{ font-family: Freemono, Sans, Arial; } 
</style></defs><g fill-rule="evenodd" transform="translate(320,320)"><path d="M137.33238403123903,-77.86666666666666C92.37604307034017,-157.15555555555557,-88.68100134752648,-156.4444444444445,-134.25318259556096,-78.93333333333341C-179.82536384359545,-1.422222222222312,-89.91268192179776,152.88888888888883,-1.2316805742712138,153.60000000000002C87.44932077325531,154.31111111111116,174.8986415465107,1.4222222222223688,131.78982144701874,-74.66666666666659C88.6810013475267,-150.75555555555556,-84.98595962471272,-150.04444444444462,-128.7106200113404,-75.73333333333358C-172.4352803979681,-1.4222222222225014,-86.21764019898414,146.48888888888874,-1.231680574271233,147.19999999999996C83.75427905044167,147.91111111111118,167.50855810088348,1.4222222222224066,126.24725886279832,-71.46666666666655C84.98595962471312,-144.35555555555553,-81.29091790189908,-143.64444444444464,-123.16805742711999,-72.53333333333359C-165.04519695234092,-1.4222222222225203,-82.52259847617056,140.08888888888876,-1.2316805742712233,140.80000000000007C80.05923732762811,141.51111111111138,160.11847465525642,1.4222222222227476,120.70469627857806,-68.26666666666623C81.29091790189969,-137.9555555555552,-77.59587617908537,-137.2444444444445,-117.62549484289953,-69.33333333333351C-157.65511350671372,-1.4222222222225394,-78.82755675335699,133.68888888888873,-1.2316805742712564,134.40000000000006C76.36419560481447,135.1111111111114,152.7283912096292,1.4222222222227476,115.16213369435765,-65.06666666666622C77.59587617908609,-131.5555555555552,-73.90083445627174,-130.84444444444452,-112.08293225867926,-66.13333333333354C-150.2650300610868,-1.4222222222225582,-75.13251503054401,127.28888888888872,-1.2316805742718866,128.00000000000003C72.66915388200023,128.71111111111136,145.33830776400168,1.4222222222227476,109.61957111013716,-61.86666666666636C73.90083445627265,-125.15555555555547,-70.20579273345784,-124.44444444444507,-106.54036967445842,-62.93333333333408C-142.874946615459,-1.4222222222231078,-71.43747330772969,120.88888888888845,-1.2316805742712376,121.5999999999999C68.97411215918721,122.31111111111137,137.94822431837477,1.4222222222227572,104.07700852591692,-58.666666666666345C70.20579273345905,-118.75555555555546,-66.51075101064424,-118.04444444444505,-100.99780709023803,-59.73333333333409C-135.4848631698318,-1.4222222222230982,-67.7424315849161,114.48888888888844,-1.231680574271266,115.19999999999993C65.27907043637357,115.91111111111138,130.55814087274754,1.4222222222227667,98.5344459416965,-55.466666666666335C66.51075101064545,-112.35555555555544,-62.815709287830636,-111.64444444444503,-95.45524450601765,-56.53333333333404C-128.09477972420464,-1.4222222222230794,-64.04738986210252,108.08888888888846,-1.2316805742712897,108.79999999999991C61.584028713559945,109.51111111111139,123.1680574271203,1.4222222222227667,92.99188335747606,-52.26666666666633C62.815709287831815,-105.95555555555542,-59.120667565017065,-105.244444444445,-89.9126819217975,-53.333333333334025C-120.70469627857794,-1.422222222223051,-60.352348139289916,101.68888888888848,-1.2316805742722796,102.39999999999993C57.88898699074536,103.11111111111138,115.77797398149261,1.4222222222227667,87.44932077325541,-49.06666666666632C59.12066756501821,-99.55555555555542,-55.42562584220346,-98.84444444444496,-84.37011933757708,-50.13333333333399C-113.31461283295069,-1.422222222223013,-56.65730641647627,95.2888888888885,-1.2316805742722323,95.99999999999993C54.1939452679318,96.71111111111138,108.38789053586544,1.4222222222227476,81.90675818903502,-45.86666666666633C55.425625842204596,-93.15555555555541,-51.730584119389874,-92.44444444444495,-78.82755675335667,-46.933333333333984C-105.92452938732349,-1.4222222222230034,-52.962264693662625,88.8888888888885,-1.2316805742720807,89.60000000000012C50.49890354511845,90.31111111111171,100.99780709023867,1.4222222222234582,76.36419560481515,-42.66666666666579C51.73058411939161,-86.75555555555503,-48.035542396575664,-86.04444444444528,-73.28499416913556,-43.733333333334464C-98.53444594169547,-1.4222222222236667,-49.26722297084797,82.48888888888817,-1.231680574271247,83.19999999999976C46.803861822305485,83.91111111111137,93.60772364461144,1.4222222222227288,70.8216330205944,-39.466666666666335C48.03554239657735,-80.3555555555554,-44.34050067376271,-79.6444444444449,-67.74243158491588,-40.53333333333392C-91.14436249606905,-1.4222222222229373,-45.572181248035314,76.08888888888852,-1.2316805742719907,76.80000000000008C43.10882009949133,77.51111111111165,86.21764019898423,1.422222222223316,65.27907043637425,-36.26666666666589C44.340500673764275,-73.9555555555551,-40.64545895094859,-73.24444444444516,-62.199869000694854,-37.33333333333433C-83.75427905044113,-1.4222222222234866,-41.877139525220805,69.68888888888826,-1.231680574271273,70.3999999999998C39.41377837667826,71.11111111111136,78.827556753357,1.4222222222226908,59.73650785215356,-33.06666666666636C40.64545895095009,-67.55555555555542,-36.95041722813556,-66.84444444444485,-56.65730641647508,-34.13333333333386C-76.36419560481461,-1.4222222222228613,-38.18209780240799,63.28888888888857,-1.2316805742718913,64.00000000000007C35.718736653864205,64.71111111111158,71.43747330772979,1.4222222222231597,54.19394526793335,-29.866666666666003C36.95041722813692,-61.15555555555516,-33.255375505321545,-60.444444444445054,-51.114743832254184,-30.93333333333418C-68.97411215918682,-1.4222222222233067,-34.487056079593636,56.888888888888346,-1.2316805742712873,57.599999999999824C32.02369493105106,58.3111111111113,64.04738986210258,1.4222222222226246,48.65138268371271,-26.666666666666398C33.25537550532284,-54.75555555555542,-29.560333782508405,-54.044444444444785,-45.57218124803427,-27.73333333333377C-61.58402871356015,-1.4222222222227618,-30.79201435678065,50.488888888888624,-1.2316805742717822,51.20000000000007C28.32865320823709,51.9111111111115,56.65730641647533,1.4222222222230034,43.108820099492426,-23.466666666666104C29.56033378250953,-48.35555555555521,-25.86529205969451,-47.644444444444936,-40.029618663813714,-24.533333333334017C-54.193945267932925,-1.422222222223103,-27.096972633967297,44.08888888888845,-1.23168057427214,44.79999999999986C24.633611485423017,45.51111111111127,49.267222970847705,1.4222222222225536,37.56625751527164,-20.266666666666442C25.86529205969556,-41.95555555555544,-22.170250336881278,-41.24444444444472,-34.48705607959349,-21.333333333333684C-46.80386182230571,-1.422222222222653,-23.401930911153304,37.68888888888868,-1.2316805742716543,38.40000000000005C20.938569762609998,39.11111111111142,41.87713952522089,1.4222222222228236,32.02369493105152,-17.066666666666233C22.17025033688215,-35.55555555555529,-18.475208614067483,-34.84444444444481,-28.944493495372985,-18.133333333333848C-39.413778376678486,-1.422222222222885,-19.706889188339854,31.28888888888856,-1.2316805742718853,31.999999999999897C17.243528039796086,32.71111111111124,34.487056079593394,1.4222222222224705,26.481132346830822,-13.866666666666498C18.47520861406826,-29.15555555555547,-14.780166891254177,-28.444444444444642,-23.401930911152856,-14.933333333333598C-32.02369493105153,-1.4222222222225487,-16.01184746552644,24.88888888888872,-1.231680574272006,25.600000000000012C13.548486316982432,26.311111111111302,27.096972633966217,1.422222222222615,20.938569762610438,-10.666666666666293C14.780166891254666,-22.7555555555552,-11.085125168440669,-22.044444444444327,-17.85936832693246,-11.733333333333318C-24.633611485424254,-1.4222222222223095,-12.316805742712504,18.488888888888834,-1.2316805742716752,19.200000000000003C9.853444594169153,19.911111111111172,19.70688918833906,1.422222222222371,15.396007178390041,-7.46666666666662C11.085125168441019,-16.35555555555561,-7.390083445626927,-15.644444444444792,-12.316805742711809,-8.533333333333715C-17.24352803979669,-1.42222222222264,-8.621764019898508,12.088888888888691,-1.2316805742713093,12.799999999999999C6.158402871355889,13.51111111111131,12.316805742712106,1.4222222222225984,9.853444594169781,-4.266666666666338C7.390083445627458,-9.955555555555273,-3.6950417228134036,-9.244444444444433,-6.77424315849147,-5.333333333333411C-9.853444594169536,-1.4222222222223913,-4.9267222970848055,5.688888888888809,-1.2316805742712063,6.399999999999989C2.463361148542393,7.11111111111117,4.9267222970848605,1.4222222222223284,4.310882009949278,-1.0666666666665676C3.6950417228136962,-3.5555555555554634,6.365278674517565e-14,-2.844444444444415,-1.2316805742711578,-2.1333333333333293C-2.463361148542379,-1.4222222222222438,-1.2316805742711896,-0.7111111111111219,6.069219201284189e-15,-0.7111111111111162C1.2316805742712018,-0.7111111111111108,2.4633611485424036,-1.4222222222222216,1.231680574271202,-2.1333333333333333C5.921189464667501e-16,-2.844444444444445,-3.695041722813604,-3.5555555555555576,-4.310882009949205,-1.0666666666666689C-4.926722297084807,1.42222222222222,-2.463361148542405,7.111111111111111,1.2316805742712011,6.400000000000001C4.926722297084807,5.6888888888888935,9.853444594169618,-1.4222222222222136,6.774243158491617,-5.3333333333333295C3.6950417228136168,-9.244444444444445,-7.390083445627194,-9.95555555555557,-9.853444594169602,-4.2666666666666835C-12.316805742712008,1.422222222222204,-6.15840287135601,13.511111111111104,1.2316805742711996,12.799999999999999C8.621764019898409,12.088888888888901,17.243528039796832,-1.4222222222222018,12.316805742712033,-8.533333333333323C7.3900834456272335,-15.64444444444444,-11.085125168440788,-16.35555555555558,-15.39600717839,-7.466666666666698C-19.706889188339215,1.4222222222221863,-9.853444594169622,19.911111111111094,1.2316805742711996,19.20000000000001C12.31680574271202,18.488888888888926,24.63361148542407,-1.4222222222221437,17.859368326932472,-11.733333333333269C11.085125168440877,-22.044444444444395,-14.780166891254362,-22.75555555555557,-20.938569762610392,-10.6666666666667C-27.09697263396642,1.4222222222221699,-13.548486316983235,26.311111111111085,1.2316805742711925,25.600000000000012C16.01184746552562,24.888888888888943,32.02369493105129,-1.422222222222113,23.401930911152892,-14.933333333333245C14.780166891254504,-28.444444444444375,-18.47520861406795,-29.155555555555583,-26.48113234683083,-13.866666666666722C-34.48705607959371,1.4222222222221415,-17.243528039797003,32.71111111111107,1.2316805742710304,32.000000000000014C19.706889188339066,31.28888888888896,39.41377837667843,-1.4222222222220797,28.944493495373308,-18.133333333333255C18.475208614068183,-34.84444444444443,-22.17025033688144,-35.55555555555574,-32.02369493105109,-17.066666666666887C-41.87713952522075,1.422222222221966,-20.93856976261043,39.11111111111098,1.231680574271189,38.399999999999984C23.401930911152807,37.68888888888898,46.80386182230573,-1.422222222222037,34.48705607959378,-21.333333333333226C22.170250336881825,-41.24444444444442,-25.865292059694998,-41.955555555555776,-37.56625751527147,-20.266666666666936C-49.26722297084793,1.4222222222219045,-24.633611485424044,45.51111111111095,1.231680574271176,44.799999999999976C27.09697263396639,44.088888888888995,54.193945267932946,-1.4222222222219945,40.0296186638142,-24.5333333333332C25.865292059695463,-47.64444444444441,-29.560333782508565,-48.35555555555582,-43.10882009949185,-23.466666666666985C-56.65730641647513,1.4222222222218477,-28.328653208237665,51.91111111111093,1.2316805742711618,51.19999999999998C30.792014356779987,50.48888888888903,61.58402871356017,-1.4222222222219472,45.57218124803464,-27.733333333333167C29.56033378250912,-54.044444444444395,-33.25537550532212,-54.755555555555866,-48.65138268371236,-26.666666666667044C-64.0473898621026,1.4222222222217766,-32.023694931051836,58.31111111111088,1.2316805742705934,57.59999999999997C34.487056079593025,56.88888888888905,68.97411215918711,-1.4222222222218999,51.11474383225494,-30.933333333333138C33.25537550532277,-60.44444444444437,-36.95041722813567,-61.1555555555559,-54.19394526793275,-29.86666666666709C-71.43747330772982,1.4222222222217198,-35.71873665386552,64.71111111111087,1.2316805742705081,63.99999999999997C38.18209780240654,63.28888888888908,76.3641956048143,-1.4222222222218477,56.65730641647536,-34.133333333333105C36.95041722813642,-66.84444444444436,-40.64545895094921,-67.55555555555594,-59.73650785215312,-33.066666666667146C-78.82755675335703,1.4222222222216487,-39.4137783766792,71.11111111111083,1.2316805742705175,70.4000000000001C41.87713952522024,69.68888888888941,83.75427905044184,-1.422222222221194,62.19986900069623,-37.333333333332625C40.64545895095062,-73.24444444444406,-44.34050067376222,-73.95555555555632,-65.27907043637288,-36.26666666666768C-86.21764019898353,1.4222222222209477,-43.10882009949199,77.51111111111048,1.231680574271157,76.7999999999998C45.572181248034305,76.08888888888913,91.14436249606906,-1.422222222221734,67.74243158491642,-40.533333333333026C44.34050067376378,-79.64444444444432,-48.03554239657628,-80.35555555555604,-70.82163302059386,-39.46666666666727C-93.60772364461145,1.422222222221497,-46.80386182230658,83.91111111111076,1.231680574270347,83.20000000000014C49.267222970847286,82.48888888888952,98.53444594169628,-1.422222222220957,73.28499416913715,-43.733333333332446C48.03554239657802,-86.04444444444395,-51.73058411938922,-86.75555555555646,-76.36419560481353,-42.66666666666788C-100.99780709023786,1.422222222220692,-50.49890354511923,90.31111111111034,1.2316805742711097,89.59999999999975C52.962264693661446,88.8888888888892,105.9245293873235,-1.4222222222216014,78.82755675335731,-46.93333333333294C51.730584119391104,-92.44444444444427,-55.42562584220335,-93.15555555555613,-81.90675818903462,-45.866666666667406C-108.38789053586589,1.4222222222213265,-54.19394526793399,96.71111111111065,1.2316805742701717,96.00000000000016C56.65730641647432,95.28888888888964,113.31461283295073,-1.4222222222207204,84.37011933757809,-50.13333333333228C55.425625842205456,-98.84444444444385,-59.1206675650162,-99.55555555555661,-87.44932077325417,-49.06666666666809C-115.77797398149217,1.422222222220417,-57.88898699074648,103.11111111111022,1.2316805742710386,102.39999999999975C60.35234813928857,101.68888888888928,120.70469627857794,-1.4222222222214498,89.91268192179818,-53.33333333333284C59.12066756501843,-105.24444444444423,-62.81570928783045,-105.95555555555626,-92.9918833574754,-52.26666666666756C-123.16805742712036,1.4222222222211276,-61.584028713561416,109.51111111111057,1.2316805742699728,108.80000000000017C64.04738986210135,108.08888888888976,128.09477972420515,-1.422222222220474,95.45524450601903,-56.53333333333211C62.8157092878329,-111.64444444444375,-66.51075101064316,-112.35555555555679,-98.53444594169537,-55.466666666668345C-130.55814087274757,1.422222222220114,-65.27907043637593,115.91111111111006,1.231680574268779,115.19999999999972C67.74243158491349,114.48888888888935,135.4848631698313,-1.4222222222212888,100.99780709023854,-59.73333333333272C66.51075101064579,-118.04444444444415,-70.2057927334575,-118.75555555555638,-104.07700852591614,-58.666666666667716C-137.9482243183748,1.4222222222209286,-68.97411215918883,122.31111111111045,1.2316805742697738,121.60000000000018C71.43747330772838,120.8888888888899,142.8749466154596,-1.4222222222201897,106.54036967446,-62.93333333333191C70.20579273346037,-124.44444444444362,-73.90083445627012,-125.15555555555697,-109.61957111013606,-61.86666666666857C-145.33830776400202,1.4222222222198013,-72.66915388200346,128.7111111111099,1.2316805742684476,127.99999999999966C75.13251503054035,127.28888888888945,150.26503006108558,-1.4222222222211183,112.08293225867938,-66.1333333333326C73.90083445627316,-130.8444444444441,-77.5958761790845,-131.55555555555648,-115.16213369435751,-65.06666666666789C-152.72839120963047,1.4222222222207392,-76.36419560481879,135.11111111111038,1.231680574267017,134.4000000000002C78.82755675335284,133.68888888889003,157.65511350671278,-1.4222222222199055,117.62549484289997,-69.33333333333114C77.59587617908718,-137.24444444444237,-81.29091790189835,-137.95555555555487,-120.70469627857807,-68.26666666666655C-160.11847465525776,1.4222222222217624,-80.05923732763164,141.5111111111109,1.2316805742677797,140.8000000000002C82.5225984761672,140.08888888888956,165.04519695233992,-1.4222222222209286,123.16805742712057,-72.53333333333306C81.29091790190124,-143.6444444444452,-84.98595962471016,-144.355555555559,-126.24725886279623,-71.46666666667043C-167.5085581008823,1.4222222222181244,-83.75427905044303,147.91111111110905,1.231680574270025,147.20000000000024C86.21764019898308,146.4888888888914,172.4352803979699,-1.422222222217158,128.71062001134334,-75.73333333332904C84.98595962471673,-150.04444444444093,-88.68100134752326,-150.75555555555613,-131.78982144701635,-74.66666666666849C-174.89864154650945,1.4222222222191288,-87.44932077325564,154.31111111110957,1.2316805742710244,153.60000000000025C89.91268192179767,152.88888888889093,179.82536384359716,-1.4222222222181624,134.2531825955633,-78.93333333332977C88.68100134752939,-156.44444444444136,-92.37604307033786,-157.15555555555548,-137.3323840312373,-77.86666666666763C-182.28872499213674,1.4222222222202465,-91.14436249606837,160.7111111111101,2.8421709430404007e-13,160.71111111111065C91.14436249606894,160.71111111111114,182.28872499213787,1.4222222222222551,137.33238403123903,-77.86666666666666" class="fore"></path></g></svg>