<svg xmlns="http://www.w3.org/2000/svg" width="640" height="640" viewport-fill="#000" label="_shape #41"><defs><style type="text/css">
.f-0 { fill: #000;  }
.f-1 { fill: #101010;  }
.f-2 { fill: #202020;  }
.f-3 { fill: #303030;  }
.f-4 { fill: #404040;  }
.f-5 { fill: #505050;  }
.f-6 { fill: #606060;  }
.f-7 { fill: #707070;  }
.f-8 { fill: #808080;  }
.f-9 { fill: #909090;  }
.f-10 { fill: #a0a0a0;  }
.f-11 { fill: #b0b0b0;  }
.f-12 { fill: #c0c0c0;  }
.f-13 { fill: #d0d0d0;  }
.f-14 { fill: #e0e0e0;  }
.f-15 { fill: #f0f0f0;  }
.bgc { fill: #101010;  }
.fore { fill: #404040; stroke: #404040;  }
text{ font-family: Freemono, Sans, Arial; } 
</style></defs><g fill-rule="evenodd" transform="translate(320,320)"><path d="M125.39418715572761,172.59029213332212L201.2689203551557,-65.39623646292219L2.570778560770124e-14,-209.92000000000002L-198.02264744620157,-64.34145845545575L-121.38157316674437,167.0674027850558L120.37841966949846,165.68668044798926L193.1532380827704,-62.75929144425593L7.398826101728649e-14,-201.38666666666668L-189.90696517381625,-61.70451343678959L-116.3658056805153,160.16379109972289L115.36265218326932,158.78306876265643L185.03755581038513,-60.12234642558967L1.1808860868578213e-13,-192.85333333333335L-181.79128290143095,-59.06756841812341L-111.35003819428621,153.26017941438997L110.34688469704017,151.87945707732356L176.92187353799983,-57.485401406923415L1.580088286131881e-13,-184.32000000000002L-173.67560062904562,-56.430623399457225L-106.33427070805716,146.35656772905708L105.33111721081106,144.9758453919907L168.80619126561453,-54.848456388257155L1.937489207995045e-13,-175.7866666666667L-165.5599183566603,-53.79367838079104L-101.31850322182808,139.45295604372413L100.31534972458142,138.07223370665818L160.69050899322903,-52.21151136959148L8.195120904030442e-13,-167.25333333333333L-157.44423608427513,-51.1567333621243L-96.30273573559946,132.5493443583909L95.29958223835327,131.16862202132464L152.5748267208441,-49.57456635092412L-3.1119799315034725e-13,-158.72000000000003L-149.3285538118895,-48.51978834345919L-91.28696824936945,125.64573267305869L90.28381475212322,124.26501033599243L144.45914444845846,-46.93762133225894L8.094586559520336e-13,-150.18666666666667L-141.2128715395045,-45.88284332479196L-86.27120076314125,118.74212098772516L85.26804726589495,117.36139865065891L136.34346217607347,-44.30067631359171L-2.0834572284714679e-13,-141.65333333333336L-133.09718926711886,-43.24589830612674L-81.25543327691133,111.83850930239285L80.25227977966505,110.45778696532663L128.22777990368786,-41.66373129492641L7.826847105366644e-13,-133.12L-124.98150699473385,-40.60895328745961L-76.23966579068302,104.9348976170594L75.23651229343668,103.55417527999319L120.11209763130285,-39.0267862762593L-1.222139635083048e-13,-124.58666666666669L-116.86582472234879,-37.97200826879261L-71.2238983044532,98.03128593172703L70.22074480720686,96.65056359466084L111.99641535891728,-36.3898412575939L-9.100268050579735e-13,-116.05333333333336L-108.75014244996319,-35.33506325012725L-66.20813081822477,91.12767424639367L65.20497732097841,89.74695190932748L103.88073308653173,-33.752896238928386L-5.280271513382133e-14,-107.52000000000001L-100.63446017757765,-32.69811823146178L-61.19236333199505,84.22406256106123L60.189209834749875,82.84334022399418L95.76505081414668,-31.11595122026141L6.789752868128505e-13,-98.98666666666668L-92.51877790519256,-30.06117321279487L-56.17659584576541,77.32045087572872L55.17344234852017,75.93972853866174L87.64936854176156,-28.47900620159454L-1.1197772369641119e-16,-90.45333333333335L-84.40309563280744,-27.42422819412808L-51.160828359536886,70.41683919039544L50.157674862290555,69.03611685332923L79.53368626937608,-25.84206118292893L-5.621134097649425e-13,-81.92000000000002L-76.28741336042192,-24.787283175462477L-46.14506087330824,63.51322750506221L45.141907376061916,62.13250516799599L71.4180039969906,-23.205116164263206L3.585824872206999e-14,-73.38666666666668L-68.17173108803644,-22.150338156796753L-41.1292933870787,56.609615819729655L40.1261398898332,55.22889348266283L63.30232172460546,-20.568171145596466L5.083838192316026e-13,-64.85333333333335L-60.05604881565129,-19.513393138130063L-36.113525900849254,49.70600413439702L35.1103724036037,48.325281797330234L55.18663945222029,-17.93122612692985L5.510796420347785e-14,-56.32000000000002L-51.9403665432661,-16.876448119463483L-31.097758414620507,42.80239244906387L30.094604917374294,41.42167011199757L47.070957179834856,-15.294281108264018L-2.8108205832934604e-13,-47.78666666666669L-43.824684270880674,-14.239503100797636L-26.081990928391658,35.898780763730805L25.078837431145484,34.518058426664474L38.95527490744943,-12.65733608959807L6.154605858079235e-13,-39.25333333333336L-35.70900199849528,-11.60255808213167L-21.0662234421623,28.99516907839811L20.06306994491658,27.614446741331445L30.83959263506406,-10.020391070932018L2.7091030779292043e-13,-30.720000000000027L-27.593319726110053,-8.965613063465195L-16.050455955933035,22.091557393065344L15.047302458686993,20.710835055998913L22.723910362678946,-7.383446052265209L4.344586227321801e-14,-22.186666666666696L-19.477637453724796,-6.328668044798829L-11.034688469703864,15.187945707732508L10.031534972458095,13.80722337066588L14.608228090293581,-4.7465010335991655L-6.693275075118359e-14,-13.653333333333364L-11.361955181339393,-3.6917230261328986L-6.018920983475008,8.284334022399413L5.0157674862291035,6.903611685332918L6.492545817908253,-2.10955601493301L-6.022553128028442e-14,-5.120000000000033L-3.246272908954135,-1.0547780074665252L-1.0031534972458307,1.3807223370665833L1.0031534972458207,1.3807223370665769L-2.0063069944916414,2.7614446741331538L-4.869409363431186,-1.5821670111997301L-8.360255482179264e-16,-6.826666666666666L8.11568227238531,-2.636945018666219L6.018920983474926,8.28433402239946L-7.022074480720742,9.665056359466039L-12.985091635816497,-4.219112029865944L-5.643172450471003e-15,-15.36L16.231364544770617,-5.273890037332443L11.034688469704035,15.187945707732341L-12.03784196694984,16.56866804479893L-21.10077390820181,-6.856057048532154L-1.4630447093813713e-14,-23.89333333333333L24.347046817155924,-7.910835055998669L16.05045595593315,22.09155739306522L-17.053609453178932,23.47227973013182L-29.216456180587127,-9.493002067198361L-2.779784947824605e-14,-32.42666666666666L32.462729089541234,-10.547780074664901L21.06622344216226,28.995169078398092L-22.06937693940803,30.375891415464714L-37.33213845297244,-12.129947085864561L-4.5145379603768023e-14,-40.959999999999994L40.578411361926534,-13.184725093331135L26.08199092839138,35.89878076373096L-27.085144425636983,37.279503100797704L-45.4478207253577,-14.766892104530921L-2.425086798131457e-13,-49.49333333333333L48.69409363431189,-15.821670111997204L31.097758414620657,42.802392449063724L-32.100911911866355,44.183114786130396L-53.563502997743136,-17.403837123196762L1.1377130932378284e-13,-58.026666666666664L56.80977590669707,-18.45861513066382L36.11352590084945,49.706004134396835L-37.116679398095094,51.08672647146354L-61.679185270128315,-20.040782141863364L-3.5873735888783306e-13,-66.56L64.92545817908251,-21.095560149329636L41.12929338707896,56.60961581972943L-42.13244688432456,57.99033815679616L-69.79486754251378,-22.677727160529084L1.104483350033067e-13,-75.09333333333333L73.04114045146765,-23.732505167996376L46.14506087330766,63.513227505062595L-47.1482143705532,64.89394984212937L-77.91054981489894,-25.314672179195785L-4.916865489268789e-13,-83.62666666666667L81.15682272385314,-26.369450186662082L51.160828359537284,70.41683919039511L-52.16398185678173,71.79756152746268L-86.02623208728446,-27.951617197861385L9.040484971847202e-14,-92.16L89.27250499623823,-29.006395205328946L56.17659584576699,77.32045087572754L-57.17974934301128,78.70117321279524L-94.14191435966957,-30.588562216528203L-6.413562499302833e-13,-100.69333333333333L97.3881872686233,-31.643340223995928L61.19236333199561,84.22406256106079L-62.19551682924094,85.60478489812773L-102.25759663205513,-33.225507235193675L-1.4985634375565187e-12,-109.22666666666666L105.5038695410088,-34.280285242661535L66.20813081822413,91.1276742463941L-67.21128431546937,92.5083965834611L-110.37327890444071,-35.862452253859026L-8.077464618980462e-13,-117.75999999999999L113.61955181339434,-36.91723026132703L71.22389830445397,98.03128593172647L-72.2270518016977,99.41200826879455L-118.4889611768258,-38.49939727252595L1.5634625572706462e-16,-126.29333333333332L121.73523408577935,-39.55417527999413L76.23966579068387,104.93489761705874L-77.24281928792743,106.31561995412697L-126.60464344921085,-41.136342291192975L-9.908571848301674e-13,-134.82666666666665L129.85091635816434,-42.191120298661374L81.2554332769123,111.83850930239211L-82.25858677415725,113.21923163945934L-134.72032572159648,-43.773287309858205L-2.1073168038935425e-12,-143.35999999999999L137.96659863054992,-44.828065317326754L86.27120076314064,118.74212098772556L-87.27435426038548,120.12284332479287L-142.83600799398215,-46.41023232852331L-1.1906884187266476e-12,-151.89333333333332L146.08228090293554,-47.46501033599204L91.28696824937069,125.64573267305776L-92.2901217466136,127.02645501012647L-150.95169026636717,-49.04717734719044L-1.5697420106445199e-13,-160.42666666666665L154.1979631753205,-50.101955354659395L96.3027357356008,132.5493443583899L-97.30588923284351,133.93006669545875L-159.06737253875215,-51.68412236585768L-1.4072401635874859e-12,-168.95999999999998L162.31364544770537,-52.73890037332687L101.31850322182908,139.45295604372342L-102.32165671907352,140.83367838079099L-167.18305481113865,-54.32106738452029L-2.782952214088e-12,-177.4933333333333L170.42932772009104,-55.375845391992044L106.33427070805723,146.356567729057L-107.33742420530363,147.73729006612314L-175.2987370835236,-56.95801240318753L-1.640512419412683e-12,-186.02666666666664L178.5450099924767,-58.01279041065711L111.35003819428964,153.26017941438747L-112.35319169152943,154.64090175145841L-183.41441935590854,-59.59495742185487L-3.8098679224206513e-13,-194.55999999999997L186.66069226486243,-60.64973542932206L116.36580568051781,160.16379109972104L-117.36895917775954,161.54451343679057L-191.53010162829344,-62.23190244052233L-4.776635039828331e-12,-203.09333333333333L194.7763745372464,-63.28668044799244L121.38157316674588,167.06740278505467L-122.38472666398974,168.44812512212266L-199.6457839006783,-64.8688474591899L-3.5254696681398924e-12,-211.62666666666667L202.89205680963212,-65.9236254666574" class="fore"></path></g></svg>