<svg xmlns="http://www.w3.org/2000/svg" width="640" height="640" viewport-fill="#000"><defs><style type="text/css">text{ font-family: Freemono, Sans, Arial; fill: #555} 
</style></defs><rect x="0" y="0" width="640" height="640" fill="#101010" stroke="#707070"></rect><g fill-rule="evenodd"><path d="M169.15055334686983,470.84944665313014L169.15055334686986,169.15055334686983L470.84944665313014,169.15055334686986L470.84944665313014,470.84944665313014ZM169.15055334686986,169.15055334686983L470.84944665313014,169.15055334686983L470.84944665313014,169.15055334686983L169.15055334686986,169.15055334686983L169.15055334686986,171.24568455038553L470.84944665313014,171.24568455038553L470.84944665313014,171.32948979852614L169.15055334686986,171.32948979852614L169.15055334686986,177.53107816093262L470.84944665313014,177.53107816093262L470.84944665313014,177.86629915349513L169.15055334686986,177.86629915349513L169.15055334686986,188.0067341785111L470.84944665313014,188.0067341785111L470.84944665313014,188.76098141177675L169.15055334686986,188.76098141177675L169.15055334686986,202.67265260312098L470.84944665313014,202.67265260312098L470.84944665313014,204.01353657337103L169.15055334686986,204.01353657337103L169.15055334686986,221.52883343476225L470.84944665313014,221.52883343476225L470.84944665313014,223.62396463827793L169.15055334686986,223.62396463827793L169.15055334686986,244.5752766734349L470.84944665313014,244.5752766734349L470.84944665313014,247.5922656064975L169.15055334686986,247.5922656064975L169.15055334686986,271.81198231913896L470.84944665313014,271.81198231913896L470.84944665313014,275.9184394780297L169.15055334686986,275.9184394780297L169.15055334686986,303.2389503718744L470.84944665313014,303.2389503718744L470.84944665313014,308.6024862528746L169.15055334686986,308.6024862528746L169.15055334686986,338.85618083164127L470.84944665313014,338.85618083164127L470.84944665313014,345.6444059310321L169.15055334686986,345.6444059310321L169.15055334686986,378.6636736984395L470.84944665313014,378.6636736984395L470.84944665313014,387.04419851250225L169.15055334686986,387.04419851250225L169.15055334686986,422.6614289722691L470.84944665313014,422.6614289722691L470.84944665313014,432.80186399728507L169.15055334686986,432.80186399728507" fill="#303030"></path></g><text x="320" y="632" text-anchor="middle" fill="#606060">_shape #46</text></svg>