<svg xmlns="http://www.w3.org/2000/svg" width="640" height="640" viewport-fill="#000"><defs><style type="text/css">text{ font-family: Freemono, Sans, Arial; fill: #555} 
</style></defs><rect x="0" y="0" width="640" height="640" fill="#101010" stroke="#707070"></rect><g fill-rule="evenodd"><path d="M135.24791385931965,426.6666666666665L320,106.66666666666666L504.75208614068026,426.6666666666667ZM135.24791385931977,106.66666666666666L504.75208614068026,106.66666666666666L504.75208614068026,106.66666666666666L135.24791385931977,106.66666666666666L135.24791385931977,109.23266786306499L504.75208614068026,109.23266786306499L504.75208614068026,109.33530791092093L135.24791385931977,109.33530791092093L135.24791385931977,116.93067145226L504.75208614068026,116.93067145226L504.75208614068026,117.34123164368374L135.24791385931977,117.34123164368374L135.24791385931977,129.76067743425168L504.75208614068026,129.76067743425168L504.75208614068026,130.6844378649551L135.24791385931977,130.6844378649551L135.24791385931977,147.72268580904006L504.75208614068026,147.72268580904006L504.75208614068026,149.36492657473497L135.24791385931977,149.36492657473497L135.24791385931977,170.81669657662508L504.75208614068026,170.81669657662508L504.75208614068026,173.3826977730234L135.24791385931977,173.3826977730234L135.24791385931977,199.04270973700676L504.75208614068026,199.04270973700676L504.75208614068026,202.7377514598204L135.24791385931977,202.7377514598204L135.24791385931977,232.40072529018516L504.75208614068026,232.40072529018516L504.75208614068026,237.4300876351259L135.24791385931977,237.4300876351259L135.24791385931977,270.89074323616023L504.75208614068026,270.89074323616023L504.75208614068026,277.45970629894L135.24791385931977,277.45970629894L135.24791385931977,314.5127635749319L504.75208614068026,314.5127635749319L504.75208614068026,322.8266074512626L135.24791385931977,322.8266074512626L135.24791385931977,363.2667863065003L504.75208614068026,363.2667863065003L504.75208614068026,373.53079109209364L135.24791385931977,373.53079109209364" fill="#303030"></path></g><text x="320" y="632" text-anchor="middle" fill="#606060">_shape #47</text></svg>