<svg xmlns="http://www.w3.org/2000/svg" width="640" height="640" viewport-fill="#000" label="_shape #48"><defs><style type="text/css">text{ font-family: Freemono, Sans, Arial; fill: #555} 

.f-0 { fill: #000 }
.f-1 { fill: #101010 }
.f-2 { fill: #202020 }
.f-3 { fill: #303030 }
.f-4 { fill: #404040 }
.f-5 { fill: #505050 }
.f-6 { fill: #606060 }
.f-7 { fill: #707070 }
.f-8 { fill: #808080 }
.f-9 { fill: #909090 }
.f-10 { fill: #a0a0a0 }
.f-11 { fill: #b0b0b0 }
.f-12 { fill: #c0c0c0 }
.f-13 { fill: #d0d0d0 }
.f-14 { fill: #e0e0e0 }
.f-15 { fill: #f0f0f0 }
.bgc { fill: #101010 }
.fore { fill: #404040 }</style></defs><g fill-rule="evenodd"><path d="M135.24791385931965,426.6666666666665L320,106.66666666666666L504.75208614068026,426.6666666666667Z" class="fore"></path><path d="M135.24791385931977,57.16249438530619L504.75208614068026,57.16249438530619L504.75208614068026,57.16249438530619L135.24791385931977,57.16249438530619L135.24791385931977,57.19286375920948L504.75208614068026,57.19286375920948L504.75208614068026,57.19438222790465L135.24791385931977,57.19438222790465L135.24791385931977,57.40544937653253L504.75208614068026,57.40544937653253L504.75208614068026,57.417597126093845L135.24791385931977,57.417597126093845L135.24791385931977,57.982467480695085L504.75208614068026,57.982467480695085L504.75208614068026,58.02346613546453L135.24791385931977,58.02346613546453L135.24791385931977,59.10613431511691L504.75208614068026,59.10613431511691L504.75208614068026,59.20331631160745L135.24791385931977,59.20331631160745L135.24791385931977,60.95866612321776L504.75208614068026,60.95866612321776L504.75208614068026,61.148474710113334L135.24791385931977,61.148474710113334L135.24791385931977,63.72227914841738L504.75208614068026,63.72227914841738L504.75208614068026,64.05026838657294L135.24791385931977,64.05026838657294L135.24791385931977,67.57918963413553L504.75208614068026,67.57918963413553L504.75208614068026,68.100024396577L135.24791385931977,68.100024396577L135.24791385931977,72.71161382379198L504.75208614068026,72.71161382379198L504.75208614068026,73.48906979571626L135.24791385931977,73.48906979571626L135.24791385931977,79.30176796080646L504.75208614068026,79.30176796080646L504.75208614068026,80.40873163958148L135.24791385931977,80.40873163958148L135.24791385931977,87.53186828859874L504.75208614068026,87.53186828859874L504.75208614068026,89.05033698376337L135.24791385931977,89.05033698376337L135.24791385931977,97.58413105058858L504.75208614068026,97.58413105058858L504.75208614068026,99.60521288385269L135.24791385931977,99.60521288385269L135.24791385931977,109.64077249019572L504.75208614068026,109.64077249019572L504.75208614068026,112.2646863954402L135.24791385931977,112.2646863954402L135.24791385931977,123.88400885083992L504.75208614068026,123.88400885083992L504.75208614068026,127.22008457411661L135.24791385931977,127.22008457411661L135.24791385931977,140.49605637594095L504.75208614068026,140.49605637594095L504.75208614068026,144.6627344754727L135.24791385931977,144.6627344754727L135.24791385931977,159.65913130891855L504.75208614068026,159.65913130891855L504.75208614068026,164.78396315509917L135.24791385931977,164.78396315509917L135.24791385931977,181.55544989319247L504.75208614068026,181.55544989319247L504.75208614068026,187.7750976685868L135.24791385931977,187.7750976685868L135.24791385931977,206.3672283721825L504.75208614068026,206.3672283721825L504.75208614068026,213.82746507152632L135.24791385931977,213.82746507152632L135.24791385931977,234.27668298930834L504.75208614068026,234.27668298930834L504.75208614068026,243.13239241950845L135.24791385931977,243.13239241950845L135.24791385931977,265.4660299879898L504.75208614068026,265.4660299879898L504.75208614068026,275.881206768124L135.24791385931977,275.881206768124L135.24791385931977,300.1174856116466L504.75208614068026,300.1174856116466L504.75208614068026,312.2652351729636L135.24791385931977,312.2652351729636L135.24791385931977,338.41326610369845L504.75208614068026,338.41326610369845L504.75208614068026,352.47580468961814L135.24791385931977,352.47580468961814L135.24791385931977,380.53558770756524L504.75208614068026,380.53558770756524L504.75208614068026,396.7042423736782L135.24791385931977,396.7042423736782" class="bgc"></path></g></svg>