<svg xmlns="http://www.w3.org/2000/svg" width="640" height="640" viewport-fill="#000"><defs><style type="text/css">text{ font-family: Freemono, Sans, Arial; fill: #555} 
</style></defs><rect x="0" y="0" width="640" height="640" fill="#101010" stroke="#707070"></rect><g fill-rule="evenodd"><path d="M169.15055334686983,470.84944665313014L169.15055334686986,169.15055334686983L470.84944665313014,169.15055334686986L470.84944665313014,470.84944665313014ZM169.15055334686986,169.15055334686983L470.84944665313014,169.15055334686983L470.84944665313014,169.15055334686983L169.15055334686986,169.15055334686983L169.15055334686986,169.16510286911645L470.84944665313014,169.16510286911645L470.84944665313014,169.16568485000633L169.15055334686986,169.16568485000633L169.15055334686986,169.38334570281603L470.84944665313014,169.38334570281603L470.84944665313014,169.39265739705385L169.15055334686986,169.39265739705385L169.15055334686986,170.3290646488474L470.84944665313014,170.3290646488474L470.84944665313014,170.3762051009265L169.15055334686986,170.3762051009265L169.15055334686986,172.87523104200883L470.84944665313014,172.87523104200883L470.84944665313014,173.0242181498144L169.15055334686986,173.0242181498144L169.15055334686986,178.24400475101783L470.84944665313014,178.24400475101783L470.84944665313014,178.60774280718374L169.15055334686986,178.60774280718374L169.15055334686986,188.0067341785111L470.84944665313014,188.0067341785111L470.84944665313014,188.76098141177675L169.15055334686986,188.76098141177675L169.15055334686986,204.08395626104473L470.84944665313014,204.08395626104473L470.84944665313014,205.48129237761174L169.15055334686986,205.48129237761174L169.15055334686986,228.7453964690941L470.84944665313014,228.7453964690941L470.84944665313014,231.12919019398305L169.15055334686986,231.12919019398305L169.15055334686986,264.60996880705375L470.84944665313014,264.60996880705375L470.84944665313014,268.4283454254611L169.15055334686986,268.4283454254611L169.15055334686986,314.6457758132376L470.84944665313014,314.6457758132376L470.84944665313014,320.46558471189235L169.15055334686986,320.46558471189235L169.15055334686986,382.17010855987894L470.84944665313014,382.17010855987894L470.84944665313014,390.6908907683993L169.15055334686986,390.6908907683993" fill="#303030"></path></g><text x="320" y="632" text-anchor="middle" fill="#606060">_shape #49</text></svg>