<svg xmlns="http://www.w3.org/2000/svg" width="640" height="640" viewport-fill="#000" label="_shape #50"><defs><style type="text/css">text{ font-family: Freemono, Sans, Arial; fill: #555} 

.f-0 { fill: #000 }
.f-1 { fill: #101010 }
.f-2 { fill: #202020 }
.f-3 { fill: #303030 }
.f-4 { fill: #404040 }
.f-5 { fill: #505050 }
.f-6 { fill: #606060 }
.f-7 { fill: #707070 }
.f-8 { fill: #808080 }
.f-9 { fill: #909090 }
.f-10 { fill: #a0a0a0 }
.f-11 { fill: #b0b0b0 }
.f-12 { fill: #c0c0c0 }
.f-13 { fill: #d0d0d0 }
.f-14 { fill: #e0e0e0 }
.f-15 { fill: #f0f0f0 }
.bgc { fill: #101010 }
.fore { fill: #404040 }</style></defs><g fill-rule="evenodd"><path d=" M 106.66666666666666, 320 a 213.33333333333334,213.33333333333334 0 1,0 426.6666666666667,0 a 213.33333333333334,213.33333333333334 0 1,0 -426.6666666666667,0" class="fore"></path><path d="M213.33333333333331,213.33333333333331L426.66666666666663,213.33333333333331L426.66666666666663,213.33333333333331L213.33333333333331,213.33333333333331L213.33333333333331,213.3508670995315L426.66666666666663,213.3508670995315L426.66666666666663,213.35174378784143L213.33333333333331,213.35174378784143L213.33333333333331,213.4736034629188L426.66666666666663,213.4736034629188L426.66666666666663,213.48061696939808L213.33333333333331,213.48061696939808L213.33333333333331,213.80674502068433L426.66666666666663,213.80674502068433L426.66666666666663,213.83041560505188L213.33333333333331,213.83041560505188L213.33333333333331,214.45549437001722L426.66666666666663,214.45549437001722L426.66666666666663,214.51160242185142L213.33333333333331,214.51160242185142L213.33333333333331,215.5250541081066L426.66666666666663,215.5250541081066L426.66666666666663,215.63464014684527L213.33333333333331,215.63464014684527L213.33333333333331,217.12062683214157L426.66666666666663,217.12062683214157L426.66666666666663,217.30999150708197L213.33333333333331,217.30999150708197L213.33333333333331,219.34741513931124L426.66666666666663,219.34741513931124L426.66666666666663,219.64811922961013L213.33333333333331,219.64811922961013L213.33333333333331,222.31062162680473L426.66666666666663,222.31062162680473L426.66666666666663,222.75948604147828L213.33333333333331,222.75948604147828L213.33333333333331,226.11544889181118L426.66666666666663,226.11544889181118L426.66666666666663,226.75455466973506L213.33333333333331,226.75455466973506L213.33333333333331,230.86709953151967L426.66666666666663,230.86709953151967L426.66666666666663,231.74378784142897L213.33333333333331,231.74378784142897L213.33333333333331,236.67077614311935L426.66666666666663,236.67077614311935L426.66666666666663,237.83764828360864L213.33333333333331,237.83764828360864L213.33333333333331,243.63168132379934L426.66666666666663,243.63168132379934L426.66666666666663,245.14659872332263L213.33333333333331,245.14659872332263L213.33333333333331,251.85501767074874L426.66666666666663,251.85501767074874L426.66666666666663,253.78110188761949L213.33333333333331,253.78110188761949L213.33333333333331,261.44598778115665L426.66666666666663,261.44598778115665L426.66666666666663,263.8516205035478L213.33333333333331,263.8516205035478L213.33333333333331,272.50979425221226L426.66666666666663,272.50979425221226L426.66666666666663,275.46861729815623L213.33333333333331,275.46861729815623L213.33333333333331,285.1516396811046L426.66666666666663,285.1516396811046L426.66666666666663,288.7425549984932L213.33333333333331,288.7425549984932L213.33333333333331,299.47672666502285L426.66666666666663,299.47672666502285L426.66666666666663,303.78389633160737L213.33333333333331,303.78389633160737L213.33333333333331,315.5902578011561L426.66666666666663,315.5902578011561L426.66666666666663,320.70310402454726L213.33333333333331,320.70310402454726L213.33333333333331,333.59743568669353L426.66666666666663,333.59743568669353L426.66666666666663,339.61064080436154L213.33333333333331,339.61064080436154L213.33333333333331,353.6034629188241L426.66666666666663,353.6034629188241L426.66666666666663,360.6169693980987L213.33333333333331,360.6169693980987L213.33333333333331,375.71354209473714L426.66666666666663,375.71354209473714L426.66666666666663,383.8325525328073L213.33333333333331,383.8325525328073L213.33333333333331,400.0328758116216L426.66666666666663,400.0328758116216L426.66666666666663,409.367852935536L213.33333333333331,409.367852935536" class="bgc"></path></g></svg>