<svg xmlns="http://www.w3.org/2000/svg" width="640" height="640" viewport-fill="#000" label="_shape #51"><defs><style type="text/css">text{ font-family: Freemono, Sans, Arial; fill: #555} 

.f-0 { fill: #000 }
.f-1 { fill: #101010 }
.f-2 { fill: #202020 }
.f-3 { fill: #303030 }
.f-4 { fill: #404040 }
.f-5 { fill: #505050 }
.f-6 { fill: #606060 }
.f-7 { fill: #707070 }
.f-8 { fill: #808080 }
.f-9 { fill: #909090 }
.f-10 { fill: #a0a0a0 }
.f-11 { fill: #b0b0b0 }
.f-12 { fill: #c0c0c0 }
.f-13 { fill: #d0d0d0 }
.f-14 { fill: #e0e0e0 }
.f-15 { fill: #f0f0f0 }
.bgc { fill: #101010 }
.fore { fill: #404040 }</style></defs><g fill-rule="evenodd"><path d=" M 106.66666666666666, 320 a 213.33333333333334,213.33333333333334 0 1,0 426.6666666666667,0 a 213.33333333333334,213.33333333333334 0 1,0 -426.6666666666667,0" class="fore"></path><path d="M106.66666666666666,106.66666666666666L533.3333333333334,106.66666666666666L533.3333333333334,106.66666666666666L106.66666666666666,106.66666666666666L106.66666666666666,106.70173419906303L533.3333333333334,106.70173419906303L533.3333333333334,106.70348757568284L106.66666666666666,106.70348757568284L106.66666666666666,106.94720692583763L533.3333333333334,106.94720692583763L533.3333333333334,106.96123393879618L106.66666666666666,106.96123393879618L106.66666666666666,107.61349004136872L533.3333333333334,107.61349004136872L533.3333333333334,107.66083121010382L106.66666666666666,107.66083121010382L106.66666666666666,108.91098874003451L533.3333333333334,108.91098874003451L533.3333333333334,109.0232048437029L106.66666666666666,109.0232048437029L106.66666666666666,111.05010821621325L533.3333333333334,111.05010821621325L533.3333333333334,111.26928029369057L106.66666666666666,111.26928029369057L106.66666666666666,114.24125366428316L533.3333333333334,114.24125366428316L533.3333333333334,114.61998301416399L106.66666666666666,114.61998301416399L106.66666666666666,118.69483027862249L533.3333333333334,118.69483027862249L533.3333333333334,119.29623845922029L106.66666666666666,119.29623845922029L106.66666666666666,124.62124325360948L533.3333333333334,124.62124325360948L533.3333333333334,125.51897208295662L106.66666666666666,125.51897208295662L106.66666666666666,132.23089778362237L533.3333333333334,132.23089778362237L533.3333333333334,133.50910933947014L106.66666666666666,133.50910933947014L106.66666666666666,141.73419906303937L533.3333333333334,141.73419906303937L533.3333333333334,143.487575682858L106.66666666666666,143.487575682858L106.66666666666666,153.3415522862387L533.3333333333334,153.3415522862387L533.3333333333334,155.67529656721734L106.66666666666666,155.67529656721734L106.66666666666666,167.26336264759868L533.3333333333334,167.26336264759868L533.3333333333334,170.2931974466453L106.66666666666666,170.2931974466453L106.66666666666666,183.71003534149747L533.3333333333334,183.71003534149747L533.3333333333334,187.56220377523903L106.66666666666666,187.56220377523903L106.66666666666666,202.89197556231335L533.3333333333334,202.89197556231335L533.3333333333334,207.7032410070957L106.66666666666666,207.7032410070957L106.66666666666666,225.01958850442452L533.3333333333334,225.01958850442452L533.3333333333334,230.93723459631244L106.66666666666666,230.93723459631244L106.66666666666666,250.30327936220925L533.3333333333334,250.30327936220925L533.3333333333334,257.48510999698635L106.66666666666666,257.48510999698635L106.66666666666666,278.95345333004576L533.3333333333334,278.95345333004576L533.3333333333334,287.56779266321473L106.66666666666666,287.56779266321473L106.66666666666666,311.18051560231225L533.3333333333334,311.18051560231225L533.3333333333334,321.4062080490945L106.66666666666666,321.4062080490945L106.66666666666666,347.19487137338706L533.3333333333334,347.19487137338706L533.3333333333334,359.2212816087231L106.66666666666666,359.2212816087231L106.66666666666666,387.2069258376483L533.3333333333334,387.2069258376483L533.3333333333334,401.23393879619744L106.66666666666666,401.23393879619744L106.66666666666666,431.4270841894743L533.3333333333334,431.4270841894743L533.3333333333334,447.6651050656146L106.66666666666666,447.6651050656146L106.66666666666666,480.06575162324316L533.3333333333334,480.06575162324316L533.3333333333334,498.735705871072L106.66666666666666,498.735705871072" class="bgc"></path></g></svg>