<svg xmlns="http://www.w3.org/2000/svg" width="640" height="640" viewport-fill="#000"><defs><style type="text/css">text{ font-family: Freemono, Sans, Arial; fill: #555} 
</style></defs><rect x="0" y="0" width="640" height="640" fill="#101010" stroke="#707070"></rect><g fill-rule="evenodd"><path d="M0,96L96,5.878304635907295e-15L1.175660927181459e-14,-96L-96,-1.7634913907721887e-14Z" transform="translate(160,192)" fill="#202020"></path><path d="M0,96L96,5.878304635907295e-15L1.175660927181459e-14,-96L-96,-1.7634913907721887e-14Z" transform="translate(160,320)" fill="#303030"></path><path d="M0,96L96,5.878304635907295e-15L1.175660927181459e-14,-96L-96,-1.7634913907721887e-14Z" transform="translate(160,448)" fill="#404040"></path><path d="M0,96L96,5.878304635907295e-15L1.175660927181459e-14,-96L-96,-1.7634913907721887e-14Z" transform="translate(266.6666666666667,192)" fill="#303030"></path><path d="M0,96L96,5.878304635907295e-15L1.175660927181459e-14,-96L-96,-1.7634913907721887e-14Z" transform="translate(266.6666666666667,320)" fill="#404040"></path><path d="M0,96L96,5.878304635907295e-15L1.175660927181459e-14,-96L-96,-1.7634913907721887e-14Z" transform="translate(266.6666666666667,448)" fill="#505050"></path><path d="M0,96L96,5.878304635907295e-15L1.175660927181459e-14,-96L-96,-1.7634913907721887e-14Z" transform="translate(373.33333333333337,192)" fill="#404040"></path><path d="M0,96L96,5.878304635907295e-15L1.175660927181459e-14,-96L-96,-1.7634913907721887e-14Z" transform="translate(373.33333333333337,320)" fill="#505050"></path><path d="M0,96L96,5.878304635907295e-15L1.175660927181459e-14,-96L-96,-1.7634913907721887e-14Z" transform="translate(373.33333333333337,448)" fill="#606060"></path><path d="M0,96L96,5.878304635907295e-15L1.175660927181459e-14,-96L-96,-1.7634913907721887e-14Z" transform="translate(480,192)" fill="#505050"></path><path d="M0,96L96,5.878304635907295e-15L1.175660927181459e-14,-96L-96,-1.7634913907721887e-14Z" transform="translate(480,320)" fill="#606060"></path><path d="M0,96L96,5.878304635907295e-15L1.175660927181459e-14,-96L-96,-1.7634913907721887e-14Z" transform="translate(480,448)" fill="#707070"></path></g><text x="320" y="632" text-anchor="middle" fill="#606060">_shape #52 filtz #1</text></svg>