<svg xmlns="http://www.w3.org/2000/svg" width="640" height="640" viewport-fill="#000" label="_shape #55 filtz #5"><defs><style type="text/css">
.f-0 { fill: #000;  }
.f-1 { fill: #101010;  }
.f-2 { fill: #202020;  }
.f-3 { fill: #303030;  }
.f-4 { fill: #404040;  }
.f-5 { fill: #505050;  }
.f-6 { fill: #606060;  }
.f-7 { fill: #707070;  }
.f-8 { fill: #808080;  }
.f-9 { fill: #909090;  }
.f-10 { fill: #a0a0a0;  }
.f-11 { fill: #b0b0b0;  }
.f-12 { fill: #c0c0c0;  }
.f-13 { fill: #d0d0d0;  }
.f-14 { fill: #e0e0e0;  }
.f-15 { fill: #f0f0f0;  }
.bgc { fill: #101010;  }
.fore { fill: #404040; stroke-color: #404040; sroke-width: 0;  }
text{ font-family: Freemono, Sans, Arial; } 
</style></defs><g fill-rule="evenodd"><path d="M-40,-48L40,-48L40,48L-40,48Z" transform="translate(160,192)" class="f-2"></path><path d="M-40,-48L40,-48L40,48L-40,48Z" transform="translate(160,320)" class="f-3"></path><path d="M-40,-48L40,-48L40,48L-40,48Z" transform="translate(160,448)" class="f-4"></path><path d="M-40,-48L40,-48L40,48L-40,48Z" transform="translate(266.6666666666667,192)" class="f-3"></path><path d="M-40,-48L40,-48L40,48L-40,48Z" transform="translate(266.6666666666667,320)" class="f-4"></path><path d="M-40,-48L40,-48L40,48L-40,48Z" transform="translate(266.6666666666667,448)" class="f-5"></path><path d="M-40,-48L40,-48L40,48L-40,48Z" transform="translate(373.33333333333337,192)" class="f-4"></path><path d="M-40,-48L40,-48L40,48L-40,48Z" transform="translate(373.33333333333337,320)" class="f-5"></path><path d="M-40,-48L40,-48L40,48L-40,48Z" transform="translate(373.33333333333337,448)" class="f-6"></path><path d="M-40,-48L40,-48L40,48L-40,48Z" transform="translate(480,192)" class="f-5"></path><path d="M-40,-48L40,-48L40,48L-40,48Z" transform="translate(480,320)" class="f-6"></path><path d="M-40,-48L40,-48L40,48L-40,48Z" transform="translate(480,448)" class="f-7"></path></g></svg>