<svg xmlns="http://www.w3.org/2000/svg" width="640" height="640" viewport-fill="#000"><defs><style type="text/css">text{ font-family: Freemono, Sans, Arial; fill: #555} 
</style></defs><rect x="0" y="0" width="640" height="640" fill="#101010" stroke="#707070"></rect><g fill-rule="evenodd"><g transform="translate(128,160)"><path d="M-48,-60L48,-60L48,60L-48,60Z" fill="#404040"></path><circle cx="-32" cy="-40" r="6.4" fill="#101010"></circle></g><g transform="translate(128,320)"><path d="M-48,-60L48,-60L48,60L-48,60Z" fill="#404040"></path><circle cx="-32" cy="0" r="6.4" fill="#101010"></circle></g><g transform="translate(128,480)"><path d="M-48,-60L48,-60L48,60L-48,60Z" fill="#404040"></path><circle cx="-32" cy="40" r="6.4" fill="#101010"></circle></g><g transform="translate(256,160)"><path d="M-48,-60L48,-60L48,60L-48,60Z" fill="#404040"></path><circle cx="-10.666666666666671" cy="-40" r="6.4" fill="#101010"></circle></g><g transform="translate(256,320)"><path d="M-48,-60L48,-60L48,60L-48,60Z" fill="#404040"></path><circle cx="-10.666666666666671" cy="0" r="6.4" fill="#101010"></circle></g><g transform="translate(256,480)"><path d="M-48,-60L48,-60L48,60L-48,60Z" fill="#404040"></path><circle cx="-10.666666666666671" cy="40" r="6.4" fill="#101010"></circle></g><g transform="translate(384,160)"><path d="M-48,-60L48,-60L48,60L-48,60Z" fill="#404040"></path><circle cx="10.666666666666657" cy="-40" r="6.4" fill="#101010"></circle></g><g transform="translate(384,320)"><path d="M-48,-60L48,-60L48,60L-48,60Z" fill="#404040"></path><circle cx="10.666666666666657" cy="0" r="6.4" fill="#101010"></circle></g><g transform="translate(384,480)"><path d="M-48,-60L48,-60L48,60L-48,60Z" fill="#404040"></path><circle cx="10.666666666666657" cy="40" r="6.4" fill="#101010"></circle></g><g transform="translate(512,160)"><path d="M-48,-60L48,-60L48,60L-48,60Z" fill="#404040"></path><circle cx="32" cy="-40" r="6.4" fill="#101010"></circle></g><g transform="translate(512,320)"><path d="M-48,-60L48,-60L48,60L-48,60Z" fill="#404040"></path><circle cx="32" cy="0" r="6.4" fill="#101010"></circle></g><g transform="translate(512,480)"><path d="M-48,-60L48,-60L48,60L-48,60Z" fill="#404040"></path><circle cx="32" cy="40" r="6.4" fill="#101010"></circle></g></g><text x="320" y="632" text-anchor="middle" fill="#606060">_shape #56 filtz #6</text></svg>