<svg xmlns="http://www.w3.org/2000/svg" width="640" height="640" viewport-fill="#000" label="_shape #56 filtz #6"><defs><style type="text/css">text{ font-family: Freemono, Sans, Arial; fill: #555} 

.f-0 { fill: #000 }
.f-1 { fill: #101010 }
.f-2 { fill: #202020 }
.f-3 { fill: #303030 }
.f-4 { fill: #404040 }
.f-5 { fill: #505050 }
.f-6 { fill: #606060 }
.f-7 { fill: #707070 }
.f-8 { fill: #808080 }
.f-9 { fill: #909090 }
.f-10 { fill: #a0a0a0 }
.f-11 { fill: #b0b0b0 }
.f-12 { fill: #c0c0c0 }
.f-13 { fill: #d0d0d0 }
.f-14 { fill: #e0e0e0 }
.f-15 { fill: #f0f0f0 }
.bgc { fill: #101010, bacgkround-color: #101010 }
.fore { fill: #404040 }</style></defs><g fill-rule="evenodd"><g transform="translate(128,160)"><path d="M-48,-60L48,-60L48,60L-48,60Z" class="fore"></path><circle cx="-32" cy="-40" r="6.4" class="bgc"></circle></g><g transform="translate(128,320)"><path d="M-48,-60L48,-60L48,60L-48,60Z" class="fore"></path><circle cx="-32" cy="0" r="6.4" class="bgc"></circle></g><g transform="translate(128,480)"><path d="M-48,-60L48,-60L48,60L-48,60Z" class="fore"></path><circle cx="-32" cy="40" r="6.4" class="bgc"></circle></g><g transform="translate(256,160)"><path d="M-48,-60L48,-60L48,60L-48,60Z" class="fore"></path><circle cx="-10.666666666666671" cy="-40" r="6.4" class="bgc"></circle></g><g transform="translate(256,320)"><path d="M-48,-60L48,-60L48,60L-48,60Z" class="fore"></path><circle cx="-10.666666666666671" cy="0" r="6.4" class="bgc"></circle></g><g transform="translate(256,480)"><path d="M-48,-60L48,-60L48,60L-48,60Z" class="fore"></path><circle cx="-10.666666666666671" cy="40" r="6.4" class="bgc"></circle></g><g transform="translate(384,160)"><path d="M-48,-60L48,-60L48,60L-48,60Z" class="fore"></path><circle cx="10.666666666666657" cy="-40" r="6.4" class="bgc"></circle></g><g transform="translate(384,320)"><path d="M-48,-60L48,-60L48,60L-48,60Z" class="fore"></path><circle cx="10.666666666666657" cy="0" r="6.4" class="bgc"></circle></g><g transform="translate(384,480)"><path d="M-48,-60L48,-60L48,60L-48,60Z" class="fore"></path><circle cx="10.666666666666657" cy="40" r="6.4" class="bgc"></circle></g><g transform="translate(512,160)"><path d="M-48,-60L48,-60L48,60L-48,60Z" class="fore"></path><circle cx="32" cy="-40" r="6.4" class="bgc"></circle></g><g transform="translate(512,320)"><path d="M-48,-60L48,-60L48,60L-48,60Z" class="fore"></path><circle cx="32" cy="0" r="6.4" class="bgc"></circle></g><g transform="translate(512,480)"><path d="M-48,-60L48,-60L48,60L-48,60Z" class="fore"></path><circle cx="32" cy="40" r="6.4" class="bgc"></circle></g></g></svg>