<svg xmlns="http://www.w3.org/2000/svg" width="640" height="640" viewport-fill="#000"><defs><style type="text/css">text{ font-family: Freemono, Sans, Arial; fill: #555} 
</style></defs><rect x="0" y="0" width="640" height="640" fill="#101010" stroke="#707070"></rect><g fill-rule="evenodd"><g transform="translate(106.66666666666667,160)"><path d="M-32,-48L32,-48L32,48L-32,48Z" fill="#404040"></path><circle cx="-30.476190476190474" cy="-48" r="8.88888888888889" fill="#101010"></circle><circle cx="30.476190476190474" cy="48" r="5.333333333333334" fill="#303030"></circle></g><g transform="translate(106.66666666666667,320)"><path d="M-32,-48L32,-48L32,48L-32,48Z" fill="#404040"></path><circle cx="-30.476190476190474" cy="-32" r="8.88888888888889" fill="#101010"></circle><circle cx="30.476190476190474" cy="32" r="5.333333333333334" fill="#303030"></circle></g><g transform="translate(106.66666666666667,480)"><path d="M-32,-48L32,-48L32,48L-32,48Z" fill="#404040"></path><circle cx="-30.476190476190474" cy="-16" r="8.88888888888889" fill="#101010"></circle><circle cx="30.476190476190474" cy="16" r="5.333333333333334" fill="#303030"></circle></g><g transform="translate(213.33333333333334,160)"><path d="M-32,-48L32,-48L32,48L-32,48Z" fill="#404040"></path><circle cx="-15.238095238095237" cy="-48" r="8.88888888888889" fill="#101010"></circle><circle cx="15.238095238095237" cy="48" r="5.333333333333334" fill="#303030"></circle></g><g transform="translate(213.33333333333334,320)"><path d="M-32,-48L32,-48L32,48L-32,48Z" fill="#404040"></path><circle cx="-15.238095238095237" cy="-32" r="8.88888888888889" fill="#101010"></circle><circle cx="15.238095238095237" cy="32" r="5.333333333333334" fill="#303030"></circle></g><g transform="translate(213.33333333333334,480)"><path d="M-32,-48L32,-48L32,48L-32,48Z" fill="#404040"></path><circle cx="-15.238095238095237" cy="-16" r="8.88888888888889" fill="#101010"></circle><circle cx="15.238095238095237" cy="16" r="5.333333333333334" fill="#303030"></circle></g><g transform="translate(320,160)"><path d="M-32,-48L32,-48L32,48L-32,48Z" fill="#404040"></path><circle cx="0" cy="-48" r="8.88888888888889" fill="#101010"></circle><circle cx="0" cy="48" r="5.333333333333334" fill="#303030"></circle></g><g transform="translate(320,320)"><path d="M-32,-48L32,-48L32,48L-32,48Z" fill="#404040"></path><circle cx="0" cy="-32" r="8.88888888888889" fill="#101010"></circle><circle cx="0" cy="32" r="5.333333333333334" fill="#303030"></circle></g><g transform="translate(320,480)"><path d="M-32,-48L32,-48L32,48L-32,48Z" fill="#404040"></path><circle cx="0" cy="-16" r="8.88888888888889" fill="#101010"></circle><circle cx="0" cy="16" r="5.333333333333334" fill="#303030"></circle></g><g transform="translate(426.6666666666667,160)"><path d="M-32,-48L32,-48L32,48L-32,48Z" fill="#404040"></path><circle cx="15.23809523809524" cy="-48" r="8.88888888888889" fill="#101010"></circle><circle cx="-15.23809523809524" cy="48" r="5.333333333333334" fill="#303030"></circle></g><g transform="translate(426.6666666666667,320)"><path d="M-32,-48L32,-48L32,48L-32,48Z" fill="#404040"></path><circle cx="15.23809523809524" cy="-32" r="8.88888888888889" fill="#101010"></circle><circle cx="-15.23809523809524" cy="32" r="5.333333333333334" fill="#303030"></circle></g><g transform="translate(426.6666666666667,480)"><path d="M-32,-48L32,-48L32,48L-32,48Z" fill="#404040"></path><circle cx="15.23809523809524" cy="-16" r="8.88888888888889" fill="#101010"></circle><circle cx="-15.23809523809524" cy="16" r="5.333333333333334" fill="#303030"></circle></g><g transform="translate(533.3333333333334,160)"><path d="M-32,-48L32,-48L32,48L-32,48Z" fill="#404040"></path><circle cx="30.476190476190474" cy="-48" r="8.88888888888889" fill="#101010"></circle><circle cx="-30.476190476190474" cy="48" r="5.333333333333334" fill="#303030"></circle></g><g transform="translate(533.3333333333334,320)"><path d="M-32,-48L32,-48L32,48L-32,48Z" fill="#404040"></path><circle cx="30.476190476190474" cy="-32" r="8.88888888888889" fill="#101010"></circle><circle cx="-30.476190476190474" cy="32" r="5.333333333333334" fill="#303030"></circle></g><g transform="translate(533.3333333333334,480)"><path d="M-32,-48L32,-48L32,48L-32,48Z" fill="#404040"></path><circle cx="30.476190476190474" cy="-16" r="8.88888888888889" fill="#101010"></circle><circle cx="-30.476190476190474" cy="16" r="5.333333333333334" fill="#303030"></circle></g></g><text x="320" y="632" text-anchor="middle" fill="#606060">_shape #57 filtz #7</text></svg>