<svg xmlns="http://www.w3.org/2000/svg" width="640" height="640" viewport-fill="#000" label="_shape #59 gradient #1"><defs><style type="text/css">text{ font-family: Freemono, Sans, Arial; fill: #555} 

.f-0 { fill: #000 }
.f-1 { fill: #101010 }
.f-2 { fill: #202020 }
.f-3 { fill: #303030 }
.f-4 { fill: #404040 }
.f-5 { fill: #505050 }
.f-6 { fill: #606060 }
.f-7 { fill: #707070 }
.f-8 { fill: #808080 }
.f-9 { fill: #909090 }
.f-10 { fill: #a0a0a0 }
.f-11 { fill: #b0b0b0 }
.f-12 { fill: #c0c0c0 }
.f-13 { fill: #d0d0d0 }
.f-14 { fill: #e0e0e0 }
.f-15 { fill: #f0f0f0 }
.bgc { fill: #101010, bacgkround-color: #101010 }
.fore { fill: #404040 }</style></defs><g fill-rule="evenodd"><path d="M-44.444444444444436,-88.88888888888887L44.444444444444436,-88.88888888888887L44.444444444444436,88.88888888888887L-44.444444444444436,88.88888888888887Z" transform="translate(120,240)" fill="#202020"></path><path d="M-44.444444444444436,-88.88888888888887L44.444444444444436,-88.88888888888887L44.444444444444436,88.88888888888887L-44.444444444444436,88.88888888888887Z" transform="translate(120,400)" fill="#303030"></path><path d="M-44.444444444444436,-88.88888888888887L44.444444444444436,-88.88888888888887L44.444444444444436,88.88888888888887L-44.444444444444436,88.88888888888887Z" transform="translate(200,240)" fill="#303030"></path><path d="M-44.444444444444436,-88.88888888888887L44.444444444444436,-88.88888888888887L44.444444444444436,88.88888888888887L-44.444444444444436,88.88888888888887Z" transform="translate(200,400)" fill="#404040"></path><path d="M-44.444444444444436,-88.88888888888887L44.444444444444436,-88.88888888888887L44.444444444444436,88.88888888888887L-44.444444444444436,88.88888888888887Z" transform="translate(280,240)" fill="#404040"></path><path d="M-44.444444444444436,-88.88888888888887L44.444444444444436,-88.88888888888887L44.444444444444436,88.88888888888887L-44.444444444444436,88.88888888888887Z" transform="translate(280,400)" fill="#505050"></path><path d="M-44.444444444444436,-88.88888888888887L44.444444444444436,-88.88888888888887L44.444444444444436,88.88888888888887L-44.444444444444436,88.88888888888887Z" transform="translate(360,240)" fill="#505050"></path><path d="M-44.444444444444436,-88.88888888888887L44.444444444444436,-88.88888888888887L44.444444444444436,88.88888888888887L-44.444444444444436,88.88888888888887Z" transform="translate(360,400)" fill="#606060"></path><path d="M-44.444444444444436,-88.88888888888887L44.444444444444436,-88.88888888888887L44.444444444444436,88.88888888888887L-44.444444444444436,88.88888888888887Z" transform="translate(440,240)" fill="#606060"></path><path d="M-44.444444444444436,-88.88888888888887L44.444444444444436,-88.88888888888887L44.444444444444436,88.88888888888887L-44.444444444444436,88.88888888888887Z" transform="translate(440,400)" fill="#707070"></path><path d="M-44.444444444444436,-88.88888888888887L44.444444444444436,-88.88888888888887L44.444444444444436,88.88888888888887L-44.444444444444436,88.88888888888887Z" transform="translate(520,240)" fill="#707070"></path><path d="M-44.444444444444436,-88.88888888888887L44.444444444444436,-88.88888888888887L44.444444444444436,88.88888888888887L-44.444444444444436,88.88888888888887Z" transform="translate(520,400)" fill="#808080"></path></g></svg>