<svg xmlns="http://www.w3.org/2000/svg" width="640" height="640" viewport-fill="#000"><defs><style type="text/css">text{ font-family: Freemono, Sans, Arial; fill: #555} 
</style></defs><rect x="0" y="0" width="640" height="640" fill="#101010" stroke="#707070"></rect><g fill-rule="evenodd"><path d="M-44.444444444444436,-88.88888888888887L44.444444444444436,-88.88888888888887L44.444444444444436,88.88888888888887L-44.444444444444436,88.88888888888887Z" transform="translate(120,240)" fill="#202020"></path><path d="M-44.444444444444436,-88.88888888888887L44.444444444444436,-88.88888888888887L44.444444444444436,88.88888888888887L-44.444444444444436,88.88888888888887Z" transform="translate(120,400)" fill="#303030"></path><path d="M-44.444444444444436,-88.88888888888887L44.444444444444436,-88.88888888888887L44.444444444444436,88.88888888888887L-44.444444444444436,88.88888888888887Z" transform="translate(200,240)" fill="#303030"></path><path d="M-44.444444444444436,-88.88888888888887L44.444444444444436,-88.88888888888887L44.444444444444436,88.88888888888887L-44.444444444444436,88.88888888888887Z" transform="translate(200,400)" fill="#404040"></path><path d="M-44.444444444444436,-88.88888888888887L44.444444444444436,-88.88888888888887L44.444444444444436,88.88888888888887L-44.444444444444436,88.88888888888887Z" transform="translate(280,240)" fill="#404040"></path><path d="M-44.444444444444436,-88.88888888888887L44.444444444444436,-88.88888888888887L44.444444444444436,88.88888888888887L-44.444444444444436,88.88888888888887Z" transform="translate(280,400)" fill="#505050"></path><path d="M-44.444444444444436,-88.88888888888887L44.444444444444436,-88.88888888888887L44.444444444444436,88.88888888888887L-44.444444444444436,88.88888888888887Z" transform="translate(360,240)" fill="#505050"></path><path d="M-44.444444444444436,-88.88888888888887L44.444444444444436,-88.88888888888887L44.444444444444436,88.88888888888887L-44.444444444444436,88.88888888888887Z" transform="translate(360,400)" fill="#606060"></path><path d="M-44.444444444444436,-88.88888888888887L44.444444444444436,-88.88888888888887L44.444444444444436,88.88888888888887L-44.444444444444436,88.88888888888887Z" transform="translate(440,240)" fill="#606060"></path><path d="M-44.444444444444436,-88.88888888888887L44.444444444444436,-88.88888888888887L44.444444444444436,88.88888888888887L-44.444444444444436,88.88888888888887Z" transform="translate(440,400)" fill="#707070"></path><path d="M-44.444444444444436,-88.88888888888887L44.444444444444436,-88.88888888888887L44.444444444444436,88.88888888888887L-44.444444444444436,88.88888888888887Z" transform="translate(520,240)" fill="#707070"></path><path d="M-44.444444444444436,-88.88888888888887L44.444444444444436,-88.88888888888887L44.444444444444436,88.88888888888887L-44.444444444444436,88.88888888888887Z" transform="translate(520,400)" fill="#808080"></path></g><text x="320" y="632" text-anchor="middle" fill="#606060">_shape #59 gradient #1</text></svg>