<svg xmlns="http://www.w3.org/2000/svg" width="640" height="640" viewport-fill="#000" label="_shape #62 seed #2"><defs><style type="text/css">
.f-0 { fill: #000 }
.f-1 { fill: #101010 }
.f-2 { fill: #202020 }
.f-3 { fill: #303030 }
.f-4 { fill: #404040 }
.f-5 { fill: #505050 }
.f-6 { fill: #606060 }
.f-7 { fill: #707070 }
.f-8 { fill: #808080 }
.f-9 { fill: #909090 }
.f-10 { fill: #a0a0a0 }
.f-11 { fill: #b0b0b0 }
.f-12 { fill: #c0c0c0 }
.f-13 { fill: #d0d0d0 }
.f-14 { fill: #e0e0e0 }
.f-15 { fill: #f0f0f0 }
.bgc { fill: #101010 }
.fore { fill: #404040 }
text{ font-family: Freemono, Sans, Arial; } 
</style></defs><g fill-rule="evenodd"><path class="fore" d="M1.6172792530986677,0L14.59071194006089,100L15.496632308493224,100L30.574298751085983,0L34.606475342622815,0L15.757760662196763,100L33.21355426764033,100L37.47961964220912,0L49.41521045152826,0L38.70507879241409,100L46.43680255587175,100L52.52378474931535,0L64.90952955021497,0L79.4513204790001,100L87.28772149481027,100L71.48468330415318,0L73.0629013041684,0L89.76979160432255,100L90.83471639423695,100L99.44489371557154,0Z" transform="translate(10,10)"></path><path class="fore" d="M9.715656885954335,0L9.25022116727399,100L43.59891162687283,100L10.893761303939932,0L12.526921385005707,0L51.088073453969216,100L56.31820918152255,100L22.072121433720426,0L23.81635161475523,0L69.73337990780192,100L70.81354281399885,100L24.880245600710722,0L29.00718441243617,0L75.29346098184591,100L76.3077536405272,100L39.46620902115248,0L81.17810685122485,0L76.6137145878781,100L78.38321619416104,100L84.2763827905233,0Z" transform="translate(138,10)"></path><path class="fore" d="M3.0081257645159796,0L11.471353339678643,100L12.67169567505193,100L32.12183262420369,0L32.344716442352315,0L16.158107383311123,100L32.571150616663765,100L45.77987593134314,0L49.800853703151276,0L45.706504928192814,100L51.782304718466754,100L52.585708581493606,0L67.11054503888339,0L55.41468465406144,100L64.95381247072264,100L68.95770821090527,0L82.31834791410716,0L74.58565673911525,100L96.7736702454044,100L84.82770271581298,0Z" transform="translate(266,10)"></path><path class="fore" d="M23.0769626562093,0L9.221778445042917,100L18.907109654165648,100L41.44695384288079,0L55.90477510768892,0L37.19178414811231,100L46.18633150435866,100L60.71166800765692,0L69.44196712713831,0L47.78283028263337,100L50.59699469984725,100L73.67191321382305,0L77.5304074154908,0L55.16528592544826,100L71.5275652367301,100L91.6216004325322,0L96.5946244559892,0L75.45991100364012,100L85.4579335929451,100L99.7690373012521,0Z" transform="translate(394,10)"></path><path class="fore" d="M19.80257055233138,0L12.409345747961321,100L13.161730775175096,100L24.436258730649335,0L35.79116603291288,0L19.800961742336163,100L37.11486924705784,100L47.06276296150484,0L47.50231227278603,0L39.84611627902713,100L42.58669327780824,100L50.115973359000655,0L65.40622303250983,0L57.86224344551998,100L87.98540207576653,100L67.10913366333669,0L74.46209753739618,0L95.82402581542082,100L98.85171693384225,100L99.01715014739723,0Z" transform="translate(522,10)"></path><path class="fore" d="M3.2830585148762568,0L5.65954243836692,100L8.148345706354126,100L26.524830297706004,0L54.791190888290274,0L12.30574674209706,100L21.055196875359915,100L56.11500845349866,0L70.46210558017053,0L33.42064132665545,100L49.93325871488074,100L71.62786746328158,0L73.31168132072669,0L52.76061592628602,100L69.73527579088356,100L82.41971199903693,0L94.55628603576534,0L82.4382800559393,100L90.37495877665492,100L97.19625292190224,0Z" transform="translate(10,138)"></path><path class="fore" d="M5.331880678854222,0L5.7985370329161645,100L6.0257207839122255,100L18.035181101228172,0L38.14208971371654,0L12.982923962228114,100L25.450689958643746,100L45.92432050943672,0L58.96680856851903,0L26.824250344124373,100L37.5096426787221,100L63.48204896517665,0L66.48148517844838,0L53.15867827204611,100L70.44484694748057,100L87.01528317154646,0L90.19744435002372,0L79.23144885762677,100L93.24892026195481,100L99.54590577574965,0Z" transform="translate(138,138)"></path><path class="fore" d="M1.8979537283844883,0L11.799981998292223,100L17.386225613573817,100L2.912510172288284,0L35.03346904230254,0L22.1246904686864,100L43.31500351147387,100L37.28768075351962,0L37.39662060697829,0L54.01307756394728,100L54.42266660308389,100L40.016532844687845,0L42.10090514797126,0L58.85622979825859,100L60.233270563836015,100L55.929001395562594,0L58.53022229901903,0L66.21534467487706,100L82.78492522969798,100L97.93410233878387,0Z" transform="translate(266,138)"></path><path class="fore" d="M2.5298954342382003,0L0.9990467054734846,100L8.407450451562045,100L23.99314226193661,0L24.601697069042544,0L11.41469710332105,100L16.078918894371643,100L41.813599216170886,0L64.08383054112176,0L27.75067139654969,100L31.99640460732286,100L70.69607724045882,0L80.2713412924247,0L74.71589526829139,100L89.81547279647192,100L81.6411589519762,0L82.56251178048399,0L94.983323421648,100L95.70133017566074,100L84.44370169924305,0Z" transform="translate(394,138)"></path><path class="fore" d="M7.371731977331105,0L6.488682177516518,100L22.774850961453023,100L15.728230748220687,0L30.984278859931617,0L23.667162919990233,100L32.05438774582183,100L47.05841320568307,0L54.95775464303316,0L36.31676242487402,100L47.691711242171245,100L61.25077562836489,0L76.99754090101743,0L63.718989454929186,100L67.07336340971682,100L80.19463065191361,0L83.83950171586896,0L87.38411241103505,100L92.14814736484357,100L92.85935700614255,0Z" transform="translate(522,138)"></path><path class="fore" d="M12.834963256252182,0L5.121628817121117,100L7.518962174000918,100L29.820429027180058,0L37.20073209184784,0L14.912977737799638,100L26.853330815843456,100L39.08072107484337,0L45.23602888347027,0L41.21806508414072,100L47.414014308697276,100L47.59620879150278,0L52.52172871951492,0L70.12287537677724,100L84.99741953172311,100L61.781544639337184,0L74.34793228979292,0L85.2577969264203,100L86.2520841290519,100L95.62106812798788,0Z" transform="translate(10,266)"></path><path class="fore" d="M3.450499123074863,0L1.6644440910712515,100L18.48755070562036,100L16.604653561399292,0L31.391550322496204,0L27.64998632741457,100L32.1533530463956,100L33.18755111318905,0L41.156414490182655,0L48.91729587464656,100L65.07780087208536,100L42.795871719871194,0L63.314901800705684,0L72.59965412806851,100L77.21870473486831,100L73.79783042815855,0L77.07152497531678,0L78.07671203838466,100L79.77852213734931,100L83.13900686429552,0Z" transform="translate(138,266)"></path><path class="fore" d="M2.134730489389113,0L7.619378617352162,100L7.642005122281849,100L5.88645419414808,0L8.628596510931063,0L9.16334282580371,100L9.696257865781789,100L12.13215086153001,0L13.418080609628868,0L37.84603347907853,100L57.90195501761488,100L16.83659365745093,0L42.77537544305565,0L66.4020189913096,100L72.42019704793617,100L47.16870888419118,0L47.757176629698215,0L87.59726884871597,100L94.48287122739629,100L96.8508161704645,0Z" transform="translate(266,266)"></path><path class="fore" d="M25.796843073501996,0L5.078960718689976,100L15.221184504650086,100L34.481400094441,0L34.66931897874719,0L34.00964671690217,100L49.1449769304792,100L45.35774262568363,0L50.31095570643248,0L52.5761361283966,100L68.71116484630214,100L61.23108427605356,0L62.7107949065582,0L71.22082991195535,100L90.58637494979556,100L82.06568993667473,0L84.16511211780747,0L94.99433783731942,100L95.93727128125491,100L88.12395657376784,0Z" transform="translate(394,266)"></path><path class="fore" d="M8.905873999840416,0L22.23778668223546,100L41.017495941977295,100L18.274972407601233,0L43.685095720192635,0L53.026507627382976,100L54.163991818579525,100L53.053009900199896,0L53.74454170748444,0L60.43832071454587,100L68.13234451786934,100L79.96999518278355,0L82.33979765562609,0L76.38510108062965,100L80.41765779061828,100L87.76920454872499,0L96.34157218932683,0L93.82382206256024,100L99.04617807372922,100L98.45945206021996,0Z" transform="translate(522,266)"></path><path class="fore" d="M12.832011389029871,0L16.690021471071805,100L51.552510366476575,100L16.709756718959895,0L39.14019153848123,0L51.89435878447263,100L52.37389018964832,100L39.85427704500882,0L41.08947642151827,0L66.2190501656907,100L69.04587984263506,100L52.19962750039906,0L60.837364974597186,0L76.38896086634998,100L81.59009376012988,100L63.677641046213175,0L82.30447350182753,0L93.48528063926513,100L96.61878328106897,100L93.00000038500049,0Z" transform="translate(10,394)"></path><path class="fore" d="M1.303544745895366,0L0.6897630569289286,100L5.528495655705749,100L3.9803891662212223,0L14.117817510876057,0L12.343527488075088,100L19.719634756930404,100L17.399890287070306,0L50.9337542442816,0L37.350655957613,100L40.9564237883766,100L61.95282638524584,0L77.00497706471023,0L73.43516918260397,100L83.2415992728791,100L83.85306313339117,0L89.9206093686328,0L87.5397799593733,100L96.58992011950605,100L96.19042797556949,0Z" transform="translate(138,394)"></path><path class="fore" d="M0.23431333906219146,0L10.481195324829635,100L10.511273608761758,100L1.3124786709080318,0L6.44600388109924,0L25.063031858131303,100L39.71635467995033,100L28.996137498159435,0L30.055386645951703,0L40.5347761164159,100L45.09831552747215,100L51.35654277078907,0L68.97214609876721,0L60.94146613242246,100L62.95908820369729,100L74.97935862882953,0L81.81132574103967,0L79.94844320246965,100L82.55532362785671,100L85.02006685678819,0Z" transform="translate(266,394)"></path><path class="fore" d="M11.357441258441046,0L1.414993457022508,100L5.065811714329963,100L16.743703833626768,0L21.687977672673046,0L13.502599207732505,100L23.93418229855716,100L27.020066792331736,0L30.836744722960486,0L42.36801463494229,100L64.60000559834262,100L40.72345191779144,0L41.76274693851477,0L70.79667140662363,100L73.95541221757537,100L43.28125613397668,0L58.826885164933366,0L85.85508847513506,100L98.89708431283961,100L63.47940731494282,0Z" transform="translate(394,394)"></path><path class="fore" d="M0.6415193268471224,0L11.364026256489645,100L17.28169968985928,100L3.5667867189018487,0L6.549984665998092,0L30.594071181658745,100L51.16086669333377,100L12.297002914490934,0L19.932610988708987,0L58.62833477902799,100L63.925419869497944,100L25.469146627653018,0L53.81045109422548,0L70.57795016985176,100L77.36880898584174,100L75.52935504680826,0L85.58201113070712,0L78.811955707152,100L94.89312185236436,100L99.35370202932506,0Z" transform="translate(522,394)"></path><path class="fore" d="M3.284384054634357,0L8.042647015496723,100L25.32667154248574,100L43.95470105135979,0L45.81062828484036,0L26.273083968015783,100L51.26947329840038,100L51.56294570200781,0L54.87761502490138,0L60.1295853261836,100L70.42476826926901,100L54.923184144823075,0L77.40691168055929,0L72.02903965153067,100L73.0372193728226,100L81.82850168715103,0L86.47961614723613,0L92.22548977810916,100L99.03979139352602,100L87.06278621740944,0Z" transform="translate(10,522)"></path><path class="fore" d="M5.422123562486257,0L7.255960634942532,100L16.135944652088153,100L26.104782905961333,0L46.46127119598497,0L59.25123189552332,100L59.57069052489451,100L56.519721390596665,0L58.30138037610968,0L62.490939876950804,100L66.54511956997894,100L73.99083470755532,0L83.17825347623061,0L68.2754599861888,100L74.48986249701044,100L85.88765901899902,0L90.65798411806016,0L84.52218723985918,100L92.00599450827467,100L96.91063779139708,0Z" transform="translate(138,522)"></path><path class="fore" d="M9.811844330878737,0L3.236519730958561,100L13.471473761610406,100L34.18449538954397,0L42.74895028030717,0L19.73584844655226,100L21.278746983874424,100L48.424879178870796,0L51.54932803244353,0L24.19114426980874,100L52.897151982722036,100L69.25352566920884,0L72.52398557325236,0L67.97260811118292,100L83.88036546599065,100L74.21660698799386,0L80.91142359354761,0L84.52724760415352,100L97.62655786416683,100L86.6267366998232,0Z" transform="translate(266,522)"></path><path class="fore" d="M9.87124179535664,0L11.209338022409788,100L13.816166729978699,100L16.88126522638313,0L50.33077522429339,0L17.33998456932482,100L33.47664671440922,100L66.01723023119858,0L69.41098553153917,0L41.82106232209301,100L48.25002435269433,100L75.83156037938464,0L75.99928908190152,0L77.07601932115804,100L84.14516545931183,100L88.6602294496975,0L94.39424041121488,0L93.68107796850204,100L98.76475390222184,100L98.83761477237084,0Z" transform="translate(394,522)"></path><path class="fore" d="M9.90926272180536,0L4.295216402653313,100L11.49975495771421,100L14.039125447385567,0L26.965454628550102,0L12.769172953867796,100L13.738335045481728,100L28.3010343566581,0L39.990193948964226,0L36.55628122085976,100L46.979861336806735,100L48.24246020974881,0L49.64188207750927,0L64.01693680763131,100L73.35031512617572,100L50.99647875620398,0L64.86239727790752,0L84.93576676097344,100L89.81500739552239,100L81.98224582680987,0Z" transform="translate(522,522)"></path></g></svg>