<svg xmlns="http://www.w3.org/2000/svg" width="640" height="640" viewport-fill="#000" label="_shape #63 seed #3"><defs><style type="text/css">
.f-0 { fill: #000;  }
.f-1 { fill: #101010;  }
.f-2 { fill: #202020;  }
.f-3 { fill: #303030;  }
.f-4 { fill: #404040;  }
.f-5 { fill: #505050;  }
.f-6 { fill: #606060;  }
.f-7 { fill: #707070;  }
.f-8 { fill: #808080;  }
.f-9 { fill: #909090;  }
.f-10 { fill: #a0a0a0;  }
.f-11 { fill: #b0b0b0;  }
.f-12 { fill: #c0c0c0;  }
.f-13 { fill: #d0d0d0;  }
.f-14 { fill: #e0e0e0;  }
.f-15 { fill: #f0f0f0;  }
.bgc { fill: #101010;  }
.fore { fill: #404040; stroke: #404040;  }
text{ font-family: Freemono, Sans, Arial; } 
</style></defs><g fill-rule="evenodd"><path class="fore" d="M73.0629013041684,0L1.6172792530986677,100L34.606475342622815,100L64.90952955021497,0Z" transform="translate(10,10)"></path><path class="fore" d="M30.574298751085983,0L99.44489371557154,100L52.52378474931535,100L37.47961964220912,0Z" transform="translate(138,10)"></path><path class="fore" d="M49.41521045152826,0L90.83471639423695,100L14.59071194006089,100L71.48468330415318,0Z" transform="translate(266,10)"></path><path class="fore" d="M33.21355426764033,0L46.43680255587175,100L15.757760662196763,100L89.76979160432255,0Z" transform="translate(394,10)"></path><path class="fore" d="M87.28772149481027,0L15.496632308493224,100L79.4513204790001,100L38.70507879241409,0Z" transform="translate(522,10)"></path><path class="fore" d="M10.893761303939932,0L81.17810685122485,100L24.880245600710722,100L12.526921385005707,0L29.00718441243617,0L9.715656885954335,100LNaN,100LNaN,0Z" transform="translate(10,138)"></path><path class="fore" d="M84.2763827905233,0L39.46620902115248,100L70.81354281399885,100L23.81635161475523,0L22.072121433720426,0L43.59891162687283,100LNaN,100LNaN,0Z" transform="translate(138,138)"></path><path class="fore" d="M56.31820918152255,0L69.73337990780192,100L75.29346098184591,100L9.25022116727399,0L76.3077536405272,0L51.088073453969216,100LNaN,100LNaN,0Z" transform="translate(266,138)"></path><path class="fore" d="M76.6137145878781,0L68.95770821090527,100L49.800853703151276,100L78.38321619416104,0L3.0081257645159796,0L84.82770271581298,100LNaN,100LNaN,0Z" transform="translate(394,138)"></path><path class="fore" d="M82.31834791410716,0L67.11054503888339,100L32.344716442352315,100L32.12183262420369,0L45.77987593134314,0L52.585708581493606,100LNaN,100LNaN,0Z" transform="translate(522,138)"></path><path class="fore" d="M16.158107383311123,0L45.706504928192814,100L96.7736702454044,100L55.41468465406144,0L11.471353339678643,0L74.58565673911525,100L32.571150616663765,100L12.67169567505193,0Z" transform="translate(10,266)"></path><path class="fore" d="M51.782304718466754,0L69.44196712713831,100L23.0769626562093,100L64.95381247072264,0L91.6216004325322,0L77.5304074154908,100L73.67191321382305,100L41.44695384288079,0Z" transform="translate(138,266)"></path><path class="fore" d="M99.7690373012521,0L9.221778445042917,100L71.5275652367301,100L55.90477510768892,0L60.71166800765692,0L85.4579335929451,100L37.19178414811231,100L96.5946244559892,0Z" transform="translate(266,266)"></path><path class="fore" d="M47.78283028263337,0L46.18633150435866,100L50.59699469984725,100L75.45991100364012,0L55.16528592544826,0L35.79116603291288,100L67.10913366333669,100L18.907109654165648,0Z" transform="translate(394,266)"></path><path class="fore" d="M19.80257055233138,0L50.115973359000655,100L47.06276296150484,100L47.50231227278603,0L99.01715014739723,0L74.46209753739618,100L65.40622303250983,100L24.436258730649335,0Z" transform="translate(522,266)"></path><path class="fore" d="M19.800961742336163,0L95.82402581542082,100L87.98540207576653,100L98.85171693384225,0L57.86224344551998,0L13.161730775175096,100L42.58669327780824,100L37.11486924705784,0L12.409345747961321,0L39.84611627902713,100LNaN,100LNaN,0Z" transform="translate(10,394)"></path><path class="fore" d="M71.62786746328158,0L26.524830297706004,100L70.46210558017053,100L54.791190888290274,0L73.31168132072669,0L82.41971199903693,100L97.19625292190224,100L56.11500845349866,0L94.55628603576534,0L3.2830585148762568,100LNaN,100LNaN,0Z" transform="translate(138,394)"></path><path class="fore" d="M33.42064132665545,0L5.65954243836692,100L49.93325871488074,100L12.30574674209706,0L8.148345706354126,0L21.055196875359915,100L52.76061592628602,100L82.4382800559393,0L69.73527579088356,0L90.37495877665492,100LNaN,100LNaN,0Z" transform="translate(266,394)"></path><path class="fore" d="M38.14208971371654,0L58.96680856851903,100L99.54590577574965,100L87.01528317154646,0L45.92432050943672,0L63.48204896517665,100L90.19744435002372,100L5.331880678854222,0L18.035181101228172,0L66.48148517844838,100LNaN,100LNaN,0Z" transform="translate(394,394)"></path><path class="fore" d="M12.982923962228114,0L79.23144885762677,100L93.24892026195481,100L26.824250344124373,0L25.450689958643746,0L53.15867827204611,100L5.7985370329161645,100L70.44484694748057,0L37.5096426787221,0L6.0257207839122255,100LNaN,100LNaN,0Z" transform="translate(522,394)"></path><path class="fore" d="M97.93410233878387,0L37.39662060697829,100L1.8979537283844883,100L42.10090514797126,0L35.03346904230254,0L55.929001395562594,100L37.28768075351962,100L40.016532844687845,0L2.912510172288284,0L22.1246904686864,100L54.42266660308389,100L58.53022229901903,0Z" transform="translate(10,522)"></path><path class="fore" d="M54.01307756394728,0L60.233270563836015,100L11.799981998292223,100L43.31500351147387,0L58.85622979825859,0L80.2713412924247,100L82.56251178048399,100L17.386225613573817,0L66.21534467487706,0L84.44370169924305,100L2.5298954342382003,100L82.78492522969798,0Z" transform="translate(138,522)"></path><path class="fore" d="M70.69607724045882,0L8.407450451562045,100L74.71589526829139,100L23.99314226193661,0L24.601697069042544,0L0.9990467054734846,100L16.078918894371643,100L81.6411589519762,0L64.08383054112176,0L31.99640460732286,100L94.983323421648,100L41.813599216170886,0Z" transform="translate(266,522)"></path><path class="fore" d="M27.75067139654969,0L92.85935700614255,100L76.99754090101743,100L89.81547279647192,0L95.70133017566074,0L30.984278859931617,100L54.95775464303316,100L11.41469710332105,0L61.25077562836489,0L15.728230748220687,100L47.05841320568307,100L7.371731977331105,0Z" transform="translate(394,522)"></path><path class="fore" d="M83.83950171586896,0L22.774850961453023,100L23.667162919990233,100L80.19463065191361,0L87.38411241103505,0L92.14814736484357,100L63.718989454929186,100L6.488682177516518,0L36.31676242487402,0L32.05438774582183,100L47.691711242171245,100L67.07336340971682,0Z" transform="translate(522,522)"></path></g></svg>