<svg xmlns="http://www.w3.org/2000/svg" width="640" height="640" viewport-fill="#000" label="_shape #66 seed #6"><defs><style type="text/css">
.f-0 { fill: #000 }
.f-1 { fill: #101010 }
.f-2 { fill: #202020 }
.f-3 { fill: #303030 }
.f-4 { fill: #404040 }
.f-5 { fill: #505050 }
.f-6 { fill: #606060 }
.f-7 { fill: #707070 }
.f-8 { fill: #808080 }
.f-9 { fill: #909090 }
.f-10 { fill: #a0a0a0 }
.f-11 { fill: #b0b0b0 }
.f-12 { fill: #c0c0c0 }
.f-13 { fill: #d0d0d0 }
.f-14 { fill: #e0e0e0 }
.f-15 { fill: #f0f0f0 }
.bgc { fill: #101010 }
.fore { fill: #404040 }
text{ font-family: Freemono, Sans, Arial; } 
</style></defs><g fill-rule="evenodd"><path class="fore" d="M73.0629013041684,0L1.6172792530986677,100L34.606475342622815,100L64.90952955021497,0L0,30.574298751085983L100,99.44489371557154L100,52.52378474931535L0,37.47961964220912Z" transform="translate(10,10)"></path><path class="fore" d="M49.41521045152826,0L90.83471639423695,100L14.59071194006089,100L71.48468330415318,0L0,33.21355426764033L100,46.43680255587175L100,15.757760662196763L0,89.76979160432255Z" transform="translate(138,10)"></path><path class="fore" d="M87.28772149481027,0L15.496632308493224,100L79.4513204790001,100L38.70507879241409,0L0,10.893761303939932L100,29.00718441243617L100,81.17810685122485L0,12.526921385005707Z" transform="translate(266,10)"></path><path class="fore" d="M24.880245600710722,0L84.2763827905233,100L23.81635161475523,100L9.715656885954335,0L0,22.072121433720426L100,70.81354281399885L100,43.59891162687283L0,39.46620902115248Z" transform="translate(394,10)"></path><path class="fore" d="M56.31820918152255,0L76.3077536405272,100L69.73337990780192,100L9.25022116727399,0L0,75.29346098184591L100,76.6137145878781L100,78.38321619416104L0,51.088073453969216Z" transform="translate(522,10)"></path><path class="fore" d="M3.0081257645159796,0L84.82770271581298,100L82.31834791410716,100L68.95770821090527,0L49.800853703151276,0L32.12183262420369,100LNaN,100LNaN,0L0,45.77987593134314L100,52.585708581493606L100,16.158107383311123L0,67.11054503888339L0,32.344716442352315L100,55.41468465406144L100,NaNL0,NaNZ" transform="translate(10,138)"></path><path class="fore" d="M11.471353339678643,0L96.7736702454044,100L74.58565673911525,100L12.67169567505193,0L45.706504928192814,0L32.571150616663765,100LNaN,100LNaN,0L0,51.782304718466754L100,41.44695384288079L100,69.44196712713831L0,64.95381247072264L0,91.6216004325322L100,23.0769626562093L100,NaNL0,NaNZ" transform="translate(138,138)"></path><path class="fore" d="M77.5304074154908,0L55.90477510768892,100L60.71166800765692,100L73.67191321382305,0L99.7690373012521,0L96.5946244559892,100LNaN,100LNaN,0L0,9.221778445042917L100,37.19178414811231L100,47.78283028263337L0,71.5275652367301L0,85.4579335929451L100,75.45991100364012L100,NaNL0,NaNZ" transform="translate(266,138)"></path><path class="fore" d="M55.16528592544826,0L50.59699469984725,100L35.79116603291288,100L18.907109654165648,0L46.18633150435866,0L67.10913366333669,100LNaN,100LNaN,0L0,19.80257055233138L100,24.436258730649335L100,50.115973359000655L0,47.50231227278603L0,99.01715014739723L100,47.06276296150484L100,NaNL0,NaNZ" transform="translate(394,138)"></path><path class="fore" d="M74.46209753739618,0L98.85171693384225,100L57.86224344551998,100L65.40622303250983,0L19.800961742336163,0L37.11486924705784,100LNaN,100LNaN,0L0,12.409345747961321L100,13.161730775175096L100,42.58669327780824L0,95.82402581542082L0,87.98540207576653L100,39.84611627902713L100,NaNL0,NaNZ" transform="translate(522,138)"></path><path class="fore" d="M71.62786746328158,0L94.55628603576534,100L26.524830297706004,100L54.791190888290274,0L73.31168132072669,0L70.46210558017053,100L82.41971199903693,100L56.11500845349866,0L0,97.19625292190224L100,8.148345706354126L100,82.4382800559393L0,3.2830585148762568L0,33.42064132665545L100,69.73527579088356L100,5.65954243836692L0,12.30574674209706Z" transform="translate(10,266)"></path><path class="fore" d="M49.93325871488074,0L38.14208971371654,100L87.01528317154646,100L21.055196875359915,0L52.76061592628602,0L45.92432050943672,100L5.331880678854222,100L90.37495877665492,0L0,18.035181101228172L100,90.19744435002372L100,66.48148517844838L0,58.96680856851903L0,99.54590577574965L100,12.982923962228114L100,26.824250344124373L0,63.48204896517665Z" transform="translate(138,266)"></path><path class="fore" d="M25.450689958643746,0L93.24892026195481,100L53.15867827204611,100L70.44484694748057,0L37.5096426787221,0L5.7985370329161645,100L6.0257207839122255,100L79.23144885762677,0L0,97.93410233878387L100,2.912510172288284L100,58.53022229901903L0,42.10090514797126L0,35.03346904230254L100,37.39662060697829L100,1.8979537283844883L0,40.016532844687845Z" transform="translate(266,266)"></path><path class="fore" d="M55.929001395562594,0L54.01307756394728,100L43.31500351147387,100L37.28768075351962,0L22.1246904686864,0L58.85622979825859,100L17.386225613573817,100L54.42266660308389,0L0,66.21534467487706L100,80.2713412924247L100,82.56251178048399L0,82.78492522969798L0,60.233270563836015L100,84.44370169924305L100,2.5298954342382003L0,11.799981998292223Z" transform="translate(394,266)"></path><path class="fore" d="M70.69607724045882,0L64.08383054112176,100L41.813599216170886,100L23.99314226193661,0L24.601697069042544,0L8.407450451562045,100L74.71589526829139,100L81.6411589519762,0L0,0.9990467054734846L100,27.75067139654969L100,89.81547279647192L0,16.078918894371643L0,31.99640460732286L100,95.70133017566074L100,11.41469710332105L0,94.983323421648Z" transform="translate(522,266)"></path><path class="fore" d="M61.25077562836489,0L54.95775464303316,100L15.728230748220687,100L7.371731977331105,0L92.85935700614255,0L47.05841320568307,100L83.83950171586896,100L76.99754090101743,0L30.984278859931617,0L80.19463065191361,100LNaN,100LNaN,0L0,87.38411241103505L100,23.667162919990233L100,92.14814736484357L0,6.488682177516518L0,36.31676242487402L100,63.718989454929186L100,32.05438774582183L0,67.07336340971682L0,22.774850961453023L100,47.691711242171245L100,NaNL0,NaNZ" transform="translate(10,394)"></path><path class="fore" d="M45.23602888347027,0L37.20073209184784,100L47.59620879150278,100L95.62106812798788,0L74.34793228979292,0L39.08072107484337,100L12.834963256252182,100L52.52172871951492,0L29.820429027180058,0L61.781544639337184,100LNaN,100LNaN,0L0,41.21806508414072L100,47.414014308697276L100,86.2520841290519L0,70.12287537677724L0,14.912977737799638L100,26.853330815843456L100,7.518962174000918L0,5.121628817121117L0,84.99741953172311L100,85.2577969264203L100,NaNL0,NaNZ" transform="translate(138,394)"></path><path class="fore" d="M31.391550322496204,0L42.795871719871194,100L83.13900686429552,100L73.79783042815855,0L77.07152497531678,0L16.604653561399292,100L3.450499123074863,100L33.18755111318905,0L41.156414490182655,0L63.314901800705684,100LNaN,100LNaN,0L0,27.64998632741457L100,72.59965412806851L100,32.1533530463956L0,79.77852213734931L0,65.07780087208536L100,18.48755070562036L100,77.21870473486831L0,78.07671203838466L0,1.6644440910712515L100,48.91729587464656L100,NaNL0,NaNZ" transform="translate(266,394)"></path><path class="fore" d="M42.77537544305565,0L8.628596510931063,100L13.418080609628868,100L47.16870888419118,0L12.13215086153001,0L5.88645419414808,100L96.8508161704645,100L16.83659365745093,0L2.134730489389113,0L47.757176629698215,100LNaN,100LNaN,0L0,66.4020189913096L100,7.642005122281849L100,37.84603347907853L0,7.619378617352162L0,9.16334282580371L100,72.42019704793617L100,87.59726884871597L0,94.48287122739629L0,57.90195501761488L100,9.696257865781789L100,NaNL0,NaNZ" transform="translate(394,394)"></path><path class="fore" d="M34.66931897874719,0L82.06568993667473,100L25.796843073501996,100L50.31095570643248,0L45.35774262568363,0L34.481400094441,100L62.7107949065582,100L88.12395657376784,0L84.16511211780747,0L61.23108427605356,100LNaN,100LNaN,0L0,15.221184504650086L100,90.58637494979556L100,68.71116484630214L0,95.93727128125491L0,34.00964671690217L100,49.1449769304792L100,5.078960718689976L0,71.22082991195535L0,52.5761361283966L100,94.99433783731942L100,NaNL0,NaNZ" transform="translate(522,394)"></path><path class="fore" d="M87.76920454872499,0L96.34157218932683,100L79.96999518278355,100L98.45945206021996,0L82.33979765562609,0L53.74454170748444,100L18.274972407601233,100L43.685095720192635,0L53.053009900199896,0L76.38510108062965,100L99.04617807372922,100L8.905873999840416,0L0,68.13234451786934L100,60.43832071454587L100,41.017495941977295L0,22.23778668223546L0,80.41765779061828L100,60.837364974597186L100,39.14019153848123L0,53.026507627382976L0,54.163991818579525L100,63.677641046213175L100,82.30447350182753L0,93.82382206256024Z" transform="translate(10,522)"></path><path class="fore" d="M16.709756718959895,0L66.2190501656907,100L16.690021471071805,100L41.08947642151827,0L52.19962750039906,0L51.552510366476575,100L93.48528063926513,100L39.85427704500882,0L93.00000038500049,0L51.89435878447263,100L81.59009376012988,100L12.832011389029871,0L0,52.37389018964832L100,17.399890287070306L100,3.9803891662212223L0,69.04587984263506L0,76.38896086634998L100,83.85306313339117L100,96.19042797556949L0,96.61878328106897L0,1.303544745895366L100,61.95282638524584L100,89.9206093686328L0,50.9337542442816Z" transform="translate(138,522)"></path><path class="fore" d="M14.117817510876057,0L5.528495655705749,100L96.58992011950605,100L77.00497706471023,0L40.9564237883766,0L37.350655957613,100L0.6897630569289286,100L87.5397799593733,0L83.2415992728791,0L12.343527488075088,100L73.43516918260397,100L19.719634756930404,0L0,1.3124786709080318L100,51.35654277078907L100,68.97214609876721L0,74.97935862882953L0,6.44600388109924L100,85.02006685678819L100,81.81132574103967L0,28.996137498159435L0,0.23431333906219146L100,25.063031858131303L100,10.481195324829635L0,30.055386645951703Z" transform="translate(266,522)"></path><path class="fore" d="M39.71635467995033,0L10.511273608761758,100L79.94844320246965,100L62.95908820369729,0L60.94146613242246,0L11.357441258441046,100L16.743703833626768,100L45.09831552747215,0L40.5347761164159,0L40.72345191779144,100L41.76274693851477,100L82.55532362785671,0L0,30.836744722960486L100,98.89708431283961L100,73.95541221757537L0,63.47940731494282L0,58.826885164933366L100,1.414993457022508L100,23.93418229855716L0,43.28125613397668L0,27.020066792331736L100,13.502599207732505L100,85.85508847513506L0,21.687977672673046Z" transform="translate(394,522)"></path><path class="fore" d="M42.36801463494229,0L12.297002914490934,100L99.35370202932506,100L70.79667140662363,0L5.065811714329963,0L6.549984665998092,100L19.932610988708987,100L64.60000559834262,0L75.52935504680826,0L3.5667867189018487,100L53.81045109422548,100L85.58201113070712,0L0,25.469146627653018L100,30.594071181658745L100,94.89312185236436L0,0.6415193268471224L0,17.28169968985928L100,78.811955707152L100,51.16086669333377L0,63.925419869497944L0,77.36880898584174L100,58.62833477902799L100,11.364026256489645L0,70.57795016985176Z" transform="translate(522,522)"></path></g></svg>