<svg xmlns="http://www.w3.org/2000/svg" width="640" height="640" viewport-fill="#000" label="_shape #69 seed #9"><defs><style type="text/css">
.f-0 { fill: #000 }
.f-1 { fill: #101010 }
.f-2 { fill: #202020 }
.f-3 { fill: #303030 }
.f-4 { fill: #404040 }
.f-5 { fill: #505050 }
.f-6 { fill: #606060 }
.f-7 { fill: #707070 }
.f-8 { fill: #808080 }
.f-9 { fill: #909090 }
.f-10 { fill: #a0a0a0 }
.f-11 { fill: #b0b0b0 }
.f-12 { fill: #c0c0c0 }
.f-13 { fill: #d0d0d0 }
.f-14 { fill: #e0e0e0 }
.f-15 { fill: #f0f0f0 }
.bgc { fill: #101010 }
.fore { fill: #404040 }
text{ font-family: Freemono, Sans, Arial; } 
</style></defs><g fill-rule="evenodd"><path class="fore" d="M-268.0026194744955,-32.781030411028695L-217.5289343641926,-159.94112264948868L27.389302568317955,268.6071966735462L222.29146755646082,-153.25306995814123L253.60807927074583,-92.64416942583647L191.16315269047885,-190.67419608703395L-9.41524704374827,269.83578918131894L-42.63578927386474,-266.61243308029464L9.918488825706254,-269.81775994069466L-263.44072101671276,-59.1522316586155L-147.03286110801417,226.45383139702324L214.2815806370635,164.26626007699102L234.83622949946331,-133.23642637985827L-161.8448361133531,216.1162858820267L59.94450736522275,-263.26157341461885L225.74024317847434,148.12610374178908L-193.44822068628685,188.3554775240414L175.92975664888382,-204.81386848908576L223.2796373658737,151.809761009508L-259.50848081127106,74.53420950829333L170.71195952800312,209.1827595049588L191.2415007516831,190.59561482427657L261.48711636698687,-67.26431426899312L-249.91166267906306,102.19667732850321L269.9923568143356,2.0315663514866653L154.77438887401397,221.23491711001566L-225.4219495628431,148.61004224239701L269.25365652265907,20.06161631519094L265.44409699026454,49.39060004720561L165.93748787971236,-212.9900235132395L-260.712876038604,-70.20538631529286L105.68788078963932,-248.45537195680632L-104.39263392205291,-249.00236541610653L148.23929680644576,225.66592760611977L-269.0890364175893,22.160561361420925L-255.35157805984517,-87.72440699341774L-269.9541032500601,4.978166173994606L-18.44435569906914,-269.3692739397837L-268.6133244421444,27.329140713517898L-263.9226115353597,56.963629803196554L50.72835697701761,265.19169255165644L-250.77464933808548,-100.0603580313416L3.378349174365565,-269.97886353723334L-220.13982469119384,156.32804478061652L-241.9551039347498,119.82373587868321L243.4161364571743,-116.82715657013271Z" transform="translate(320,320)"></path></g></svg>