<svg xmlns="http://www.w3.org/2000/svg" width="640" height="640" viewport-fill="#000" label="_shape #73 waves"><defs><style type="text/css">
.f-0 { fill: #000;  }
.f-1 { fill: #101010;  }
.f-2 { fill: #202020;  }
.f-3 { fill: #303030;  }
.f-4 { fill: #404040;  }
.f-5 { fill: #505050;  }
.f-6 { fill: #606060;  }
.f-7 { fill: #707070;  }
.f-8 { fill: #808080;  }
.f-9 { fill: #909090;  }
.f-10 { fill: #a0a0a0;  }
.f-11 { fill: #b0b0b0;  }
.f-12 { fill: #c0c0c0;  }
.f-13 { fill: #d0d0d0;  }
.f-14 { fill: #e0e0e0;  }
.f-15 { fill: #f0f0f0;  }
.bgc { fill: #101010;  }
.fore { fill: #404040; stroke: #404040;  }
text{ font-family: Freemono, Sans, Arial; } 
</style></defs><g fill-rule="evenodd"><path d="M0,0C0,0,53.333333333333336,-40,80,-40C106.66666666666666,-40,133.33333333333334,0,160,0C186.66666666666666,0,213.33333333333334,-40,240,-40C266.6666666666667,-40,293.3333333333333,0,320,0C346.6666666666667,0,373.3333333333333,-40,400,-40C426.6666666666667,-40,453.3333333333333,-20,480,0C506.6666666666667,20,560,80,560,80 L0,80Z" transform="translate(0,96)" class="f-3"></path><path d="M0,0C0,0,53.333333333333336,-40,80,-40C106.66666666666666,-40,133.33333333333334,0,160,0C186.66666666666666,0,213.33333333333334,-40,240,-40C266.6666666666667,-40,293.3333333333333,0,320,0C346.6666666666667,0,373.3333333333333,-40,400,-40C426.6666666666667,-40,453.3333333333333,-20,480,0C506.6666666666667,20,560,80,560,80 L0,80Z" transform="translate(0,160)" class="f-4"></path><path d="M0,0C0,0,53.333333333333336,-40,80,-40C106.66666666666666,-40,133.33333333333334,0,160,0C186.66666666666666,0,213.33333333333334,-40,240,-40C266.6666666666667,-40,293.3333333333333,0,320,0C346.6666666666667,0,373.3333333333333,-40,400,-40C426.6666666666667,-40,453.3333333333333,-20,480,0C506.6666666666667,20,560,80,560,80 L0,80Z" transform="translate(0,224)" class="f-5"></path><path d="M0,0C0,0,53.333333333333336,-40,80,-40C106.66666666666666,-40,133.33333333333334,0,160,0C186.66666666666666,0,213.33333333333334,-40,240,-40C266.6666666666667,-40,293.3333333333333,0,320,0C346.6666666666667,0,373.3333333333333,-40,400,-40C426.6666666666667,-40,453.3333333333333,-20,480,0C506.6666666666667,20,560,80,560,80 L0,80Z" transform="translate(0,288)" class="f-6"></path><path d="M0,0C0,0,53.333333333333336,-40,80,-40C106.66666666666666,-40,133.33333333333334,0,160,0C186.66666666666666,0,213.33333333333334,-40,240,-40C266.6666666666667,-40,293.3333333333333,0,320,0C346.6666666666667,0,373.3333333333333,-40,400,-40C426.6666666666667,-40,453.3333333333333,-20,480,0C506.6666666666667,20,560,80,560,80 L0,80Z" transform="translate(0,352)" class="f-7"></path><path d="M0,0C0,0,53.333333333333336,-40,80,-40C106.66666666666666,-40,133.33333333333334,0,160,0C186.66666666666666,0,213.33333333333334,-40,240,-40C266.6666666666667,-40,293.3333333333333,0,320,0C346.6666666666667,0,373.3333333333333,-40,400,-40C426.6666666666667,-40,453.3333333333333,-20,480,0C506.6666666666667,20,560,80,560,80 L0,80Z" transform="translate(0,416)" class="f-8"></path></g></svg>