<svg xmlns="http://www.w3.org/2000/svg" width="640" height="640" viewport-fill="#000" label="_shape #74 waves"><defs><style type="text/css">.wave-container{
    animation-name: mv;
    animation-duration: 1s;
    animation-iteration-count: infinite;
    animation-timing-function: linear;
    transform: rotateY(30deg)
}

.wave-wrapper{
    transform: rotateZ(-30deg);
    transform-origin: 320px
}


@keyframes mv {
    from { transform: translate(-162px, 0); }
    to   { transform: translate(0, 0); }
 }
.f-0 { fill: #000 }
.f-1 { fill: #101010 }
.f-2 { fill: #202020 }
.f-3 { fill: #303030 }
.f-4 { fill: #404040 }
.f-5 { fill: #505050 }
.f-6 { fill: #606060 }
.f-7 { fill: #707070 }
.f-8 { fill: #808080 }
.f-9 { fill: #909090 }
.f-10 { fill: #a0a0a0 }
.f-11 { fill: #b0b0b0 }
.f-12 { fill: #c0c0c0 }
.f-13 { fill: #d0d0d0 }
.f-14 { fill: #e0e0e0 }
.f-15 { fill: #f0f0f0 }
.bgc { fill: #101010 }
.fore { fill: #404040 }
text{ font-family: Freemono, Sans, Arial; } 
</style></defs><g mask="url(#circlemask)" class="wave-wrapper"><g class="wave-container"><path d="M0,0C0,0,53.333333333333336,-40,80,-40C106.66666666666666,-40,133.33333333333334,0,160,0C186.66666666666666,0,213.33333333333334,-40,240,-40C266.6666666666667,-40,293.3333333333333,0,320,0C346.6666666666667,0,373.3333333333333,-40,400,-40C426.6666666666667,-40,453.3333333333333,0,480,0C506.6666666666667,0,533.3333333333334,-40,560,-40C586.6666666666666,-40,613.3333333333334,0,640,0C666.6666666666666,0,693.3333333333334,-40,720,-40C746.6666666666666,-40,773.3333333333334,0,800,0C826.6666666666666,0,853.3333333333334,-40,880,-40C906.6666666666666,-40,933.3333333333334,0,960,0C986.6666666666666,0,1013.3333333333334,-40,1040,-40C1066.6666666666667,-40,1093.3333333333333,0,1120,0C1146.6666666666667,0,1173.3333333333333,-40,1200,-40C1226.6666666666667,-40,1280,0,1280,0 L1440,80L0,80" transform="translate(0,40)" class="f-3"></path><path d="M0,0C0,0,53.333333333333336,-40,80,-40C106.66666666666666,-40,133.33333333333334,0,160,0C186.66666666666666,0,213.33333333333334,-40,240,-40C266.6666666666667,-40,293.3333333333333,0,320,0C346.6666666666667,0,373.3333333333333,-40,400,-40C426.6666666666667,-40,453.3333333333333,0,480,0C506.6666666666667,0,533.3333333333334,-40,560,-40C586.6666666666666,-40,613.3333333333334,0,640,0C666.6666666666666,0,693.3333333333334,-40,720,-40C746.6666666666666,-40,773.3333333333334,0,800,0C826.6666666666666,0,853.3333333333334,-40,880,-40C906.6666666666666,-40,933.3333333333334,0,960,0C986.6666666666666,0,1013.3333333333334,-40,1040,-40C1066.6666666666667,-40,1093.3333333333333,0,1120,0C1146.6666666666667,0,1173.3333333333333,-40,1200,-40C1226.6666666666667,-40,1280,0,1280,0 L1440,80L0,80" transform="translate(0,120)" class="f-4"></path><path d="M0,0C0,0,53.333333333333336,-40,80,-40C106.66666666666666,-40,133.33333333333334,0,160,0C186.66666666666666,0,213.33333333333334,-40,240,-40C266.6666666666667,-40,293.3333333333333,0,320,0C346.6666666666667,0,373.3333333333333,-40,400,-40C426.6666666666667,-40,453.3333333333333,0,480,0C506.6666666666667,0,533.3333333333334,-40,560,-40C586.6666666666666,-40,613.3333333333334,0,640,0C666.6666666666666,0,693.3333333333334,-40,720,-40C746.6666666666666,-40,773.3333333333334,0,800,0C826.6666666666666,0,853.3333333333334,-40,880,-40C906.6666666666666,-40,933.3333333333334,0,960,0C986.6666666666666,0,1013.3333333333334,-40,1040,-40C1066.6666666666667,-40,1093.3333333333333,0,1120,0C1146.6666666666667,0,1173.3333333333333,-40,1200,-40C1226.6666666666667,-40,1280,0,1280,0 L1440,80L0,80" transform="translate(0,200)" class="f-5"></path><path d="M0,0C0,0,53.333333333333336,-40,80,-40C106.66666666666666,-40,133.33333333333334,0,160,0C186.66666666666666,0,213.33333333333334,-40,240,-40C266.6666666666667,-40,293.3333333333333,0,320,0C346.6666666666667,0,373.3333333333333,-40,400,-40C426.6666666666667,-40,453.3333333333333,0,480,0C506.6666666666667,0,533.3333333333334,-40,560,-40C586.6666666666666,-40,613.3333333333334,0,640,0C666.6666666666666,0,693.3333333333334,-40,720,-40C746.6666666666666,-40,773.3333333333334,0,800,0C826.6666666666666,0,853.3333333333334,-40,880,-40C906.6666666666666,-40,933.3333333333334,0,960,0C986.6666666666666,0,1013.3333333333334,-40,1040,-40C1066.6666666666667,-40,1093.3333333333333,0,1120,0C1146.6666666666667,0,1173.3333333333333,-40,1200,-40C1226.6666666666667,-40,1280,0,1280,0 L1440,80L0,80" transform="translate(0,280)" class="f-6"></path><path d="M0,0C0,0,53.333333333333336,-40,80,-40C106.66666666666666,-40,133.33333333333334,0,160,0C186.66666666666666,0,213.33333333333334,-40,240,-40C266.6666666666667,-40,293.3333333333333,0,320,0C346.6666666666667,0,373.3333333333333,-40,400,-40C426.6666666666667,-40,453.3333333333333,0,480,0C506.6666666666667,0,533.3333333333334,-40,560,-40C586.6666666666666,-40,613.3333333333334,0,640,0C666.6666666666666,0,693.3333333333334,-40,720,-40C746.6666666666666,-40,773.3333333333334,0,800,0C826.6666666666666,0,853.3333333333334,-40,880,-40C906.6666666666666,-40,933.3333333333334,0,960,0C986.6666666666666,0,1013.3333333333334,-40,1040,-40C1066.6666666666667,-40,1093.3333333333333,0,1120,0C1146.6666666666667,0,1173.3333333333333,-40,1200,-40C1226.6666666666667,-40,1280,0,1280,0 L1440,80L0,80" transform="translate(0,360)" class="f-7"></path><path d="M0,0C0,0,53.333333333333336,-40,80,-40C106.66666666666666,-40,133.33333333333334,0,160,0C186.66666666666666,0,213.33333333333334,-40,240,-40C266.6666666666667,-40,293.3333333333333,0,320,0C346.6666666666667,0,373.3333333333333,-40,400,-40C426.6666666666667,-40,453.3333333333333,0,480,0C506.6666666666667,0,533.3333333333334,-40,560,-40C586.6666666666666,-40,613.3333333333334,0,640,0C666.6666666666666,0,693.3333333333334,-40,720,-40C746.6666666666666,-40,773.3333333333334,0,800,0C826.6666666666666,0,853.3333333333334,-40,880,-40C906.6666666666666,-40,933.3333333333334,0,960,0C986.6666666666666,0,1013.3333333333334,-40,1040,-40C1066.6666666666667,-40,1093.3333333333333,0,1120,0C1146.6666666666667,0,1173.3333333333333,-40,1200,-40C1226.6666666666667,-40,1280,0,1280,0 L1440,80L0,80" transform="translate(0,440)" class="f-8"></path><path d="M0,0C0,0,53.333333333333336,-40,80,-40C106.66666666666666,-40,133.33333333333334,0,160,0C186.66666666666666,0,213.33333333333334,-40,240,-40C266.6666666666667,-40,293.3333333333333,0,320,0C346.6666666666667,0,373.3333333333333,-40,400,-40C426.6666666666667,-40,453.3333333333333,0,480,0C506.6666666666667,0,533.3333333333334,-40,560,-40C586.6666666666666,-40,613.3333333333334,0,640,0C666.6666666666666,0,693.3333333333334,-40,720,-40C746.6666666666666,-40,773.3333333333334,0,800,0C826.6666666666666,0,853.3333333333334,-40,880,-40C906.6666666666666,-40,933.3333333333334,0,960,0C986.6666666666666,0,1013.3333333333334,-40,1040,-40C1066.6666666666667,-40,1093.3333333333333,0,1120,0C1146.6666666666667,0,1173.3333333333333,-40,1200,-40C1226.6666666666667,-40,1280,0,1280,0 L1440,80L0,80" transform="translate(0,520)" class="f-9"></path><path d="M0,0C0,0,53.333333333333336,-40,80,-40C106.66666666666666,-40,133.33333333333334,0,160,0C186.66666666666666,0,213.33333333333334,-40,240,-40C266.6666666666667,-40,293.3333333333333,0,320,0C346.6666666666667,0,373.3333333333333,-40,400,-40C426.6666666666667,-40,453.3333333333333,0,480,0C506.6666666666667,0,533.3333333333334,-40,560,-40C586.6666666666666,-40,613.3333333333334,0,640,0C666.6666666666666,0,693.3333333333334,-40,720,-40C746.6666666666666,-40,773.3333333333334,0,800,0C826.6666666666666,0,853.3333333333334,-40,880,-40C906.6666666666666,-40,933.3333333333334,0,960,0C986.6666666666666,0,1013.3333333333334,-40,1040,-40C1066.6666666666667,-40,1093.3333333333333,0,1120,0C1146.6666666666667,0,1173.3333333333333,-40,1200,-40C1226.6666666666667,-40,1280,0,1280,0 L1440,80L0,80" transform="translate(0,600)" class="f-10"></path></g></g><mask id="circlemask"><path d="M-320,-320L320,-320L320,320L-320,320" transform="translate(320,320)" fill="black"></path><circle cx="320" cy="320" r="256" fill="white"></circle></mask></svg>