<svg xmlns="http://www.w3.org/2000/svg" width="640" height="640" viewport-fill="#000" label="_shape #77 tiles"><defs><style type="text/css">
.f-0 { fill: #000;  }
.f-1 { fill: #101010;  }
.f-2 { fill: #202020;  }
.f-3 { fill: #303030;  }
.f-4 { fill: #404040;  }
.f-5 { fill: #505050;  }
.f-6 { fill: #606060;  }
.f-7 { fill: #707070;  }
.f-8 { fill: #808080;  }
.f-9 { fill: #909090;  }
.f-10 { fill: #a0a0a0;  }
.f-11 { fill: #b0b0b0;  }
.f-12 { fill: #c0c0c0;  }
.f-13 { fill: #d0d0d0;  }
.f-14 { fill: #e0e0e0;  }
.f-15 { fill: #f0f0f0;  }
.bgc { fill: #101010;  }
.fore { fill: #404040; stroke: #404040;  }
text{ font-family: Freemono, Sans, Arial; } 
</style><script type="text/javascript"><![CDATA[
window.onload = function () {

    var frameTime = 40;
    var minFrameTime = 10;
    var delta = 10;
    var element = document.getElementById('shape-77')

    setTimeout(anim, frameTime)

    var gridX = 21; gridY = 15; cnt = 0;

    function anim() {
        cnt++;
        var x = random.int(0, gridX);
        var y = random.int(0, gridY);

        var className = 'sq-' + x + '-' + y;

        var elements = document.getElementsByClassName(className);

        var color = getRandomColor2();

        for (i = 0; i < elements.length; i++) {
            elements[i].style.fill = color;
        }

        if (minFrameTime < frameTime) {
            frameTime -= delta;
        }

        setTimeout(anim, frameTime)
    }

    function getRandomColor2(){
        var dist = {
            0.8: getRandomMonoColor.bind(this, '012345'),
            0.17: getRandomMonoColor.bind(this),
            0.03: getRandomColor.bind(this)
        }
        return random.dist(dist);
    }

    function getRandomColor(letters) {
        letters = letters || '0123456789ABCDEF';
        let color = '#';
        for (var i = 0; i < 6; i++) {
            color += letters[Math.floor(Math.random() * letters.length)];
        }
        return color;
    }
    function getRandomMonoColor(letters) {
        letters = letters || '0123456789ABCDEF';
        let color = '';
        for (var i = 0; i < 1; i++) {
            color += letters[Math.floor(Math.random() * letters.length)];
        }
        color = '#' + color + color + color;
        return color;
    }
}

var random = {
    int: function (min, max) {
        return Math.floor(min + Math.random() * (max - min))
    },
    /**
     * i.e. {
     *  0.5: function
     *  0.3: function
     *  0.1: function
     * }
     * @param {Object} dist
     */
    dist: function(dist){
        var rnd = Math.random();
        var probsum = 0
        for (var probability in dist){
            var floatProbablility = parseFloat(probability);
            if (probsum <= rnd && rnd < probsum + floatProbablility){
                return dist[probability]()
            }
            probsum += parseFloat(probability);
        }
    }
}

]]></script></defs><g id="shape-77" fill-rule="evenodd" gridX="21" gridY="15"><path d="M-13.91304347826087,-18.823529411764707L13.91304347826087,-18.823529411764707L13.91304347826087,18.823529411764707L-13.91304347826087,18.823529411764707Z" transform="translate(41.73913043478261,56.470588235294116)" class="sq-0-0 f-11"></path><path d="M-13.91304347826087,-18.823529411764707L13.91304347826087,-18.823529411764707L13.91304347826087,18.823529411764707L-13.91304347826087,18.823529411764707Z" transform="translate(41.73913043478261,94.11764705882354)" class="sq-0-1 f-1"></path><path d="M-13.91304347826087,-18.823529411764707L13.91304347826087,-18.823529411764707L13.91304347826087,18.823529411764707L-13.91304347826087,18.823529411764707Z" transform="translate(41.73913043478261,131.76470588235296)" class="sq-0-2 f-1"></path><path d="M-13.91304347826087,-18.823529411764707L13.91304347826087,-18.823529411764707L13.91304347826087,18.823529411764707L-13.91304347826087,18.823529411764707Z" transform="translate(41.73913043478261,169.41176470588235)" class="sq-0-3 f-8"></path><path d="M-13.91304347826087,-18.823529411764707L13.91304347826087,-18.823529411764707L13.91304347826087,18.823529411764707L-13.91304347826087,18.823529411764707Z" transform="translate(41.73913043478261,207.05882352941177)" class="sq-0-4 f-2"></path><path d="M-13.91304347826087,-18.823529411764707L13.91304347826087,-18.823529411764707L13.91304347826087,18.823529411764707L-13.91304347826087,18.823529411764707Z" transform="translate(41.73913043478261,244.7058823529412)" class="sq-0-5 f-2"></path><path d="M-13.91304347826087,-18.823529411764707L13.91304347826087,-18.823529411764707L13.91304347826087,18.823529411764707L-13.91304347826087,18.823529411764707Z" transform="translate(41.73913043478261,282.3529411764706)" class="sq-0-6 f-3"></path><path d="M-13.91304347826087,-18.823529411764707L13.91304347826087,-18.823529411764707L13.91304347826087,18.823529411764707L-13.91304347826087,18.823529411764707Z" transform="translate(41.73913043478261,320)" class="sq-0-7 f-0"></path><path d="M-13.91304347826087,-18.823529411764707L13.91304347826087,-18.823529411764707L13.91304347826087,18.823529411764707L-13.91304347826087,18.823529411764707Z" transform="translate(41.73913043478261,357.64705882352945)" class="sq-0-8 f-6"></path><path d="M-13.91304347826087,-18.823529411764707L13.91304347826087,-18.823529411764707L13.91304347826087,18.823529411764707L-13.91304347826087,18.823529411764707Z" transform="translate(41.73913043478261,395.29411764705884)" class="sq-0-9 f-3"></path><path d="M-13.91304347826087,-18.823529411764707L13.91304347826087,-18.823529411764707L13.91304347826087,18.823529411764707L-13.91304347826087,18.823529411764707Z" transform="translate(41.73913043478261,432.94117647058823)" class="sq-0-10 f-0"></path><path d="M-13.91304347826087,-18.823529411764707L13.91304347826087,-18.823529411764707L13.91304347826087,18.823529411764707L-13.91304347826087,18.823529411764707Z" transform="translate(41.73913043478261,470.5882352941177)" class="sq-0-11 f-3"></path><path d="M-13.91304347826087,-18.823529411764707L13.91304347826087,-18.823529411764707L13.91304347826087,18.823529411764707L-13.91304347826087,18.823529411764707Z" transform="translate(41.73913043478261,508.2352941176471)" class="sq-0-12 f-0"></path><path d="M-13.91304347826087,-18.823529411764707L13.91304347826087,-18.823529411764707L13.91304347826087,18.823529411764707L-13.91304347826087,18.823529411764707Z" transform="translate(41.73913043478261,545.8823529411765)" class="sq-0-13 f-4"></path><path d="M-13.91304347826087,-18.823529411764707L13.91304347826087,-18.823529411764707L13.91304347826087,18.823529411764707L-13.91304347826087,18.823529411764707Z" transform="translate(41.73913043478261,583.5294117647059)" class="sq-0-14 f-1"></path><path d="M-13.91304347826087,-18.823529411764707L13.91304347826087,-18.823529411764707L13.91304347826087,18.823529411764707L-13.91304347826087,18.823529411764707Z" transform="translate(69.56521739130434,56.470588235294116)" class="sq-1-0 f-1"></path><path d="M-13.91304347826087,-18.823529411764707L13.91304347826087,-18.823529411764707L13.91304347826087,18.823529411764707L-13.91304347826087,18.823529411764707Z" transform="translate(69.56521739130434,94.11764705882354)" class="sq-1-1 f-0"></path><path d="M-13.91304347826087,-18.823529411764707L13.91304347826087,-18.823529411764707L13.91304347826087,18.823529411764707L-13.91304347826087,18.823529411764707Z" transform="translate(69.56521739130434,131.76470588235296)" class="sq-1-2 f-11"></path><path d="M-13.91304347826087,-18.823529411764707L13.91304347826087,-18.823529411764707L13.91304347826087,18.823529411764707L-13.91304347826087,18.823529411764707Z" transform="translate(69.56521739130434,169.41176470588235)" class="sq-1-3 f-8"></path><path d="M-13.91304347826087,-18.823529411764707L13.91304347826087,-18.823529411764707L13.91304347826087,18.823529411764707L-13.91304347826087,18.823529411764707Z" transform="translate(69.56521739130434,207.05882352941177)" class="sq-1-4 f-13"></path><path d="M-13.91304347826087,-18.823529411764707L13.91304347826087,-18.823529411764707L13.91304347826087,18.823529411764707L-13.91304347826087,18.823529411764707Z" transform="translate(69.56521739130434,244.7058823529412)" class="sq-1-5 f-2"></path><path d="M-13.91304347826087,-18.823529411764707L13.91304347826087,-18.823529411764707L13.91304347826087,18.823529411764707L-13.91304347826087,18.823529411764707Z" transform="translate(69.56521739130434,282.3529411764706)" class="sq-1-6 f-3"></path><path d="M-13.91304347826087,-18.823529411764707L13.91304347826087,-18.823529411764707L13.91304347826087,18.823529411764707L-13.91304347826087,18.823529411764707Z" transform="translate(69.56521739130434,320)" class="sq-1-7 f-5"></path><path d="M-13.91304347826087,-18.823529411764707L13.91304347826087,-18.823529411764707L13.91304347826087,18.823529411764707L-13.91304347826087,18.823529411764707Z" transform="translate(69.56521739130434,357.64705882352945)" class="sq-1-8 f-2"></path><path d="M-13.91304347826087,-18.823529411764707L13.91304347826087,-18.823529411764707L13.91304347826087,18.823529411764707L-13.91304347826087,18.823529411764707Z" transform="translate(69.56521739130434,395.29411764705884)" class="sq-1-9 f-2"></path><path d="M-13.91304347826087,-18.823529411764707L13.91304347826087,-18.823529411764707L13.91304347826087,18.823529411764707L-13.91304347826087,18.823529411764707Z" transform="translate(69.56521739130434,432.94117647058823)" class="sq-1-10 f-2"></path><path d="M-13.91304347826087,-18.823529411764707L13.91304347826087,-18.823529411764707L13.91304347826087,18.823529411764707L-13.91304347826087,18.823529411764707Z" transform="translate(69.56521739130434,470.5882352941177)" class="sq-1-11 f-0"></path><path d="M-13.91304347826087,-18.823529411764707L13.91304347826087,-18.823529411764707L13.91304347826087,18.823529411764707L-13.91304347826087,18.823529411764707Z" transform="translate(69.56521739130434,508.2352941176471)" class="sq-1-12 f-3"></path><path d="M-13.91304347826087,-18.823529411764707L13.91304347826087,-18.823529411764707L13.91304347826087,18.823529411764707L-13.91304347826087,18.823529411764707Z" transform="translate(69.56521739130434,545.8823529411765)" class="sq-1-13 f-5"></path><path d="M-13.91304347826087,-18.823529411764707L13.91304347826087,-18.823529411764707L13.91304347826087,18.823529411764707L-13.91304347826087,18.823529411764707Z" transform="translate(69.56521739130434,583.5294117647059)" class="sq-1-14 f-2"></path><path d="M-13.91304347826087,-18.823529411764707L13.91304347826087,-18.823529411764707L13.91304347826087,18.823529411764707L-13.91304347826087,18.823529411764707Z" transform="translate(97.39130434782608,56.470588235294116)" class="sq-2-0 f-7"></path><path d="M-13.91304347826087,-18.823529411764707L13.91304347826087,-18.823529411764707L13.91304347826087,18.823529411764707L-13.91304347826087,18.823529411764707Z" transform="translate(97.39130434782608,94.11764705882354)" class="sq-2-1 f-0"></path><path d="M-13.91304347826087,-18.823529411764707L13.91304347826087,-18.823529411764707L13.91304347826087,18.823529411764707L-13.91304347826087,18.823529411764707Z" transform="translate(97.39130434782608,131.76470588235296)" class="sq-2-2 f-12"></path><path d="M-13.91304347826087,-18.823529411764707L13.91304347826087,-18.823529411764707L13.91304347826087,18.823529411764707L-13.91304347826087,18.823529411764707Z" transform="translate(97.39130434782608,169.41176470588235)" class="sq-2-3 f-9"></path><path d="M-13.91304347826087,-18.823529411764707L13.91304347826087,-18.823529411764707L13.91304347826087,18.823529411764707L-13.91304347826087,18.823529411764707Z" transform="translate(97.39130434782608,207.05882352941177)" class="sq-2-4 f-3"></path><path d="M-13.91304347826087,-18.823529411764707L13.91304347826087,-18.823529411764707L13.91304347826087,18.823529411764707L-13.91304347826087,18.823529411764707Z" transform="translate(97.39130434782608,244.7058823529412)" class="sq-2-5 f-2"></path><path d="M-13.91304347826087,-18.823529411764707L13.91304347826087,-18.823529411764707L13.91304347826087,18.823529411764707L-13.91304347826087,18.823529411764707Z" transform="translate(97.39130434782608,282.3529411764706)" class="sq-2-6 f-6"></path><path d="M-13.91304347826087,-18.823529411764707L13.91304347826087,-18.823529411764707L13.91304347826087,18.823529411764707L-13.91304347826087,18.823529411764707Z" transform="translate(97.39130434782608,320)" class="sq-2-7 f-3"></path><path d="M-13.91304347826087,-18.823529411764707L13.91304347826087,-18.823529411764707L13.91304347826087,18.823529411764707L-13.91304347826087,18.823529411764707Z" transform="translate(97.39130434782608,357.64705882352945)" class="sq-2-8 f-0"></path><path d="M-13.91304347826087,-18.823529411764707L13.91304347826087,-18.823529411764707L13.91304347826087,18.823529411764707L-13.91304347826087,18.823529411764707Z" transform="translate(97.39130434782608,395.29411764705884)" class="sq-2-9 f-2"></path><path d="M-13.91304347826087,-18.823529411764707L13.91304347826087,-18.823529411764707L13.91304347826087,18.823529411764707L-13.91304347826087,18.823529411764707Z" transform="translate(97.39130434782608,432.94117647058823)" class="sq-2-10 f-2"></path><path d="M-13.91304347826087,-18.823529411764707L13.91304347826087,-18.823529411764707L13.91304347826087,18.823529411764707L-13.91304347826087,18.823529411764707Z" transform="translate(97.39130434782608,470.5882352941177)" class="sq-2-11 f-1"></path><path d="M-13.91304347826087,-18.823529411764707L13.91304347826087,-18.823529411764707L13.91304347826087,18.823529411764707L-13.91304347826087,18.823529411764707Z" transform="translate(97.39130434782608,508.2352941176471)" class="sq-2-12 f-4"></path><path d="M-13.91304347826087,-18.823529411764707L13.91304347826087,-18.823529411764707L13.91304347826087,18.823529411764707L-13.91304347826087,18.823529411764707Z" transform="translate(97.39130434782608,545.8823529411765)" class="sq-2-13 f-1"></path><path d="M-13.91304347826087,-18.823529411764707L13.91304347826087,-18.823529411764707L13.91304347826087,18.823529411764707L-13.91304347826087,18.823529411764707Z" transform="translate(97.39130434782608,583.5294117647059)" class="sq-2-14 f-11"></path><path d="M-13.91304347826087,-18.823529411764707L13.91304347826087,-18.823529411764707L13.91304347826087,18.823529411764707L-13.91304347826087,18.823529411764707Z" transform="translate(125.21739130434783,56.470588235294116)" class="sq-3-0 f-3"></path><path d="M-13.91304347826087,-18.823529411764707L13.91304347826087,-18.823529411764707L13.91304347826087,18.823529411764707L-13.91304347826087,18.823529411764707Z" transform="translate(125.21739130434783,94.11764705882354)" class="sq-3-1 f-1"></path><path d="M-13.91304347826087,-18.823529411764707L13.91304347826087,-18.823529411764707L13.91304347826087,18.823529411764707L-13.91304347826087,18.823529411764707Z" transform="translate(125.21739130434783,131.76470588235296)" class="sq-3-2 f-3"></path><path d="M-13.91304347826087,-18.823529411764707L13.91304347826087,-18.823529411764707L13.91304347826087,18.823529411764707L-13.91304347826087,18.823529411764707Z" transform="translate(125.21739130434783,169.41176470588235)" class="sq-3-3 f-2"></path><path d="M-13.91304347826087,-18.823529411764707L13.91304347826087,-18.823529411764707L13.91304347826087,18.823529411764707L-13.91304347826087,18.823529411764707Z" transform="translate(125.21739130434783,207.05882352941177)" class="sq-3-4 f-1"></path><path d="M-13.91304347826087,-18.823529411764707L13.91304347826087,-18.823529411764707L13.91304347826087,18.823529411764707L-13.91304347826087,18.823529411764707Z" transform="translate(125.21739130434783,244.7058823529412)" class="sq-3-5 f-2"></path><path d="M-13.91304347826087,-18.823529411764707L13.91304347826087,-18.823529411764707L13.91304347826087,18.823529411764707L-13.91304347826087,18.823529411764707Z" transform="translate(125.21739130434783,282.3529411764706)" class="sq-3-6 f-9"></path><path d="M-13.91304347826087,-18.823529411764707L13.91304347826087,-18.823529411764707L13.91304347826087,18.823529411764707L-13.91304347826087,18.823529411764707Z" transform="translate(125.21739130434783,320)" class="sq-3-7 f-4"></path><path d="M-13.91304347826087,-18.823529411764707L13.91304347826087,-18.823529411764707L13.91304347826087,18.823529411764707L-13.91304347826087,18.823529411764707Z" transform="translate(125.21739130434783,357.64705882352945)" class="sq-3-8 f-3"></path><path d="M-13.91304347826087,-18.823529411764707L13.91304347826087,-18.823529411764707L13.91304347826087,18.823529411764707L-13.91304347826087,18.823529411764707Z" transform="translate(125.21739130434783,395.29411764705884)" class="sq-3-9 f-0"></path><path d="M-13.91304347826087,-18.823529411764707L13.91304347826087,-18.823529411764707L13.91304347826087,18.823529411764707L-13.91304347826087,18.823529411764707Z" transform="translate(125.21739130434783,432.94117647058823)" class="sq-3-10 f-0"></path><path d="M-13.91304347826087,-18.823529411764707L13.91304347826087,-18.823529411764707L13.91304347826087,18.823529411764707L-13.91304347826087,18.823529411764707Z" transform="translate(125.21739130434783,470.5882352941177)" class="sq-3-11 f-3"></path><path d="M-13.91304347826087,-18.823529411764707L13.91304347826087,-18.823529411764707L13.91304347826087,18.823529411764707L-13.91304347826087,18.823529411764707Z" transform="translate(125.21739130434783,508.2352941176471)" class="sq-3-12 f-0"></path><path d="M-13.91304347826087,-18.823529411764707L13.91304347826087,-18.823529411764707L13.91304347826087,18.823529411764707L-13.91304347826087,18.823529411764707Z" transform="translate(125.21739130434783,545.8823529411765)" class="sq-3-13 f-0"></path><path d="M-13.91304347826087,-18.823529411764707L13.91304347826087,-18.823529411764707L13.91304347826087,18.823529411764707L-13.91304347826087,18.823529411764707Z" transform="translate(125.21739130434783,583.5294117647059)" class="sq-3-14 f-3"></path><path d="M-13.91304347826087,-18.823529411764707L13.91304347826087,-18.823529411764707L13.91304347826087,18.823529411764707L-13.91304347826087,18.823529411764707Z" transform="translate(153.04347826086956,56.470588235294116)" class="sq-4-0 f-3"></path><path d="M-13.91304347826087,-18.823529411764707L13.91304347826087,-18.823529411764707L13.91304347826087,18.823529411764707L-13.91304347826087,18.823529411764707Z" transform="translate(153.04347826086956,94.11764705882354)" class="sq-4-1 f-0"></path><path d="M-13.91304347826087,-18.823529411764707L13.91304347826087,-18.823529411764707L13.91304347826087,18.823529411764707L-13.91304347826087,18.823529411764707Z" transform="translate(153.04347826086956,131.76470588235296)" class="sq-4-2 f-2"></path><path d="M-13.91304347826087,-18.823529411764707L13.91304347826087,-18.823529411764707L13.91304347826087,18.823529411764707L-13.91304347826087,18.823529411764707Z" transform="translate(153.04347826086956,169.41176470588235)" class="sq-4-3 f-10"></path><path d="M-13.91304347826087,-18.823529411764707L13.91304347826087,-18.823529411764707L13.91304347826087,18.823529411764707L-13.91304347826087,18.823529411764707Z" transform="translate(153.04347826086956,207.05882352941177)" class="sq-4-4 f-11"></path><path d="M-13.91304347826087,-18.823529411764707L13.91304347826087,-18.823529411764707L13.91304347826087,18.823529411764707L-13.91304347826087,18.823529411764707Z" transform="translate(153.04347826086956,244.7058823529412)" class="sq-4-5 f-1"></path><path d="M-13.91304347826087,-18.823529411764707L13.91304347826087,-18.823529411764707L13.91304347826087,18.823529411764707L-13.91304347826087,18.823529411764707Z" transform="translate(153.04347826086956,282.3529411764706)" class="sq-4-6 f-2"></path><path d="M-13.91304347826087,-18.823529411764707L13.91304347826087,-18.823529411764707L13.91304347826087,18.823529411764707L-13.91304347826087,18.823529411764707Z" transform="translate(153.04347826086956,320)" class="sq-4-7 f-3"></path><path d="M-13.91304347826087,-18.823529411764707L13.91304347826087,-18.823529411764707L13.91304347826087,18.823529411764707L-13.91304347826087,18.823529411764707Z" transform="translate(153.04347826086956,357.64705882352945)" class="sq-4-8 f-9"></path><path d="M-13.91304347826087,-18.823529411764707L13.91304347826087,-18.823529411764707L13.91304347826087,18.823529411764707L-13.91304347826087,18.823529411764707Z" transform="translate(153.04347826086956,395.29411764705884)" class="sq-4-9 f-0"></path><path d="M-13.91304347826087,-18.823529411764707L13.91304347826087,-18.823529411764707L13.91304347826087,18.823529411764707L-13.91304347826087,18.823529411764707Z" transform="translate(153.04347826086956,432.94117647058823)" class="sq-4-10 f-7"></path><path d="M-13.91304347826087,-18.823529411764707L13.91304347826087,-18.823529411764707L13.91304347826087,18.823529411764707L-13.91304347826087,18.823529411764707Z" transform="translate(153.04347826086956,470.5882352941177)" class="sq-4-11 f-1"></path><path d="M-13.91304347826087,-18.823529411764707L13.91304347826087,-18.823529411764707L13.91304347826087,18.823529411764707L-13.91304347826087,18.823529411764707Z" transform="translate(153.04347826086956,508.2352941176471)" class="sq-4-12 f-2"></path><path d="M-13.91304347826087,-18.823529411764707L13.91304347826087,-18.823529411764707L13.91304347826087,18.823529411764707L-13.91304347826087,18.823529411764707Z" transform="translate(153.04347826086956,545.8823529411765)" class="sq-4-13 f-0"></path><path d="M-13.91304347826087,-18.823529411764707L13.91304347826087,-18.823529411764707L13.91304347826087,18.823529411764707L-13.91304347826087,18.823529411764707Z" transform="translate(153.04347826086956,583.5294117647059)" class="sq-4-14 f-1"></path><path d="M-13.91304347826087,-18.823529411764707L13.91304347826087,-18.823529411764707L13.91304347826087,18.823529411764707L-13.91304347826087,18.823529411764707Z" transform="translate(180.8695652173913,56.470588235294116)" class="sq-5-0 f-2"></path><path d="M-13.91304347826087,-18.823529411764707L13.91304347826087,-18.823529411764707L13.91304347826087,18.823529411764707L-13.91304347826087,18.823529411764707Z" transform="translate(180.8695652173913,94.11764705882354)" class="sq-5-1 f-1"></path><path d="M-13.91304347826087,-18.823529411764707L13.91304347826087,-18.823529411764707L13.91304347826087,18.823529411764707L-13.91304347826087,18.823529411764707Z" transform="translate(180.8695652173913,131.76470588235296)" class="sq-5-2 f-0"></path><path d="M-13.91304347826087,-18.823529411764707L13.91304347826087,-18.823529411764707L13.91304347826087,18.823529411764707L-13.91304347826087,18.823529411764707Z" transform="translate(180.8695652173913,169.41176470588235)" class="sq-5-3 f-3"></path><path d="M-13.91304347826087,-18.823529411764707L13.91304347826087,-18.823529411764707L13.91304347826087,18.823529411764707L-13.91304347826087,18.823529411764707Z" transform="translate(180.8695652173913,207.05882352941177)" class="sq-5-4 f-0"></path><path d="M-13.91304347826087,-18.823529411764707L13.91304347826087,-18.823529411764707L13.91304347826087,18.823529411764707L-13.91304347826087,18.823529411764707Z" transform="translate(180.8695652173913,244.7058823529412)" class="sq-5-5 f-14"></path><path d="M-13.91304347826087,-18.823529411764707L13.91304347826087,-18.823529411764707L13.91304347826087,18.823529411764707L-13.91304347826087,18.823529411764707Z" transform="translate(180.8695652173913,282.3529411764706)" class="sq-5-6 f-0"></path><path d="M-13.91304347826087,-18.823529411764707L13.91304347826087,-18.823529411764707L13.91304347826087,18.823529411764707L-13.91304347826087,18.823529411764707Z" transform="translate(180.8695652173913,320)" class="sq-5-7 f-0"></path><path d="M-13.91304347826087,-18.823529411764707L13.91304347826087,-18.823529411764707L13.91304347826087,18.823529411764707L-13.91304347826087,18.823529411764707Z" transform="translate(180.8695652173913,357.64705882352945)" class="sq-5-8 f-3"></path><path d="M-13.91304347826087,-18.823529411764707L13.91304347826087,-18.823529411764707L13.91304347826087,18.823529411764707L-13.91304347826087,18.823529411764707Z" transform="translate(180.8695652173913,395.29411764705884)" class="sq-5-9 f-1"></path><path d="M-13.91304347826087,-18.823529411764707L13.91304347826087,-18.823529411764707L13.91304347826087,18.823529411764707L-13.91304347826087,18.823529411764707Z" transform="translate(180.8695652173913,432.94117647058823)" class="sq-5-10 f-2"></path><path d="M-13.91304347826087,-18.823529411764707L13.91304347826087,-18.823529411764707L13.91304347826087,18.823529411764707L-13.91304347826087,18.823529411764707Z" transform="translate(180.8695652173913,470.5882352941177)" class="sq-5-11 f-0"></path><path d="M-13.91304347826087,-18.823529411764707L13.91304347826087,-18.823529411764707L13.91304347826087,18.823529411764707L-13.91304347826087,18.823529411764707Z" transform="translate(180.8695652173913,508.2352941176471)" class="sq-5-12 f-3"></path><path d="M-13.91304347826087,-18.823529411764707L13.91304347826087,-18.823529411764707L13.91304347826087,18.823529411764707L-13.91304347826087,18.823529411764707Z" transform="translate(180.8695652173913,545.8823529411765)" class="sq-5-13 f-3"></path><path d="M-13.91304347826087,-18.823529411764707L13.91304347826087,-18.823529411764707L13.91304347826087,18.823529411764707L-13.91304347826087,18.823529411764707Z" transform="translate(180.8695652173913,583.5294117647059)" class="sq-5-14 f-1"></path><path d="M-13.91304347826087,-18.823529411764707L13.91304347826087,-18.823529411764707L13.91304347826087,18.823529411764707L-13.91304347826087,18.823529411764707Z" transform="translate(208.69565217391303,56.470588235294116)" class="sq-6-0 f-0"></path><path d="M-13.91304347826087,-18.823529411764707L13.91304347826087,-18.823529411764707L13.91304347826087,18.823529411764707L-13.91304347826087,18.823529411764707Z" transform="translate(208.69565217391303,94.11764705882354)" class="sq-6-1 f-13"></path><path d="M-13.91304347826087,-18.823529411764707L13.91304347826087,-18.823529411764707L13.91304347826087,18.823529411764707L-13.91304347826087,18.823529411764707Z" transform="translate(208.69565217391303,131.76470588235296)" class="sq-6-2 f-2"></path><path d="M-13.91304347826087,-18.823529411764707L13.91304347826087,-18.823529411764707L13.91304347826087,18.823529411764707L-13.91304347826087,18.823529411764707Z" transform="translate(208.69565217391303,169.41176470588235)" class="sq-6-3 f-1"></path><path d="M-13.91304347826087,-18.823529411764707L13.91304347826087,-18.823529411764707L13.91304347826087,18.823529411764707L-13.91304347826087,18.823529411764707Z" transform="translate(208.69565217391303,207.05882352941177)" class="sq-6-4 f-13"></path><path d="M-13.91304347826087,-18.823529411764707L13.91304347826087,-18.823529411764707L13.91304347826087,18.823529411764707L-13.91304347826087,18.823529411764707Z" transform="translate(208.69565217391303,244.7058823529412)" class="sq-6-5 f-1"></path><path d="M-13.91304347826087,-18.823529411764707L13.91304347826087,-18.823529411764707L13.91304347826087,18.823529411764707L-13.91304347826087,18.823529411764707Z" transform="translate(208.69565217391303,282.3529411764706)" class="sq-6-6 f-2"></path><path d="M-13.91304347826087,-18.823529411764707L13.91304347826087,-18.823529411764707L13.91304347826087,18.823529411764707L-13.91304347826087,18.823529411764707Z" transform="translate(208.69565217391303,320)" class="sq-6-7 f-0"></path><path d="M-13.91304347826087,-18.823529411764707L13.91304347826087,-18.823529411764707L13.91304347826087,18.823529411764707L-13.91304347826087,18.823529411764707Z" transform="translate(208.69565217391303,357.64705882352945)" class="sq-6-8 f-10"></path><path d="M-13.91304347826087,-18.823529411764707L13.91304347826087,-18.823529411764707L13.91304347826087,18.823529411764707L-13.91304347826087,18.823529411764707Z" transform="translate(208.69565217391303,395.29411764705884)" class="sq-6-9 f-1"></path><path d="M-13.91304347826087,-18.823529411764707L13.91304347826087,-18.823529411764707L13.91304347826087,18.823529411764707L-13.91304347826087,18.823529411764707Z" transform="translate(208.69565217391303,432.94117647058823)" class="sq-6-10 f-3"></path><path d="M-13.91304347826087,-18.823529411764707L13.91304347826087,-18.823529411764707L13.91304347826087,18.823529411764707L-13.91304347826087,18.823529411764707Z" transform="translate(208.69565217391303,470.5882352941177)" class="sq-6-11 f-8"></path><path d="M-13.91304347826087,-18.823529411764707L13.91304347826087,-18.823529411764707L13.91304347826087,18.823529411764707L-13.91304347826087,18.823529411764707Z" transform="translate(208.69565217391303,508.2352941176471)" class="sq-6-12 f-1"></path><path d="M-13.91304347826087,-18.823529411764707L13.91304347826087,-18.823529411764707L13.91304347826087,18.823529411764707L-13.91304347826087,18.823529411764707Z" transform="translate(208.69565217391303,545.8823529411765)" class="sq-6-13 f-1"></path><path d="M-13.91304347826087,-18.823529411764707L13.91304347826087,-18.823529411764707L13.91304347826087,18.823529411764707L-13.91304347826087,18.823529411764707Z" transform="translate(208.69565217391303,583.5294117647059)" class="sq-6-14 f-2"></path><path d="M-13.91304347826087,-18.823529411764707L13.91304347826087,-18.823529411764707L13.91304347826087,18.823529411764707L-13.91304347826087,18.823529411764707Z" transform="translate(236.52173913043478,56.470588235294116)" class="sq-7-0 f-2"></path><path d="M-13.91304347826087,-18.823529411764707L13.91304347826087,-18.823529411764707L13.91304347826087,18.823529411764707L-13.91304347826087,18.823529411764707Z" transform="translate(236.52173913043478,94.11764705882354)" class="sq-7-1 f-0"></path><path d="M-13.91304347826087,-18.823529411764707L13.91304347826087,-18.823529411764707L13.91304347826087,18.823529411764707L-13.91304347826087,18.823529411764707Z" transform="translate(236.52173913043478,131.76470588235296)" class="sq-7-2 f-8"></path><path d="M-13.91304347826087,-18.823529411764707L13.91304347826087,-18.823529411764707L13.91304347826087,18.823529411764707L-13.91304347826087,18.823529411764707Z" transform="translate(236.52173913043478,169.41176470588235)" class="sq-7-3 f-4"></path><path d="M-13.91304347826087,-18.823529411764707L13.91304347826087,-18.823529411764707L13.91304347826087,18.823529411764707L-13.91304347826087,18.823529411764707Z" transform="translate(236.52173913043478,207.05882352941177)" class="sq-7-4 f-3"></path><path d="M-13.91304347826087,-18.823529411764707L13.91304347826087,-18.823529411764707L13.91304347826087,18.823529411764707L-13.91304347826087,18.823529411764707Z" transform="translate(236.52173913043478,244.7058823529412)" class="sq-7-5 f-2"></path><path d="M-13.91304347826087,-18.823529411764707L13.91304347826087,-18.823529411764707L13.91304347826087,18.823529411764707L-13.91304347826087,18.823529411764707Z" transform="translate(236.52173913043478,282.3529411764706)" class="sq-7-6 f-5"></path><path d="M-13.91304347826087,-18.823529411764707L13.91304347826087,-18.823529411764707L13.91304347826087,18.823529411764707L-13.91304347826087,18.823529411764707Z" transform="translate(236.52173913043478,320)" class="sq-7-7 f-1"></path><path d="M-13.91304347826087,-18.823529411764707L13.91304347826087,-18.823529411764707L13.91304347826087,18.823529411764707L-13.91304347826087,18.823529411764707Z" transform="translate(236.52173913043478,357.64705882352945)" class="sq-7-8 f-2"></path><path d="M-13.91304347826087,-18.823529411764707L13.91304347826087,-18.823529411764707L13.91304347826087,18.823529411764707L-13.91304347826087,18.823529411764707Z" transform="translate(236.52173913043478,395.29411764705884)" class="sq-7-9 f-2"></path><path d="M-13.91304347826087,-18.823529411764707L13.91304347826087,-18.823529411764707L13.91304347826087,18.823529411764707L-13.91304347826087,18.823529411764707Z" transform="translate(236.52173913043478,432.94117647058823)" class="sq-7-10 f-3"></path><path d="M-13.91304347826087,-18.823529411764707L13.91304347826087,-18.823529411764707L13.91304347826087,18.823529411764707L-13.91304347826087,18.823529411764707Z" transform="translate(236.52173913043478,470.5882352941177)" class="sq-7-11 f-3"></path><path d="M-13.91304347826087,-18.823529411764707L13.91304347826087,-18.823529411764707L13.91304347826087,18.823529411764707L-13.91304347826087,18.823529411764707Z" transform="translate(236.52173913043478,508.2352941176471)" class="sq-7-12 f-2"></path><path d="M-13.91304347826087,-18.823529411764707L13.91304347826087,-18.823529411764707L13.91304347826087,18.823529411764707L-13.91304347826087,18.823529411764707Z" transform="translate(236.52173913043478,545.8823529411765)" class="sq-7-13 f-0"></path><path d="M-13.91304347826087,-18.823529411764707L13.91304347826087,-18.823529411764707L13.91304347826087,18.823529411764707L-13.91304347826087,18.823529411764707Z" transform="translate(236.52173913043478,583.5294117647059)" class="sq-7-14 f-8"></path><path d="M-13.91304347826087,-18.823529411764707L13.91304347826087,-18.823529411764707L13.91304347826087,18.823529411764707L-13.91304347826087,18.823529411764707Z" transform="translate(264.3478260869565,56.470588235294116)" class="sq-8-0 f-1"></path><path d="M-13.91304347826087,-18.823529411764707L13.91304347826087,-18.823529411764707L13.91304347826087,18.823529411764707L-13.91304347826087,18.823529411764707Z" transform="translate(264.3478260869565,94.11764705882354)" class="sq-8-1 f-0"></path><path d="M-13.91304347826087,-18.823529411764707L13.91304347826087,-18.823529411764707L13.91304347826087,18.823529411764707L-13.91304347826087,18.823529411764707Z" transform="translate(264.3478260869565,131.76470588235296)" class="sq-8-2 f-0"></path><path d="M-13.91304347826087,-18.823529411764707L13.91304347826087,-18.823529411764707L13.91304347826087,18.823529411764707L-13.91304347826087,18.823529411764707Z" transform="translate(264.3478260869565,169.41176470588235)" class="sq-8-3 f-0"></path><path d="M-13.91304347826087,-18.823529411764707L13.91304347826087,-18.823529411764707L13.91304347826087,18.823529411764707L-13.91304347826087,18.823529411764707Z" transform="translate(264.3478260869565,207.05882352941177)" class="sq-8-4 f-8"></path><path d="M-13.91304347826087,-18.823529411764707L13.91304347826087,-18.823529411764707L13.91304347826087,18.823529411764707L-13.91304347826087,18.823529411764707Z" transform="translate(264.3478260869565,244.7058823529412)" class="sq-8-5 f-0"></path><path d="M-13.91304347826087,-18.823529411764707L13.91304347826087,-18.823529411764707L13.91304347826087,18.823529411764707L-13.91304347826087,18.823529411764707Z" transform="translate(264.3478260869565,282.3529411764706)" class="sq-8-6 f-3"></path><path d="M-13.91304347826087,-18.823529411764707L13.91304347826087,-18.823529411764707L13.91304347826087,18.823529411764707L-13.91304347826087,18.823529411764707Z" transform="translate(264.3478260869565,320)" class="sq-8-7 f-0"></path><path d="M-13.91304347826087,-18.823529411764707L13.91304347826087,-18.823529411764707L13.91304347826087,18.823529411764707L-13.91304347826087,18.823529411764707Z" transform="translate(264.3478260869565,357.64705882352945)" class="sq-8-8 f-2"></path><path d="M-13.91304347826087,-18.823529411764707L13.91304347826087,-18.823529411764707L13.91304347826087,18.823529411764707L-13.91304347826087,18.823529411764707Z" transform="translate(264.3478260869565,395.29411764705884)" class="sq-8-9 f-1"></path><path d="M-13.91304347826087,-18.823529411764707L13.91304347826087,-18.823529411764707L13.91304347826087,18.823529411764707L-13.91304347826087,18.823529411764707Z" transform="translate(264.3478260869565,432.94117647058823)" class="sq-8-10 f-2"></path><path d="M-13.91304347826087,-18.823529411764707L13.91304347826087,-18.823529411764707L13.91304347826087,18.823529411764707L-13.91304347826087,18.823529411764707Z" transform="translate(264.3478260869565,470.5882352941177)" class="sq-8-11 f-3"></path><path d="M-13.91304347826087,-18.823529411764707L13.91304347826087,-18.823529411764707L13.91304347826087,18.823529411764707L-13.91304347826087,18.823529411764707Z" transform="translate(264.3478260869565,508.2352941176471)" class="sq-8-12 f-13"></path><path d="M-13.91304347826087,-18.823529411764707L13.91304347826087,-18.823529411764707L13.91304347826087,18.823529411764707L-13.91304347826087,18.823529411764707Z" transform="translate(264.3478260869565,545.8823529411765)" class="sq-8-13 f-1"></path><path d="M-13.91304347826087,-18.823529411764707L13.91304347826087,-18.823529411764707L13.91304347826087,18.823529411764707L-13.91304347826087,18.823529411764707Z" transform="translate(264.3478260869565,583.5294117647059)" class="sq-8-14 f-2"></path><path d="M-13.91304347826087,-18.823529411764707L13.91304347826087,-18.823529411764707L13.91304347826087,18.823529411764707L-13.91304347826087,18.823529411764707Z" transform="translate(292.17391304347825,56.470588235294116)" class="sq-9-0 f-3"></path><path d="M-13.91304347826087,-18.823529411764707L13.91304347826087,-18.823529411764707L13.91304347826087,18.823529411764707L-13.91304347826087,18.823529411764707Z" transform="translate(292.17391304347825,94.11764705882354)" class="sq-9-1 f-2"></path><path d="M-13.91304347826087,-18.823529411764707L13.91304347826087,-18.823529411764707L13.91304347826087,18.823529411764707L-13.91304347826087,18.823529411764707Z" transform="translate(292.17391304347825,131.76470588235296)" class="sq-9-2 f-3"></path><path d="M-13.91304347826087,-18.823529411764707L13.91304347826087,-18.823529411764707L13.91304347826087,18.823529411764707L-13.91304347826087,18.823529411764707Z" transform="translate(292.17391304347825,169.41176470588235)" class="sq-9-3 f-1"></path><path d="M-13.91304347826087,-18.823529411764707L13.91304347826087,-18.823529411764707L13.91304347826087,18.823529411764707L-13.91304347826087,18.823529411764707Z" transform="translate(292.17391304347825,207.05882352941177)" class="sq-9-4 f-3"></path><path d="M-13.91304347826087,-18.823529411764707L13.91304347826087,-18.823529411764707L13.91304347826087,18.823529411764707L-13.91304347826087,18.823529411764707Z" transform="translate(292.17391304347825,244.7058823529412)" class="sq-9-5 f-16"></path><path d="M-13.91304347826087,-18.823529411764707L13.91304347826087,-18.823529411764707L13.91304347826087,18.823529411764707L-13.91304347826087,18.823529411764707Z" transform="translate(292.17391304347825,282.3529411764706)" class="sq-9-6 f-7"></path><path d="M-13.91304347826087,-18.823529411764707L13.91304347826087,-18.823529411764707L13.91304347826087,18.823529411764707L-13.91304347826087,18.823529411764707Z" transform="translate(292.17391304347825,320)" class="sq-9-7 f-0"></path><path d="M-13.91304347826087,-18.823529411764707L13.91304347826087,-18.823529411764707L13.91304347826087,18.823529411764707L-13.91304347826087,18.823529411764707Z" transform="translate(292.17391304347825,357.64705882352945)" class="sq-9-8 f-13"></path><path d="M-13.91304347826087,-18.823529411764707L13.91304347826087,-18.823529411764707L13.91304347826087,18.823529411764707L-13.91304347826087,18.823529411764707Z" transform="translate(292.17391304347825,395.29411764705884)" class="sq-9-9 f-0"></path><path d="M-13.91304347826087,-18.823529411764707L13.91304347826087,-18.823529411764707L13.91304347826087,18.823529411764707L-13.91304347826087,18.823529411764707Z" transform="translate(292.17391304347825,432.94117647058823)" class="sq-9-10 f-16"></path><path d="M-13.91304347826087,-18.823529411764707L13.91304347826087,-18.823529411764707L13.91304347826087,18.823529411764707L-13.91304347826087,18.823529411764707Z" transform="translate(292.17391304347825,470.5882352941177)" class="sq-9-11 f-0"></path><path d="M-13.91304347826087,-18.823529411764707L13.91304347826087,-18.823529411764707L13.91304347826087,18.823529411764707L-13.91304347826087,18.823529411764707Z" transform="translate(292.17391304347825,508.2352941176471)" class="sq-9-12 f-9"></path><path d="M-13.91304347826087,-18.823529411764707L13.91304347826087,-18.823529411764707L13.91304347826087,18.823529411764707L-13.91304347826087,18.823529411764707Z" transform="translate(292.17391304347825,545.8823529411765)" class="sq-9-13 f-3"></path><path d="M-13.91304347826087,-18.823529411764707L13.91304347826087,-18.823529411764707L13.91304347826087,18.823529411764707L-13.91304347826087,18.823529411764707Z" transform="translate(292.17391304347825,583.5294117647059)" class="sq-9-14 f-1"></path><path d="M-13.91304347826087,-18.823529411764707L13.91304347826087,-18.823529411764707L13.91304347826087,18.823529411764707L-13.91304347826087,18.823529411764707Z" transform="translate(320,56.470588235294116)" class="sq-10-0 f-1"></path><path d="M-13.91304347826087,-18.823529411764707L13.91304347826087,-18.823529411764707L13.91304347826087,18.823529411764707L-13.91304347826087,18.823529411764707Z" transform="translate(320,94.11764705882354)" class="sq-10-1 f-3"></path><path d="M-13.91304347826087,-18.823529411764707L13.91304347826087,-18.823529411764707L13.91304347826087,18.823529411764707L-13.91304347826087,18.823529411764707Z" transform="translate(320,131.76470588235296)" class="sq-10-2 f-1"></path><path d="M-13.91304347826087,-18.823529411764707L13.91304347826087,-18.823529411764707L13.91304347826087,18.823529411764707L-13.91304347826087,18.823529411764707Z" transform="translate(320,169.41176470588235)" class="sq-10-3 f-1"></path><path d="M-13.91304347826087,-18.823529411764707L13.91304347826087,-18.823529411764707L13.91304347826087,18.823529411764707L-13.91304347826087,18.823529411764707Z" transform="translate(320,207.05882352941177)" class="sq-10-4 f-2"></path><path d="M-13.91304347826087,-18.823529411764707L13.91304347826087,-18.823529411764707L13.91304347826087,18.823529411764707L-13.91304347826087,18.823529411764707Z" transform="translate(320,244.7058823529412)" class="sq-10-5 f-0"></path><path d="M-13.91304347826087,-18.823529411764707L13.91304347826087,-18.823529411764707L13.91304347826087,18.823529411764707L-13.91304347826087,18.823529411764707Z" transform="translate(320,282.3529411764706)" class="sq-10-6 f-3"></path><path d="M-13.91304347826087,-18.823529411764707L13.91304347826087,-18.823529411764707L13.91304347826087,18.823529411764707L-13.91304347826087,18.823529411764707Z" transform="translate(320,320)" class="sq-10-7 f-3"></path><path d="M-13.91304347826087,-18.823529411764707L13.91304347826087,-18.823529411764707L13.91304347826087,18.823529411764707L-13.91304347826087,18.823529411764707Z" transform="translate(320,357.64705882352945)" class="sq-10-8 f-2"></path><path d="M-13.91304347826087,-18.823529411764707L13.91304347826087,-18.823529411764707L13.91304347826087,18.823529411764707L-13.91304347826087,18.823529411764707Z" transform="translate(320,395.29411764705884)" class="sq-10-9 f-16"></path><path d="M-13.91304347826087,-18.823529411764707L13.91304347826087,-18.823529411764707L13.91304347826087,18.823529411764707L-13.91304347826087,18.823529411764707Z" transform="translate(320,432.94117647058823)" class="sq-10-10 f-2"></path><path d="M-13.91304347826087,-18.823529411764707L13.91304347826087,-18.823529411764707L13.91304347826087,18.823529411764707L-13.91304347826087,18.823529411764707Z" transform="translate(320,470.5882352941177)" class="sq-10-11 f-0"></path><path d="M-13.91304347826087,-18.823529411764707L13.91304347826087,-18.823529411764707L13.91304347826087,18.823529411764707L-13.91304347826087,18.823529411764707Z" transform="translate(320,508.2352941176471)" class="sq-10-12 f-16"></path><path d="M-13.91304347826087,-18.823529411764707L13.91304347826087,-18.823529411764707L13.91304347826087,18.823529411764707L-13.91304347826087,18.823529411764707Z" transform="translate(320,545.8823529411765)" class="sq-10-13 f-3"></path><path d="M-13.91304347826087,-18.823529411764707L13.91304347826087,-18.823529411764707L13.91304347826087,18.823529411764707L-13.91304347826087,18.823529411764707Z" transform="translate(320,583.5294117647059)" class="sq-10-14 f-3"></path><path d="M-13.91304347826087,-18.823529411764707L13.91304347826087,-18.823529411764707L13.91304347826087,18.823529411764707L-13.91304347826087,18.823529411764707Z" transform="translate(347.82608695652175,56.470588235294116)" class="sq-11-0 f-3"></path><path d="M-13.91304347826087,-18.823529411764707L13.91304347826087,-18.823529411764707L13.91304347826087,18.823529411764707L-13.91304347826087,18.823529411764707Z" transform="translate(347.82608695652175,94.11764705882354)" class="sq-11-1 f-3"></path><path d="M-13.91304347826087,-18.823529411764707L13.91304347826087,-18.823529411764707L13.91304347826087,18.823529411764707L-13.91304347826087,18.823529411764707Z" transform="translate(347.82608695652175,131.76470588235296)" class="sq-11-2 f-3"></path><path d="M-13.91304347826087,-18.823529411764707L13.91304347826087,-18.823529411764707L13.91304347826087,18.823529411764707L-13.91304347826087,18.823529411764707Z" transform="translate(347.82608695652175,169.41176470588235)" class="sq-11-3 f-0"></path><path d="M-13.91304347826087,-18.823529411764707L13.91304347826087,-18.823529411764707L13.91304347826087,18.823529411764707L-13.91304347826087,18.823529411764707Z" transform="translate(347.82608695652175,207.05882352941177)" class="sq-11-4 f-2"></path><path d="M-13.91304347826087,-18.823529411764707L13.91304347826087,-18.823529411764707L13.91304347826087,18.823529411764707L-13.91304347826087,18.823529411764707Z" transform="translate(347.82608695652175,244.7058823529412)" class="sq-11-5 f-2"></path><path d="M-13.91304347826087,-18.823529411764707L13.91304347826087,-18.823529411764707L13.91304347826087,18.823529411764707L-13.91304347826087,18.823529411764707Z" transform="translate(347.82608695652175,282.3529411764706)" class="sq-11-6 f-1"></path><path d="M-13.91304347826087,-18.823529411764707L13.91304347826087,-18.823529411764707L13.91304347826087,18.823529411764707L-13.91304347826087,18.823529411764707Z" transform="translate(347.82608695652175,320)" class="sq-11-7 f-1"></path><path d="M-13.91304347826087,-18.823529411764707L13.91304347826087,-18.823529411764707L13.91304347826087,18.823529411764707L-13.91304347826087,18.823529411764707Z" transform="translate(347.82608695652175,357.64705882352945)" class="sq-11-8 f-2"></path><path d="M-13.91304347826087,-18.823529411764707L13.91304347826087,-18.823529411764707L13.91304347826087,18.823529411764707L-13.91304347826087,18.823529411764707Z" transform="translate(347.82608695652175,395.29411764705884)" class="sq-11-9 f-13"></path><path d="M-13.91304347826087,-18.823529411764707L13.91304347826087,-18.823529411764707L13.91304347826087,18.823529411764707L-13.91304347826087,18.823529411764707Z" transform="translate(347.82608695652175,432.94117647058823)" class="sq-11-10 f-0"></path><path d="M-13.91304347826087,-18.823529411764707L13.91304347826087,-18.823529411764707L13.91304347826087,18.823529411764707L-13.91304347826087,18.823529411764707Z" transform="translate(347.82608695652175,470.5882352941177)" class="sq-11-11 f-2"></path><path d="M-13.91304347826087,-18.823529411764707L13.91304347826087,-18.823529411764707L13.91304347826087,18.823529411764707L-13.91304347826087,18.823529411764707Z" transform="translate(347.82608695652175,508.2352941176471)" class="sq-11-12 f-1"></path><path d="M-13.91304347826087,-18.823529411764707L13.91304347826087,-18.823529411764707L13.91304347826087,18.823529411764707L-13.91304347826087,18.823529411764707Z" transform="translate(347.82608695652175,545.8823529411765)" class="sq-11-13 f-3"></path><path d="M-13.91304347826087,-18.823529411764707L13.91304347826087,-18.823529411764707L13.91304347826087,18.823529411764707L-13.91304347826087,18.823529411764707Z" transform="translate(347.82608695652175,583.5294117647059)" class="sq-11-14 f-3"></path><path d="M-13.91304347826087,-18.823529411764707L13.91304347826087,-18.823529411764707L13.91304347826087,18.823529411764707L-13.91304347826087,18.823529411764707Z" transform="translate(375.65217391304344,56.470588235294116)" class="sq-12-0 f-0"></path><path d="M-13.91304347826087,-18.823529411764707L13.91304347826087,-18.823529411764707L13.91304347826087,18.823529411764707L-13.91304347826087,18.823529411764707Z" transform="translate(375.65217391304344,94.11764705882354)" class="sq-12-1 f-1"></path><path d="M-13.91304347826087,-18.823529411764707L13.91304347826087,-18.823529411764707L13.91304347826087,18.823529411764707L-13.91304347826087,18.823529411764707Z" transform="translate(375.65217391304344,131.76470588235296)" class="sq-12-2 f-2"></path><path d="M-13.91304347826087,-18.823529411764707L13.91304347826087,-18.823529411764707L13.91304347826087,18.823529411764707L-13.91304347826087,18.823529411764707Z" transform="translate(375.65217391304344,169.41176470588235)" class="sq-12-3 f-1"></path><path d="M-13.91304347826087,-18.823529411764707L13.91304347826087,-18.823529411764707L13.91304347826087,18.823529411764707L-13.91304347826087,18.823529411764707Z" transform="translate(375.65217391304344,207.05882352941177)" class="sq-12-4 f-0"></path><path d="M-13.91304347826087,-18.823529411764707L13.91304347826087,-18.823529411764707L13.91304347826087,18.823529411764707L-13.91304347826087,18.823529411764707Z" transform="translate(375.65217391304344,244.7058823529412)" class="sq-12-5 f-12"></path><path d="M-13.91304347826087,-18.823529411764707L13.91304347826087,-18.823529411764707L13.91304347826087,18.823529411764707L-13.91304347826087,18.823529411764707Z" transform="translate(375.65217391304344,282.3529411764706)" class="sq-12-6 f-0"></path><path d="M-13.91304347826087,-18.823529411764707L13.91304347826087,-18.823529411764707L13.91304347826087,18.823529411764707L-13.91304347826087,18.823529411764707Z" transform="translate(375.65217391304344,320)" class="sq-12-7 f-3"></path><path d="M-13.91304347826087,-18.823529411764707L13.91304347826087,-18.823529411764707L13.91304347826087,18.823529411764707L-13.91304347826087,18.823529411764707Z" transform="translate(375.65217391304344,357.64705882352945)" class="sq-12-8 f-2"></path><path d="M-13.91304347826087,-18.823529411764707L13.91304347826087,-18.823529411764707L13.91304347826087,18.823529411764707L-13.91304347826087,18.823529411764707Z" transform="translate(375.65217391304344,395.29411764705884)" class="sq-12-9 f-2"></path><path d="M-13.91304347826087,-18.823529411764707L13.91304347826087,-18.823529411764707L13.91304347826087,18.823529411764707L-13.91304347826087,18.823529411764707Z" transform="translate(375.65217391304344,432.94117647058823)" class="sq-12-10 f-14"></path><path d="M-13.91304347826087,-18.823529411764707L13.91304347826087,-18.823529411764707L13.91304347826087,18.823529411764707L-13.91304347826087,18.823529411764707Z" transform="translate(375.65217391304344,470.5882352941177)" class="sq-12-11 f-3"></path><path d="M-13.91304347826087,-18.823529411764707L13.91304347826087,-18.823529411764707L13.91304347826087,18.823529411764707L-13.91304347826087,18.823529411764707Z" transform="translate(375.65217391304344,508.2352941176471)" class="sq-12-12 f-0"></path><path d="M-13.91304347826087,-18.823529411764707L13.91304347826087,-18.823529411764707L13.91304347826087,18.823529411764707L-13.91304347826087,18.823529411764707Z" transform="translate(375.65217391304344,545.8823529411765)" class="sq-12-13 f-2"></path><path d="M-13.91304347826087,-18.823529411764707L13.91304347826087,-18.823529411764707L13.91304347826087,18.823529411764707L-13.91304347826087,18.823529411764707Z" transform="translate(375.65217391304344,583.5294117647059)" class="sq-12-14 f-0"></path><path d="M-13.91304347826087,-18.823529411764707L13.91304347826087,-18.823529411764707L13.91304347826087,18.823529411764707L-13.91304347826087,18.823529411764707Z" transform="translate(403.4782608695652,56.470588235294116)" class="sq-13-0 f-2"></path><path d="M-13.91304347826087,-18.823529411764707L13.91304347826087,-18.823529411764707L13.91304347826087,18.823529411764707L-13.91304347826087,18.823529411764707Z" transform="translate(403.4782608695652,94.11764705882354)" class="sq-13-1 f-11"></path><path d="M-13.91304347826087,-18.823529411764707L13.91304347826087,-18.823529411764707L13.91304347826087,18.823529411764707L-13.91304347826087,18.823529411764707Z" transform="translate(403.4782608695652,131.76470588235296)" class="sq-13-2 f-3"></path><path d="M-13.91304347826087,-18.823529411764707L13.91304347826087,-18.823529411764707L13.91304347826087,18.823529411764707L-13.91304347826087,18.823529411764707Z" transform="translate(403.4782608695652,169.41176470588235)" class="sq-13-3 f-8"></path><path d="M-13.91304347826087,-18.823529411764707L13.91304347826087,-18.823529411764707L13.91304347826087,18.823529411764707L-13.91304347826087,18.823529411764707Z" transform="translate(403.4782608695652,207.05882352941177)" class="sq-13-4 f-0"></path><path d="M-13.91304347826087,-18.823529411764707L13.91304347826087,-18.823529411764707L13.91304347826087,18.823529411764707L-13.91304347826087,18.823529411764707Z" transform="translate(403.4782608695652,244.7058823529412)" class="sq-13-5 f-2"></path><path d="M-13.91304347826087,-18.823529411764707L13.91304347826087,-18.823529411764707L13.91304347826087,18.823529411764707L-13.91304347826087,18.823529411764707Z" transform="translate(403.4782608695652,282.3529411764706)" class="sq-13-6 f-0"></path><path d="M-13.91304347826087,-18.823529411764707L13.91304347826087,-18.823529411764707L13.91304347826087,18.823529411764707L-13.91304347826087,18.823529411764707Z" transform="translate(403.4782608695652,320)" class="sq-13-7 f-13"></path><path d="M-13.91304347826087,-18.823529411764707L13.91304347826087,-18.823529411764707L13.91304347826087,18.823529411764707L-13.91304347826087,18.823529411764707Z" transform="translate(403.4782608695652,357.64705882352945)" class="sq-13-8 f-2"></path><path d="M-13.91304347826087,-18.823529411764707L13.91304347826087,-18.823529411764707L13.91304347826087,18.823529411764707L-13.91304347826087,18.823529411764707Z" transform="translate(403.4782608695652,395.29411764705884)" class="sq-13-9 f-14"></path><path d="M-13.91304347826087,-18.823529411764707L13.91304347826087,-18.823529411764707L13.91304347826087,18.823529411764707L-13.91304347826087,18.823529411764707Z" transform="translate(403.4782608695652,432.94117647058823)" class="sq-13-10 f-0"></path><path d="M-13.91304347826087,-18.823529411764707L13.91304347826087,-18.823529411764707L13.91304347826087,18.823529411764707L-13.91304347826087,18.823529411764707Z" transform="translate(403.4782608695652,470.5882352941177)" class="sq-13-11 f-10"></path><path d="M-13.91304347826087,-18.823529411764707L13.91304347826087,-18.823529411764707L13.91304347826087,18.823529411764707L-13.91304347826087,18.823529411764707Z" transform="translate(403.4782608695652,508.2352941176471)" class="sq-13-12 f-11"></path><path d="M-13.91304347826087,-18.823529411764707L13.91304347826087,-18.823529411764707L13.91304347826087,18.823529411764707L-13.91304347826087,18.823529411764707Z" transform="translate(403.4782608695652,545.8823529411765)" class="sq-13-13 f-2"></path><path d="M-13.91304347826087,-18.823529411764707L13.91304347826087,-18.823529411764707L13.91304347826087,18.823529411764707L-13.91304347826087,18.823529411764707Z" transform="translate(403.4782608695652,583.5294117647059)" class="sq-13-14 f-3"></path><path d="M-13.91304347826087,-18.823529411764707L13.91304347826087,-18.823529411764707L13.91304347826087,18.823529411764707L-13.91304347826087,18.823529411764707Z" transform="translate(431.30434782608694,56.470588235294116)" class="sq-14-0 f-1"></path><path d="M-13.91304347826087,-18.823529411764707L13.91304347826087,-18.823529411764707L13.91304347826087,18.823529411764707L-13.91304347826087,18.823529411764707Z" transform="translate(431.30434782608694,94.11764705882354)" class="sq-14-1 f-7"></path><path d="M-13.91304347826087,-18.823529411764707L13.91304347826087,-18.823529411764707L13.91304347826087,18.823529411764707L-13.91304347826087,18.823529411764707Z" transform="translate(431.30434782608694,131.76470588235296)" class="sq-14-2 f-14"></path><path d="M-13.91304347826087,-18.823529411764707L13.91304347826087,-18.823529411764707L13.91304347826087,18.823529411764707L-13.91304347826087,18.823529411764707Z" transform="translate(431.30434782608694,169.41176470588235)" class="sq-14-3 f-0"></path><path d="M-13.91304347826087,-18.823529411764707L13.91304347826087,-18.823529411764707L13.91304347826087,18.823529411764707L-13.91304347826087,18.823529411764707Z" transform="translate(431.30434782608694,207.05882352941177)" class="sq-14-4 f-14"></path><path d="M-13.91304347826087,-18.823529411764707L13.91304347826087,-18.823529411764707L13.91304347826087,18.823529411764707L-13.91304347826087,18.823529411764707Z" transform="translate(431.30434782608694,244.7058823529412)" class="sq-14-5 f-3"></path><path d="M-13.91304347826087,-18.823529411764707L13.91304347826087,-18.823529411764707L13.91304347826087,18.823529411764707L-13.91304347826087,18.823529411764707Z" transform="translate(431.30434782608694,282.3529411764706)" class="sq-14-6 f-10"></path><path d="M-13.91304347826087,-18.823529411764707L13.91304347826087,-18.823529411764707L13.91304347826087,18.823529411764707L-13.91304347826087,18.823529411764707Z" transform="translate(431.30434782608694,320)" class="sq-14-7 f-10"></path><path d="M-13.91304347826087,-18.823529411764707L13.91304347826087,-18.823529411764707L13.91304347826087,18.823529411764707L-13.91304347826087,18.823529411764707Z" transform="translate(431.30434782608694,357.64705882352945)" class="sq-14-8 f-2"></path><path d="M-13.91304347826087,-18.823529411764707L13.91304347826087,-18.823529411764707L13.91304347826087,18.823529411764707L-13.91304347826087,18.823529411764707Z" transform="translate(431.30434782608694,395.29411764705884)" class="sq-14-9 f-0"></path><path d="M-13.91304347826087,-18.823529411764707L13.91304347826087,-18.823529411764707L13.91304347826087,18.823529411764707L-13.91304347826087,18.823529411764707Z" transform="translate(431.30434782608694,432.94117647058823)" class="sq-14-10 f-5"></path><path d="M-13.91304347826087,-18.823529411764707L13.91304347826087,-18.823529411764707L13.91304347826087,18.823529411764707L-13.91304347826087,18.823529411764707Z" transform="translate(431.30434782608694,470.5882352941177)" class="sq-14-11 f-2"></path><path d="M-13.91304347826087,-18.823529411764707L13.91304347826087,-18.823529411764707L13.91304347826087,18.823529411764707L-13.91304347826087,18.823529411764707Z" transform="translate(431.30434782608694,508.2352941176471)" class="sq-14-12 f-3"></path><path d="M-13.91304347826087,-18.823529411764707L13.91304347826087,-18.823529411764707L13.91304347826087,18.823529411764707L-13.91304347826087,18.823529411764707Z" transform="translate(431.30434782608694,545.8823529411765)" class="sq-14-13 f-2"></path><path d="M-13.91304347826087,-18.823529411764707L13.91304347826087,-18.823529411764707L13.91304347826087,18.823529411764707L-13.91304347826087,18.823529411764707Z" transform="translate(431.30434782608694,583.5294117647059)" class="sq-14-14 f-7"></path><path d="M-13.91304347826087,-18.823529411764707L13.91304347826087,-18.823529411764707L13.91304347826087,18.823529411764707L-13.91304347826087,18.823529411764707Z" transform="translate(459.1304347826087,56.470588235294116)" class="sq-15-0 f-3"></path><path d="M-13.91304347826087,-18.823529411764707L13.91304347826087,-18.823529411764707L13.91304347826087,18.823529411764707L-13.91304347826087,18.823529411764707Z" transform="translate(459.1304347826087,94.11764705882354)" class="sq-15-1 f-0"></path><path d="M-13.91304347826087,-18.823529411764707L13.91304347826087,-18.823529411764707L13.91304347826087,18.823529411764707L-13.91304347826087,18.823529411764707Z" transform="translate(459.1304347826087,131.76470588235296)" class="sq-15-2 f-3"></path><path d="M-13.91304347826087,-18.823529411764707L13.91304347826087,-18.823529411764707L13.91304347826087,18.823529411764707L-13.91304347826087,18.823529411764707Z" transform="translate(459.1304347826087,169.41176470588235)" class="sq-15-3 f-2"></path><path d="M-13.91304347826087,-18.823529411764707L13.91304347826087,-18.823529411764707L13.91304347826087,18.823529411764707L-13.91304347826087,18.823529411764707Z" transform="translate(459.1304347826087,207.05882352941177)" class="sq-15-4 f-8"></path><path d="M-13.91304347826087,-18.823529411764707L13.91304347826087,-18.823529411764707L13.91304347826087,18.823529411764707L-13.91304347826087,18.823529411764707Z" transform="translate(459.1304347826087,244.7058823529412)" class="sq-15-5 f-15"></path><path d="M-13.91304347826087,-18.823529411764707L13.91304347826087,-18.823529411764707L13.91304347826087,18.823529411764707L-13.91304347826087,18.823529411764707Z" transform="translate(459.1304347826087,282.3529411764706)" class="sq-15-6 f-2"></path><path d="M-13.91304347826087,-18.823529411764707L13.91304347826087,-18.823529411764707L13.91304347826087,18.823529411764707L-13.91304347826087,18.823529411764707Z" transform="translate(459.1304347826087,320)" class="sq-15-7 f-3"></path><path d="M-13.91304347826087,-18.823529411764707L13.91304347826087,-18.823529411764707L13.91304347826087,18.823529411764707L-13.91304347826087,18.823529411764707Z" transform="translate(459.1304347826087,357.64705882352945)" class="sq-15-8 f-2"></path><path d="M-13.91304347826087,-18.823529411764707L13.91304347826087,-18.823529411764707L13.91304347826087,18.823529411764707L-13.91304347826087,18.823529411764707Z" transform="translate(459.1304347826087,395.29411764705884)" class="sq-15-9 f-11"></path><path d="M-13.91304347826087,-18.823529411764707L13.91304347826087,-18.823529411764707L13.91304347826087,18.823529411764707L-13.91304347826087,18.823529411764707Z" transform="translate(459.1304347826087,432.94117647058823)" class="sq-15-10 f-3"></path><path d="M-13.91304347826087,-18.823529411764707L13.91304347826087,-18.823529411764707L13.91304347826087,18.823529411764707L-13.91304347826087,18.823529411764707Z" transform="translate(459.1304347826087,470.5882352941177)" class="sq-15-11 f-1"></path><path d="M-13.91304347826087,-18.823529411764707L13.91304347826087,-18.823529411764707L13.91304347826087,18.823529411764707L-13.91304347826087,18.823529411764707Z" transform="translate(459.1304347826087,508.2352941176471)" class="sq-15-12 f-1"></path><path d="M-13.91304347826087,-18.823529411764707L13.91304347826087,-18.823529411764707L13.91304347826087,18.823529411764707L-13.91304347826087,18.823529411764707Z" transform="translate(459.1304347826087,545.8823529411765)" class="sq-15-13 f-16"></path><path d="M-13.91304347826087,-18.823529411764707L13.91304347826087,-18.823529411764707L13.91304347826087,18.823529411764707L-13.91304347826087,18.823529411764707Z" transform="translate(459.1304347826087,583.5294117647059)" class="sq-15-14 f-3"></path><path d="M-13.91304347826087,-18.823529411764707L13.91304347826087,-18.823529411764707L13.91304347826087,18.823529411764707L-13.91304347826087,18.823529411764707Z" transform="translate(486.95652173913044,56.470588235294116)" class="sq-16-0 f-11"></path><path d="M-13.91304347826087,-18.823529411764707L13.91304347826087,-18.823529411764707L13.91304347826087,18.823529411764707L-13.91304347826087,18.823529411764707Z" transform="translate(486.95652173913044,94.11764705882354)" class="sq-16-1 f-2"></path><path d="M-13.91304347826087,-18.823529411764707L13.91304347826087,-18.823529411764707L13.91304347826087,18.823529411764707L-13.91304347826087,18.823529411764707Z" transform="translate(486.95652173913044,131.76470588235296)" class="sq-16-2 f-0"></path><path d="M-13.91304347826087,-18.823529411764707L13.91304347826087,-18.823529411764707L13.91304347826087,18.823529411764707L-13.91304347826087,18.823529411764707Z" transform="translate(486.95652173913044,169.41176470588235)" class="sq-16-3 f-1"></path><path d="M-13.91304347826087,-18.823529411764707L13.91304347826087,-18.823529411764707L13.91304347826087,18.823529411764707L-13.91304347826087,18.823529411764707Z" transform="translate(486.95652173913044,207.05882352941177)" class="sq-16-4 f-0"></path><path d="M-13.91304347826087,-18.823529411764707L13.91304347826087,-18.823529411764707L13.91304347826087,18.823529411764707L-13.91304347826087,18.823529411764707Z" transform="translate(486.95652173913044,244.7058823529412)" class="sq-16-5 f-2"></path><path d="M-13.91304347826087,-18.823529411764707L13.91304347826087,-18.823529411764707L13.91304347826087,18.823529411764707L-13.91304347826087,18.823529411764707Z" transform="translate(486.95652173913044,282.3529411764706)" class="sq-16-6 f-2"></path><path d="M-13.91304347826087,-18.823529411764707L13.91304347826087,-18.823529411764707L13.91304347826087,18.823529411764707L-13.91304347826087,18.823529411764707Z" transform="translate(486.95652173913044,320)" class="sq-16-7 f-1"></path><path d="M-13.91304347826087,-18.823529411764707L13.91304347826087,-18.823529411764707L13.91304347826087,18.823529411764707L-13.91304347826087,18.823529411764707Z" transform="translate(486.95652173913044,357.64705882352945)" class="sq-16-8 f-3"></path><path d="M-13.91304347826087,-18.823529411764707L13.91304347826087,-18.823529411764707L13.91304347826087,18.823529411764707L-13.91304347826087,18.823529411764707Z" transform="translate(486.95652173913044,395.29411764705884)" class="sq-16-9 f-6"></path><path d="M-13.91304347826087,-18.823529411764707L13.91304347826087,-18.823529411764707L13.91304347826087,18.823529411764707L-13.91304347826087,18.823529411764707Z" transform="translate(486.95652173913044,432.94117647058823)" class="sq-16-10 f-1"></path><path d="M-13.91304347826087,-18.823529411764707L13.91304347826087,-18.823529411764707L13.91304347826087,18.823529411764707L-13.91304347826087,18.823529411764707Z" transform="translate(486.95652173913044,470.5882352941177)" class="sq-16-11 f-2"></path><path d="M-13.91304347826087,-18.823529411764707L13.91304347826087,-18.823529411764707L13.91304347826087,18.823529411764707L-13.91304347826087,18.823529411764707Z" transform="translate(486.95652173913044,508.2352941176471)" class="sq-16-12 f-0"></path><path d="M-13.91304347826087,-18.823529411764707L13.91304347826087,-18.823529411764707L13.91304347826087,18.823529411764707L-13.91304347826087,18.823529411764707Z" transform="translate(486.95652173913044,545.8823529411765)" class="sq-16-13 f-4"></path><path d="M-13.91304347826087,-18.823529411764707L13.91304347826087,-18.823529411764707L13.91304347826087,18.823529411764707L-13.91304347826087,18.823529411764707Z" transform="translate(486.95652173913044,583.5294117647059)" class="sq-16-14 f-0"></path><path d="M-13.91304347826087,-18.823529411764707L13.91304347826087,-18.823529411764707L13.91304347826087,18.823529411764707L-13.91304347826087,18.823529411764707Z" transform="translate(514.7826086956521,56.470588235294116)" class="sq-17-0 f-16"></path><path d="M-13.91304347826087,-18.823529411764707L13.91304347826087,-18.823529411764707L13.91304347826087,18.823529411764707L-13.91304347826087,18.823529411764707Z" transform="translate(514.7826086956521,94.11764705882354)" class="sq-17-1 f-0"></path><path d="M-13.91304347826087,-18.823529411764707L13.91304347826087,-18.823529411764707L13.91304347826087,18.823529411764707L-13.91304347826087,18.823529411764707Z" transform="translate(514.7826086956521,131.76470588235296)" class="sq-17-2 f-4"></path><path d="M-13.91304347826087,-18.823529411764707L13.91304347826087,-18.823529411764707L13.91304347826087,18.823529411764707L-13.91304347826087,18.823529411764707Z" transform="translate(514.7826086956521,169.41176470588235)" class="sq-17-3 f-1"></path><path d="M-13.91304347826087,-18.823529411764707L13.91304347826087,-18.823529411764707L13.91304347826087,18.823529411764707L-13.91304347826087,18.823529411764707Z" transform="translate(514.7826086956521,207.05882352941177)" class="sq-17-4 f-2"></path><path d="M-13.91304347826087,-18.823529411764707L13.91304347826087,-18.823529411764707L13.91304347826087,18.823529411764707L-13.91304347826087,18.823529411764707Z" transform="translate(514.7826086956521,244.7058823529412)" class="sq-17-5 f-1"></path><path d="M-13.91304347826087,-18.823529411764707L13.91304347826087,-18.823529411764707L13.91304347826087,18.823529411764707L-13.91304347826087,18.823529411764707Z" transform="translate(514.7826086956521,282.3529411764706)" class="sq-17-6 f-6"></path><path d="M-13.91304347826087,-18.823529411764707L13.91304347826087,-18.823529411764707L13.91304347826087,18.823529411764707L-13.91304347826087,18.823529411764707Z" transform="translate(514.7826086956521,320)" class="sq-17-7 f-2"></path><path d="M-13.91304347826087,-18.823529411764707L13.91304347826087,-18.823529411764707L13.91304347826087,18.823529411764707L-13.91304347826087,18.823529411764707Z" transform="translate(514.7826086956521,357.64705882352945)" class="sq-17-8 f-1"></path><path d="M-13.91304347826087,-18.823529411764707L13.91304347826087,-18.823529411764707L13.91304347826087,18.823529411764707L-13.91304347826087,18.823529411764707Z" transform="translate(514.7826086956521,395.29411764705884)" class="sq-17-9 f-2"></path><path d="M-13.91304347826087,-18.823529411764707L13.91304347826087,-18.823529411764707L13.91304347826087,18.823529411764707L-13.91304347826087,18.823529411764707Z" transform="translate(514.7826086956521,432.94117647058823)" class="sq-17-10 f-0"></path><path d="M-13.91304347826087,-18.823529411764707L13.91304347826087,-18.823529411764707L13.91304347826087,18.823529411764707L-13.91304347826087,18.823529411764707Z" transform="translate(514.7826086956521,470.5882352941177)" class="sq-17-11 f-16"></path><path d="M-13.91304347826087,-18.823529411764707L13.91304347826087,-18.823529411764707L13.91304347826087,18.823529411764707L-13.91304347826087,18.823529411764707Z" transform="translate(514.7826086956521,508.2352941176471)" class="sq-17-12 f-3"></path><path d="M-13.91304347826087,-18.823529411764707L13.91304347826087,-18.823529411764707L13.91304347826087,18.823529411764707L-13.91304347826087,18.823529411764707Z" transform="translate(514.7826086956521,545.8823529411765)" class="sq-17-13 f-0"></path><path d="M-13.91304347826087,-18.823529411764707L13.91304347826087,-18.823529411764707L13.91304347826087,18.823529411764707L-13.91304347826087,18.823529411764707Z" transform="translate(514.7826086956521,583.5294117647059)" class="sq-17-14 f-0"></path><path d="M-13.91304347826087,-18.823529411764707L13.91304347826087,-18.823529411764707L13.91304347826087,18.823529411764707L-13.91304347826087,18.823529411764707Z" transform="translate(542.6086956521739,56.470588235294116)" class="sq-18-0 f-2"></path><path d="M-13.91304347826087,-18.823529411764707L13.91304347826087,-18.823529411764707L13.91304347826087,18.823529411764707L-13.91304347826087,18.823529411764707Z" transform="translate(542.6086956521739,94.11764705882354)" class="sq-18-1 f-2"></path><path d="M-13.91304347826087,-18.823529411764707L13.91304347826087,-18.823529411764707L13.91304347826087,18.823529411764707L-13.91304347826087,18.823529411764707Z" transform="translate(542.6086956521739,131.76470588235296)" class="sq-18-2 f-3"></path><path d="M-13.91304347826087,-18.823529411764707L13.91304347826087,-18.823529411764707L13.91304347826087,18.823529411764707L-13.91304347826087,18.823529411764707Z" transform="translate(542.6086956521739,169.41176470588235)" class="sq-18-3 f-15"></path><path d="M-13.91304347826087,-18.823529411764707L13.91304347826087,-18.823529411764707L13.91304347826087,18.823529411764707L-13.91304347826087,18.823529411764707Z" transform="translate(542.6086956521739,207.05882352941177)" class="sq-18-4 f-3"></path><path d="M-13.91304347826087,-18.823529411764707L13.91304347826087,-18.823529411764707L13.91304347826087,18.823529411764707L-13.91304347826087,18.823529411764707Z" transform="translate(542.6086956521739,244.7058823529412)" class="sq-18-5 f-1"></path><path d="M-13.91304347826087,-18.823529411764707L13.91304347826087,-18.823529411764707L13.91304347826087,18.823529411764707L-13.91304347826087,18.823529411764707Z" transform="translate(542.6086956521739,282.3529411764706)" class="sq-18-6 f-3"></path><path d="M-13.91304347826087,-18.823529411764707L13.91304347826087,-18.823529411764707L13.91304347826087,18.823529411764707L-13.91304347826087,18.823529411764707Z" transform="translate(542.6086956521739,320)" class="sq-18-7 f-2"></path><path d="M-13.91304347826087,-18.823529411764707L13.91304347826087,-18.823529411764707L13.91304347826087,18.823529411764707L-13.91304347826087,18.823529411764707Z" transform="translate(542.6086956521739,357.64705882352945)" class="sq-18-8 f-0"></path><path d="M-13.91304347826087,-18.823529411764707L13.91304347826087,-18.823529411764707L13.91304347826087,18.823529411764707L-13.91304347826087,18.823529411764707Z" transform="translate(542.6086956521739,395.29411764705884)" class="sq-18-9 f-5"></path><path d="M-13.91304347826087,-18.823529411764707L13.91304347826087,-18.823529411764707L13.91304347826087,18.823529411764707L-13.91304347826087,18.823529411764707Z" transform="translate(542.6086956521739,432.94117647058823)" class="sq-18-10 f-3"></path><path d="M-13.91304347826087,-18.823529411764707L13.91304347826087,-18.823529411764707L13.91304347826087,18.823529411764707L-13.91304347826087,18.823529411764707Z" transform="translate(542.6086956521739,470.5882352941177)" class="sq-18-11 f-1"></path><path d="M-13.91304347826087,-18.823529411764707L13.91304347826087,-18.823529411764707L13.91304347826087,18.823529411764707L-13.91304347826087,18.823529411764707Z" transform="translate(542.6086956521739,508.2352941176471)" class="sq-18-12 f-3"></path><path d="M-13.91304347826087,-18.823529411764707L13.91304347826087,-18.823529411764707L13.91304347826087,18.823529411764707L-13.91304347826087,18.823529411764707Z" transform="translate(542.6086956521739,545.8823529411765)" class="sq-18-13 f-2"></path><path d="M-13.91304347826087,-18.823529411764707L13.91304347826087,-18.823529411764707L13.91304347826087,18.823529411764707L-13.91304347826087,18.823529411764707Z" transform="translate(542.6086956521739,583.5294117647059)" class="sq-18-14 f-9"></path><path d="M-13.91304347826087,-18.823529411764707L13.91304347826087,-18.823529411764707L13.91304347826087,18.823529411764707L-13.91304347826087,18.823529411764707Z" transform="translate(570.4347826086956,56.470588235294116)" class="sq-19-0 f-2"></path><path d="M-13.91304347826087,-18.823529411764707L13.91304347826087,-18.823529411764707L13.91304347826087,18.823529411764707L-13.91304347826087,18.823529411764707Z" transform="translate(570.4347826086956,94.11764705882354)" class="sq-19-1 f-12"></path><path d="M-13.91304347826087,-18.823529411764707L13.91304347826087,-18.823529411764707L13.91304347826087,18.823529411764707L-13.91304347826087,18.823529411764707Z" transform="translate(570.4347826086956,131.76470588235296)" class="sq-19-2 f-10"></path><path d="M-13.91304347826087,-18.823529411764707L13.91304347826087,-18.823529411764707L13.91304347826087,18.823529411764707L-13.91304347826087,18.823529411764707Z" transform="translate(570.4347826086956,169.41176470588235)" class="sq-19-3 f-2"></path><path d="M-13.91304347826087,-18.823529411764707L13.91304347826087,-18.823529411764707L13.91304347826087,18.823529411764707L-13.91304347826087,18.823529411764707Z" transform="translate(570.4347826086956,207.05882352941177)" class="sq-19-4 f-1"></path><path d="M-13.91304347826087,-18.823529411764707L13.91304347826087,-18.823529411764707L13.91304347826087,18.823529411764707L-13.91304347826087,18.823529411764707Z" transform="translate(570.4347826086956,244.7058823529412)" class="sq-19-5 f-10"></path><path d="M-13.91304347826087,-18.823529411764707L13.91304347826087,-18.823529411764707L13.91304347826087,18.823529411764707L-13.91304347826087,18.823529411764707Z" transform="translate(570.4347826086956,282.3529411764706)" class="sq-19-6 f-1"></path><path d="M-13.91304347826087,-18.823529411764707L13.91304347826087,-18.823529411764707L13.91304347826087,18.823529411764707L-13.91304347826087,18.823529411764707Z" transform="translate(570.4347826086956,320)" class="sq-19-7 f-0"></path><path d="M-13.91304347826087,-18.823529411764707L13.91304347826087,-18.823529411764707L13.91304347826087,18.823529411764707L-13.91304347826087,18.823529411764707Z" transform="translate(570.4347826086956,357.64705882352945)" class="sq-19-8 f-2"></path><path d="M-13.91304347826087,-18.823529411764707L13.91304347826087,-18.823529411764707L13.91304347826087,18.823529411764707L-13.91304347826087,18.823529411764707Z" transform="translate(570.4347826086956,395.29411764705884)" class="sq-19-9 f-4"></path><path d="M-13.91304347826087,-18.823529411764707L13.91304347826087,-18.823529411764707L13.91304347826087,18.823529411764707L-13.91304347826087,18.823529411764707Z" transform="translate(570.4347826086956,432.94117647058823)" class="sq-19-10 f-3"></path><path d="M-13.91304347826087,-18.823529411764707L13.91304347826087,-18.823529411764707L13.91304347826087,18.823529411764707L-13.91304347826087,18.823529411764707Z" transform="translate(570.4347826086956,470.5882352941177)" class="sq-19-11 f-1"></path><path d="M-13.91304347826087,-18.823529411764707L13.91304347826087,-18.823529411764707L13.91304347826087,18.823529411764707L-13.91304347826087,18.823529411764707Z" transform="translate(570.4347826086956,508.2352941176471)" class="sq-19-12 f-16"></path><path d="M-13.91304347826087,-18.823529411764707L13.91304347826087,-18.823529411764707L13.91304347826087,18.823529411764707L-13.91304347826087,18.823529411764707Z" transform="translate(570.4347826086956,545.8823529411765)" class="sq-19-13 f-0"></path><path d="M-13.91304347826087,-18.823529411764707L13.91304347826087,-18.823529411764707L13.91304347826087,18.823529411764707L-13.91304347826087,18.823529411764707Z" transform="translate(570.4347826086956,583.5294117647059)" class="sq-19-14 f-2"></path><path d="M-13.91304347826087,-18.823529411764707L13.91304347826087,-18.823529411764707L13.91304347826087,18.823529411764707L-13.91304347826087,18.823529411764707Z" transform="translate(598.2608695652174,56.470588235294116)" class="sq-20-0 f-2"></path><path d="M-13.91304347826087,-18.823529411764707L13.91304347826087,-18.823529411764707L13.91304347826087,18.823529411764707L-13.91304347826087,18.823529411764707Z" transform="translate(598.2608695652174,94.11764705882354)" class="sq-20-1 f-3"></path><path d="M-13.91304347826087,-18.823529411764707L13.91304347826087,-18.823529411764707L13.91304347826087,18.823529411764707L-13.91304347826087,18.823529411764707Z" transform="translate(598.2608695652174,131.76470588235296)" class="sq-20-2 f-3"></path><path d="M-13.91304347826087,-18.823529411764707L13.91304347826087,-18.823529411764707L13.91304347826087,18.823529411764707L-13.91304347826087,18.823529411764707Z" transform="translate(598.2608695652174,169.41176470588235)" class="sq-20-3 f-4"></path><path d="M-13.91304347826087,-18.823529411764707L13.91304347826087,-18.823529411764707L13.91304347826087,18.823529411764707L-13.91304347826087,18.823529411764707Z" transform="translate(598.2608695652174,207.05882352941177)" class="sq-20-4 f-3"></path><path d="M-13.91304347826087,-18.823529411764707L13.91304347826087,-18.823529411764707L13.91304347826087,18.823529411764707L-13.91304347826087,18.823529411764707Z" transform="translate(598.2608695652174,244.7058823529412)" class="sq-20-5 f-2"></path><path d="M-13.91304347826087,-18.823529411764707L13.91304347826087,-18.823529411764707L13.91304347826087,18.823529411764707L-13.91304347826087,18.823529411764707Z" transform="translate(598.2608695652174,282.3529411764706)" class="sq-20-6 f-3"></path><path d="M-13.91304347826087,-18.823529411764707L13.91304347826087,-18.823529411764707L13.91304347826087,18.823529411764707L-13.91304347826087,18.823529411764707Z" transform="translate(598.2608695652174,320)" class="sq-20-7 f-0"></path><path d="M-13.91304347826087,-18.823529411764707L13.91304347826087,-18.823529411764707L13.91304347826087,18.823529411764707L-13.91304347826087,18.823529411764707Z" transform="translate(598.2608695652174,357.64705882352945)" class="sq-20-8 f-1"></path><path d="M-13.91304347826087,-18.823529411764707L13.91304347826087,-18.823529411764707L13.91304347826087,18.823529411764707L-13.91304347826087,18.823529411764707Z" transform="translate(598.2608695652174,395.29411764705884)" class="sq-20-9 f-2"></path><path d="M-13.91304347826087,-18.823529411764707L13.91304347826087,-18.823529411764707L13.91304347826087,18.823529411764707L-13.91304347826087,18.823529411764707Z" transform="translate(598.2608695652174,432.94117647058823)" class="sq-20-10 f-3"></path><path d="M-13.91304347826087,-18.823529411764707L13.91304347826087,-18.823529411764707L13.91304347826087,18.823529411764707L-13.91304347826087,18.823529411764707Z" transform="translate(598.2608695652174,470.5882352941177)" class="sq-20-11 f-2"></path><path d="M-13.91304347826087,-18.823529411764707L13.91304347826087,-18.823529411764707L13.91304347826087,18.823529411764707L-13.91304347826087,18.823529411764707Z" transform="translate(598.2608695652174,508.2352941176471)" class="sq-20-12 f-3"></path><path d="M-13.91304347826087,-18.823529411764707L13.91304347826087,-18.823529411764707L13.91304347826087,18.823529411764707L-13.91304347826087,18.823529411764707Z" transform="translate(598.2608695652174,545.8823529411765)" class="sq-20-13 f-7"></path><path d="M-13.91304347826087,-18.823529411764707L13.91304347826087,-18.823529411764707L13.91304347826087,18.823529411764707L-13.91304347826087,18.823529411764707Z" transform="translate(598.2608695652174,583.5294117647059)" class="sq-20-14 f-4"></path></g></svg>