<svg xmlns="http://www.w3.org/2000/svg" width="640" height="640" viewport-fill="#000"><defs><style type="text/css">text{ font-family: Freemono, Sans, Arial; fill: #555} 
</style></defs><rect x="0" y="0" width="640" height="640" fill="#101010" stroke="#707070"></rect><g fill-rule="evenodd" transform="translate(320,320)"><path d="M0,213.33333333333334L184.75208614068026,-106.66666666666663L-184.7520861406802,-106.66666666666677L0,142.22222222222223L123.16805742712017,-71.11111111111109L-123.16805742712015,-71.11111111111117L0,94.81481481481482L82.11203828474679,-47.40740740740739L-82.11203828474677,-47.407407407407455L0,63.20987654320988L54.741358856497854,-31.604938271604926L-54.74135885649784,-31.60493827160497L0,42.13991769547325L36.494239237665234,-21.069958847736615L-36.49423923766523,-21.069958847736643L0,28.093278463648833L24.329492825110158,-14.04663923182441L-24.32949282511015,-14.046639231824429L0,18.72885230909922L16.21966188340677,-9.364426154549607L-16.219661883406765,-9.36442615454962L0,12.48590153939948L10.813107922271179,-6.242950769699737L-10.813107922271177,-6.242950769699745L0,8.323934359599653L7.208738614847452,-4.161967179799825L-7.208738614847451,-4.16196717979983L0,5.549289573066435L4.805825743231635,-2.7746447865332162L-4.805825743231634,-2.77464478653322L0,3.69952638204429L3.20388382882109,-1.8497631910221441L-3.2038838288210894,-1.8497631910221466Z" fill="#303030"></path></g><text x="320" y="632" text-anchor="middle" fill="#606060">_shape #4 fractal #1</text></svg>