<svg xmlns="http://www.w3.org/2000/svg" width="640" height="640" viewport-fill="#000"><defs><style type="text/css">text{ font-family: Freemono, Sans, Arial; fill: #555} 
</style></defs><rect x="0" y="0" width="640" height="640" fill="#fff" stroke="#708070"></rect><circle cx="320" cy="320" r="106.66666666666667" fill="#5c5"></circle><text x="639" y="11" text-anchor="end">This is for dealing with time.</text><text x="10" y="58.18181818181818" style="font-family: Freemono" class="style" fill="#5c5">_shape #888 - Freemono</text><text x="10" y="116.36363636363636" style="font-family: Sans Serif" class="style" fill="#5c5">_shape #594 - Sans Serif</text><text x="10" y="174.54545454545453" style="font-family: Prestige Elite" class="style" fill="#5c5">_shape #888 - Prestige Elite</text><text x="10" y="232.72727272727272" style="font-family: Ethiopia Jiret" class="style" fill="#5c5">_shape #607 - Ethiopia Jiret</text><text x="10" y="290.90909090909093" style="font-family: Arial" class="style" fill="#5c5">_shape #183 - Arial</text><text x="10" y="349.09090909090907" style="font-family: Verdana" class="style" fill="#5c5">_shape #901 - Verdana</text><text x="10" y="407.27272727272725" style="font-family: Helvetica" class="style" fill="#5c5">_shape #570 - Helvetica</text><text x="10" y="465.45454545454544" style="font-family: Trebuchet MS" class="style" fill="#5c5">_shape #210 - Trebuchet MS</text><text x="10" y="523.6363636363636" style="font-family: Courier" class="style" fill="#5c5">_shape #203 - Courier</text><text x="10" y="581.8181818181819" style="font-family: Courier New" class="style" fill="#5c5">_shape #467 - Courier New</text><path d="M320,480L458.5640646055102,240.00000000000003L181.43593539448983,239.99999999999994Z" fill="#fff"></path><g fill-rule="evenodd"><path d="M-31.51041666666667,-21.006944444444446L31.51041666666667,-21.006944444444446L31.51041666666667,21.006944444444446L-31.51041666666667,21.006944444444446Z" transform="translate(576,53.333333333333336)" fill="#000"></path><path d="M-31.51041666666667,-21.006944444444446L31.51041666666667,-21.006944444444446L31.51041666666667,21.006944444444446L-31.51041666666667,21.006944444444446Z" transform="translate(576,88.88888888888889)" fill="#fff"></path><path d="M-31.51041666666667,-21.006944444444446L31.51041666666667,-21.006944444444446L31.51041666666667,21.006944444444446L-31.51041666666667,21.006944444444446Z" transform="translate(576,124.44444444444446)" fill="#55c"></path><path d="M-31.51041666666667,-21.006944444444446L31.51041666666667,-21.006944444444446L31.51041666666667,21.006944444444446L-31.51041666666667,21.006944444444446Z" transform="translate(576,160)" fill="#5cc"></path><path d="M-31.51041666666667,-21.006944444444446L31.51041666666667,-21.006944444444446L31.51041666666667,21.006944444444446L-31.51041666666667,21.006944444444446Z" transform="translate(576,195.55555555555557)" fill="#5c5"></path><path d="M-31.51041666666667,-21.006944444444446L31.51041666666667,-21.006944444444446L31.51041666666667,21.006944444444446L-31.51041666666667,21.006944444444446Z" transform="translate(576,231.11111111111111)" fill="#50a050"></path><path d="M-31.51041666666667,-21.006944444444446L31.51041666666667,-21.006944444444446L31.51041666666667,21.006944444444446L-31.51041666666667,21.006944444444446Z" transform="translate(576,266.6666666666667)" fill="#609060"></path><path d="M-31.51041666666667,-21.006944444444446L31.51041666666667,-21.006944444444446L31.51041666666667,21.006944444444446L-31.51041666666667,21.006944444444446Z" transform="translate(576,302.22222222222223)" fill="#708070"></path><path d="M-31.51041666666667,-21.006944444444446L31.51041666666667,-21.006944444444446L31.51041666666667,21.006944444444446L-31.51041666666667,21.006944444444446Z" transform="translate(576,337.77777777777777)" fill="#807080"></path><path d="M-31.51041666666667,-21.006944444444446L31.51041666666667,-21.006944444444446L31.51041666666667,21.006944444444446L-31.51041666666667,21.006944444444446Z" transform="translate(576,373.33333333333337)" fill="#906090"></path><path d="M-31.51041666666667,-21.006944444444446L31.51041666666667,-21.006944444444446L31.51041666666667,21.006944444444446L-31.51041666666667,21.006944444444446Z" transform="translate(576,408.8888888888889)" fill="#a050a0"></path><path d="M-31.51041666666667,-21.006944444444446L31.51041666666667,-21.006944444444446L31.51041666666667,21.006944444444446L-31.51041666666667,21.006944444444446Z" transform="translate(576,444.44444444444446)" fill="#b040b0"></path><path d="M-31.51041666666667,-21.006944444444446L31.51041666666667,-21.006944444444446L31.51041666666667,21.006944444444446L-31.51041666666667,21.006944444444446Z" transform="translate(576,480)" fill="#c030c0"></path><path d="M-31.51041666666667,-21.006944444444446L31.51041666666667,-21.006944444444446L31.51041666666667,21.006944444444446L-31.51041666666667,21.006944444444446Z" transform="translate(576,515.5555555555555)" fill="#d020d0"></path><path d="M-31.51041666666667,-21.006944444444446L31.51041666666667,-21.006944444444446L31.51041666666667,21.006944444444446L-31.51041666666667,21.006944444444446Z" transform="translate(576,551.1111111111111)" fill="#e010e0"></path><path d="M-31.51041666666667,-21.006944444444446L31.51041666666667,-21.006944444444446L31.51041666666667,21.006944444444446L-31.51041666666667,21.006944444444446Z" transform="translate(576,586.6666666666667)" fill="#f00f0"></path></g><g fill-rule="evenodd"><path d="M-22.22222222222222,-11.11111111111111L22.22222222222222,-11.11111111111111L22.22222222222222,11.11111111111111L-22.22222222222222,11.11111111111111Z" transform="translate(480,53.333333333333336)" fill="#000"></path><path d="M-22.22222222222222,-11.11111111111111L22.22222222222222,-11.11111111111111L22.22222222222222,11.11111111111111L-22.22222222222222,11.11111111111111Z" transform="translate(480,88.88888888888889)" fill="#fff"></path><path d="M-22.22222222222222,-11.11111111111111L22.22222222222222,-11.11111111111111L22.22222222222222,11.11111111111111L-22.22222222222222,11.11111111111111Z" transform="translate(480,124.44444444444446)" fill="#55c"></path><path d="M-22.22222222222222,-11.11111111111111L22.22222222222222,-11.11111111111111L22.22222222222222,11.11111111111111L-22.22222222222222,11.11111111111111Z" transform="translate(480,160)" fill="#5cc"></path><path d="M-22.22222222222222,-11.11111111111111L22.22222222222222,-11.11111111111111L22.22222222222222,11.11111111111111L-22.22222222222222,11.11111111111111Z" transform="translate(480,195.55555555555557)" fill="#5c5"></path><path d="M-22.22222222222222,-11.11111111111111L22.22222222222222,-11.11111111111111L22.22222222222222,11.11111111111111L-22.22222222222222,11.11111111111111Z" transform="translate(480,231.11111111111111)" fill="#50a050"></path><path d="M-22.22222222222222,-11.11111111111111L22.22222222222222,-11.11111111111111L22.22222222222222,11.11111111111111L-22.22222222222222,11.11111111111111Z" transform="translate(480,266.6666666666667)" fill="#609060"></path><path d="M-22.22222222222222,-11.11111111111111L22.22222222222222,-11.11111111111111L22.22222222222222,11.11111111111111L-22.22222222222222,11.11111111111111Z" transform="translate(480,302.22222222222223)" fill="#708070"></path><path d="M-22.22222222222222,-11.11111111111111L22.22222222222222,-11.11111111111111L22.22222222222222,11.11111111111111L-22.22222222222222,11.11111111111111Z" transform="translate(480,337.77777777777777)" fill="#807080"></path><path d="M-22.22222222222222,-11.11111111111111L22.22222222222222,-11.11111111111111L22.22222222222222,11.11111111111111L-22.22222222222222,11.11111111111111Z" transform="translate(480,373.33333333333337)" fill="#906090"></path><path d="M-22.22222222222222,-11.11111111111111L22.22222222222222,-11.11111111111111L22.22222222222222,11.11111111111111L-22.22222222222222,11.11111111111111Z" transform="translate(480,408.8888888888889)" fill="#a050a0"></path><path d="M-22.22222222222222,-11.11111111111111L22.22222222222222,-11.11111111111111L22.22222222222222,11.11111111111111L-22.22222222222222,11.11111111111111Z" transform="translate(480,444.44444444444446)" fill="#b040b0"></path><path d="M-22.22222222222222,-11.11111111111111L22.22222222222222,-11.11111111111111L22.22222222222222,11.11111111111111L-22.22222222222222,11.11111111111111Z" transform="translate(480,480)" fill="#c030c0"></path><path d="M-22.22222222222222,-11.11111111111111L22.22222222222222,-11.11111111111111L22.22222222222222,11.11111111111111L-22.22222222222222,11.11111111111111Z" transform="translate(480,515.5555555555555)" fill="#d020d0"></path><path d="M-22.22222222222222,-11.11111111111111L22.22222222222222,-11.11111111111111L22.22222222222222,11.11111111111111L-22.22222222222222,11.11111111111111Z" transform="translate(480,551.1111111111111)" fill="#e010e0"></path><path d="M-22.22222222222222,-11.11111111111111L22.22222222222222,-11.11111111111111L22.22222222222222,11.11111111111111L-22.22222222222222,11.11111111111111Z" transform="translate(480,586.6666666666667)" fill="#f00f0"></path></g><text x="320" y="632" text-anchor="middle" fill="#606060">_shape #0</text></svg>