<svg xmlns="http://www.w3.org/2000/svg" width="640" height="640" viewport-fill="#000"><defs><style type="text/css">text{ font-family: Freemono, Sans, Arial; fill: #555} 
</style></defs><rect x="0" y="0" width="640" height="640" fill="#fff" stroke="#708070"></rect><g fill-rule="evenodd" transform="translate(320,320)"><path d="M184.75208614068023,106.6666666666667L2.6125798381810203e-14,-213.33333333333334L-184.75208614068035,106.66666666666653ZZ M0,142.22222222222223L123.16805742712017,-71.11111111111109L-123.16805742712015,-71.11111111111117ZZ M82.11203828474677,47.40740740740742L1.1611465947471202e-14,-94.81481481481482L-82.11203828474682,47.40740740740735ZZ M0,63.20987654320988L54.741358856497854,-31.604938271604926L-54.74135885649784,-31.60493827160497ZZ M36.494239237665234,21.06995884773663L5.160651532209422e-15,-42.13991769547325L-36.49423923766525,21.069958847736597ZZ M0,28.093278463648833L24.329492825110158,-14.04663923182441L-24.32949282511015,-14.046639231824429ZZ M16.21966188340677,9.364426154549612L2.2936229032041876e-15,-18.72885230909922L-16.219661883406776,9.364426154549598ZZ M0,12.48590153939948L10.813107922271179,-6.242950769699737L-10.813107922271177,-6.242950769699745ZZ M7.2087386148474515,4.161967179799827L1.0193879569796387e-15,-8.323934359599653L-7.208738614847455,4.161967179799821ZZ M0,5.549289573066435L4.805825743231635,-2.7746447865332162L-4.805825743231634,-2.77464478653322ZZ M3.2038838288210894,1.8497631910221455L4.530613142131728e-16,-3.69952638204429L-3.203883828821091,1.8497631910221426ZZ M0,2.46635092136286L2.1359225525473935,-1.2331754606814296L-2.1359225525473926,-1.2331754606814311ZZ M1.4239483683649288,0.8221169737876203L2.0136058409474348e-16,-1.64423394757524L-1.4239483683649294,0.8221169737876189ZZ M0,1.09615596505016L0.9492989122432859,-0.5480779825250798L-0.9492989122432857,-0.5480779825250804ZZ M0.6328659414955239,0.3653853216833867L8.94935929309971e-17,-0.7307706433667733L-0.6328659414955242,0.36538532168338617ZZ M0,0.48718042891118224L0.42191062766368265,-0.243590214455591L-0.42191062766368254,-0.24359021445559134ZZ M0.2812737517757884,0.16239347630372744L3.9774930191554265e-17,-0.3247869526074548L-0.2812737517757885,0.1623934763037272ZZ M0,0.21652463507163655L0.18751583451719228,-0.10826231753581823L-0.18751583451719223,-0.10826231753581837ZZ M0.12501055634479485,0.0721748783572122L1.7677746751801898e-17,-0.14434975671442438L-0.1250105563447949,0.07217487835721209ZZ M0,0.09623317114294959L0.08334037089652992,-0.048116585571474774L-0.08334037089652989,-0.048116585571474836ZZ M0.055560247264353275,0.03207772371431654L7.856776334134178e-18,-0.06415544742863306L-0.0555602472643533,0.03207772371431649ZZ M0,0.042770298285755376L0.037040164842902186,-0.021385149142877678L-0.03704016484290218,-0.021385149142877705ZZ M0.024693443228601453,0.014256766095251795L3.4919005929485234e-18,-0.028513532190503583L-0.024693443228601467,0.014256766095251772ZZ M0,0.019009021460335722L0.016462295485734305,-0.009504510730167857L-0.016462295485734302,-0.00950451073016787ZZ M0.010974863657156202,0.006336340486778576L1.5519558190882325e-18,-0.012672680973557148L-0.010974863657156208,0.006336340486778566ZZ M0,0.008448453982371432L0.007316575771437469,-0.004224226991185714L-0.007316575771437467,-0.00422422699118572ZZ M0.004877717180958312,0.0028161513274571445L6.897581418169923e-19,-0.005632302654914288L-0.0048777171809583145,0.00281615132745714ZZ M0,0.0037548684366095256L0.0032518114539722086,-0.001877434218304762L-0.0032518114539722078,-0.0018774342183047645ZZ M0.0021678743026481385,0.0012516228122031754L3.0655917414088546e-19,-0.0025032456244063503L-0.00216787430264814,0.0012516228122031734ZZ M0,0.0016688304162709002L0.0014452495350987594,-0.0008344152081354498L-0.001445249535098759,-0.0008344152081354508ZZ M0.0009634996900658394,0.0005562768054236335L1.3624852184039352e-19,-0.0011125536108472667L-0.0009634996900658398,0.0005562768054236326ZZ M0,0.0007417024072315111L0.0006423331267105596,-0.0003708512036157554L-0.0006423331267105594,-0.0003708512036157559ZZ M0.00042822208447370637,0.0002472341357438371L6.055489859573046e-20,-0.0004944682714876741L-0.0004282220844737066,0.00024723413574383673ZZ M0,0.00032964551432511607L0.00028548138964913764,-0.00016482275716255795L-0.0002854813896491375,-0.00016482275716255817ZZ M0.0001903209264327584,0.00010988183810837205L2.6913288264769092e-20,-0.00021976367621674405L-0.00019032092643275848,0.00010988183810837187ZZ M0,0.00014650911747782937L0.00012688061762183896,-0.00007325455873891466L-0.00012688061762183893,-0.00007325455873891475ZZ M0.00008458707841455929,0.00004883637249260981L1.1961461451008486e-20,-0.00009767274498521959L-0.00008458707841455933,0.000048836372492609726ZZ M0,0.00006511516332347973L0.000056391385609706204,-0.00003255758166173985L-0.00005639138560970619,-0.00003255758166173989ZZ M0.00003759425707313747,0.000021705054441159913L5.316205089337105e-21,-0.00004341010888231982L-0.00003759425707313748,0.00002170505444115988ZZ M0,0.000028940072588213212L0.000025062838048758314,-0.0000144700362941066L-0.000025062838048758307,-0.00001447003629410662ZZ M0.000016708558699172206,0.000009646690862737739L2.362757817483158e-21,-0.000019293381725475475L-0.000016708558699172216,0.000009646690862737724ZZ M0,0.000012862254483650317L0.000011139039132781472,-0.000006431127241825156L-0.00001113903913278147,-0.000006431127241825164ZZ M0.0000074260260885209815,0.0000042874181612167735L1.0501145855480702e-21,-0.000008574836322433545L-0.000007426026088520986,0.000004287418161216767ZZ M0,0.00000571655754828903L0.000004950684059013988,-0.0000028582787741445137L-0.000004950684059013987,-0.0000028582787741445175ZZ M0.000003300456039342658,0.0000019055191827630104L4.667175935769201e-22,-0.00000381103836552602L-0.00000330045603934266,0.0000019055191827630074ZZ M0,0.0000025406922436840134L0.000002200304026228439,-0.000001270346121842006L-0.0000022003040262284388,-0.0000012703461218420078ZZ M0.0000014668693508189592,8.46897414561338e-7L2.0743004158974226e-22,-0.0000016937948291226755L-0.00000146686935081896,8.468974145613366e-7ZZ M0,0.0000011291965527484503L9.779129005459729e-7,-5.645982763742249e-7L-9.779129005459726e-7,-5.645982763742257e-7ZZ M6.519419336973152e-7,3.763988509161502e-7L9.2191129595441e-23,-7.527977018323002e-7L-6.519419336973156e-7,3.7639885091614964e-7ZZ M0,5.018651345548668e-7L4.346279557982102e-7,-2.509325672774333e-7L-4.3462795579821004e-7,-2.509325672774336e-7ZZ M2.897519705321401e-7,1.6728837818495563e-7L4.097383537575156e-23,-3.345767563699112e-7L-2.8975197053214025e-7,1.672883781849554e-7ZZ                                                   " fill="#5cc"></path></g><text x="320" y="632" text-anchor="middle" fill="#606060">_shape #13 fractal #6</text></svg>