<svg xmlns="http://www.w3.org/2000/svg" width="640" height="640" viewport-fill="#000"><defs><style type="text/css">text{ font-family: Freemono, Sans, Arial; fill: #555} 
</style></defs><rect x="0" y="0" width="640" height="640" fill="#fff" stroke="#708070"></rect><g fill-rule="evenodd" transform="translate(320,320)"><path d="M-179.93204426774957,-179.93204426774957L-179.93204426774957,-204.06795573225043L-204.06795573225043,-204.06795573225043L-204.06795573225043,-179.93204426774957Z Z  Z M-179.93204426774957,-158.59871093441623L-179.93204426774957,-182.73462239891708L-204.06795573225043,-182.73462239891708L-204.06795573225043,-158.59871093441626Z Z  Z M-179.93204426774957,-137.26537760108292L-179.93204426774957,-161.40128906558377L-204.06795573225043,-161.40128906558377L-204.06795573225043,-137.26537760108295Z Z  Z M-179.93204426774957,-115.93204426774959L-179.93204426774957,-140.06795573225043L-204.06795573225043,-140.06795573225043L-204.06795573225043,-115.93204426774959Z Z  Z M-158.59871093441623,-179.93204426774957L-158.59871093441623,-204.06795573225043L-182.73462239891708,-204.06795573225043L-182.73462239891708,-179.93204426774957Z Z  Z M-158.59871093441623,-158.59871093441623L-158.59871093441623,-182.73462239891708L-182.73462239891708,-182.73462239891708L-182.73462239891708,-158.59871093441626Z Z  Z M-158.59871093441623,-137.26537760108292L-158.59871093441623,-161.40128906558377L-182.73462239891708,-161.40128906558377L-182.73462239891708,-137.26537760108295Z Z  Z M-158.59871093441623,-115.93204426774959L-158.59871093441623,-140.06795573225043L-182.73462239891708,-140.06795573225043L-182.73462239891708,-115.93204426774959Z Z  Z M-137.26537760108292,-179.93204426774957L-137.26537760108292,-204.06795573225043L-161.40128906558377,-204.06795573225043L-161.40128906558377,-179.93204426774957Z Z  Z M-137.26537760108292,-158.59871093441623L-137.26537760108292,-182.73462239891708L-161.40128906558377,-182.73462239891708L-161.40128906558377,-158.59871093441626Z Z  Z M-137.26537760108292,-137.26537760108292L-137.26537760108292,-161.40128906558377L-161.40128906558377,-161.40128906558377L-161.40128906558377,-137.26537760108295Z Z  Z M-137.26537760108292,-115.93204426774959L-137.26537760108292,-140.06795573225043L-161.40128906558377,-140.06795573225043L-161.40128906558377,-115.93204426774959Z Z  Z M-115.93204426774959,-179.93204426774957L-115.93204426774959,-204.06795573225043L-140.06795573225043,-204.06795573225043L-140.06795573225043,-179.93204426774957Z Z  Z M-115.93204426774959,-158.59871093441623L-115.93204426774959,-182.73462239891708L-140.06795573225043,-182.73462239891708L-140.06795573225043,-158.59871093441626Z Z  Z M-115.93204426774959,-137.26537760108292L-115.93204426774959,-161.40128906558377L-140.06795573225043,-161.40128906558377L-140.06795573225043,-137.26537760108295Z Z  Z M-115.93204426774959,-115.93204426774959L-115.93204426774959,-140.06795573225043L-140.06795573225043,-140.06795573225043L-140.06795573225043,-115.93204426774959Z Z  Z  Z M-179.93204426774957,-73.26537760108293L-179.93204426774957,-97.40128906558375L-204.06795573225043,-97.40128906558375L-204.06795573225043,-73.26537760108293Z Z  Z M-179.93204426774957,-51.93204426774959L-179.93204426774957,-76.06795573225041L-204.06795573225043,-76.06795573225041L-204.06795573225043,-51.93204426774959Z Z  Z M-179.93204426774957,-30.598710934416257L-179.93204426774957,-54.73462239891708L-204.06795573225043,-54.73462239891709L-204.06795573225043,-30.59871093441626Z Z  Z M-179.93204426774957,-9.265377601082921L-179.93204426774957,-33.40128906558375L-204.06795573225043,-33.401289065583754L-204.06795573225043,-9.265377601082925Z Z  Z M-158.59871093441623,-73.26537760108293L-158.59871093441623,-97.40128906558375L-182.73462239891708,-97.40128906558375L-182.73462239891708,-73.26537760108293Z Z  Z M-158.59871093441623,-51.93204426774959L-158.59871093441623,-76.06795573225041L-182.73462239891708,-76.06795573225041L-182.73462239891708,-51.93204426774959Z Z  Z M-158.59871093441623,-30.598710934416257L-158.59871093441623,-54.73462239891708L-182.73462239891708,-54.73462239891709L-182.73462239891708,-30.59871093441626Z Z  Z M-158.59871093441623,-9.265377601082921L-158.59871093441623,-33.40128906558375L-182.73462239891708,-33.401289065583754L-182.73462239891708,-9.265377601082925Z Z  Z M-137.26537760108292,-73.26537760108293L-137.26537760108292,-97.40128906558375L-161.40128906558377,-97.40128906558375L-161.40128906558377,-73.26537760108293Z Z  Z M-137.26537760108292,-51.93204426774959L-137.26537760108292,-76.06795573225041L-161.40128906558377,-76.06795573225041L-161.40128906558377,-51.93204426774959Z Z  Z M-137.26537760108292,-30.598710934416257L-137.26537760108292,-54.73462239891708L-161.40128906558377,-54.73462239891709L-161.40128906558377,-30.59871093441626Z Z  Z M-137.26537760108292,-9.265377601082921L-137.26537760108292,-33.40128906558375L-161.40128906558377,-33.401289065583754L-161.40128906558377,-9.265377601082925Z Z  Z M-115.93204426774959,-73.26537760108293L-115.93204426774959,-97.40128906558375L-140.06795573225043,-97.40128906558375L-140.06795573225043,-73.26537760108293Z Z  Z M-115.93204426774959,-51.93204426774959L-115.93204426774959,-76.06795573225041L-140.06795573225043,-76.06795573225041L-140.06795573225043,-51.93204426774959Z Z  Z M-115.93204426774959,-30.598710934416257L-115.93204426774959,-54.73462239891708L-140.06795573225043,-54.73462239891709L-140.06795573225043,-30.59871093441626Z Z  Z M-115.93204426774959,-9.265377601082921L-115.93204426774959,-33.40128906558375L-140.06795573225043,-33.401289065583754L-140.06795573225043,-9.265377601082925Z Z  Z  Z M-179.93204426774957,33.401289065583754L-179.93204426774957,9.265377601082923L-204.06795573225043,9.26537760108292L-204.06795573225043,33.40128906558375Z Z  Z M-179.93204426774957,54.73462239891708L-179.93204426774957,30.59871093441626L-204.06795573225043,30.598710934416253L-204.06795573225043,54.73462239891708Z Z  Z M-179.93204426774957,76.06795573225041L-179.93204426774957,51.93204426774959L-204.06795573225043,51.93204426774958L-204.06795573225043,76.06795573225041Z Z  Z M-179.93204426774957,97.40128906558375L-179.93204426774957,73.26537760108293L-204.06795573225043,73.26537760108293L-204.06795573225043,97.40128906558375Z Z  Z M-158.59871093441623,33.401289065583754L-158.59871093441623,9.265377601082923L-182.73462239891708,9.26537760108292L-182.73462239891708,33.40128906558375Z Z  Z M-158.59871093441623,54.73462239891708L-158.59871093441623,30.59871093441626L-182.73462239891708,30.598710934416253L-182.73462239891708,54.73462239891708Z Z  Z M-158.59871093441623,76.06795573225041L-158.59871093441623,51.93204426774959L-182.73462239891708,51.93204426774958L-182.73462239891708,76.06795573225041Z Z  Z M-158.59871093441623,97.40128906558375L-158.59871093441623,73.26537760108293L-182.73462239891708,73.26537760108293L-182.73462239891708,97.40128906558375Z Z  Z M-137.26537760108292,33.401289065583754L-137.26537760108292,9.265377601082923L-161.40128906558377,9.26537760108292L-161.40128906558377,33.40128906558375Z Z  Z M-137.26537760108292,54.73462239891708L-137.26537760108292,30.59871093441626L-161.40128906558377,30.598710934416253L-161.40128906558377,54.73462239891708Z Z  Z M-137.26537760108292,76.06795573225041L-137.26537760108292,51.93204426774959L-161.40128906558377,51.93204426774958L-161.40128906558377,76.06795573225041Z Z  Z M-137.26537760108292,97.40128906558375L-137.26537760108292,73.26537760108293L-161.40128906558377,73.26537760108293L-161.40128906558377,97.40128906558375Z Z  Z M-115.93204426774959,33.401289065583754L-115.93204426774959,9.265377601082923L-140.06795573225043,9.26537760108292L-140.06795573225043,33.40128906558375Z Z  Z M-115.93204426774959,54.73462239891708L-115.93204426774959,30.59871093441626L-140.06795573225043,30.598710934416253L-140.06795573225043,54.73462239891708Z Z  Z M-115.93204426774959,76.06795573225041L-115.93204426774959,51.93204426774959L-140.06795573225043,51.93204426774958L-140.06795573225043,76.06795573225041Z Z  Z M-115.93204426774959,97.40128906558375L-115.93204426774959,73.26537760108293L-140.06795573225043,73.26537760108293L-140.06795573225043,97.40128906558375Z Z  Z  Z M-179.93204426774957,140.06795573225043L-179.93204426774957,115.93204426774959L-204.06795573225043,115.93204426774959L-204.06795573225043,140.06795573225043Z Z  Z M-179.93204426774957,161.40128906558377L-179.93204426774957,137.26537760108292L-204.06795573225043,137.26537760108292L-204.06795573225043,161.40128906558374Z Z  Z M-179.93204426774957,182.73462239891708L-179.93204426774957,158.59871093441623L-204.06795573225043,158.59871093441623L-204.06795573225043,182.73462239891705Z Z  Z M-179.93204426774957,204.06795573225043L-179.93204426774957,179.93204426774957L-204.06795573225043,179.93204426774957L-204.06795573225043,204.06795573225043Z Z  Z M-158.59871093441623,140.06795573225043L-158.59871093441623,115.93204426774959L-182.73462239891708,115.93204426774959L-182.73462239891708,140.06795573225043Z Z  Z M-158.59871093441623,161.40128906558377L-158.59871093441623,137.26537760108292L-182.73462239891708,137.26537760108292L-182.73462239891708,161.40128906558374Z Z  Z M-158.59871093441623,182.73462239891708L-158.59871093441623,158.59871093441623L-182.73462239891708,158.59871093441623L-182.73462239891708,182.73462239891705Z Z  Z M-158.59871093441623,204.06795573225043L-158.59871093441623,179.93204426774957L-182.73462239891708,179.93204426774957L-182.73462239891708,204.06795573225043Z Z  Z M-137.26537760108292,140.06795573225043L-137.26537760108292,115.93204426774959L-161.40128906558377,115.93204426774959L-161.40128906558377,140.06795573225043Z Z  Z M-137.26537760108292,161.40128906558377L-137.26537760108292,137.26537760108292L-161.40128906558377,137.26537760108292L-161.40128906558377,161.40128906558374Z Z  Z M-137.26537760108292,182.73462239891708L-137.26537760108292,158.59871093441623L-161.40128906558377,158.59871093441623L-161.40128906558377,182.73462239891705Z Z  Z M-137.26537760108292,204.06795573225043L-137.26537760108292,179.93204426774957L-161.40128906558377,179.93204426774957L-161.40128906558377,204.06795573225043Z Z  Z M-115.93204426774959,140.06795573225043L-115.93204426774959,115.93204426774959L-140.06795573225043,115.93204426774959L-140.06795573225043,140.06795573225043Z Z  Z M-115.93204426774959,161.40128906558377L-115.93204426774959,137.26537760108292L-140.06795573225043,137.26537760108292L-140.06795573225043,161.40128906558374Z Z  Z M-115.93204426774959,182.73462239891708L-115.93204426774959,158.59871093441623L-140.06795573225043,158.59871093441623L-140.06795573225043,182.73462239891705Z Z  Z M-115.93204426774959,204.06795573225043L-115.93204426774959,179.93204426774957L-140.06795573225043,179.93204426774957L-140.06795573225043,204.06795573225043Z Z  Z  Z M-73.26537760108293,-179.93204426774957L-73.26537760108293,-204.06795573225043L-97.40128906558375,-204.06795573225043L-97.40128906558375,-179.93204426774957Z Z  Z M-73.26537760108293,-158.59871093441623L-73.26537760108293,-182.73462239891708L-97.40128906558375,-182.73462239891708L-97.40128906558375,-158.59871093441626Z Z  Z M-73.26537760108293,-137.26537760108292L-73.26537760108293,-161.40128906558377L-97.40128906558375,-161.40128906558377L-97.40128906558375,-137.26537760108295Z Z  Z M-73.26537760108293,-115.93204426774959L-73.26537760108293,-140.06795573225043L-97.40128906558375,-140.06795573225043L-97.40128906558375,-115.93204426774959Z Z  Z M-51.93204426774959,-179.93204426774957L-51.93204426774959,-204.06795573225043L-76.06795573225041,-204.06795573225043L-76.06795573225041,-179.93204426774957Z Z  Z M-51.93204426774959,-158.59871093441623L-51.93204426774959,-182.73462239891708L-76.06795573225041,-182.73462239891708L-76.06795573225041,-158.59871093441626Z Z  Z M-51.93204426774959,-137.26537760108292L-51.93204426774959,-161.40128906558377L-76.06795573225041,-161.40128906558377L-76.06795573225041,-137.26537760108295Z Z  Z M-51.93204426774959,-115.93204426774959L-51.93204426774959,-140.06795573225043L-76.06795573225041,-140.06795573225043L-76.06795573225041,-115.93204426774959Z Z  Z M-30.59871093441626,-179.93204426774957L-30.598710934416257,-204.06795573225043L-54.73462239891708,-204.06795573225043L-54.73462239891709,-179.93204426774957Z Z  Z M-30.59871093441626,-158.59871093441623L-30.598710934416257,-182.73462239891708L-54.73462239891708,-182.73462239891708L-54.73462239891709,-158.59871093441626Z Z  Z M-30.59871093441626,-137.26537760108292L-30.598710934416257,-161.40128906558377L-54.73462239891708,-161.40128906558377L-54.73462239891709,-137.26537760108295Z Z  Z M-30.59871093441626,-115.93204426774959L-30.598710934416257,-140.06795573225043L-54.73462239891708,-140.06795573225043L-54.73462239891709,-115.93204426774959Z Z  Z M-9.265377601082923,-179.93204426774957L-9.265377601082921,-204.06795573225043L-33.40128906558375,-204.06795573225043L-33.401289065583754,-179.93204426774957Z Z  Z M-9.265377601082923,-158.59871093441623L-9.265377601082921,-182.73462239891708L-33.40128906558375,-182.73462239891708L-33.401289065583754,-158.59871093441626Z Z  Z M-9.265377601082923,-137.26537760108292L-9.265377601082921,-161.40128906558377L-33.40128906558375,-161.40128906558377L-33.401289065583754,-137.26537760108295Z Z  Z M-9.265377601082923,-115.93204426774959L-9.265377601082921,-140.06795573225043L-33.40128906558375,-140.06795573225043L-33.401289065583754,-115.93204426774959Z Z  Z  Z M-73.26537760108293,-73.26537760108293L-73.26537760108293,-97.40128906558375L-97.40128906558375,-97.40128906558375L-97.40128906558375,-73.26537760108293Z Z  Z M-73.26537760108293,-51.93204426774959L-73.26537760108293,-76.06795573225041L-97.40128906558375,-76.06795573225041L-97.40128906558375,-51.93204426774959Z Z  Z M-73.26537760108293,-30.598710934416257L-73.26537760108293,-54.73462239891708L-97.40128906558375,-54.73462239891709L-97.40128906558375,-30.59871093441626Z Z  Z M-73.26537760108293,-9.265377601082921L-73.26537760108293,-33.40128906558375L-97.40128906558375,-33.401289065583754L-97.40128906558375,-9.265377601082925Z Z  Z M-51.93204426774959,-73.26537760108293L-51.93204426774959,-97.40128906558375L-76.06795573225041,-97.40128906558375L-76.06795573225041,-73.26537760108293Z Z  Z M-51.93204426774959,-51.93204426774959L-51.93204426774959,-76.06795573225041L-76.06795573225041,-76.06795573225041L-76.06795573225041,-51.93204426774959Z Z  Z M-51.93204426774959,-30.598710934416257L-51.93204426774959,-54.73462239891708L-76.06795573225041,-54.73462239891709L-76.06795573225041,-30.59871093441626Z Z  Z M-51.93204426774959,-9.265377601082921L-51.93204426774959,-33.40128906558375L-76.06795573225041,-33.401289065583754L-76.06795573225041,-9.265377601082925Z Z  Z M-30.59871093441626,-73.26537760108293L-30.598710934416257,-97.40128906558375L-54.73462239891708,-97.40128906558375L-54.73462239891709,-73.26537760108293Z Z  Z M-30.59871093441626,-51.93204426774959L-30.598710934416257,-76.06795573225041L-54.73462239891708,-76.06795573225041L-54.73462239891709,-51.93204426774959Z Z  Z M-30.59871093441626,-30.598710934416257L-30.598710934416257,-54.73462239891708L-54.73462239891708,-54.73462239891709L-54.73462239891709,-30.59871093441626Z Z  Z M-30.59871093441626,-9.265377601082921L-30.598710934416257,-33.40128906558375L-54.73462239891708,-33.401289065583754L-54.73462239891709,-9.265377601082925Z Z  Z M-9.265377601082923,-73.26537760108293L-9.265377601082921,-97.40128906558375L-33.40128906558375,-97.40128906558375L-33.401289065583754,-73.26537760108293Z Z  Z M-9.265377601082923,-51.93204426774959L-9.265377601082921,-76.06795573225041L-33.40128906558375,-76.06795573225041L-33.401289065583754,-51.93204426774959Z Z  Z M-9.265377601082923,-30.598710934416257L-9.265377601082921,-54.73462239891708L-33.40128906558375,-54.73462239891709L-33.401289065583754,-30.59871093441626Z Z  Z M-9.265377601082923,-9.265377601082921L-9.265377601082921,-33.40128906558375L-33.40128906558375,-33.401289065583754L-33.401289065583754,-9.265377601082925Z Z  Z  Z M-73.26537760108293,33.401289065583754L-73.26537760108293,9.265377601082923L-97.40128906558375,9.26537760108292L-97.40128906558375,33.40128906558375Z Z  Z M-73.26537760108293,54.73462239891708L-73.26537760108293,30.59871093441626L-97.40128906558375,30.598710934416253L-97.40128906558375,54.73462239891708Z Z  Z M-73.26537760108293,76.06795573225041L-73.26537760108293,51.93204426774959L-97.40128906558375,51.93204426774958L-97.40128906558375,76.06795573225041Z Z  Z M-73.26537760108293,97.40128906558375L-73.26537760108293,73.26537760108293L-97.40128906558375,73.26537760108293L-97.40128906558375,97.40128906558375Z Z  Z M-51.93204426774959,33.401289065583754L-51.93204426774959,9.265377601082923L-76.06795573225041,9.26537760108292L-76.06795573225041,33.40128906558375Z Z  Z M-51.93204426774959,54.73462239891708L-51.93204426774959,30.59871093441626L-76.06795573225041,30.598710934416253L-76.06795573225041,54.73462239891708Z Z  Z M-51.93204426774959,76.06795573225041L-51.93204426774959,51.93204426774959L-76.06795573225041,51.93204426774958L-76.06795573225041,76.06795573225041Z Z  Z M-51.93204426774959,97.40128906558375L-51.93204426774959,73.26537760108293L-76.06795573225041,73.26537760108293L-76.06795573225041,97.40128906558375Z Z  Z M-30.59871093441626,33.401289065583754L-30.598710934416257,9.265377601082923L-54.73462239891708,9.26537760108292L-54.73462239891709,33.40128906558375Z Z  Z M-30.59871093441626,54.73462239891708L-30.598710934416257,30.59871093441626L-54.73462239891708,30.598710934416253L-54.73462239891709,54.73462239891708Z Z  Z M-30.59871093441626,76.06795573225041L-30.598710934416257,51.93204426774959L-54.73462239891708,51.93204426774958L-54.73462239891709,76.06795573225041Z Z  Z M-30.59871093441626,97.40128906558375L-30.598710934416257,73.26537760108293L-54.73462239891708,73.26537760108293L-54.73462239891709,97.40128906558375Z Z  Z M-9.265377601082923,33.401289065583754L-9.265377601082921,9.265377601082923L-33.40128906558375,9.26537760108292L-33.401289065583754,33.40128906558375Z Z  Z M-9.265377601082923,54.73462239891708L-9.265377601082921,30.59871093441626L-33.40128906558375,30.598710934416253L-33.401289065583754,54.73462239891708Z Z  Z M-9.265377601082923,76.06795573225041L-9.265377601082921,51.93204426774959L-33.40128906558375,51.93204426774958L-33.401289065583754,76.06795573225041Z Z  Z M-9.265377601082923,97.40128906558375L-9.265377601082921,73.26537760108293L-33.40128906558375,73.26537760108293L-33.401289065583754,97.40128906558375Z Z  Z  Z M-73.26537760108293,140.06795573225043L-73.26537760108293,115.93204426774959L-97.40128906558375,115.93204426774959L-97.40128906558375,140.06795573225043Z Z  Z M-73.26537760108293,161.40128906558377L-73.26537760108293,137.26537760108292L-97.40128906558375,137.26537760108292L-97.40128906558375,161.40128906558374Z Z  Z M-73.26537760108293,182.73462239891708L-73.26537760108293,158.59871093441623L-97.40128906558375,158.59871093441623L-97.40128906558375,182.73462239891705Z Z  Z M-73.26537760108293,204.06795573225043L-73.26537760108293,179.93204426774957L-97.40128906558375,179.93204426774957L-97.40128906558375,204.06795573225043Z Z  Z M-51.93204426774959,140.06795573225043L-51.93204426774959,115.93204426774959L-76.06795573225041,115.93204426774959L-76.06795573225041,140.06795573225043Z Z  Z M-51.93204426774959,161.40128906558377L-51.93204426774959,137.26537760108292L-76.06795573225041,137.26537760108292L-76.06795573225041,161.40128906558374Z Z  Z M-51.93204426774959,182.73462239891708L-51.93204426774959,158.59871093441623L-76.06795573225041,158.59871093441623L-76.06795573225041,182.73462239891705Z Z  Z M-51.93204426774959,204.06795573225043L-51.93204426774959,179.93204426774957L-76.06795573225041,179.93204426774957L-76.06795573225041,204.06795573225043Z Z  Z M-30.59871093441626,140.06795573225043L-30.598710934416257,115.93204426774959L-54.73462239891708,115.93204426774959L-54.73462239891709,140.06795573225043Z Z  Z M-30.59871093441626,161.40128906558377L-30.598710934416257,137.26537760108292L-54.73462239891708,137.26537760108292L-54.73462239891709,161.40128906558374Z Z  Z M-30.59871093441626,182.73462239891708L-30.598710934416257,158.59871093441623L-54.73462239891708,158.59871093441623L-54.73462239891709,182.73462239891705Z Z  Z M-30.59871093441626,204.06795573225043L-30.598710934416257,179.93204426774957L-54.73462239891708,179.93204426774957L-54.73462239891709,204.06795573225043Z Z  Z M-9.265377601082923,140.06795573225043L-9.265377601082921,115.93204426774959L-33.40128906558375,115.93204426774959L-33.401289065583754,140.06795573225043Z Z  Z M-9.265377601082923,161.40128906558377L-9.265377601082921,137.26537760108292L-33.40128906558375,137.26537760108292L-33.401289065583754,161.40128906558374Z Z  Z M-9.265377601082923,182.73462239891708L-9.265377601082921,158.59871093441623L-33.40128906558375,158.59871093441623L-33.401289065583754,182.73462239891705Z Z  Z M-9.265377601082923,204.06795573225043L-9.265377601082921,179.93204426774957L-33.40128906558375,179.93204426774957L-33.401289065583754,204.06795573225043Z Z  Z  Z M33.40128906558375,-179.93204426774957L33.401289065583754,-204.06795573225043L9.265377601082923,-204.06795573225043L9.26537760108292,-179.93204426774957Z Z  Z M33.40128906558375,-158.59871093441623L33.401289065583754,-182.73462239891708L9.265377601082923,-182.73462239891708L9.26537760108292,-158.59871093441626Z Z  Z M33.40128906558375,-137.26537760108292L33.401289065583754,-161.40128906558377L9.265377601082923,-161.40128906558377L9.26537760108292,-137.26537760108295Z Z  Z M33.40128906558375,-115.93204426774959L33.401289065583754,-140.06795573225043L9.265377601082923,-140.06795573225043L9.26537760108292,-115.93204426774959Z Z  Z M54.73462239891708,-179.93204426774957L54.73462239891708,-204.06795573225043L30.59871093441626,-204.06795573225043L30.598710934416253,-179.93204426774957Z Z  Z M54.73462239891708,-158.59871093441623L54.73462239891708,-182.73462239891708L30.59871093441626,-182.73462239891708L30.598710934416253,-158.59871093441626Z Z  Z M54.73462239891708,-137.26537760108292L54.73462239891708,-161.40128906558377L30.59871093441626,-161.40128906558377L30.598710934416253,-137.26537760108295Z Z  Z M54.73462239891708,-115.93204426774959L54.73462239891708,-140.06795573225043L30.59871093441626,-140.06795573225043L30.598710934416253,-115.93204426774959Z Z  Z M76.06795573225041,-179.93204426774957L76.06795573225041,-204.06795573225043L51.93204426774959,-204.06795573225043L51.93204426774958,-179.93204426774957Z Z  Z M76.06795573225041,-158.59871093441623L76.06795573225041,-182.73462239891708L51.93204426774959,-182.73462239891708L51.93204426774958,-158.59871093441626Z Z  Z M76.06795573225041,-137.26537760108292L76.06795573225041,-161.40128906558377L51.93204426774959,-161.40128906558377L51.93204426774958,-137.26537760108295Z Z  Z M76.06795573225041,-115.93204426774959L76.06795573225041,-140.06795573225043L51.93204426774959,-140.06795573225043L51.93204426774958,-115.93204426774959Z Z  Z M97.40128906558375,-179.93204426774957L97.40128906558375,-204.06795573225043L73.26537760108293,-204.06795573225043L73.26537760108293,-179.93204426774957Z Z  Z M97.40128906558375,-158.59871093441623L97.40128906558375,-182.73462239891708L73.26537760108293,-182.73462239891708L73.26537760108293,-158.59871093441626Z Z  Z M97.40128906558375,-137.26537760108292L97.40128906558375,-161.40128906558377L73.26537760108293,-161.40128906558377L73.26537760108293,-137.26537760108295Z Z  Z M97.40128906558375,-115.93204426774959L97.40128906558375,-140.06795573225043L73.26537760108293,-140.06795573225043L73.26537760108293,-115.93204426774959Z Z  Z  Z M33.40128906558375,-73.26537760108293L33.401289065583754,-97.40128906558375L9.265377601082923,-97.40128906558375L9.26537760108292,-73.26537760108293Z Z  Z M33.40128906558375,-51.93204426774959L33.401289065583754,-76.06795573225041L9.265377601082923,-76.06795573225041L9.26537760108292,-51.93204426774959Z Z  Z M33.40128906558375,-30.598710934416257L33.401289065583754,-54.73462239891708L9.265377601082923,-54.73462239891709L9.26537760108292,-30.59871093441626Z Z  Z M33.40128906558375,-9.265377601082921L33.401289065583754,-33.40128906558375L9.265377601082923,-33.401289065583754L9.26537760108292,-9.265377601082925Z Z  Z M54.73462239891708,-73.26537760108293L54.73462239891708,-97.40128906558375L30.59871093441626,-97.40128906558375L30.598710934416253,-73.26537760108293Z Z  Z M54.73462239891708,-51.93204426774959L54.73462239891708,-76.06795573225041L30.59871093441626,-76.06795573225041L30.598710934416253,-51.93204426774959Z Z  Z M54.73462239891708,-30.598710934416257L54.73462239891708,-54.73462239891708L30.59871093441626,-54.73462239891709L30.598710934416253,-30.59871093441626Z Z  Z M54.73462239891708,-9.265377601082921L54.73462239891708,-33.40128906558375L30.59871093441626,-33.401289065583754L30.598710934416253,-9.265377601082925Z Z  Z M76.06795573225041,-73.26537760108293L76.06795573225041,-97.40128906558375L51.93204426774959,-97.40128906558375L51.93204426774958,-73.26537760108293Z Z  Z M76.06795573225041,-51.93204426774959L76.06795573225041,-76.06795573225041L51.93204426774959,-76.06795573225041L51.93204426774958,-51.93204426774959Z Z  Z M76.06795573225041,-30.598710934416257L76.06795573225041,-54.73462239891708L51.93204426774959,-54.73462239891709L51.93204426774958,-30.59871093441626Z Z  Z M76.06795573225041,-9.265377601082921L76.06795573225041,-33.40128906558375L51.93204426774959,-33.401289065583754L51.93204426774958,-9.265377601082925Z Z  Z M97.40128906558375,-73.26537760108293L97.40128906558375,-97.40128906558375L73.26537760108293,-97.40128906558375L73.26537760108293,-73.26537760108293Z Z  Z M97.40128906558375,-51.93204426774959L97.40128906558375,-76.06795573225041L73.26537760108293,-76.06795573225041L73.26537760108293,-51.93204426774959Z Z  Z M97.40128906558375,-30.598710934416257L97.40128906558375,-54.73462239891708L73.26537760108293,-54.73462239891709L73.26537760108293,-30.59871093441626Z Z  Z M97.40128906558375,-9.265377601082921L97.40128906558375,-33.40128906558375L73.26537760108293,-33.401289065583754L73.26537760108293,-9.265377601082925Z Z  Z  Z M33.40128906558375,33.401289065583754L33.401289065583754,9.265377601082923L9.265377601082923,9.26537760108292L9.26537760108292,33.40128906558375Z Z  Z M33.40128906558375,54.73462239891708L33.401289065583754,30.59871093441626L9.265377601082923,30.598710934416253L9.26537760108292,54.73462239891708Z Z  Z M33.40128906558375,76.06795573225041L33.401289065583754,51.93204426774959L9.265377601082923,51.93204426774958L9.26537760108292,76.06795573225041Z Z  Z M33.40128906558375,97.40128906558375L33.401289065583754,73.26537760108293L9.265377601082923,73.26537760108293L9.26537760108292,97.40128906558375Z Z  Z M54.73462239891708,33.401289065583754L54.73462239891708,9.265377601082923L30.59871093441626,9.26537760108292L30.598710934416253,33.40128906558375Z Z  Z M54.73462239891708,54.73462239891708L54.73462239891708,30.59871093441626L30.59871093441626,30.598710934416253L30.598710934416253,54.73462239891708Z Z  Z M54.73462239891708,76.06795573225041L54.73462239891708,51.93204426774959L30.59871093441626,51.93204426774958L30.598710934416253,76.06795573225041Z Z  Z M54.73462239891708,97.40128906558375L54.73462239891708,73.26537760108293L30.59871093441626,73.26537760108293L30.598710934416253,97.40128906558375Z Z  Z M76.06795573225041,33.401289065583754L76.06795573225041,9.265377601082923L51.93204426774959,9.26537760108292L51.93204426774958,33.40128906558375Z Z  Z M76.06795573225041,54.73462239891708L76.06795573225041,30.59871093441626L51.93204426774959,30.598710934416253L51.93204426774958,54.73462239891708Z Z  Z M76.06795573225041,76.06795573225041L76.06795573225041,51.93204426774959L51.93204426774959,51.93204426774958L51.93204426774958,76.06795573225041Z Z  Z M76.06795573225041,97.40128906558375L76.06795573225041,73.26537760108293L51.93204426774959,73.26537760108293L51.93204426774958,97.40128906558375Z Z  Z M97.40128906558375,33.401289065583754L97.40128906558375,9.265377601082923L73.26537760108293,9.26537760108292L73.26537760108293,33.40128906558375Z Z  Z M97.40128906558375,54.73462239891708L97.40128906558375,30.59871093441626L73.26537760108293,30.598710934416253L73.26537760108293,54.73462239891708Z Z  Z M97.40128906558375,76.06795573225041L97.40128906558375,51.93204426774959L73.26537760108293,51.93204426774958L73.26537760108293,76.06795573225041Z Z  Z M97.40128906558375,97.40128906558375L97.40128906558375,73.26537760108293L73.26537760108293,73.26537760108293L73.26537760108293,97.40128906558375Z Z  Z  Z M33.40128906558375,140.06795573225043L33.401289065583754,115.93204426774959L9.265377601082923,115.93204426774959L9.26537760108292,140.06795573225043Z Z  Z M33.40128906558375,161.40128906558377L33.401289065583754,137.26537760108292L9.265377601082923,137.26537760108292L9.26537760108292,161.40128906558374Z Z  Z M33.40128906558375,182.73462239891708L33.401289065583754,158.59871093441623L9.265377601082923,158.59871093441623L9.26537760108292,182.73462239891705Z Z  Z M33.40128906558375,204.06795573225043L33.401289065583754,179.93204426774957L9.265377601082923,179.93204426774957L9.26537760108292,204.06795573225043Z Z  Z M54.73462239891708,140.06795573225043L54.73462239891708,115.93204426774959L30.59871093441626,115.93204426774959L30.598710934416253,140.06795573225043Z Z  Z M54.73462239891708,161.40128906558377L54.73462239891708,137.26537760108292L30.59871093441626,137.26537760108292L30.598710934416253,161.40128906558374Z Z  Z M54.73462239891708,182.73462239891708L54.73462239891708,158.59871093441623L30.59871093441626,158.59871093441623L30.598710934416253,182.73462239891705Z Z  Z M54.73462239891708,204.06795573225043L54.73462239891708,179.93204426774957L30.59871093441626,179.93204426774957L30.598710934416253,204.06795573225043Z Z  Z M76.06795573225041,140.06795573225043L76.06795573225041,115.93204426774959L51.93204426774959,115.93204426774959L51.93204426774958,140.06795573225043Z Z  Z M76.06795573225041,161.40128906558377L76.06795573225041,137.26537760108292L51.93204426774959,137.26537760108292L51.93204426774958,161.40128906558374Z Z  Z M76.06795573225041,182.73462239891708L76.06795573225041,158.59871093441623L51.93204426774959,158.59871093441623L51.93204426774958,182.73462239891705Z Z  Z M76.06795573225041,204.06795573225043L76.06795573225041,179.93204426774957L51.93204426774959,179.93204426774957L51.93204426774958,204.06795573225043Z Z  Z M97.40128906558375,140.06795573225043L97.40128906558375,115.93204426774959L73.26537760108293,115.93204426774959L73.26537760108293,140.06795573225043Z Z  Z M97.40128906558375,161.40128906558377L97.40128906558375,137.26537760108292L73.26537760108293,137.26537760108292L73.26537760108293,161.40128906558374Z Z  Z M97.40128906558375,182.73462239891708L97.40128906558375,158.59871093441623L73.26537760108293,158.59871093441623L73.26537760108293,182.73462239891705Z Z  Z M97.40128906558375,204.06795573225043L97.40128906558375,179.93204426774957L73.26537760108293,179.93204426774957L73.26537760108293,204.06795573225043Z Z  Z  Z M140.06795573225043,-179.93204426774957L140.06795573225043,-204.06795573225043L115.93204426774959,-204.06795573225043L115.93204426774959,-179.93204426774957Z Z  Z M140.06795573225043,-158.59871093441623L140.06795573225043,-182.73462239891708L115.93204426774959,-182.73462239891708L115.93204426774959,-158.59871093441626Z Z  Z M140.06795573225043,-137.26537760108292L140.06795573225043,-161.40128906558377L115.93204426774959,-161.40128906558377L115.93204426774959,-137.26537760108295Z Z  Z M140.06795573225043,-115.93204426774959L140.06795573225043,-140.06795573225043L115.93204426774959,-140.06795573225043L115.93204426774959,-115.93204426774959Z Z  Z M161.40128906558377,-179.93204426774957L161.40128906558377,-204.06795573225043L137.26537760108292,-204.06795573225043L137.26537760108292,-179.93204426774957Z Z  Z M161.40128906558377,-158.59871093441623L161.40128906558377,-182.73462239891708L137.26537760108292,-182.73462239891708L137.26537760108292,-158.59871093441626Z Z  Z M161.40128906558377,-137.26537760108292L161.40128906558377,-161.40128906558377L137.26537760108292,-161.40128906558377L137.26537760108292,-137.26537760108295Z Z  Z M161.40128906558377,-115.93204426774959L161.40128906558377,-140.06795573225043L137.26537760108292,-140.06795573225043L137.26537760108292,-115.93204426774959Z Z  Z M182.73462239891708,-179.93204426774957L182.73462239891708,-204.06795573225043L158.59871093441623,-204.06795573225043L158.59871093441623,-179.93204426774957Z Z  Z M182.73462239891708,-158.59871093441623L182.73462239891708,-182.73462239891708L158.59871093441623,-182.73462239891708L158.59871093441623,-158.59871093441626Z Z  Z M182.73462239891708,-137.26537760108292L182.73462239891708,-161.40128906558377L158.59871093441623,-161.40128906558377L158.59871093441623,-137.26537760108295Z Z  Z M182.73462239891708,-115.93204426774959L182.73462239891708,-140.06795573225043L158.59871093441623,-140.06795573225043L158.59871093441623,-115.93204426774959Z Z  Z M204.06795573225043,-179.93204426774957L204.06795573225043,-204.06795573225043L179.93204426774957,-204.06795573225043L179.93204426774957,-179.93204426774957Z Z  Z M204.06795573225043,-158.59871093441623L204.06795573225043,-182.73462239891708L179.93204426774957,-182.73462239891708L179.93204426774957,-158.59871093441626Z Z  Z M204.06795573225043,-137.26537760108292L204.06795573225043,-161.40128906558377L179.93204426774957,-161.40128906558377L179.93204426774957,-137.26537760108295Z Z  Z M204.06795573225043,-115.93204426774959L204.06795573225043,-140.06795573225043L179.93204426774957,-140.06795573225043L179.93204426774957,-115.93204426774959Z Z  Z  Z M140.06795573225043,-73.26537760108293L140.06795573225043,-97.40128906558375L115.93204426774959,-97.40128906558375L115.93204426774959,-73.26537760108293Z Z  Z M140.06795573225043,-51.93204426774959L140.06795573225043,-76.06795573225041L115.93204426774959,-76.06795573225041L115.93204426774959,-51.93204426774959Z Z  Z M140.06795573225043,-30.598710934416257L140.06795573225043,-54.73462239891708L115.93204426774959,-54.73462239891709L115.93204426774959,-30.59871093441626Z Z  Z M140.06795573225043,-9.265377601082921L140.06795573225043,-33.40128906558375L115.93204426774959,-33.401289065583754L115.93204426774959,-9.265377601082925Z Z  Z M161.40128906558377,-73.26537760108293L161.40128906558377,-97.40128906558375L137.26537760108292,-97.40128906558375L137.26537760108292,-73.26537760108293Z Z  Z M161.40128906558377,-51.93204426774959L161.40128906558377,-76.06795573225041L137.26537760108292,-76.06795573225041L137.26537760108292,-51.93204426774959Z Z  Z M161.40128906558377,-30.598710934416257L161.40128906558377,-54.73462239891708L137.26537760108292,-54.73462239891709L137.26537760108292,-30.59871093441626Z Z  Z M161.40128906558377,-9.265377601082921L161.40128906558377,-33.40128906558375L137.26537760108292,-33.401289065583754L137.26537760108292,-9.265377601082925Z Z  Z M182.73462239891708,-73.26537760108293L182.73462239891708,-97.40128906558375L158.59871093441623,-97.40128906558375L158.59871093441623,-73.26537760108293Z Z  Z M182.73462239891708,-51.93204426774959L182.73462239891708,-76.06795573225041L158.59871093441623,-76.06795573225041L158.59871093441623,-51.93204426774959Z Z  Z M182.73462239891708,-30.598710934416257L182.73462239891708,-54.73462239891708L158.59871093441623,-54.73462239891709L158.59871093441623,-30.59871093441626Z Z  Z M182.73462239891708,-9.265377601082921L182.73462239891708,-33.40128906558375L158.59871093441623,-33.401289065583754L158.59871093441623,-9.265377601082925Z Z  Z M204.06795573225043,-73.26537760108293L204.06795573225043,-97.40128906558375L179.93204426774957,-97.40128906558375L179.93204426774957,-73.26537760108293Z Z  Z M204.06795573225043,-51.93204426774959L204.06795573225043,-76.06795573225041L179.93204426774957,-76.06795573225041L179.93204426774957,-51.93204426774959Z Z  Z M204.06795573225043,-30.598710934416257L204.06795573225043,-54.73462239891708L179.93204426774957,-54.73462239891709L179.93204426774957,-30.59871093441626Z Z  Z M204.06795573225043,-9.265377601082921L204.06795573225043,-33.40128906558375L179.93204426774957,-33.401289065583754L179.93204426774957,-9.265377601082925Z Z  Z  Z M140.06795573225043,33.401289065583754L140.06795573225043,9.265377601082923L115.93204426774959,9.26537760108292L115.93204426774959,33.40128906558375Z Z  Z M140.06795573225043,54.73462239891708L140.06795573225043,30.59871093441626L115.93204426774959,30.598710934416253L115.93204426774959,54.73462239891708Z Z  Z M140.06795573225043,76.06795573225041L140.06795573225043,51.93204426774959L115.93204426774959,51.93204426774958L115.93204426774959,76.06795573225041Z Z  Z M140.06795573225043,97.40128906558375L140.06795573225043,73.26537760108293L115.93204426774959,73.26537760108293L115.93204426774959,97.40128906558375Z Z  Z M161.40128906558377,33.401289065583754L161.40128906558377,9.265377601082923L137.26537760108292,9.26537760108292L137.26537760108292,33.40128906558375Z Z  Z M161.40128906558377,54.73462239891708L161.40128906558377,30.59871093441626L137.26537760108292,30.598710934416253L137.26537760108292,54.73462239891708Z Z  Z M161.40128906558377,76.06795573225041L161.40128906558377,51.93204426774959L137.26537760108292,51.93204426774958L137.26537760108292,76.06795573225041Z Z  Z M161.40128906558377,97.40128906558375L161.40128906558377,73.26537760108293L137.26537760108292,73.26537760108293L137.26537760108292,97.40128906558375Z Z  Z M182.73462239891708,33.401289065583754L182.73462239891708,9.265377601082923L158.59871093441623,9.26537760108292L158.59871093441623,33.40128906558375Z Z  Z M182.73462239891708,54.73462239891708L182.73462239891708,30.59871093441626L158.59871093441623,30.598710934416253L158.59871093441623,54.73462239891708Z Z  Z M182.73462239891708,76.06795573225041L182.73462239891708,51.93204426774959L158.59871093441623,51.93204426774958L158.59871093441623,76.06795573225041Z Z  Z M182.73462239891708,97.40128906558375L182.73462239891708,73.26537760108293L158.59871093441623,73.26537760108293L158.59871093441623,97.40128906558375Z Z  Z M204.06795573225043,33.401289065583754L204.06795573225043,9.265377601082923L179.93204426774957,9.26537760108292L179.93204426774957,33.40128906558375Z Z  Z M204.06795573225043,54.73462239891708L204.06795573225043,30.59871093441626L179.93204426774957,30.598710934416253L179.93204426774957,54.73462239891708Z Z  Z M204.06795573225043,76.06795573225041L204.06795573225043,51.93204426774959L179.93204426774957,51.93204426774958L179.93204426774957,76.06795573225041Z Z  Z M204.06795573225043,97.40128906558375L204.06795573225043,73.26537760108293L179.93204426774957,73.26537760108293L179.93204426774957,97.40128906558375Z Z  Z  Z M140.06795573225043,140.06795573225043L140.06795573225043,115.93204426774959L115.93204426774959,115.93204426774959L115.93204426774959,140.06795573225043Z Z  Z M140.06795573225043,161.40128906558377L140.06795573225043,137.26537760108292L115.93204426774959,137.26537760108292L115.93204426774959,161.40128906558374Z Z  Z M140.06795573225043,182.73462239891708L140.06795573225043,158.59871093441623L115.93204426774959,158.59871093441623L115.93204426774959,182.73462239891705Z Z  Z M140.06795573225043,204.06795573225043L140.06795573225043,179.93204426774957L115.93204426774959,179.93204426774957L115.93204426774959,204.06795573225043Z Z  Z M161.40128906558377,140.06795573225043L161.40128906558377,115.93204426774959L137.26537760108292,115.93204426774959L137.26537760108292,140.06795573225043Z Z  Z M161.40128906558377,161.40128906558377L161.40128906558377,137.26537760108292L137.26537760108292,137.26537760108292L137.26537760108292,161.40128906558374Z Z  Z M161.40128906558377,182.73462239891708L161.40128906558377,158.59871093441623L137.26537760108292,158.59871093441623L137.26537760108292,182.73462239891705Z Z  Z M161.40128906558377,204.06795573225043L161.40128906558377,179.93204426774957L137.26537760108292,179.93204426774957L137.26537760108292,204.06795573225043Z Z  Z M182.73462239891708,140.06795573225043L182.73462239891708,115.93204426774959L158.59871093441623,115.93204426774959L158.59871093441623,140.06795573225043Z Z  Z M182.73462239891708,161.40128906558377L182.73462239891708,137.26537760108292L158.59871093441623,137.26537760108292L158.59871093441623,161.40128906558374Z Z  Z M182.73462239891708,182.73462239891708L182.73462239891708,158.59871093441623L158.59871093441623,158.59871093441623L158.59871093441623,182.73462239891705Z Z  Z M182.73462239891708,204.06795573225043L182.73462239891708,179.93204426774957L158.59871093441623,179.93204426774957L158.59871093441623,204.06795573225043Z Z  Z M204.06795573225043,140.06795573225043L204.06795573225043,115.93204426774959L179.93204426774957,115.93204426774959L179.93204426774957,140.06795573225043Z Z  Z M204.06795573225043,161.40128906558377L204.06795573225043,137.26537760108292L179.93204426774957,137.26537760108292L179.93204426774957,161.40128906558374Z Z  Z M204.06795573225043,182.73462239891708L204.06795573225043,158.59871093441623L179.93204426774957,158.59871093441623L179.93204426774957,182.73462239891705Z Z  Z M204.06795573225043,204.06795573225043L204.06795573225043,179.93204426774957L179.93204426774957,179.93204426774957L179.93204426774957,204.06795573225043Z Z  Z  Z " fill="#5cc"></path></g><text x="320" y="632" text-anchor="middle" fill="#606060">_shape #22 fractal #16</text></svg>