<svg xmlns="http://www.w3.org/2000/svg" width="640" height="640" viewport-fill="#000"><defs><style type="text/css">text{ font-family: Freemono, Sans, Arial; fill: #555} 
</style></defs><rect x="0" y="0" width="640" height="640" fill="#fff" stroke="#708070"></rect><g fill-rule="evenodd"><path d="M504.75208614068026,213.33333333333337L135.2479138593198,213.33333333333323L146.11568363230097,232.15686274509795L504.75208614068026,213.33333333333337L156.98345340528218,250.98039215686265L167.85122317826335,269.8039215686274L504.75208614068026,213.33333333333337L178.71899295124456,288.6274509803921L189.58676272422574,307.4509803921568L504.75208614068026,213.33333333333337L200.4545324972069,326.27450980392155L211.32230227018812,345.0980392156862L504.75208614068026,213.33333333333337L222.19007204316932,363.92156862745094L233.05784181615047,382.74509803921563L504.75208614068026,213.33333333333337L243.92561158913168,401.56862745098033L254.79338136211288,420.3921568627451L504.75208614068026,213.33333333333337L265.6611511350941,439.21568627450984L276.52892090807524,458.0392156862745L504.75208614068026,213.33333333333337L287.39669068105644,476.8627450980392L298.2644604540376,495.68627450980387L504.75208614068026,213.33333333333337L309.1322302270188,514.5098039215686L320,533.3333333333334L504.75208614068026,213.33333333333337L320,533.3333333333334L330.8677697729812,514.5098039215686L135.2479138593198,213.33333333333323L341.7355395459624,495.686274509804L352.60330931894356,476.8627450980392L135.2479138593198,213.33333333333323L363.47107909192476,458.03921568627453L374.33884886490597,439.21568627450984L135.2479138593198,213.33333333333323L385.2066186378872,420.39215686274514L396.0743884108683,401.56862745098044L135.2479138593198,213.33333333333323L406.94215818384953,382.7450980392157L417.80992795683073,363.92156862745105L135.2479138593198,213.33333333333323L428.67769772981194,345.0980392156863L439.54546750279314,326.2745098039216L135.2479138593198,213.33333333333323L450.41323727577435,307.4509803921569L461.2810070487555,288.6274509803922L135.2479138593198,213.33333333333323L472.14877682173665,269.8039215686275L483.01654659471785,250.98039215686276L135.2479138593198,213.33333333333323L493.88431636769906,232.15686274509807L504.75208614068026,213.33333333333337L135.2479138593198,213.33333333333323Z" fill="#5cc"></path></g><text x="320" y="632" text-anchor="middle" fill="#606060">_shape #24</text></svg>