<svg xmlns="http://www.w3.org/2000/svg" width="640" height="640" viewport-fill="#000"><defs><style type="text/css">text{ font-family: Freemono, Sans, Arial; fill: #555} 
</style></defs><rect x="0" y="0" width="640" height="640" fill="#fff" stroke="#708070"></rect><g fill-rule="evenodd"><path d="M135.24791385931977,426.6666666666667L504.75208614068026,426.6666666666667L490.54038720678176,402.05128205128204L135.24791385931977,426.6666666666667L476.3286882728833,377.43589743589746L462.1169893389848,352.8205128205128L135.24791385931977,426.6666666666667L447.90529040508636,328.20512820512823L433.69359147118786,303.5897435897436L135.24791385931977,426.6666666666667L419.48189253728935,278.974358974359L405.2701936033909,254.3589743589744L135.24791385931977,426.6666666666667L391.0584946694924,229.74358974358975L376.8467957355939,205.12820512820514L135.24791385931977,426.6666666666667L362.63509680169545,180.51282051282053L348.423397867797,155.8974358974359L135.24791385931977,426.6666666666667L334.21169893389845,131.28205128205127L320,106.66666666666669L135.24791385931977,426.6666666666667Z Z M426.6666666666667,213.33333333333331L412.4549677327682,237.94871794871793L611.4187528073469,533.3333333333334L398.24326879886974,262.56410256410254L384.03156986497123,287.1794871794872L611.4187528073469,533.3333333333334L369.8198709310727,311.7948717948718L355.6081719971743,336.4102564102564L611.4187528073469,533.3333333333334L341.3964730632758,361.02564102564105L327.18477412937733,385.64102564102564L611.4187528073469,533.3333333333334L312.9730751954788,410.2564102564103L298.7613762615804,434.8717948717949L611.4187528073469,533.3333333333334L284.5496773276818,459.48717948717956L270.3379783937834,484.10256410256414L611.4187528073469,533.3333333333334L256.1262794598849,508.7179487179488L241.91458052598642,533.3333333333334L611.4187528073469,533.3333333333334Z" fill="#5cc"></path></g><text x="320" y="632" text-anchor="middle" fill="#606060">_shape #26</text></svg>