<svg xmlns="http://www.w3.org/2000/svg" width="640" height="640" viewport-fill="#000"><defs><style type="text/css">text{ font-family: Freemono, Sans, Arial; fill: #555} 
</style></defs><rect x="0" y="0" width="640" height="640" fill="#fff" stroke="#708070"></rect><g fill-rule="evenodd"><path d="M381.18468964503256,524.3710959606376L357.04494456894514,530.0923206426044L355.76753268725736,522.8477578618249L379.0748727607211,517.3238167895811Z" class="chevron" fill="#5cc"></path><path d="M426.66666666666663,504.75208614068026L404.4970167550201,515.8861028011252L398.66963628915664,502.3767164010476L419.31034482758616,492.0105629585644Z" class="chevron" fill="#5cc"></path><path d="M466.39821607866315,475.1730435355837L447.3938328965944,491.1196144544094L434.2151605279812,473.4175853729187L451.25357303604284,459.1206597215578Z" class="chevron" fill="#5cc"></path><path d="M498.2373997680931,437.22858198843863L483.4228145320486,457.1280233997951L460.8817366655592,438.2138132756854L473.652930834563,421.0591224038264Z" class="chevron" fill="#5cc"></path><path d="M520.4677591009938,392.9642972428094L510.6416299356613,415.74382510943195L477.77238339503003,399.2362690560816L485.9043523594432,380.38424599404914Z" class="chevron" fill="#5cc"></path><path d="M531.8908496516145,344.7664883467158L527.5829057236957,369.1980524250539L484.63471833258626,359.01914502676686L488.0513635167977,339.64238730946425Z" class="chevron" fill="#5cc"></path><path d="M531.8908496516145,295.2335116532842L533.3333333333334,320L481.8390804597701,320L480.74478249432826,301.2116295300777Z" class="chevron" fill="#5cc"></path><path d="M520.4677591009938,247.03570275719068L527.5829057236957,270.8019475749461L470.3186558688831,284.3738241059954L465.1663083145128,267.163784755207Z" class="chevron" fill="#5cc"></path><path d="M498.23739976809316,202.77141801156145L510.6416299356613,224.25617489056805L451.476986162525,253.96977578659866L442.92234466765046,239.15270207693894Z" class="chevron" fill="#5cc"></path><path d="M466.39821607866327,164.82695646441633L483.4228145320486,182.87197660020493L427.07011986582495,230.15750191047908L415.91607260326214,218.33490251116933Z" class="chevron" fill="#5cc"></path><path d="M426.66666666666674,135.2479138593198L447.3938328965944,148.88038554559063L399.0720342116793,213.78782551105627L386.2068965517242,205.3262913609571Z" class="chevron" fill="#5cc"></path><path d="M381.1846896450327,115.6289040393624L404.4970167550201,124.11389719887487L369.5327339598394,205.17021559934045L355.86688703329503,200.19625409204002Z" class="chevron" fill="#5cc"></path><path d="M332.40423016756824,107.02759290212944L357.04494456894514,109.90767935739561L340.4385901070042,204.08699550752863L326.84371319589974,202.49798229083004Z" class="chevron" fill="#5cc"></path><path d="M282.9550554310549,109.90767935739558L307.5957698324318,107.02759290212944L313.58401887884406,209.84185839765314L300.8388217746836,211.33155828830803Z" class="chevron" fill="#5cc"></path><path d="M235.50298324497993,124.11389719887484L258.8153103549674,115.6289040393624L290.4625636196394,221.33809160520946L279.20833673895584,225.4342951994568Z" class="chevron" fill="#5cc"></path><path d="M192.60616710340565,148.88038554559063L213.33333333333331,135.24791385931977L272.183908045977,237.1800993162468L262.8924197360094,243.2912073135406Z" class="chevron" fill="#5cc"></path><path d="M156.57718546795138,182.8719766002049L173.6017839213368,164.8269564644163L259.4214278295187,255.7904647438964L252.3767664005316,263.257369627671Z" class="chevron" fill="#5cc"></path><path d="M129.35837006433874,224.25617489056802L141.76260023190696,202.77141801156125L252.39271043279228,275.53398614231634L247.68765761061127,283.6833766826293Z" class="chevron" fill="#5cc"></path><path d="M112.41709427630425,270.80194757494604L119.53224089900624,247.03570275719053L250.8731865168987,294.8398975024795L248.41968768148422,303.03515433618827Z" class="chevron" fill="#5cc"></path><path d="M106.66666666666666,319.99999999999994L108.1091503483855,295.2335116532841L254.24077079777481,312.31384844412264L253.79310344827587,320Z" class="chevron" fill="#5cc"></path><path d="M112.41709427630423,369.1980524250539L108.10915034838547,344.7664883467157L261.5473518202443,326.83213471633536L262.73575014518735,333.5718765310494Z" class="chevron" fill="#5cc"></path><path d="M129.35837006433871,415.7438251094319L119.53224089900618,392.9642972428092L271.6112305618291,337.61207174826427L273.98305484311624,343.11057847469044Z" class="chevron" fill="#5cc"></path><path d="M156.57718546795132,457.12802339979504L141.76260023190682,437.2285819884385L283.1232965997049,344.2541893769183L286.1883832002658,348.37131518616445Z" class="chevron" fill="#5cc"></path><path d="M192.6061671034056,491.1196144544093L173.60178392133676,475.17304353558364L294.75892826229943,346.7539730233765L298.0355460523113,349.50338180248434Z" class="chevron" fill="#5cc"></path><path d="M235.50298324497987,515.8861028011252L213.33333333333323,504.7520861406802L305.28735632183907,345.48304636423177L308.3452390682731,347.0187728001552Z" class="chevron" fill="#5cc"></path><path d="M282.95505543105486,530.0923206426044L258.8153103549673,524.3710959606376L313.6705493470656,341.14183751316943L316.1677643549367,341.7336883423384Z" class="chevron" fill="#5cc"></path><path d="M332.4042301675682,532.9724070978706L307.5957698324317,532.9724070978706L319.1445358505125,334.68775221364626L320.8554641494875,334.68775221364626Z" class="chevron" fill="#5cc"></path></g><text x="320" y="632" text-anchor="middle" fill="#606060">_shape #34</text></svg>