<svg xmlns="http://www.w3.org/2000/svg" width="640" height="640" viewport-fill="#000"><defs><style type="text/css">text{ font-family: Freemono, Sans, Arial; fill: #555} 
</style></defs><rect x="0" y="0" width="640" height="640" fill="#fff" stroke="#708070"></rect><g fill-rule="evenodd"><path d="M322.3045304427123,328.0995843635606C322.06302115751305,328.1931455590943,322.06302115751305,328.1931455590943,322.3045304427123,328.0995843635606C322.54603972791153,328.0060231680269,323.51207686870845,327.6317783858921,323.7535861539077,327.5382171903584C323.99509543910693,327.4446559948247,323.99509543910693,327.4446559948247,323.7535861539077,327.5382171903584C323.51207686870845,327.6317783858921,322.54603972791153,328.0060231680269,322.3045304427123,328.0995843635606" class="chevron" fill="#5cc"></path><path d="M327.86596788537133,330.4162248613421C327.4847137114175,330.5746764148918,327.1655327619893,330.1092181001192,327.3584860863151,329.7442103541587C327.5514394106409,329.3792026081982,328.6424336573721,328.3846299391288,329.02368783132596,328.22617838557903C329.4049420052798,328.0677268320293,329.8389644543638,328.4284932868998,329.64601113003806,328.7935010328603C329.4530578057123,329.1585087788208,328.24722205932517,330.2577733077923,327.86596788537133,330.4162248613421" class="chevron" fill="#5cc"></path><path d="M335.0354188213237,329.30953719614695C334.5543253141477,329.6486440178648,333.62278469681615,329.01119302889646,333.60347417167384,328.4229146060377C333.5841636465315,327.83463618317893,334.43846216329376,326.11897348071227,334.9195556704697,325.7798666589944C335.4006491776457,325.4407598372766,336.47072468958737,325.79999525287195,336.4900352147297,326.3882736757307C336.509345739872,326.9765520985895,335.51651232849963,328.9704303744291,335.0354188213237,329.30953719614695" class="chevron" fill="#5cc"></path><path d="M341.9358207508408,324.1005155554856C341.45860921997365,324.70656659670516,339.8102447995865,324.319725506565,339.4525202884814,323.6363062473174C339.09479577737636,322.9528869880698,339.3122621533434,320.6060510412196,339.7894736842105,320C340.26668521507764,319.3939489587804,341.95806496257916,319.3165807407524,342.3157894736842,320C342.6735139847893,320.6834192592476,342.4130322817079,323.494464514266,341.9358207508408,324.1005155554856" class="chevron" fill="#5cc"></path><path d="M346.4885382651662,315.0484340462061C346.163504644143,315.9487493892412,343.9277750896082,316.261735170516,343.1774709820204,315.66737979043035C342.4271668744326,315.0730244103447,341.66167999861636,312.38261710872746,341.98671361963954,311.4823017656924C342.3117472406627,310.58198642265734,344.3773686005717,309.67113235213424,345.1276727081595,310.26548773221987C345.8779768157473,310.8598431123055,346.8135718861894,314.14811870317106,346.4885382651662,315.0484340462061" class="chevron" fill="#5cc"></path><path d="M346.8489621809352,303.3758264354519C346.8376249901194,304.520323466081,344.3730097189423,305.89468498940744,343.2691005568105,305.592382910725C342.1651913946787,305.2900808320426,340.21417001732857,302.7065109939864,340.22550720814434,301.56201396335734C340.2368443989601,300.4175169327283,342.2332145395732,298.42309864826836,343.337123701705,298.7254007269508C344.4410328638368,299.0277028056332,346.86029937175095,302.2313294048229,346.8489621809352,303.3758264354519" class="chevron" fill="#5cc"></path><path d="M341.8217173594173,291.10337619111556C342.2611183766301,292.36167571657506,340.0990679967398,294.96792653345597,338.77682656508,295.1354632342157C337.4545851334202,295.30299993497545,334.3276697866713,293.36689592113333,333.8882687694585,292.1085963956738C333.44886775224563,290.8502968702143,334.81817903014326,287.7532027822185,336.14042046180305,287.5856660814588C337.46266189346284,287.41812938069904,341.38231634220443,289.84507666565605,341.8217173594173,291.10337619111556" class="chevron" fill="#5cc"></path><path d="M331.1769726471545,280.7170158367312C332.1428671950873,281.8927833256627,330.88920738648665,285.6392757154148,329.56380133725594,286.3867248912236C328.23839528802523,287.1341740670324,324.19043089970296,286.3774783805156,323.22453635177015,285.20171089158407C322.25864180383735,284.02594340265256,322.44302800042834,280.0795691334432,323.76843404965905,279.3321199576344C325.09384009888976,278.5846707818256,330.2110780992217,279.5412483477997,331.1769726471545,280.7170158367312" class="chevron" fill="#5cc"></path><path d="M315.8042177591425,274.72029850953106C317.28259767894326,275.58132484240974,317.4933247607616,280.09146686436327,316.42581512815843,281.428402434045C315.35830549555527,282.7653380037267,310.8775398833243,283.6029382605,309.3991599635235,282.74191192762135C307.92078004372274,281.88088559474267,306.4880259767505,277.59918000645456,307.5555356093537,276.26224443677285C308.62304524195685,274.92530886709113,314.3258378393417,273.8592721766524,315.8042177591425,274.72029850953106" class="chevron" fill="#5cc"></path><path d="M297.6661623842493,275.1476077173674C299.53942187868444,275.4670854450507,301.59338879553087,280.1127265770445,301.0443899227662,281.93200318869C300.4953910500015,283.75127980033545,296.2454286420963,286.38274511492364,294.3721691476611,286.06326738724033C292.49890965322595,285.743789659557,289.2558340833905,281.83441343423556,289.80483295615517,280.0151368225901C290.35383182891985,278.1958602109446,295.7929028898141,274.8281299896841,297.6661623842493,275.1476077173674" class="chevron" fill="#5cc"></path><path d="M279.5489855837113,283.12402792671475C281.6007221977869,282.7261093563944,285.59346247901317,286.7149459253143,285.77221857083265,288.79725439952784C285.95097466265213,290.8795628737414,282.673258748704,295.2199602016758,280.6215221346284,295.6178787719962C278.5697855205528,296.01579734231655,273.64055497819857,293.2670742956636,273.46179888637903,291.18476582145C273.2830427945595,289.10245734723645,277.49724896963573,283.5219464970351,279.5489855837113,283.12402792671475" class="chevron" fill="#5cc"></path><path d="M264.64059606483613,298.5536526600469C266.5798951354545,297.3551209923883,272.2603538752042,299.85996968632674,273.2782335582659,301.8998912520963C274.29611324132765,303.9398128178659,272.6871732338249,309.59465038700586,270.7478741632066,310.79318205466444C268.8085750925882,311.991713722323,262.66031881761745,311.13100282381737,261.64243913455573,309.0910812580478C260.624559451494,307.0511596922782,262.7012969942178,299.7521843277055,264.64059606483613,298.5536526600469" class="chevron" fill="#5cc"></path><path d="M256,320C257.5025902562774,318.04000514328993,264.2681092462835,318.34947801540204,266.10526315789474,320C267.942417069506,321.65052198459796,268.525513725945,327.9431370508777,267.0229234696676,329.90313190758775C265.5203332133902,331.8631267642978,258.9268755318416,333.4104911248584,257.0897216202303,331.75996914026047C255.25256770861904,330.1094471556625,254.49740974372259,321.95999485671007,256,320" class="chevron" fill="#5cc"></path><path d="M256.0029585714063,344.7925859320025C256.7634285851277,342.24393089471346,263.7189194127485,339.9089006933437,266.2110756090961,340.8379403232168C268.7032318054437,341.7669799530899,271.7163657632131,347.8181686739521,270.9558957494917,350.3668237112411C270.19542573577024,352.9154787485302,264.140411723115,357.0589101768242,261.64825552676746,356.1298705469511C259.1560993304199,355.200830917078,255.24248855768485,347.34124096929156,256.0029585714063,344.7925859320025" class="chevron" fill="#5cc"></path><path d="M265.85787301204437,369.35707031347414C265.64475896402854,366.51528550123805,271.7210732512056,361.46455513305057,274.57039919401427,361.4145532515357C277.41972513682293,361.3645513700209,282.7407146208804,366.21527421214915,282.9538286688962,369.05705902438524C283.16694271691205,371.8988438366213,278.6984094249179,378.4152602434374,275.8490834821092,378.46526212495223C272.99975753930056,378.5152640064671,266.0709870600602,372.1988551257102,265.85787301204437,369.35707031347414" class="chevron" fill="#5cc"></path><path d="M285.27932807635386,389.7285090108154C283.98376372673783,386.97851365453914,288.0996138084444,379.58063825748127,290.9097073072154,378.4211832252778C293.7198008059864,377.2617281930743,300.84432471936384,380.02178346131825,302.13988906897987,382.7717788175945C303.4354534185959,385.52177417387077,301.49318690368244,393.7617003307319,298.68309340491146,394.9211553629354C295.8729999061405,396.0806103951389,286.5748924259699,392.47850436709166,285.27932807635386,389.7285090108154" class="chevron" fill="#5cc"></path><path d="M312.38543222955485,402.17427307529545C310.0544420957451,399.9382384337908,311.297636833777,390.9940998677722,313.62862696758674,388.7580652262676C315.9596171013965,386.522030584763,324.0403828986035,386.522030584763,326.37137303241326,388.75806522626766C328.702363166223,390.9940998677723,329.9455579042548,399.93823843379084,327.6145677704451,402.1742730752955C325.28357763663536,404.41030771680016,314.7164223633646,404.4103077168001,312.38543222955485,402.17427307529545" class="chevron" fill="#5cc"></path><path d="M343.8518900820721,403.830698162852C340.6993186881582,402.5041743002836,338.4980833045896,393.1655913225077,339.93418832946116,390.06140474479906C341.3702933543327,386.95721816709045,349.31594883738757,383.87905483403193,352.46852023130145,385.20557869660036C355.62109162521534,386.5321025591688,360.2857217178161,394.91636134250103,358.84961669294455,398.02054792020965C357.413511668073,401.12473449791827,347.004461475986,405.1572220254204,343.8518900820721,403.830698162852" class="chevron" fill="#5cc"></path><path d="M375.3155160971275,393.24958128298624C371.7067834562097,393.13543988299006,365.9615263665028,384.7571902170836,366.1808437141156,381.15332015368574C366.4001610617284,377.5494500902879,373.02268754188634,371.51221950260316,376.63142018280416,371.62636090259934C380.240152823722,371.74050230259553,388.0525569072353,378.23429849026513,387.83323955962254,381.83816855366297C387.61392221200975,385.4420386170608,378.9242487380453,393.3637226829824,375.3155160971275,393.24958128298624" class="chevron" fill="#5cc"></path><path d="M401.9788311924554,370.7591432837535C398.3897317111051,372.00996444534763,389.5400958464553,365.95418005014864,388.3753570207816,362.3362286777158C387.21061819510794,358.7182773052829,391.40129875706316,350.30225621075044,394.99039823841343,349.0514350491563C398.5794977197637,347.8006138875621,408.7452150832094,351.21335033571785,409.9099539088831,354.8313017081507C411.0746927345568,358.44925308058356,405.5679306738057,369.5083221221593,401.9788311924554,370.7591432837535" class="chevron" fill="#5cc"></path><path d="M419.33201849437324,338.5683723267271C416.2860269109894,341.14731292766146,405.296930775075,338.56837232672706,402.77668207864434,335.4736436056059C400.2564333822137,332.37891488448474,401.1645347324056,322.5789406009343,404.2105263157895,320C407.25651789917333,317.4210593990657,418.5323828825167,316.9052712788788,421.05263157894734,320C423.572880275378,323.0947287211212,422.3780100777571,335.98943172579277,419.33201849437324,338.5683723267271" class="chevron" fill="#5cc"></path><path d="M423.88473600869867,300.58057727496464C421.8770762370104,304.24850773035496,410.1394960757026,305.89168308204756,406.50163277218337,303.83004243214185C402.86376946866415,301.76840178223614,400.049896415895,291.8786638309208,402.05755618758326,288.2107333755305C404.06521595927154,284.54280292014016,414.9097280987937,279.76081904989405,418.54759140231295,281.82245969979977C422.18545470583217,283.8841003497055,425.89239578038695,296.9126468195743,423.88473600869867,300.58057727496464" class="chevron" fill="#5cc"></path><path d="M413.7923745520669,261.9262203478454C413.2118130978384,266.2592762866619,402.36750590465897,272.3064669892983,398.04098340591827,271.6790688390469C393.71446090717757,271.0516706887955,387.252678105394,262.4948873851535,387.83323955962254,258.16183144633703C388.41380101385107,253.82877550752056,397.19782963254875,245.05333505589678,401.5243521312895,245.68073320614818C405.85087463003026,246.30813135639957,414.37293600629545,257.59316440902893,413.7923745520669,261.9262203478454" class="chevron" fill="#5cc"></path><path d="M389.27126557117344,228.27001976947136C390.33172110318026,232.7071894499849,382.0438613136007,242.6978175813619,377.5991841928805,243.72635343468866C373.1545070721603,244.75488928801542,363.66365837885894,238.8784045699454,362.6032028468521,234.44123488943185C361.5427473148453,230.00406520891832,366.7917738801196,218.1318712049342,371.2364510008398,217.10333535160746C375.68112812156,216.0747994982807,388.21081003916663,223.83285008895783,389.27126557117344,228.27001976947136" class="chevron" fill="#5cc"></path><path d="M352.7243322865144,204.98590203743973C355.4176832738431,208.90152689912426,351.1194210729265,221.74664366398846,347.1934592240049,224.42490450998514C343.26749737508334,227.10316535598182,331.8619121803136,224.97109197510426,329.1685611929849,221.05546711341972C326.4752102056562,217.1398422517352,327.1073914511111,203.60941618587464,331.0333533000327,200.93115533987796C334.95931514895426,198.25289449388129,350.0309812991857,201.0702771757552,352.7243322865144,204.98590203743973" class="chevron" fill="#5cc"></path><path d="M308.5392985087688,196.3193338917747C312.61823422826046,199.11117189484125,313.27675635894263,213.20536571344596,310.4817902869436,217.28215865588066C307.6868242149445,221.35895159831537,295.8484377962661,223.57192954944944,291.7695020767745,220.7800915463829C287.6905663572828,217.98825354331635,283.2132098979947,204.60792357991616,286.0081759699938,200.53113063748145C288.8031420419928,196.45433769504675,304.46036278927716,193.52749588870816,308.5392985087688,196.3193338917747" class="chevron" fill="#5cc"></path><path d="M262.5701318452124,204.66527698751617C267.565827028708,205.84575386776652,273.4995092329311,219.26649491574852,272.3294558453724,224.26464168244806C271.15940245781377,229.2627884491476,260.5455067033561,235.83463446796372,255.54981151986053,234.65415758771337C250.55411633636493,233.47368070746302,241.18523135684023,222.17992716764556,242.3552847443989,217.18178040094602C243.52533813195754,212.1836336342465,257.57443666171685,203.4848001072658,262.5701318452124,204.66527698751617" class="chevron" fill="#5cc"></path><path d="M221.36175715412674,230.0793604059121C226.63610710481126,229.35634576402276,237.41650586412206,240.12620450010652,238.16448621935436,245.39707188250753C238.91246657458666,250.66793926490854,231.12398923620506,260.9815500584288,225.84963928552054,261.70456470031814C220.57528933483601,262.4275793422075,207.2663668704795,255.00602711624455,206.5183865152472,249.73515973384355C205.7704061600149,244.46429235144254,216.0874072034422,230.80237504780143,221.36175715412674,230.0793604059121" class="chevron" fill="#5cc"></path><path d="M191.2206773706826,270.110624627627C196.04753563723244,267.4448076901483,210.50688515659533,273.82078618380973,213.20739099032218,278.6283228619346C215.90789682404903,283.4358595400594,212.25057063959346,296.2900277588975,207.42371237304363,298.9558446963762C202.5968541064938,301.62166163385484,186.94674722475003,299.4307611649314,184.2462413910232,294.6232244868066C181.54573555729638,289.81568780868173,186.39381910413277,272.77644156510564,191.2206773706826,270.110624627627" class="chevron" fill="#5cc"></path><path d="M177.26315789473685,319.9999999999999C180.92827233633983,315.62869568141616,197.2782765621878,316.37658845568717,201.68421052631578,319.99999999999994C206.09014449044375,323.6234115443127,207.3638761211077,337.3691649472927,203.69876167950468,341.7404692658764C200.03364723790168,346.11177358446014,184.09945784082578,349.8512374558149,179.6935238766978,346.2278259115021C175.28758991256984,342.60441436718935,173.59804345313387,324.3713043185836,177.26315789473685,319.9999999999999" class="chevron" fill="#5cc"></path><path d="M182.58303987725284,373.2356139644226C184.48893819150558,367.6572859775594,200.5400708706305,362.26875474362924,206.14023304115236,364.1095087133787C211.7403952116742,365.9502626831282,218.08991121463677,378.7018097960562,216.18401290038403,384.2801377829194C214.2781145861313,389.8584657697826,200.30500532615775,399.4202306043074,194.7048431556359,397.5794766345579C189.10468098511404,395.73872266480845,180.6771415630001,378.8139419512858,182.58303987725284,373.2356139644226" class="chevron" fill="#5cc"></path><path d="M207.67064458245977,422.4017378342767C207.43116651115693,416.32109070460325,220.8858624327633,405.1373306036167,226.96266684253595,404.814735768556C233.0394712523086,404.49214093349525,243.8919929697929,414.3855216942389,244.13147104109575,420.4661688239123C244.3709491123986,426.54681595358574,234.4763396801257,440.97602371153573,228.39953527035306,441.29861854659646C222.3227308605804,441.6212133816572,207.9101226537626,428.4823849639501,207.67064458245977,422.4017378342767" class="chevron" fill="#5cc"></path><path d="M250.18329753731695,460.21083974066664C247.69313744802855,454.4502190022155,256.4736176223359,438.6680848218253,262.1947732298216,436.0885447315197C267.91592883730726,433.50900464121406,282.0200710929427,438.9729784603818,284.5102311822311,444.73359919883296C287.0003912715195,450.49421993728413,282.8568893730376,468.07272907192123,277.1357337655519,470.65226916222684C271.4145781580662,473.23180925253246,252.67345762660534,465.9714604791178,250.18329753731695,460.21083974066664" class="chevron" fill="#5cc"></path><path d="M305.1205129791813,480.575237693052C300.58803216344006,475.9634162449487,303.15212131063083,457.5161304525354,307.684602126372,452.90430900443204C312.21708294211317,448.2924875563287,327.7829170578872,448.29248755632864,332.3153978736284,452.9043090044319C336.8478786893696,457.5161304525352,339.41196783656034,475.9634162449485,334.87948702081917,480.57523769305186C330.347006205078,485.1870591411552,309.6529937949225,485.18705914115526,305.1205129791813,480.575237693052" class="chevron" fill="#5cc"></path><path d="M365.39924972143183,479.56181196214345C359.33561621880324,476.8152030414729,354.9331454516662,458.138037085921,357.5638462162101,452.02322512603746C360.194546980754,445.90841316615393,375.11982080606685,440.12633128217163,381.18345430869545,442.8729402028422C387.24708781132404,445.61954912351274,396.57634799652556,462.38806669017725,393.94564723198164,468.5028786500608C391.3149464674377,474.6176906099443,371.4628832240604,482.308420882814,365.39924972143183,479.56181196214345" class="chevron" fill="#5cc"></path><path d="M422.76506430888384,456.08293770463024C415.92885320100197,455.6962033510881,404.75751997101645,439.4051623340478,405.0032013419162,432.5624299532127C405.248882712816,425.7196975723776,417.40294142640073,414.63980906607736,424.2391525342826,415.0265434196195C431.07536364216446,415.4132777731616,446.2661493601071,428.0401036936303,446.0204679892073,434.8828360744654C445.77478661830753,441.7255684553005,429.6012754167657,456.46967205817236,422.76506430888384,456.08293770463024" class="chevron" fill="#5cc"></path><path d="M468.922243563587,412.2087493713601C462.2251381080624,414.37128487283064,445.4574069960943,402.897167071401,443.1472398698893,396.249542749394C440.8370727436843,389.601918427387,448.3641353508327,374.4855389407887,455.06124080635726,372.32300343931814C461.7583462618818,370.1604679378476,481.01970547683175,376.62670541856374,483.3298726030367,383.27432974057075C485.6400397292416,389.92195406257775,475.6193490191116,410.0462138698896,468.922243563587,412.2087493713601" class="chevron" fill="#5cc"></path><path d="M496.7282162379057,353.03622909796866C491.1134446020052,357.58805925861776,470.7836167505635,352.81701914688927,466.1008438688073,347.31098096389445C461.4180709870511,341.80494278089964,463.0168073114679,324.5518301606489,468.63157894736844,319.9999999999998C474.24635058326896,315.44816983935067,495.1067008024543,314.49396181700496,499.7894736842105,319.9999999999998C504.4722465659667,325.5060381829946,502.34298787380624,348.48439893731955,496.7282162379057,353.03622909796866" class="chevron" fill="#5cc"></path><path d="M501.28093375223114,286.1127205037229C497.59064782987775,292.54826607146856,476.351217061797,295.5216309935789,469.8257945623463,291.9927050738532C463.3003720628956,288.46377915412745,458.4381128331736,271.374710553114,462.128398755527,264.9391649853684C465.81868467788036,258.50361941762276,485.4420875970157,249.85050574765367,491.9675100964664,253.37943166737944C498.4929325959171,256.9083575871052,504.9712196745845,279.6771749359773,501.28093375223114,286.1127205037229" class="chevron" fill="#5cc"></path><path d="M480.7357869231986,220.47661426023885C479.5860012055573,227.99822910724274,460.36200209037565,238.7182489891892,452.81286625502605,237.76575476736883C445.26373041967645,236.81326054554847,434.29118619345945,222.28326377632058,435.4409719111008,214.7616489293167C436.59075762874215,207.2400340823128,452.1624447255243,191.6835714635252,459.711580560874,192.63606568534556C467.26071639622364,193.58855990716592,481.8855726408399,212.95499941323496,480.7357869231986,220.47661426023885" class="chevron" fill="#5cc"></path><path d="M436.7208137829296,165.43666334782722C438.40232382973034,173.05270318339478,423.9886546304616,190.42770862926784,416.421541820681,192.31724363516162C408.8544290109004,194.2067786410554,392.9996469710466,184.38991321875744,391.3181369242459,176.77387338318988C389.63662687744517,169.15783354762232,398.765368730096,148.51053962764996,406.3324815398766,146.62100462175619C413.8995943496572,144.7314696158624,435.0393037361289,157.82062351225966,436.7208137829296,165.43666334782722" class="chevron" fill="#5cc"></path><path d="M374.2716919258743,129.2547882381483C378.6924993525989,135.91027047258584,371.3496347593663,157.85401161256218,364.8231171107539,162.4630841287467C358.2965994621415,167.0721566449312,339.5333934609243,163.5647055696929,335.1125860341997,156.90922333525538C330.6917786074751,150.25374110081785,331.7717549017939,127.13926323830607,338.2982725504063,122.53019072212156C344.8247901990187,117.92111820593705,369.8508844991497,122.59930600371078,374.2716919258743,129.2547882381483" class="chevron" fill="#5cc"></path><path d="M301.27437925839513,117.91836927401832C307.9538707775776,122.6410189472727,309.0601879571237,146.31926456252864,304.5377654457287,153.13591487771635C300.0153429343338,159.95256519290405,280.8193357092079,163.54092083839885,274.1398441900254,158.81827116514447C267.46035267084295,154.09562149189009,259.9383938192389,131.61666715337773,264.46081633063386,124.80001683819005C268.9832388420288,117.98336652300236,294.59488773921265,113.19571960076394,301.27437925839513,117.91836927401832" class="chevron" fill="#5cc"></path><path d="M227.47410130617527,134.18294625766507C235.59223217873117,136.2244222904825,245.40562967033088,158.42026325445275,243.61452176797837,166.59728017620625C241.82341386562587,174.77429709795976,224.84558476461612,185.28652382100356,216.72745389206023,183.24504778818613C208.60932301950433,181.2035717553687,193.11462863029044,162.52544090105513,194.90573653264295,154.34842397930163C196.69684443499546,146.17140705754812,219.35597043361938,132.14147022484764,227.47410130617527,134.18294625766507" class="chevron" fill="#5cc"></path><path d="M163.17452872454234,177.03469288510948C171.67149201183574,175.98658217165126,189.2395492492311,193.53746307489882,190.5567538678762,201.99688936548716C191.87395848652133,210.4563156560755,179.5747197237065,226.7431399151814,171.0777564364131,227.7912506286396C162.5807931491197,228.83936134209782,140.89217876276098,216.7449799368248,139.57497414411586,208.28555364623645C138.25776952547074,199.8261273556481,154.67756543724894,178.0828035985677,163.17452872454234,177.03469288510948" class="chevron" fill="#5cc"></path><path d="M117.80075867652926,241.66759659520656C125.51517613901052,237.53449438790796,148.7534164379866,247.78160268129238,153.13654842237852,255.3567544717724C157.51968040677045,262.9319062622524,151.81396804536212,282.9854051307882,144.09955058288085,287.1185073380868C136.3851331203996,291.25160954538535,111.23317563188287,287.73051950604406,106.85004364749093,280.155367715564C102.466911663099,272.58021592508396,110.08634121404799,245.80069880250517,117.80075867652926,241.66759659520656" class="chevron" fill="#5cc"></path><path d="M98.5263157894737,320.00000000000034C104.35395441640229,313.2173862195432,130.2884438780922,314.4036988959729,137.26315789473688,320.0000000000003C144.23787191138155,325.59630110402765,146.20223851627037,346.7951928437074,140.37459988934177,353.57780662416457C134.54696126241316,360.3604204046217,109.27204014981002,366.29198378677063,102.29732613316534,360.69568268274327C95.32261211652066,355.0993815787159,92.69867716254511,326.7826137804575,98.5263157894737,320.00000000000034" class="chevron" fill="#5cc"></path><path d="M109.16312118309926,401.67864199684254C112.21444779788338,393.07064106040536,137.36122232851244,384.6286087939148,146.06939047320856,387.3810771035405C154.77755861790467,390.13354541316625,164.46345666606013,409.5854509181597,161.412130051276,418.1934518545969C158.36080343649186,426.8014527910341,136.46959892919995,441.7815510317895,127.76143078450383,439.02908272216376C119.05326263980771,436.27661441253804,106.11179456831515,410.2866429332797,109.16312118309926,401.67864199684254" class="chevron" fill="#5cc"></path><path d="M149.4834161528751,475.44640535507904C149.21757405828532,466.1268959079684,170.05065161432094,448.81010607418284,179.35493449105755,448.2149182855762C188.65921736779416,447.6197304969695,205.04327131870494,462.5557691763283,205.3091134132947,471.87527862343893C205.57495550788448,481.1947880705496,190.25426993533284,503.53678717963345,180.94998705859624,504.1319749682401C171.64570418185963,504.7271627568468,149.74925824746487,484.7659148021897,149.4834161528751,475.44640535507904" class="chevron" fill="#5cc"></path><path d="M215.0872669982804,530.693170470518C211.40251116931978,521.9219243498919,224.84762143622777,497.75553138616954,233.479839152428,493.75590623776174C242.11205686862826,489.75628108935393,263.1958174665213,497.9241734594452,266.8805732954819,506.6954195800713C270.5653291244425,515.4666657006974,264.22059184239197,542.3837578131104,255.5883741261917,546.3833829615181C246.95615640999145,550.3830081099259,218.77202282724102,539.4644165911441,215.0872669982804,530.693170470518" class="chevron" fill="#5cc"></path><path d="M297.85559372880766,558.9762023108084C291.1216222311352,551.9885940561064,295.0066057874847,524.0381610372983,301.7405772851572,517.0505527825964C308.4745487828297,510.06294452789433,331.52545121717003,510.06294452789433,338.2594227148425,517.0505527825964C344.993394212515,524.0381610372983,348.8783777688645,551.9885940561064,342.144406271192,558.9762023108084C335.4104347735195,565.9638105655104,304.58956522648015,565.9638105655104,297.85559372880766,558.9762023108084" class="chevron" fill="#5cc"></path></g><text x="320" y="632" text-anchor="middle" fill="#606060">_shape #37</text></svg>