<svg xmlns="http://www.w3.org/2000/svg" width="640" height="640" viewport-fill="#000"><defs><style type="text/css">text{ font-family: Freemono, Sans, Arial; fill: #555} 
</style></defs><rect x="0" y="0" width="640" height="640" fill="#fff" stroke="#708070"></rect><g fill-rule="evenodd"><path d="M-40,-48L40,-48L40,48L-40,48Z" transform="translate(160,192)" fill="#55c"></path><path d="M-40,-48L40,-48L40,48L-40,48Z" transform="translate(160,320)" fill="#5cc"></path><path d="M-40,-48L40,-48L40,48L-40,48Z" transform="translate(160,448)" fill="#5c5"></path><path d="M-40,-48L40,-48L40,48L-40,48Z" transform="translate(266.6666666666667,192)" fill="#5cc"></path><path d="M-40,-48L40,-48L40,48L-40,48Z" transform="translate(266.6666666666667,320)" fill="#5c5"></path><path d="M-40,-48L40,-48L40,48L-40,48Z" transform="translate(266.6666666666667,448)" fill="#50a050"></path><path d="M-40,-48L40,-48L40,48L-40,48Z" transform="translate(373.33333333333337,192)" fill="#5c5"></path><path d="M-40,-48L40,-48L40,48L-40,48Z" transform="translate(373.33333333333337,320)" fill="#50a050"></path><path d="M-40,-48L40,-48L40,48L-40,48Z" transform="translate(373.33333333333337,448)" fill="#609060"></path><path d="M-40,-48L40,-48L40,48L-40,48Z" transform="translate(480,192)" fill="#50a050"></path><path d="M-40,-48L40,-48L40,48L-40,48Z" transform="translate(480,320)" fill="#609060"></path><path d="M-40,-48L40,-48L40,48L-40,48Z" transform="translate(480,448)" fill="#708070"></path></g><text x="320" y="632" text-anchor="middle" fill="#606060">_shape #55 filtz #5</text></svg>