<svg xmlns="http://www.w3.org/2000/svg" width="640" height="640" viewport-fill="#000"><defs><style type="text/css">text{ font-family: Freemono, Sans, Arial; fill: #555} 
</style></defs><rect x="0" y="0" width="640" height="640" fill="#fff" stroke="#708070"></rect><g fill-rule="evenodd"><path d="M-44.444444444444436,-88.88888888888887L44.444444444444436,-88.88888888888887L44.444444444444436,88.88888888888887L-44.444444444444436,88.88888888888887Z" transform="translate(120,240)" fill="#55c"></path><path d="M-44.444444444444436,-88.88888888888887L44.444444444444436,-88.88888888888887L44.444444444444436,88.88888888888887L-44.444444444444436,88.88888888888887Z" transform="translate(120,400)" fill="#5cc"></path><path d="M-44.444444444444436,-88.88888888888887L44.444444444444436,-88.88888888888887L44.444444444444436,88.88888888888887L-44.444444444444436,88.88888888888887Z" transform="translate(200,240)" fill="#5cc"></path><path d="M-44.444444444444436,-88.88888888888887L44.444444444444436,-88.88888888888887L44.444444444444436,88.88888888888887L-44.444444444444436,88.88888888888887Z" transform="translate(200,400)" fill="#5c5"></path><path d="M-44.444444444444436,-88.88888888888887L44.444444444444436,-88.88888888888887L44.444444444444436,88.88888888888887L-44.444444444444436,88.88888888888887Z" transform="translate(280,240)" fill="#5c5"></path><path d="M-44.444444444444436,-88.88888888888887L44.444444444444436,-88.88888888888887L44.444444444444436,88.88888888888887L-44.444444444444436,88.88888888888887Z" transform="translate(280,400)" fill="#50a050"></path><path d="M-44.444444444444436,-88.88888888888887L44.444444444444436,-88.88888888888887L44.444444444444436,88.88888888888887L-44.444444444444436,88.88888888888887Z" transform="translate(360,240)" fill="#50a050"></path><path d="M-44.444444444444436,-88.88888888888887L44.444444444444436,-88.88888888888887L44.444444444444436,88.88888888888887L-44.444444444444436,88.88888888888887Z" transform="translate(360,400)" fill="#609060"></path><path d="M-44.444444444444436,-88.88888888888887L44.444444444444436,-88.88888888888887L44.444444444444436,88.88888888888887L-44.444444444444436,88.88888888888887Z" transform="translate(440,240)" fill="#609060"></path><path d="M-44.444444444444436,-88.88888888888887L44.444444444444436,-88.88888888888887L44.444444444444436,88.88888888888887L-44.444444444444436,88.88888888888887Z" transform="translate(440,400)" fill="#708070"></path><path d="M-44.444444444444436,-88.88888888888887L44.444444444444436,-88.88888888888887L44.444444444444436,88.88888888888887L-44.444444444444436,88.88888888888887Z" transform="translate(520,240)" fill="#708070"></path><path d="M-44.444444444444436,-88.88888888888887L44.444444444444436,-88.88888888888887L44.444444444444436,88.88888888888887L-44.444444444444436,88.88888888888887Z" transform="translate(520,400)" fill="#807080"></path></g><text x="320" y="632" text-anchor="middle" fill="#606060">_shape #59 gradient #1</text></svg>