<svg xmlns="http://www.w3.org/2000/svg" width="640" height="640" viewport-fill="#000"><defs><style type="text/css">text{ font-family: Freemono, Sans, Arial; fill: #555} 
</style></defs><rect x="0" y="0" width="640" height="640" fill="#fff" stroke="#708070"></rect><g fill-rule="evenodd"><path fill="#5c5" d="M6.382416566557807,0L0.7401857047979011,100L1.5817378069578427,100L10.756145189549589,0L21.392550322218618,0L7.181685414313346,100L24.35871734343913,100L23.192692632452395,0L26.178720192230244,0L25.822071779564524,100L48.03781635167857,100L38.04671752140697,0L39.7381162979869,0L63.557783679208036,100L75.26700615457285,100L44.20579080672571,0L72.17263614691898,0L88.66311076134929,100L98.34176597679915,100L96.08208049347436,0Z" transform="translate(10,10)"></path><path fill="#5c5" d="M6.5340075086982345,0L1.238513621431194,100L18.934578792789605,100L36.45479795248537,0L47.66306418690223,0L20.407066519904944,100L53.375540928291876,100L49.543741085263996,0L53.5372923920487,0L62.115685843655456,100L64.0518842176411,100L54.6322575490216,0L56.72743829377194,0L69.70681187922645,100L85.1602761536867,100L57.236351559203314,0L62.43704021253449,0L89.87830276599247,100L95.47513500684397,100L73.16698910510294,0Z" transform="translate(138,10)"></path><path fill="#5c5" d="M13.810274554880387,0L8.823876821086236,100L9.748217249345602,100L14.939839011489173,0L36.75783518184013,0L11.081152661755617,100L20.528030687804613,100L50.212291057020074,0L63.286750996408756,0L30.305793377389257,100L43.715610927838455,100L84.12126414397028,0L87.65368280787573,0L45.916714336825684,100L56.83937722291413,100L88.95680693207117,0L89.91288110627083,0L86.86732865293165,100L90.52977799157124,100L99.46646674327188,0Z" transform="translate(266,10)"></path><path fill="#5c5" d="M1.8429799801465825,0L33.604453808686884,100L33.72694696610193,100L13.607028136020716,0L25.896410638164685,0L36.734440136133124,100L58.99297817558663,100L56.545299635666424,0L57.41962730887785,0L59.26418840185266,100L60.642855532897585,100L62.130692253220865,0L75.43812029116951,0L70.66935885144692,100L75.2382489191414,100L78.43650345802398,0L86.52905419368373,0L80.99746529252654,100L98.6040909346864,100L87.90194025901988,0Z" transform="translate(394,10)"></path><path fill="#5c5" d="M14.505283871019136,0L0.17968328937242778,100L22.473603493243118,100L20.451774020135634,0L25.326127613381082,0L45.43715484060864,100L50.360622090553974,100L43.90044318543576,0L45.16294563270328,0L56.52991970156117,100L60.933543204650874,100L59.510140645453056,0L70.74317392008494,0L64.50334761321042,100L78.86113293867261,100L76.00011503682573,0L78.7390982122101,0L88.1907015887499,100L96.93982449585043,100L94.18662493886171,0Z" transform="translate(522,10)"></path><path fill="#5c5" d="M0.3926679956130462,0L2.877220732660147,100L11.929151797561794,100L2.625892594600972,0L3.4184185213125606,0L14.0942732916117,100L24.50873546124868,100L26.77569206190025,0L52.875284136077596,0L27.960801420683673,100L32.85443629982939,100L66.82060970168374,0L73.04101671312696,0L45.255142963480665,100L62.51396511841738,100L82.0074771086745,0L86.43023655703016,0L79.44487080598849,100L84.13710559170904,100L88.4618168035756,0Z" transform="translate(10,138)"></path><path fill="#5c5" d="M0.09935678765770185,0L12.089215116540812,100L36.28457307239216,100L22.08942809897627,0L28.339330480499132,0L55.80001064277671,100L66.05676793236559,100L43.74303418717054,0L60.03648493577077,0L66.69058053876033,100L67.10476428508045,100L61.81347449059707,0L81.42055122090017,0L80.43569260677765,100L87.22509420252199,100L86.58395997768676,0L87.36483798229764,0L87.69545680002857,100L89.70908695764972,100L91.5708342250327,0Z" transform="translate(138,138)"></path><path fill="#5c5" d="M0.26368188182504837,0L8.896713904958098,100L10.93645139101111,100L1.0026788084907503,0L8.086019527968634,0L11.504434994466248,100L22.026723191114705,100L15.813997191295659,0L28.57513641929404,0L25.643103590160838,100L26.12415370058458,100L35.79956586658722,0L46.97702838142033,0L40.104181455134764,100L52.7727453064715,100L55.4507730305292,0L66.50219853986529,0L69.74214410076334,100L74.01746758931475,100L67.25932413097728,0Z" transform="translate(266,138)"></path><path fill="#5c5" d="M3.6398104376150466,0L4.220993413970529,100L14.6918769325942,100L6.598052282471269,0L24.525781050822747,0L19.20073595088834,100L43.22305975077759,100L49.85455154575887,0L54.38160818406437,0L44.839745737341715,100L55.94262837598285,100L75.34418385519918,0L76.0697857943726,0L58.04747639625163,100L62.67749737516151,100L84.24302560406052,0L89.07536093905345,0L71.04019168379205,100L98.8920587709251,100L98.05987073070939,0Z" transform="translate(394,138)"></path><path fill="#5c5" d="M17.455659700091886,0L6.649813089044851,100L8.499274598402446,100L26.04546600169201,0L27.1101479611316,0L19.394414195849556,100L20.698204609175445,100L53.19276094670561,0L54.87552170975075,0L41.92191028514212,100L53.81885580201443,100L59.15168761297453,0L60.36007577899102,0L53.86449139114803,100L63.59801484884899,100L66.68089933117938,0L72.63144513589064,0L76.66613897421975,100L79.606956542371,100L88.72056462724373,0Z" transform="translate(522,138)"></path><path fill="#5c5" d="M7.648085640109533,0L10.521101970080673,100L10.595628156887296,100L9.237810067242483,0L17.820479886958868,0L13.322126852213703,100L13.817837762663283,100L22.651768427922125,0L30.510338611277117,0L19.941443711710168,100L20.00765003118009,100L44.402049294502284,0L58.66462374091449,0L25.044871431617555,100L26.82578218499319,100L68.48720743732204,0L88.18267352598001,0L35.977997964144635,100L39.70241375815917,100L91.63176938385791,0Z" transform="translate(10,266)"></path><path fill="#5c5" d="M4.3865969037245165,0L4.341175850179662,100L18.388158791274968,100L10.127445117293616,0L32.418284186457626,0L19.85087355000895,100L30.593064157974233,100L37.22267986519519,0L53.404905542567086,0L42.54215673948635,100L70.09199852232078,100L55.44184316696064,0L62.57794301089435,0L76.02777001944699,100L80.97851268806849,100L70.24459896862449,0L96.41829248696004,0L82.23680607613485,100L85.78177658120707,100L98.26244735033225,0Z" transform="translate(138,266)"></path><path fill="#5c5" d="M2.7815278925196707,0L1.6227699177034125,100L6.750029325114021,100L9.014249655447111,0L12.56534575131473,0L19.368383591713638,100L31.798987185245213,100L39.02995829521608,0L50.98017039746323,0L48.591395023088864,100L57.303568942444016,100L51.34781361340477,0L67.606781092764,0L65.1805350943936,100L65.37069413624859,100L85.45828626707967,0L87.15643676213529,0L68.93400133834476,100L79.99754411094341,100L92.30579845779819,0Z" transform="translate(266,266)"></path><path fill="#5c5" d="M9.564627474830843,0L8.640117474330491,100L16.382341291903163,100L16.867208426293516,0L24.60956847731966,0L26.147211220623046,100L49.04534532967502,100L31.163684303678995,0L31.736183169612215,0L59.983737183653766,100L62.82791172319613,100L50.07106310411367,0L51.683354710074305,0L66.37915896166882,100L84.22699339760747,100L59.20975051762137,0L78.39847107489508,0L98.30677048624969,100L98.79587185178126,100L93.9090269318618,0Z" transform="translate(394,266)"></path><path fill="#5c5" d="M2.479295607899186,0L3.9724563841407203,100L4.334026468064433,100L3.118976655314463,0L5.881543391070573,0L15.627944045033804,100L18.845683219062714,100L11.068539873161704,0L12.805194692956935,0L22.10731785875387,100L23.684591886518838,100L19.48152821694846,0L23.716635772388504,0L29.67604541395537,100L37.81171097508229,100L46.51950415750876,0L81.1952787745557,0L38.97117080906394,100L64.09213207230556,100L90.76130065640652,0Z" transform="translate(522,266)"></path><path fill="#5c5" d="M4.476490365287375,0L6.428914713698528,100L6.676386915766944,100L22.88464099901747,0L25.62922024840758,0L9.023836619478873,100L24.16679291279246,100L37.013391532349374,0L49.91639652498742,0L33.814505862190565,100L51.513913532641965,100L64.22962596601508,0L69.48618733618217,0L59.61291162129167,100L82.67884146274231,100L83.03496934399377,0L85.62353332984375,0L82.83729998746614,100L96.96732559535657,100L88.61159632567598,0Z" transform="translate(10,394)"></path><path fill="#5c5" d="M35.00283908815721,0L0.09602043230503741,100L34.212452810249104,100L35.298342671371465,0L48.17259096019592,0L44.05989759312396,100L51.8420803960736,100L50.52078920943068,0L56.94990089498068,0L55.60599255478134,100L57.321783026573,100L59.82622681738514,0L75.77100959618173,0L65.65112066858325,100L69.36507414116029,100L81.43973312928689,0L81.76361898500511,0L70.83498539069946,100L83.85463611992694,100L97.61365625766368,0Z" transform="translate(138,394)"></path><path fill="#5c5" d="M20.032230987629486,0L11.215154802402855,100L20.653669465971205,100L22.883217728553614,0L26.6332755785213,0L22.770052126095955,100L30.479081400074588,100L34.62463821480715,0L46.558450390144884,0L34.12675723639744,100L39.52019276383899,100L55.24610511529331,0L69.57645560088659,0L53.46398518362893,100L58.706612162533375,100L75.2850081599105,0L78.31079621010818,0L66.04018588833654,100L96.13179537072047,100L82.60174574442821,0Z" transform="translate(266,394)"></path><path fill="#5c5" d="M28.184930552472913,0L30.095742574767513,100L39.34714374035245,100L33.40773959711201,0L38.24232712342245,0L46.08052710629451,100L61.00752598543995,100L42.18718994663577,0L57.30017820240466,0L62.37414074434447,100L67.67521376085116,100L62.144844999959545,0L63.33953595983133,0L91.7068856333969,100L93.20542527743105,100L71.35003812078465,0L79.44701148915757,0L93.78765355517767,100L98.65723767996822,100L94.32427358603378,0Z" transform="translate(394,394)"></path><path fill="#5c5" d="M12.514256020568995,0L2.2234110356962016,100L14.667279466887623,100L13.084753593189005,0L32.88571841097935,0L22.54023576301076,100L31.851513068397765,100L35.56072994125638,0L41.64093048539409,0L76.20402783911896,100L83.14279032399294,100L42.1159363981885,0L43.97093812903049,0L84.16414468656677,100L93.0288528590673,100L68.2664676181265,0L75.33420565742085,0L93.81472809952596,100L95.27598821565299,100L85.19081703450055,0Z" transform="translate(522,394)"></path><path fill="#5c5" d="M2.1264737357788563,0L0.7123866007384575,100L7.552859722523918,100L8.379629209059292,0L8.472268054046271,0L7.923444694100705,100L18.711408606136075,100L21.812375359413338,0L36.15013372030298,0L26.422598811215092,100L40.15359648377705,100L54.828968202732874,0L77.9120912629093,0L44.399571659010036,100L60.53902463254141,100L78.60320043032772,0L83.51387466043661,0L81.73425570318246,100L83.74812165890462,100L99.9363932936532,0Z" transform="translate(10,522)"></path><path fill="#5c5" d="M5.689545510488575,0L22.10012803050254,100L34.02452601384373,100L28.45122817831974,0L33.89031947790383,0L38.20646219491597,100L41.70067823251136,100L50.366620649345016,0L59.60620669404043,0L51.118606854788304,100L61.09684205562369,100L66.02998078958268,0L76.04905475699229,0L76.37114747955945,100L89.67132709642024,100L76.57227194085024,0L84.2882159310118,0L90.43725871785126,100L96.09783753200699,100L87.91278659156731,0Z" transform="translate(138,522)"></path><path fill="#5c5" d="M5.393316334597426,0L40.51873769731817,100L55.790252461203394,100L9.998265106089804,0L12.380099942022378,0L62.863163516989275,100L65.5362565694382,100L23.769577900424768,0L29.657391621246227,0L67.09373208980732,100L73.5860544135702,100L36.57281290195438,0L69.65260252070226,0L75.99048645572424,100L79.91698743686597,100L71.91826535541507,0L96.55139854414384,0L90.54474478588594,100L93.48873731165553,100L98.5086159467111,0Z" transform="translate(266,522)"></path><path fill="#5c5" d="M0.2614482572002777,0L15.136156388742208,100L19.987253401918753,100L22.395380349756625,0L31.398138429278365,0L24.131582315867337,100L26.904389236385317,100L50.6135103122186,0L50.98324056111505,0L55.64498615928633,100L59.0113223958368,100L72.45204883855762,0L73.76769322900769,0L71.29029684799704,100L73.5680276375525,100L89.94934810288406,0L95.22048207125164,0L76.3371254788864,100L80.82526233059117,100L95.34205994430225,0Z" transform="translate(394,522)"></path><path fill="#5c5" d="M23.066979971799846,0L1.57102597510798,100L16.90861946556418,100L24.598698558786168,0L40.746340971203125,0L52.388748637665415,100L53.271845183799726,100L40.81982303416842,0L44.05556229673897,0L57.39263799125857,100L70.42914604307761,100L44.948455644301696,0L64.36059345151634,0L85.10063044963641,100L92.52310539626754,100L81.52984110851695,0L83.75305445365031,0L98.92128914708258,100L99.45510537858132,100L86.60927264696689,0Z" transform="translate(522,522)"></path></g><text x="320" y="632" text-anchor="middle" fill="#606060">_shape #62 seed #2</text></svg>