<svg xmlns="http://www.w3.org/2000/svg" width="640" height="640" viewport-fill="#000"><defs><style type="text/css">text{ font-family: Freemono, Sans, Arial; fill: #555} 
</style></defs><rect x="0" y="0" width="640" height="640" fill="#fff" stroke="#708070"></rect><g fill-rule="evenodd"><path fill="#5c5" d="M45.23602888347027,0L74.34793228979292,100L52.52172871951492,100L95.62106812798788,0Z" transform="translate(10,10)"></path><path fill="#5c5" d="M29.820429027180058,0L47.59620879150278,100L39.08072107484337,100L37.20073209184784,0Z" transform="translate(138,10)"></path><path fill="#5c5" d="M12.834963256252182,0L41.21806508414072,100L70.12287537677724,100L61.781544639337184,0Z" transform="translate(266,10)"></path><path fill="#5c5" d="M14.912977737799638,0L84.99741953172311,100L47.414014308697276,100L5.121628817121117,0Z" transform="translate(394,10)"></path><path fill="#5c5" d="M86.2520841290519,0L7.518962174000918,100L85.2577969264203,100L26.853330815843456,0Z" transform="translate(522,10)"></path><path fill="#5c5" d="M31.391550322496204,0L33.18755111318905,100L41.156414490182655,100L73.79783042815855,0L77.07152497531678,0L42.795871719871194,100LNaN,100LNaN,0Z" transform="translate(10,138)"></path><path fill="#5c5" d="M83.13900686429552,0L63.314901800705684,100L27.64998632741457,100L16.604653561399292,0L3.450499123074863,0L79.77852213734931,100LNaN,100LNaN,0Z" transform="translate(138,138)"></path><path fill="#5c5" d="M65.07780087208536,0L72.59965412806851,100L32.1533530463956,100L78.07671203838466,0L1.6644440910712515,0L18.48755070562036,100LNaN,100LNaN,0Z" transform="translate(266,138)"></path><path fill="#5c5" d="M77.21870473486831,0L47.16870888419118,100L12.13215086153001,100L48.91729587464656,0L42.77537544305565,0L16.83659365745093,100LNaN,100LNaN,0Z" transform="translate(394,138)"></path><path fill="#5c5" d="M2.134730489389113,0L5.88645419414808,100L96.8508161704645,100L8.628596510931063,0L13.418080609628868,0L47.757176629698215,100LNaN,100LNaN,0Z" transform="translate(522,138)"></path><path fill="#5c5" d="M66.4020189913096,0L57.90195501761488,100L7.642005122281849,100L7.619378617352162,0L9.16334282580371,0L37.84603347907853,100L72.42019704793617,100L94.48287122739629,0Z" transform="translate(10,266)"></path><path fill="#5c5" d="M87.59726884871597,0L45.35774262568363,100L88.12395657376784,100L9.696257865781789,0L34.66931897874719,0L84.16511211780747,100L82.06568993667473,100L50.31095570643248,0Z" transform="translate(138,266)"></path><path fill="#5c5" d="M25.796843073501996,0L15.221184504650086,100L95.93727128125491,100L34.481400094441,0L62.7107949065582,0L34.00964671690217,100L71.22082991195535,100L61.23108427605356,0Z" transform="translate(266,266)"></path><path fill="#5c5" d="M52.5761361283966,0L5.078960718689976,100L94.99433783731942,100L90.58637494979556,0L68.71116484630214,0L87.76920454872499,100L98.45945206021996,100L49.1449769304792,0Z" transform="translate(394,266)"></path><path fill="#5c5" d="M82.33979765562609,0L96.34157218932683,100L79.96999518278355,100L43.685095720192635,0L53.053009900199896,0L53.74454170748444,100L18.274972407601233,100L8.905873999840416,0Z" transform="translate(522,266)"></path><path fill="#5c5" d="M76.38510108062965,0L53.026507627382976,100L54.163991818579525,100L99.04617807372922,0L68.13234451786934,0L93.82382206256024,100L60.43832071454587,100L22.23778668223546,0L80.41765779061828,0L41.017495941977295,100LNaN,100LNaN,0Z" transform="translate(10,394)"></path><path fill="#5c5" d="M60.837364974597186,0L41.08947642151827,100L52.19962750039906,100L39.14019153848123,0L63.677641046213175,0L39.85427704500882,100L93.00000038500049,100L82.30447350182753,0L16.709756718959895,0L12.832011389029871,100LNaN,100LNaN,0Z" transform="translate(138,394)"></path><path fill="#5c5" d="M66.2190501656907,0L81.59009376012988,100L52.37389018964832,100L16.690021471071805,0L51.552510366476575,0L69.04587984263506,100L76.38896086634998,100L93.48528063926513,0L51.89435878447263,0L96.61878328106897,100LNaN,100LNaN,0Z" transform="translate(266,394)"></path><path fill="#5c5" d="M1.303544745895366,0L96.19042797556949,100L61.95282638524584,100L50.9337542442816,0L17.399890287070306,0L89.9206093686328,100L14.117817510876057,100L3.9803891662212223,0L83.85306313339117,0L77.00497706471023,100LNaN,100LNaN,0Z" transform="translate(394,394)"></path><path fill="#5c5" d="M40.9564237883766,0L96.58992011950605,100L37.350655957613,100L87.5397799593733,0L83.2415992728791,0L0.6897630569289286,100L12.343527488075088,100L19.719634756930404,0L5.528495655705749,0L73.43516918260397,100LNaN,100LNaN,0Z" transform="translate(522,394)"></path><path fill="#5c5" d="M1.3124786709080318,0L51.35654277078907,100L68.97214609876721,100L74.97935862882953,0L6.44600388109924,0L85.02006685678819,100L81.81132574103967,100L28.996137498159435,0L0.23431333906219146,0L25.063031858131303,100L10.481195324829635,100L30.055386645951703,0Z" transform="translate(10,522)"></path><path fill="#5c5" d="M39.71635467995033,0L10.511273608761758,100L79.94844320246965,100L62.95908820369729,0L60.94146613242246,0L11.357441258441046,100L16.743703833626768,100L45.09831552747215,0L40.5347761164159,0L40.72345191779144,100L41.76274693851477,100L82.55532362785671,0Z" transform="translate(138,522)"></path><path fill="#5c5" d="M30.836744722960486,0L98.89708431283961,100L73.95541221757537,100L63.47940731494282,0L58.826885164933366,0L1.414993457022508,100L23.93418229855716,100L43.28125613397668,0L27.020066792331736,0L13.502599207732505,100L85.85508847513506,100L21.687977672673046,0Z" transform="translate(266,522)"></path><path fill="#5c5" d="M42.36801463494229,0L12.297002914490934,100L99.35370202932506,100L70.79667140662363,0L5.065811714329963,0L6.549984665998092,100L19.932610988708987,100L64.60000559834262,0L75.52935504680826,0L3.5667867189018487,100L53.81045109422548,100L85.58201113070712,0Z" transform="translate(394,522)"></path><path fill="#5c5" d="M25.469146627653018,0L30.594071181658745,100L94.89312185236436,100L0.6415193268471224,0L17.28169968985928,0L78.811955707152,100L51.16086669333377,100L63.925419869497944,0L77.36880898584174,0L58.62833477902799,100L11.364026256489645,100L70.57795016985176,0Z" transform="translate(522,522)"></path></g><text x="320" y="632" text-anchor="middle" fill="#606060">_shape #63 seed #3</text></svg>