<svg xmlns="http://www.w3.org/2000/svg" width="640" height="640" viewport-fill="#000"><defs><style type="text/css">text{ font-family: Freemono, Sans, Arial; fill: #555} 
</style></defs><rect x="0" y="0" width="640" height="640" fill="#fff" stroke="#708070"></rect><g fill-rule="evenodd"><path fill="#5c5" d="M60.837364974597186,0L16.709756718959895,100L41.08947642151827,100L39.14019153848123,0L63.677641046213175,0L52.19962750039906,100L39.85427704500882,100L82.30447350182753,0Z" transform="translate(10,10)"></path><path fill="#5c5" d="M93.00000038500049,0L51.552510366476575,100L93.48528063926513,100L12.832011389029871,0L66.2190501656907,0L51.89435878447263,100L81.59009376012988,100L16.690021471071805,0Z" transform="translate(138,10)"></path><path fill="#5c5" d="M52.37389018964832,0L1.303544745895366,100L50.9337542442816,100L69.04587984263506,0L76.38896086634998,0L17.399890287070306,100L3.9803891662212223,100L96.61878328106897,0Z" transform="translate(266,10)"></path><path fill="#5c5" d="M83.85306313339117,0L14.117817510876057,100L77.00497706471023,100L96.19042797556949,0L61.95282638524584,0L40.9564237883766,100L87.5397799593733,100L89.9206093686328,0Z" transform="translate(394,10)"></path><path fill="#5c5" d="M83.2415992728791,0L37.350655957613,100L0.6897630569289286,100L19.719634756930404,0L5.528495655705749,0L12.343527488075088,100L73.43516918260397,100L96.58992011950605,0Z" transform="translate(522,10)"></path><path fill="#5c5" d="M1.3124786709080318,0L30.055386645951703,100L51.35654277078907,100L74.97935862882953,0L6.44600388109924,0L68.97214609876721,100L85.02006685678819,100L28.996137498159435,0L0.23431333906219146,0L81.81132574103967,100LNaN,100LNaN,0Z" transform="translate(10,138)"></path><path fill="#5c5" d="M25.063031858131303,0L45.09831552747215,100L40.5347761164159,100L10.481195324829635,0L39.71635467995033,0L82.55532362785671,100L10.511273608761758,100L62.95908820369729,0L60.94146613242246,0L79.94844320246965,100LNaN,100LNaN,0Z" transform="translate(138,138)"></path><path fill="#5c5" d="M11.357441258441046,0L63.47940731494282,100L58.826885164933366,100L16.743703833626768,0L40.72345191779144,0L43.28125613397668,100L27.020066792331736,100L41.76274693851477,0L30.836744722960486,0L21.687977672673046,100LNaN,100LNaN,0Z" transform="translate(266,138)"></path><path fill="#5c5" d="M98.89708431283961,0L85.85508847513506,100L42.36801463494229,100L73.95541221757537,0L1.414993457022508,0L70.79667140662363,100L5.065811714329963,100L23.93418229855716,0L13.502599207732505,0L64.60000559834262,100LNaN,100LNaN,0Z" transform="translate(394,138)"></path><path fill="#5c5" d="M75.52935504680826,0L19.932610988708987,100L3.5667867189018487,100L85.58201113070712,0L12.297002914490934,0L53.81045109422548,100L25.469146627653018,100L99.35370202932506,0L6.549984665998092,0L0.6415193268471224,100LNaN,100LNaN,0Z" transform="translate(522,138)"></path><path fill="#5c5" d="M17.28169968985928,0L78.811955707152,100L51.16086669333377,100L63.925419869497944,0L77.36880898584174,0L58.62833477902799,100L11.364026256489645,100L70.57795016985176,0L30.594071181658745,0L43.95470105135979,100L54.923184144823075,100L94.89312185236436,0Z" transform="translate(10,266)"></path><path fill="#5c5" d="M51.56294570200781,0L77.40691168055929,100L87.06278621740944,100L3.284384054634357,0L86.47961614723613,0L72.02903965153067,100L8.042647015496723,100L81.82850168715103,0L45.81062828484036,0L99.03979139352602,100L60.1295853261836,100L54.87761502490138,0Z" transform="translate(138,266)"></path><path fill="#5c5" d="M73.0372193728226,0L56.519721390596665,100L26.104782905961333,100L70.42476826926901,0L25.32667154248574,0L90.65798411806016,100L46.46127119598497,100L51.26947329840038,0L26.273083968015783,0L73.99083470755532,100L83.17825347623061,100L92.22548977810916,0Z" transform="translate(266,266)"></path><path fill="#5c5" d="M58.30138037610968,0L74.48986249701044,100L59.57069052489451,100L5.422123562486257,0L96.91063779139708,0L84.52218723985918,100L62.490939876950804,100L85.88765901899902,0L59.25123189552332,0L7.255960634942532,100L68.2754599861888,100L92.00599450827467,0Z" transform="translate(394,266)"></path><path fill="#5c5" d="M66.54511956997894,0L51.54932803244353,100L86.6267366998232,100L16.135944652088153,0L74.21660698799386,0L9.811844330878737,100L72.52398557325236,100L34.18449538954397,0L48.424879178870796,0L80.91142359354761,100L42.74895028030717,100L69.25352566920884,0Z" transform="translate(522,266)"></path><path fill="#5c5" d="M83.88036546599065,0L67.97260811118292,100L97.62655786416683,100L19.73584844655226,0L24.19114426980874,0L52.897151982722036,100L94.39424041121488,100L13.471473761610406,0L21.278746983874424,0L88.6602294496975,100L98.83761477237084,100L84.52724760415352,0L3.236519730958561,0L16.88126522638313,100LNaN,100LNaN,0Z" transform="translate(10,394)"></path><path fill="#5c5" d="M50.33077522429339,0L84.14516545931183,100L11.209338022409788,100L75.99928908190152,0L9.87124179535664,0L41.82106232209301,100L48.25002435269433,100L66.01723023119858,0L75.83156037938464,0L33.47664671440922,100L93.68107796850204,100L69.41098553153917,0L13.816166729978699,0L98.76475390222184,100LNaN,100LNaN,0Z" transform="translate(138,394)"></path><path fill="#5c5" d="M17.33998456932482,0L9.90926272180536,100L28.3010343566581,100L77.07601932115804,0L81.98224582680987,0L49.64188207750927,100L39.990193948964226,100L64.86239727790752,0L48.24246020974881,0L14.039125447385567,100L84.93576676097344,100L50.99647875620398,0L26.965454628550102,0L13.738335045481728,100LNaN,100LNaN,0Z" transform="translate(266,394)"></path><path fill="#5c5" d="M12.769172953867796,0L36.55628122085976,100L39.7381162979869,100L64.01693680763131,0L11.49975495771421,0L44.20579080672571,100L38.04671752140697,100L46.979861336806735,0L4.295216402653313,0L72.17263614691898,100L21.392550322218618,100L89.81500739552239,0L73.35031512617572,0L6.382416566557807,100LNaN,100LNaN,0Z" transform="translate(394,394)"></path><path fill="#5c5" d="M96.08208049347436,0L7.181685414313346,100L75.26700615457285,100L26.178720192230244,0L10.756145189549589,0L25.822071779564524,100L24.35871734343913,100L23.192692632452395,0L88.66311076134929,0L48.03781635167857,100L1.5817378069578427,100L98.34176597679915,0L0.7401857047979011,0L63.557783679208036,100LNaN,100LNaN,0Z" transform="translate(522,394)"></path><path fill="#5c5" d="M6.5340075086982345,0L57.236351559203314,100L62.43704021253449,100L47.66306418690223,0L73.16698910510294,0L62.115685843655456,100L18.934578792789605,100L36.45479795248537,0L53.5372923920487,0L89.87830276599247,100L95.47513500684397,100L56.72743829377194,0L54.6322575490216,0L53.375540928291876,100L85.1602761536867,100L49.543741085263996,0Z" transform="translate(10,522)"></path><path fill="#5c5" d="M64.0518842176411,0L14.939839011489173,100L99.46646674327188,100L1.238513621431194,0L69.70681187922645,0L88.95680693207117,100L89.91288110627083,100L20.407066519904944,0L36.75783518184013,0L50.212291057020074,100L87.65368280787573,100L63.286750996408756,0L84.12126414397028,0L45.916714336825684,100L43.715610927838455,100L13.810274554880387,0Z" transform="translate(138,522)"></path><path fill="#5c5" d="M9.748217249345602,0L62.130692253220865,100L78.43650345802398,100L90.52977799157124,0L11.081152661755617,0L56.545299635666424,100L25.896410638164685,100L56.83937722291413,0L8.823876821086236,0L1.8429799801465825,100L87.90194025901988,100L20.528030687804613,0L86.86732865293165,0L75.43812029116951,100L13.607028136020716,100L30.305793377389257,0Z" transform="translate(266,522)"></path><path fill="#5c5" d="M86.52905419368373,0L33.604453808686884,100L59.26418840185266,100L57.41962730887785,0L70.66935885144692,0L33.72694696610193,100L36.734440136133124,100L60.642855532897585,0L98.6040909346864,0L78.7390982122101,100L59.510140645453056,100L75.2382489191414,0L80.99746529252654,0L43.90044318543576,100L45.16294563270328,100L58.99297817558663,0Z" transform="translate(394,522)"></path><path fill="#5c5" d="M70.74317392008494,0L60.933543204650874,100L45.43715484060864,100L20.451774020135634,0L94.18662493886171,0L78.86113293867261,100L96.93982449585043,100L14.505283871019136,0L76.00011503682573,0L50.360622090553974,100L22.473603493243118,100L25.326127613381082,0L0.17968328937242778,0L56.52991970156117,100L64.50334761321042,100L88.1907015887499,0Z" transform="translate(522,522)"></path></g><text x="320" y="632" text-anchor="middle" fill="#606060">_shape #64 seed #4</text></svg>