<svg xmlns="http://www.w3.org/2000/svg" width="640" height="640" viewport-fill="#000"><defs><style type="text/css">text{ font-family: Freemono, Sans, Arial; fill: #555} 
</style></defs><rect x="0" y="0" width="640" height="640" fill="#fff" stroke="#708070"></rect><g fill-rule="evenodd"><path fill="#5c5" d="M43.95470105135979,0L51.56294570200781,100L3.284384054634357,100L54.923184144823075,0L0,86.47961614723613L100,45.81062828484036L100,54.87761502490138L0,81.82850168715103Z" transform="translate(10,10)"></path><path fill="#5c5" d="M77.40691168055929,0L72.02903965153067,100L8.042647015496723,100L87.06278621740944,0L0,99.03979139352602L100,73.0372193728226L100,70.42476826926901L0,60.1295853261836Z" transform="translate(138,10)"></path><path fill="#5c5" d="M25.32667154248574,0L26.273083968015783,100L92.22548977810916,100L51.26947329840038,0L0,56.519721390596665L100,90.65798411806016L100,46.46127119598497L0,26.104782905961333Z" transform="translate(266,10)"></path><path fill="#5c5" d="M73.99083470755532,0L58.30138037610968,100L5.422123562486257,100L83.17825347623061,0L0,96.91063779139708L100,59.25123189552332L100,92.00599450827467L0,85.88765901899902Z" transform="translate(394,10)"></path><path fill="#5c5" d="M74.48986249701044,0L84.52218723985918,100L62.490939876950804,100L59.57069052489451,0L0,7.255960634942532L100,66.54511956997894L100,16.135944652088153L0,68.2754599861888Z" transform="translate(522,10)"></path><path fill="#5c5" d="M74.21660698799386,0L69.25352566920884,100L51.54932803244353,100L34.18449538954397,0L48.424879178870796,0L86.6267366998232,100LNaN,100LNaN,0L0,9.811844330878737L100,42.74895028030717L100,83.88036546599065L0,72.52398557325236L0,80.91142359354761L100,19.73584844655226L100,NaNL0,NaNZ" transform="translate(10,138)"></path><path fill="#5c5" d="M24.19114426980874,0L84.52724760415352,100L3.236519730958561,100L13.471473761610406,0L21.278746983874424,0L67.97260811118292,100LNaN,100LNaN,0L0,97.62655786416683L100,88.6602294496975L100,98.83761477237084L0,52.897151982722036L0,94.39424041121488L100,16.88126522638313L100,NaNL0,NaNZ" transform="translate(138,138)"></path><path fill="#5c5" d="M50.33077522429339,0L66.01723023119858,100L75.83156037938464,100L75.99928908190152,0L9.87124179535664,0L69.41098553153917,100LNaN,100LNaN,0L0,13.816166729978699L100,41.82106232209301L100,48.25002435269433L0,84.14516545931183L0,11.209338022409788L100,33.47664671440922L100,NaNL0,NaNZ" transform="translate(266,138)"></path><path fill="#5c5" d="M93.68107796850204,0L77.07601932115804,100L81.98224582680987,100L98.76475390222184,0L17.33998456932482,0L64.86239727790752,100LNaN,100LNaN,0L0,48.24246020974881L100,9.90926272180536L100,28.3010343566581L0,50.99647875620398L0,26.965454628550102L100,49.64188207750927L100,NaNL0,NaNZ" transform="translate(394,138)"></path><path fill="#5c5" d="M39.990193948964226,0L13.738335045481728,100L12.769172953867796,100L14.039125447385567,0L84.93576676097344,0L64.01693680763131,100LNaN,100LNaN,0L0,11.49975495771421L100,89.81500739552239L100,73.35031512617572L0,46.979861336806735L0,4.295216402653313L100,36.55628122085976L100,NaNL0,NaNZ" transform="translate(522,138)"></path><path fill="#5c5" d="M39.7381162979869,0L21.392550322218618,100L6.382416566557807,100L44.20579080672571,0L38.04671752140697,0L96.08208049347436,100L26.178720192230244,100L72.17263614691898,0L0,10.756145189549589L100,0.7401857047979011L100,7.181685414313346L0,23.192692632452395L0,88.66311076134929L100,75.26700615457285L100,25.822071779564524L0,98.34176597679915Z" transform="translate(10,266)"></path><path fill="#5c5" d="M24.35871734343913,0L6.5340075086982345,100L47.66306418690223,100L48.03781635167857,0L1.5817378069578427,0L73.16698910510294,100L36.45479795248537,100L63.557783679208036,0L0,53.5372923920487L100,57.236351559203314L100,62.43704021253449L0,56.72743829377194L0,54.6322575490216L100,62.115685843655456L100,18.934578792789605L0,49.543741085263996Z" transform="translate(138,266)"></path><path fill="#5c5" d="M89.87830276599247,0L64.0518842176411,100L1.238513621431194,100L95.47513500684397,0L53.375540928291876,0L69.70681187922645,100L20.407066519904944,100L85.1602761536867,0L0,36.75783518184013L100,14.939839011489173L100,99.46646674327188L0,63.286750996408756L0,84.12126414397028L100,88.95680693207117L100,89.91288110627083L0,13.810274554880387Z" transform="translate(266,266)"></path><path fill="#5c5" d="M50.212291057020074,0L9.748217249345602,100L90.52977799157124,100L87.65368280787573,0L45.916714336825684,0L11.081152661755617,100L56.83937722291413,100L43.715610927838455,0L0,8.823876821086236L100,62.130692253220865L100,78.43650345802398L0,20.528030687804613L0,86.86732865293165L100,56.545299635666424L100,25.896410638164685L0,30.305793377389257Z" transform="translate(394,266)"></path><path fill="#5c5" d="M1.8429799801465825,0L86.52905419368373,100L57.41962730887785,100L87.90194025901988,0L75.43812029116951,0L70.66935885144692,100L60.642855532897585,100L13.607028136020716,0L0,98.6040909346864L100,33.604453808686884L100,59.26418840185266L0,75.2382489191414L0,80.99746529252654L100,33.72694696610193L100,36.734440136133124L0,58.99297817558663Z" transform="translate(522,266)"></path><path fill="#5c5" d="M78.7390982122101,0L20.451774020135634,100L94.18662493886171,100L59.510140645453056,0L43.90044318543576,0L14.505283871019136,100L76.00011503682573,100L45.16294563270328,0L70.74317392008494,0L25.326127613381082,100LNaN,100LNaN,0L0,0.17968328937242778L100,96.93982449585043L100,50.360622090553974L0,88.1907015887499L0,60.933543204650874L100,22.473603493243118L100,56.52991970156117L0,45.43715484060864L0,78.86113293867261L100,64.50334761321042L100,NaNL0,NaNZ" transform="translate(10,394)"></path><path fill="#5c5" d="M2.625892594600972,0L82.0074771086745,100L73.04101671312696,100L52.875284136077596,0L3.4184185213125606,0L26.77569206190025,100L0.3926679956130462,100L86.43023655703016,0L66.82060970168374,0L88.4618168035756,100LNaN,100LNaN,0L0,24.50873546124868L100,11.929151797561794L100,27.960801420683673L0,62.51396511841738L0,45.255142963480665L100,32.85443629982939L100,84.13710559170904L0,79.44487080598849L0,2.877220732660147L100,14.0942732916117L100,NaNL0,NaNZ" transform="translate(138,394)"></path><path fill="#5c5" d="M87.36483798229764,0L81.42055122090017,100L91.5708342250327,100L22.08942809897627,0L0.09935678765770185,0L43.74303418717054,100L86.58395997768676,100L61.81347449059707,0L60.03648493577077,0L28.339330480499132,100LNaN,100LNaN,0L0,36.28457307239216L100,87.69545680002857L100,66.69058053876033L0,87.22509420252199L0,55.80001064277671L100,66.05676793236559L100,80.43569260677765L0,12.089215116540812L0,67.10476428508045L100,89.70908695764972L100,NaNL0,NaNZ" transform="translate(266,394)"></path><path fill="#5c5" d="M0.26368188182504837,0L46.97702838142033,100L55.4507730305292,100L66.50219853986529,0L1.0026788084907503,0L35.79956586658722,100L8.086019527968634,100L67.25932413097728,0L15.813997191295659,0L28.57513641929404,100LNaN,100LNaN,0L0,52.7727453064715L100,25.643103590160838L100,74.01746758931475L0,26.12415370058458L0,69.74214410076334L100,8.896713904958098L100,11.504434994466248L0,40.104181455134764L0,10.93645139101111L100,22.026723191114705L100,NaNL0,NaNZ" transform="translate(394,394)"></path><path fill="#5c5" d="M89.07536093905345,0L3.6398104376150466,100L54.38160818406437,100L49.85455154575887,0L75.34418385519918,0L76.0697857943726,100L98.05987073070939,100L24.525781050822747,0L84.24302560406052,0L6.598052282471269,100LNaN,100LNaN,0L0,44.839745737341715L100,4.220993413970529L100,62.67749737516151L0,19.20073595088834L0,55.94262837598285L100,98.8920587709251L100,71.04019168379205L0,14.6918769325942L0,58.04747639625163L100,43.22305975077759L100,NaNL0,NaNZ" transform="translate(522,394)"></path><path fill="#5c5" d="M17.455659700091886,0L59.15168761297453,100L54.87552170975075,100L53.19276094670561,0L66.68089933117938,0L72.63144513589064,100L60.36007577899102,100L26.04546600169201,0L88.72056462724373,0L53.81885580201443,100L79.606956542371,100L27.1101479611316,0L0,8.499274598402446L100,76.66613897421975L100,63.59801484884899L0,6.649813089044851L0,53.86449139114803L100,91.63176938385791L100,7.648085640109533L0,20.698204609175445L0,41.92191028514212L100,22.651768427922125L100,68.48720743732204L0,19.394414195849556Z" transform="translate(10,522)"></path><path fill="#5c5" d="M30.510338611277117,0L20.00765003118009,100L35.977997964144635,100L88.18267352598001,0L17.820479886958868,0L10.521101970080673,100L19.941443711710168,100L58.66462374091449,0L9.237810067242483,0L13.817837762663283,100L26.82578218499319,100L44.402049294502284,0L0,25.044871431617555L100,10.127445117293616L100,98.26244735033225L0,13.322126852213703L0,39.70241375815917L100,4.3865969037245165L100,62.57794301089435L0,10.595628156887296L0,37.22267986519519L100,70.24459896862449L100,53.404905542567086L0,32.418284186457626Z" transform="translate(138,522)"></path><path fill="#5c5" d="M55.44184316696064,0L85.78177658120707,100L30.593064157974233,100L96.41829248696004,0L80.97851268806849,0L82.23680607613485,100L76.02777001944699,100L19.85087355000895,0L70.09199852232078,0L4.341175850179662,100L42.54215673948635,100L18.388158791274968,0L0,85.45828626707967L100,92.30579845779819L100,51.34781361340477L0,39.02995829521608L0,9.014249655447111L100,87.15643676213529L100,2.7815278925196707L0,67.606781092764L0,50.98017039746323L100,1.6227699177034125L100,79.99754411094341L0,12.56534575131473Z" transform="translate(266,522)"></path><path fill="#5c5" d="M68.93400133834476,0L19.368383591713638,100L31.798987185245213,100L65.37069413624859,0L48.591395023088864,0L16.867208426293516,100L31.163684303678995,100L57.303568942444016,0L65.1805350943936,0L9.564627474830843,100L93.9090269318618,100L6.750029325114021,0L0,59.20975051762137L100,84.22699339760747L100,59.983737183653766L0,51.683354710074305L0,24.60956847731966L100,8.640117474330491L100,66.37915896166882L0,50.07106310411367L0,78.39847107489508L100,62.82791172319613L100,26.147211220623046L0,31.736183169612215Z" transform="translate(394,522)"></path><path fill="#5c5" d="M16.382341291903163,0L90.76130065640652,100L81.1952787745557,100L98.79587185178126,0L98.30677048624969,0L11.068539873161704,100L2.479295607899186,100L49.04534532967502,0L23.716635772388504,0L19.48152821694846,100L46.51950415750876,100L12.805194692956935,0L0,3.118976655314463L100,4.334026468064433L100,29.67604541395537L0,5.881543391070573L0,23.684591886518838L100,38.97117080906394L100,22.10731785875387L0,18.845683219062714L0,37.81171097508229L100,15.627944045033804L100,64.09213207230556L0,3.9724563841407203Z" transform="translate(522,522)"></path></g><text x="320" y="632" text-anchor="middle" fill="#606060">_shape #66 seed #6</text></svg>