<svg xmlns="http://www.w3.org/2000/svg" width="640" height="640" viewport-fill="#000"><defs><style type="text/css">text{ font-family: Freemono, Sans, Arial; fill: #555} 
</style></defs><rect x="0" y="0" width="640" height="640" fill="#fff" stroke="#708070"></rect><g fill-rule="evenodd"><path fill="#5c5" d="M70.7567284959879,-260.5637836932544L-237.5005470145403,-128.426983799333L241.7562499629454,-120.22443846345824L-43.67279669687256,-266.44452861463236L229.39447740377906,142.40145271958113L-90.09615586809494,-254.52442456037878L178.18937626644822,202.8510443300062L192.967305729447,188.8481371883719L71.95718081273746,-260.23482497445076L-54.359296294985214,264.4712969422466L-269.90850664880315,-7.0283738242196545L240.02137387672602,-123.65168855429712L-30.172929606994938,-268.3087667575015L-217.9731084303453,-159.33525661702416L-135.6615608705416,233.44365680430974L138.21500506519004,-231.9409674353142L-253.70263056141772,-92.38492975705933L268.0314769396106,32.54423711766743L-266.5946686333138,42.74672684888993L-269.0605051729382,-22.504323053211778L-3.9180523529685254,269.9715704768919L-97.88984963078128,-251.6298419092279L-168.30752438144177,-211.12218556227194L-57.33103735818218,263.8430445462505L147.83577070330628,225.93048687717965L-263.5991414882041,-58.4422159631352L-213.77850248283283,164.920441050215L194.58009125937,-187.18597192496887L37.49185580170404,-267.38429413214277L-269.8872774292351,7.801120549964418L-86.09681292178935,-255.90494095407848L250.45527054668509,100.8571140544225L64.08000813599783,-262.2856316256963L-10.125401649123749,-269.81007438834433L210.278857831523,-169.35997741222727L-237.48915726041278,-128.44804468632023L255.7305348482138,86.61347208284923L42.198561278368196,-266.6819855671466L-16.66305920430076,269.48532883619833L269.8306412046709,9.5616456259468L-1.967424273223759,-269.99283183397506L49.546675323278144,-265.41500892830015L-269.8458089272387,-9.123563141898368L-222.4136716582669,-153.0756631848729L255.72177826102583,86.63932203692926L-19.463267202090616,269.29757004068944Z" transform="translate(320,320)"></path></g><text x="320" y="632" text-anchor="middle" fill="#606060">_shape #69 seed #9</text></svg>