<svg xmlns="http://www.w3.org/2000/svg" width="640" height="640" viewport-fill="#000"><defs><style type="text/css">text{ font-family: Freemono, Sans, Arial; fill: #555} 
</style></defs><rect x="0" y="0" width="640" height="640" fill="#fff" stroke="#708070"></rect><g fill-rule="evenodd"><path fill="#5c5" d="M57.26894865268904,-17.89601967521456L43.21662701905703,-41.62118630091783L9.02766541554082,-59.316955899178176L38.01047261056828,-46.424174434460745L43.309866446486254,41.52415523990252L-40.468628729266186,-44.29774360814343Z" transform="translate(70,70)"></path><path fill="#5c5" d="M31.452501585301473,-51.09540237659948L-57.20483461865023,-18.099914260926102L48.3474625477585,35.53199776529727L18.976561788179847,56.92003252545972L-48.54673707945088,35.259244446508916L9.70609685376701,-59.209726260685365Z" transform="translate(230,70)"></path><path fill="#5c5" d="M-45.6192548435868,38.97285706124048L59.5936539238675,-6.971112680362567L27.303104871734185,53.42789968137513L-47.963425168208694,36.048714902665324L55.226370085622285,-23.45310314576482L-59.828917354783776,-4.527764145188346Z" transform="translate(390,70)"></path><path fill="#5c5" d="M-59.49248587302378,7.7874337652442L52.23413359028554,-29.522792687552514L31.65018934595659,-50.973184267466515L26.240942784868416,-53.95751033694255L-52.32393868831409,29.363334962867352L51.84423813593033,30.202234554829662Z" transform="translate(550,70)"></path><path fill="#5c5" d="M12.906411828589006,58.59543099688625L-44.54216493717448,-40.19944704482319L59.17021671649193,-9.94411653810326L-57.315871857750864,17.745163656215812L-48.71283781646712,-35.029408100431425L-58.882360418541076,11.526822265526073Z" transform="translate(70,230)"></path><path fill="#5c5" d="M6.2633747228965335,59.67218897510448L-59.318908790151,-9.014824454516368L54.04095213758559,-26.068668781953235L55.046621460573874,23.871938877608738L-59.41792819427266,8.337254290247962L4.078550871551085,-59.861218019584015L26.31040851553769,-53.92367201652278L10.617507030715316,-59.05309936364654L41.43457630890335,43.39557449903924Z" transform="translate(230,230)"></path><path fill="#5c5" d="M52.27886133337898,29.443516394706194L8.023635408631073,59.461090427517064L30.958768934272715,51.39605652260016L44.801836730413925,39.90984121217891L21.688916539748664,55.942746619484254L-11.794824839459809,58.8292623360727L8.427287713615671,-59.40522554280845L-51.455514571897055,-30.859844784789342L27.639654580972756,53.25457252334781L32.6678323556301,50.32705762494413L-20.38501982148435,56.430939801474956L-28.58077277916034,-52.75546822222325Z" transform="translate(390,230)"></path><path fill="#5c5" d="M27.71533679804754,53.21522438335473L41.49402047356456,-43.33873861730871L-59.21349234909209,-9.683094744141071L-42.16632367920658,42.684905380946816L34.334359100825665,49.205200793570086L49.263245309790705,-34.25102424085131L-1.1722008147261862,-59.988548450933166L17.25379408807428,-57.46569924369087L-40.7309331932568,44.05668032440087L-50.323425699808745,32.673426906827956L-54.18371881055838,25.770615356609973L59.924814191837875,-3.002772730944903L49.66421384112125,-33.66698477059357L-42.98459152576945,-41.860779870455694L-38.912630386036696,-45.670638231140295Z" transform="translate(550,230)"></path><path fill="#5c5" d="M49.02643873325207,34.58913565174304L-15.150328931038553,58.05572782492126L50.64017967001649,-32.180307689462026L-58.31642557740523,-14.113628444696882L-9.669452093826697,-59.215721697917274L-33.45518848899894,49.80713164964986Z" transform="translate(70,390)"></path><path fill="#5c5" d="M-55.37658018399506,-23.096198109766153L3.221810751602729,-59.91343701942709L18.82389596745212,56.970702475979174L-18.561319598852222,57.05679113610635L-41.70274546624657,43.13793018420623L-5.7986640335059985,59.71913843506555L-53.73186545753719,26.699936974703174L23.18687234642134,-55.338675000317465L-11.439119003573545,-58.899461427266736L31.84944025825181,50.8489248188794L-13.67081124968052,58.421818867402685L-57.09824416031081,18.433407547426828Z" transform="translate(230,390)"></path><path fill="#5c5" d="M-13.986712281853634,-58.34699546287405L54.722870775641844,24.60502822742545L-59.77292475063288,5.2151190547463875L-3.593671842381104,59.892282663873125L-54.50017655350136,-25.094436746760834L59.09862601396663,10.361100485050159L-56.55724210346704,20.031933647299635L-11.341024577162452,-58.91842803011802L-15.519402149072173,-57.95815867447287L-22.703641772746884,55.53867706612017L-36.59041639106387,-47.551460843265L32.09389797839257,-50.69498705545283L-37.771034038056015,-46.61919119521502L37.83673725357833,-46.56588143698858L-45.446726141441594,-39.17390819186681L-53.79099309527322,26.58061439892367L52.04255651970397,29.859208142437698L31.864293987309985,-50.8396181013418Z" transform="translate(390,390)"></path><path fill="#5c5" d="M-8.266026543330725,-59.42787902310626L35.71007433946689,-48.21608228246824L-25.546756180622417,54.289623765944725L43.302164163070564,41.53218726234494L-51.0973490155614,-31.449339000715206L52.00549103508169,29.923718054413595L-5.843548575968065,-59.71476316657633L-23.879790070654067,55.04321598690879L-7.124713640552404,-59.57548535715111L-54.929506519422155,24.140201190809456L-8.916208623301388,-59.33381180899948L-55.850029172560326,-21.926564742890314L-59.77165823530161,5.229614880878076L-12.651216124973443,58.65105907448912L4.9087553952942,59.79886387272897L-3.5181514466048927,-59.896766276642616L53.287996841639234,27.575158976975043L14.849773500497198,58.13333146297338L-50.954327648834436,31.680538092892725L-14.224999246641293,58.28935920417255L-40.94300609952667,-43.859665428889464L-35.50881061331986,48.36449491959347L46.51264449460677,37.90216223539663L-59.52452752927909,7.538608785186797Z" transform="translate(550,390)"></path><path fill="#5c5" d="M32.288191901551095,-50.571460960986784L-42.32023183596683,42.53231685847855L-52.13357477894997,29.700006410228806L56.727938027019064,19.543312083745782L20.425317727643282,56.41636638179405L-12.757560478781919,58.62801933060865Z" transform="translate(70,550)"></path><path fill="#5c5" d="M42.82264405211859,-42.026434019383L2.5995315111857358,59.943660514873066L42.00724975852157,42.84146318375681L-59.710221685889316,-5.889773019561359L4.942321819228409,59.796098995128254L-59.99994953874851,-0.07781611422003021L23.641918001371486,55.14580413065374L58.118609201558016,-14.907288971391676L0.8833085676267439,59.99349769745349L56.998521975088515,-18.73949019198098L-5.107855882254,-59.78218637927291L-55.747848181975115,-22.185072077400466L-48.49651497939565,35.32828944137055L-54.588651806434434,24.90138739018094L59.99952945556256,-0.23762388575384066Z" transform="translate(230,550)"></path><path fill="#5c5" d="M36.718381929541664,47.452717819702464L36.12656484274087,-47.90481513024802L-43.632392927543236,-41.18512216099978L-38.075153894589704,-46.37114033429964L18.188167792097936,-57.176835802328995L33.61648961135023,-49.69840667677367L-53.36538205393327,27.425097962226808L36.80799597669718,47.383239992421835L-57.123153416156,18.35607103370176L39.273990531955036,45.36026529569581L52.10612658737147,29.748135606468182L33.0249740828274,-50.09342358861669L29.685768639510094,-52.1416833280388L56.01021546339312,-21.51408291664502L-44.955287163599046,-39.73691175768881L-31.596685075106947,-51.0063671737609L24.583420726427565,-54.732581022526716L59.517353304160096,-7.59504151850295L58.70550717598269,12.396105324280091L-4.1545671118586505,59.85599027760766L-59.87081414393403,-3.935176456337045L5.327374903144219,59.76302432642904L59.86551168903891,4.015035517843664L45.01314362861051,39.67136121524042Z" transform="translate(390,550)"></path><path fill="#5c5" d="M-46.5771004596241,37.82292575639919L27.681829135762236,-53.23266230143356L-57.919623893233144,-15.66260412787146L18.776821703770032,56.98623488795194L-47.63943674939082,-36.475801104304644L-59.966815515893764,1.9952535885854057L-47.21917682341496,37.01822983502955L41.881835212311486,42.964076613477744L-2.4358163685041094,59.950536266316476L24.00169525321286,54.99016843920283L56.984373740748325,18.782469203347926L13.334194843798587,58.499566219482475L-14.228218755170603,-58.288573417566255L59.97393445908666,-1.7683849968764251L2.4178160477048105,59.951264920429L53.08175254923521,27.97011881100546L-46.05106921267439,-38.46165654739111L-59.33665538676902,8.897265170366454L-57.69891553070187,-16.457069805434106L56.331730705849196,-20.657592204409656L-18.923799482117573,56.93759577959546L-58.28722805518107,14.233729154487705L-4.372484872001684,-59.84046604133457L-30.957923716772807,-51.39656563571613L39.29275487207558,45.34401189311529L22.24616421401765,-55.72349753706205L-18.265389316869875,-57.15221389502926L-5.882700583554818,-59.71091888293333L12.294140820494468,58.72694527630269L-45.05744596924134,39.62103687094643L-54.56174653222885,24.96028476105216L15.61180627847132,-57.933336730448076L-18.1016768961055,-57.20427688161961Z" transform="translate(550,550)"></path></g><text x="320" y="632" text-anchor="middle" fill="#606060">_shape #70 seed #9</text></svg>