<svg xmlns="http://www.w3.org/2000/svg" width="640" height="640" viewport-fill="#000"><defs><style type="text/css">text{ font-family: Freemono, Sans, Arial; fill: #555} 
.window-color{ 
    animation: hue 15s linear infinite; 
}
@-webkit-keyframes hue {
    from {
      -webkit-filter: hue-rotate(0deg);
    }
  
    to {
      -webkit-filter: hue-rotate(-360deg);
    }
  }</style><script type="text/javascript"><![CDATA[
window.onload = function () {

    var frameTime = 400;
    var minFrameTime = 10;
    var delta = 10;

    setTimeout(anim, frameTime)

    var gridX = 4; gridY = 16; cnt = 0;

    function anim() {
        cnt++;
        var x = Math.floor(Math.random() * gridX);
        var y = Math.floor(Math.random() * gridY);
        var className = 'window-' + y + '-' + x;
        var elements = document.getElementsByClassName(className);

        var color = getRandomMonoColor();
        for (i = 0; i < elements.length; i++) {
            elements[i].style.fill = color;
        }

        if (cnt % 10 === 0) {
            var element = document.getElementById('floor-' + y);
            element.style.fill = getRandomColor('ABCDEF')
        }
        if (minFrameTime < frameTime) {
            frameTime -= delta;
        }

        setTimeout(anim, frameTime)
    }

    function getRandomColor(letters) {
        letters = letters || '0123456789ABCDEF';
        let color = '#';
        for (var i = 0; i < 6; i++) {
            color += letters[Math.floor(Math.random() * letters.length)];
        }
        return color;
    }
    function getRandomMonoColor(letters) {
        letters = letters || '0123456789ABCDEF';
        let color = '';
        for (var i = 0; i < 1; i++) {
            color += letters[Math.floor(Math.random() * letters.length)];
        }
        color = '#' + color + color + color;
        return color;
    }
}

]]></script></defs><rect x="0" y="0" width="640" height="640" fill="#fff" stroke="#708070"></rect><g fill-rule="evenodd"><path d="M-10,-10L10,-10L10,10L-10,10Z" transform="translate(180,53.333333333333336)" fill="#55c" class="window window-0-0"></path><path d="M-10,-10L10,-10L10,10L-10,10Z" transform="translate(180,88.88888888888889)" fill="#5cc" class="window window-1-0"></path><path d="M-10,-10L10,-10L10,10L-10,10Z" transform="translate(180,124.44444444444446)" fill="#5c5" class="window window-2-0"></path><path d="M-10,-10L10,-10L10,10L-10,10Z" transform="translate(180,160)" fill="#50a050" class="window window-3-0"></path><path d="M-10,-10L10,-10L10,10L-10,10Z" transform="translate(180,195.55555555555557)" fill="#609060" class="window window-4-0"></path><path d="M-10,-10L10,-10L10,10L-10,10Z" transform="translate(180,231.11111111111111)" fill="#708070" class="window window-5-0"></path><path d="M-10,-10L10,-10L10,10L-10,10Z" transform="translate(180,266.6666666666667)" fill="#807080" class="window window-6-0"></path><path d="M-10,-10L10,-10L10,10L-10,10Z" transform="translate(180,302.22222222222223)" fill="#906090" class="window window-7-0"></path><path d="M-10,-10L10,-10L10,10L-10,10Z" transform="translate(180,337.77777777777777)" fill="#a050a0" class="window window-8-0"></path><path d="M-10,-10L10,-10L10,10L-10,10Z" transform="translate(180,373.33333333333337)" fill="#b040b0" class="window window-9-0"></path><path d="M-10,-10L10,-10L10,10L-10,10Z" transform="translate(180,408.8888888888889)" fill="#c030c0" class="window window-10-0"></path><path d="M-10,-10L10,-10L10,10L-10,10Z" transform="translate(180,444.44444444444446)" fill="#d020d0" class="window window-11-0"></path><path d="M-10,-10L10,-10L10,10L-10,10Z" transform="translate(180,480)" fill="#e010e0" class="window window-12-0"></path><path d="M-10,-10L10,-10L10,10L-10,10Z" transform="translate(180,515.5555555555555)" fill="#f00f0" class="window window-13-0"></path><path d="M-10,-10L10,-10L10,10L-10,10Z" transform="translate(180,551.1111111111111)" class="window window-14-0"></path><path d="M-10,-10L10,-10L10,10L-10,10Z" transform="translate(180,586.6666666666667)" class="window window-15-0"></path><path d="M-10,-10L10,-10L10,10L-10,10Z" transform="translate(208,53.333333333333336)" fill="#5cc" class="window window-0-0"></path><path d="M-10,-10L10,-10L10,10L-10,10Z" transform="translate(208,88.88888888888889)" fill="#5c5" class="window window-1-0"></path><path d="M-10,-10L10,-10L10,10L-10,10Z" transform="translate(208,124.44444444444446)" fill="#50a050" class="window window-2-0"></path><path d="M-10,-10L10,-10L10,10L-10,10Z" transform="translate(208,160)" fill="#609060" class="window window-3-0"></path><path d="M-10,-10L10,-10L10,10L-10,10Z" transform="translate(208,195.55555555555557)" fill="#708070" class="window window-4-0"></path><path d="M-10,-10L10,-10L10,10L-10,10Z" transform="translate(208,231.11111111111111)" fill="#807080" class="window window-5-0"></path><path d="M-10,-10L10,-10L10,10L-10,10Z" transform="translate(208,266.6666666666667)" fill="#906090" class="window window-6-0"></path><path d="M-10,-10L10,-10L10,10L-10,10Z" transform="translate(208,302.22222222222223)" fill="#a050a0" class="window window-7-0"></path><path d="M-10,-10L10,-10L10,10L-10,10Z" transform="translate(208,337.77777777777777)" fill="#b040b0" class="window window-8-0"></path><path d="M-10,-10L10,-10L10,10L-10,10Z" transform="translate(208,373.33333333333337)" fill="#c030c0" class="window window-9-0"></path><path d="M-10,-10L10,-10L10,10L-10,10Z" transform="translate(208,408.8888888888889)" fill="#d020d0" class="window window-10-0"></path><path d="M-10,-10L10,-10L10,10L-10,10Z" transform="translate(208,444.44444444444446)" fill="#e010e0" class="window window-11-0"></path><path d="M-10,-10L10,-10L10,10L-10,10Z" transform="translate(208,480)" fill="#f00f0" class="window window-12-0"></path><path d="M-10,-10L10,-10L10,10L-10,10Z" transform="translate(208,515.5555555555555)" class="window window-13-0"></path><path d="M-10,-10L10,-10L10,10L-10,10Z" transform="translate(208,551.1111111111111)" class="window window-14-0"></path><path d="M-10,-10L10,-10L10,10L-10,10Z" transform="translate(208,586.6666666666667)" class="window window-15-0"></path><path d="M-10,-10L10,-10L10,10L-10,10Z" transform="translate(244,53.333333333333336)" fill="#5c5" class="window window-0-1"></path><path d="M-10,-10L10,-10L10,10L-10,10Z" transform="translate(244,88.88888888888889)" fill="#50a050" class="window window-1-1"></path><path d="M-10,-10L10,-10L10,10L-10,10Z" transform="translate(244,124.44444444444446)" fill="#609060" class="window window-2-1"></path><path d="M-10,-10L10,-10L10,10L-10,10Z" transform="translate(244,160)" fill="#708070" class="window window-3-1"></path><path d="M-10,-10L10,-10L10,10L-10,10Z" transform="translate(244,195.55555555555557)" fill="#807080" class="window window-4-1"></path><path d="M-10,-10L10,-10L10,10L-10,10Z" transform="translate(244,231.11111111111111)" fill="#906090" class="window window-5-1"></path><path d="M-10,-10L10,-10L10,10L-10,10Z" transform="translate(244,266.6666666666667)" fill="#a050a0" class="window window-6-1"></path><path d="M-10,-10L10,-10L10,10L-10,10Z" transform="translate(244,302.22222222222223)" fill="#b040b0" class="window window-7-1"></path><path d="M-10,-10L10,-10L10,10L-10,10Z" transform="translate(244,337.77777777777777)" fill="#c030c0" class="window window-8-1"></path><path d="M-10,-10L10,-10L10,10L-10,10Z" transform="translate(244,373.33333333333337)" fill="#d020d0" class="window window-9-1"></path><path d="M-10,-10L10,-10L10,10L-10,10Z" transform="translate(244,408.8888888888889)" fill="#e010e0" class="window window-10-1"></path><path d="M-10,-10L10,-10L10,10L-10,10Z" transform="translate(244,444.44444444444446)" fill="#f00f0" class="window window-11-1"></path><path d="M-10,-10L10,-10L10,10L-10,10Z" transform="translate(244,480)" class="window window-12-1"></path><path d="M-10,-10L10,-10L10,10L-10,10Z" transform="translate(244,515.5555555555555)" class="window window-13-1"></path><path d="M-10,-10L10,-10L10,10L-10,10Z" transform="translate(244,551.1111111111111)" class="window window-14-1"></path><path d="M-10,-10L10,-10L10,10L-10,10Z" transform="translate(244,586.6666666666667)" class="window window-15-1"></path><path d="M-10,-10L10,-10L10,10L-10,10Z" transform="translate(272,53.333333333333336)" fill="#50a050" class="window window-0-1"></path><path d="M-10,-10L10,-10L10,10L-10,10Z" transform="translate(272,88.88888888888889)" fill="#609060" class="window window-1-1"></path><path d="M-10,-10L10,-10L10,10L-10,10Z" transform="translate(272,124.44444444444446)" fill="#708070" class="window window-2-1"></path><path d="M-10,-10L10,-10L10,10L-10,10Z" transform="translate(272,160)" fill="#807080" class="window window-3-1"></path><path d="M-10,-10L10,-10L10,10L-10,10Z" transform="translate(272,195.55555555555557)" fill="#906090" class="window window-4-1"></path><path d="M-10,-10L10,-10L10,10L-10,10Z" transform="translate(272,231.11111111111111)" fill="#a050a0" class="window window-5-1"></path><path d="M-10,-10L10,-10L10,10L-10,10Z" transform="translate(272,266.6666666666667)" fill="#b040b0" class="window window-6-1"></path><path d="M-10,-10L10,-10L10,10L-10,10Z" transform="translate(272,302.22222222222223)" fill="#c030c0" class="window window-7-1"></path><path d="M-10,-10L10,-10L10,10L-10,10Z" transform="translate(272,337.77777777777777)" fill="#d020d0" class="window window-8-1"></path><path d="M-10,-10L10,-10L10,10L-10,10Z" transform="translate(272,373.33333333333337)" fill="#e010e0" class="window window-9-1"></path><path d="M-10,-10L10,-10L10,10L-10,10Z" transform="translate(272,408.8888888888889)" fill="#f00f0" class="window window-10-1"></path><path d="M-10,-10L10,-10L10,10L-10,10Z" transform="translate(272,444.44444444444446)" class="window window-11-1"></path><path d="M-10,-10L10,-10L10,10L-10,10Z" transform="translate(272,480)" class="window window-12-1"></path><path d="M-10,-10L10,-10L10,10L-10,10Z" transform="translate(272,515.5555555555555)" class="window window-13-1"></path><path d="M-10,-10L10,-10L10,10L-10,10Z" transform="translate(272,551.1111111111111)" class="window window-14-1"></path><path d="M-10,-10L10,-10L10,10L-10,10Z" transform="translate(272,586.6666666666667)" class="window window-15-1"></path><path d="M-10,-10L10,-10L10,10L-10,10Z" transform="translate(308,53.333333333333336)" fill="#609060" class="window window-0-2"></path><path d="M-10,-10L10,-10L10,10L-10,10Z" transform="translate(308,88.88888888888889)" fill="#708070" class="window window-1-2"></path><path d="M-10,-10L10,-10L10,10L-10,10Z" transform="translate(308,124.44444444444446)" fill="#807080" class="window window-2-2"></path><path d="M-10,-10L10,-10L10,10L-10,10Z" transform="translate(308,160)" fill="#906090" class="window window-3-2"></path><path d="M-10,-10L10,-10L10,10L-10,10Z" transform="translate(308,195.55555555555557)" fill="#a050a0" class="window window-4-2"></path><path d="M-10,-10L10,-10L10,10L-10,10Z" transform="translate(308,231.11111111111111)" fill="#b040b0" class="window window-5-2"></path><path d="M-10,-10L10,-10L10,10L-10,10Z" transform="translate(308,266.6666666666667)" fill="#c030c0" class="window window-6-2"></path><path d="M-10,-10L10,-10L10,10L-10,10Z" transform="translate(308,302.22222222222223)" fill="#d020d0" class="window window-7-2"></path><path d="M-10,-10L10,-10L10,10L-10,10Z" transform="translate(308,337.77777777777777)" fill="#e010e0" class="window window-8-2"></path><path d="M-10,-10L10,-10L10,10L-10,10Z" transform="translate(308,373.33333333333337)" fill="#f00f0" class="window window-9-2"></path><path d="M-10,-10L10,-10L10,10L-10,10Z" transform="translate(308,408.8888888888889)" class="window window-10-2"></path><path d="M-10,-10L10,-10L10,10L-10,10Z" transform="translate(308,444.44444444444446)" class="window window-11-2"></path><path d="M-10,-10L10,-10L10,10L-10,10Z" transform="translate(308,480)" class="window window-12-2"></path><path d="M-10,-10L10,-10L10,10L-10,10Z" transform="translate(308,515.5555555555555)" class="window window-13-2"></path><path d="M-10,-10L10,-10L10,10L-10,10Z" transform="translate(308,551.1111111111111)" class="window window-14-2"></path><path d="M-10,-10L10,-10L10,10L-10,10Z" transform="translate(308,586.6666666666667)" class="window window-15-2"></path><path d="M-10,-10L10,-10L10,10L-10,10Z" transform="translate(336,53.333333333333336)" fill="#708070" class="window window-0-2"></path><path d="M-10,-10L10,-10L10,10L-10,10Z" transform="translate(336,88.88888888888889)" fill="#807080" class="window window-1-2"></path><path d="M-10,-10L10,-10L10,10L-10,10Z" transform="translate(336,124.44444444444446)" fill="#906090" class="window window-2-2"></path><path d="M-10,-10L10,-10L10,10L-10,10Z" transform="translate(336,160)" fill="#a050a0" class="window window-3-2"></path><path d="M-10,-10L10,-10L10,10L-10,10Z" transform="translate(336,195.55555555555557)" fill="#b040b0" class="window window-4-2"></path><path d="M-10,-10L10,-10L10,10L-10,10Z" transform="translate(336,231.11111111111111)" fill="#c030c0" class="window window-5-2"></path><path d="M-10,-10L10,-10L10,10L-10,10Z" transform="translate(336,266.6666666666667)" fill="#d020d0" class="window window-6-2"></path><path d="M-10,-10L10,-10L10,10L-10,10Z" transform="translate(336,302.22222222222223)" fill="#e010e0" class="window window-7-2"></path><path d="M-10,-10L10,-10L10,10L-10,10Z" transform="translate(336,337.77777777777777)" fill="#f00f0" class="window window-8-2"></path><path d="M-10,-10L10,-10L10,10L-10,10Z" transform="translate(336,373.33333333333337)" class="window window-9-2"></path><path d="M-10,-10L10,-10L10,10L-10,10Z" transform="translate(336,408.8888888888889)" class="window window-10-2"></path><path d="M-10,-10L10,-10L10,10L-10,10Z" transform="translate(336,444.44444444444446)" class="window window-11-2"></path><path d="M-10,-10L10,-10L10,10L-10,10Z" transform="translate(336,480)" class="window window-12-2"></path><path d="M-10,-10L10,-10L10,10L-10,10Z" transform="translate(336,515.5555555555555)" class="window window-13-2"></path><path d="M-10,-10L10,-10L10,10L-10,10Z" transform="translate(336,551.1111111111111)" class="window window-14-2"></path><path d="M-10,-10L10,-10L10,10L-10,10Z" transform="translate(336,586.6666666666667)" class="window window-15-2"></path><path d="M-10,-10L10,-10L10,10L-10,10Z" transform="translate(372,53.333333333333336)" fill="#807080" class="window window-0-3"></path><path d="M-10,-10L10,-10L10,10L-10,10Z" transform="translate(372,88.88888888888889)" fill="#906090" class="window window-1-3"></path><path d="M-10,-10L10,-10L10,10L-10,10Z" transform="translate(372,124.44444444444446)" fill="#a050a0" class="window window-2-3"></path><path d="M-10,-10L10,-10L10,10L-10,10Z" transform="translate(372,160)" fill="#b040b0" class="window window-3-3"></path><path d="M-10,-10L10,-10L10,10L-10,10Z" transform="translate(372,195.55555555555557)" fill="#c030c0" class="window window-4-3"></path><path d="M-10,-10L10,-10L10,10L-10,10Z" transform="translate(372,231.11111111111111)" fill="#d020d0" class="window window-5-3"></path><path d="M-10,-10L10,-10L10,10L-10,10Z" transform="translate(372,266.6666666666667)" fill="#e010e0" class="window window-6-3"></path><path d="M-10,-10L10,-10L10,10L-10,10Z" transform="translate(372,302.22222222222223)" fill="#f00f0" class="window window-7-3"></path><path d="M-10,-10L10,-10L10,10L-10,10Z" transform="translate(372,337.77777777777777)" class="window window-8-3"></path><path d="M-10,-10L10,-10L10,10L-10,10Z" transform="translate(372,373.33333333333337)" class="window window-9-3"></path><path d="M-10,-10L10,-10L10,10L-10,10Z" transform="translate(372,408.8888888888889)" class="window window-10-3"></path><path d="M-10,-10L10,-10L10,10L-10,10Z" transform="translate(372,444.44444444444446)" class="window window-11-3"></path><path d="M-10,-10L10,-10L10,10L-10,10Z" transform="translate(372,480)" class="window window-12-3"></path><path d="M-10,-10L10,-10L10,10L-10,10Z" transform="translate(372,515.5555555555555)" class="window window-13-3"></path><path d="M-10,-10L10,-10L10,10L-10,10Z" transform="translate(372,551.1111111111111)" class="window window-14-3"></path><path d="M-10,-10L10,-10L10,10L-10,10Z" transform="translate(372,586.6666666666667)" class="window window-15-3"></path><path d="M-10,-10L10,-10L10,10L-10,10Z" transform="translate(400,53.333333333333336)" fill="#906090" class="window window-0-3"></path><path d="M-10,-10L10,-10L10,10L-10,10Z" transform="translate(400,88.88888888888889)" fill="#a050a0" class="window window-1-3"></path><path d="M-10,-10L10,-10L10,10L-10,10Z" transform="translate(400,124.44444444444446)" fill="#b040b0" class="window window-2-3"></path><path d="M-10,-10L10,-10L10,10L-10,10Z" transform="translate(400,160)" fill="#c030c0" class="window window-3-3"></path><path d="M-10,-10L10,-10L10,10L-10,10Z" transform="translate(400,195.55555555555557)" fill="#d020d0" class="window window-4-3"></path><path d="M-10,-10L10,-10L10,10L-10,10Z" transform="translate(400,231.11111111111111)" fill="#e010e0" class="window window-5-3"></path><path d="M-10,-10L10,-10L10,10L-10,10Z" transform="translate(400,266.6666666666667)" fill="#f00f0" class="window window-6-3"></path><path d="M-10,-10L10,-10L10,10L-10,10Z" transform="translate(400,302.22222222222223)" class="window window-7-3"></path><path d="M-10,-10L10,-10L10,10L-10,10Z" transform="translate(400,337.77777777777777)" class="window window-8-3"></path><path d="M-10,-10L10,-10L10,10L-10,10Z" transform="translate(400,373.33333333333337)" class="window window-9-3"></path><path d="M-10,-10L10,-10L10,10L-10,10Z" transform="translate(400,408.8888888888889)" class="window window-10-3"></path><path d="M-10,-10L10,-10L10,10L-10,10Z" transform="translate(400,444.44444444444446)" class="window window-11-3"></path><path d="M-10,-10L10,-10L10,10L-10,10Z" transform="translate(400,480)" class="window window-12-3"></path><path d="M-10,-10L10,-10L10,10L-10,10Z" transform="translate(400,515.5555555555555)" class="window window-13-3"></path><path d="M-10,-10L10,-10L10,10L-10,10Z" transform="translate(400,551.1111111111111)" class="window window-14-3"></path><path d="M-10,-10L10,-10L10,10L-10,10Z" transform="translate(400,586.6666666666667)" class="window window-15-3"></path><path d="M-10,-10L10,-10L10,10L-10,10Z" transform="translate(480,53.333333333333336)" fill="#FDBCD9" id="floor-0"></path><path d="M-10,-10L10,-10L10,10L-10,10Z" transform="translate(480,88.88888888888889)" fill="#98EEED" id="floor-1"></path><path d="M-10,-10L10,-10L10,10L-10,10Z" transform="translate(480,124.44444444444446)" fill="#CA89BD" id="floor-2"></path><path d="M-10,-10L10,-10L10,10L-10,10Z" transform="translate(480,160)" fill="#BEB8EC" id="floor-3"></path><path d="M-10,-10L10,-10L10,10L-10,10Z" transform="translate(480,195.55555555555557)" fill="#FAEA98" id="floor-4"></path><path d="M-10,-10L10,-10L10,10L-10,10Z" transform="translate(480,231.11111111111111)" fill="#ABBEBC" id="floor-5"></path><path d="M-10,-10L10,-10L10,10L-10,10Z" transform="translate(480,266.6666666666667)" fill="#E8AA9D" id="floor-6"></path><path d="M-10,-10L10,-10L10,10L-10,10Z" transform="translate(480,302.22222222222223)" fill="#DA9F9C" id="floor-7"></path><path d="M-10,-10L10,-10L10,10L-10,10Z" transform="translate(480,337.77777777777777)" fill="#E9F8A8" id="floor-8"></path><path d="M-10,-10L10,-10L10,10L-10,10Z" transform="translate(480,373.33333333333337)" fill="#9EDCE9" id="floor-9"></path><path d="M-10,-10L10,-10L10,10L-10,10Z" transform="translate(480,408.8888888888889)" fill="#CBB89D" id="floor-10"></path><path d="M-10,-10L10,-10L10,10L-10,10Z" transform="translate(480,444.44444444444446)" fill="#D8CAD8" id="floor-11"></path><path d="M-10,-10L10,-10L10,10L-10,10Z" transform="translate(480,480)" fill="#9FFFDF" id="floor-12"></path><path d="M-10,-10L10,-10L10,10L-10,10Z" transform="translate(480,515.5555555555555)" fill="#8ADCDA" id="floor-13"></path><path d="M-10,-10L10,-10L10,10L-10,10Z" transform="translate(480,551.1111111111111)" fill="#BBAC99" id="floor-14"></path><path d="M-10,-10L10,-10L10,10L-10,10Z" transform="translate(480,586.6666666666667)" fill="#CBE98C" id="floor-15"></path></g><text x="320" y="632" text-anchor="middle" fill="#606060">_shape #72 sch tribute</text></svg>