<?xml version="1.0" encoding="UTF-8" standalone="no"?>
<!-- Created with Inkscape (http://www.inkscape.org/) -->

<svg
   xmlns:dc="http://purl.org/dc/elements/1.1/"
   xmlns:cc="http://creativecommons.org/ns#"
   xmlns:rdf="http://www.w3.org/1999/02/22-rdf-syntax-ns#"
   xmlns:svg="http://www.w3.org/2000/svg"
   xmlns="http://www.w3.org/2000/svg"
   xmlns:sodipodi="http://sodipodi.sourceforge.net/DTD/sodipodi-0.dtd"
   xmlns:inkscape="http://www.inkscape.org/namespaces/inkscape"
   width="105mm"
   height="146mm"
   viewBox="0 0 105 146"
   version="1.1"
   id="svg8"
   inkscape:version="0.92.3 (2405546, 2018-03-11)"
   sodipodi:docname="araucaria_0_younger_03.svg">
  <defs
     id="defs2" />
  <sodipodi:namedview
     id="base"
     pagecolor="#ffffff"
     bordercolor="#666666"
     borderopacity="1.0"
     inkscape:pageopacity="0.0"
     inkscape:pageshadow="2"
     inkscape:zoom="1.4"
     inkscape:cx="174.66169"
     inkscape:cy="150.42036"
     inkscape:document-units="mm"
     inkscape:current-layer="layer1"
     showgrid="false"
     inkscape:pagecheckerboard="true"
     height="147mm"
     inkscape:window-width="1279"
     inkscape:window-height="1414"
     inkscape:window-x="0"
     inkscape:window-y="1080"
     inkscape:window-maximized="0" />
  <metadata
     id="metadata5">
    <rdf:RDF>
      <cc:Work
         rdf:about="">
        <dc:format>image/svg+xml</dc:format>
        <dc:type
           rdf:resource="http://purl.org/dc/dcmitype/StillImage" />
        <dc:title />
      </cc:Work>
    </rdf:RDF>
  </metadata>
  <g
     inkscape:label="Layer 1"
     inkscape:groupmode="layer"
     id="layer1"
     transform="translate(0,-151)">
    <path
       style="fill:#000000;stroke-width:0.06568027"
       d="m 49.644848,297.70284 c -0.212701,-0.0657 -0.289737,-0.2466 -0.143502,-0.33697 0.04641,-0.0287 0.03547,-0.0813 -0.0325,-0.15646 -0.14593,-0.16125 -0.209723,-0.69767 -0.09886,-0.83126 0.09885,-0.11911 0.142698,-0.99549 0.05259,-1.05117 -0.100865,-0.0623 -0.06049,-0.40246 0.06637,-0.55912 0.119812,-0.14796 0.11989,-0.15867 0.0028,-0.38494 -0.06624,-0.12801 -0.140903,-0.43566 -0.165926,-0.68366 -0.04517,-0.44774 -0.04449,-0.45039 0.09669,-0.37484 0.164319,0.0879 0.176398,0.0674 0.228427,-0.38933 0.0198,-0.17379 -0.0046,-0.4038 -0.05911,-0.55828 -0.05103,-0.1445 -0.09323,-0.37356 -0.09377,-0.50902 -5.21e-4,-0.13546 -0.03314,-0.2463 -0.07244,-0.2463 -0.04695,0 -0.05626,-0.0899 -0.02716,-0.2622 0.03492,-0.2067 0.0143,-0.31073 -0.09745,-0.49154 -0.141136,-0.22837 -0.158874,-0.49363 -0.03382,-0.50576 0.03612,-0.004 0.0949,0.0569 0.130621,0.13421 0.03572,0.0773 0.09483,0.13019 0.13136,0.11749 0.08175,-0.0284 0.04557,-0.6365 -0.04441,-0.74646 -0.03574,-0.0437 -0.04524,-0.16929 -0.02112,-0.27914 0.03758,-0.17109 0.02484,-0.19973 -0.08884,-0.19973 -0.07299,0 -0.150225,0.0283 -0.17164,0.063 -0.06843,0.11072 -0.906597,-5.3e-4 -1.038679,-0.13787 -0.163367,-0.16987 -0.195353,-0.15338 -0.145221,0.0749 0.05185,0.23604 -0.078,0.26979 -0.260809,0.0678 -0.08858,-0.0979 -0.145987,-0.11371 -0.236554,-0.0652 -0.09023,0.0483 -0.135024,0.0364 -0.182472,-0.0484 -0.05398,-0.0965 -0.08808,-0.10089 -0.240738,-0.0313 -0.136944,0.0624 -0.19934,0.0632 -0.271262,0.004 -0.07211,-0.0598 -0.129839,-0.058 -0.253211,0.008 -0.143295,0.0767 -0.173369,0.0692 -0.291137,-0.0722 -0.07223,-0.0867 -0.132318,-0.17989 -0.13352,-0.20698 -0.0054,-0.12119 -0.208669,-0.033 -0.264906,0.11494 -0.07524,0.19789 -0.17306,0.21186 -0.229881,0.0328 -0.05606,-0.17664 -0.09106,-0.16776 -0.378172,0.096 -0.136986,0.12582 -0.351184,0.24627 -0.481363,0.27069 -0.226362,0.0425 -0.374844,0.22672 -0.313312,0.38879 0.01374,0.0362 -0.0862,0.10132 -0.222091,0.14474 -0.205377,0.0656 -0.259374,0.0628 -0.31999,-0.0165 -0.104462,-0.13678 -0.222641,-0.11773 -0.222641,0.0359 0,0.073 0.04379,0.13136 0.09852,0.13136 0.05419,0 0.09852,0.0264 0.09852,0.0587 0,0.0765 -0.191809,0.14937 -0.268513,0.10196 -0.0855,-0.0528 -0.44752,0.17535 -0.489871,0.30879 -0.03427,0.10796 -0.396668,0.23648 -0.467394,0.16575 -0.06476,-0.0648 0.05262,-0.30676 0.148791,-0.30676 0.07379,0 0.081,-0.0288 0.03073,-0.12272 -0.03613,-0.0675 -0.04898,-0.13942 -0.02857,-0.15983 0.02041,-0.0204 0.01496,-0.0729 -0.0121,-0.11673 -0.03323,-0.0538 -0.08334,-0.016 -0.154358,0.11629 -0.256192,0.47728 -0.602824,0.73272 -0.689126,0.50782 -0.02792,-0.0727 0.04198,-0.18485 0.216178,-0.34678 0.141585,-0.13161 0.267735,-0.2984 0.280333,-0.37065 0.01491,-0.0855 0.08344,-0.13839 0.196276,-0.1515 0.105733,-0.0123 0.186394,-0.0699 0.206751,-0.14778 0.02506,-0.0958 0.09085,-0.12764 0.263936,-0.12764 0.126805,0 0.245808,0.037 0.26445,0.0821 0.02071,0.0502 0.05106,0.0258 0.07803,-0.0627 0.03628,-0.119 0.07797,-0.13799 0.234301,-0.10673 0.113019,0.0226 0.190169,0.0101 0.190169,-0.0308 0,-0.14694 0.343602,-0.47301 0.49844,-0.47301 0.114575,0 0.158363,-0.0363 0.158363,-0.13137 0,-0.0946 -0.04379,-0.13136 -0.156647,-0.13136 -0.09461,0 -0.199253,-0.065 -0.264235,-0.1642 -0.111138,-0.16961 -0.272841,-0.21764 -0.314275,-0.0933 -0.013,0.039 -0.19619,0.0831 -0.407106,0.098 -0.378743,0.0268 -0.383097,0.0251 -0.352201,-0.13654 0.02959,-0.1548 0.01531,-0.16365 -0.264351,-0.16365 -0.200749,0 -0.32146,-0.0353 -0.376105,-0.11005 -0.08474,-0.1159 -0.137594,-0.13182 -0.642163,-0.19351 -0.339509,-0.0415 -0.938931,0.14646 -1.196574,0.37522 -0.256852,0.22806 -0.864851,0.36656 -1.093578,0.24912 -0.07407,-0.038 -0.120198,-0.0248 -0.14572,0.0417 -0.05827,0.15183 -0.304188,0.12265 -0.304188,-0.0361 0,-0.0734 0.03995,-0.14875 0.08878,-0.16749 0.0559,-0.0214 0.07675,-0.097 0.05629,-0.20406 -0.03128,-0.16365 -0.02358,-0.1683 0.206778,-0.12509 0.191382,0.0359 0.239272,0.0246 0.239272,-0.0566 0,-0.13036 0.150187,-0.1291 0.406447,0.003 0.156675,0.081 0.238207,0.0888 0.35798,0.0343 0.180555,-0.0823 0.194964,-0.15568 0.05359,-0.273 -0.05583,-0.0464 -0.08589,-0.12497 -0.06679,-0.17473 0.0191,-0.0498 -0.0018,-0.10151 -0.04627,-0.11498 -0.04455,-0.0135 -0.224894,-0.0641 -0.400774,-0.11246 -0.223908,-0.0616 -0.336646,-0.13226 -0.376036,-0.23574 -0.06934,-0.18217 -0.135971,-0.18594 -0.289387,-0.0164 -0.06538,0.0722 -0.1767,0.13136 -0.24737,0.13136 -0.110435,0 -0.122632,-0.0312 -0.08679,-0.22226 0.03117,-0.16613 0.01642,-0.23196 -0.05837,-0.26066 -0.05504,-0.0211 -0.100067,-0.0108 -0.100067,0.0229 0,0.095 -0.24125,0.20141 -0.356483,0.15719 -0.138805,-0.0533 -0.131327,-0.20661 0.01166,-0.23913 0.08453,-0.0192 0.04978,-0.0585 -0.13136,-0.14834 -0.249177,-0.12363 -0.332464,-0.29491 -0.143399,-0.29491 0.0566,0 0.196988,0.0693 0.311981,0.15411 0.239429,0.17648 0.701681,0.22211 0.701681,0.0693 0,-0.053 -0.06593,-0.092 -0.155343,-0.092 -0.248279,0 -0.961222,-0.59127 -0.961222,-0.79717 0,-0.2125 0.133365,-0.19917 0.369473,0.0369 0.253614,0.25362 0.361685,0.2796 0.634965,0.15269 0.224866,-0.10443 0.2539,-0.46367 0.04645,-0.5747 -0.148401,-0.0794 -0.179397,-0.3284 -0.04088,-0.3284 0.04976,0 0.127272,0.0443 0.172243,0.0985 0.04497,0.0542 0.146124,0.0985 0.224787,0.0985 0.216748,0 0.300581,0.12697 0.301378,0.45647 0.0011,0.45634 0.07221,0.79145 0.167942,0.79145 0.06137,0 0.07518,0.0654 0.04849,0.22988 -0.03064,0.18885 -0.01693,0.22988 0.07684,0.22988 0.07447,0 0.101003,-0.0342 0.07634,-0.0985 -0.02544,-0.0663 0.0031,-0.0985 0.08707,-0.0985 0.06868,0 0.143635,0.0591 0.166566,0.13136 0.02293,0.0722 0.08589,0.13136 0.139914,0.13136 0.06416,0 0.0911,0.0512 0.07767,0.14778 -0.01859,0.1337 0.0029,0.14573 0.225752,0.12623 0.255026,-0.0223 0.30903,0.0506 0.183949,0.2483 -0.03319,0.0525 -0.04657,0.11767 -0.02973,0.14491 0.04373,0.0707 0.223444,-0.01 0.223444,-0.10016 0,-0.0416 0.05911,-0.11261 0.131361,-0.15773 0.148533,-0.0928 0.177196,-0.27797 0.04302,-0.27797 -0.18962,0 -0.316938,-0.24197 -0.297094,-0.56465 0.0124,-0.2016 -0.0091,-0.32216 -0.06039,-0.33928 -0.04379,-0.0146 -0.07962,-0.0839 -0.07962,-0.15405 0,-0.0744 -0.06609,-0.15264 -0.15858,-0.1878 -0.23465,-0.0892 -0.279038,-0.30857 -0.100827,-0.49827 0.08666,-0.0922 0.181326,-0.13717 0.230454,-0.10935 0.04586,0.0259 0.234988,0.24379 0.420283,0.48407 0.263808,0.3421 0.328236,0.4714 0.296964,0.596 -0.02599,0.10355 -0.0043,0.18872 0.06217,0.24386 0.06326,0.0525 0.08797,0.14106 0.06496,0.23277 -0.04198,0.16726 0.226924,0.42806 0.441362,0.42806 0.131288,0 0.174167,0.22304 0.05682,0.29556 -0.08528,0.0527 -0.08528,0.22988 0,0.22988 0.03613,0 0.125871,-0.0602 0.199437,-0.13375 0.145059,-0.14506 0.278032,-0.12017 0.216379,0.0405 -0.02159,0.0563 0.01454,0.13815 0.08309,0.18827 0.104213,0.0762 0.143465,0.0713 0.278679,-0.0351 0.153116,-0.12045 0.313903,-0.11306 0.237293,0.0109 -0.02098,0.034 -0.01843,0.12387 0.0057,0.19982 0.03772,0.11885 0.07873,0.13251 0.294359,0.098 0.161962,-0.0259 0.25937,-0.0135 0.275532,0.035 0.01869,0.0561 0.06019,0.0562 0.164345,3.7e-4 0.09201,-0.0492 0.146935,-0.0518 0.161692,-0.008 0.0123,0.0369 0.110734,0.0736 0.21876,0.0816 0.14327,0.0106 0.190668,-0.0116 0.175187,-0.082 -0.01167,-0.0531 -0.02295,-0.18609 -0.02507,-0.29556 -0.0021,-0.10949 -0.03156,-0.23411 -0.06544,-0.27696 -0.03879,-0.0491 -0.03559,-0.12649 0.0086,-0.20915 0.09782,-0.18278 0.09163,-0.20067 -0.09396,-0.27123 -0.157029,-0.0597 -0.213182,-0.19185 -0.120784,-0.28424 0.07938,-0.0794 0.118018,-0.70382 0.07141,-1.15408 -0.0257,-0.2483 0.118129,-0.23214 0.273203,0.0307 0.115331,0.19548 0.171579,0.23417 0.303681,0.20892 0.198187,-0.0379 0.222214,0.11106 0.03415,0.2117 -0.117369,0.0628 -0.120429,0.0862 -0.03692,0.28145 0.06289,0.14708 0.127888,0.20621 0.210079,0.19114 0.06546,-0.012 0.243773,-0.0416 0.396256,-0.0657 0.300355,-0.0475 0.300934,-0.12586 0.0019,-0.25725 -0.132674,-0.0583 -0.180621,-0.1263 -0.180621,-0.25621 0,-0.0973 -0.04567,-0.22732 -0.101483,-0.28899 -0.05582,-0.0617 -0.10754,-0.19506 -0.11494,-0.2964 -0.01174,-0.16066 0.01533,-0.19035 0.211413,-0.23189 0.295989,-0.0627 0.560325,0.0947 0.497163,0.29599 -0.123471,0.39356 -0.119575,0.4185 0.05999,0.38418 0.14823,-0.0283 0.17034,-0.0103 0.17034,0.1393 0,0.1961 0.03515,0.21177 0.170793,0.0761 0.05265,-0.0527 0.139209,-0.079 0.19235,-0.0587 0.05314,0.0204 0.09662,0.004 0.09662,-0.0356 0,-0.04 -0.02956,-0.0727 -0.06568,-0.0727 -0.106011,0 -0.07527,-0.17931 0.03821,-0.22286 0.05714,-0.0219 0.172948,-0.0399 0.257349,-0.0399 0.0844,0 0.200209,-0.0179 0.25735,-0.0399 0.115316,-0.0442 0.140733,-0.25801 0.03821,-0.32137 -0.03612,-0.0223 -0.06568,-0.0691 -0.06568,-0.10384 0,-0.0971 0.591517,-0.45017 0.69055,-0.41217 0.18521,0.0711 0.167515,0.24268 -0.04799,0.46537 -0.118601,0.12256 -0.207008,0.27651 -0.196459,0.34211 0.01055,0.0656 -0.0264,0.13677 -0.0821,0.15814 -0.0557,0.0214 -0.101279,0.0904 -0.101279,0.15338 0,0.063 -0.121823,0.23865 -0.270719,0.39036 l -0.270721,0.27585 0.248431,0.2685 c 0.284209,0.30718 0.49005,0.35394 0.49005,0.11133 0,-0.0864 -0.04434,-0.17418 -0.09852,-0.19497 -0.155964,-0.0598 -0.117761,-0.16399 0.166589,-0.45406 0.213006,-0.2173 0.257761,-0.3039 0.227725,-0.44066 -0.02986,-0.13596 0.0022,-0.19944 0.159153,-0.31551 0.108095,-0.0799 0.245875,-0.14531 0.306177,-0.14531 0.0603,0 0.225253,-0.10445 0.36656,-0.23211 0.141307,-0.12767 0.285281,-0.21459 0.319942,-0.19317 0.107571,0.0665 0.06926,0.29572 -0.05771,0.34529 -0.21421,0.0836 -0.536069,0.3964 -0.536069,0.52089 0,0.0666 -0.0473,0.18852 -0.105111,0.27106 -0.05781,0.0825 -0.09063,0.20543 -0.07294,0.27309 0.01769,0.0677 -0.0094,0.18231 -0.06012,0.25479 -0.08067,0.11516 -0.07865,0.1394 0.01604,0.19239 0.07098,0.0397 0.119729,0.17915 0.141367,0.40434 0.03168,0.32972 0.04001,0.3423 0.204674,0.30905 0.09441,-0.019 0.223371,-0.0547 0.286589,-0.0791 0.07734,-0.0299 0.11494,-0.013 0.11494,0.0516 0,0.0528 -0.09356,0.12287 -0.207905,0.15567 -0.200819,0.0576 -0.203843,0.0637 -0.08873,0.1788 0.07762,0.0776 0.167296,0.10451 0.257165,0.0771 0.07589,-0.0231 0.196022,-0.0476 0.266952,-0.0544 0.116074,-0.011 0.127503,-0.0575 0.114365,-0.46462 -0.0087,-0.26968 0.01638,-0.48967 0.06212,-0.54477 0.05993,-0.0722 0.0447,-0.14941 -0.0696,-0.35278 -0.191062,-0.33995 -0.163535,-0.54804 0.07614,-0.57562 0.213187,-0.0246 0.225879,-0.098 0.05455,-0.31581 -0.09995,-0.12707 -0.122252,-0.2465 -0.107652,-0.57656 0.01013,-0.22896 0.03886,-0.44937 0.06384,-0.48979 0.02499,-0.0404 0.01479,-0.23921 -0.02264,-0.44173 -0.04181,-0.22618 -0.04491,-0.41151 -0.008,-0.48041 0.03627,-0.0678 0.03625,-0.14977 -5.8e-5,-0.20715 -0.03305,-0.0523 -0.06054,-0.15083 -0.0611,-0.2191 -5.21e-4,-0.0683 -0.04972,-0.15974 -0.109257,-0.20328 -0.1,-0.0731 -0.09895,-0.0949 0.01378,-0.28574 0.09546,-0.1616 0.104732,-0.22388 0.04257,-0.28604 -0.0618,-0.0618 -0.09698,-0.0619 -0.158277,-5.3e-4 -0.136636,0.13663 -0.369401,0.0958 -0.392797,-0.069 -0.02657,-0.18707 -0.280889,-0.23325 -0.44862,-0.0814 -0.122801,0.11113 -0.393372,0.085 -0.393372,-0.0379 0,-0.13207 -0.195688,-0.0508 -0.348808,0.14483 -0.131104,0.16752 -0.192797,0.19818 -0.329669,0.16383 -0.09261,-0.0232 -0.220661,-0.13076 -0.284556,-0.23893 -0.135597,-0.22954 -0.236038,-0.24463 -0.459345,-0.069 -0.162867,0.12811 -0.296203,0.11985 -0.48235,-0.0299 -0.227318,-0.18283 -0.884125,-0.33962 -0.953363,-0.22758 -0.04652,0.0753 -0.273653,0.0863 -0.305722,0.0148 -0.108124,-0.24093 -0.913765,-0.56116 -1.011984,-0.40224 -0.07017,0.11353 -0.290461,0.0608 -0.290461,-0.0695 0,-0.0745 -0.06104,-0.14554 -0.147781,-0.17197 -0.08128,-0.0248 -0.202173,-0.0929 -0.268653,-0.15134 -0.110914,-0.0975 -0.127225,-0.0976 -0.197979,-0.001 -0.04241,0.058 -0.172404,0.12638 -0.288876,0.15197 -0.116473,0.0256 -0.22863,0.0738 -0.249239,0.10713 -0.02061,0.0334 -0.205673,0.0619 -0.411255,0.0635 -0.205582,0.002 -0.49201,0.0507 -0.636506,0.10909 -0.144497,0.0584 -0.395724,0.10413 -0.558283,0.10158 -0.826583,-0.0129 -1.022536,-10e-4 -1.089221,0.0656 -0.105627,0.10568 -0.263558,0.0338 -0.401642,-0.18289 -0.133466,-0.20941 -0.135903,-0.23115 -0.03214,-0.28668 0.06175,-0.033 0.193186,-0.0446 0.292076,-0.0257 0.104555,0.02 0.243347,-0.007 0.331645,-0.0651 0.10575,-0.0693 0.246176,-0.0889 0.462593,-0.0645 0.243331,0.0274 0.328274,0.011 0.391525,-0.0755 0.04906,-0.0671 0.205415,-0.12267 0.398201,-0.14155 0.174584,-0.0171 0.371521,-0.06 0.437638,-0.0954 0.06612,-0.0354 0.269937,-0.0643 0.452933,-0.0643 0.251963,0 0.33272,-0.0239 0.33272,-0.0985 0,-0.0607 -0.0616,-0.0985 -0.160325,-0.0985 -0.08818,0 -0.178591,-0.0296 -0.200917,-0.0657 -0.02232,-0.0361 -0.138676,-0.0657 -0.258555,-0.0657 -0.11988,0 -0.254757,-0.0444 -0.299727,-0.0985 -0.04497,-0.0542 -0.125207,-0.0985 -0.178304,-0.0985 -0.0531,0 -0.171687,-0.0591 -0.263536,-0.13137 -0.09185,-0.0722 -0.231977,-0.13136 -0.311394,-0.13136 -0.07942,0 -0.166187,-0.0218 -0.192819,-0.0484 -0.02663,-0.0266 -0.09556,-0.0488 -0.15317,-0.0493 -0.151106,-0.001 -0.343345,-0.36558 -0.268995,-0.50985 0.0796,-0.15446 0.233069,-0.14561 0.284493,0.0164 0.0548,0.17267 0.110632,0.16572 0.285627,-0.0355 0.163605,-0.18816 0.272655,-0.16232 0.272655,0.0646 0,0.0993 0.04767,0.16513 0.136235,0.18829 0.07493,0.0196 0.151732,0.0949 0.170673,0.16732 0.04563,0.17449 0.191667,0.22394 0.310462,0.10515 0.116796,-0.1168 0.161533,-0.11837 0.387068,-0.0136 0.09723,0.0451 0.177013,0.1356 0.177295,0.201 3.91e-4,0.0972 0.04553,0.11518 0.246813,0.0985 0.198003,-0.0164 0.250425,-0.0494 0.267328,-0.16846 0.01261,-0.0888 -0.02024,-0.16391 -0.0821,-0.18765 -0.06518,-0.025 -0.103128,-0.12014 -0.103128,-0.25854 0,-0.12045 -0.03138,-0.23838 -0.06973,-0.26208 -0.03835,-0.0237 -0.09907,-0.10673 -0.134936,-0.1845 -0.139349,-0.30219 -0.295297,-0.54382 -0.468555,-0.72599 -0.215996,-0.22711 -0.214737,-0.20621 -0.04648,-0.77119 0.09802,-0.32913 0.164344,-0.45029 0.246301,-0.44991 0.146949,5.3e-4 0.279808,0.29422 0.234864,0.51894 -0.02323,0.11614 5.9e-5,0.20706 0.06733,0.26289 0.05656,0.0469 0.122028,0.23002 0.145484,0.40683 0.02426,0.18292 0.07667,0.32147 0.121605,0.32147 0.107276,0 0.258831,0.29645 0.212833,0.41632 -0.02043,0.0532 0.01998,0.14847 0.08979,0.21165 0.06981,0.0632 0.126931,0.18482 0.126931,0.27031 0,0.10205 0.05639,0.18111 0.164201,0.23024 0.168432,0.0767 0.215236,0.21147 0.09852,0.28361 -0.202669,0.12525 0.0256,0.44228 0.27205,0.37783 0.09054,-0.0236 0.122032,0.004 0.122032,0.10711 0,0.15053 0.03451,0.15806 0.640382,0.13986 0.308389,-0.009 0.344822,0.004 0.344822,0.12576 0,0.17267 0.141543,0.17495 0.295561,0.005 0.155299,-0.1716 0.250236,-0.1676 0.194439,0.008 -0.07672,0.24174 0.276386,0.35136 0.47903,0.14872 0.09729,-0.0973 0.112034,-0.0973 0.183171,0 0.108542,0.14844 0.190857,0.13202 0.292765,-0.0584 0.133539,-0.24952 0.219584,-0.20018 0.171819,0.0985 -0.03226,0.20177 -0.02061,0.26272 0.05026,0.26272 0.05075,0 0.109823,-0.0458 0.131279,-0.10166 0.0294,-0.0766 0.09399,-0.0913 0.262226,-0.0598 0.135697,0.0255 0.240733,0.0135 0.26789,-0.0304 0.03113,-0.0504 0.08762,-0.0422 0.186337,0.0269 0.07802,0.0546 0.28159,0.0992 0.45314,0.0992 0.244255,0 0.326648,-0.0283 0.381778,-0.13136 0.0827,-0.15453 0.197041,-0.17358 0.197041,-0.0328 0,0.14818 0.232752,0.11909 0.525441,-0.0657 0.143061,-0.0903 0.317543,-0.1642 0.387738,-0.1642 0.261073,0 0.765492,-0.55296 0.598543,-0.65614 -0.101956,-0.063 -0.154167,-0.82254 -0.06766,-0.98419 0.04637,-0.0866 0.04507,-0.13859 -0.0042,-0.16906 -0.03915,-0.0242 -0.124958,-0.13242 -0.190686,-0.2405 -0.113093,-0.18597 -0.121855,-0.18911 -0.163303,-0.0585 -0.02409,0.0759 -0.07875,0.13729 -0.121473,0.13643 -0.256228,-0.005 -0.598934,-0.14153 -0.741035,-0.29486 -0.152545,-0.1646 -0.172968,-0.16982 -0.28118,-0.0719 -0.160727,0.14545 -0.242431,0.13417 -0.593841,-0.0821 -0.416363,-0.25619 -0.910739,-0.46914 -1.089134,-0.46914 -0.08129,0 -0.184928,-0.0447 -0.230295,-0.0994 -0.04536,-0.0547 -0.115486,-0.0955 -0.155822,-0.0907 -0.04034,0.005 -0.199684,0.005 -0.354105,10e-4 -0.235512,-0.007 -0.29083,-0.0343 -0.343196,-0.17199 -0.04685,-0.12322 -0.110123,-0.16419 -0.253542,-0.16419 -0.127207,0 -0.224368,-0.0508 -0.290565,-0.15179 -0.0821,-0.12531 -0.142783,-0.14673 -0.347783,-0.1228 -0.146524,0.0171 -0.330991,-0.012 -0.449963,-0.0711 -0.110898,-0.055 -0.299084,-0.13695 -0.418192,-0.18202 -0.119608,-0.0453 -0.260032,-0.16603 -0.313667,-0.26975 -0.08825,-0.17065 -0.128783,-0.18779 -0.444112,-0.18779 -0.190851,0 -0.400494,-0.0391 -0.465874,-0.0869 -0.104955,-0.0768 -0.108348,-0.10559 -0.02898,-0.2463 0.04944,-0.0877 0.116775,-0.17882 0.149624,-0.20257 0.0678,-0.049 0.249194,0.005 0.307581,0.0912 0.06281,0.093 1.701623,0.15124 1.701623,0.0605 0,-0.0416 -0.07333,-0.0757 -0.16295,-0.0757 -0.120934,0 -0.171739,-0.0423 -0.19704,-0.1642 -0.01875,-0.0903 -0.04943,-0.23809 -0.06818,-0.32841 -0.01875,-0.0903 -0.07652,-0.16419 -0.128385,-0.16419 -0.105245,0 -0.204323,-0.39633 -0.140595,-0.5624 0.07435,-0.19376 0.309703,-0.0803 0.403767,0.19459 0.0482,0.14088 0.113923,0.27388 0.146044,0.29556 0.03212,0.0217 0.07749,0.0911 0.100811,0.15434 0.02489,0.0675 0.110157,0.11495 0.206359,0.11495 0.09673,0 0.192776,0.0539 0.234253,0.13136 0.03867,0.0722 0.127616,0.13136 0.197665,0.13136 0.07509,0 0.169187,0.0809 0.229257,0.19704 0.05604,0.10837 0.145469,0.19704 0.198728,0.19704 0.110711,0 0.129573,0.10337 0.03008,0.16486 -0.111914,0.0692 -0.01484,0.1431 0.195771,0.14909 0.197817,0.006 0.199383,0.003 0.199383,-0.34427 0,-0.19246 -0.06345,-0.55254 -0.14101,-0.80019 -0.273227,-0.87245 -0.07422,-1.48649 0.345676,-1.06659 0.108387,0.10839 0.1317,0.1933 0.105892,0.38571 -0.0182,0.1357 -0.0089,0.28585 0.02063,0.33366 0.02955,0.0478 0.02273,0.14484 -0.01517,0.21566 -0.05601,0.10465 -0.04044,0.1502 0.08323,0.24349 0.139666,0.10535 0.145937,0.13493 0.07655,0.36103 -0.04946,0.16116 -0.05394,0.28671 -0.01297,0.36328 0.03444,0.0643 0.06262,0.23059 0.06262,0.36943 0,0.17484 0.04222,0.2886 0.137354,0.37005 0.09487,0.0812 0.125712,0.164 0.09972,0.26757 -0.05189,0.20675 0.01951,0.25427 0.202211,0.13456 0.166287,-0.10895 0.146954,-0.12453 0.248872,0.2006 0.05335,0.17017 0.217705,0.18138 0.431141,0.0294 0.21191,-0.1509 0.294894,-0.12621 0.337766,0.10046 0.02622,0.13863 0.118637,0.15069 0.496928,0.0649 0.189055,-0.0429 0.213461,-0.0325 0.213461,0.0911 0,0.096 0.0412,0.13958 0.132004,0.13958 0.0726,0 0.183436,0.0602 0.2463,0.13368 l 0.114298,0.13368 0.03465,-0.14523 c 0.04598,-0.19273 0.169668,-0.22698 0.213558,-0.0591 0.04144,0.15846 0.108043,0.16783 0.281099,0.0395 0.109112,-0.0809 0.115506,-0.11415 0.04434,-0.23067 -0.04574,-0.0749 -0.06781,-0.2023 -0.04906,-0.28314 0.01875,-0.0808 0.04424,-0.37712 0.05663,-0.6584 0.01704,-0.38668 2.6e-4,-0.52389 -0.06887,-0.56257 -0.07145,-0.04 -0.07617,-0.0912 -0.02163,-0.23467 0.04678,-0.12306 0.04881,-0.25943 0.0062,-0.41393 -0.04094,-0.14829 -0.04104,-0.34949 -2.6e-4,-0.56445 0.05258,-0.27726 0.04623,-0.34361 -0.03739,-0.3904 -0.122394,-0.0685 -0.06581,-0.1884 0.06519,-0.13813 0.183724,0.0705 0.237142,-0.0458 0.100719,-0.21918 -0.07288,-0.0927 -0.132517,-0.21197 -0.132517,-0.26516 0,-0.0613 -0.03813,-0.0821 -0.104306,-0.0567 -0.06637,0.0255 -0.164291,-0.0283 -0.269243,-0.14793 -0.157633,-0.17965 -0.184607,-0.18656 -0.60924,-0.15618 -0.290381,0.0208 -0.460122,0.006 -0.489957,-0.0421 -0.02513,-0.0406 -0.171275,-0.0739 -0.324797,-0.0739 -0.153523,0 -0.336504,-0.0433 -0.406626,-0.0963 -0.07996,-0.0604 -0.203665,-0.0828 -0.331783,-0.0601 -0.151233,0.0268 -0.214947,0.008 -0.245326,-0.0707 -0.03213,-0.0837 -0.06884,-0.0921 -0.169055,-0.0385 -0.07041,0.0377 -0.220003,0.0685 -0.33243,0.0685 -0.157648,0 -0.22997,-0.0446 -0.316117,-0.19463 -0.06144,-0.10705 -0.178288,-0.23027 -0.259667,-0.27382 -0.08138,-0.0435 -0.147962,-0.1055 -0.147962,-0.13765 0,-0.0321 -0.02982,-0.04 -0.06627,-0.0175 -0.109752,0.0678 -0.311378,-0.029 -0.347414,-0.16674 -0.02277,-0.0871 -0.08999,-0.12919 -0.206194,-0.12919 -0.356141,0 -0.30041,-0.46847 0.07436,-0.62506 0.25437,-0.10628 0.375071,-0.0461 0.299988,0.14955 -0.04176,0.10883 0.08915,0.21032 0.273197,0.21179 0.0694,5.3e-4 0.17926,0.0491 0.244124,0.10773 0.06487,0.0587 0.200195,0.10607 0.300733,0.10527 0.100539,-5.3e-4 0.249299,0.0598 0.330578,0.13459 0.136514,0.1257 0.147781,0.12699 0.147781,0.0169 0,-0.0655 -0.04868,-0.15474 -0.108177,-0.19825 -0.09931,-0.0726 -0.09503,-0.1136 0.05219,-0.49984 0.127058,-0.33336 0.192387,-0.42536 0.314538,-0.44295 0.145554,-0.0209 0.151807,-0.007 0.11187,0.24233 -0.02458,0.15371 -0.01472,0.28159 0.02352,0.30523 0.0362,0.0224 0.06877,0.16455 0.07237,0.31595 0.0096,0.40279 0.08095,0.60006 0.226215,0.62528 0.07066,0.0122 0.163458,0.0671 0.20621,0.12186 0.04275,0.0548 0.109253,0.0801 0.147781,0.0563 0.03853,-0.0238 0.106995,-0.0194 0.15215,0.01 0.083,0.0537 0.346184,0.0759 0.92444,0.0779 0.174294,5.3e-4 0.423449,0.0363 0.553679,0.0793 0.215481,0.0711 0.247374,0.0651 0.354527,-0.0673 0.1068,-0.1319 0.108476,-0.15956 0.01803,-0.29761 -0.06288,-0.096 -0.08377,-0.21573 -0.05655,-0.32419 0.05455,-0.21735 -0.06446,-0.36733 -0.29152,-0.3674 -0.104065,-3e-5 -0.274713,-0.091 -0.42984,-0.22901 -0.251528,-0.22387 -0.254595,-0.23192 -0.137601,-0.36119 0.15504,-0.17133 0.17321,-0.16847 0.400336,0.063 0.105361,0.10737 0.252157,0.19603 0.326212,0.19704 0.07405,10e-4 0.167536,0.0347 0.207738,0.0749 0.149967,0.14996 0.220933,-0.0125 0.190868,-0.43704 -0.03259,-0.46017 -0.06804,-0.55558 -0.206414,-0.55558 -0.05078,0 -0.123971,-0.0591 -0.162637,-0.13136 -0.03867,-0.0722 -0.12781,-0.13137 -0.1981,-0.13137 -0.08154,0 -0.142715,-0.0594 -0.16901,-0.16419 -0.02267,-0.0903 -0.06907,-0.16421 -0.103122,-0.16421 -0.03405,0 -0.106801,-0.10743 -0.161663,-0.23873 -0.05486,-0.13131 -0.156802,-0.32342 -0.22653,-0.42693 -0.06973,-0.1035 -0.186962,-0.2771 -0.26052,-0.38578 -0.113541,-0.16776 -0.123664,-0.23502 -0.06702,-0.44537 0.08203,-0.30464 0.223638,-0.5078 0.314715,-0.45151 0.03751,0.0232 0.08835,0.14956 0.112979,0.28084 0.04567,0.24342 0.06266,0.28823 0.25456,0.67118 0.0603,0.12033 0.109633,0.27643 0.109633,0.34689 0,0.0704 0.04434,0.14511 0.09852,0.1659 0.05419,0.0208 0.09852,0.0756 0.09852,0.12175 0,0.11825 0.31908,0.31372 0.437759,0.26818 0.0852,-0.0327 0.09354,-0.22481 0.06075,-1.4007 -0.0209,-0.74955 -0.0675,-1.50678 -0.103555,-1.68275 -0.07058,-0.34445 -0.02987,-0.76598 0.0894,-0.92572 0.04066,-0.0545 0.169983,-0.11788 0.287387,-0.14095 0.192613,-0.0378 0.2135,-0.0267 0.213866,0.11406 2.04e-4,0.0858 0.04456,0.24065 0.09852,0.34412 0.126923,0.24336 0.123678,0.33521 -0.01681,0.4757 -0.09951,0.0995 -0.111915,0.22125 -0.09249,0.90779 0.01234,0.43608 0.05241,0.82923 0.08905,0.87368 0.04522,0.0548 0.04093,0.26169 -0.01333,0.64402 -0.04398,0.30978 -0.06294,0.58023 -0.04216,0.60102 0.09069,0.0907 0.523997,-0.21149 0.758546,-0.52899 0.140615,-0.19034 0.347965,-0.43272 0.460778,-0.53863 0.112813,-0.1059 0.23521,-0.30338 0.271994,-0.43885 0.05542,-0.2041 0.09606,-0.2463 0.237198,-0.2463 0.16147,0 0.168443,0.014 0.134213,0.26918 -0.01986,0.14804 -0.094,0.33277 -0.164759,0.4105 -0.07076,0.0777 -0.164143,0.25216 -0.207518,0.38762 -0.04337,0.13547 -0.120535,0.2463 -0.171467,0.2463 -0.05093,0 -0.163141,0.11084 -0.249355,0.2463 -0.08621,0.13547 -0.279537,0.3202 -0.429607,0.41051 -0.150069,0.0903 -0.319288,0.1955 -0.376041,0.23377 -0.123907,0.0835 -0.238215,0.62555 -0.150858,0.7153 0.08114,0.0834 0.07762,0.41202 -0.0049,0.46305 -0.116817,0.0722 -0.06975,0.33452 0.08633,0.48115 0.08361,0.0786 0.165925,0.14281 0.182928,0.14281 0.017,0 0.189447,-0.22167 0.383209,-0.4926 0.193763,-0.27093 0.39729,-0.4926 0.452283,-0.4926 0.05499,0 0.152177,-0.0472 0.215962,-0.10496 0.06379,-0.0577 0.147392,-0.0855 0.185793,-0.0618 0.09788,0.0605 0.08692,0.39398 -0.02119,0.64505 -0.07903,0.18353 -0.187566,0.31208 -0.640838,0.75903 -0.04903,0.0484 -0.166126,0.16657 -0.260201,0.26272 -0.09408,0.0961 -0.246108,0.23628 -0.33785,0.31141 -0.124262,0.10176 -0.158512,0.17999 -0.134286,0.30672 0.03218,0.16836 0.03522,0.16917 0.29293,0.0782 0.143226,-0.0506 0.347274,-0.15373 0.453443,-0.22933 0.106168,-0.0756 0.32004,-0.14594 0.475271,-0.15632 0.314211,-0.021 0.537995,-0.12026 0.736168,-0.32652 0.07281,-0.0758 0.274684,-0.25526 0.448605,-0.39883 0.26476,-0.21856 0.31065,-0.28888 0.282,-0.43213 -0.03208,-0.16042 0.05731,-0.51748 0.175881,-0.70254 0.07336,-0.11449 0.242011,-0.10235 0.385807,0.0278 0.113949,0.10312 0.137482,0.10086 0.382557,-0.0369 0.143627,-0.0807 0.29073,-0.12848 0.326897,-0.10612 0.09407,0.0581 -0.197384,0.5559 -0.374679,0.6399 -0.0799,0.0379 -0.221525,0.18406 -0.314721,0.32488 l -0.169449,0.25606 0.249042,-0.12498 c 0.136972,-0.0687 0.286074,-0.11181 0.331336,-0.0957 0.04526,0.0161 0.206256,-0.0619 0.357761,-0.17332 0.151506,-0.11142 0.309913,-0.20258 0.352015,-0.20258 0.0421,0 0.188124,-0.0887 0.324493,-0.19704 0.13637,-0.10837 0.276164,-0.19704 0.310653,-0.19704 0.03449,0 0.13786,-0.0591 0.229708,-0.13136 0.236875,-0.18633 0.412004,-0.17237 0.412004,0.0328 0,0.1319 -0.0327,0.1642 -0.166263,0.1642 -0.09144,0 -0.18104,0.0385 -0.199101,0.0856 -0.01806,0.0471 -0.19775,0.20224 -0.399306,0.34483 -0.201556,0.14258 -0.448732,0.32574 -0.549282,0.40702 -0.100549,0.0813 -0.226209,0.14778 -0.279245,0.14778 -0.05303,0 -0.208002,0.0887 -0.344371,0.19704 -0.136369,0.10837 -0.30811,0.19704 -0.381647,0.19704 -0.07354,0 -0.408061,0.13258 -0.743387,0.29462 -0.335326,0.16203 -0.654105,0.27756 -0.708396,0.25673 -0.0568,-0.0218 -0.295745,0.0943 -0.562789,0.27348 -0.399619,0.26812 -0.485218,0.30173 -0.616303,0.24201 -0.08373,-0.0381 -0.19116,-0.0453 -0.238743,-0.0159 -0.04758,0.0294 -0.121344,0.0401 -0.16391,0.0238 -0.04256,-0.0163 -0.168798,0.0638 -0.280514,0.17806 -0.175232,0.17923 -0.194229,0.23114 -0.138364,0.37807 0.04624,0.12163 0.04063,0.2154 -0.01962,0.32798 -0.07962,0.14877 -0.06123,0.17852 0.32625,0.52796 0.225843,0.20367 0.409945,0.39247 0.409116,0.41957 -0.0031,0.0998 -0.127974,0.043 -0.468461,-0.21281 -0.37794,-0.28398 -0.536475,-0.26989 -0.39741,0.0353 0.04283,0.094 0.06177,0.19695 0.0421,0.22878 -0.01967,0.0318 0.03906,0.10691 0.130525,0.16683 0.174338,0.11423 0.218749,0.26247 0.09136,0.30493 -0.09326,0.0311 -0.145231,0.44573 -0.05587,0.44573 0.08427,0 0.08492,0.24273 7.95e-4,0.29473 -0.04048,0.025 -0.0344,0.0888 0.01642,0.17208 0.06748,0.11057 0.06162,0.14651 -0.03564,0.21872 -0.09482,0.0704 -0.103949,0.11915 -0.04926,0.263 0.03693,0.0971 0.06714,0.27636 0.06714,0.39831 0,0.28653 0.07441,0.32603 0.291908,0.15494 l 0.175986,-0.13842 0.03682,0.14079 c 0.03198,0.12229 0.06813,0.13514 0.275075,0.0978 0.309258,-0.0558 0.313762,-0.0632 0.102751,-0.16741 -0.09807,-0.0484 -0.175114,-0.11762 -0.17122,-0.15375 0.01256,-0.11649 0.366153,-0.1139 0.585754,0.004 0.198762,0.10696 0.221567,0.10737 0.333573,0.006 0.06612,-0.0598 0.152076,-0.1088 0.191005,-0.1088 0.03893,0 0.05619,-0.0558 0.03837,-0.12395 -0.04497,-0.17197 0.09481,-0.23891 0.234642,-0.11237 0.167232,0.15134 0.302631,0.12988 0.477454,-0.0757 0.08449,-0.0994 0.234898,-0.23303 0.334239,-0.29708 0.213604,-0.13772 0.230101,-0.28106 0.04964,-0.4313 -0.08881,-0.0739 -0.112277,-0.13826 -0.07289,-0.19978 0.04906,-0.0766 0.105647,-0.0745 0.363837,0.0135 0.293101,0.0999 0.311273,0.0986 0.439434,-0.0295 0.125654,-0.12565 0.126846,-0.13869 0.01983,-0.21694 -0.125593,-0.0918 -0.07722,-0.23454 0.0795,-0.23454 0.07786,0 0.08984,-0.0456 0.0544,-0.20698 l -0.04546,-0.20699 0.299104,0.041 c 0.348199,0.0477 0.347638,0.0487 0.364213,-0.624 0.0059,-0.24128 -0.01931,-0.4573 -0.05613,-0.48006 -0.17608,-0.10882 0.02994,-0.93557 0.216054,-0.86702 0.04304,0.0159 0.07056,0.063 0.06117,0.1047 -0.0094,0.0417 0.02755,0.16218 0.0821,0.26767 0.05455,0.10548 0.09918,0.26715 0.09918,0.35925 0,0.1686 0.08887,0.22368 0.1642,0.10178 0.02233,-0.0361 0.08647,-0.0657 0.142548,-0.0657 0.08182,0 0.09304,0.0475 0.05679,0.24072 l -0.04516,0.24072 0.1669,-0.10936 c 0.242209,-0.1587 0.292559,-0.13764 0.315335,0.13187 0.02491,0.2948 0.134756,0.3473 0.240595,0.11501 0.06461,-0.14178 0.108562,-0.1651 0.246196,-0.13056 0.13054,0.0328 0.196515,0.005 0.298682,-0.12465 0.07212,-0.0917 0.173318,-0.16671 0.224883,-0.16671 0.159851,0 0.103276,0.26129 -0.0968,0.44705 -0.104803,0.0973 -0.201062,0.23498 -0.213912,0.30595 -0.01538,0.0849 -0.1018,0.1478 -0.252794,0.18393 -0.126186,0.0302 -0.31352,0.0815 -0.416299,0.11392 -0.121756,0.0385 -0.226942,0.034 -0.301873,-0.0128 -0.09387,-0.0586 -0.212692,-0.008 -0.646779,0.27454 -0.564711,0.36781 -0.606354,0.41989 -0.643252,0.80433 -0.03316,0.34543 0.136846,0.43182 0.492619,0.25031 0.142559,-0.0727 0.27723,-0.16141 0.299268,-0.19707 0.05718,-0.0925 0.541459,-0.21537 0.887552,-0.22515 0.214453,-0.006 0.300301,-0.0372 0.315136,-0.1142 0.01121,-0.0582 0.0767,-0.13192 0.145512,-0.16376 0.282617,-0.13075 0.920282,-0.72794 1.024819,-0.95975 0.06139,-0.13615 0.141246,-0.24755 0.177448,-0.24755 0.07619,0 0.483211,-0.45966 0.656482,-0.74139 0.229521,-0.37317 0.74074,-0.83493 0.924372,-0.83493 0.154957,0 0.165063,0.0136 0.09442,0.12668 -0.04351,0.0697 -0.147212,0.15771 -0.230438,0.19564 -0.08323,0.0379 -0.151319,0.12416 -0.151319,0.19164 0,0.0675 -0.105627,0.23145 -0.234722,0.36438 -0.194206,0.19996 -0.227624,0.27398 -0.193607,0.42887 0.0393,0.17893 -0.08514,0.40047 -0.224956,0.40047 -0.02903,0 -0.06918,0.0813 -0.08923,0.18063 -0.02005,0.0993 -0.05814,0.23671 -0.08464,0.30527 -0.04248,0.10987 -0.0255,0.11956 0.14318,0.0816 0.105258,-0.0237 0.324379,-0.0536 0.486936,-0.0664 0.16256,-0.0129 0.54013,-0.11213 0.839048,-0.22052 0.298916,-0.10841 0.5589,-0.17216 0.57774,-0.14167 0.106867,0.17291 -0.365534,0.49864 -0.595302,0.41047 -0.05189,-0.0199 -0.18123,0.0257 -0.287431,0.1013 -0.1062,0.0756 -0.262418,0.13794 -0.347152,0.13849 -0.269189,0.002 -0.340347,0.0906 -0.28955,0.36134 0.0628,0.33474 -0.06051,0.62286 -0.266561,0.62286 -0.176227,0 -0.224649,-0.22241 -0.06201,-0.28482 0.05182,-0.0199 0.126822,-0.0971 0.166665,-0.17151 0.06137,-0.11467 0.0492,-0.14595 -0.07964,-0.20465 -0.12481,-0.0569 -0.226908,-0.0321 -0.569498,0.13782 -0.290942,0.14435 -0.479452,0.19797 -0.622133,0.17694 -0.141947,-0.0209 -0.305392,0.025 -0.53311,0.14969 -0.18062,0.0989 -0.505737,0.24667 -0.722482,0.32834 -0.216746,0.0817 -0.453195,0.17176 -0.525442,0.2002 -0.07225,0.0284 -0.322181,0.069 -0.555408,0.0901 -0.233225,0.0212 -0.453418,0.0678 -0.489318,0.1037 -0.0359,0.0359 -0.187782,0.0653 -0.337517,0.0653 -0.185401,0 -0.308786,0.0404 -0.386795,0.12657 -0.063,0.0696 -0.233944,0.14675 -0.379871,0.1714 -0.145927,0.0247 -0.36501,0.10364 -0.486851,0.17553 -0.121842,0.0719 -0.317542,0.14139 -0.434892,0.15446 -0.117349,0.0131 -0.365372,0.0657 -0.55116,0.11702 -0.185789,0.0513 -0.430058,0.0825 -0.54282,0.0694 -0.189606,-0.0221 -0.201936,-0.0116 -0.163984,0.13964 0.02544,0.10137 8.49e-4,0.22485 -0.06472,0.32492 -0.141891,0.21655 -0.136271,0.23171 0.08591,0.23171 0.275156,0 0.399454,0.0623 0.399454,0.20019 0,0.307 0.255383,0.14973 0.290415,-0.17884 0.02803,-0.26287 0.125551,-0.22991 0.198929,0.0672 0.05934,0.24027 0.07309,0.25103 0.278267,0.21773 0.15627,-0.0254 0.232114,-0.006 0.274785,0.0703 0.05932,0.10601 0.40257,0.16478 0.40257,0.0689 0,-0.0927 0.182066,-0.0538 0.220793,0.0471 0.05337,0.13908 0.151755,0.12228 0.19232,-0.0328 0.0402,-0.15372 0.230823,-0.17564 0.285618,-0.0328 0.02079,0.0542 0.07898,0.0985 0.1293,0.0985 0.05032,0 0.09149,0.0443 0.09149,0.0985 0,0.10552 0.07812,0.12972 0.158951,0.0493 0.02721,-0.0271 0.142334,-0.0493 0.255816,-0.0493 0.166157,0 0.237526,-0.0479 0.366548,-0.24631 0.103972,-0.15983 0.210297,-0.2463 0.30287,-0.2463 0.08843,0 0.171095,-0.0624 0.21747,-0.1642 0.08295,-0.18205 0.208991,-0.22027 0.208991,-0.0634 0,0.14537 0.168189,0.0408 0.525442,-0.32672 0.312351,-0.32131 0.650001,-0.56227 0.787891,-0.56227 0.05998,0 0.07099,0.0735 0.04002,0.26715 -0.04561,0.28522 -0.30758,0.58089 -0.517995,0.58461 -0.135823,0.003 -0.240119,0.21144 -0.124695,0.24992 0.04262,0.0142 0.0775,0.0677 0.0775,0.11887 0,0.24433 0.457581,-0.0867 0.719712,-0.5207 0.08389,-0.13888 0.224334,-0.33099 0.312107,-0.42692 0.08778,-0.0959 0.20186,-0.22123 0.253527,-0.27844 0.05166,-0.0572 0.09394,-0.17851 0.09394,-0.26956 0,-0.091 0.0665,-0.23964 0.14778,-0.33023 0.08128,-0.0906 0.178783,-0.21771 0.216675,-0.28248 0.0652,-0.11144 0.07804,-0.11177 0.239366,-0.006 0.216543,0.14189 0.180254,0.30583 -0.118059,0.53337 -0.122473,0.0934 -0.281793,0.29961 -0.354045,0.45822 -0.07225,0.1586 -0.161006,0.30668 -0.197225,0.32907 -0.105343,0.0651 -0.08242,0.38176 0.02466,0.34067 0.04978,-0.0191 0.122421,-0.003 0.161416,0.0362 0.09558,0.0956 0.273509,-0.0529 0.273509,-0.22821 0,-0.072 0.165318,-0.30952 0.367373,-0.52777 0.202054,-0.21824 0.398913,-0.46603 0.437463,-0.55064 0.03855,-0.0846 0.09915,-0.15383 0.134665,-0.15383 0.063,0 0.334741,-0.23439 0.714817,-0.61656 0.224041,-0.22528 0.281596,-0.19423 0.222626,0.12009 -0.04387,0.23388 -0.191124,0.36476 -0.41124,0.36552 -0.06559,1.9e-4 -0.168997,0.0878 -0.229791,0.19469 -0.06079,0.10684 -0.182386,0.21229 -0.270207,0.23434 -0.114723,0.0288 -0.181442,0.11273 -0.237004,0.29818 -0.04253,0.14196 -0.15,0.30572 -0.238815,0.36392 -0.169896,0.11132 -0.212745,0.25971 -0.08709,0.30159 0.120725,0.0403 0.0039,0.28774 -0.174179,0.36886 -0.331474,0.15103 -0.113589,0.50432 0.247214,0.40085 0.285153,-0.0818 0.314615,-0.0778 0.270615,0.0369 -0.05478,0.14277 0.173922,0.2126 0.250152,0.0764 0.07113,-0.12711 0.358024,-0.14607 0.401844,-0.0266 0.02408,0.0657 0.04751,0.0657 0.117129,0 0.245148,-0.23127 0.41786,0.0388 0.184004,0.28778 -0.146311,0.15574 -0.148888,0.17142 -0.04115,0.25019 0.189613,0.13866 0.133627,0.23377 -0.1376,0.23377 -0.16865,0 -0.29181,-0.0434 -0.370749,-0.13062 -0.09437,-0.10427 -0.169057,-0.12248 -0.370391,-0.0903 -0.177476,0.0284 -0.300446,0.009 -0.415104,-0.0664 -0.08961,-0.0587 -0.221398,-0.10675 -0.292867,-0.10675 -0.07147,0 -0.173136,-0.0617 -0.225924,-0.13703 -0.07861,-0.11223 -0.120098,-0.12411 -0.229288,-0.0657 -0.167311,0.0895 -0.536029,0.0934 -0.536029,0.006 0,-0.14846 -0.210298,-0.0507 -0.330981,0.15382 -0.160844,0.27261 -0.401284,0.38806 -0.693878,0.33317 -0.181183,-0.034 -0.223066,-0.0213 -0.223066,0.0677 0,0.0681 -0.118072,0.16021 -0.311981,0.24347 -0.171589,0.0737 -0.430204,0.18876 -0.574702,0.25577 -0.144496,0.067 -0.464434,0.13762 -0.710971,0.15694 -0.28404,0.0223 -0.51262,0.0802 -0.623963,0.15807 -0.09664,0.0676 -0.308715,0.14457 -0.471273,0.17099 -0.813748,0.13224 -1.101729,0.1737 -1.295808,0.18656 -0.134387,0.009 -0.250044,0.0682 -0.315705,0.16184 -0.122115,0.17415 -0.327036,0.19304 -0.413722,0.0381 -0.05212,-0.0931 -0.08968,-0.0979 -0.249564,-0.0314 -0.153733,0.0639 -0.189094,0.11957 -0.193032,0.3041 -0.0028,0.13065 0.03183,0.23998 0.0821,0.25927 0.0478,0.0183 0.08692,0.0818 0.08692,0.14105 0,0.083 0.0389,0.0979 0.169514,0.0652 0.137913,-0.0346 0.165399,-0.0212 0.147436,0.0721 -0.01214,0.0631 -0.09581,0.13272 -0.185934,0.15482 l -0.163856,0.0401 0.213461,0.11218 c 0.117403,0.0617 0.21346,0.13963 0.21346,0.17319 0,0.0336 0.107405,0.0812 0.238677,0.10579 0.187286,0.0351 0.252065,0.0208 0.300863,-0.0663 0.04896,-0.0875 0.08201,-0.0947 0.155405,-0.0337 0.05127,0.0425 0.09322,0.12924 0.09322,0.19264 0,0.0634 0.03951,0.14807 0.0878,0.18815 0.06737,0.0559 0.169456,0.0119 0.438784,-0.189 0.19304,-0.14403 0.374441,-0.26187 0.403113,-0.26187 0.02867,0 0.09798,-0.0887 0.154025,-0.19704 0.106876,-0.20668 0.295562,-0.26849 0.295562,-0.0968 0,0.0894 0.02116,0.0893 0.197041,-0.002 0.109394,-0.0566 0.19704,-0.15505 0.19704,-0.22139 0,-0.17721 0.19381,-0.31395 0.513856,-0.36255 0.298194,-0.0453 0.309392,-0.0166 0.09233,0.23647 -0.116503,0.13583 -0.06067,0.42693 0.08776,0.4576 0.157255,0.0325 -0.133347,0.31679 -0.323816,0.31679 -0.08261,0 -0.219609,0.0739 -0.304451,0.1642 -0.117797,0.12539 -0.220499,0.1642 -0.434495,0.1642 -0.344963,0 -0.431411,0.10216 -0.133709,0.15801 0.153446,0.0288 0.349926,-0.008 0.657728,-0.12417 0.513574,-0.1933 0.507917,-0.19241 0.461977,-0.0727 -0.01952,0.0509 -0.122043,0.12836 -0.22782,0.17217 -0.105776,0.0438 -0.192321,0.12358 -0.192321,0.17724 0,0.0678 0.03512,0.0827 0.11494,0.0487 0.06322,-0.0269 0.255368,-0.0539 0.427001,-0.0601 0.234547,-0.008 0.387247,-0.0642 0.614757,-0.2246 0.166484,-0.11734 0.320832,-0.19522 0.342995,-0.17306 0.05556,0.0556 -0.131075,0.37109 -0.251769,0.42566 -0.05419,0.0245 -0.222232,0.10848 -0.373438,0.18664 -0.243788,0.126 -0.286022,0.13099 -0.37297,0.044 -0.111359,-0.11136 -0.238795,-0.12953 -0.238795,-0.034 0,0.0987 -0.372784,0.26845 -0.490399,0.22332 -0.06714,-0.0258 -0.09058,-0.0844 -0.06541,-0.16373 0.04754,-0.14979 0.04402,-0.15003 -0.270907,-0.0185 -0.240785,0.1006 -0.256352,0.0993 -0.360893,-0.0298 -0.09681,-0.11955 -0.123296,-0.12428 -0.232563,-0.0415 -0.07128,0.054 -0.08867,0.0943 -0.04121,0.0955 0.04516,10e-4 0.0821,0.0555 0.0821,0.12089 0,0.0653 0.04001,0.17352 0.08891,0.2404 0.086,0.1176 0.09884,0.11677 0.392283,-0.0253 0.307933,-0.14907 0.438335,-0.13979 0.438335,0.0312 0,0.0641 0.07309,0.0946 0.226617,0.0946 0.12464,0 0.250253,0.0376 0.279141,0.0835 0.02889,0.0459 0.132789,0.11871 0.230889,0.16176 0.146736,0.0644 0.196236,0.0604 0.279141,-0.0225 0.05543,-0.0554 0.100777,-0.12996 0.100777,-0.16562 0,-0.0356 0.09361,-0.18133 0.208033,-0.32371 0.176923,-0.22016 0.245677,-0.25887 0.459761,-0.25887 0.276688,0 0.550665,-0.20498 0.488948,-0.3658 -0.07742,-0.20176 0.460666,-0.32675 1.287787,-0.29916 0.307505,0.0103 0.276752,0.17305 -0.04972,0.26319 -0.269468,0.0744 -0.687119,0.38422 -0.687119,0.50971 0,0.0508 -0.0665,0.11778 -0.147781,0.14887 -0.209125,0.08 -0.400542,0.31131 -0.355252,0.42933 0.02947,0.0768 0.107244,0.0918 0.336366,0.0649 0.186562,-0.022 0.298027,-0.009 0.298027,0.0339 0,0.0379 0.08374,0.0689 0.186094,0.0689 0.235542,0 0.286085,0.0511 0.203365,0.20568 -0.05088,0.0951 -0.04296,0.12273 0.03515,0.12273 0.17062,0 0.111494,0.18253 -0.07979,0.24633 -0.138384,0.0461 -0.257417,0.0266 -0.509023,-0.0835 -0.348604,-0.15256 -0.459897,-0.14588 -0.621684,0.0373 -0.102039,0.11555 -0.850537,0.39091 -1.062623,0.39091 -0.140869,0 -0.616056,0.31558 -0.857997,0.5698 -0.221435,0.23269 -0.164182,0.41514 0.08736,0.27841 0.08587,-0.0467 0.270493,-0.0912 0.410267,-0.0989 0.201415,-0.0111 0.260909,0.0119 0.286801,0.11093 0.0394,0.15067 0.08404,0.1537 0.38872,0.0264 0.129686,-0.0542 0.313463,-0.0987 0.408392,-0.0989 0.09493,-1.8e-4 0.253879,-0.0428 0.35322,-0.0946 0.200672,-0.10467 0.231489,-0.0778 0.0821,0.0716 -0.1046,0.1046 -0.136966,0.25201 -0.04252,0.19364 0.106198,-0.0656 0.281939,0.12261 0.233152,0.24974 -0.04203,0.10952 -0.09997,0.11671 -0.615663,0.0764 -0.397651,-0.0311 -0.622888,-0.0201 -0.747126,0.0365 -0.136047,0.062 -0.195964,0.0629 -0.254891,0.004 -0.09881,-0.0988 -0.932106,-0.10114 -1.122385,-0.003 -0.0789,0.0406 -0.208059,0.13267 -0.28701,0.20451 -0.07895,0.0719 -0.226733,0.13716 -0.328402,0.14514 -0.444658,0.0349 -1.263407,0.57197 -1.184687,0.77711 0.01992,0.0519 0.16323,0.11468 0.318473,0.1395 0.268142,0.0429 0.292976,0.0327 0.496566,-0.20416 0.176929,-0.20582 0.225578,-0.23221 0.278918,-0.15133 0.0412,0.0625 0.04181,0.12078 0.0016,0.16092 -0.09262,0.0926 -0.0766,0.29939 0.02319,0.29939 0.04737,0 0.151493,-0.0609 0.231375,-0.13531 0.09158,-0.0853 0.19174,-0.12055 0.271106,-0.0954 0.08645,0.0274 0.148408,-0.002 0.197857,-0.0946 0.114359,-0.21368 0.19873,-0.15709 0.19873,0.13329 v 0.2678 l 0.361241,-0.30862 c 0.314941,-0.26906 0.361242,-0.29076 0.361242,-0.16928 0,0.24039 0.112601,0.15166 0.156582,-0.12338 0.0231,-0.14449 0.07122,-0.26272 0.106915,-0.26272 0.07267,0 0.08376,0.0649 0.06586,0.38538 -0.01205,0.21571 -0.0088,0.21866 0.132852,0.11947 0.171201,-0.11992 0.391632,-0.0255 0.391632,0.16775 0,0.18584 0.151946,0.13444 0.422909,-0.14305 0.13889,-0.14224 0.337003,-0.2936 0.440251,-0.33637 0.143743,-0.0595 0.187724,-0.12115 0.187724,-0.26296 0,-0.25937 0.08872,-0.28602 0.315901,-0.0949 0.175473,0.14765 0.406583,0.22125 0.406583,0.12949 0,-0.0194 -0.04308,-0.1009 -0.09573,-0.18126 -0.134301,-0.20497 -0.02969,-0.37641 0.158516,-0.25977 0.07286,0.0451 0.193026,0.0821 0.267037,0.0821 0.117738,0 0.125022,-0.0178 0.05826,-0.14258 -0.06323,-0.11816 -0.05586,-0.15754 0.04308,-0.22988 0.06566,-0.048 0.196499,-0.0873 0.290741,-0.0873 0.09424,0 0.208405,-0.0369 0.253692,-0.0821 0.04528,-0.0451 0.175203,-0.0821 0.288706,-0.0821 0.155719,0 0.215302,-0.0345 0.242777,-0.14053 0.02003,-0.0773 0.168426,-0.34997 0.329777,-0.60597 0.316538,-0.50222 0.500375,-0.65513 0.446062,-0.37101 -0.02651,0.13869 -0.0067,0.16514 0.123523,0.16514 0.19735,0 0.197249,0.0984 -1.86e-4,0.28228 -0.128612,0.11972 -0.142757,0.16728 -0.0821,0.276 0.04031,0.0722 0.07814,0.14115 0.08408,0.1531 0.0059,0.0119 0.07064,-0.0103 0.143795,-0.0494 0.206548,-0.11054 0.227735,0.0254 0.03893,0.24979 -0.09925,0.11795 -0.258826,0.21729 -0.387963,0.24152 -0.12065,0.0226 -0.281231,0.1123 -0.356848,0.19927 -0.07562,0.087 -0.208064,0.15812 -0.294325,0.15812 -0.10148,0 -0.217548,0.0796 -0.328836,0.2255 -0.212807,0.27901 -0.213051,0.29994 -0.0035,0.29994 0.217241,0 0.422605,-0.11068 0.422605,-0.22776 0,-0.10367 0.226803,-0.19627 0.327813,-0.13384 0.03645,0.0225 0.06627,0.0835 0.06627,0.1356 0,0.12711 0.02837,0.12108 0.31339,-0.0667 0.134692,-0.0887 0.377896,-0.18151 0.540454,-0.20618 0.162559,-0.0247 0.376293,-0.0856 0.474966,-0.13529 0.162733,-0.082 0.187089,-0.0781 0.262099,0.0419 0.04549,0.0728 0.11676,0.13242 0.158392,0.13242 0.12538,0 0.156742,0.18634 0.04943,0.29366 -0.05523,0.0552 -0.132713,0.10042 -0.17218,0.10042 -0.163321,0 -0.57741,0.23044 -0.612446,0.34083 -0.0402,0.12665 -0.05059,0.1303 -0.455818,0.16018 -0.524548,0.0387 -0.920866,0.10413 -0.981918,0.16216 -0.08702,0.0827 -0.323494,0.0741 -0.412656,-0.0151 -0.04092,-0.0409 -0.125969,-0.0546 -0.188997,-0.0304 -0.200736,0.077 0.04126,0.23556 0.489652,0.32078 0.242938,0.0461 0.404278,0.11014 0.404278,0.16032 0,0.0476 0.07893,0.0835 0.183905,0.0835 0.101146,0 0.218673,0.0348 0.261168,0.0773 0.05923,0.0592 0.105659,0.0516 0.198928,-0.0328 0.16383,-0.14826 0.232631,-0.13866 0.189453,0.0264 -0.02815,0.10766 -0.0124,0.12748 0.07444,0.0937 0.162305,-0.0632 0.160919,-0.0633 0.355187,0.031 0.195883,0.0951 0.273695,0.25105 0.209185,0.41917 -0.04699,0.12245 -0.228919,0.1426 -0.334488,0.037 -0.05053,-0.0505 -0.149767,-0.047 -0.347384,0.0121 -0.196851,0.059 -0.308508,0.063 -0.387108,0.0139 -0.06099,-0.0381 -0.297853,-0.0565 -0.528858,-0.0411 -0.39333,0.0263 -0.430632,0.0161 -0.622595,-0.16919 -0.161591,-0.15598 -0.272722,-0.20133 -0.5326,-0.21737 -0.283199,-0.0175 -0.331291,-0.0406 -0.34939,-0.16805 -0.0162,-0.11407 -0.06401,-0.14777 -0.209583,-0.14777 -0.103728,0 -0.206865,0.0295 -0.22919,0.0657 -0.05644,0.0913 -0.383987,0.0824 -0.479466,-0.0131 -0.04335,-0.0433 -0.07882,-0.13202 -0.07882,-0.19704 0,-0.15424 -0.02861,-0.14933 -0.214835,0.0369 -0.159372,0.15937 -0.819527,0.29751 -0.971857,0.20336 -0.03983,-0.0246 -0.173681,0.01 -0.297447,0.0764 -0.179995,0.0969 -0.249663,0.1058 -0.348103,0.0443 -0.09538,-0.0596 -0.191768,-0.0562 -0.428405,0.015 -0.22526,0.0678 -0.352118,0.0739 -0.483729,0.0234 -0.211297,-0.0811 -0.632797,-0.0265 -0.822629,0.10646 -0.170352,0.11932 -0.308992,0.0213 -0.259141,-0.18328 0.03283,-0.13471 0.02057,-0.13148 -0.167339,0.0441 -0.199065,0.18596 -0.212312,0.18859 -0.725527,0.14382 -0.287518,-0.0251 -0.538433,-0.0203 -0.557591,0.0108 -0.04876,0.0789 0.03138,0.18218 0.186382,0.24018 0.126958,0.0475 0.127288,0.0521 0.0099,0.1386 -0.144784,0.10659 -0.436794,0.006 -0.436794,-0.15024 0,-0.0779 -0.01859,-0.0806 -0.09852,-0.0143 -0.127035,0.10543 -0.127035,0.26272 0,0.26272 0.05419,0 0.157633,0.0591 0.229881,0.13136 0.07225,0.0722 0.160917,0.13137 0.197041,0.13137 0.113831,0 0.07113,0.18611 -0.04926,0.21472 -0.08924,0.0212 -0.07261,0.0447 0.07435,0.10501 0.104113,0.0428 0.244505,0.0602 0.311982,0.0388 0.103658,-0.0329 0.122685,-0.004 0.122685,0.18834 0,0.2807 0.151058,0.35976 0.299001,0.15648 0.101913,-0.14002 0.104807,-0.13444 0.08384,0.16168 -0.02125,0.30027 -0.01723,0.30751 0.191803,0.34483 0.648103,0.11569 0.673277,0.11711 0.673277,0.038 0,-0.0557 0.06859,-0.0673 0.224759,-0.038 0.145047,0.0272 0.241989,0.0143 0.27334,-0.0364 0.03348,-0.0542 0.09757,-0.0191 0.206231,0.11293 l 0.15765,0.19153 0.102463,-0.14778 c 0.115009,-0.16591 0.283458,-0.19752 0.283458,-0.0532 0,0.13967 0.303376,0.0953 0.422014,-0.0617 0.09784,-0.1295 0.09928,-0.12921 0.101339,0.0203 0.0014,0.10041 0.02856,0.1353 0.08042,0.10326 0.04308,-0.0266 0.242586,-0.055 0.443342,-0.063 0.200757,-0.008 0.385214,-0.0176 0.409909,-0.0212 0.0247,-0.004 0.05425,-0.0878 0.06568,-0.18714 0.03486,-0.30294 0.211929,-0.22404 0.257949,0.11494 0.02207,0.16256 0.02898,0.32552 0.01536,0.36212 -0.03795,0.10199 -0.670969,0.37336 -0.752866,0.32274 -0.03975,-0.0246 -0.519783,-0.0556 -1.066734,-0.069 -0.546951,-0.0134 -1.053568,-0.0318 -1.125817,-0.041 -0.07225,-0.009 -0.146138,0.0129 -0.1642,0.0491 -0.01806,0.0361 0.03366,0.0751 0.11494,0.0867 0.09601,0.0136 0.147781,0.0662 0.147781,0.15009 0,0.20455 0.198577,0.46769 0.29349,0.38892 0.111315,-0.0924 0.166272,-0.016 0.166272,0.23107 0,0.23384 0.127399,0.38094 0.279408,0.3226 0.06793,-0.026 0.120496,0.0236 0.16743,0.15826 0.04983,0.14293 0.101023,0.18798 0.188449,0.16581 0.06602,-0.0167 0.22804,0.0251 0.360045,0.0931 0.163991,0.0844 0.274001,0.10446 0.34733,0.0634 0.110987,-0.0621 0.495613,-0.008 0.497391,0.0694 0.0034,0.14741 0.117833,0.20975 0.275245,0.1499 0.11096,-0.0422 0.189705,-0.0406 0.235129,0.005 0.08363,0.0836 0.211104,0.0144 0.211104,-0.11461 0,-0.12092 0.03315,-0.11899 0.235755,0.0137 0.15835,0.10375 0.167037,0.10234 0.202389,-0.0328 0.04463,-0.17066 0.124149,-0.1811 0.21005,-0.0276 0.05563,0.0994 0.09162,0.10351 0.287068,0.0328 0.28248,-0.10215 0.312662,-0.10122 0.312662,0.01 0,0.15255 -0.170241,0.24385 -0.63669,0.34144 -0.614613,0.1286 -1.336745,0.12127 -1.625613,-0.0165 -0.215743,-0.10288 -0.238541,-0.10288 -0.352222,0 -0.07837,0.0709 -0.234255,0.11 -0.438805,0.11 -0.293865,0 -0.338701,-0.023 -0.608151,-0.31198 -0.159993,-0.17159 -0.336028,-0.37848 -0.39119,-0.45976 -0.05516,-0.0813 -0.152021,-0.14778 -0.215242,-0.14778 -0.141833,0 -0.461066,-0.24349 -0.461066,-0.35167 0,-0.13357 -1.011329,-0.35659 -1.083978,-0.23904 -0.0563,0.0911 0.234945,0.32416 0.506939,0.40565 0.226544,0.0679 0.342399,0.18506 0.182957,0.18506 -0.03612,0 -0.06568,0.0426 -0.06568,0.0948 0,0.0521 -0.06569,0.1408 -0.145975,0.19704 l -0.145974,0.10224 h 0.145974 c 0.165198,0 0.196943,0.11593 0.04745,0.17329 -0.147554,0.0566 -0.119019,0.13573 0.06568,0.18208 0.199032,0.05 0.212834,0.14579 0.02938,0.20401 -0.191916,0.0609 -0.04041,0.22879 0.20648,0.22879 0.139183,0 0.17728,0.0251 0.149132,0.0985 -0.02079,0.0542 -0.0826,0.0985 -0.137341,0.0985 -0.0807,0 -0.08418,0.0185 -0.01837,0.0978 0.04464,0.0538 0.105329,0.0829 0.134864,0.0646 0.02954,-0.0182 0.07295,-0.002 0.09647,0.036 0.072,0.1165 -0.32792,0.47221 -0.50303,0.44743 -0.124537,-0.0177 -0.155906,-0.0635 -0.161196,-0.23571 -0.0036,-0.1176 -0.05205,-0.26539 -0.10763,-0.3284 -0.05559,-0.063 -0.120852,-0.21803 -0.145039,-0.34446 -0.05111,-0.2672 -0.155915,-0.51116 -0.288515,-0.67161 -0.06385,-0.0773 -0.083,-0.20791 -0.06016,-0.41051 0.01842,-0.16344 0.0069,-0.29717 -0.02553,-0.29717 -0.03246,0 -0.09263,-0.0738 -0.133713,-0.16393 -0.0612,-0.13432 -0.05424,-0.18654 0.03853,-0.28904 0.08158,-0.0901 0.09182,-0.13834 0.03665,-0.17244 -0.04572,-0.0283 -0.06114,-0.12451 -0.03826,-0.23889 0.02703,-0.13516 0.0096,-0.20259 -0.05906,-0.22895 -0.05356,-0.0205 -0.09738,-0.0897 -0.09738,-0.15366 0,-0.064 -0.03695,-0.14693 -0.0821,-0.18438 -0.06166,-0.0511 -0.08452,-0.0276 -0.09181,0.0943 -0.0053,0.0893 -0.05706,0.21473 -0.11494,0.27869 -0.119504,0.13205 -0.137667,0.34278 -0.03812,0.44232 0.04568,0.0457 0.04523,0.22132 -0.0014,0.55025 -0.05097,0.35938 -0.04906,0.49517 0.0075,0.53011 0.0507,0.0313 0.0578,0.10941 0.02135,0.23463 -0.09499,0.32624 -0.09104,0.54891 0.0097,0.54891 0.121091,0 0.117826,0.15518 -0.0084,0.39927 -0.05566,0.10764 -0.08267,0.2257 -0.06002,0.26235 0.02265,0.0366 -0.0057,0.13819 -0.063,0.22564 -0.149689,0.22846 -0.135561,0.3164 0.03607,0.22454 0.129067,-0.0691 0.136963,-0.0619 0.09899,0.0894 -0.02921,0.1164 -0.01106,0.17602 0.06215,0.20411 0.09081,0.0348 0.08675,0.0666 -0.03331,0.2609 -0.0752,0.12167 -0.13672,0.27832 -0.13672,0.34811 0,0.0698 -0.03487,0.16177 -0.07749,0.20438 -0.05953,0.0595 -0.05684,0.11608 0.01163,0.244 0.07976,0.14904 0.07351,0.18762 -0.05953,0.36757 -0.139148,0.18821 -0.141682,0.20874 -0.03967,0.32147 0.102438,0.11319 0.09982,0.12331 -0.0436,0.16865 -0.08392,0.0265 -0.241247,0.11188 -0.349619,0.18966 -0.165611,0.11886 -0.231089,0.1309 -0.410502,0.0755 z m 0.311981,-0.67398 c 0,-0.0662 -0.20932,-0.28431 -0.272901,-0.28431 -0.08215,0 -0.0673,0.15896 0.02332,0.24958 0.0845,0.0845 0.249585,0.10747 0.249585,0.0347 z m 1.970408,-3.85686 c 0,-0.0142 -0.04587,-0.0434 -0.101932,-0.0649 -0.05845,-0.0224 -0.08481,-0.0114 -0.0618,0.0258 0.03857,0.0624 0.163735,0.0923 0.163735,0.0391 z m 0.985204,-1.00027 c 0,-0.0873 -0.01783,-0.0918 -0.09852,-0.0248 -0.05419,0.045 -0.09852,0.0929 -0.09852,0.10656 0,0.0136 0.04433,0.0248 0.09852,0.0248 0.05419,0 0.09852,-0.048 0.09852,-0.10657 z m -2.146161,-1.43051 c 0.04106,-0.10699 -0.0141,-0.18281 -0.09613,-0.13212 -0.07461,0.0461 -0.07291,0.22423 0.0021,0.22423 0.03226,0 0.07456,-0.0414 0.09399,-0.0921 z m 0.569835,-0.10881 c 0,-0.034 -0.02955,-0.0618 -0.06568,-0.0618 -0.03613,0 -0.06568,0.0461 -0.06568,0.1024 0,0.0563 0.02955,0.0841 0.06568,0.0618 0.03612,-0.0223 0.06568,-0.0684 0.06568,-0.10239 z m -3.481054,-1.70381 c 0,-0.0361 -0.01304,-0.0657 -0.02896,-0.0657 -0.01593,0 -0.04723,0.0295 -0.06956,0.0657 -0.02232,0.0361 -0.0093,0.0657 0.02896,0.0657 0.03826,0 0.06956,-0.0295 0.06956,-0.0657 z m 1.550513,-0.0382 c -0.02193,-0.0571 -0.03987,-0.16151 -0.03987,-0.23194 0,-0.0704 -0.05172,-0.14493 -0.114941,-0.16556 -0.06322,-0.0206 -0.430498,-0.15597 -0.81618,-0.30077 l -0.70124,-0.26327 -0.302617,0.11557 c -0.259431,0.0991 -0.338303,0.10379 -0.552686,0.0331 -0.212603,-0.0702 -0.280665,-0.0667 -0.454268,0.0231 -0.112309,0.0581 -0.355613,0.10559 -0.540676,0.10559 -0.281809,0 -0.332973,-0.0182 -0.314898,-0.11206 0.01187,-0.0616 0.09531,-0.13047 0.185436,-0.15296 0.145152,-0.0362 0.135642,-0.0444 -0.08332,-0.0719 -0.301504,-0.0378 -0.395489,0.0119 -0.336185,0.17797 0.08582,0.24026 0.238699,0.35599 0.470225,0.35599 0.188559,0 0.214516,0.0159 0.150865,0.0926 -0.06432,0.0775 -0.02799,0.0919 0.222437,0.0881 0.165027,-0.003 0.332124,-0.0441 0.37244,-0.0926 0.113933,-0.13728 0.319761,-0.10944 0.319761,0.0432 0,0.14531 0.07752,0.16479 0.26228,0.0659 0.15477,-0.0828 0.331809,-0.0187 0.285018,0.10323 -0.02968,0.0773 0.004,0.0761 0.204647,-0.008 0.148971,-0.0622 0.323305,-0.0848 0.459078,-0.0593 0.12989,0.0243 0.236704,0.0122 0.262686,-0.0298 0.04648,-0.0752 0.336812,0.0768 0.467314,0.2447 0.05744,0.0739 0.0838,0.0713 0.155823,-0.0155 0.120598,-0.14531 0.267643,-0.13053 0.267643,0.0269 0,0.0769 0.04379,0.13136 0.105548,0.13136 0.06926,0 0.09184,-0.0357 0.06568,-0.10389 z m 9.024011,-0.0275 c 0,-0.0361 -0.02955,-0.0657 -0.06568,-0.0657 -0.03612,0 -0.06568,0.0295 -0.06568,0.0657 0,0.0361 0.02956,0.0657 0.06568,0.0657 0.03612,0 0.06568,-0.0295 0.06568,-0.0657 z m -6.795356,-0.17045 c -0.139341,-0.10189 -0.242875,-0.0938 -0.281483,0.0221 -0.01343,0.0403 0.05861,0.0834 0.160096,0.0959 0.243629,0.0299 0.277907,-0.004 0.121387,-0.1179 z m 2.520542,0.0227 c 0.06538,-0.173 0.01503,-0.30113 -0.06729,-0.17122 -0.06235,0.0984 -0.07862,0.319 -0.02352,0.319 0.01923,0 0.06009,-0.0665 0.09081,-0.14778 z m 2.567126,-0.0126 c 0,-0.0693 -0.126048,-0.0984 -0.163539,-0.0378 -0.02269,0.0367 0.0048,0.0668 0.06114,0.0668 0.05632,0 0.102396,-0.0131 0.102396,-0.029 z m -5.845544,-0.79151 c 0,-0.0539 0.05911,-0.13488 0.131361,-0.18 0.07225,-0.0451 0.13136,-0.11837 0.13136,-0.16279 0,-0.0444 0.08723,-0.14525 0.193848,-0.22407 0.206627,-0.15277 0.25128,-0.22902 0.332527,-0.56792 0.04293,-0.17905 0.02939,-0.22652 -0.0815,-0.28587 -0.117225,-0.0627 -0.128041,-0.11316 -0.09131,-0.42568 0.03741,-0.31831 0.02902,-0.35451 -0.0822,-0.35451 -0.108363,0 -0.119961,-0.039 -0.09266,-0.31199 0.03453,-0.34525 0.23116,-0.57171 0.558902,-0.6437 0.24981,-0.0549 0.229233,-0.16061 -0.03154,-0.16207 -0.190544,-0.001 -0.428348,-0.12364 -0.947741,-0.48852 -0.07874,-0.0553 -0.152627,-0.16666 -0.164201,-0.24745 -0.03121,-0.21788 -0.33789,-0.30857 -0.511656,-0.15132 -0.180548,0.16339 -0.167847,0.24284 0.03085,0.19297 0.190246,-0.0477 0.185501,-0.0671 0.09134,0.37199 -0.05869,0.27367 -0.05568,0.35036 0.01551,0.39435 0.07072,0.0437 0.07307,0.0952 0.01176,0.25759 -0.07062,0.18709 -0.06669,0.19982 0.05016,0.16273 0.166046,-0.0527 0.161977,-0.0292 -0.07026,0.40602 -0.233526,0.43762 -0.235966,0.45662 -0.06442,0.50148 0.119792,0.0313 0.128485,0.0699 0.08988,0.39832 -0.04127,0.35109 -0.03689,0.36511 0.126676,0.40616 l 0.169416,0.0425 -0.130069,0.32999 c -0.10862,0.27557 -0.11347,0.32361 -0.02942,0.29136 0.114266,-0.0439 0.146148,0.1841 0.03533,0.25259 -0.03593,0.0222 -0.09608,0.0978 -0.133672,0.16808 -0.06244,0.11667 -0.04546,0.12771 0.196688,0.12771 0.191128,0 0.265032,-0.0273 0.265032,-0.098 z m 6.579276,-0.14209 c 0.06606,-0.0598 0.120111,-0.14983 0.120111,-0.20011 0,-0.0709 -0.03626,-0.0649 -0.161409,0.0266 -0.184164,0.13464 -0.264523,0.28221 -0.153683,0.28221 0.04118,0 0.128919,-0.0489 0.194981,-0.10871 z m -10.06033,0.014 c 0,-0.0693 -0.126048,-0.0985 -0.163539,-0.0378 -0.02269,0.0367 0.0048,0.0667 0.06114,0.0667 0.05632,0 0.102397,-0.013 0.102397,-0.029 z m -0.853844,-0.25894 c 0,-0.12204 -0.240744,-0.17896 -0.325417,-0.0769 -0.08669,0.10445 -0.0217,0.16779 0.172164,0.16779 0.0867,0 0.153253,-0.0395 0.153253,-0.0909 z m -0.957151,-0.0713 c 0.12129,-0.0113 0.310108,-0.0867 0.419593,-0.16767 0.140828,-0.10412 0.24858,-0.13504 0.368312,-0.10571 0.09309,0.0228 0.243136,0.0597 0.333447,0.082 0.186729,0.046 0.226725,-0.0667 0.04926,-0.13887 -0.195714,-0.0796 -1.219063,-0.11632 -1.461386,-0.0525 -0.178881,0.0472 -0.231887,0.0961 -0.238923,0.22065 -0.01234,0.21851 0.03031,0.2711 0.181052,0.22326 0.07046,-0.0224 0.227354,-0.0499 0.348644,-0.0612 z m 3.978444,-0.32656 c 0,-0.0521 -0.02956,-0.11292 -0.06568,-0.13524 -0.03612,-0.0223 -0.06568,0.0203 -0.06568,0.0946 0,0.0744 0.02956,0.13524 0.06568,0.13524 0.03613,0 0.06568,-0.0426 0.06568,-0.0946 z m -2.889932,-0.40184 c 0,-0.0563 -0.02955,-0.0841 -0.06568,-0.0618 -0.03612,0.0223 -0.06568,0.0684 -0.06568,0.10239 0,0.034 0.02955,0.0618 0.06568,0.0618 0.03612,0 0.06568,-0.0461 0.06568,-0.1024 z m 6.053833,-0.20334 c 0.06606,-0.0598 0.120112,-0.14621 0.120112,-0.19205 0,-0.0458 0.09021,-0.1521 0.200475,-0.23612 0.275333,-0.20982 0.91609,-0.81607 0.91609,-0.86675 0,-0.0227 -0.101771,-0.0414 -0.226157,-0.0414 -0.140818,0 -0.258542,-0.0441 -0.311981,-0.11682 -0.06002,-0.0817 -0.174704,-0.11705 -0.381386,-0.1176 -0.162559,-3.8e-4 -0.413786,-0.0203 -0.558282,-0.0441 -0.186056,-0.0307 -0.300961,-0.0148 -0.393762,0.0545 -0.109083,0.0815 -0.115243,0.10765 -0.03676,0.15615 0.07627,0.0472 0.08052,0.1031 0.02225,0.29297 -0.04143,0.135 -0.0463,0.2347 -0.01146,0.2347 0.03332,0 0.05432,0.0821 0.04667,0.1825 -0.01681,0.22059 0.04998,0.34294 0.187206,0.34294 0.08095,0 0.09307,0.0474 0.05883,0.22988 -0.03875,0.20656 -0.02835,0.22989 0.102459,0.22989 0.08007,0 0.199635,-0.0489 0.265697,-0.1087 z m -0.536691,-0.21971 c 0,-0.0361 -0.01303,-0.0657 -0.02896,-0.0657 -0.01593,0 -0.04723,0.0295 -0.06956,0.0657 -0.02232,0.0361 -0.0093,0.0657 0.02896,0.0657 0.03826,0 0.06956,-0.0295 0.06956,-0.0657 z m -5.287261,-0.39408 c 0.02232,-0.0361 0.0093,-0.0657 -0.02896,-0.0657 -0.03826,0 -0.06956,0.0295 -0.06956,0.0657 0,0.0361 0.01303,0.0657 0.02897,0.0657 0.01593,0 0.04723,-0.0295 0.06956,-0.0657 z m 7.373575,-0.42514 c 0.134935,-0.12546 0.207351,-0.22891 0.160925,-0.22988 -0.122595,-0.003 -0.402941,0.19408 -0.478849,0.33592 -0.105801,0.19769 0.04553,0.14722 0.317924,-0.10604 z m -7.078014,-3.39206 c 0,-0.0361 -0.02956,-0.0474 -0.06568,-0.0251 -0.03612,0.0223 -0.06568,0.0702 -0.06568,0.10628 0,0.0361 0.02956,0.0474 0.06568,0.0251 0.03612,-0.0223 0.06568,-0.0701 0.06568,-0.10627 z m -6.502347,-0.61233 c 0,-0.0693 -0.126048,-0.0984 -0.163538,-0.0378 -0.02269,0.0367 0.0048,0.0668 0.06114,0.0668 0.05632,0 0.102396,-0.0131 0.102396,-0.029 z m 11.099966,-0.37215 c 0,-0.088 0.04681,-0.12433 0.160324,-0.12433 0.08818,0 0.177793,0.0283 0.199145,0.0628 0.02135,0.0345 0.08221,0.0461 0.135237,0.0258 0.06012,-0.0231 0.09642,0.003 0.09642,0.0686 0,0.16948 0.119528,0.12191 0.229881,-0.0915 0.118075,-0.22834 0.152032,-0.23879 0.266607,-0.0821 0.07898,0.10801 0.09353,0.10603 0.241355,-0.0328 0.181503,-0.17051 0.313042,-0.19121 0.313042,-0.0493 0,0.10929 0.359355,0.14217 0.423282,0.0387 0.02032,-0.0329 -0.07781,-0.18658 -0.218075,-0.34154 -0.252997,-0.27949 -0.257056,-0.28111 -0.50926,-0.20385 -0.462542,0.14169 -0.653916,0.1253 -0.702413,-0.0601 -0.02533,-0.0969 -0.06974,-0.12717 -0.144393,-0.0985 -0.0593,0.0227 -0.271571,0.0414 -0.471722,0.0414 -0.320793,0 -0.35393,0.012 -0.279666,0.1015 0.04633,0.0558 0.126313,0.0854 0.177731,0.0656 0.05586,-0.0214 0.08263,-0.003 0.06651,0.0462 -0.01484,0.0452 -0.103673,0.0913 -0.197415,0.10243 -0.126421,0.0151 -0.225381,-0.0401 -0.38315,-0.21346 -0.192853,-0.21192 -0.454322,-0.3152 -0.454322,-0.17944 0,0.0299 -0.08833,0.0413 -0.196285,0.0255 -0.149138,-0.0219 -0.205784,5.3e-4 -0.235837,0.0935 -0.02176,0.0673 -0.07088,0.18778 -0.109177,0.26784 -0.08219,0.1718 -0.0031,0.29519 0.279457,0.43617 0.160647,0.0801 0.197108,0.0788 0.286224,-0.0103 0.109234,-0.10924 0.138185,-0.10093 0.622733,0.17883 0.248021,0.14319 0.403769,0.1171 0.403769,-0.0676 z m -1.319816,-1.23132 c -0.09707,-0.0334 -0.146378,0.0343 -0.09068,0.12443 0.03531,0.0571 0.06194,0.054 0.102992,-0.012 0.03252,-0.0524 0.02744,-0.0987 -0.01232,-0.11238 z m 5.243487,-0.007 c 0.0456,-0.073 0.05437,-0.14424 0.02034,-0.16528 -0.06283,-0.0388 -0.08819,-0.01 -0.155205,0.17865 -0.05518,0.15506 0.03529,0.14608 0.134867,-0.0134 z m -1.559181,-2.46546 c 0,-0.0542 -0.02781,-0.0985 -0.0618,-0.0985 -0.08282,0 -0.142139,0.10256 -0.08967,0.15503 0.07397,0.074 0.151469,0.045 0.151469,-0.0565 z m -9.743345,-0.71966 c -0.02139,-0.0557 -0.06938,-0.10135 -0.106635,-0.10135 -0.09626,0 -0.08425,0.1802 0.01436,0.21542 0.111579,0.0398 0.138546,0.007 0.09228,-0.11407 z m 1.184096,-0.048 c -0.02097,-0.0524 -0.03653,-0.0368 -0.03968,0.0397 -0.0029,0.0692 0.01267,0.10803 0.0345,0.0862 0.02183,-0.0219 0.02416,-0.0785 0.0052,-0.12589 z m -1.43054,-0.22526 c -0.08368,-0.10083 -0.650415,-0.12751 -0.650415,-0.0306 0,0.0905 0.324098,0.18039 0.537603,0.14906 0.151532,-0.0222 0.173506,-0.0453 0.112812,-0.11844 z m 0.445336,-0.30018 c -0.02097,-0.0524 -0.03653,-0.0368 -0.03968,0.0397 -0.0029,0.0692 0.01267,0.10803 0.0345,0.0862 0.02182,-0.0218 0.02416,-0.0785 0.0052,-0.12588 z m 13.322501,0.10119 c 0.08783,-0.0337 0.06703,-0.0608 -0.100688,-0.13135 -0.267751,-0.11258 -0.261987,-0.11352 -0.261987,0.0425 0,0.1359 0.146554,0.17182 0.362675,0.0889 z m -6.616599,-2.64025 c 0.01882,-0.0565 -0.01276,-0.0802 -0.08763,-0.0657 -0.06438,0.0125 -0.130304,0.0625 -0.146489,0.11107 -0.01882,0.0565 0.01276,0.0802 0.08764,0.0657 0.06438,-0.0125 0.130304,-0.0625 0.146488,-0.11107 z m -0.92789,-0.96534 c 0.0611,-0.15923 -0.02415,-0.18798 -0.105684,-0.0356 -0.05083,0.095 -0.05183,0.13699 -0.0032,0.13699 0.03853,0 0.08755,-0.0456 0.108945,-0.10136 z m -1.570081,22.62442 c -0.140188,-0.0817 -0.147754,-0.2546 -0.01862,-0.42553 0.06213,-0.0822 0.08285,-0.20327 0.05837,-0.34095 -0.04472,-0.25153 0.03035,-0.27177 0.227937,-0.0615 0.177089,0.18851 0.179623,0.24207 0.01145,0.24207 -0.132369,0 -0.178265,0.0946 -0.07643,0.15756 0.03021,0.0187 0.05887,0.13864 0.06368,0.26659 0.0091,0.24313 -0.05734,0.28348 -0.266396,0.16171 z m 2.919487,-5.26229 c -0.129162,-0.12917 -0.08984,-0.24959 0.08151,-0.24959 0.197043,0 0.271755,0.10495 0.165689,0.23276 -0.09646,0.11622 -0.144529,0.11949 -0.247198,0.0168 z m -8.157489,-0.57799 c 0,-0.0361 0.0313,-0.0657 0.06956,-0.0657 0.03826,0 0.05129,0.0295 0.02896,0.0657 -0.02232,0.0361 -0.05363,0.0657 -0.06956,0.0657 -0.01593,0 -0.02896,-0.0296 -0.02896,-0.0657 z m 11.064123,-6.49441 c -0.0748,-0.0748 -0.01711,-0.3348 0.110182,-0.49663 0.105325,-0.1339 0.177908,-0.1685 0.292932,-0.13963 0.11112,0.0279 0.172217,0.002 0.223534,-0.0936 0.03884,-0.0726 0.117608,-0.13195 0.175039,-0.13195 0.08192,0 0.09557,0.0442 0.06337,0.20525 -0.02258,0.11289 -0.04105,0.23111 -0.04105,0.26272 0,0.0316 -0.07751,0.0575 -0.172243,0.0575 -0.147762,0 -0.160294,0.0144 -0.08817,0.1013 0.06235,0.0751 0.06495,0.12043 0.01009,0.1753 -0.0725,0.0725 -0.514857,0.11857 -0.573679,0.0597 z"
       id="path1477"
       inkscape:connector-curvature="0" />
  </g>
</svg>
