<?xml version="1.0" encoding="UTF-8" standalone="no"?>
<!-- Created with Inkscape (http://www.inkscape.org/) -->

<svg
   xmlns:dc="http://purl.org/dc/elements/1.1/"
   xmlns:cc="http://creativecommons.org/ns#"
   xmlns:rdf="http://www.w3.org/1999/02/22-rdf-syntax-ns#"
   xmlns:svg="http://www.w3.org/2000/svg"
   xmlns="http://www.w3.org/2000/svg"
   xmlns:sodipodi="http://sodipodi.sourceforge.net/DTD/sodipodi-0.dtd"
   xmlns:inkscape="http://www.inkscape.org/namespaces/inkscape"
   width="105mm"
   height="146mm"
   viewBox="0 0 105 146"
   version="1.1"
   id="svg8"
   inkscape:version="0.92.3 (2405546, 2018-03-11)"
   sodipodi:docname="araucaria_1_intermediate_01.svg">
  <defs
     id="defs2" />
  <sodipodi:namedview
     id="base"
     pagecolor="#ffffff"
     bordercolor="#666666"
     borderopacity="1.0"
     inkscape:pageopacity="0.0"
     inkscape:pageshadow="2"
     inkscape:zoom="0.49497475"
     inkscape:cx="-104.07517"
     inkscape:cy="84.922525"
     inkscape:document-units="mm"
     inkscape:current-layer="layer1"
     showgrid="false"
     inkscape:pagecheckerboard="true"
     height="147mm"
     inkscape:window-width="1920"
     inkscape:window-height="1055"
     inkscape:window-x="381"
     inkscape:window-y="0"
     inkscape:window-maximized="1"
     inkscape:snap-global="false" />
  <metadata
     id="metadata5">
    <rdf:RDF>
      <cc:Work
         rdf:about="">
        <dc:format>image/svg+xml</dc:format>
        <dc:type
           rdf:resource="http://purl.org/dc/dcmitype/StillImage" />
        <dc:title></dc:title>
      </cc:Work>
    </rdf:RDF>
  </metadata>
  <g
     inkscape:label="Layer 1"
     inkscape:groupmode="layer"
     id="layer1"
     transform="translate(0,-151)">
    <path
       style="fill:#000000;stroke-width:0.09826183"
       d="m 51.367487,296.74423 c -0.518625,-0.18911 -0.553363,-0.43813 -0.04789,-0.34331 0.349665,0.0656 0.353728,0.0626 0.294085,-0.21663 -0.0368,-0.17234 -0.0025,-0.39332 0.08761,-0.56461 0.08145,-0.1548 0.148092,-0.46985 0.148092,-0.70011 0,-0.23027 0.02652,-0.55126 0.05893,-0.71332 0.05783,-0.28911 0.06428,-0.29198 0.343916,-0.15248 0.256495,0.12796 0.283935,0.18812 0.274464,0.60172 l -0.01052,0.45955 -0.09352,-0.41761 c -0.09855,-0.44008 -0.28259,-0.57274 -0.272622,-0.19652 0.0032,0.12159 0.04043,0.43111 0.08268,0.68782 0.05976,0.36305 0.04754,0.46675 -0.05499,0.46675 -0.0725,0 -0.131813,0.0663 -0.131813,0.14739 0,0.0811 0.07021,0.14739 0.15603,0.14739 0.127104,0 0.143946,0.0715 0.09085,0.38579 -0.06126,0.36255 -0.05211,0.38237 0.151914,0.32902 0.206892,-0.0541 0.214285,-0.0919 0.157338,-0.8034 -0.06355,-0.79406 0.05941,-0.78321 0.174704,0.0155 0.0371,0.25699 0.129372,0.58661 0.205048,0.73248 0.165611,0.31921 0.131042,0.37534 -0.141375,0.22955 -0.131818,-0.0706 -0.20494,-0.0742 -0.20494,-0.0101 0,0.14187 -0.791492,0.0889 -1.267999,-0.0848 z m 2.209617,0.006 c -0.02657,-0.043 -0.120635,-0.29567 -0.209047,-0.56153 -0.08841,-0.26586 -0.252428,-0.55536 -0.364481,-0.64333 -0.175544,-0.13781 -0.203056,-0.26458 -0.198856,-0.9163 0.0036,-0.55747 -0.03094,-0.7701 -0.131311,-0.80862 -0.139566,-0.0536 -0.182948,-0.48287 -0.07676,-0.75959 0.03269,-0.0852 0.110067,-0.12974 0.171958,-0.099 0.06189,0.0307 0.04186,-0.003 -0.04451,-0.0743 -0.135998,-0.11267 -0.146141,-0.275 -0.07567,-1.211 0.08267,-1.098 0.04426,-1.62131 -0.11901,-1.62131 -0.04975,0 -0.09045,0.20782 -0.09045,0.46183 0,0.32778 -0.03049,0.43134 -0.105051,0.35678 -0.07002,-0.07 -0.07655,-0.26498 -0.01957,-0.58466 0.09434,-0.52935 -0.03407,-2.88666 -0.164412,-3.01814 -0.111079,-0.11204 -0.01024,-0.45846 0.133453,-0.45846 0.06395,0 0.171183,0.0549 0.238286,0.12201 0.09717,0.0972 0.140872,0.0922 0.214671,-0.0245 0.05097,-0.0806 0.09334,-0.11002 0.09417,-0.0654 7.73e-4,0.0447 0.116528,-0.0555 0.257114,-0.22254 0.152669,-0.18144 0.231366,-0.36696 0.195409,-0.46066 -0.04291,-0.11183 -0.01755,-0.14051 0.08831,-0.0999 0.177496,0.0681 0.179153,0.0557 0.03979,-0.29893 -0.05979,-0.15213 -0.106473,-0.53373 -0.103725,-0.84798 0.0035,-0.40119 -0.02996,-0.55961 -0.112367,-0.53187 -0.108912,0.0367 -0.140168,0.31428 -0.159346,1.41539 -0.0053,0.30441 -0.05156,0.42201 -0.179107,0.45534 -0.16377,0.0428 -0.16377,0.0455 0,0.0564 0.09458,0.006 0.171958,0.0513 0.171958,0.10005 0,0.0963 -0.594664,0.33206 -0.663656,0.26307 -0.054,-0.054 0.193539,-0.74476 0.266882,-0.74476 0.03028,0 0.05456,-0.44186 0.05395,-0.9819 -0.0011,-0.96541 -0.0041,-0.9782 -0.180317,-0.76153 -0.193443,0.23786 -0.18812,0.20514 0.05208,-0.32007 0.141693,-0.30982 0.216823,-1.13615 0.187166,-2.05859 -0.01304,-0.40544 -0.133878,-0.31075 -0.307229,0.24074 -0.06795,0.21618 -0.228865,0.60321 -0.357586,0.86008 -0.154979,0.30926 -0.213182,0.55013 -0.172295,0.71304 0.03396,0.13531 0.03279,0.40038 -0.0026,0.58904 -0.05277,0.2813 -0.08813,0.32097 -0.196464,0.22045 -0.08705,-0.0808 -0.09719,-0.14448 -0.02973,-0.18678 0.13328,-0.0836 0.197942,-0.67277 0.07383,-0.67277 -0.182193,0 -0.4329,0.51731 -0.410672,0.84738 0.01229,0.18247 -0.02326,0.33177 -0.079,0.33177 -0.05574,0 -0.10134,0.0616 -0.10134,0.13687 0,0.15361 0.26471,0.28636 0.401914,0.20156 0.04917,-0.0304 0.0894,-0.002 0.0894,0.0634 0,0.15173 0.586278,-0.4567 0.599366,-0.62202 0.0054,-0.068 0.04134,-0.0131 0.07991,0.12194 0.05092,0.17839 0.02319,0.27951 -0.101267,0.3693 -0.173454,0.12513 -0.479749,0.66058 -0.479749,0.83867 0,0.0533 -0.07091,0.14874 -0.157572,0.21212 -0.09653,0.0706 -0.169839,0.29719 -0.189239,0.58493 -0.03202,0.4749 -0.144498,0.76264 -0.144498,0.36964 0,-0.2642 -0.155628,-0.2764 -0.291329,-0.0228 -0.156375,0.29219 -0.121871,0.46958 0.10277,0.52832 0.146331,0.0382 0.195946,0.11866 0.174451,0.28269 -0.01652,0.12607 0.04437,0.33546 0.13533,0.46531 0.187036,0.26703 0.123366,0.50388 -0.06588,0.24508 -0.102501,-0.14018 -0.132713,-0.0337 -0.186502,0.65739 -0.0353,0.45356 -0.06445,1.20651 -0.06478,1.67321 -3.9e-4,0.56059 -0.05041,0.94408 -0.147376,1.13002 -0.08073,0.1548 -0.14706,0.42515 -0.147393,0.6008 -3.06e-4,0.17564 -0.05052,0.31935 -0.111527,0.31935 -0.07656,0 -0.09035,-0.1551 -0.04449,-0.50074 0.230669,-1.73888 0.411696,-4.82615 0.270996,-4.62165 -0.07585,0.11025 -0.110277,0.10306 -0.190175,-0.0397 -0.0893,-0.15956 -0.111562,-0.15294 -0.26303,0.0782 -0.173469,0.26475 -0.448469,0.42836 -0.448469,0.26682 0,-0.0519 0.12669,-0.21631 0.281532,-0.3654 0.154843,-0.14909 0.3753,-0.456 0.489905,-0.68201 0.114605,-0.22603 0.246601,-0.43458 0.293326,-0.46346 0.115309,-0.0713 0.123556,-1.51575 0.0091,-1.58651 -0.05017,-0.031 -0.09121,-0.16514 -0.09121,-0.29809 0,-0.20629 -0.03468,-0.23303 -0.236502,-0.18237 -0.130077,0.0327 -0.326075,0.0115 -0.435551,-0.0472 -0.168073,-0.0899 -0.228434,-0.0645 -0.387871,0.16361 -0.103852,0.14857 -0.216174,0.38357 -0.249605,0.52222 -0.03343,0.13866 -0.156188,0.35975 -0.272793,0.49131 -0.116604,0.13157 -0.423117,0.52663 -0.681139,0.87792 -0.455642,0.62033 -0.957363,1.08088 -1.177523,1.08088 -0.05942,0 -0.07607,-0.0517 -0.03699,-0.11497 0.05013,-0.0811 0.01569,-0.0921 -0.117028,-0.0373 -0.317588,0.13126 -1.121565,0.18641 -1.121565,0.077 0,-0.11833 0.232548,-0.21954 0.504444,-0.21954 0.305018,0 0.967882,-0.42189 0.968727,-0.61656 3.9e-4,-0.0975 0.114752,-0.21773 0.259348,-0.27271 0.558774,-0.21244 1.563216,-1.5078 2.144138,-2.76513 0.435357,-0.94227 1.029114,-2.58198 1.096255,-3.0274 0.09714,-0.64446 0.09003,-2.96513 -0.0093,-3.02649 -0.05327,-0.0329 -0.237459,-0.0477 -0.409317,-0.0329 -0.549914,0.0474 -1.111962,-0.36173 -0.92114,-0.67048 0.05915,-0.0957 0.126998,-0.0761 0.285695,0.0826 0.254498,0.25449 0.905623,0.28587 1.098928,0.053 0.07082,-0.0853 0.131512,-0.36041 0.134859,-0.61127 l 0.0061,-0.4561 -0.802519,0.0299 c -0.646312,0.024 -0.893128,-0.0102 -1.268024,-0.17602 -0.610456,-0.27003 -0.510563,-0.34453 0.21023,-0.15679 0.684977,0.17841 0.771309,0.18106 1.413298,0.0434 l 0.496149,-0.1064 0.0031,-0.65513 c 0.002,-0.41962 0.05499,-0.72369 0.147393,-0.84585 0.138729,-0.18343 0.144268,-0.18091 0.144268,0.0655 0,0.14094 -0.05205,0.2736 -0.115659,0.2948 -0.07371,0.0246 -0.08424,0.0894 -0.02903,0.17873 0.04765,0.0771 0.0742,0.28452 0.059,0.46095 -0.03267,0.37918 0.01149,0.38717 0.527861,0.0956 l 0.393048,-0.22199 0.100828,-1.42228 c 0.05546,-0.78226 0.08855,-1.44078 0.07355,-1.46338 -0.01501,-0.0226 -0.135642,0.0169 -0.268084,0.0878 -0.250628,0.13414 -0.43924,0.53644 -0.457186,0.97516 l -0.01045,0.25555 -0.106778,-0.27022 c -0.118727,-0.30046 -0.190157,-0.32808 -0.381172,-0.14739 -0.124428,0.11771 -0.284579,0.23828 -1.598917,1.2038 -0.625893,0.45978 -2.469914,1.41728 -3.199635,1.66138 -1.5032,0.50286 -3.782317,0.57282 -4.991017,0.15321 -0.3408,-0.11832 -0.601184,-0.23357 -0.578634,-0.25612 0.02255,-0.0226 0.168734,0.009 0.324851,0.0699 0.435482,0.17009 2.623981,0.23058 3.60526,0.0996 0.475678,-0.0635 1.247383,-0.24551 1.714902,-0.40452 0.829271,-0.28206 2.565815,-1.1866 3.082304,-1.60553 0.141935,-0.11512 0.382186,-0.29775 0.533888,-0.40584 0.458052,-0.32636 1.235271,-1.00582 1.369102,-1.19689 0.08696,-0.12415 0.11001,-0.39899 0.07477,-0.89153 -0.05134,-0.71752 -0.210536,-0.98541 -0.233363,-0.39269 -0.01078,0.27998 -0.02087,0.26646 -0.08182,-0.10972 -0.04134,-0.2551 -0.140696,-0.46891 -0.245048,-0.5273 -0.15493,-0.0867 -0.167599,-0.18904 -0.107992,-0.87236 0.03714,-0.42578 0.11023,-0.91809 0.16242,-1.09403 0.05219,-0.17593 0.135645,-0.73995 0.185457,-1.25336 0.04981,-0.51343 0.134283,-1.33145 0.187714,-1.81785 0.135613,-1.23452 0.180423,-2.1082 0.105761,-2.06206 -0.03475,0.0215 -0.06318,-0.0234 -0.06318,-0.0998 0,-0.0764 0.05896,-0.16147 0.131016,-0.18913 0.104009,-0.0399 0.131016,0.16056 0.131016,0.97246 v 1.02274 l 0.368481,0.0305 c 0.336407,0.0278 0.371163,0.0583 0.399274,0.34984 0.0173,0.17938 -0.01501,0.31935 -0.0737,0.31935 -0.05747,0 -0.104487,-0.11939 -0.104487,-0.2653 0,-0.16662 -0.03446,-0.23058 -0.09263,-0.17196 -0.137187,0.13826 -0.27881,0.85745 -0.208384,1.05822 0.0544,0.15509 0.08623,0.14537 0.28952,-0.0884 0.182402,-0.20978 0.20161,-0.27965 0.09538,-0.34696 -0.103391,-0.0655 -0.09472,-0.0846 0.03894,-0.0858 0.138072,-0.001 0.171958,-0.0886 0.171958,-0.44368 0,-0.30134 -0.03912,-0.43436 -0.122827,-0.41762 -0.09297,0.0186 -0.116568,-0.21025 -0.09708,-0.94134 0.02397,-0.89929 0.01042,-0.9787 -0.196523,-1.1513 -0.122249,-0.10198 -0.266906,-0.18688 -0.321461,-0.18867 -0.05455,-10e-4 -0.158476,-0.0982 -0.230936,-0.21423 -0.106377,-0.17034 -0.148479,-0.18453 -0.218655,-0.0737 -0.066,0.10424 -0.08727,0.0862 -0.08842,-0.0751 -7.73e-4,-0.11679 -0.123103,-0.31839 -0.271724,-0.448 -0.148622,-0.1296 -0.318041,-0.32146 -0.376489,-0.42634 -0.05845,-0.10489 -0.228468,-0.40075 -0.37782,-0.65745 -0.401003,-0.68925 -0.172118,-0.56454 0.317916,0.17322 0.232869,0.35059 0.468979,0.63743 0.52469,0.63743 0.05571,0 0.184861,0.0995 0.287003,0.2211 0.145979,0.17379 0.204195,0.19311 0.272102,0.0903 0.0627,-0.0949 0.101977,-0.0529 0.143216,0.15337 0.04758,0.23789 0.379628,0.51782 0.614235,0.51782 0.106303,0 0.03224,-0.30566 -0.08496,-0.35064 -0.179748,-0.069 -0.117265,-2.42471 0.07239,-2.72907 0.07268,-0.11663 0.160546,-0.40344 0.195263,-0.63734 0.05528,-0.37242 0.04145,-0.42116 -0.111225,-0.39213 -0.136869,0.026 -0.18089,0.14848 -0.204794,0.56969 -0.02923,0.51507 -0.14201,0.78815 -0.325499,0.78815 -0.04742,0 -0.08623,-0.091 -0.08623,-0.20232 0,-0.11127 0.03316,-0.18184 0.0737,-0.1568 0.04053,0.025 0.07803,-0.1531 0.08332,-0.39585 0.0093,-0.42687 0.0012,-0.43938 -0.245655,-0.38092 -0.21145,0.05 -1.042962,0.18038 -1.680076,0.26331 -0.353579,0.046 -0.47264,-0.0128 -0.421519,-0.20829 0.02827,-0.10809 0.0064,-0.19653 -0.04863,-0.19653 -0.129393,0 -0.483016,-0.60037 -0.59414,-1.00871 -0.04757,-0.1748 -0.135385,-0.30734 -0.195142,-0.29452 -0.05976,0.0128 -0.401379,0.0297 -0.759159,0.0374 -0.783794,0.017 -0.837358,0.0963 -0.53686,0.79482 0.268994,0.62529 0.568457,1.04043 0.804582,1.11538 0.09838,0.0312 0.225464,0.14381 0.2824,0.2502 0.100771,0.18829 0.09369,0.18932 -0.266728,0.0387 -0.565278,-0.23618 -0.690932,-0.39869 -0.977357,-1.26399 -0.145521,-0.43963 -0.313269,-0.8318 -0.372773,-0.8715 -0.05951,-0.0397 -0.240844,-0.0774 -0.402976,-0.0838 l -0.294786,-0.0116 0.343917,-0.0929 c 0.189154,-0.0511 0.410243,-0.0907 0.491309,-0.0879 0.442148,0.0152 1.032353,-0.0126 1.070172,-0.0504 0.08365,-0.0836 -0.05499,-0.13791 -0.695206,-0.27212 -1.235181,-0.25891 -3.126297,-1.44615 -3.126297,-1.96267 0,-0.32691 0.367699,-0.17829 0.620166,0.25066 0.159668,0.27128 0.437996,0.53348 0.794329,0.74829 0.597844,0.3604 1.925589,0.84978 2.591523,0.95518 0.382352,0.0605 0.413478,0.05 0.351821,-0.11843 -0.06475,-0.17691 -0.05925,-0.17745 0.128715,-0.0129 0.107996,0.0946 0.281311,0.17148 0.385144,0.1709 0.269523,-0.001 1.023073,-0.24107 1.526677,-0.48533 l 0.430822,-0.20896 0.200214,0.24941 c 0.110119,0.13718 0.252353,0.24942 0.316076,0.24942 0.06372,0 0.279056,0.16319 0.478518,0.36266 l 0.362656,0.36265 0.08587,-0.23213 c 0.05712,-0.15439 0.04794,-0.25557 -0.0274,-0.30214 -0.0623,-0.0385 -0.155194,-0.41781 -0.206433,-0.84292 -0.182598,-1.51494 -0.183101,-1.51678 -0.440751,-1.61474 -0.132605,-0.0504 -0.442657,-0.0917 -0.689003,-0.0917 -0.608035,0 -2.378679,-0.60457 -3.224123,-1.10085 -1.480345,-0.86897 -2.228607,-1.37198 -2.773701,-1.86462 -0.22848,-0.20649 -0.45834,-0.37543 -0.510801,-0.37543 -0.05246,0 -0.440357,0.10649 -0.861987,0.23664 -0.73368,0.22647 -1.982195,0.54946 -2.12398,0.54946 -0.03708,0 -0.06742,-0.0425 -0.06742,-0.0945 0,-0.0519 0.187926,-0.14246 0.417613,-0.20112 0.516495,-0.13189 0.880444,-0.26083 1.443233,-0.5113 0.239827,-0.10674 0.582515,-0.21783 0.76153,-0.24688 0.179012,-0.029 0.324664,-0.0802 0.32367,-0.11366 -9.84e-4,-0.0335 -0.20456,-0.19349 -0.452365,-0.35562 -0.413566,-0.27058 -0.954342,-0.93482 -0.759183,-0.9325 0.04584,5.6e-4 0.436981,0.33218 0.869202,0.73696 0.432221,0.40479 0.808491,0.73598 0.836155,0.73598 0.02766,0 0.106598,0.0901 0.17541,0.20034 0.06881,0.11018 0.161455,0.17787 0.205877,0.15042 0.04442,-0.0275 0.183335,0.0592 0.308699,0.19271 0.125364,0.13344 0.25977,0.24262 0.298678,0.24262 0.03891,0 0.217135,0.13676 0.396061,0.30389 0.595001,0.55582 2.217485,1.44162 2.942662,1.60656 0.370116,0.0842 0.768431,0.15305 0.885143,0.15305 0.143852,0 0.194799,0.0453 0.158168,0.14082 -0.06409,0.16701 0.209524,0.2362 1.059699,0.268 l 0.58451,0.0219 0.02877,-0.72253 c 0.01879,-0.47186 0.0802,-0.77936 0.177018,-0.88634 0.08154,-0.0901 0.148246,-0.32614 0.148246,-0.52456 0,-0.1984 0.0456,-0.36074 0.101345,-0.36074 0.16292,0 0.227703,0.28882 0.118528,0.52843 -0.07,0.15363 -0.06804,0.27918 0.0064,0.41135 0.09516,0.16896 0.12133,0.14078 0.234006,-0.25195 l 0.126865,-0.44218 -0.04792,0.48046 c -0.02636,0.26426 -0.04792,0.59328 -0.04792,0.73118 0,0.24319 -0.0046,0.24499 -0.153485,0.0599 -0.144897,-0.18007 -0.150542,-0.1715 -0.100895,0.15317 0.02892,0.18916 0.08204,0.54291 0.118036,0.7861 0.05386,0.36392 0.227474,0.64502 0.980861,1.5882 1.215079,1.52116 2.201599,2.34915 2.201599,1.8478 0,-0.10634 0.04311,-0.19336 0.09581,-0.19336 0.07854,0 0.03733,0.55963 -0.0492,0.66805 -0.01288,0.0161 -0.150238,-0.003 -0.305237,-0.0413 -0.373207,-0.0936 -1.205082,-0.94169 -2.100223,-2.14112 -0.709384,-0.95053 -0.728672,-0.96728 -0.801214,-0.69604 -0.08464,0.3165 5.01e-4,1.10862 0.12767,1.18719 0.0465,0.0287 0.08454,0.14068 0.08454,0.24877 0,0.10809 -0.0403,0.17161 -0.08955,0.14117 -0.04925,-0.0304 -0.119778,0.12355 -0.156719,0.3422 -0.05719,0.33851 -0.03257,0.43213 0.165843,0.63054 0.213348,0.21335 0.850106,0.41943 1.129335,0.3655 0.159461,-0.0308 0.256095,0.15079 0.123767,0.23257 -0.05936,0.0367 -0.438879,0.0357 -0.843364,-0.002 -0.531225,-0.0497 -0.751818,-0.11162 -0.794455,-0.22273 -0.03246,-0.0846 -0.322158,-0.43014 -0.643761,-0.76787 -0.57464,-0.60344 -0.995417,-0.82566 -1.091128,-0.57624 -0.06768,0.17637 -0.618486,0.4075 -1.140866,0.47874 -0.688377,0.0939 -0.741505,0.15891 -0.495148,0.60624 0.396137,0.71927 0.640233,1.01298 0.839064,1.00959 0.108088,-0.002 0.572375,-0.1001 1.031749,-0.21834 l 0.835225,-0.21499 -0.01449,-0.31831 c -0.01148,-0.25217 0.02426,-0.31832 0.171958,-0.31832 0.141656,0 0.186447,0.0708 0.186447,0.29479 0,0.27348 0.02581,0.29478 0.357272,0.29478 h 0.357273 l -0.06261,0.45683 c -0.03444,0.25126 -0.101917,0.50551 -0.149953,0.565 -0.04804,0.0595 -0.0941,0.54663 -0.102359,1.08251 -0.0083,0.53588 -0.0586,1.04439 -0.111856,1.13001 -0.06895,0.11085 -0.09277,-0.0282 -0.08273,-0.48302 0.0078,-0.35128 0.0035,-0.68292 -0.0095,-0.73696 -0.03323,-0.13836 -0.17946,0.72033 -0.188244,1.10545 -0.0066,0.28984 0.01953,0.31935 0.282879,0.31935 0.342196,0 0.693392,-0.14103 1.232896,-0.49508 0.846889,-0.55577 0.955204,-0.38872 0.147393,0.22732 -0.243198,0.18546 -0.641159,0.43806 -0.884357,0.56133 -0.532261,0.2698 -0.566923,0.31666 -0.511837,0.69198 0.06473,0.44105 0.837071,0.98415 1.886318,1.32641 0.296589,0.0967 0.672441,0.25713 0.835225,0.3564 l 0.295971,0.18049 -0.367428,2.8e-4 c -0.44867,5.6e-4 -1.139128,-0.2555 -1.792033,-0.66429 -0.268954,-0.1684 -0.507213,-0.28798 -0.529462,-0.26573 -0.02225,0.0223 -0.05356,0.22452 -0.06959,0.44948 -0.01602,0.22497 -0.05802,0.57996 -0.09331,0.78888 -0.05254,0.311 -0.03534,0.37986 0.09494,0.37986 0.08751,0 0.186316,-0.0774 0.219566,-0.17196 0.067,-0.19057 0.523447,-0.71239 0.62315,-0.71239 0.03489,0 0.02781,0.25425 -0.01573,0.565 -0.08127,0.58007 0.0022,1.27741 0.250974,2.09672 0.251956,0.82979 0.669965,1.80608 0.912602,2.13145 0.35667,0.47828 0.219255,0.60781 -0.150088,0.14148 -0.338954,-0.42797 -0.794888,-1.44909 -0.982287,-2.19997 -0.208804,-0.83664 -0.297124,-1.00254 -0.461214,-0.86636 -0.08017,0.0666 -0.145765,0.20892 -0.145765,0.3164 0,0.1686 -0.04535,0.18692 -0.330308,0.13347 -0.215343,-0.0404 -0.365032,-0.0186 -0.430072,0.0628 -0.114357,0.14297 -0.115405,2.77005 -0.0011,2.88427 0.04053,0.0405 0.0737,-0.08 0.0737,-0.26785 0,-0.18783 0.06563,-0.42734 0.145853,-0.53225 0.13014,-0.17019 0.139555,-0.0214 0.0874,1.38146 -0.139654,3.75598 -0.13896,3.78325 0.09624,3.78157 0.14265,-10e-4 0.171042,-0.0269 0.08769,-0.0798 -0.138421,-0.0879 -0.131162,-0.62137 0.0098,-0.71898 0.05176,-0.0359 0.09405,-1.09031 0.09754,-2.43199 0.0055,-2.09485 0.02418,-2.36872 0.162055,-2.36872 0.132494,0 0.146368,0.0922 0.09243,0.61413 -0.03491,0.33778 -0.04177,0.79101 -0.01526,1.00719 0.09163,0.74713 0.07111,2.26163 -0.03666,2.70488 -0.05949,0.24468 -0.08763,0.69246 -0.06254,0.99507 0.05555,0.66981 0.181497,0.67378 0.817463,0.0258 0.448224,-0.4567 0.581504,-0.52422 0.581504,-0.29453 0,0.0767 -0.305118,0.41938 -0.678039,0.76153 l -0.678039,0.6221 0.03638,0.58957 c 0.06666,1.08037 0.07239,1.72225 0.01588,1.77875 -0.152072,0.15207 -0.299992,-0.47779 -0.296315,-1.26173 0.003,-0.62964 -0.02927,-0.86094 -0.119942,-0.86094 -0.197129,0 -0.227094,0.30395 -0.127177,1.28999 0.05132,0.50649 0.09106,1.30586 0.0883,1.77637 -0.0027,0.4705 0.03813,0.88212 0.09087,0.91472 0.08734,0.054 0.104629,-0.001 0.135833,-0.4356 0.0055,-0.0766 0.06737,-0.15846 0.137464,-0.18182 0.09419,-0.0314 0.121344,0.0755 0.104049,0.40956 -0.01287,0.24863 -0.0707,0.45204 -0.128506,0.45204 -0.05781,0 -0.160312,0.17689 -0.227785,0.39308 -0.107266,0.34369 -0.09911,0.44553 0.06494,0.81066 0.103191,0.22967 0.212787,0.65745 0.243549,0.95062 0.03076,0.29317 0.09349,0.55847 0.13939,0.58957 0.185284,0.12551 0.236998,0.50409 0.222479,1.62872 -0.01211,0.93781 0.02547,1.31072 0.183581,1.82202 0.369468,1.19475 1.111895,2.03683 2.438963,2.76635 0.391819,0.21539 0.712398,0.41057 0.712398,0.43375 0,0.10438 -0.583598,-0.10543 -1.013713,-0.36445 -0.260299,-0.15676 -0.503498,-0.28506 -0.54044,-0.28511 -0.146298,-2e-4 -1.104277,-1.0058 -1.337793,-1.40427 -0.281631,-0.48056 -0.64548,-1.55169 -0.64548,-1.90021 0,-0.12807 -0.04001,-0.23285 -0.08891,-0.23285 -0.09434,0 -0.04389,0.66921 0.08148,1.08088 0.04115,0.13511 0.08388,0.51647 0.09496,0.84747 0.01581,0.47229 -0.01351,0.61474 -0.136192,0.66182 -0.121802,0.0467 -0.133695,0.1023 -0.05383,0.25151 0.05637,0.10533 0.09809,0.29391 0.0927,0.41907 -0.0097,0.22517 -0.01061,0.22498 -0.08847,-0.0181 -0.0653,-0.2039 -0.0804,-0.21225 -0.08883,-0.0491 -0.0056,0.10809 -0.101635,0.34657 -0.213437,0.52996 -0.238106,0.39056 -0.186968,0.76732 0.119539,0.88071 0.175598,0.0649 0.208761,0.17178 0.2351,0.75727 0.159875,3.55396 0.279156,4.6566 0.573225,5.29893 0.13634,0.29781 0.275057,0.54147 0.308257,0.54147 0.0332,0 0.03304,-0.0442 -3.9e-4,-0.0983 -0.0334,-0.054 -0.0139,-0.0983 0.04333,-0.0983 0.05724,0 0.104062,-0.10794 0.104062,-0.23986 0,-0.13192 0.04422,-0.26718 0.09826,-0.30059 0.05405,-0.0334 0.09826,-0.009 0.09826,0.0537 0,0.22017 -0.313232,1.32301 -0.408525,1.43835 -0.152969,0.18513 -0.856681,0.52327 -0.909878,0.4372 z m 0.767431,-0.63009 c 0.08419,-0.13523 0.07546,-0.19601 -0.0386,-0.26872 -0.213976,-0.1364 -0.29667,-0.11795 -0.231577,0.0517 0.03137,0.0817 -0.0018,0.2195 -0.07365,0.30611 -0.112546,0.13562 -0.105302,0.1525 0.05217,0.12158 0.100575,-0.0197 0.231822,-0.11454 0.291658,-0.21066 z m -1.136484,-1.10266 c 0.01322,-0.19629 -0.02268,-0.34391 -0.08364,-0.34391 -0.06433,0 -0.08867,0.12698 -0.06121,0.31935 0.07181,0.50306 0.112162,0.5099 0.144848,0.0246 z m -0.04572,-0.78609 c -0.0311,-0.0811 -0.07394,-0.1474 -0.09518,-0.1474 -0.02124,0 -0.03862,0.0663 -0.03862,0.1474 0,0.0811 0.04283,0.14739 0.09518,0.14739 0.05234,0 0.06972,-0.0663 0.03862,-0.14739 z m 0.554037,0.0208 c 0,-0.0156 -0.06597,-0.55723 -0.146607,-1.2037 -0.08064,-0.64648 -0.146962,-1.38913 -0.147393,-1.65034 -5.85e-4,-0.33586 -0.03676,-0.46303 -0.123613,-0.43429 -0.156486,0.0518 -0.221338,1.46858 -0.07936,1.73385 0.05545,0.10361 0.129975,0.50212 0.165614,0.88558 0.0455,0.48958 0.10449,0.69721 0.198081,0.69721 0.0733,0 0.133282,-0.0127 0.133282,-0.0283 z m -0.689337,-3.28803 c -7.73e-4,-0.0405 -0.04437,-0.14003 -0.09676,-0.22109 -0.07703,-0.11918 -0.09554,-0.10508 -0.09676,0.0737 -7.73e-4,0.12161 0.04272,0.2211 0.09676,0.2211 0.05404,0 0.09758,-0.0332 0.09676,-0.0737 z m 0.489825,-0.58958 c -0.0024,-0.30067 -0.02163,-0.33647 -0.104254,-0.19453 -0.0557,0.0957 -0.07348,0.26148 -0.03952,0.36848 0.09432,0.29717 0.147078,0.23335 0.143776,-0.17395 z m -0.158548,-0.73696 c 0.05237,-0.41073 0.0376,-0.46674 -0.123098,-0.46674 -0.239324,0 -0.422609,-0.22813 -0.34525,-0.42972 0.03451,-0.0899 0.01242,-0.15985 -0.05052,-0.15985 -0.16753,0 -0.219692,0.21723 -0.179963,0.74945 0.03463,0.46398 0.03823,0.46897 0.116103,0.16107 0.105992,-0.41911 0.250028,-0.31856 0.193741,0.13525 -0.02426,0.19561 -0.01632,0.44323 0.01765,0.55026 0.09781,0.30819 0.300849,0.0131 0.371338,-0.53972 z m -0.343586,-1.79327 v -0.19653 l -0.08445,0.19653 c -0.04645,0.10808 -0.08445,0.28495 -0.08445,0.39304 v 0.19653 l 0.08445,-0.19653 c 0.04645,-0.10809 0.08445,-0.28496 0.08445,-0.39304 z m -1.589514,-2.13106 c -0.03137,-0.0784 -0.05465,-0.0551 -0.05937,0.0594 -0.0043,0.10358 0.01895,0.16162 0.05161,0.12897 0.03265,-0.0327 0.03614,-0.1174 0.0078,-0.18834 z m -0.592146,-1.60017 c 0.170866,-0.11967 0.218594,-0.28939 0.276339,-0.98261 0.03839,-0.46088 0.113231,-0.83796 0.166314,-0.83796 0.05966,0 0.07073,0.20636 0.02899,0.54044 -0.05707,0.45674 -0.04333,0.54045 0.08867,0.54045 0.189403,0 0.456024,-0.48548 0.456024,-0.83035 0,-0.13959 0.05083,-0.23965 0.114794,-0.22597 0.06314,0.0135 0.172616,-0.086 0.243288,-0.22109 0.109012,-0.20841 0.106506,-0.25047 -0.01653,-0.27743 -0.216862,-0.0475 -0.174911,-0.21388 0.05393,-0.21388 0.327194,0 0.392735,-0.37175 0.248107,-1.40725 -0.0718,-0.51405 -0.15826,-0.97948 -0.192142,-1.03431 -0.03388,-0.0548 -0.01666,-0.12744 0.03826,-0.16139 0.05492,-0.0339 0.09986,-0.0149 0.09986,0.0423 0,0.0572 0.04422,0.10406 0.09826,0.10406 0.05405,0 0.09826,-0.0717 0.09826,-0.15942 0,-0.1228 0.03052,-0.1341 0.132824,-0.0492 0.109755,0.0911 0.12809,-0.005 0.105568,-0.55297 -0.01499,-0.36477 -0.0416,-1.22693 -0.05913,-1.9159 -0.01753,-0.68897 -0.03876,-1.25275 -0.04717,-1.25284 -0.1023,-0.001 -0.627114,1.40195 -0.638121,1.7059 -0.01065,0.2941 -0.02605,0.33183 -0.05565,0.13636 -0.02252,-0.14862 -0.07685,-0.27022 -0.120749,-0.27022 -0.160616,0 -0.346223,0.65181 -0.321777,1.13001 0.01381,0.27022 -0.03465,0.76835 -0.107699,1.10697 -0.110673,0.51302 -0.110966,0.6338 -0.0018,0.72443 0.102935,0.0854 0.131343,0.0588 0.132397,-0.12436 0.0021,-0.36349 0.108856,-0.6753 0.231208,-0.67524 0.134368,6e-5 0.159279,2.49216 0.02619,2.62021 -0.04787,0.046 -0.05611,-0.0538 -0.01881,-0.22806 0.03943,-0.1842 0.02416,-0.33608 -0.03766,-0.37428 -0.05721,-0.0353 -0.104691,-0.22749 -0.105519,-0.42697 -0.0016,-0.39793 -0.131192,-0.69284 -0.2324,-0.52908 -0.03407,0.0551 -0.0891,0.44675 -0.122287,0.87028 -0.04068,0.51918 -0.109815,0.80945 -0.212204,0.891 -0.167985,0.13379 -1.00831,2.29203 -0.938074,2.40929 0.07183,0.11993 0.366619,0.0844 0.588399,-0.071 z m 1.073613,-5.73785 c -0.04233,-0.0685 -0.05043,-0.15106 -0.01799,-0.1835 0.08794,-0.0879 0.183825,0.0414 0.136327,0.1839 -0.03328,0.0998 -0.05643,0.0998 -0.118337,-2.8e-4 z m 0.630551,-0.5045 c 0,-0.054 -0.06167,-0.0983 -0.137045,-0.0983 -0.108067,0 -0.118951,-0.0779 -0.05147,-0.36848 0.04707,-0.20267 0.08662,-0.54167 0.08791,-0.75334 0.0013,-0.21168 0.03267,-0.35454 0.06974,-0.31747 0.07704,0.077 0.1523,1.63582 0.07898,1.63582 -0.02646,0 -0.04811,-0.0442 -0.04811,-0.0983 z m 0.768968,5.13937 c 0.02297,-0.47198 0.07845,-0.69299 0.196524,-0.78277 0.144535,-0.10989 0.128713,-0.12453 -0.130266,-0.12046 -0.162132,0.003 -0.244208,0.0254 -0.18239,0.0507 0.119925,0.0492 0.06363,0.42972 -0.06357,0.42972 -0.09856,0 -0.22659,0.85398 -0.147268,0.98233 0.170267,0.2755 0.296878,0.0588 0.326969,-0.55953 z m 0.478268,-0.19984 c -0.02491,-0.0956 -0.04693,-0.0412 -0.04894,0.12096 -0.002,0.16213 0.01838,0.24035 0.04529,0.17382 0.02692,-0.0666 0.02856,-0.19918 0.0037,-0.29478 z m -0.558211,-1.54203 c -0.05766,-0.36093 -0.0789,-0.69818 -0.04721,-0.74946 0.03169,-0.0513 0.0093,-0.0932 -0.04977,-0.0932 -0.136914,0 -0.115811,1.2763 0.02401,1.45174 0.166692,0.20915 0.182543,0.0768 0.07297,-0.60905 z m -0.197716,-1.81829 c 0,-0.166 -0.03885,-0.30181 -0.08634,-0.30181 -0.132014,0 -0.336946,0.56557 -0.269047,0.7425 0.09582,0.24971 0.355388,-0.0722 0.355387,-0.44069 z m -0.999449,-3.39706 c 0.296713,-0.54782 0.244311,-0.67779 -0.147672,-0.36629 -0.122339,0.0972 -0.22127,0.29575 -0.231502,0.46456 -0.03629,0.59873 0.0079,0.58729 0.379174,-0.0983 z m 1.255032,-1.67502 c 0.06947,-0.27678 0.0097,-0.39343 -0.150783,-0.29425 -0.131577,0.0813 -0.13873,0.54448 -0.0084,0.54448 0.05301,0 0.124651,-0.1126 0.159193,-0.25023 z m -0.735831,-2.61043 c 0.17059,-0.17059 0.194449,-0.27128 0.133876,-0.565 -0.110993,-0.53821 -0.144455,-1.09971 -0.158911,-2.66657 -0.0151,-1.63611 -0.04409,-1.77731 -0.342117,-1.66579 -0.275576,0.10312 -0.368816,0.56552 -0.37553,1.86231 -0.003,0.56746 -0.04293,1.08997 -0.08888,1.16112 -0.130574,0.2022 0.01025,0.26068 0.280059,0.11628 0.33436,-0.17894 0.405483,-0.0677 0.16925,0.26457 -0.166841,0.23471 -0.188465,0.38219 -0.144909,0.98827 0.05585,0.77716 0.157487,0.87449 0.52716,0.50481 z m 0.643587,-6.40052 c -0.02725,-0.0675 -0.04956,-0.0123 -0.04956,0.12283 0,0.13511 0.0223,0.19039 0.04956,0.12283 0.02726,-0.0675 0.02726,-0.1781 0,-0.24566 z m 0.565323,-0.0107 c -0.02687,-0.07 -4.5e-5,-0.25653 0.0596,-0.41447 0.07598,-0.20119 0.07667,-0.25576 0.0023,-0.18228 -0.132744,0.13117 -0.299968,0.69687 -0.227435,0.7694 0.09196,0.092 0.21702,-0.0385 0.165536,-0.17265 z m -1.514756,-0.0629 c 0,-0.054 -0.04422,-0.0983 -0.09826,-0.0983 -0.05405,0 -0.09826,0.0442 -0.09826,0.0983 0,0.054 0.04422,0.0983 0.09826,0.0983 0.05405,0 0.09826,-0.0442 0.09826,-0.0983 z m 0.732767,-0.97584 c 0.03109,-0.0503 0.01159,-0.11924 -0.04333,-0.15318 -0.05492,-0.034 -0.09986,0.007 -0.09986,0.0915 0,0.1726 0.05896,0.19802 0.143195,0.0617 z m 0.180035,-8.16242 c 0.02825,-0.10803 0.0113,-0.22119 -0.03767,-0.25145 -0.04897,-0.0303 -0.08904,0.0581 -0.08904,0.19642 0,0.30108 0.05601,0.32541 0.126707,0.055 z m -0.218667,-1.80181 c -0.07391,-0.0739 -0.104564,0.026 -0.104564,0.34089 0,0.57924 0.13823,0.71826 0.17826,0.17929 0.01698,-0.22859 -0.01619,-0.46267 -0.0737,-0.52018 z m -2.56111,41.99759 c -0.08107,-0.0439 -0.310718,-0.10916 -0.510337,-0.14499 -0.3609,-0.0648 -0.609844,-0.39856 -0.400753,-0.53733 0.0509,-0.0338 0.190973,-0.45742 0.311259,-0.94142 0.237025,-0.95373 0.614704,-1.92498 0.676478,-1.73967 0.02112,0.0634 0.07884,0.0902 0.128269,0.0597 0.04943,-0.0306 0.08987,0.0827 0.08987,0.25166 0,0.26249 -0.0286,0.29813 -0.196524,0.24484 -0.137298,-0.0436 -0.196524,-0.0176 -0.196524,0.086 0,0.0816 -0.155556,0.62325 -0.345681,1.20366 -0.234519,0.71592 -0.313515,1.08744 -0.245655,1.15529 0.06786,0.0679 0.100027,0.0305 0.100027,-0.11614 0,-0.16206 0.05535,-0.21333 0.221089,-0.20478 0.166374,0.009 0.178533,0.0225 0.04913,0.0564 -0.09458,0.0247 -0.171958,0.0859 -0.171958,0.13599 0,0.0501 0.07738,0.0986 0.171958,0.10787 0.309196,0.0302 0.561943,0.0534 0.736964,0.0675 0.09458,0.008 0.171958,0.054 0.171958,0.10298 0,0.049 -0.0844,0.067 -0.187563,0.04 -0.117503,-0.0307 -0.200085,0.007 -0.221089,0.10165 -0.02249,0.10106 -0.08207,0.1244 -0.180919,0.0709 z m 1.626507,-2.74972 c -0.03164,-0.0512 -0.01564,-0.11897 0.03556,-0.15061 0.05119,-0.0316 0.118961,-0.0157 0.150598,0.0356 0.03164,0.0512 0.01564,0.11897 -0.03556,0.1506 -0.05119,0.0316 -0.118961,0.0157 -0.150598,-0.0356 z m -0.05281,-0.72079 c 0.0012,-0.17879 0.01973,-0.19289 0.09676,-0.0737 0.123114,0.19051 0.123114,0.29479 0,0.29479 -0.05404,0 -0.09758,-0.0995 -0.09676,-0.22108 z m 4.715064,-1.24777 c 0.702659,-0.36438 0.959038,-0.66676 1.462287,-1.72466 1.358809,-2.8564 1.551471,-6.46524 0.415732,-7.78725 -0.104466,-0.1216 -0.221454,-0.22108 -0.259971,-0.22108 -0.08049,0 -1.243918,-0.81938 -1.438919,-1.0134 -0.0715,-0.0711 -0.201227,-0.1707 -0.288283,-0.22124 -0.258269,-0.14995 -1.156558,-1.22086 -1.631224,-1.94468 -0.514427,-0.78446 -0.915811,-1.62337 -0.942838,-1.97055 -0.03399,-0.43664 0.139121,-0.31601 0.331841,0.23124 0.103605,0.2942 0.232871,0.5794 0.287256,0.63379 0.05438,0.0544 0.09888,0.15311 0.09888,0.21941 0,0.20208 0.987263,1.62536 1.516221,2.18584 0.273981,0.29031 0.987242,0.89554 1.585024,1.34497 0.597782,0.44942 1.138504,0.93044 1.201601,1.06892 0.139868,0.30697 0.290835,0.32543 0.333191,0.0408 0.03153,-0.21192 0.320329,-0.46626 0.418249,-0.36834 0.02879,0.0288 -0.03895,0.22621 -0.150549,0.4387 -0.173656,0.33065 -0.19487,0.49967 -0.147166,1.17244 0.06564,0.92568 0.24993,1.4875 0.993008,3.02717 0.490716,1.01677 0.629887,1.21425 1.290439,1.83114 0.578028,0.53982 0.672542,0.66292 0.430971,0.56134 -0.170187,-0.0716 -0.547876,-0.35455 -0.839307,-0.62887 -0.43476,-0.40925 -0.637598,-0.72525 -1.129971,-1.76042 -0.664147,-1.39632 -0.717414,-1.41424 -0.829343,-0.27903 -0.116355,1.1801 -0.897152,3.50803 -1.444593,4.30703 -0.51517,0.75189 -1.075782,1.15348 -1.593889,1.14178 -0.14074,-0.004 -0.03243,-0.0963 0.331351,-0.28499 z m 6.092232,-2.16683 c -0.131015,-0.0847 -0.131015,-0.0953 0,-0.0953 0.08107,0 0.21372,0.0429 0.294786,0.0953 0.131015,0.0847 0.131015,0.0952 0,0.0952 -0.08107,0 -0.21372,-0.0429 -0.294786,-0.0952 z m -14.444497,-0.19568 c 0,-0.0384 0.165818,-0.142 0.368482,-0.23033 0.657467,-0.28655 1.002674,-0.5052 1.004952,-0.63654 0.0012,-0.0707 0.04933,-0.0995 0.106894,-0.064 0.133863,0.0827 -0.134194,0.38915 -0.595971,0.68127 -0.353625,0.2237 -0.884357,0.37345 -0.884357,0.24954 z m 5.279527,-0.4537 c -0.03941,-0.0394 -0.07031,-0.16376 -0.06866,-0.27636 0.0027,-0.18901 0.01083,-0.19124 0.105216,-0.029 0.109917,0.18887 0.0818,0.42376 -0.03655,0.30541 z m -11.323786,-1.16372 c -0.320786,-0.34013 -0.444916,-0.64422 -0.262974,-0.64422 0.04388,0 0.177858,0.13265 0.297728,0.29478 0.461105,0.62368 0.993155,0.32162 1.705043,-0.968 0.511411,-0.92645 0.614766,-0.75987 0.133218,0.2147 -0.45689,0.92468 -0.804171,1.32807 -1.209748,1.40521 -0.27975,0.0532 -0.364101,0.0148 -0.663267,-0.30247 z m 9.306059,-0.39856 c 0.002,-0.16214 0.02402,-0.21657 0.04894,-0.12096 0.02492,0.0956 0.02328,0.22825 -0.0037,0.29478 -0.02692,0.0666 -0.0473,-0.0117 -0.0453,-0.17382 z m 11.341502,-0.55388 c -0.290259,-0.15309 -0.399574,-0.17224 -0.456583,-0.08 -0.121568,0.19671 -0.592189,-0.20838 -0.969394,-0.83441 -0.534796,-0.88757 -0.779273,-1.72074 -0.854704,-2.9128 -0.06634,-1.04842 -0.0701,-1.06112 -0.348262,-1.17634 -0.15466,-0.0641 -0.281199,-0.15533 -0.281199,-0.20281 0,-0.0475 -0.08582,-0.0863 -0.190724,-0.0863 -0.104899,0 -0.213075,-0.0362 -0.24039,-0.0804 -0.02732,-0.0442 -0.491327,-0.37817 -1.031136,-0.74215 -2.086547,-1.40693 -3.023152,-2.95085 -2.448463,-4.03611 0.148709,-0.28083 0.151776,-0.26849 0.102948,0.41394 -0.03919,0.54783 -0.01163,0.78569 0.124627,1.07554 0.277677,0.59067 1.658718,1.87165 3.013147,2.79483 1.312897,0.89487 1.357824,0.90358 1.357824,0.2633 0,-0.19302 0.04244,-0.2803 0.122828,-0.25258 0.06755,0.0233 0.11427,0.17068 0.103809,0.32753 -0.06857,1.02835 -0.03894,2.52042 0.05811,2.92596 0.18321,0.76558 0.95283,2.29557 1.193079,2.37182 0.279176,0.0886 0.35595,-0.011 0.170894,-0.22172 -0.08335,-0.0949 -0.184296,-0.2831 -0.224325,-0.41821 -0.04003,-0.13512 -0.106007,-0.28987 -0.146619,-0.34392 -0.119811,-0.15943 -0.218909,-1.03175 -0.117211,-1.03175 0.05045,0 0.120656,0.18093 0.156016,0.40207 0.22634,1.41544 1.301511,2.07477 2.884115,1.76861 0.555142,-0.1074 0.535824,0.0169 -0.02598,0.16723 -0.679199,0.18166 -1.508358,0.14287 -1.952408,-0.0913 z m -11.243241,-0.13396 c 0.002,-0.16213 0.02402,-0.21656 0.04894,-0.12096 0.02491,0.0956 0.02328,0.22826 -0.0037,0.29479 -0.02692,0.0666 -0.0473,-0.0117 -0.0453,-0.17383 z m 5.078082,-1.77358 c -1.919603,-0.79464 -2.919139,-2.43141 -2.731947,-4.47365 0.103796,-1.1324 0.238647,-0.97256 0.238647,0.28287 0,1.0883 0.01667,1.18472 0.312963,1.81018 0.558437,1.17883 1.315074,1.81887 2.81823,2.38396 0.474649,0.17843 0.538642,0.22694 0.346757,0.26283 -0.131803,0.0247 -0.564924,-0.0924 -0.98465,-0.26619 z m -5.293762,-0.13672 c 0,-0.0509 0.04422,-0.1198 0.09826,-0.1532 0.05404,-0.0334 0.09826,0.008 0.09826,0.0925 0,0.0842 -0.04422,0.15319 -0.09826,0.15319 -0.05405,0 -0.09826,-0.0416 -0.09826,-0.0925 z m -9.629659,-0.73157 c 0,-0.11692 0.543705,-0.45338 0.732641,-0.45338 0.127752,0 1.189379,-0.777 1.432538,-1.04846 0.456097,-0.5092 0.942318,-1.15712 1.232567,-1.64248 0.15789,-0.26402 0.359719,-0.59565 0.448509,-0.73696 0.08879,-0.1413 0.36888,-0.66957 0.622426,-1.17393 0.253546,-0.50435 0.481344,-0.89665 0.506219,-0.87177 0.06166,0.0616 -0.446935,1.33674 -0.654706,1.64139 -0.09214,0.13511 -0.267879,0.44463 -0.390523,0.68784 -0.732089,1.45169 -1.994329,2.88485 -3.009938,3.41751 -0.652162,0.34205 -0.919733,0.39448 -0.919733,0.18024 z m 21.424028,0.0105 c -0.363889,-0.18413 -0.66393,-0.6983 -0.74436,-1.27559 -0.138812,-0.99633 -0.04922,-2.52918 0.147832,-2.52918 0.04325,0 0.05589,0.47996 0.02808,1.06656 -0.08796,1.85584 0.192126,2.43655 1.304986,2.70561 l 0.587039,0.14193 -0.54044,0.007 c -0.297241,0.004 -0.649656,-0.0485 -0.783144,-0.11607 z m 2.547368,-0.19364 c -0.360106,-0.38154 -0.708835,-1.05526 -0.844443,-1.63141 -0.17976,-0.76372 -0.170314,-0.89884 0.06284,-0.89884 0.171558,0 0.196534,0.0656 0.196601,0.51588 9.8e-5,0.65564 0.432384,1.60624 0.896873,1.97222 0.298709,0.23536 0.309937,0.26116 0.114061,0.26214 -0.119493,5.6e-4 -0.311162,-0.0984 -0.42593,-0.21999 z m -18.314321,-0.32638 c -0.08493,-0.0849 -0.154412,-0.24739 -0.154412,-0.36104 v -0.20663 l 0.228859,0.215 0.228858,0.215 0.399316,-0.27157 c 0.576491,-0.39206 1.046759,-1.06458 1.764664,-2.52357 0.695144,-1.41275 0.764165,-1.19757 0.103941,0.32403 -0.490672,1.13085 -1.087093,2.02099 -1.637447,2.44385 -0.460375,0.35373 -0.702267,0.39645 -0.933779,0.16493 z m -8.624241,-1.36742 c -0.377372,-0.25643 -0.556301,-0.59492 -0.398104,-0.75312 0.05905,-0.059 0.155831,0.002 0.263059,0.16549 0.231647,0.35354 0.759575,0.56116 1.215848,0.47815 0.421625,-0.0767 1.170843,-0.39916 1.41962,-0.611 0.152422,-0.12979 0.171958,-0.12968 0.171958,10e-4 0,0.18643 -0.236218,0.38349 -0.736964,0.61479 -0.216176,0.0999 -0.469828,0.21926 -0.563671,0.26535 -0.344292,0.1691 -0.999393,0.0924 -1.371746,-0.16063 z m 7.739884,-0.30302 c -0.211363,-0.21137 -0.194241,-0.25238 0.07695,-0.18432 0.194626,0.0488 0.291252,-0.0249 0.608563,-0.46486 0.20746,-0.28762 0.572442,-0.91242 0.81107,-1.38844 0.238629,-0.47601 0.458025,-0.84133 0.487546,-0.8118 0.04964,0.0496 -0.369897,1.1272 -0.614773,1.57903 -0.325207,0.60005 -0.779349,1.24367 -0.937132,1.32811 -0.235488,0.12602 -0.250476,0.12402 -0.432224,-0.0577 z m 18.534192,-1.09171 c -0.4651,-0.16451 -1.133876,-0.75261 -1.531733,-1.34697 -0.269103,-0.40201 -0.3143,-0.5513 -0.166911,-0.5513 0.04891,0 0.199725,0.18793 0.335149,0.41762 0.480947,0.81572 1.321822,1.39126 1.995412,1.36578 0.425128,-0.0161 0.575847,0.10489 0.274677,0.22046 -0.22587,0.0867 -0.430308,0.0628 -0.906594,-0.10559 z m -23.405171,-0.54963 c -0.162533,-0.0827 -0.256589,-0.2239 -0.277969,-0.41743 l -0.03231,-0.29251 0.218476,0.23222 c 0.185755,0.19745 0.288534,0.2255 0.686251,0.18729 0.257276,-0.0247 0.678105,-0.15511 0.935174,-0.28975 0.511821,-0.26806 2.183947,-1.72869 2.196503,-1.91867 0.01124,-0.17007 0.501171,-0.87075 0.580199,-0.82977 0.09974,0.0517 0.02796,0.22592 -0.236184,0.57319 -0.130858,0.17204 -0.237925,0.35295 -0.237925,0.40203 0,0.0491 -0.287416,0.36524 -0.638702,0.70256 -0.351286,0.33732 -0.638701,0.64785 -0.638701,0.69005 0,0.0813 -0.504672,0.43538 -1.087623,0.76305 -0.470934,0.26471 -1.154363,0.35681 -1.467185,0.19774 z m 18.424092,0.0324 c -0.523678,-0.21433 -0.815879,-0.88175 -0.899054,-2.05355 -0.07283,-1.02597 0.0065,-1.58751 0.224311,-1.58751 0.125733,0 0.137538,0.0712 0.06925,0.41762 -0.118677,0.60196 -0.09387,1.52509 0.05522,2.05509 0.156935,0.55788 0.530966,0.9356 1.103188,1.11407 l 0.429708,0.13402 -0.393047,2.9e-4 c -0.216176,1.9e-4 -0.481483,-0.0358 -0.589571,-0.0801 z m 7.855458,-0.44383 c -0.651553,-0.22127 -1.276495,-0.80412 -1.900445,-1.77243 -0.413197,-0.64124 -0.592929,-1.32653 -0.347911,-1.32653 0.07854,0 0.141215,0.0928 0.141215,0.20913 0,0.53965 1.281086,2.19317 1.972472,2.54589 0.449172,0.22915 0.857489,0.24472 1.322454,0.0505 0.372452,-0.15562 0.46064,-0.078 0.139358,0.12262 -0.315599,0.19709 -0.993068,0.28432 -1.327143,0.17086 z M 53.42158,279.44228 c 0.05785,-0.10809 0.125729,-0.19652 0.15085,-0.19652 0.02512,0 0.04567,0.0884 0.04567,0.19652 0,0.11118 -0.06551,0.19652 -0.150849,0.19652 -0.120401,0 -0.129621,-0.0396 -0.04567,-0.19652 z m -11.398372,-1.43974 c -0.355988,-0.11729 -0.58957,-0.27366 -0.58957,-0.39471 0,-0.16657 0.131178,-0.16339 0.728014,0.0176 0.856687,0.25989 1.691423,0.11212 0.869645,-0.15394 -0.718335,-0.23258 -1.299935,-0.57567 -1.240117,-0.73155 0.07285,-0.18984 0.02898,-0.20114 0.744521,0.19178 0.339635,0.1865 0.805444,0.36902 1.035131,0.4056 0.229687,0.0366 0.417613,0.10508 0.417613,0.15222 0,0.0472 -0.0511,0.0857 -0.113553,0.0857 -0.06245,0 -0.258483,0.11054 -0.435622,0.24565 -0.245873,0.18754 -0.434043,0.24383 -0.795369,0.2379 -0.260316,-0.004 -0.539627,-0.0296 -0.620693,-0.0563 z m 11.399877,-0.0588 c 7.73e-4,-0.0675 0.04437,-0.18915 0.09676,-0.27021 0.07422,-0.11486 0.09558,-0.0878 0.09676,0.12282 7.73e-4,0.14862 -0.04272,0.27022 -0.09676,0.27022 -0.05405,0 -0.09759,-0.0552 -0.09676,-0.12283 z m -6.585047,-0.21528 c 0,-0.0779 0.04009,-0.16638 0.0891,-0.19667 0.04901,-0.0303 0.06596,0.0335 0.03767,0.1416 -0.06,0.22944 -0.126769,0.25844 -0.126769,0.0551 z m 16.99722,-0.32924 c -0.5848,-0.22098 -0.682701,-0.29291 -1.027554,-0.75499 -0.386935,-0.51846 -0.641872,-1.02977 -0.636246,-1.27607 0.003,-0.1307 0.09201,-0.0296 0.256152,0.291 0.351046,0.68556 0.768387,1.09182 1.48342,1.44404 0.878935,0.43296 0.826696,0.63703 -0.07577,0.29602 z m -5.389716,-0.13351 c -1.132873,-0.3259 -3.016616,-2.03342 -2.835283,-2.57005 0.02181,-0.0646 0.117159,0.032 0.211878,0.21445 0.394131,0.75946 1.541705,1.71517 2.510601,2.09087 0.325328,0.12616 0.591504,0.26276 0.591504,0.30356 0,0.0889 -0.04846,0.0849 -0.4787,-0.0389 z m 10.5429,-0.4172 c -0.355355,-0.15731 -1.024112,-0.72365 -1.024112,-0.86728 0,-0.0549 0.161829,0.0237 0.359619,0.17455 0.490255,0.37394 0.958674,0.5257 1.638372,0.53082 0.413247,0.003 0.561877,0.0386 0.532639,0.12713 -0.0578,0.17506 -1.133522,0.19989 -1.506518,0.0348 z m -34.776466,-0.0584 c -0.06139,-0.0993 0.188076,-0.19746 0.501933,-0.19746 0.254201,0 1.772411,-0.55296 1.846254,-0.67244 0.02379,-0.0385 -0.273863,-0.0713 -0.661449,-0.0729 -0.479429,-0.002 -0.809709,-0.0584 -1.033185,-0.17647 -0.448818,-0.23715 -0.340571,-0.28931 0.343104,-0.16533 0.44591,0.0809 0.741984,0.0725 1.315104,-0.0372 1.032731,-0.1976 1.195623,-0.27476 1.707339,-0.80878 0.451238,-0.47091 0.572487,-0.45297 0.313763,0.0464 -0.167141,0.32262 -0.783764,0.88672 -1.243801,1.13786 -0.186072,0.10158 -0.515185,0.28005 -0.731361,0.39659 -0.715946,0.38598 -2.239364,0.74115 -2.357701,0.54967 z m 11.938229,-0.32268 c 0,-0.0869 0.04033,-0.18289 0.08964,-0.21337 0.0493,-0.0304 0.08006,0.01 0.06835,0.0896 -0.03088,0.2104 -0.157989,0.30996 -0.157989,0.12375 z m 14.919182,-0.8483 c -0.674367,-0.0599 -0.832545,-0.12235 -0.73009,-0.28812 0.07124,-0.11526 0.45192,-0.0312 0.45192,0.0998 0,0.051 0.04435,0.0652 0.09855,0.0317 0.136946,-0.0846 0.982329,0.0519 0.982329,0.15873 0,0.0479 -0.03316,0.0801 -0.0737,0.0716 -0.04053,-0.009 -0.368589,-0.0417 -0.729014,-0.0737 z m 4.886153,-0.10536 c -0.491576,-0.0958 -0.840803,-0.4842 -0.840803,-0.93517 0,-0.4533 0.171733,-0.52718 0.25042,-0.10774 0.0351,0.18713 0.146089,0.41467 0.246633,0.50567 0.274932,0.24881 0.970672,0.29095 1.561836,0.0946 0.537552,-0.17854 0.70034,-0.14958 0.502061,0.0893 -0.234964,0.28312 -1.133407,0.46765 -1.720147,0.35332 z m -6.539988,-0.20389 c -0.08107,-0.0445 -0.4127,-0.19954 -0.736964,-0.34454 -1.101975,-0.4928 -2.261612,-1.42577 -2.56387,-2.06273 -0.187217,-0.39453 -0.1184,-1.02653 0.111776,-1.02653 0.104208,0 0.14294,0.12157 0.14294,0.44864 0,0.24675 0.04221,0.5275 0.0938,0.6239 0.280365,0.52386 2.643163,2.07184 3.162417,2.07184 0.100622,0 0.18295,0.0388 0.18295,0.0862 0,0.15953 -0.243359,0.28535 -0.393047,0.20319 z m 8.450516,-0.41318 c 0,-0.14072 0.267249,-0.33071 0.828955,-0.58931 l 0.386774,-0.17806 -0.180915,0.19991 c -0.0995,0.10995 -0.216003,0.19991 -0.258887,0.19991 -0.04288,0 -0.197248,0.11055 -0.343034,0.24565 -0.292391,0.27099 -0.432893,0.31055 -0.432893,0.1219 z m -15.820153,-0.36752 c 0,-0.054 0.04422,-0.0983 0.09826,-0.0983 0.05405,0 0.09826,0.0442 0.09826,0.0983 0,0.054 -0.04422,0.0983 -0.09826,0.0983 -0.05404,0 -0.09826,-0.0442 -0.09826,-0.0983 z m -8.794434,-0.56106 c -0.33172,-0.0824 -0.540594,-0.33805 -0.537452,-0.65788 0.0027,-0.27494 0.0133,-0.28526 0.110478,-0.10759 0.253034,0.46261 0.66387,0.54444 1.674976,0.33359 0.968349,-0.20194 1.924366,-0.73832 2.93912,-1.64901 0.589442,-0.529 0.640221,-0.34628 0.0627,0.22561 -0.87671,0.86817 -2.236038,1.63668 -3.135681,1.77279 -0.815367,0.12336 -0.918754,0.13101 -1.114144,0.0825 z m 19.790887,-1.32765 c -0.384064,-0.19301 -0.565005,-0.32959 -0.463699,-0.35 0.09137,-0.0184 0.288645,0.0467 0.438382,0.14456 0.563443,0.36847 2.405316,0.13951 2.557804,-0.31796 0.01855,-0.0556 -0.198995,-0.18033 -0.483421,-0.2771 -0.568009,-0.19328 -1.263092,-0.62714 -1.330351,-0.83038 -0.02423,-0.0732 0.186059,-5.5e-4 0.483433,0.16711 1.020508,0.57523 2.076351,0.66534 3.462093,0.29548 0.252118,-0.0673 0.413975,-0.0687 0.478525,-0.004 0.116502,0.11651 -0.291701,0.24261 -1.522773,0.47045 -0.583852,0.10805 -0.859791,0.20222 -0.859791,0.29341 0,0.0739 -0.183506,0.26722 -0.40779,0.42969 -0.356559,0.25829 -0.490381,0.2954 -1.065186,0.2954 -0.544611,0 -0.76545,-0.0543 -1.287226,-0.31651 z m -18.894305,0.0219 c -0.592928,-0.23159 -1.240498,-0.67165 -1.240498,-0.84301 0,-0.25907 0.175425,-0.221 0.660207,0.14326 0.272915,0.20506 0.697473,0.42919 0.943461,0.49806 0.24599,0.0689 0.470805,0.1866 0.499589,0.26161 0.0739,0.19258 -0.27901,0.16807 -0.862759,-0.06 z m 4.991477,-0.2521 c -0.08706,-0.46408 -0.0067,-1.01002 0.241127,-1.63982 0.111651,-0.28364 0.356076,-0.93578 0.543164,-1.4492 0.187088,-0.51342 0.410826,-1.08826 0.497197,-1.27741 l 0.157037,-0.34391 -0.0579,0.34391 c -0.03184,0.18915 -0.09747,0.43236 -0.145844,0.54044 -0.32557,0.72747 -0.911129,2.8498 -0.955657,3.46373 -0.05579,0.76919 -0.174007,0.92262 -0.279131,0.36226 z m 9.293393,-0.27657 c 0,-0.0745 -0.08962,-0.19607 -0.199158,-0.27023 -0.364739,-0.24689 -0.673243,-1.3942 -0.747278,-2.7791 l -0.06699,-1.25316 0.627509,0.59712 c 0.345129,0.32842 0.871621,0.71445 1.169981,0.85786 0.298362,0.14341 0.575504,0.27882 0.615874,0.30091 0.08637,0.0473 -0.05104,-0.3339 -0.280003,-0.77665 -0.290859,-0.56246 -0.598972,-1.70977 -0.685209,-2.55148 -0.04735,-0.46217 -0.02406,-0.72013 0.08955,-0.99204 0.181783,-0.43507 0.421237,-0.51005 0.310532,-0.0972 -0.03986,0.14862 -0.09284,0.59418 -0.117743,0.99012 -0.03757,0.59741 -3.07e-4,0.85659 0.219046,1.52306 0.576054,1.75035 1.104701,2.57081 2.208788,3.42806 l 0.343403,0.26664 -0.338598,-0.111 c -0.197792,-0.0649 -0.609661,-0.39024 -0.990426,-0.7825 -0.491897,-0.50675 -0.71766,-0.67151 -0.92014,-0.67151 -0.374331,0 -1.120275,-0.52241 -1.559976,-1.09251 -0.510389,-0.66174 -0.606117,-0.62842 -0.52759,0.18359 0.121667,1.25808 0.331272,1.99047 0.746749,2.60922 0.365441,0.54422 0.419872,0.75625 0.194149,0.75625 -0.05086,0 -0.09246,-0.0609 -0.09246,-0.13541 z m -19.127408,-0.34059 c -0.695537,-0.30489 -1.479496,-0.79373 -1.747004,-1.08931 -0.289462,-0.31986 0.0048,-0.24774 0.521049,0.12772 0.250439,0.18212 0.809086,0.51941 1.241438,0.74954 0.432352,0.23013 0.804519,0.43486 0.827037,0.45496 0.129569,0.11569 -0.320508,-0.014 -0.84252,-0.24291 z m 12.362857,-0.0153 c 0,-0.13511 0.0223,-0.19038 0.04956,-0.12282 0.02725,0.0675 0.02725,0.17809 0,0.24565 -0.02725,0.0675 -0.04956,0.0123 -0.04956,-0.12283 z m 10.572196,-0.0677 c -0.09458,-0.0247 -0.171958,-0.0859 -0.171958,-0.136 0,-0.13882 0.157855,-0.10865 0.294786,0.0564 0.06728,0.0811 0.105856,0.14227 0.08573,0.136 -0.02013,-0.006 -0.113977,-0.0316 -0.208555,-0.0564 z m -19.824322,-0.6855 c -0.559909,-0.0882 -0.687833,-0.14261 -0.687833,-0.29262 0,-0.12479 0.06512,-0.14478 0.311323,-0.0955 0.171227,0.0342 0.6148,0.0905 0.985718,0.12495 0.685096,0.0637 0.918422,0.17825 0.606619,0.29791 -0.0991,0.038 -0.188711,0.0169 -0.210939,-0.0498 -0.0469,-0.14069 -0.317056,-0.15575 -0.317056,-0.0177 0,0.0973 -0.213444,0.10752 -0.687832,0.0328 z m 1.842409,-0.0979 c 0.06755,-0.0273 0.178099,-0.0273 0.245654,0 0.06755,0.0273 0.01229,0.0496 -0.122827,0.0496 -0.13511,0 -0.190382,-0.0223 -0.122827,-0.0496 z m 22.726644,-0.21893 c -0.707553,-0.37428 -0.765626,-0.56682 -0.09399,-0.31161 0.284694,0.10818 0.77181,0.22544 1.082479,0.26058 0.423258,0.0479 0.551815,0.0979 0.512836,0.19948 -0.09457,0.24643 -0.90659,0.16614 -1.501326,-0.14845 z m -32.769537,0.0804 c 0.03208,-0.0519 0.09723,-0.0703 0.144764,-0.041 0.131693,0.0814 0.959785,-0.15206 1.08819,-0.30678 0.09383,-0.11307 0.03646,-0.13648 -0.334428,-0.13648 -0.570955,0 -2.705402,-0.35696 -2.853906,-0.47728 -0.06187,-0.0501 -0.200933,-0.11288 -0.309021,-0.13945 -0.518255,-0.12739 0.282184,-0.0598 1.04546,0.0883 0.49491,0.096 1.387964,0.16437 2.246311,0.17195 l 1.424797,0.0126 0.835226,-0.40117 c 0.902497,-0.43349 1.375665,-0.58757 1.375665,-0.44796 0,0.13969 -0.192035,0.2577 -1.031749,0.634 -0.432352,0.19374 -0.800613,0.42205 -0.818358,0.50735 -0.02231,0.10726 -0.128361,0.14909 -0.343917,0.13565 -0.171409,-0.0107 -0.580949,0.077 -0.91009,0.19479 -0.644894,0.23084 -1.657075,0.36426 -1.558944,0.20548 z m 14.390978,-0.2761 c 0,-0.0541 0.04422,-0.12559 0.09826,-0.15899 0.05404,-0.0334 0.09826,-0.0165 0.09826,0.0375 0,0.054 -0.04422,0.12559 -0.09826,0.15899 -0.05405,0.0334 -0.09826,0.0165 -0.09826,-0.0375 z m 17.441475,-0.40465 c -0.0334,-0.054 -0.01651,-0.0983 0.03753,-0.0983 0.05405,0 0.12559,0.0442 0.158991,0.0983 0.0334,0.0541 0.01651,0.0983 -0.03753,0.0983 -0.05405,0 -0.125589,-0.0442 -0.158991,-0.0983 z m -3.281504,-1.23515 c -0.698395,-0.23787 -0.921435,-0.36839 -1.611502,-0.94305 -0.442634,-0.36861 -0.262094,-0.46093 0.19449,-0.0994 0.805943,0.63806 1.648304,0.90014 2.897201,0.90142 0.665034,5.6e-4 0.873903,0.0669 0.801979,0.25435 -0.09351,0.2437 -1.428676,0.17743 -2.282168,-0.11327 z m -20.492073,0.004 c -0.104907,-0.0794 -0.268196,-0.14427 -0.362865,-0.14427 -0.213864,0 -0.871193,-0.37986 -0.871193,-0.50344 0,-0.05 -0.108233,-0.13214 -0.240517,-0.18244 -0.320797,-0.12197 -1.036887,-0.77589 -1.036887,-0.94687 0,-0.0748 -0.06632,-0.13596 -0.147392,-0.13596 -0.08107,0 -0.147393,-0.0663 -0.147393,-0.1474 0,-0.24163 0.174813,-0.16995 0.565115,0.23171 0.514152,0.52912 1.598985,1.34556 2.131904,1.60448 0.246048,0.11954 0.447359,0.25275 0.447359,0.29603 0,0.11675 -0.123471,0.0905 -0.338131,-0.0718 z m 2.834962,-0.008 c -0.04918,-0.012 -0.24847,-0.0482 -0.44287,-0.0806 -0.370326,-0.0616 -0.580033,-0.33959 -0.580033,-0.76885 0,-0.18936 0.03086,-0.17579 0.280624,0.12339 0.238309,0.28545 0.360544,0.34447 0.810659,0.39141 0.589399,0.0614 1.085784,-0.043 1.478693,-0.31127 0.143452,-0.0979 0.348073,-0.17806 0.454712,-0.17806 0.106639,0 0.248935,-0.0663 0.316214,-0.14739 0.06728,-0.0811 0.166047,-0.14739 0.219483,-0.14739 0.05344,0 0.323062,-0.18793 0.599164,-0.41761 l 0.502005,-0.41761 -0.286379,0.36161 c -0.296944,0.37497 -1.643147,1.19342 -2.164284,1.31582 -0.162132,0.0381 -0.339004,0.10181 -0.393048,0.14162 -0.106208,0.0782 -0.649205,0.17037 -0.79494,0.1349 z m 20.15252,-0.39003 c -0.324264,-0.1371 -0.832769,-0.34312 -1.130011,-0.45783 -0.626296,-0.24169 -1.272271,-0.66144 -1.275306,-0.82866 -0.0039,-0.21577 0.340839,-0.19367 0.538342,0.0345 0.108088,0.12487 0.771355,0.51289 1.473928,0.86227 1.277878,0.63546 1.503543,0.85922 0.393047,0.38972 z m -12.225839,-0.19644 c 0.0047,-0.11447 0.028,-0.13776 0.05936,-0.0594 0.02839,0.0709 0.02489,0.15569 -0.0078,0.18833 -0.03265,0.0327 -0.05587,-0.0254 -0.05161,-0.12896 z m -7.131741,-0.14683 c -0.777267,-0.12463 -1.483036,-0.60884 -1.806318,-1.23926 -0.204514,-0.3988 0.05004,-0.31943 0.428824,0.13373 0.378119,0.45235 0.992898,0.80284 1.595614,0.90968 0.190059,0.0337 0.288142,0.0966 0.245654,0.15748 -0.0418,0.0599 -0.231483,0.0756 -0.463774,0.0384 z m 7.118118,-0.28716 c -0.04978,-0.9019 -0.04548,-1.09828 0.02494,-1.1418 0.04355,-0.0269 0.07919,0.0775 0.07919,0.23198 0,0.15452 0.04533,0.32627 0.10074,0.38168 0.06881,0.0688 0.05446,0.20739 -0.04529,0.43727 -0.135448,0.31215 -0.147007,0.31873 -0.159582,0.0909 z m 16.604392,-0.0361 c -0.193403,-0.0692 -0.45871,-0.20395 -0.589572,-0.29957 l -0.237933,-0.17386 0.245656,0.0685 c 0.68286,0.19034 1.187671,0.37535 1.235565,0.45284 0.07589,0.12279 -0.241311,0.0996 -0.653716,-0.0479 z m -3.785299,-0.69136 c -0.09371,-0.24421 0.01068,-0.29533 0.545204,-0.26696 0.352946,0.0188 0.663727,-0.051 1.163712,-0.26106 0.624356,-0.26232 0.677984,-0.27063 0.632845,-0.098 -0.116951,0.44722 -2.196996,1.0033 -2.341761,0.62604 z M 34.402132,266.6129 c -0.177809,-0.14378 -0.156481,-0.15084 0.314632,-0.10413 0.277955,0.0276 0.531191,0.0243 0.562748,-0.007 0.03156,-0.0316 -0.287788,-0.43793 -0.709655,-0.90305 -0.421869,-0.46511 -0.797331,-0.9283 -0.834361,-1.02929 -0.05659,-0.15435 1.232019,0.90745 1.70417,1.40421 0.323218,0.34007 0.653294,0.43549 1.100742,0.31822 1.081923,-0.28353 1.847113,-0.29867 1.847113,-0.0365 0,0.0461 -0.342689,0.14087 -0.761529,0.21061 -0.418841,0.0697 -0.96051,0.16346 -1.203708,0.20828 -0.770729,0.14204 -1.807765,0.11071 -2.020152,-0.061 z m 14.695927,-0.0794 c 0,-0.0204 0.07738,-0.0978 0.171959,-0.17196 0.155849,-0.12222 0.159325,-0.11875 0.0371,0.0371 -0.128366,0.16368 -0.209058,0.21573 -0.209058,0.13486 z m 19.259318,-0.26601 c 0,-0.0451 0.128347,-0.0728 0.285211,-0.0614 0.156867,0.0113 0.268218,0.0482 0.247447,0.082 -0.05676,0.0923 -0.532658,0.0739 -0.532658,-0.0206 z m -30.432732,-0.5296 c -0.49184,-0.21386 -2.215942,-2.12215 -2.059059,-2.27903 0.03335,-0.0333 0.382278,0.27224 0.775407,0.67908 0.393128,0.40684 0.992261,0.92405 1.331406,1.14936 0.339145,0.22531 0.590788,0.45146 0.559207,0.50256 -0.0772,0.1249 -0.23035,0.11179 -0.606961,-0.0519 z m 29.02742,0.0453 c -0.494233,-0.14842 -2.341736,-1.11946 -2.659626,-1.39788 -0.240529,-0.21067 -0.154174,-0.32747 0.129761,-0.17552 0.114759,0.0614 0.295417,0.0841 0.401463,0.0505 0.150185,-0.0476 0.192812,-0.0152 0.192812,0.14711 0,0.24468 0.855875,0.68384 1.815534,0.93158 0.322994,0.0834 0.675508,0.23984 0.783365,0.3477 0.195965,0.19597 0.195896,0.1961 -0.09595,0.18766 -0.16063,-0.005 -0.415941,-0.0457 -0.567357,-0.0911 z m -24.977987,-0.22618 c -0.108088,-0.0644 -0.229584,-0.1682 -0.269989,-0.23073 -0.0404,-0.0625 -0.150951,-0.0936 -0.245655,-0.0691 -0.0947,0.0245 -0.324489,-0.068 -0.510631,-0.20566 -0.186142,-0.13766 -0.391446,-0.25028 -0.456231,-0.25028 -0.163734,0 -0.243285,-0.24928 -0.119162,-0.37341 0.131865,-0.13185 0.357549,-0.0507 0.676483,0.24322 0.139677,0.12873 0.670292,0.38055 1.179142,0.5596 0.508852,0.17905 0.991511,0.35509 1.072577,0.39121 0.166963,0.0744 -0.319077,0.005 -0.678632,-0.0968 -0.166618,-0.0471 -0.215693,-0.0334 -0.166159,0.0467 0.09221,0.1492 -0.222586,0.13949 -0.481743,-0.0149 z m 19.40671,0.0277 c -0.981945,-0.13653 -1.675934,-0.46453 -3.449907,-1.63052 -0.522436,-0.34338 -0.976247,-0.69303 -1.008469,-0.777 -0.04028,-0.10497 -0.02069,-0.12839 0.0627,-0.0749 0.06671,0.0427 0.431175,0.28298 0.80993,0.53385 1.488013,0.98559 3.042613,1.65648 3.838434,1.65648 0.119266,0 0.321237,0.087 0.448824,0.19325 0.269664,0.22466 0.236579,0.22932 -0.701514,0.0989 z m -0.07392,-0.86324 c -0.609116,-0.21827 -0.863014,-0.42843 -1.115673,-0.92347 -0.202586,-0.39693 -0.234671,-0.73297 -0.09159,-0.95921 0.107409,-0.16985 0.146097,-0.0909 0.243004,0.49591 0.05878,0.35592 0.382396,0.73574 0.841657,0.98782 0.17175,0.0943 0.64684,0.13721 1.579163,0.14273 0.733429,0.004 1.39132,0.0436 1.46198,0.0873 0.259834,0.16059 -0.221144,0.27599 -1.312683,0.31496 -0.888684,0.0317 -1.184985,0.005 -1.605861,-0.14603 z m -19.238673,-0.32664 c -0.252686,-0.20881 -0.515921,-0.37965 -0.584968,-0.37965 -0.06905,0 -0.145011,-0.13265 -0.168807,-0.29479 -0.06482,-0.44165 0.152307,-0.37629 0.827957,0.24924 0.323185,0.29922 0.727057,0.60188 0.89749,0.67261 l 0.309881,0.12857 -0.411064,0.002 c -0.333845,0.001 -0.497367,-0.0695 -0.870489,-0.37782 z m 4.32767,0.0456 c -0.361471,-0.0795 -0.782819,-0.26431 -1.154577,-0.5063 -0.284348,-0.1851 -0.368482,-0.30419 -0.368482,-0.52159 0,-0.15496 0.04422,-0.28173 0.09826,-0.28173 0.05404,0 0.09826,0.0641 0.09826,0.14239 0,0.18057 0.536572,0.58237 0.972715,0.72839 0.183709,0.0615 0.714323,0.11766 1.179142,0.12477 0.632049,0.01 0.758419,0.0312 0.501212,0.0853 -0.189154,0.0398 -0.27759,0.0813 -0.196524,0.0922 0.104338,0.0141 0.08999,0.0426 -0.04913,0.0978 -0.111111,0.0441 -0.223123,0.0367 -0.257725,-0.0171 -0.03865,-0.06 -0.13581,-0.0551 -0.263759,0.0134 -0.210003,0.1124 -0.233189,0.11415 -0.559396,0.0424 z m 18.782344,-0.17769 c -0.02808,-0.0732 0.0088,-0.15602 0.082,-0.18411 0.07318,-0.0281 0.156033,0.009 0.184115,0.082 0.02808,0.0732 -0.0088,0.15603 -0.082,0.18412 -0.07318,0.0281 -0.156033,-0.009 -0.184116,-0.082 z M 48.508494,263.9169 c 0.450772,-0.24678 0.581712,-0.24678 0.267973,0 -0.137412,0.10809 -0.331301,0.19467 -0.430865,0.19241 -0.122685,-0.003 -0.07019,-0.0648 0.162892,-0.19241 z m 17.048427,-0.37087 c 0.130521,-0.13272 1.956509,-0.80827 2.184736,-0.80827 0.09842,0 0.272697,0.0656 0.387276,0.14591 0.240109,0.16818 0.906456,0.0804 1.847807,-0.2435 0.447847,-0.15408 0.542402,-0.16219 0.542402,-0.0465 0,0.1828 -0.596274,0.48258 -1.346612,0.67701 -0.762367,0.19755 -1.109933,0.19991 -1.109933,0.008 0,-0.19057 -0.110235,-0.18605 -1.042815,0.0427 -1.116499,0.27392 -1.581203,0.34542 -1.462861,0.22508 z m -11.619467,-0.24035 c -0.121598,-0.0586 -0.221088,-0.18831 -0.221088,-0.28814 0,-0.22129 0.04033,-0.2228 0.625367,-0.0235 0.25512,0.0869 0.580321,0.13579 0.72267,0.10858 0.305544,-0.0584 0.613795,0.16726 0.360982,0.26427 -0.248447,0.0953 -1.248615,0.0542 -1.487931,-0.0613 z m -9.702659,-0.0755 c -0.03442,-0.0557 0.005,-0.0722 0.09246,-0.0386 0.170231,0.0654 0.201378,0.13575 0.06003,0.13575 -0.05085,0 -0.119479,-0.0437 -0.152496,-0.0971 z m -8.334211,-0.46512 c -0.590006,-0.0887 -0.164605,-0.23753 0.769374,-0.26919 0.821782,-0.0278 1.14306,-0.0905 1.983701,-0.38699 1.151612,-0.40612 1.109527,-0.39802 1.109527,-0.21356 0,0.18113 -0.93394,0.60753 -1.740243,0.79453 -0.592045,0.1373 -1.496192,0.16935 -2.122359,0.0752 z m 7.286182,-0.12312 c -0.314733,-0.0951 -1.09243,-0.62006 -1.50374,-1.0151 -0.164186,-0.1577 -0.392007,-0.3608 -0.506268,-0.45135 -0.285637,-0.22634 -0.529215,-0.72616 -0.529215,-1.08593 0,-0.35786 0.05594,-0.37082 0.338982,-0.0786 0.117767,0.1216 0.299709,0.27512 0.404314,0.34116 0.185631,0.11718 0.185478,0.11858 -0.0063,0.0585 -0.108088,-0.0339 -0.252864,-0.10528 -0.321726,-0.15863 -0.219474,-0.17005 -0.248637,0.009 -0.05869,0.36073 0.229232,0.42428 1.61388,1.6035 2.173698,1.85121 0.569074,0.25181 0.573963,0.34872 0.009,0.17806 z m 15.657463,-0.11096 c -0.233162,-0.044 -0.564796,-0.15387 -0.736964,-0.24423 -0.172168,-0.0904 -0.412179,-0.21379 -0.533357,-0.27427 -0.121177,-0.0605 -0.220667,-0.14203 -0.221089,-0.18122 -7.73e-4,-0.0727 0.140335,-0.0266 0.834459,0.27283 0.586483,0.25299 1.862755,0.23617 2.88656,-0.038 1.006504,-0.26957 1.422371,-0.47222 1.350954,-0.65833 -0.02904,-0.0757 -0.01387,-0.16167 0.03373,-0.19108 0.14397,-0.089 0.173159,0.27606 0.04333,0.54192 -0.261424,0.53534 -2.456458,0.99889 -3.657627,0.77242 z m -12.569327,-0.0578 c 0.09561,-0.0249 0.228259,-0.0233 0.294785,0.004 0.06653,0.0269 -0.01169,0.0473 -0.173827,0.0453 -0.162133,-0.002 -0.216564,-0.024 -0.120958,-0.0489 z m -1.009053,-0.12843 c -0.125962,-0.0814 -0.12239,-0.0955 0.02456,-0.0968 0.09458,-7e-4 0.171958,0.0427 0.171958,0.0968 0,0.11985 -0.01108,0.11985 -0.196523,0 z m -1.159746,-0.25143 c -0.568269,-0.15294 -0.947568,-0.32708 -0.873586,-0.40106 0.04132,-0.0413 1.046777,0.25208 1.591154,0.46431 l 0.196523,0.0766 -0.196523,2e-4 c -0.108089,1e-4 -0.430994,-0.0629 -0.717568,-0.14005 z m 25.40585,-0.0512 c -0.186745,-0.10877 -0.231862,-0.43482 -0.0737,-0.53257 0.05405,-0.0334 0.09826,0.006 0.09826,0.088 0,0.23608 0.584767,0.29136 1.197588,0.11321 0.299205,-0.087 0.64562,-0.17772 0.769811,-0.20163 0.220936,-0.0426 0.221758,-0.0397 0.03813,0.13047 -0.453841,0.42067 -1.606526,0.64922 -2.030091,0.40251 z m -32.352705,-0.0839 c -0.793044,-0.19285 -2.014367,-0.94245 -2.014367,-1.23634 0,-0.0852 0.170433,-0.0178 0.477781,0.18903 0.290641,0.19559 0.86796,0.4305 1.473928,0.59973 0.623422,0.17411 0.996145,0.32707 0.996145,0.4088 0,0.14277 -0.432053,0.16072 -0.933487,0.0388 z m 27.660704,-0.004 c -0.460243,-0.0996 -0.895038,-0.2796 -1.078244,-0.4464 -0.08252,-0.0751 -0.293737,-0.26519 -0.46938,-0.42235 -0.175643,-0.15717 -0.319351,-0.33802 -0.319351,-0.40191 0,-0.0639 0.119855,-0.005 0.266343,0.1308 0.388847,0.36056 1.304546,0.82362 1.778599,0.89943 0.466069,0.0745 0.578785,-0.09 0.141384,-0.20642 -0.148622,-0.0396 -0.217399,-0.0914 -0.152841,-0.11529 0.06456,-0.0239 0.219322,0.0126 0.343917,0.0811 0.124594,0.0684 0.580279,0.15042 1.012631,0.18212 0.783121,0.0574 0.784608,0.058 0.393047,0.16735 -0.551867,0.15404 -1.508683,0.21974 -1.916105,0.13158 z m -22.58811,-0.94227 c -0.284643,-0.30032 -0.563455,-0.67775 -0.619583,-0.83877 -0.101544,-0.29128 -0.780682,-0.74332 -0.954954,-0.63561 -0.04497,0.0278 -0.16505,-0.0415 -0.266849,-0.15413 -0.101801,-0.11256 -0.525786,-0.44479 -0.942189,-0.7383 -1.178407,-0.83058 -1.988681,-1.88195 -1.809752,-2.34823 0.09055,-0.23596 0.237795,-0.16286 0.307045,0.15244 0.03573,0.16267 0.127183,0.42049 0.203231,0.57293 0.196029,0.39296 1.342098,1.46794 1.744058,1.63589 0.185796,0.0776 0.361444,0.20273 0.390329,0.278 0.02888,0.0753 0.300124,0.27661 0.602754,0.4474 0.4065,0.22942 0.617907,0.29355 0.809282,0.24552 0.184949,-0.0464 0.238716,-0.0321 0.187977,0.05 -0.146009,0.23624 0.06556,0.68068 0.586034,1.23107 0.295131,0.3121 0.536602,0.58554 0.536602,0.60764 0,0.17366 -0.34147,-0.0495 -0.773985,-0.50583 z m 9.882553,0.2126 c -0.04021,-0.10231 -0.04995,-0.20917 -0.02166,-0.23746 0.08962,-0.0896 0.168476,0.0573 0.130923,0.24384 -0.03442,0.171 -0.03967,0.1707 -0.10926,-0.006 z m -0.559789,-0.40934 c 0,-0.0843 0.04494,-0.12542 0.09986,-0.0915 0.05492,0.034 0.07443,0.10289 0.04333,0.1532 -0.08423,0.13629 -0.143196,0.11088 -0.143196,-0.0617 z m -20.190421,-0.43252 c -0.05291,-0.0856 0.01929,-0.11287 0.256795,-0.097 0.181715,0.0121 0.396718,-0.003 0.477784,-0.033 0.08107,-0.0303 0.315135,-0.083 0.520152,-0.11712 0.205018,-0.0341 0.88728,-0.25726 1.516138,-0.49587 1.471319,-0.55825 2.128296,-0.71096 2.331858,-0.54202 0.21876,0.18156 0.117569,0.26305 -0.41024,0.33037 -0.258287,0.033 -1.070944,0.2579 -1.805903,0.4999 -1.424956,0.46919 -2.748762,0.67773 -2.886584,0.45473 z m 36.430505,-0.0944 c -0.475234,-0.16198 -0.881721,-0.40178 -1.500811,-0.88537 -0.222651,-0.17392 -0.323529,-0.18365 -1.077242,-0.10384 -0.457375,0.0484 -0.850413,0.0692 -0.873419,0.0462 -0.05322,-0.0532 0.397759,-0.22533 0.968043,-0.36944 0.243198,-0.0614 0.456545,-0.12061 0.474104,-0.13145 0.01756,-0.0108 -0.08899,-0.20242 -0.236773,-0.42574 -0.17649,-0.26669 -0.235469,-0.43926 -0.171865,-0.50287 0.0636,-0.0636 0.212297,0.0726 0.433296,0.39683 0.186801,0.27408 0.412465,0.49374 0.507325,0.49385 0.09397,10e-5 0.506668,-0.0919 0.917096,-0.20454 0.410429,-0.1126 0.766046,-0.18491 0.790258,-0.1607 0.08267,0.0827 -0.49216,0.39568 -0.933335,0.50821 -0.242193,0.0618 -0.454288,0.15443 -0.471322,0.20587 -0.04014,0.1212 0.823531,0.70286 1.165786,0.78513 0.159733,0.0384 0.244518,0.11331 0.215076,0.19003 -0.03283,0.0856 0.104754,0.15857 0.424154,0.22503 0.351646,0.0732 0.39724,0.0996 0.177972,0.1031 -0.162133,0.003 -0.525887,-0.074 -0.808343,-0.17031 z m -9.951328,-0.0713 c -0.617941,-0.21314 -1.559541,-0.91434 -1.961484,-1.4607 -0.09924,-0.13488 -0.05367,-0.11757 0.147393,0.056 0.733819,0.63346 1.32908,0.96801 2.074337,1.16582 0.656755,0.17433 1.999776,-0.18513 1.999776,-0.53522 0,-0.0797 0.04422,-0.14487 0.09826,-0.14487 0.184145,0 0.09886,0.27336 -0.177628,0.56934 -0.464661,0.49742 -1.34362,0.63835 -2.180656,0.34964 z m -15.599065,-0.0589 c -0.175643,-0.0564 -0.31935,-0.14288 -0.31935,-0.19229 0,-0.0494 0.05059,-0.0586 0.112413,-0.0204 0.06182,0.0382 0.293971,0.12629 0.515875,0.19575 0.221903,0.0694 0.315025,0.12471 0.206937,0.12281 -0.108088,-0.002 -0.340232,-0.0495 -0.515875,-0.1059 z m 3.119813,-0.0867 c -0.189153,-0.11469 -0.374675,-0.25695 -0.41227,-0.31614 -0.03759,-0.0592 -0.09629,-0.0797 -0.130429,-0.0455 -0.08802,0.088 -1.142571,-0.4514 -1.366744,-0.6991 -0.124904,-0.13802 -0.251768,-0.18612 -0.381929,-0.14481 -0.154393,0.049 -0.181601,0.0272 -0.130907,-0.10491 0.0352,-0.0917 0.064,-0.20821 0.064,-0.25886 0,-0.1467 0.527728,0.0238 0.663193,0.21425 0.149423,0.21007 0.801311,0.62392 0.871785,0.55345 0.02789,-0.0279 -0.105104,-0.2676 -0.295548,-0.53269 -0.362784,-0.50496 -0.752955,-0.78575 -0.935275,-0.67307 -0.06469,0.04 -0.107631,-0.0142 -0.107631,-0.1358 0,-0.11128 -0.05159,-0.20233 -0.11464,-0.20233 -0.06305,0 -0.08462,-0.03 -0.04792,-0.0667 0.03669,-0.0367 0.208735,0.0383 0.382315,0.16662 0.180715,0.13361 0.429207,0.22467 0.581413,0.21308 0.190656,-0.0145 0.283545,0.0356 0.328517,0.1773 0.03449,0.10866 0.120521,0.19755 0.19119,0.19755 0.07143,0 0.128488,0.10873 0.128488,0.24484 0,0.32055 0.459462,0.9164 0.765948,0.99332 0.137206,0.0344 0.241236,0.13223 0.241236,0.22677 0,0.0914 0.05306,0.21928 0.117914,0.28414 0.186185,0.18617 -0.03612,0.13698 -0.4127,-0.0914 z m 4.913092,0.007 c 0,-0.0572 0.04422,-0.0767 0.09826,-0.0434 0.05405,0.0334 0.09826,0.0802 0.09826,0.10406 0,0.0238 -0.04422,0.0434 -0.09826,0.0434 -0.05405,0 -0.09826,-0.0468 -0.09826,-0.10406 z m 1.29656,-0.43638 c 0.002,-0.16213 0.02402,-0.21656 0.04894,-0.12095 0.02492,0.0956 0.02328,0.22826 -0.0037,0.29478 -0.02692,0.0666 -0.0473,-0.0117 -0.0453,-0.17383 z m -11.894409,-1.43573 c -0.04913,-0.12909 -0.154028,-0.38948 -0.2331,-0.57864 -0.152926,-0.36582 -0.449617,-1.65351 -0.475441,-2.06349 -0.05884,-0.9342 0.13607,-0.68757 0.290629,0.36774 0.06524,0.44545 0.226834,1.17146 0.359097,1.61334 0.132262,0.44189 0.219703,0.82421 0.194312,0.8496 -0.02539,0.0254 -0.08637,-0.0595 -0.135497,-0.18855 z m 19.29402,0.13688 c -0.74168,-0.1035 -1.351567,-0.35415 -1.724178,-0.70861 -0.426799,-0.406 -0.520462,-0.793 -0.191927,-0.793 0.122815,0 0.196524,0.0655 0.196524,0.17466 0,0.32086 0.291371,0.59601 0.860639,0.81271 0.714223,0.27189 2.570066,0.31056 3.09343,0.0644 0.38736,-0.18214 0.891569,-0.24956 0.959022,-0.12823 0.06641,0.11946 -0.57845,0.34077 -1.473928,0.50587 -0.729153,0.13442 -1.147474,0.15198 -1.719582,0.0721 z m -23.435445,-0.60604 c -0.513645,-0.32543 -1.768713,-1.51102 -1.768713,-1.6708 0,-0.25967 0.301228,-0.0543 1.076891,0.73402 0.456079,0.46355 0.95308,0.90686 1.104445,0.98514 0.151366,0.0783 0.27521,0.16329 0.27521,0.18893 0,0.11691 -0.28272,0.0194 -0.687833,-0.23729 z m 32.131617,-0.10318 c -0.768015,-0.20779 -1.395293,-0.49923 -1.452296,-0.67475 -0.03158,-0.0973 0.05001,-0.0896 0.336827,0.0315 0.490895,0.20724 1.288825,0.21384 1.67552,0.0138 0.167643,-0.0867 0.514466,-0.40303 0.770715,-0.70297 0.256252,-0.29995 0.487101,-0.52417 0.513,-0.49827 0.156103,0.1561 -0.973185,1.5299 -1.257615,1.5299 -0.05216,0 -0.09484,0.0506 -0.09484,0.11251 0,0.18167 1.230649,0.0293 2.056142,-0.25463 0.971564,-0.33415 1.579544,-0.32808 1.579544,0.0157 0,0.0829 -0.05767,0.12526 -0.131854,0.0968 -0.135478,-0.052 -0.940479,0.0965 -1.980774,0.36541 -0.741066,0.19156 -1.206685,0.18344 -2.014367,-0.0351 z m -5.157105,-0.10158 c -0.02958,-0.0479 0.201146,-0.25597 0.512727,-0.46245 0.311582,-0.20649 1.00376,-0.8078 1.538175,-1.33625 0.534415,-0.52845 0.993599,-0.93888 1.02041,-0.91208 0.246322,0.24633 -1.699509,2.31507 -2.177518,2.31507 -0.08716,0 -0.239231,0.0808 -0.337936,0.17947 -0.228089,0.22809 -0.486423,0.32858 -0.555858,0.21624 z m -26.089539,-0.41044 c -0.162471,-0.22429 -0.29178,-0.52276 -0.287351,-0.66328 0.0065,-0.20646 0.0553,-0.15178 0.2543,0.28497 0.135437,0.29724 0.291991,0.59572 0.347897,0.66327 0.05591,0.0675 0.0744,0.12283 0.0411,0.12283 -0.0333,0 -0.193477,-0.18351 -0.355948,-0.40779 z m 5.615101,-0.34592 c -0.418053,-0.42994 -0.721117,-0.85725 -0.91853,-1.29508 -0.162043,-0.35938 -0.400843,-0.85838 -0.530669,-1.10889 -0.258072,-0.49798 -0.305443,-0.81158 -0.113218,-0.74952 0.06755,0.0218 0.233372,0.36841 0.368481,0.77022 0.313663,0.93282 0.793664,1.74096 1.46432,2.46535 0.723751,0.78174 0.504952,0.71532 -0.270384,-0.0821 z m 11.427418,0.25383 c -0.03631,-0.0588 -0.01681,-0.15603 0.04333,-0.21617 0.08029,-0.0803 0.109352,-0.0519 0.109352,0.10682 0,0.23726 -0.05104,0.27382 -0.152684,0.10935 z m 4.777156,-0.87849 c -0.657048,-0.23629 -1.498027,-0.73793 -1.845988,-1.10112 l -0.260445,-0.27184 h 0.248809 c 0.136845,0 0.322561,0.0815 0.412701,0.18109 0.216379,0.23909 1.955791,1.09488 2.231309,1.0978 0.07751,7e-4 0.339915,0.0642 0.583113,0.14082 l 0.442178,0.13933 -0.638701,0.003 c -0.393249,0.002 -0.844023,-0.0708 -1.172976,-0.18911 z M 35.891367,255.6952 c -0.08599,-0.25236 -0.135599,-0.47959 -0.110247,-0.50494 0.04897,-0.049 0.206523,0.32167 0.307116,0.72246 0.104153,0.41498 -0.03298,0.26346 -0.196869,-0.21752 z m -0.24742,-0.77762 c 0.0047,-0.11447 0.028,-0.13776 0.05936,-0.0594 0.02839,0.0709 0.02489,0.15568 -0.0078,0.18834 -0.03265,0.0326 -0.05587,-0.0254 -0.05161,-0.12897 z m 18.403792,0.011 c -0.134828,-0.35135 -0.08708,-1.95748 0.06859,-2.30714 0.143244,-0.32176 0.149272,-0.26902 0.117433,1.02729 -0.01846,0.75155 -0.05295,1.38585 -0.07664,1.40955 -0.0237,0.0237 -0.07292,-0.0346 -0.109382,-0.1297 z m 4.827372,-0.14129 c -0.566665,-0.10755 -1.166748,-0.30696 -1.670451,-0.55509 -0.660886,-0.32556 -0.822991,-0.45469 -1.01775,-0.81067 -0.288417,-0.52716 -0.207587,-0.64119 0.155027,-0.21868 0.561137,0.6538 1.467684,1.06771 2.814293,1.28495 0.484533,0.0782 0.801421,0.1839 0.909706,0.30356 0.157971,0.17455 0.15451,0.18312 -0.07015,0.1737 -0.129976,-0.006 -0.634279,-0.0855 -1.120676,-0.17777 z m 5.060484,0.10062 c -0.08107,-0.0446 -0.523244,-0.13217 -0.982618,-0.1946 -1.422768,-0.19339 -1.568801,-0.31409 -0.305073,-0.25216 0.828235,0.0405 1.179151,0.098 1.348011,0.22065 0.340297,0.24711 0.293914,0.42098 -0.06032,0.22611 z m -30.215511,-0.4014 c -1.217035,-0.0554 -1.817844,-0.1742 -1.817844,-0.35945 0,-0.0302 0.222905,-0.0242 0.495345,0.0132 l 0.495345,0.0681 -0.298822,-0.47119 c -0.164351,-0.25916 -0.29882,-0.56835 -0.29882,-0.6871 0,-0.11875 -0.06633,-0.24136 -0.147393,-0.27246 -0.08107,-0.0311 -0.147393,-0.10217 -0.147393,-0.15791 0,-0.22705 0.169781,-0.067 0.585286,0.55162 0.614608,0.91511 0.814763,1.01618 2.018652,1.01931 0.823429,0.002 1.022416,0.0337 1.228273,0.1947 l 0.245655,0.19215 -0.491309,-0.0142 c -0.27022,-0.008 -1.110359,-0.0424 -1.866975,-0.0768 z m 25.556894,-0.1851 c -0.0329,-0.0532 0.05711,-0.18877 0.200019,-0.30119 0.308326,-0.24253 0.206759,-0.21934 1.11936,-0.25556 0.534103,-0.0212 0.898797,-0.10015 1.317073,-0.28513 0.592796,-0.26217 0.764205,-0.26785 0.557238,-0.0185 -0.273487,0.32954 -1.034763,0.57692 -1.925106,0.62558 -0.568978,0.0311 -0.9422,0.0988 -1.046559,0.18994 -0.09897,0.0864 -0.185524,0.10389 -0.222025,0.0448 z m -14.256784,-0.14003 c -1.316011,-0.11397 -2.603938,-0.41913 -2.603938,-0.61697 0,-0.0579 -0.165817,-0.18582 -0.368482,-0.28427 -0.202665,-0.0984 -0.316513,-0.19766 -0.252995,-0.22047 0.06352,-0.0228 0.302417,0.0539 0.530885,0.17046 0.651735,0.33249 1.106047,0.46844 1.803082,0.53958 0.717668,0.0732 0.868328,-0.0526 0.275544,-0.23027 -0.486199,-0.14567 -1.20194,-0.83173 -1.20194,-1.1521 0,-0.35932 0.166118,-0.29377 0.395635,0.15611 0.226737,0.44445 0.814352,0.86468 1.642186,1.17441 0.395187,0.14786 0.765512,0.19619 1.503291,0.19619 0.996399,0 1.197595,0.0821 0.703096,0.28694 -0.28451,0.11784 -0.89625,0.1129 -2.426364,-0.0196 z m 23.042398,-0.11833 c 0,-0.17647 0.434577,-0.3862 1.117315,-0.5392 0.246068,-0.0552 0.605183,-0.18889 0.79804,-0.29721 0.39254,-0.22048 0.54119,-0.24621 0.54119,-0.0937 0,0.0568 -0.151739,0.16667 -0.337198,0.24416 -0.185458,0.0775 -0.364196,0.18458 -0.397196,0.23798 -0.033,0.0534 -0.356606,0.18797 -0.719117,0.29906 -0.362514,0.11109 -0.736499,0.22581 -0.831076,0.25494 -0.114754,0.0353 -0.171958,7e-5 -0.171958,-0.10606 z m -3.095248,-0.14618 c -0.162131,-0.0414 -0.668045,-0.21377 -1.124252,-0.38299 -0.456209,-0.16921 -0.902343,-0.30767 -0.991412,-0.30767 -0.08907,0 -0.21299,-0.11203 -0.27538,-0.24896 -0.160674,-0.35264 0.05364,-0.40831 0.533765,-0.13864 0.208672,0.11721 0.833847,0.39943 1.38928,0.62717 0.555432,0.22774 0.980074,0.44388 0.943649,0.4803 -0.07427,0.0743 -0.06949,0.0746 -0.47565,-0.0292 z m 0.54044,-0.65828 c 0,-0.28798 0.315582,-0.49907 0.83791,-0.56046 0.303397,-0.0356 0.818608,-0.1772 1.144913,-0.31454 0.606381,-0.25522 0.874929,-0.24228 0.5227,0.0252 -0.314589,0.23889 -1.037279,0.53776 -1.621166,0.67045 -0.297242,0.0675 -0.617822,0.15509 -0.712398,0.19454 -0.09458,0.0394 -0.171959,0.0326 -0.171959,-0.0152 z m -28.766149,-0.44268 c -0.518525,-0.17742 -0.366318,-0.28765 0.302572,-0.21912 0.45018,0.0461 0.778536,0.0182 1.189061,-0.10115 0.598137,-0.17388 1.136871,-0.132 1.136871,0.0884 0,0.1651 -0.33263,0.23351 -1.424797,0.29299 -0.525014,0.0286 -1.014118,0.004 -1.203707,-0.0611 z m 18.778718,-0.45147 c 0.03434,-0.0556 0.206271,-0.10113 0.382064,-0.10124 0.521856,-2.8e-4 2.771689,-0.33879 2.829567,-0.42565 0.02937,-0.0441 0.139912,-0.0936 0.245654,-0.11003 0.105742,-0.0164 0.244476,-0.0625 0.308296,-0.10234 0.159371,-0.0995 0.255281,0.0826 0.10397,0.19738 -0.06696,0.0508 -0.453379,0.1937 -0.858709,0.31755 -0.807564,0.24674 -3.131713,0.41991 -3.010842,0.22433 z m 6.003246,-0.48916 c 0.09265,-0.51401 0.405014,-1.13568 0.816071,-1.62416 0.316705,-0.37636 0.342953,-0.38999 0.283412,-0.1471 -0.03609,0.14722 -0.168399,0.41913 -0.29402,0.60424 -0.125622,0.18512 -0.279829,0.47368 -0.342684,0.64125 -0.06286,0.16757 -0.163863,0.43733 -0.224464,0.59946 -0.158012,0.42276 -0.318837,0.37302 -0.238315,-0.0737 z m -26.096765,0.0379 c -0.690893,-0.2842 -1.688663,-1.05944 -2.062098,-1.60221 -0.155844,-0.22651 -0.283354,-0.45373 -0.283354,-0.50493 0,-0.0512 -0.061,-0.14372 -0.135551,-0.20559 -0.07455,-0.0618 -0.160851,-0.239 -0.191774,-0.39362 -0.03092,-0.15461 -0.08607,-0.40788 -0.122547,-0.5628 -0.03648,-0.15493 0.14161,0.12906 0.395751,0.63107 0.400764,0.79166 0.555609,0.99006 1.16702,1.49535 0.394432,0.32597 1.018741,0.71967 1.417343,0.89379 1.069916,0.46737 0.900638,0.69542 -0.18479,0.24894 z m 21.139125,0.0458 c 0,-0.0757 0.603115,-0.63491 1.706519,-1.5823 0.157358,-0.13512 0.343111,-0.30093 0.412784,-0.36849 0.06968,-0.0675 0.163004,-0.1233 0.207396,-0.12387 0.0444,-5.6e-4 0.234259,-0.15905 0.421924,-0.35216 0.36661,-0.37725 0.69054,-0.59025 0.69054,-0.45407 0,0.0462 -0.121598,0.18753 -0.27022,0.31405 -0.148621,0.12653 -0.712398,0.63365 -1.252838,1.12692 -0.995812,0.90891 -1.748066,1.52807 -1.856549,1.52807 -0.03276,0 -0.05956,-0.0396 -0.05956,-0.0882 z m -18.418995,-0.51329 c -0.321647,-0.38226 -0.481542,-0.76094 -0.698895,-1.65521 -0.12539,-0.5159 -0.141505,-0.73044 -0.06092,-0.81103 0.127689,-0.12769 0.122369,-0.14141 0.354114,0.91317 0.08995,0.40931 0.295725,0.9952 0.457281,1.30196 0.161556,0.30677 0.274097,0.55776 0.250092,0.55776 -0.02401,0 -0.159759,-0.13799 -0.301674,-0.30665 z m 12.867202,0.14153 c -0.424852,-0.0991 -0.652378,-0.10904 -0.814372,-0.0357 -0.361772,0.16373 -1.59539,-0.18377 -1.883117,-0.53045 -0.156761,-0.18889 -0.182687,-0.19093 0.569048,0.0447 0.618284,0.19381 1.096692,0.25203 1.096692,0.13347 0,-0.034 -0.154763,-0.23309 -0.343917,-0.44247 -0.490599,-0.54303 -0.425236,-0.66491 0.105872,-0.19741 0.277976,0.24469 0.688014,0.4752 1.073443,0.60346 0.549334,0.18281 0.937916,0.43209 0.824489,0.52892 -0.02121,0.0181 -0.303874,-0.029 -0.628138,-0.10453 z m 8.597909,-0.015 c 0,-0.13828 0.110616,-0.202 0.254697,-0.14671 0.07547,0.029 0.112757,0.0923 0.08286,0.14063 -0.06859,0.11097 -0.337553,0.11582 -0.337553,0.006 z m -23.462196,-0.086 c -0.480208,-0.0922 -1.281952,-1.25183 -1.446457,-2.09213 -0.05806,-0.29655 -0.02619,-0.26491 0.231382,0.22966 0.368446,0.70748 0.909339,1.37839 1.294884,1.60614 0.265398,0.15677 0.396233,0.34509 0.217162,0.31258 -0.04053,-0.007 -0.17417,-0.0327 -0.296971,-0.0562 z m 3.908093,-0.23342 c -0.427339,-0.19373 -0.884357,-0.54591 -0.884357,-0.6815 0,-0.0363 0.24943,0.0599 0.554287,0.21365 0.546943,0.27589 1.017903,0.36404 1.017903,0.19052 0,-0.0512 0.136603,-0.0471 0.321876,0.01 0.399287,0.12254 1.152051,-0.0528 1.152051,-0.26836 0,-0.079 0.04422,-0.1436 0.09826,-0.1436 0.131649,0 0.124462,0.0573 -0.04929,0.39334 -0.261163,0.50503 -1.402227,0.65277 -2.210734,0.28623 z m 13.523283,-0.20054 c -0.08192,-0.40958 -0.0025,-0.48897 0.08598,-0.086 0.0373,0.16986 0.04735,0.32932 0.02231,0.35435 -0.02503,0.025 -0.07377,-0.0957 -0.108296,-0.26837 z m 6.503705,0.23994 c 0.07093,-0.0284 0.155684,-0.0249 0.188335,0.008 0.03265,0.0327 -0.02538,0.0559 -0.128968,0.0516 -0.114471,-0.005 -0.137753,-0.028 -0.05937,-0.0594 z m 8.704234,-0.0479 c -0.07077,-0.1145 0.243909,-0.36881 0.461723,-0.37315 0.08612,-10e-4 0.413517,-0.0915 0.727556,-0.19958 l 0.570985,-0.19644 -0.187118,0.21001 c -0.312751,0.351 -1.451615,0.7558 -1.573146,0.55916 z m -7.029508,-1.34574 c 1.015717,-1.03691 1.697403,-1.58379 2.151344,-1.7259 0.16468,-0.0516 0.221089,-0.0299 0.221089,0.0848 0,0.0847 -0.05528,0.15519 -0.122827,0.15663 -0.196356,0.004 -2.23115,1.5424 -2.234062,1.68885 -0.0022,0.11184 -0.824978,0.85818 -0.949031,0.86088 -0.06182,0.001 0.358243,-0.47801 0.933487,-1.06526 z m 3.358424,0.9217 -0.831851,-0.0996 0.269901,-0.17623 c 0.24099,-0.15735 0.353701,-0.16475 1.052225,-0.0691 0.430279,0.0589 0.933565,0.0787 1.118414,0.0441 0.184849,-0.0346 0.438697,-0.0305 0.564108,0.009 l 0.228017,0.0724 -0.23893,0.0884 c -0.474985,0.1757 -1.346689,0.22845 -2.161884,0.13081 z m -11.877539,-0.14878 c 0,-0.1351 0.0223,-0.19038 0.04956,-0.12282 0.02726,0.0675 0.02726,0.1781 0,0.24565 -0.02725,0.0675 -0.04956,0.0123 -0.04956,-0.12283 z m -13.042392,-0.12282 c -0.522347,-0.60776 -1.712397,-2.92083 -1.712397,-3.32834 0,-0.20134 0.180731,-0.064 0.242019,0.18396 0.162636,0.6579 1.57758,3.19314 1.841059,3.29873 0.09,0.0361 0.08218,0.0535 -0.02643,0.059 -0.08483,0.004 -0.239747,-0.0917 -0.344257,-0.21334 z m 15.483423,0.12509 c 0,-0.1622 0.416053,-0.37035 0.970124,-0.48535 0.29037,-0.0603 0.857488,-0.24154 1.260263,-0.40282 0.826564,-0.33097 0.815729,-0.32837 0.815729,-0.19621 0,0.16296 -1.353488,0.7897 -2.139583,0.99074 -0.852711,0.2181 -0.906533,0.22366 -0.906533,0.0936 z m 15.03406,-0.33559 c 0,-0.0212 0.06862,-0.0649 0.152496,-0.0971 0.08744,-0.0335 0.126888,-0.0171 0.09246,0.0386 -0.05771,0.0934 -0.244957,0.1381 -0.244956,0.0585 z m -17.53781,-0.5693 c -0.15433,-0.43471 -0.213108,-1.00538 -0.141638,-1.37515 0.126719,-0.65561 0.111685,-0.76827 -0.102524,-0.76827 -0.243361,0 -0.857203,-0.5315 -0.943244,-0.81671 -0.08058,-0.2671 -0.528526,-0.75548 -0.692937,-0.75548 -0.06714,0 -0.396695,0.26133 -0.732352,0.58073 -0.484357,0.4609 -0.597306,0.62311 -0.547382,0.78609 0.0346,0.11296 0.09017,0.29381 0.123494,0.4019 0.04189,0.13587 0.01528,0.19651 -0.08623,0.19651 -0.329573,0 -0.424119,-0.39058 -0.519101,-2.14447 -0.06101,-1.12655 0.09649,-1.12656 0.190436,0 0.03714,0.44526 0.08268,0.82473 0.10122,0.84327 0.08285,0.0829 1.186572,-0.79155 1.186572,-0.94004 0,-0.0946 -0.279357,-0.35654 -0.648879,-0.60834 -0.789375,-0.53792 -1.299707,-0.90464 -1.365489,-0.98122 -0.02702,-0.0315 -0.252666,-0.22151 -0.501429,-0.42235 -0.431423,-0.34829 -0.65149,-0.46294 -0.538882,-0.28074 0.02869,0.0464 -0.257159,0.11316 -0.635223,0.1483 -0.613515,0.057 -0.783682,0.0303 -1.583349,-0.24898 -0.643937,-0.22487 -1.005293,-0.41688 -1.284657,-0.68263 -0.527429,-0.50173 -0.385849,-0.68553 0.17442,-0.22644 0.501123,0.41064 1.424761,0.72882 2.115657,0.72882 h 0.480359 l -0.458676,-0.41762 c -0.920164,-0.83778 -1.519889,-1.62174 -1.653029,-2.16084 -0.09432,-0.38192 0.221538,-0.50183 0.436033,-0.16552 0.141782,0.2223 0.834431,0.96574 1.946543,2.08929 0.712038,0.71935 2.373376,2.03035 2.572934,2.03035 0.09693,0 0.260479,0.0948 0.363431,0.21071 0.37729,0.42471 1.579092,0.82703 1.89227,0.63348 0.102614,-0.0634 0.102249,-0.0386 -0.0019,0.12815 -0.07104,0.11374 -0.227673,0.20681 -0.348087,0.20681 -0.326522,0 -0.17755,0.26281 0.224111,0.39537 0.327046,0.10793 0.729929,0.5448 0.729929,0.79149 0,0.0736 -0.09791,0.0328 -0.238631,-0.0994 -0.131246,-0.12329 -0.287837,-0.20778 -0.347978,-0.18773 -0.06014,0.02 0.04433,0.18539 0.232155,0.36745 0.428132,0.41496 0.648899,0.36107 0.650093,-0.15867 5.02e-4,-0.20436 0.02986,-0.61476 0.06529,-0.912 0.06029,-0.50567 0.05343,-0.53137 -0.106604,-0.39937 -0.148632,0.12259 -0.182737,0.12259 -0.260309,0 -0.124131,-0.19617 -0.114285,-0.34037 0.0501,-0.7338 0.121694,-0.29124 0.122266,-0.34076 0.0039,-0.34076 -0.232325,0 -1.423721,-1.3694 -1.423721,-1.63644 0,-0.0327 0.254253,0.19319 0.565005,0.50203 0.310754,0.30884 0.714114,0.6241 0.896356,0.70058 0.375306,0.15749 0.628169,0.18385 0.405614,0.0423 -0.119815,-0.0762 -0.125065,-0.12979 -0.02806,-0.28634 0.06596,-0.10646 0.11436,-0.48438 0.108216,-0.84495 -0.0067,-0.39138 -0.04398,-0.60053 -0.09326,-0.52281 -0.04518,0.0712 -0.08282,0.24855 -0.08365,0.39398 -7.73e-4,0.14543 -0.0475,0.29284 -0.103705,0.32758 -0.06575,0.0406 -0.08043,-0.0236 -0.04117,-0.18 0.03394,-0.13523 0.01388,-0.27232 -0.04519,-0.30882 -0.05842,-0.0361 -0.106224,-0.22 -0.106224,-0.40865 0,-0.37044 -0.219749,-0.88142 -0.405719,-0.94341 -0.06329,-0.0211 -0.0943,-0.10065 -0.06892,-0.17679 0.03247,-0.0974 0.190241,-0.004 0.532367,0.31637 0.387547,0.36251 0.520879,0.43541 0.656994,0.35924 0.119112,-0.0667 0.153056,-0.16617 0.112208,-0.32892 -0.04685,-0.18665 -0.0027,-0.26258 0.220522,-0.37946 0.153498,-0.0804 0.43385,-0.3085 0.623004,-0.50697 0.189155,-0.19846 0.465515,-0.44844 0.614136,-0.55551 0.508291,-0.36617 0.285083,0.0431 -0.434378,0.79658 -0.65347,0.68432 -0.692551,0.74982 -0.597556,1.00149 0.121827,0.32275 0.04496,0.44341 -0.130876,0.20544 -0.09961,-0.13481 -0.151469,-0.14524 -0.248136,-0.0499 -0.0973,0.0959 -0.08552,0.16104 0.05775,0.31934 0.17506,0.19345 0.174508,0.19885 -0.02034,0.19885 -0.263727,0 -0.321712,0.25385 -0.250903,1.09845 0.04696,0.56018 0.0968,0.71102 0.273078,0.82652 0.282163,0.18488 0.476558,0.59716 0.325571,0.69047 -0.0602,0.0373 -0.162903,-0.006 -0.228218,-0.0947 -0.192211,-0.26287 -0.243613,-0.19277 -0.259203,0.35346 -0.0093,0.32666 -0.03012,0.40775 -0.05669,0.22109 -0.05961,-0.41869 -0.220146,-0.54828 -0.237364,-0.19161 -0.02621,0.5429 -0.06891,0.97461 -0.123311,1.24661 -0.03574,0.17868 -0.01314,0.27102 0.06606,0.27003 0.259636,-0.004 0.373711,-0.17232 0.350344,-0.51927 -0.0132,-0.19615 0.007,-0.38768 0.04497,-0.42561 0.03794,-0.0379 0.07039,0.1042 0.07211,0.31588 0.0027,0.33937 0.01842,0.36471 0.132543,0.21442 0.07118,-0.0937 0.156212,-0.14364 0.188959,-0.11089 0.08054,0.0805 0.911154,-0.41416 1.268013,-0.75519 0.228911,-0.21876 0.35247,-0.26516 0.600618,-0.2256 0.207161,0.033 0.610366,-0.0569 1.196775,-0.2671 0.715961,-0.25658 0.970204,-0.40459 1.335198,-0.77727 0.52431,-0.53534 0.725894,-1.13692 0.622116,-1.85655 -0.09971,-0.69139 -0.143586,-0.72438 -0.532518,-0.40035 -0.287112,0.2392 -0.319572,0.30303 -0.196523,0.3865 0.114856,0.0779 0.08232,0.0983 -0.147393,0.0922 -0.162132,-0.004 -0.565776,0.0931 -0.896989,0.21639 -0.472095,0.1757 -0.65208,0.20186 -0.833061,0.1211 -0.220915,-0.0986 -0.21705,-0.10341 0.08971,-0.11213 0.352413,-0.0101 1.093344,-0.31543 1.097363,-0.45233 0.0014,-0.0475 -0.141173,-0.25363 -0.316816,-0.45809 -0.556042,-0.64726 -0.859791,-1.10272 -0.859791,-1.28923 0,-0.32256 0.167826,-0.19199 0.430823,0.33518 0.259041,0.51924 0.868049,1.25284 1.040063,1.25284 0.117547,0 0.813157,-0.46944 0.897266,-0.60554 0.03481,-0.0563 0.0069,-0.21948 -0.06206,-0.36257 -0.170561,-0.35397 -0.276972,-0.89887 -0.175541,-0.89887 0.04546,0 0.187712,0.34269 0.316104,0.76153 0.648819,2.11659 0.317267,3.31283 -1.120118,4.04141 -0.572368,0.29012 -0.816649,0.35516 -1.455193,0.38746 -0.633558,0.032 -0.78776,0.0726 -0.884356,0.23254 -0.06435,0.10654 -0.459685,0.43643 -0.878526,0.73306 l -0.761529,0.53934 v 0.91951 c 0,0.79311 -0.02364,0.9257 -0.171958,0.96446 -0.163771,0.0428 -0.163771,0.0455 0,0.0564 0.258773,0.0171 0.206771,0.20793 -0.05668,0.20793 -0.198353,0 -0.222882,-0.0392 -0.185194,-0.29599 0.0239,-0.16279 0.08256,-0.32017 0.130375,-0.34972 0.11144,-0.0689 0.114244,-1.19279 0.0032,-1.26145 -0.04608,-0.0285 -0.154685,0.002 -0.241341,0.0679 -0.177208,0.1346 -0.216537,0.70534 -0.121132,1.75785 0.03729,0.41137 0.02141,0.67904 -0.04264,0.71862 -0.05613,0.0347 -0.122679,0.005 -0.147877,-0.066 z m -5.867277,-7.15852 c -0.548931,-0.62435 -1.553418,-1.4397 -1.553418,-1.26093 0,0.18025 1.715133,1.85426 1.899812,1.85426 0.129946,0 0.04036,-0.15345 -0.346394,-0.59333 z m -1.651679,-1.4514 c 0,-0.0437 -0.06705,-0.16531 -0.148989,-0.27022 -0.138157,-0.17686 -0.140583,-0.17108 -0.03336,0.0795 0.115694,0.27036 0.182348,0.34008 0.182348,0.19073 z m 7.960712,8.55457 c 9.14e-4,-0.0981 0.03299,-0.12977 0.07484,-0.0737 0.04033,0.0541 0.113353,0.13143 0.162265,0.17196 0.04892,0.0405 0.01524,0.0737 -0.07484,0.0737 -0.09104,0 -0.163102,-0.0764 -0.162266,-0.17196 z m -2.654574,-0.0189 c -0.414749,-0.0844 -1.253102,-0.51432 -1.895706,-0.97203 -0.259001,-0.18448 -0.492381,-0.31395 -0.518624,-0.28771 -0.02624,0.0262 -6.96e-4,0.17545 0.05683,0.33156 l 0.104546,0.28385 -0.246145,-0.29478 c -0.13538,-0.16213 -0.270462,-0.36542 -0.300182,-0.45175 -0.02972,-0.0863 -0.221121,-0.20702 -0.425336,-0.26821 -0.590114,-0.1768 -1.224111,-0.65313 -1.669538,-1.25436 -0.40323,-0.54425 -0.510275,-0.82615 -0.313723,-0.82615 0.05405,0 0.09826,0.042 0.09826,0.0933 0,0.20198 0.612643,0.98577 0.918051,1.17453 0.177734,0.10984 0.404477,0.28958 0.503874,0.39941 0.0994,0.10984 0.251251,0.19879 0.337452,0.19768 0.09459,-0.001 -0.03804,-0.17503 -0.33458,-0.43841 -0.270221,-0.24001 -0.430821,-0.43808 -0.35689,-0.44015 0.07393,-0.002 0.28861,0.1316 0.477064,0.29706 0.188453,0.16547 0.363331,0.28016 0.388616,0.25487 0.02529,-0.0253 -0.0012,-0.21593 -0.0589,-0.42366 -0.210462,-0.75795 -0.08796,-1.99902 0.197316,-1.99902 0.07853,0 0.08654,0.10925 0.027,0.36848 -0.11625,0.50614 -0.0913,1.46178 0.05137,1.96753 0.106052,0.37593 0.206569,0.47733 0.959892,0.96835 1.19876,0.78134 1.811041,1.03895 2.604236,1.09571 0.369884,0.0265 0.672516,0.0817 0.672516,0.12266 0,0.19064 -0.603406,0.23845 -1.277404,0.1012 z m 3.741634,-0.27443 c -0.234524,-0.18991 -0.23537,-0.1967 -0.07163,-0.57582 0.15559,-0.36026 0.162206,-0.3646 0.108514,-0.0711 -0.04528,0.24751 -0.01633,0.33438 0.139191,0.41761 0.315958,0.1691 0.585931,0.12632 1.777476,-0.28165 0.619304,-0.21204 1.160972,-0.36392 1.203707,-0.33751 0.04274,0.0264 0.0777,0.0113 0.0777,-0.0335 0,-0.0448 0.3328,-0.25752 0.739556,-0.47255 0.999626,-0.52847 0.958256,-0.503 1.991439,-1.22621 0.50185,-0.35128 1.031929,-0.70503 1.177953,-0.78609 0.146023,-0.0811 0.323832,-0.22503 0.39513,-0.31991 0.144425,-0.19221 0.700199,-0.50601 0.770923,-0.43529 0.09076,0.0908 -1.388123,1.21518 -3.118656,2.37117 -1.16825,0.78039 -3.543943,1.77609 -4.510909,1.89061 -0.346875,0.0411 -0.494591,0.0108 -0.680392,-0.1397 z m -10.010494,-0.62035 c -0.33317,-0.13369 -0.898071,-0.5632 -1.365929,-1.03852 -0.382497,-0.38862 -0.550223,-0.68085 -1.022595,-1.78171 -0.09856,-0.22969 -0.224985,-0.41761 -0.28095,-0.41761 -0.05596,0 -0.101753,-0.0663 -0.101753,-0.14739 0,-0.25202 0.294372,-0.16162 0.399949,0.12282 0.05516,0.14863 0.280431,0.63626 0.500592,1.08363 0.315096,0.64029 0.538646,0.93829 1.050341,1.40011 0.444653,0.40132 0.759191,0.6048 0.995469,0.64399 0.18998,0.0315 0.455964,0.0944 0.591074,0.13977 0.213969,0.0718 0.194959,0.0827 -0.147392,0.084 -0.216176,7e-4 -0.494638,-0.0392 -0.618806,-0.0891 z m 23.268156,-0.14418 c 0,-0.0819 0.165817,-0.22343 0.368482,-0.31443 0.202665,-0.091 0.575395,-0.33348 0.828291,-0.53885 0.252892,-0.20537 0.492609,-0.3734 0.532703,-0.3734 0.04009,0 0.159804,-0.0774 0.266031,-0.17196 0.190121,-0.16927 0.190778,-0.16735 0.04218,0.12282 -0.399272,0.7797 -2.037688,1.80552 -2.037688,1.27582 z m -24.939164,-0.30197 c -0.548043,-0.2731 -1.319196,-1.06351 -1.638668,-1.6796 -0.106992,-0.20632 -0.317027,-0.579 -0.466743,-0.82818 -0.268826,-0.44741 -0.3494,-0.77523 -0.190543,-0.77523 0.04492,0 0.199609,0.26434 0.343758,0.58742 0.663598,1.48731 1.788204,2.75171 2.448731,2.75312 0.09458,1.9e-4 0.171958,0.0446 0.171958,0.0986 0,0.14794 -0.109646,0.12233 -0.668493,-0.15616 z m 21.500001,0.024 c 0,-0.17467 0.318633,-0.45741 0.515465,-0.45741 0.221376,0 0.970834,-0.33329 1.667228,-0.74144 0.327288,-0.19182 0.666502,-0.32968 0.753811,-0.30636 0.135079,0.0361 0.133109,0.0441 -0.01321,0.0538 -0.09458,0.006 -0.171958,0.0685 -0.171958,0.13837 0,0.13094 -0.768654,0.60762 -1.839607,1.14084 -0.664367,0.33078 -0.911724,0.37751 -0.911724,0.17222 z m -2.210892,-1.11506 c -0.162132,-0.0212 -0.361112,-0.0618 -0.442178,-0.0901 -0.129475,-0.0453 -0.128864,-0.0619 0.005,-0.13712 0.08822,-0.0495 0.333133,-0.045 0.581462,0.0108 0.594035,0.13347 1.355647,-0.0772 2.042018,-0.56495 0.140428,-0.0998 0.22109,-0.11599 0.22109,-0.0444 0,0.062 -0.110545,0.15471 -0.245655,0.20607 -0.13511,0.0514 -0.245654,0.13781 -0.245654,0.1921 0,0.0542 -0.17511,0.18803 -0.389133,0.29722 -0.370988,0.18926 -0.799091,0.22584 -1.526974,0.13044 z m 3.036292,-0.17341 c 0.0922,-0.36735 0.923601,-1.53469 1.704841,-2.3937 0.412966,-0.45408 0.223334,-0.002 -0.336744,0.80215 -0.306809,0.44071 -0.708653,1.02238 -0.892988,1.2926 -0.392104,0.57479 -0.572891,0.68854 -0.475109,0.29895 z m -24.609455,-0.0583 c -0.07848,-0.0496 -0.410341,-0.091 -0.73746,-0.0918 -0.72224,-0.002 -2.212228,-0.37679 -2.969523,-0.74731 -0.684983,-0.33512 -0.559467,-0.4089 0.228044,-0.13403 0.537053,0.18745 2.202701,0.51465 2.377348,0.46702 0.239336,-0.0653 1.101788,0.14672 1.246251,0.30635 0.183995,0.20331 0.0825,0.34345 -0.14466,0.19975 z m -1.543476,-1.01443 c -0.435381,-0.49587 -0.834742,-1.10876 -1.186781,-1.82132 -0.171142,-0.3464 -0.311167,-0.64487 -0.311167,-0.66326 0,-0.0184 0.08428,-0.0334 0.187287,-0.0334 0.133588,0 0.229642,0.1243 0.335011,0.43355 0.08125,0.23845 0.328602,0.70586 0.549677,1.03869 0.221073,0.33283 0.401952,0.62593 0.401952,0.65131 0,0.0254 0.09635,0.17648 0.214109,0.33576 0.307073,0.41534 0.162297,0.46006 -0.190088,0.0587 z m 23.908198,-0.83872 c -0.0316,-0.0512 0.03163,-0.12123 0.140502,-0.15578 0.108873,-0.0346 0.19795,-0.0993 0.19795,-0.14396 0,-0.0446 0.06632,-0.10658 0.147393,-0.13769 0.234861,-0.0901 0.161126,0.0652 -0.145939,0.30752 -0.155351,0.12257 -0.308309,0.18103 -0.339906,0.12991 z m -2.299433,-0.70657 c -0.39163,-0.3561 -0.344979,-0.49145 0.06802,-0.19737 0.160075,0.11399 0.375437,0.20725 0.478582,0.20725 0.340348,0 1.107552,-1.00331 1.108293,-1.44936 1.97e-4,-0.1216 0.03972,-0.2211 0.08781,-0.2211 0.103609,0 0.534994,-0.88424 0.465359,-0.95387 -0.02636,-0.0264 -0.295837,0.0448 -0.598836,0.15818 -0.57578,0.21543 -1.470923,0.27672 -1.575283,0.10786 -0.03787,-0.0613 0.157667,-0.0983 0.519394,-0.0983 0.460065,0 0.710199,-0.0661 1.208641,-0.31935 l 0.628515,-0.31935 0.159321,-0.81354 c 0.150139,-0.76664 0.231936,-0.99313 0.324266,-0.89785 0.06968,0.0719 -0.314809,1.88514 -0.535956,2.52755 -0.117319,0.3408 -0.182755,0.65018 -0.145414,0.68753 0.103149,0.10315 1.408652,0.0409 1.791363,-0.0854 0.495513,-0.16354 0.506318,-0.0403 0.01829,0.20871 -0.367303,0.18739 -0.530984,0.20922 -1.237827,0.16512 l -0.814555,-0.0508 -0.311135,0.58375 c -0.347708,0.65237 -0.775201,1.06641 -1.096571,1.06208 -0.117452,-0.001 -0.361479,-0.13739 -0.542282,-0.30179 z m -9.020854,-0.46158 c -0.170225,-0.092 -0.465177,-0.24799 -0.655452,-0.34669 -0.190273,-0.0987 -0.589518,-0.4348 -0.88721,-0.74689 -0.413614,-0.43364 -0.579672,-0.6996 -0.704148,-1.12778 -0.08959,-0.30818 -0.135506,-0.63168 -0.102039,-0.7189 0.0942,-0.24548 0.232885,-0.0289 0.278314,0.43465 0.05743,0.58595 0.813608,1.50418 1.665488,2.0224 0.284162,0.17286 0.856297,0.66434 0.762672,0.65516 -0.02647,-0.003 -0.187401,-0.08 -0.357625,-0.17195 z m -11.727575,-1.6903 c 0,-0.0541 0.121599,-0.0983 0.27022,-0.0983 0.456069,-1e-4 1.484711,-0.54478 1.616743,-0.85603 l 0.116188,-0.27391 0.0375,0.27853 c 0.05806,0.43125 -0.03121,0.54796 -0.617444,0.80722 -0.548419,0.24254 -1.423209,0.33014 -1.423208,0.14253 z m -0.04164,-0.5175 c -0.395306,-0.22502 -1.09851,-1.10472 -0.954315,-1.19385 0.04419,-0.0273 0.172175,0.0746 0.284411,0.22636 0.112235,0.15181 0.494955,0.42644 0.850487,0.61028 0.355533,0.18385 0.646588,0.38954 0.646788,0.45709 5.89e-4,0.19079 -0.402152,0.14217 -0.827371,-0.0999 z m 24.803619,0.13334 c 0,-0.1805 0.427135,-0.37691 0.941101,-0.43273 0.421652,-0.0458 0.998552,-0.2623 2.055885,-0.77152 0.108088,-0.0521 0.04176,0.0396 -0.147393,0.20372 -0.474289,0.41146 -1.215222,0.75615 -1.916105,0.8914 -0.324264,0.0625 -0.666953,0.13582 -0.761529,0.16276 -0.09458,0.0269 -0.171959,0.003 -0.171959,-0.0536 z m -22.007884,-2.05082 c -0.526673,-0.35801 -1.1366,-1.05658 -1.434412,-1.64289 -0.103611,-0.20398 0.0059,-0.1202 0.355608,0.27199 0.277937,0.31172 0.78851,0.76884 1.134606,1.01581 0.346096,0.24696 0.629266,0.51148 0.629266,0.5878 0,0.20272 -0.08893,0.17251 -0.685068,-0.23271 z m 5.826035,-0.15542 c -0.704659,-0.15475 -0.800967,-0.30666 -0.129613,-0.20445 0.700018,0.10658 2.225967,0.11483 2.603938,0.0141 0.28894,-0.077 0.287967,-0.0747 -0.04913,0.11871 -0.397964,0.22829 -1.556146,0.26253 -2.425194,0.0717 z m 3.30955,-0.16957 c -0.297242,-0.10495 -0.673094,-0.25111 -0.835225,-0.3248 -0.940848,-0.42767 -1.721295,-0.68632 -2.087751,-0.69193 -0.425151,-0.006 -0.546476,-0.11062 -0.257935,-0.22134 0.215571,-0.0827 0.955503,0.11589 1.911641,0.51312 0.643332,0.26728 0.799098,0.30153 0.843613,0.18553 0.03003,-0.0783 0.0112,-0.19699 -0.04185,-0.26386 -0.05305,-0.0668 -0.152551,-0.29844 -0.221121,-0.51462 -0.06857,-0.21618 -0.268286,-0.70257 -0.443814,-1.08088 -0.175529,-0.37831 -0.346387,-0.77627 -0.379685,-0.88435 l -0.06054,-0.19653 0.156413,0.19653 c 0.176787,0.22212 0.828141,1.57576 1.03116,2.14294 0.100451,0.28064 0.177683,0.3628 0.308792,0.32852 0.184707,-0.0483 0.158281,0.0509 -0.09128,0.34253 -0.123244,0.14404 -0.08889,0.17757 0.327235,0.31936 0.255713,0.0871 0.567601,0.15841 0.693084,0.15841 0.125482,0 0.22815,0.0442 0.22815,0.0983 0,0.15169 -0.484018,0.10382 -1.080881,-0.1069 z m -4.567918,-0.59027 c -0.240091,-0.22131 -0.600939,-0.61796 -0.801883,-0.88146 -0.25092,-0.32903 -0.400379,-0.45002 -0.477184,-0.38627 -0.08167,0.0678 -0.107328,-0.0589 -0.09514,-0.46964 0.01294,-0.43595 0.05319,-0.56959 0.178945,-0.59422 0.118277,-0.0232 0.162254,0.0394 0.162254,0.2308 0,0.38752 0.231746,0.80518 0.84369,1.52055 0.866405,1.01284 0.95577,1.28673 0.189316,0.58024 z m -5.014953,-0.54408 c -0.03357,-0.15499 -0.123453,-0.43657 -0.199735,-0.62573 -0.290107,-0.71936 -0.462983,-3.30052 -0.215534,-3.2181 0.08417,0.028 0.126136,0.30206 0.133338,0.87067 0.01292,1.02018 0.105435,1.82425 0.296768,2.57939 0.08025,0.31673 0.123478,0.59832 0.09606,0.62573 -0.02742,0.0274 -0.07732,-0.077 -0.110894,-0.23196 z m 13.3559,-0.0524 c -0.07993,-0.12933 0.178741,-0.35861 1.177071,-1.04334 1.625127,-1.11463 2.172665,-1.54155 2.416768,-1.88436 0.116971,-0.16427 0.260296,-0.29867 0.318499,-0.29867 0.316528,0 -1.760551,1.89823 -2.896588,2.64717 -0.36398,0.23996 -0.661782,0.49422 -0.661782,0.56501 0,0.15953 -0.257756,0.16986 -0.353968,0.0142 z m -1.807793,-0.0785 c 0,-0.0521 0.08061,-0.13794 0.179139,-0.19068 0.09853,-0.0527 0.441214,-0.47939 0.761529,-0.94815 0.320315,-0.46875 0.755934,-1.03516 0.968043,-1.25868 0.212109,-0.22353 0.311599,-0.31449 0.221089,-0.20215 -0.09051,0.11234 -0.164563,0.24083 -0.164563,0.28551 0,0.0447 -0.110544,0.22618 -0.245654,0.40332 -0.13511,0.17714 -0.245655,0.349 -0.245655,0.38191 0,0.0329 -0.04484,0.11323 -0.09965,0.17851 -0.198735,0.2367 -0.588188,0.86647 -0.588188,0.95114 0,0.12231 -0.490572,0.49408 -0.651953,0.49408 -0.07378,0 -0.134142,-0.0427 -0.134142,-0.0948 z m 6.894296,-0.16966 c -0.662024,-0.23406 -0.364796,-0.36995 0.384502,-0.17579 0.343164,0.0889 0.745472,0.13737 0.894017,0.10767 0.326899,-0.0654 0.464684,0.0893 0.15377,0.17268 -0.369219,0.099 -0.983488,0.0541 -1.432289,-0.10456 z m -7.719788,-1.16033 c 0.02735,-0.32427 0.08593,-1.17713 0.130177,-1.89527 0.04424,-0.71812 0.108981,-1.33423 0.143863,-1.36911 0.03488,-0.0349 0.111351,-0.0155 0.169934,0.0431 0.07525,0.0753 0.07647,0.20312 0.0041,0.43563 -0.05629,0.18101 -0.148867,0.88183 -0.205718,1.55738 -0.05685,0.67555 -0.145843,1.36093 -0.197759,1.52306 -0.07465,0.23313 -0.08399,0.17149 -0.04466,-0.29479 z m 5.89089,0.44792 c 0.05134,-0.0509 0.314438,-0.14534 0.584657,-0.20991 0.270221,-0.0646 0.7728,-0.20205 1.116843,-0.30551 1.010267,-0.30382 0.884903,-2.8e-4 -0.167533,0.40561 -0.534276,0.20606 -1.716473,0.29069 -1.533967,0.10981 z m -10.391795,-0.56421 c -0.02196,-0.0441 -0.04631,-0.235 -0.05412,-0.42415 l -0.01418,-0.34392 0.09495,0.38331 c 0.0866,0.34959 0.07062,0.58019 -0.02666,0.38476 z m -1.057872,-0.46605 c -0.146013,-0.38404 -0.117114,-0.44451 0.05801,-0.12137 0.08313,0.1534 0.126816,0.30324 0.09708,0.33298 -0.02974,0.0297 -0.09953,-0.0655 -0.155083,-0.21161 z m -0.59232,-0.98941 c -0.488998,-0.59571 -1.150478,-1.18821 -1.613966,-1.44568 l -0.30214,-0.16784 0.256392,-0.004 c 0.305568,-0.005 0.903197,0.44711 1.513419,1.14469 0.35018,0.4003 0.721336,1.01562 0.610607,1.01228 -0.01217,-2.8e-4 -0.221114,-0.24307 -0.464312,-0.53934 z m 1.594986,0.14695 c 0,-0.18915 0.02022,-0.26653 0.04494,-0.17196 0.02472,0.0946 0.02472,0.24935 0,0.34392 -0.02472,0.0946 -0.04494,0.0172 -0.04494,-0.17196 z m -0.123721,-1.3511 c -0.0026,-0.94356 -0.131346,-2.45434 -0.256597,-3.01158 -0.04317,-0.19209 -0.02954,-0.26352 0.04188,-0.21938 0.179223,0.11077 0.307794,1.02371 0.371992,2.64139 0.04352,1.09664 0.02994,1.54763 -0.04659,1.54763 -0.07094,0 -0.108929,-0.32881 -0.110677,-0.95806 z m 3.63835,0.88891 c -0.256268,-0.0932 -0.698901,-0.55608 -0.893355,-0.93412 -0.281359,-0.547 -0.23325,-0.54903 0.281736,-0.0119 0.351045,0.36614 0.586209,0.51887 0.933487,0.60632 0.255325,0.0643 0.464227,0.15574 0.464227,0.20323 0,0.17441 -0.461608,0.25455 -0.786095,0.13648 z m 4.222558,-0.58842 c -0.309213,-0.21161 -0.367496,-0.29726 -0.488656,-0.7181 -0.157307,-0.54639 -0.41015,-2.23866 -0.370727,-2.48127 0.01974,-0.12151 0.09175,0.1107 0.160016,0.51603 0.31205,1.85281 0.490209,2.29539 1.001716,2.48846 0.317148,0.11971 0.394203,0.36114 0.115263,0.36114 -0.09606,0 -0.28399,-0.0748 -0.417612,-0.16626 z m 3.425986,-0.68198 c -0.23947,-0.54136 -0.21782,-1.41736 0.05754,-2.328 0.227006,-0.75073 0.297956,-0.65959 0.109361,0.14048 -0.205845,0.87326 -0.190981,1.64883 0.04201,2.19239 0.106168,0.24768 0.147899,0.45032 0.09274,0.45032 -0.05516,0 -0.190902,-0.20484 -0.301646,-0.45519 z m -12.12663,0.0151 c -0.104143,-0.0788 -0.25771,-0.14466 -0.341262,-0.14638 -0.08355,-0.001 -0.47522,-0.20246 -0.870375,-0.44608 -0.395155,-0.24363 -0.825412,-0.46981 -0.956126,-0.50262 -0.271977,-0.0682 -0.487097,-0.38258 -0.328796,-0.48042 0.103212,-0.0638 0.433564,0.10658 1.593035,0.82156 0.36382,0.22436 0.699656,0.40791 0.7463,0.40791 0.113777,0 0.454221,0.38164 0.394088,0.44177 -0.02613,0.0261 -0.132721,-0.0169 -0.236864,-0.0957 z m 4.871134,-1.70689 c 0,-0.0523 -0.192506,-0.33137 -0.427788,-0.6202 -0.406353,-0.49884 -0.746046,-1.07463 -0.949151,-1.60884 -0.05067,-0.13327 -0.07752,-0.24231 -0.05966,-0.24231 0.01785,0 0.222605,0.27636 0.455003,0.61414 0.2324,0.33777 0.542401,0.74679 0.688893,0.90892 0.306189,0.33888 0.525166,0.89968 0.385099,0.98624 -0.05082,0.0314 -0.09239,0.0143 -0.09239,-0.0379 z m 3.947657,-0.82546 c -0.403919,-0.85828 -0.552944,-1.25284 -0.473196,-1.25284 0.08835,0 0.696015,1.12182 0.864933,1.59675 0.267271,0.75148 0.02273,0.53679 -0.391737,-0.34391 z m -4.537229,-0.81375 c 0,-0.0828 0.07738,-0.17852 0.171959,-0.2128 0.09458,-0.0343 0.453594,-0.28411 0.797816,-0.55515 0.591877,-0.46605 0.617399,-0.47645 0.470038,-0.19149 -0.199875,0.38652 -1.019218,1.10992 -1.257123,1.10992 -0.10048,0 -0.18269,-0.0677 -0.18269,-0.15048 z"
       id="path2345"
       inkscape:connector-curvature="0" />
  </g>
</svg>
