<?xml version="1.0" encoding="UTF-8" standalone="no"?>
<svg
   xmlns:dc="http://purl.org/dc/elements/1.1/"
   xmlns:cc="http://creativecommons.org/ns#"
   xmlns:rdf="http://www.w3.org/1999/02/22-rdf-syntax-ns#"
   xmlns:svg="http://www.w3.org/2000/svg"
   xmlns="http://www.w3.org/2000/svg"
   xmlns:sodipodi="http://sodipodi.sourceforge.net/DTD/sodipodi-0.dtd"
   xmlns:inkscape="http://www.inkscape.org/namespaces/inkscape"
   id="svg8"
   version="1.1"
   viewBox="0 0 105 146"
   height="146mm"
   width="105mm"
   sodipodi:docname="araucaria_0_younger_04.svg"
   inkscape:version="0.92.3 (2405546, 2018-03-11)">
  <sodipodi:namedview
     pagecolor="#ffffff"
     bordercolor="#666666"
     borderopacity="1"
     objecttolerance="10"
     gridtolerance="10"
     guidetolerance="10"
     inkscape:pageopacity="0"
     inkscape:pageshadow="2"
     inkscape:window-width="2560"
     inkscape:window-height="1415"
     id="namedview7"
     showgrid="false"
     inkscape:zoom="0.8553653"
     inkscape:cx="-191.69895"
     inkscape:cy="309.45112"
     inkscape:window-x="0"
     inkscape:window-y="1080"
     inkscape:window-maximized="1"
     inkscape:current-layer="svg8" />
  <defs
     id="defs2" />
  <metadata
     id="metadata5">
    <rdf:RDF>
      <cc:Work
         rdf:about="">
        <dc:format>image/svg+xml</dc:format>
        <dc:type
           rdf:resource="http://purl.org/dc/dcmitype/StillImage" />
        <dc:title />
      </cc:Work>
    </rdf:RDF>
  </metadata>
  <g
     transform="matrix(0.22987145,0,0,0.22882719,40.876788,78.287062)"
     id="layer1">
    <path
       id="path826"
       d="m 49.569302,296.12419 c -1.09678,-1.09678 -1.01348,-2.35156 0.1746,-2.62999 0.76028,-0.17817 0.78556,-0.24265 0.26459,-0.67502 -0.73126,-0.60689 -0.72789,-1.26036 0.013,-2.51453 0.58037,-0.9825 0.57273,-1.01069 -0.52419,-1.93368 -1.09899,-0.92475 -1.10593,-0.95059 -0.54556,-2.03421 0.45493,-0.87974 0.4836,-1.23202 0.14448,-1.77505 -0.42658,-0.68306 -0.25249,-1.50275 0.78246,-3.68421 0.2992,-0.63065 0.24326,-0.93584 -0.27683,-1.51054 -0.63433,-0.70093 -0.63318,-0.76006 0.0428,-2.20829 0.60306,-1.29195 0.6503,-1.79029 0.35841,-3.78113 -0.18491,-1.26118 -0.56958,-2.46569 -0.85482,-2.67668 -0.39541,-0.29248 -0.46002,-0.77439 -0.27195,-2.02847 0.13566,-0.90467 0.40505,-1.64485 0.59864,-1.64485 0.19359,0 0.25387,-0.15875 0.13395,-0.35278 -0.11991,-0.19402 0.0295,-0.35277 0.33196,-0.35277 0.33677,0 0.54789,-0.30772 0.54459,-0.79375 -0.007,-0.96203 -0.33154,-1.48001 -1.10786,-1.76579 -1.05828,-0.38957 -1.09165,-2.04081 -0.0909,-4.49995 0.9469,-2.32693 1.29931,-4.2294 0.78342,-4.2294 -0.15664,0 -0.2848,-0.23315 -0.2848,-0.5181 0,-0.31559 0.20683,-0.43872 0.52916,-0.31503 0.31236,0.11986 0.52405,0.007 0.51667,-0.27566 -0.0189,-0.72484 -0.82437,-2.02849 -1.20776,-1.95483 -0.42239,0.0812 -0.97318,-2.02288 -0.92956,-3.55097 0.0309,-1.08133 -0.0375,-1.14652 -1.20178,-1.14652 -0.67898,0 -1.23451,-0.1698 -1.23451,-0.37732 0,-0.20752 -0.35131,-0.32658 -0.78069,-0.26458 -0.56373,0.0814 -0.84658,0.43682 -1.0178,1.27892 -0.13041,0.64141 -0.53316,1.39042 -0.895,1.66448 -0.36185,0.27405 -0.49915,0.49828 -0.30512,0.49828 0.19403,0 0.66093,-0.23308 1.03756,-0.51795 1.21833,-0.92149 1.73156,-0.65912 1.03089,0.52701 -0.43494,0.73629 -0.74024,0.94291 -1.03357,0.69947 -0.49124,-0.4077 -1.54715,-0.0796 -1.6031,0.49818 -0.0215,0.22177 -0.0143,0.72867 0.016,1.12644 0.0384,0.50458 -0.29442,0.87783 -1.100998,1.23472 -1.150411,0.50902 -1.704188,1.31616 -2.287255,3.33373 -0.2298,0.79518 -0.545504,1.0861 -1.269633,1.16998 -0.530081,0.0614 -1.116112,0.39627 -1.302294,0.74415 -0.382975,0.7156 -0.08408,3.20115 0.384941,3.20115 0.49971,0 0.349888,1.19235 -0.259066,2.06175 -0.680784,0.97196 -0.392359,4.32908 0.31146,3.62526 0.581392,-0.5814 1.665337,-0.48116 1.665337,0.154 0,1.07759 -0.831825,3.87359 -1.381336,4.64305 -1.099355,1.53938 -2.976968,0.54648 -2.198307,-1.16249 0.541186,-1.18778 0.516171,-1.29062 -0.25443,-1.04604 -0.913314,0.28987 -1.890148,-1.27421 -1.757486,-2.81404 0.128076,-1.48656 -0.306797,-1.97031 -0.963672,-1.07198 -0.657405,0.89905 -0.64219,3.16748 0.02498,3.72116 0.288904,0.23977 0.438288,0.57671 0.331957,0.74875 -0.349892,0.56614 -0.777134,0.32722 -0.99955,-0.55896 -0.120339,-0.47947 -0.534423,-1.04068 -0.920189,-1.24713 -0.817114,-0.43731 -0.937285,-1.95611 -0.237846,-3.00608 0.531692,-0.79816 0.69608,-2.28336 0.252733,-2.28336 -0.164017,0 -1.504883,0.62806 -2.979709,1.39569 -3.032001,1.57813 -4.983211,2.08284 -5.612225,1.45169 -0.56122,-0.56313 0.965521,-1.73011 2.006565,-1.53375 0.523808,0.0988 0.861455,-0.0993 1.106593,-0.64934 0.194028,-0.43533 0.834693,-0.96133 1.423702,-1.16888 1.235801,-0.43545 2.369495,-1.21828 2.798155,-1.93216 0.439272,-0.73157 -2.563558,-0.25855 -4.2025,0.66199 -1.579548,0.88718 -3.557577,0.95216 -3.874117,0.12727 -0.256466,-0.66834 0.411833,-1.24727 1.219344,-1.0563 0.621792,0.14706 1.400694,-0.56673 1.400694,-1.28359 0,-0.26916 -0.3175,-0.77671 -0.705556,-1.1279 -0.726097,-0.65711 -0.968844,-1.94027 -0.367054,-1.94027 0.186175,0 0.743243,0.43656 1.237929,0.97013 0.770262,0.83082 1.164939,0.96602 2.748304,0.94146 5.827024,-0.0904 7.3169,-0.83695 7.3169,-3.66642 0,-2.38468 1.110068,-3.31622 1.797428,-1.50837 0.328277,0.86342 0.407031,0.90192 0.715916,0.34998 0.190885,-0.34108 0.251757,-0.77436 0.135269,-0.96284 -0.355307,-0.5749 0.43923,-1.64669 1.567014,-2.11383 0.888344,-0.36797 1.053494,-0.61952 0.983622,-1.49821 -0.05885,-0.74003 0.124718,-1.17637 0.613456,-1.45826 0.383586,-0.22124 0.912485,-0.64038 1.175329,-0.93142 0.419805,-0.46484 0.4543,-0.45412 0.283781,0.0882 -0.17665,0.56181 0.09748,0.76019 0.731238,0.52917 0.133076,-0.0485 0.202176,-0.73492 0.153566,-1.52536 -0.059,-0.95998 0.0949,-1.58928 0.46361,-1.89528 0.86227,-0.71562 0.70637,-1.55371 -0.24176,-1.29963 -0.43656,0.117 -0.912809,0.21489 -1.05833,0.21754 -0.145521,0.003 -0.264584,0.24294 -0.264584,0.53398 0,0.29104 -0.216715,0.52917 -0.481591,0.52917 -0.264876,0 -0.923067,0.34726 -1.462652,0.7717 -0.801101,0.63014 -1.376048,0.75689 -3.134381,0.69094 -4.850182,-0.18189 -7.519718,-0.17123 -8.856097,0.0354 -0.776111,0.11998 -3.554236,0.253 -6.173611,0.29561 -2.619375,0.0426 -5.437735,0.23109 -6.263021,0.41884 -1.128861,0.25681 -1.637897,0.22735 -2.055152,-0.11894 -0.48885,-0.40571 -0.415484,-0.53448 0.618577,-1.08573 0.67787,-0.36137 1.955172,-0.63168 3.025291,-0.64022 1.018646,-0.008 1.852083,-0.17354 1.852083,-0.36756 0,-0.42286 -1.291352,-1.76389 -1.69855,-1.76389 -0.158091,0 -0.552398,-0.55563 -0.876237,-1.23473 -0.366788,-0.76916 -0.840697,-1.23472 -1.256865,-1.23472 -0.807887,0 -1.284724,-0.55555 -1.596471,-1.86001 -0.181313,-0.75868 -0.01418,-1.25325 0.745106,-2.20485 1.311222,-1.64334 2.427692,-1.64483 3.113211,-0.004 0.581351,1.39138 2.762969,3.71624 3.487255,3.71624 0.265554,0 0.791577,0.59532 1.168944,1.32292 0.812048,1.56572 1.851416,2.00548 1.597229,0.67579 -0.239,-1.25026 0.431306,-1.43904 1.16012,-0.32673 0.763186,1.16477 1.9356,2.1809 2.53473,2.19684 0.242535,0.006 0.440972,-0.38513 0.440972,-0.8702 0,-1.04092 0.236125,-1.09687 1.147674,-0.27193 0.639533,0.57877 0.692284,0.57746 1.029787,-0.0256 0.286649,-0.51222 0.619615,-0.59106 1.714743,-0.40604 1.138707,0.19239 1.433244,0.11075 1.81688,-0.50354 0.451471,-0.72294 1.346471,-1.01341 1.346471,-0.43701 0,0.48391 1.706563,1.11496 3.015209,1.11496 0.669968,0 1.218124,-0.15875 1.218124,-0.35278 0,-0.19403 -0.213522,-0.35278 -0.474489,-0.35278 -0.260971,0 -0.741225,-0.29474 -1.067234,-0.65497 -0.502285,-0.55502 -0.517772,-0.71719 -0.101484,-1.06268 0.378298,-0.31396 0.592769,-0.2854 0.932695,0.12418 0.242789,0.29254 1.017912,0.70363 1.722501,0.91352 1.134597,0.338 1.556579,0.25774 3.690787,-0.70195 2.37428,-1.06764 2.40612,-1.09994 2.16519,-2.19685 -0.2051,-0.93385 -0.15283,-1.0781 0.32432,-0.89501 0.31285,0.12006 0.56883,0.0473 0.56883,-0.16166 0,-0.23241 0.35395,-0.29112 0.9115,-0.15118 0.59105,0.14834 0.83178,0.0998 0.68473,-0.13815 -0.12472,-0.2018 -0.37494,-0.36691 -0.55604,-0.36691 -0.40025,0 -1.872,-1.18565 -3.39377,-2.73403 -1.27893,-1.3013 -2.123739,-1.55603 -1.53939,-0.46416 0.49217,0.91962 0.46257,1.08152 -0.197715,1.08152 -0.670529,0 -2.600487,-1.30096 -3.249461,-2.19043 -0.253538,-0.34748 -0.715843,-0.63179 -1.027342,-0.63179 -0.311499,0 -1.240638,-0.39516 -2.064755,-0.87812 -0.824117,-0.48296 -2.407098,-1.1148 -3.517734,-1.40409 -1.11064,-0.28928 -2.562821,-0.84663 -3.22707,-1.23855 -0.664252,-0.39191 -1.436783,-0.71258 -1.716733,-0.71258 -0.27995,0 -0.509002,-0.2551 -0.509002,-0.56691 0,-0.40015 -0.181596,-0.49322 -0.617361,-0.31642 -0.339548,0.13777 -1.760505,0.30375 -3.157685,0.36885 -1.39718,0.0651 -2.82593,0.26291 -3.175,0.43959 -0.898483,0.45477 -7.111292,0.48304 -8.483981,0.0386 -0.767198,-0.2484 -1.146527,-0.59559 -1.146527,-1.04941 0,-0.54755 0.254847,-0.67924 1.322916,-0.6836 0.727604,-0.003 1.524777,-0.13351 1.771495,-0.2901 0.246717,-0.15659 1.214498,-0.12781 2.150623,0.064 0.936125,0.19176 2.004265,0.23218 2.373644,0.0898 0.527979,-0.20349 0.256676,-0.39533 -1.268679,-0.89713 -1.067152,-0.35106 -2.364574,-0.73713 -2.88316,-0.85793 -1.294254,-0.30149 -3.114062,-2.19818 -3.114062,-3.24563 0,-0.6994 0.178152,-0.85481 0.979932,-0.85481 0.543375,0 1.249064,0.31432 1.584047,0.70556 0.332264,0.38805 0.868497,0.70555 1.191631,0.70555 0.323133,0 1.078749,0.36888 1.679147,0.81973 0.600397,0.45084 1.351323,0.91515 1.668722,1.0318 0.522838,0.19215 0.5289,0.11549 0.06448,-0.81546 -0.281935,-0.56515 -0.700376,-1.14853 -0.929868,-1.29639 -0.476565,-0.30705 -1.655929,-2.72269 -1.644136,-3.36762 0.01456,-0.79608 1.304314,-2.12254 2.150574,-2.21177 0.729278,-0.0769 0.843496,0.0653 0.865222,1.0772 0.03064,1.42702 1.003362,2.99863 1.855954,2.99863 0.346497,0 0.92065,-0.21254 1.275894,-0.4723 0.609984,-0.44603 0.570322,-0.57351 -0.713433,-2.29305 -0.74763,-1.00142 -1.484191,-1.82077 -1.636803,-1.82077 -0.478085,0 -0.302532,-0.95114 0.262033,-1.41969 0.445639,-0.36985 0.675814,-0.32187 1.322919,0.27577 1.251401,1.15574 3.402114,1.8709 6.068098,2.01779 1.362029,0.075 2.725328,0.23252 3.029553,0.34995 0.698302,0.26952 2.29296,-0.96392 2.990751,-2.3133 0.629024,-1.2164 1.165733,-1.28538 2.306052,-0.29638 0.500211,0.43383 1.162907,0.66957 1.630803,0.58012 0.433501,-0.0829 0.704247,-0.0149 0.601652,0.15115 -0.102591,0.166 -0.01842,0.30182 0.187064,0.30182 0.205479,0 0.373599,-0.29202 0.373599,-0.64893 0,-0.7075 -0.866609,-1.19955 -3.230813,-1.83441 -0.84243,-0.22622 -2.451795,-0.94993 -3.576369,-1.60824 -2.325762,-1.36148 -4.382311,-1.81969 -5.494835,-1.22428 -0.584154,0.31262 -1.100233,0.2863 -2.287206,-0.11669 -0.843061,-0.28623 -2.469437,-0.59618 -3.614169,-0.68878 -3.694718,-0.29889 -4.344017,-0.54531 -4.670114,-1.77236 -0.189536,-0.71319 -0.157913,-1.19529 0.08961,-1.36608 0.357396,-0.24661 2.661945,-0.0734 4.263065,0.32038 0.498349,0.12257 0.404247,-0.0336 -0.320425,-0.53195 -1.282212,-0.88166 -1.860332,-2.24026 -1.824237,-4.287 0.02388,-1.35398 0.141566,-1.60366 0.800053,-1.69739 0.965094,-0.13736 2.329964,1.16424 2.076264,1.98002 -0.2467,0.79327 0.308923,1.64289 0.854067,1.30597 0.330684,-0.20437 0.31943,-0.33567 -0.04875,-0.56896 -0.401468,-0.25438 -0.400575,-0.30415 0.0055,-0.30868 0.390338,-0.004 0.399059,-0.10796 0.045,-0.53457 -0.359681,-0.43339 -0.335576,-0.52917 0.133195,-0.52917 0.314798,0 0.572361,0.14085 0.572361,0.313 0,0.17216 0.862679,1.21804 1.917068,2.3242 1.458743,1.53037 2.082024,1.95884 2.607053,1.7922 0.517585,-0.16427 0.986144,0.13688 1.875292,1.20531 1.056305,1.26928 1.467616,1.48304 3.779202,1.96401 2.530355,0.52649 3.932488,0.45013 3.932488,-0.21415 0,-0.18095 0.238125,-0.32901 0.529167,-0.32901 0.291042,0 0.529167,0.23447 0.529167,0.52104 0,0.67157 1.530198,1.67657 2.35894,1.5493 0.351818,-0.054 0.996858,0.0986 1.43342,0.33924 0.594784,0.32781 0.977858,0.33894 1.52822,0.0444 0.592128,-0.31689 0.820978,-0.27476 1.180868,0.21742 0.31228,0.42706 0.52184,0.48844 0.69747,0.20428 0.13808,-0.22343 0.62956,-0.40622 1.09217,-0.40622 0.46262,0 1.04857,-0.29185 1.3021,-0.64854 0.25354,-0.35669 0.93723,-0.76455 1.51931,-0.90635 1.38046,-0.33628 3.35139,-2.24854 3.35139,-3.25162 0,-0.43315 0.21388,-1.00142 0.47528,-1.26282 0.39852,-0.39852 0.39599,-0.7472 -0.0157,-2.15895 -0.27107,-0.92998 -0.76034,-1.78407 -1.09261,-1.90758 -0.33094,-0.12303 -1.00223,-0.51543 -1.49176,-0.87201 -0.48954,-0.35657 -1.75954,-0.74461 -2.82223,-0.86228 -1.43421,-0.15883 -2.20491,-0.46619 -2.99049,-1.19265 -0.58209,-0.53828 -2.379401,-1.57732 -3.994036,-2.30899 -2.592144,-1.17463 -2.906741,-1.41611 -2.68823,-2.06341 0.340928,-1.00995 0.358859,-2.35101 0.0435,-3.25357 -0.178047,-0.50957 -0.0784,-0.94253 0.305234,-1.32616 0.748478,-0.74848 1.087085,-0.49095 1.375438,1.04611 0.184235,0.98204 0.468704,1.34492 1.274505,1.62583 0.639145,0.22281 1.255974,0.82236 1.60691,1.5619 0.596498,1.25703 1.427199,1.57152 1.772719,0.67112 0.11168,-0.29104 0.42117,-0.52917 0.68776,-0.52917 0.46964,0 0.72341,0.66734 0.92855,2.44181 0.15393,1.33149 0.87054,1.25465 1.12862,-0.12103 0.1277,-0.68073 0.39175,-1.3363 0.58676,-1.45683 0.62336,-0.38526 1.38199,0.59589 1.38199,1.78734 0,0.70015 0.20805,1.23362 0.52917,1.35684 0.32234,0.12369 0.52917,7.1e-4 0.52917,-0.31503 0,-0.55215 0.63094,-0.67554 1.2686,-0.24811 0.21265,0.14255 0.49349,0.69574 0.62408,1.22932 0.13058,0.53358 0.47252,0.97014 0.75987,0.97014 0.60881,0 0.67778,-0.40911 0.1568,-0.93009 -0.43518,-0.43518 -0.71096,-3.43154 -0.44202,-4.80255 0.10467,-0.53358 0.40859,-0.97014 0.67537,-0.97014 0.44999,0 0.69687,-1.15347 0.52854,-2.46944 -0.0372,-0.29105 -0.13148,-1.00542 -0.20945,-1.5875 -0.078,-0.58209 -0.15189,-1.16587 -0.16427,-1.2973 -0.0124,-0.13143 -0.88706,-0.64796 -1.94371,-1.14783 -2.02133,-0.95624 -3.09109,-2.06841 -2.77696,-2.88704 0.32161,-0.83809 1.29158,-0.50846 2.75787,0.93724 0.77611,0.76521 1.54507,1.39242 1.7088,1.3938 0.16372,0.001 0.19168,-0.76825 0.0621,-1.71029 -0.16461,-1.19679 -0.0737,-2.10018 0.30167,-2.99861 0.29549,-0.7072 0.3866,-1.28581 0.20247,-1.28581 -0.18413,0 -0.33478,-0.30264 -0.33478,-0.67253 0,-0.49884 -0.18221,-0.62488 -0.70555,-0.48802 -0.49069,0.12832 -0.70556,0.0108 -0.70556,-0.3858 0,-0.31368 0.23813,-0.57031 0.52917,-0.57031 0.79318,0 0.67692,-2.51702 -0.19336,-4.18671 -0.68407,-1.31241 -2.47013,-2.49899 -3.33442,-2.21524 -0.40363,0.13252 -5.302935,-1.25367 -6.31963,-1.78805 -0.371355,-0.19518 -1.920971,-0.4084 -3.443588,-0.47382 -1.52262,-0.0654 -2.927935,-0.21754 -3.122926,-0.33805 -0.673393,-0.41618 0.08,-0.91654 1.056947,-0.70197 0.703502,0.15451 1.039283,0.0608 1.190064,-0.33213 0.15391,-0.40108 -0.01657,-0.54737 -0.637861,-0.54737 -1.248943,0 -2.735668,-0.64811 -2.577207,-1.12349 0.30977,-0.92932 1.268317,-1.15888 2.015497,-0.4827 0.711746,0.64412 0.726207,0.64207 0.726207,-0.10302 0,-0.41813 -0.15875,-0.76023 -0.352778,-0.76023 -0.194028,0 -0.352778,-0.25511 -0.352778,-0.56691 0,-0.35898 -0.194084,-0.49243 -0.529166,-0.36385 -0.391093,0.15008 -0.527654,-0.0472 -0.523364,-0.75601 0.0079,-1.29989 1.399836,-3.64292 2.375447,-3.99845 0.738385,-0.26909 0.79375,-0.19163 0.79375,1.11048 0,1.11271 0.13021,1.39974 0.635,1.39974 0.34925,0 0.822854,-0.18785 1.052452,-0.41745 0.668839,-0.66884 0.90139,-0.0676 0.533873,1.3803 -0.441635,1.7399 0.168702,3.62135 1.400461,4.31711 0.818634,0.46241 0.98534,0.45482 1.56679,-0.0714 0.61575,-0.55724 0.7144,-0.51401 1.83774,0.80545 1.46156,1.71671 2.30436,1.86048 1.96952,0.33598 -0.20671,-0.94113 -0.14144,-1.05726 0.58933,-1.04862 0.52022,0.006 1.14541,0.45072 1.70372,1.21152 1.16001,1.58073 1.99002,1.774 2.98907,0.696 0.4378,-0.47239 1.04857,-0.8589 1.35726,-0.8589 0.50611,0 0.51043,0.14407 0.044,1.46614 -0.2845,0.80638 -0.46166,1.52176 -0.39368,1.58974 0.068,0.068 0.49084,-0.19491 0.93969,-0.5842 0.44885,-0.38929 0.95055,-0.70779 1.11489,-0.70779 0.16434,0 0.2988,-0.2249 0.2988,-0.49977 0,-0.88739 0.86168,-0.8438 1.62414,0.0822 l 0.7422,0.90135 0.24393,-1.30021 c 0.2271,-1.21059 0.33399,-1.3029 1.55085,-1.33925 0.71881,-0.0215 1.64895,-0.0121 2.06698,0.0208 0.41804,0.0329 0.86396,-0.10825 0.99096,-0.31373 0.29464,-0.47674 1.48943,-0.48575 1.78133,-0.0134 0.12243,0.19809 -0.35838,0.60292 -1.06847,0.89961 -0.82724,0.34565 -1.22458,0.71272 -1.106,1.02175 0.2625,0.68405 -0.59143,0.91226 -1.95269,0.52186 -1.57357,-0.4513 -1.65805,-0.43286 -1.46143,0.31902 0.24122,0.92243 -0.85845,1.97251 -1.50432,1.43648 -0.54756,-0.45444 -2.26026,-0.15301 -2.26026,0.39779 0,0.49669 0.76347,0.73922 2.53907,0.80657 1.19914,0.0455 1.59012,0.22222 1.86193,0.84163 0.51409,1.17152 2.69184,1.38936 5.12632,0.51278 3.03343,-1.09224 3.87823,-1.2225 3.87823,-0.598 0,0.29474 -0.24799,0.53589 -0.55107,0.53589 -0.74879,0 -4.13061,1.08754 -4.54657,1.46211 -0.18953,0.17066 0.64579,0.30178 1.92264,0.30178 2.1717,0 2.65055,0.4989 0.73319,0.76388 -1.07284,0.14826 -1.42189,1.00001 -0.40981,1.00001 0.41811,0 0.73495,0.22813 0.73495,0.52916 0,0.73558 -1.27128,0.65714 -3.14792,-0.19425 -1.13609,-0.51541 -1.62945,-0.59625 -1.81422,-0.29728 -0.33272,0.53835 -2.09341,0.10263 -2.09341,-0.51806 0,-0.25684 -0.67983,-0.81663 -1.51073,-1.24397 -0.8309,-0.42735 -1.66433,-1.127 -1.85207,-1.55477 -0.40104,-0.91375 -2.21445,-1.14518 -1.94798,-0.24861 0.0865,0.29104 0.1351,1.07926 0.10799,1.75159 -0.0271,0.67233 0.11891,1.42509 0.32449,1.6728 0.20558,0.24771 0.45202,1.72169 0.54764,3.27549 0.14971,2.43277 0.0951,2.82512 -0.39357,2.82512 -0.77551,0 -0.71273,0.4451 0.1377,0.9762 0.4796,0.29951 0.69803,0.80619 0.68293,1.58416 -0.0122,0.62909 0.0353,2.16898 0.10553,3.42198 l 0.12772,2.27817 2.09975,0.36766 c 1.15487,0.20221 2.55039,0.31607 3.10116,0.25302 0.93243,-0.10675 0.95672,-0.14753 0.35278,-0.59216 -0.6085,-0.44799 -0.6107,-0.49223 -0.0357,-0.71516 0.33712,-0.1307 1.11487,-0.0627 1.72833,0.15119 0.61347,0.21386 1.40921,0.38883 1.76831,0.38883 0.87741,0 0.8353,-0.92835 -0.0526,-1.16055 -0.72668,-0.19003 -0.9953,-0.95612 -0.33525,-0.95612 0.20366,0 0.82965,0.23755 1.39109,0.52787 0.64386,0.33296 1.101,0.39809 1.23802,0.17639 0.11948,-0.19331 -0.0303,-0.35148 -0.33276,-0.35148 -0.30249,0 -0.54998,-0.14177 -0.54998,-0.31503 0,-0.4765 0.88376,-0.71644 1.41943,-0.38538 0.29769,0.18398 1.23548,-0.092 2.52565,-0.74327 2.30543,-1.16379 2.82619,-0.88517 0.64103,0.34296 -0.77611,0.4362 -1.41111,1.00874 -1.41111,1.27232 0,0.26358 -0.59532,0.67375 -1.32292,0.9115 -0.72761,0.23774 -1.67252,0.80568 -2.09982,1.26208 -0.51112,0.54594 -1.1749,0.83008 -1.94028,0.83057 -0.63985,3.6e-4 -2.0365,0.45474 -3.10365,1.00959 -1.06715,0.55485 -2.34962,1.10633 -2.84994,1.22551 -0.51939,0.12371 -1.09735,0.62863 -1.34715,1.17688 -0.35164,0.77178 -0.5023,0.85997 -0.76774,0.44943 -0.23994,-0.37108 -0.31089,-0.21857 -0.25946,0.55766 0.0389,0.58763 -0.049,1.26232 -0.19549,1.4993 -0.14647,0.23699 -0.10805,0.43088 0.0854,0.43088 0.38738,0 0.39702,1.4823 0.0115,1.76389 -0.13283,0.097 -0.47565,1.09897 -0.76182,2.22656 -0.30467,1.20051 -0.36511,1.89497 -0.14583,1.67569 0.65841,-0.65841 0.93892,-0.40636 0.93892,0.84365 0,0.66997 0.18959,1.63423 0.42132,2.14281 0.30711,0.67403 0.31733,1.09118 0.0377,1.53893 -0.23833,0.38163 -0.26357,0.82876 -0.0666,1.18065 0.18121,0.32381 0.18676,0.91829 0.0129,1.38807 -0.60744,1.64177 0.48146,2.36371 1.42402,0.94413 0.27736,-0.41773 0.84213,-0.78439 1.25504,-0.81481 0.41291,-0.0304 1.05374,-0.42949 1.42406,-0.88682 0.84765,-1.0468 2.09327,-0.78504 1.50398,0.31605 -0.84449,1.57794 0.0181,1.47475 1.53767,-0.18396 1.31842,-1.43913 2.58142,-1.55515 2.3937,-0.21989 -0.0607,0.43178 0.0285,0.78505 0.19824,0.78505 0.36265,0 1.61693,-1.65391 1.96739,-2.59424 0.14554,-0.39049 0.45356,-0.57344 0.76455,-0.45411 0.30715,0.11787 0.67754,-0.093 0.90285,-0.514 0.41396,-0.77348 1.27752,-0.71278 1.11917,0.0787 -0.1531,0.76523 1.2722,-1.17088 1.6556,-2.24896 0.39531,-1.11152 0.18511,-1.22081 -0.73918,-0.38433 -0.88782,0.80346 -1.10463,0.44226 -0.47608,-0.79312 0.31875,-0.6265 1.20179,-1.35808 2.26293,-1.87479 1.11989,-0.54533 1.67515,-1.0169 1.55772,-1.32292 -0.1064,-0.27728 0.0539,-0.47553 0.38443,-0.47553 0.3118,0 0.56691,-0.15875 0.56691,-0.35278 0,-0.19403 0.29949,-0.35278 0.66552,-0.35278 0.89168,0 1.19227,1.86379 0.41651,2.58258 -0.91034,0.84349 -1.78758,2.11728 -1.78758,2.59563 0,0.6182 2.07723,0.20633 2.99861,-0.59456 0.38805,-0.33731 0.88944,-0.54574 1.1142,-0.46318 0.22475,0.0826 0.51193,-0.017 0.63818,-0.22129 0.12625,-0.20427 0.0614,-0.3714 -0.14406,-0.3714 -0.20548,0 -0.3736,-0.17642 -0.3736,-0.39204 0,-0.44423 2.43174,-0.11335 2.96492,0.40343 0.18754,0.18178 -0.13967,0.7378 -0.79375,1.34881 -0.61206,0.57175 -1.11283,1.21398 -1.11283,1.42717 0,0.21424 -0.60491,0.38763 -1.35232,0.38763 -0.74377,0 -1.47114,0.11906 -1.61637,0.26459 -0.14523,0.14552 -0.84638,0.42842 -1.55811,0.62866 -1.04229,0.29325 -1.29404,0.53346 -1.29404,1.23472 0,0.71424 0.15844,0.85667 0.88195,0.79287 0.48507,-0.0428 1.55663,-0.0957 2.38125,-0.11759 0.82462,-0.0219 1.4993,-0.2036 1.4993,-0.40377 0,-0.20018 0.4097,-0.0955 0.91045,0.23259 0.50074,0.3281 1.13066,0.51204 1.39981,0.40876 0.78191,-0.30005 1.03691,0.54691 0.32205,1.06963 -0.7034,0.51434 -2.35072,0.63942 -2.77966,0.21107 -0.14572,-0.14552 -1.085,-0.30494 -2.08727,-0.35426 -1.00228,-0.0493 -2.54264,-0.12839 -3.42303,-0.1757 -1.35375,-0.0727 -1.81516,0.0908 -2.99079,1.05983 -0.76455,0.6302 -1.74713,1.14582 -2.18352,1.14582 -0.4497,0 -1.03538,0.36926 -1.3519,0.85233 -0.75658,1.15468 -1.51605,1.38376 -2.48431,0.74934 -0.74628,-0.48899 -0.82798,-0.47566 -1.03239,0.16839 -0.17215,0.54238 -0.53592,0.69939 -1.62039,0.69939 -0.9176,0 -1.46823,0.18194 -1.60147,0.52917 -0.11169,0.29104 -0.41631,0.52916 -0.67696,0.52916 -0.26064,0 -0.62477,0.2696 -0.80917,0.59911 -0.28775,0.51418 -0.51797,0.54304 -1.62409,0.20356 -1.22569,-0.37618 -1.30792,-0.34937 -1.6791,0.54742 -0.21466,0.51863 -0.35517,1.15318 -0.31224,1.41011 0.0429,0.25693 -0.11282,0.69713 -0.3461,0.97822 -0.34583,0.41669 -0.31777,0.47025 0.15194,0.29 0.75726,-0.29059 1.10585,0.63727 0.59679,1.58846 -0.32067,0.59918 -0.29005,0.73312 0.16758,0.73312 0.30796,0 0.72542,-0.47474 0.92769,-1.05498 0.34573,-0.99176 0.41276,-1.02347 1.11848,-0.52917 0.41289,0.2892 1.41996,0.52582 2.23794,0.52582 1.1598,0 1.74234,-0.23301 2.64595,-1.05833 1.42306,-1.29976 2.01935,-1.35841 1.79339,-0.17639 -0.18448,0.96501 0.29757,1.1654 0.94035,0.3909 0.68576,-0.82629 1.79553,-0.95133 1.79553,-0.20231 0,0.96313 0.55729,1.14092 1.70915,0.54527 0.8318,-0.43014 1.23167,-0.45142 2.12766,-0.11322 0.98856,0.37314 1.15935,0.33653 1.64154,-0.35189 0.65159,-0.93028 1.49713,-0.7017 1.96598,0.53147 0.32726,0.86077 0.35071,0.86593 1.05191,0.23134 0.55513,-0.50238 1.33559,-0.65916 3.45396,-0.69383 2.46753,-0.0404 4.98313,-0.67844 4.98313,-1.26392 0,-0.12362 0.75406,-0.42481 1.6757,-0.6693 1.49065,-0.39544 1.5783,-0.47 0.79375,-0.67515 -1.23633,-0.32329 -1.13932,-1.24797 0.13569,-1.2934 0.61941,-0.0221 1.25748,-0.35422 1.63055,-0.84881 0.39096,-0.51831 0.82089,-0.73275 1.18722,-0.59218 0.31588,0.12121 0.57431,0.0666 0.57431,-0.12132 0,-0.18794 0.17574,-0.34171 0.39052,-0.34171 0.21518,0 0.29198,0.25681 0.17105,0.57195 -0.30749,0.80129 1.1802,2.08215 3.607,3.10553 1.40507,0.59252 2.00504,1.0397 2.00504,1.49444 0,1.31163 -3.29565,0.41499 -3.97783,-1.08222 -0.46412,-1.01864 -2.71803,-1.74071 -3.63874,-1.16572 -0.7529,0.4702 -1.12174,1.2226 -0.83042,1.69397 0.1091,0.17652 1.06211,0.32094 2.11782,0.32094 1.0557,0 1.91945,0.15875 1.91945,0.35278 0,0.19403 0.23813,0.35278 0.52917,0.35278 0.29104,0 0.52917,0.14938 0.52917,0.33195 0,0.60952 -0.82891,0.85476 -2.57565,0.76205 -0.9521,-0.0505 -2.41496,0.11005 -3.25082,0.35685 -1.30639,0.38573 -1.51171,0.57538 -1.4626,1.35102 0.0468,0.7393 -0.11812,0.92246 -0.91302,1.01392 -0.68845,0.0792 -0.97014,-0.0469 -0.97014,-0.43425 0,-0.30798 -0.42279,-0.63997 -0.97014,-0.76178 -0.53357,-0.11874 -1.24795,-0.29122 -1.5875,-0.38327 -0.41184,-0.11165 -0.61736,0.0327 -0.61736,0.43352 0,0.50922 -0.24219,0.56769 -1.5875,0.38329 -1.39411,-0.19108 -1.5875,-0.13705 -1.5875,0.44348 0,0.98503 -2.20012,1.547 -3.01625,0.77043 -0.40236,-0.38286 -7.49037,-1.18127 -7.95233,-0.89576 -0.35968,0.2223 -3.70034,0.46446 -8.78697,0.63698 l -3.35138,0.11366 0.0164,3.14243 c 0.0137,2.62224 0.39348,4.86509 1.25789,7.42867 0.0752,0.22313 -0.004,0.40801 -0.17655,0.41084 -0.47439,0.008 -0.87953,0.82234 -0.67461,1.35634 0.0998,0.26012 0.44232,0.46947 0.76111,0.46521 0.96118,-0.0128 3.69062,-1.3838 4.72707,-2.37433 0.74241,-0.70951 1.0701,-0.83175 1.38514,-0.51671 0.31504,0.31504 0.27276,0.56727 -0.17871,1.06615 -0.69019,0.76264 -0.79247,1.9546 -0.15042,1.7529 0.24254,-0.0762 0.65614,-0.61731 0.91913,-1.20248 0.48923,-1.08861 1.98328,-2.38928 1.60141,-1.39414 -0.38717,1.00895 0.54298,0.8777 1.29842,-0.18321 l 0.7861,-1.10398 0.40543,0.99189 0.40544,0.99189 0.98343,-1.28934 c 0.54088,-0.70913 1.29592,-1.38852 1.67787,-1.50975 0.38194,-0.12122 0.84016,-0.60369 1.01828,-1.07216 0.38465,-1.01172 1.20931,-1.15832 0.95059,-0.16899 -0.23536,0.90002 0.48374,1.13989 1.85994,0.62043 0.95888,-0.36193 1.15637,-0.33514 1.45435,0.19733 0.40988,0.73242 1.17456,0.83442 0.90045,0.12012 -0.22594,-0.58877 0.81074,-1.62065 1.62819,-1.62065 0.31671,0 0.89491,-0.34249 1.2849,-0.76109 0.63243,-0.67883 0.73349,-0.69741 0.93515,-0.17189 0.12435,0.32405 0.0419,0.81116 -0.18328,1.08246 -0.52328,0.63051 0.0611,1.04188 1.03915,0.73146 0.73243,-0.23246 0.96101,-1.38502 0.34962,-1.76288 -0.82188,-0.50795 -0.33134,-1.15058 0.79375,-1.03984 0.63059,0.0621 1.14653,0.13604 1.14653,0.16438 0,0.0283 0.46827,0.12753 1.0406,0.22042 1.18413,0.19217 2.28931,-0.88421 2.30294,-2.24297 0.0111,-1.10611 1.00706,-1.53211 2.67672,-1.1449 1.88226,0.43651 1.85334,0.44315 1.9809,-0.4549 0.0976,-0.68691 0.29062,-0.77815 1.43565,-0.67852 1.30722,0.11374 1.32291,0.0999 1.32291,-1.16746 0,-0.76522 0.1423,-1.19463 0.35278,-1.06455 0.19403,0.11992 0.35278,0.50814 0.35278,0.86273 0,0.79989 2.09732,1.24364 2.32573,0.49208 0.079,-0.26007 0.21907,-0.71351 0.31118,-1.00762 0.13004,-0.41526 0.48814,-0.48349 1.60242,-0.30531 1.20669,0.19296 1.57561,0.0973 2.319098,-0.60114 0.80913,-0.76014 0.83031,-0.85185 0.24966,-1.08102 -0.59282,-0.23396 -0.59395,-0.25493 -0.0171,-0.31929 0.33955,-0.0379 0.77611,-0.10859 0.97014,-0.15709 0.19402,-0.0485 0.51152,-0.10804 0.70555,-0.13229 0.19403,-0.0242 0.35278,-0.43812 0.35278,-0.9197 0,-0.8137 0.11844,-0.87341 1.67569,-0.8448 0.92164,0.0169 1.83445,-0.005 2.02848,-0.0481 0.74301,-0.1662 0.8938,0.0288 0.53729,0.69501 -0.20366,0.38054 -0.91135,0.79203 -1.57685,0.91688 -0.66406,0.12458 -1.48048,0.52829 -1.81428,0.89713 -0.3338,0.36884 -0.8068,0.67062 -1.05111,0.67062 -0.24431,0 -1.01635,0.55562 -1.71563,1.23472 -0.69928,0.6791 -1.546348,1.24108 -1.882368,1.24885 -0.42174,0.01 -0.30188,0.18163 0.38702,0.55501 0.64766,0.35102 0.926278,0.72769 0.793748,1.07306 -0.112318,0.2927 -0.204218,0.59857 -0.204218,0.67971 0,0.0811 -0.79375,0.14754 -1.76389,0.14754 -1.02315,0 -1.76389,0.15931 -1.76389,0.37936 0,0.20865 -0.43656,0.35058 -0.97014,0.3154 -3.02948,-0.19976 -4.42697,0.26832 -3.63828,1.21863 0.52934,0.63782 3.02708,0.76413 3.39328,0.17159 0.14156,-0.22904 0.70929,-0.29597 1.40442,-0.16556 0.66532,0.12481 1.2634,0.0626 1.39153,-0.14471 0.33951,-0.54934 1.58868,-0.43567 1.8194,0.16557 0.12486,0.3254 0.660478,0.52916 1.390978,0.52916 0.96919,0 1.29106,-0.19947 1.74811,-1.08329 0.44607,-0.8626 0.65969,-1.00073 1.04855,-0.67801 0.41391,0.34352 0.4009,0.58867 -0.0854,1.60837 -0.6663,1.39724 -2.24342,1.88896 -4.166028,1.29889 -0.7455,-0.2288 -1.78536,-0.24309 -2.87012,-0.0394 -2.49063,0.46759 -7.95242,0.0977 -8.44273,-0.57174 -0.58462,-0.79824 -1.38416,-0.64716 -1.8372,0.34716 -0.23572,0.51735 -0.69664,0.88194 -1.11495,0.88194 h -0.88951 c -0.097,0 -0.50201,0.32562 -0.89999,0.7236 -0.44436,0.44436 -0.97375,0.64421 -1.3718,0.51787 -0.36359,-0.1154 -1.21674,0.12972 -1.94306,0.55826 -1.06205,0.62662 -1.44848,0.69399 -2.14926,0.3747 -0.71169,-0.32427 -0.91167,-0.28225 -1.19738,0.2516 -0.23548,0.43999 -0.20994,0.78325 0.0815,1.09507 0.34043,0.36427 0.30127,0.38911 -0.19783,0.12546 -1.08068,-0.57088 -2.95182,-0.13901 -3.45271,0.79691 -0.43141,0.80608 -2.09861,1.24231 -2.09861,0.54911 0,-0.1645 -0.47625,-0.31264 -1.05833,-0.32919 -0.9613,-0.0273 -1.24029,0.25644 -1.08773,1.10638 0.12318,0.68629 -0.8456,1.28579 -2.07782,1.28579 -1.51382,0 -3.53723,0.62514 -3.53723,1.09284 0,0.17505 -0.22312,0.31827 -0.49583,0.31827 -0.75343,0 -3.37909,1.48759 -3.18369,1.80376 0.0943,0.15263 -0.17063,0.46061 -0.5888,0.6844 -0.49164,0.26312 -0.83794,0.28335 -0.98001,0.0572 -0.12536,-0.19949 -0.80889,-0.25301 -1.59159,-0.12461 -1.18442,0.19429 -1.39506,0.36965 -1.5416,1.28337 -0.26674,1.66324 -0.15797,4.695 0.1908,5.31823 0.19079,0.34092 0.1758,1.18406 -0.0376,2.11679 -0.26462,1.15641 -0.2345,1.91449 0.11857,2.9843 0.48489,1.46922 1.23184,2.36134 0.98459,1.17594 -0.0954,-0.45753 0.2972,-0.95367 1.28364,-1.62205 1.21104,-0.82056 1.49338,-0.89065 1.9099,-0.47412 0.34134,0.34133 0.76864,0.40023 1.41648,0.19523 0.51023,-0.16146 1.69309,-0.39609 2.62858,-0.52141 0.9867,-0.13218 1.93466,-0.50088 2.25762,-0.87807 0.44207,-0.5163 0.68667,-0.56904 1.18775,-0.25612 0.47615,0.29736 0.84989,0.27696 1.52271,-0.0831 0.49042,-0.26246 0.8195,-0.59399 0.73129,-0.73671 -0.0882,-0.14273 0.19502,-0.35476 0.6294,-0.47118 1.15254,-0.30891 1.31895,-0.27483 1.31895,0.27011 0,0.27028 0.22652,0.57834 0.50338,0.68458 0.52968,0.20326 1.00377,-0.23388 1.37106,-1.2642 0.28666,-0.80412 0.69129,-0.77996 1.47695,0.0882 0.7473,0.82576 1.5296,0.91417 1.80224,0.20367 0.27963,-0.72871 1.14218,-0.96305 1.95114,-0.53011 0.53953,0.28875 0.91398,0.23878 1.60538,-0.21424 0.49595,-0.32496 0.79343,-0.41562 0.66108,-0.20147 -0.5344,0.86468 1.3266,0.32916 2.32471,-0.66896 1.04165,-1.04164 1.99513,-1.45292 1.49598,-0.64528 -0.1404,0.22717 0.16274,0.10811 0.67365,-0.26458 1.02709,-0.74925 1.26584,-1.91236 0.39253,-1.91236 -0.96896,0 -0.31667,-0.87637 0.74461,-1.00039 1.09901,-0.12842 3.464,-2.30369 3.85954,-3.54992 0.12941,-0.40775 0.44949,-0.74136 0.71129,-0.74136 0.2618,0 0.53495,-0.17687 0.60701,-0.39304 0.0721,-0.21618 0.39796,-0.33524 0.72423,-0.26458 0.46792,0.10133 0.2555,0.50097 -1.00586,1.89235 -0.87949,0.97013 -1.83123,2.20045 -2.115,2.73402 -0.48095,0.90437 -0.46889,0.97014 0.17787,0.97014 0.38159,0 0.78795,-0.15234 0.90302,-0.33854 0.11508,-0.18619 1.06258,-0.60753 2.10556,-0.9363 1.41463,-0.44593 1.84451,-0.73278 1.69236,-1.12928 -0.16212,-0.42249 -0.0289,-0.47668 0.6493,-0.26419 0.46929,0.14703 1.11941,0.28594 1.44471,0.30869 0.3253,0.0228 0.50388,0.18308 0.39684,0.35627 -0.10991,0.17783 0.28527,0.20951 0.90784,0.0728 0.68753,-0.15101 1.10247,-0.10298 1.10247,0.12759 0,0.20336 -0.23813,0.27836 -0.52917,0.16668 -0.33841,-0.12986 -0.52916,0.006 -0.52916,0.37814 0,0.45211 -0.29907,0.56355 -1.34656,0.50175 -1.2642,-0.0746 -3.19932,0.85457 -3.22847,1.55017 -0.006,0.14552 -0.53637,0.26459 -1.17838,0.26459 -0.64201,0 -1.46437,0.21722 -1.82747,0.48272 -0.63964,0.46772 -0.63715,0.49505 0.0801,0.87891 0.40715,0.2179 1.60622,0.62174 2.6646,0.89741 1.05837,0.27567 2.25476,0.70759 2.65865,0.95982 0.40388,0.25223 0.85929,0.33363 1.01202,0.1809 0.15272,-0.15272 0.001,-0.43241 -0.33674,-0.62153 -0.65436,-0.3662 -0.83313,-1.54309 -0.28578,-1.88137 0.18075,-0.11171 0.53794,0.0918 0.79375,0.45236 0.58577,0.82551 1.78798,1.473 2.73497,1.473 1.092208,0 0.877438,0.61684 -0.30521,0.87659 -0.56867,0.1249 -1.22311,0.45501 -1.4543,0.73358 -0.78412,0.94481 -4.26725,0.42006 -5.75081,-0.86638 -0.40623,-0.35225 -1.38594,-0.58844 -2.58373,-0.6229 -1.06116,-0.0305 -2.02347,-0.14958 -2.13848,-0.26458 -0.46953,-0.46953 -1.14983,-0.16207 -1.14983,0.51966 0,1.70515 -0.57815,2.09347 -3.11686,2.09347 -1.37514,0 -2.56445,0.17798 -2.80644,0.41997 -0.23098,0.23097 -2.09441,0.60873 -4.14096,0.83945 -2.30338,0.25966 -3.95106,0.6234 -4.32489,0.95472 -0.33215,0.29439 -0.9214,0.60075 -1.30946,0.68081 -0.38806,0.0801 -0.67129,0.31829 -0.62942,0.52941 0.0433,0.21844 -0.22243,0.30576 -0.61674,0.20265 -0.38108,-0.0997 -1.12742,0.10354 -1.65855,0.45154 -0.77847,0.51008 -1.8108,0.64654 -5.32528,0.70394 -3.54783,0.0579 -4.46843,0.18139 -4.94398,0.66294 -0.53649,0.54327 -0.53766,0.61827 -0.0142,0.91565 0.36705,0.20853 0.51184,0.62886 0.40648,1.18003 -0.1253,0.65545 0.0219,0.91502 0.62807,1.10741 0.55459,0.17602 0.88717,0.0808 1.11035,-0.31806 0.52975,-0.94661 1.24977,-0.64187 1.48836,0.62993 0.24261,1.29323 0.64773,1.75439 1.87026,2.12898 0.64066,0.1963 0.82371,0.0734 1.01281,-0.68003 0.33523,-1.33564 1.23402,-0.97116 1.80099,0.73034 0.36005,1.08053 0.79364,1.5882 1.74317,2.041 l 1.26392,0.60272 -0.13588,-1.42487 c -0.10751,-1.12728 -0.006,-1.4662 0.48775,-1.6228 0.72957,-0.23155 1.33552,0.0672 1.33552,0.65847 0,0.22904 0.27781,1.0888 0.61736,1.91057 0.46602,1.12785 0.86137,1.54777 1.61273,1.71297 1.2022,0.26432 1.57576,-0.0255 1.07557,-0.83448 -0.49772,-0.80494 -0.22444,-1.48326 0.59756,-1.48326 0.43893,0 0.74924,0.33405 0.90119,0.97014 0.39372,1.64814 0.70763,1.80524 3.4189,1.71101 1.70912,-0.0594 3.07664,-0.33842 4.19274,-0.85548 0.91099,-0.42204 2.02224,-0.74892 2.46945,-0.72641 0.59764,0.0301 0.64951,0.0837 0.19574,0.20226 -0.33955,0.0887 -0.61736,0.45649 -0.61736,0.81724 0,0.71936 -0.39022,0.88188 -2.95701,1.23158 -0.94725,0.12905 -2.0585,0.35946 -2.46944,0.51202 -0.61157,0.22704 -0.45907,0.32131 0.84034,0.51945 2.95533,0.45064 3.53443,0.61369 3.33365,0.93856 -0.26056,0.42159 -2.95742,0.41049 -5.60499,-0.0231 -1.15221,-0.18868 -2.17713,-0.26087 -2.27758,-0.16042 -0.36251,0.36251 1.21796,2.7543 2.22448,3.3664 l 1.02981,0.62627 -1.02838,0.22719 c -1.77599,0.39236 -1.90392,0.47723 -1.69591,1.12505 0.35082,1.09257 -1.99296,-1.76854 -2.71184,-3.31042 -0.68226,-1.46333 -0.69964,-1.47313 -3.06169,-1.72608 -2.08872,-0.22369 -2.50652,-0.3974 -3.46034,-1.43873 -0.59665,-0.65139 -1.36179,-1.18434 -1.70031,-1.18434 -0.33853,0 -0.96226,-0.19177 -1.38606,-0.42616 -0.42381,-0.23439 -1.61516,-0.43282 -2.64744,-0.44097 -1.41882,-0.0112 -1.96221,-0.16729 -2.22654,-0.63959 -0.19232,-0.34363 -0.49866,-0.5327 -0.68076,-0.42015 -0.18211,0.11254 -0.3311,-0.0478 -0.3311,-0.35643 0,-0.30859 -0.23813,-0.65244 -0.52917,-0.76412 -0.29104,-0.11169 -0.52916,-0.4242 -0.52916,-0.69449 0,-0.56461 -0.56102,-0.65792 -0.87744,-0.14593 -0.30826,0.49876 0.45773,1.77118 1.06624,1.77118 0.64361,0 0.64766,0.67966 0.009,1.52201 -0.41154,0.54284 -0.41166,0.78191 -7.1e-4,1.57388 0.26645,0.5136 0.40168,1.26364 0.30051,1.66676 -0.10118,0.40312 -0.0225,1.15769 0.1749,1.67682 0.22815,0.60006 0.23527,1.02027 0.0196,1.15358 -0.18669,0.11534 -0.33938,-0.0378 -0.33938,-0.34029 0,-0.30249 -0.15874,-0.54998 -0.35277,-0.54998 -0.19403,0 -0.46672,-0.0397 -0.60598,-0.0882 -0.30525,-0.10633 -0.27688,2.72789 0.0587,5.86139 0.15807,1.47605 0.42303,2.3529 0.74874,2.47789 0.53498,0.20529 0.70942,1.27392 0.20795,1.27392 -0.88109,0 -1.91362,5.50361 -1.12409,5.99158 0.3281,0.20277 0.33841,0.4487 0.0421,1.00246 -0.23142,0.43241 -0.35963,2.18946 -0.31217,4.2782 l 0.0805,3.54442 h 0.99268 c 1.23499,0 1.92726,1.35218 1.01044,1.97368 -0.86443,0.58599 -3.68387,1.20132 -5.50442,1.20132 -1.26525,0 -1.82008,-0.19636 -2.51317,-0.88946 z m 4.80208,-12.73568 c 0,-0.46877 -0.0958,-0.49287 -0.52916,-0.13319 -0.29104,0.24154 -0.52917,0.49911 -0.52917,0.57236 0,0.0733 0.23813,0.13319 0.52917,0.13319 0.29104,0 0.52916,-0.25756 0.52916,-0.57236 z m -0.35277,-4.03457 c 0,-0.18257 -0.15875,-0.33195 -0.35278,-0.33195 -0.19403,0 -0.35278,0.24749 -0.35278,0.54998 0,0.3025 0.15875,0.45188 0.35278,0.33196 0.19403,-0.11992 0.35278,-0.36741 0.35278,-0.54999 z m 0.70015,-9.76876 c 0.003,-0.43656 -0.13614,-0.79375 -0.30913,-0.79375 -0.41424,0 -0.83038,1.69117 -0.53411,2.17055 0.31315,0.50668 0.83623,-0.34739 0.84324,-1.3768 z m -22.219598,-4.86762 c 0,-0.41677 -0.667011,-0.41597 -0.827013,0.001 -0.130334,0.33965 -0.02519,0.44386 0.315814,0.31301 0.28116,-0.10797 0.511199,-0.24926 0.511199,-0.31407 z m 20.463428,-1.03997 c 0.16594,0.10255 0.39281,0.0391 0.50415,-0.1411 0.11135,-0.18016 -0.0761,-0.28682 -0.41659,-0.23701 -0.34048,0.0498 -0.63433,0.31368 -0.65301,0.58639 -0.0228,0.33237 0.0151,0.34904 0.11489,0.0506 0.0819,-0.24491 0.28463,-0.36139 0.45056,-0.25883 z m -15.877317,-0.74814 c 0,-0.26841 -0.3175,-0.48802 -0.705555,-0.48802 -0.458819,0 -0.705556,0.23519 -0.705556,0.67253 0,0.49884 0.182213,0.62488 0.705556,0.48802 0.388055,-0.10148 0.705555,-0.40412 0.705555,-0.67253 z m 16.580557,-2.15646 c 0,-0.43522 -0.0984,-0.45296 -0.52917,-0.0954 -0.29104,0.24154 -0.52916,0.5735 -0.52916,0.73768 0,0.16418 0.23812,0.20713 0.52916,0.0954 0.29104,-0.11168 0.52917,-0.44364 0.52917,-0.73768 z m 5.99722,0.10176 c 0,-0.0856 -0.15875,-0.25368 -0.35278,-0.3736 -0.19403,-0.11991 -0.35278,-0.0499 -0.35278,0.15557 0,0.20548 0.15875,0.3736 0.35278,0.3736 0.19403,0 0.35278,-0.07 0.35278,-0.15557 z m 19.04999,-11.83888 c 0,-0.19402 -0.17573,-0.35277 -0.39052,-0.35277 -0.21478,0 -0.29914,-0.23813 -0.18746,-0.52917 0.11169,-0.29104 0.0587,-0.52917 -0.11782,-0.52917 -0.48758,0 -0.80186,0.67673 -0.58125,1.25162 0.22065,0.57501 1.27705,0.70695 1.27705,0.15949 z m 5.29167,-0.88194 c 0.47671,-0.5744 0.36268,-0.6462 -0.50031,-0.31503 -0.30691,0.11777 -0.55802,0.35589 -0.55802,0.52916 0,0.48798 0.57162,0.37232 1.05833,-0.21413 z m -34.95075,-3.22247 c 0.0828,-0.0749 -0.13568,-0.34557 -0.48563,-0.60146 -0.51907,-0.37955 -0.56306,-0.60206 -0.23883,-1.20789 0.48921,-0.9141 0.49811,-1.14179 0.0447,-1.14179 -0.19403,0 -0.35278,0.23812 -0.35278,0.52917 0,0.29104 -0.14074,0.52916 -0.31274,0.52916 -0.34284,0 -0.73289,2.01178 -0.44573,2.29895 0.17145,0.17144 1.4806,-0.12543 1.79105,-0.40614 z m 4.61187,-0.83447 c 0,-1.64279 -0.0786,-1.97288 -0.44097,-1.85209 -0.14552,0.0485 -0.26459,-0.2293 -0.26459,-0.61736 0,-0.38805 -0.15572,-0.70555 -0.34605,-0.70555 -0.19034,0 -0.44567,-0.39688 -0.56742,-0.88195 -0.12174,-0.48507 -0.3359,-0.88194 -0.4759,-0.88194 -0.44837,0 -0.13031,2.94265 0.50523,4.6743 0.77062,2.09972 1.5897,2.23604 1.5897,0.26459 z m -0.35278,-5.64445 c 0,-0.38805 -0.15875,-0.70555 -0.35278,-0.70555 -0.19402,0 -0.35277,0.3175 -0.35277,0.70555 0,0.38806 0.15875,0.70556 0.35277,0.70556 0.19403,0 0.35278,-0.3175 0.35278,-0.70556 z m 0,-1.90253 c 0,-0.33466 -1.056,-0.50332 -1.24424,-0.19873 -0.11468,0.18555 0.11836,0.33737 0.51786,0.33737 0.39951,0 0.72638,-0.0624 0.72638,-0.13864 z m 1.05833,-0.21414 c 0,-0.19402 -0.15875,-0.35277 -0.35277,-0.35277 -0.19403,0 -0.35278,0.15875 -0.35278,0.35277 0,0.19403 0.15875,0.35278 0.35278,0.35278 0.19402,0 0.35277,-0.15875 0.35277,-0.35278 z m 17.98626,-3.79236 c -0.003,-0.14552 -0.15929,-0.5027 -0.34737,-0.79375 -0.27653,-0.4279 -0.34301,-0.37727 -0.34738,0.26459 -0.003,0.43656 0.15335,0.79375 0.34738,0.79375 0.19403,0 0.35034,-0.11907 0.34737,-0.26459 z m -24.49375,-0.58586 c 0.27372,-0.27372 0.6495,-0.55153 0.83506,-0.61736 0.32087,-0.11383 -0.0701,-2.90536 -0.58496,-4.17664 -0.34864,-0.86085 -0.42464,-2.11666 -0.1281,-2.11666 0.55762,0 1.0618,-1.65481 0.63441,-2.0822 -0.30463,-0.30463 -0.29449,-0.58159 0.0409,-1.11869 0.43428,-0.69539 0.42266,-0.69867 -0.44981,-0.12701 -0.63891,0.41863 -0.8956,0.4604 -0.8956,0.14573 0,-0.71934 1.61671,-2.00071 2.48003,-1.96562 1.06783,0.0434 1.31096,-0.76349 0.27433,-0.91043 -0.68819,-0.0975 -0.80841,-0.31378 -0.77739,-1.39824 0.0362,-1.26733 0.0173,-1.28502 -1.56605,-1.46349 -0.88419,-0.0997 -1.78795,-0.43395 -2.01585,-0.74563 -0.22722,-0.31074 -0.64698,-0.56498 -0.9328,-0.56498 -0.28582,0 -0.62847,-0.1088 -0.76144,-0.24177 -0.2595,-0.2595 -2.688863,-1.15523 -3.157024,-1.16403 -0.15542,-0.003 -0.510201,0.53946 -0.788405,1.20529 -0.278201,0.66583 -0.627289,1.28031 -0.775748,1.36551 -0.14846,0.0852 -1.301768,0.0293 -2.562909,-0.12421 -2.021389,-0.24605 -2.367739,-0.19886 -2.924158,0.39839 -0.347151,0.37262 -0.902807,0.6798 -1.234799,0.68262 -1.389927,0.0118 -6.071672,1.97386 -6.071672,2.54453 0,0.14991 -0.37005,0.27256 -0.822332,0.27256 -0.516104,0 -0.998104,0.32843 -1.294335,0.88194 -0.259602,0.48507 -0.686326,0.88195 -0.948277,0.88195 -0.324591,0 -0.4096,0.26565 -0.266922,0.83413 0.14811,0.59012 0.03524,0.90093 -0.385788,1.06251 -0.485676,0.18637 -0.514339,0.32573 -0.155829,0.75771 0.494739,0.59613 1.404038,0.11093 1.404038,-0.74919 0,-0.33826 0.428865,-0.45448 1.46787,-0.39777 1.091244,0.0596 1.738065,0.3492 2.52095,1.12889 1.053059,1.04876 1.053094,1.04876 1.548722,0.30231 0.65405,-0.98505 1.691054,-0.69642 2.237482,0.62278 0.464676,1.12182 1.393988,1.39174 1.402599,0.40738 0.0028,-0.33955 0.157826,-0.85549 0.344124,-1.14653 0.278754,-0.43549 0.557643,-0.27935 1.575329,0.88194 0.680135,0.77612 1.239654,1.58273 1.243379,1.79248 0.01041,0.58736 1.637002,1.32338 2.45303,1.10998 0.400805,-0.10481 0.728737,-0.0467 0.728737,0.12918 0,0.17587 0.198437,0.32049 0.440972,0.32139 0.242534,0.001 0.947377,0.47628 1.566319,1.05641 l 1.125347,1.05479 0.10938,-1.321 c 0.11848,-1.43099 1.08486,-1.89884 1.26902,-0.61436 0.0557,0.38865 0.57171,0.97661 1.14665,1.30657 0.57493,0.32997 1.2295,1.00417 1.45461,1.49822 0.47549,1.04359 0.53424,1.06325 1.19688,0.40062 z m 21.22861,0.28453 c -0.11723,-0.11722 -0.4215,-0.12975 -0.67616,-0.0278 -0.28142,0.11261 -0.19783,0.19621 0.21314,0.21313 0.37189,0.0153 0.58025,-0.0681 0.46302,-0.18528 z m -16.5968,-4.43912 c -0.11261,-0.28142 -0.1962,-0.19783 -0.21313,0.21314 -0.0153,0.37188 0.0681,0.58025 0.18529,0.46302 0.11722,-0.11722 0.12975,-0.4215 0.0278,-0.67616 z m 0.46457,-4.14636 c 0,-0.77152 -0.55105,-1.26177 -0.85871,-0.76397 -0.25777,0.41707 0.12939,1.4487 0.54368,1.4487 0.17327,0 0.31503,-0.30813 0.31503,-0.68473 z m 9.01034,-2.16096 c 0.37968,-0.61434 -0.0528,-0.74445 -0.5366,-0.16145 -0.27825,0.33528 -0.30502,0.5377 -0.0711,0.5377 0.20633,0 0.47979,-0.16932 0.60769,-0.37625 z m -10.06867,-0.68209 c 0,-0.19403 -0.15875,-0.35278 -0.35278,-0.35278 -0.19403,0 -0.35278,0.15875 -0.35278,0.35278 0,0.19403 0.15875,0.35278 0.35278,0.35278 0.19403,0 0.35278,-0.15875 0.35278,-0.35278 z m 28.57499,-0.94074 c 0,-0.32338 -0.10445,-0.48351 -0.23212,-0.35584 -0.12767,0.12767 -0.43821,0.0611 -0.6901,-0.14796 -0.25189,-0.20905 -0.62368,-0.27768 -0.82621,-0.15251 -0.65592,0.40538 -0.39142,0.84112 0.60191,0.9916 0.53357,0.0808 1.00982,0.17075 1.05833,0.19982 0.0485,0.0291 0.0882,-0.21173 0.0882,-0.53511 z m -31.5736,-5.05648 c -0.11992,-0.19403 -0.37678,-0.35278 -0.57081,-0.35278 -0.19402,0 -0.25466,0.15875 -0.13475,0.35278 0.11992,0.19403 0.37678,0.35278 0.57081,0.35278 0.19403,0 0.25466,-0.15875 0.13475,-0.35278 z m 10.36394,-1.37707 c 0.56918,-0.36052 0.22952,-1.09237 -0.50699,-1.09237 -0.27959,0 -0.50835,0.3175 -0.50835,0.70555 0,0.76591 0.26027,0.86507 1.01534,0.38682 z m -3.48478,-1.29816 c 0,-0.30721 -0.18851,-0.49573 -0.41892,-0.41892 -0.65413,0.21804 -0.76262,0.97748 -0.13964,0.97748 0.30721,0 0.55856,-0.25135 0.55856,-0.55856 z m -7.40833,-0.14699 c 0,-0.19403 0.30464,-0.35278 0.67697,-0.35278 0.74564,0 2.84504,-1.09074 2.84858,-1.47998 0.004,-0.45657 -3.34262,-0.46528 -4.3193,-0.0112 -1.00784,0.46853 -1.11551,0.70191 -0.756,1.63875 0.23264,0.60626 1.54975,0.78069 1.54975,0.20523 z m 3.42982,-3.96875 c 0.18767,-0.24254 0.44025,-0.71879 0.56129,-1.05834 0.3451,-0.96805 -1.12477,-0.79423 -1.49161,0.17639 -0.45949,1.21577 0.19323,1.83455 0.93032,0.88195 z m 6.60109,-16.45474 c 0.10712,-0.17333 -0.2407,-0.42382 -0.77293,-0.55665 -0.53224,-0.13283 -1.22975,-0.4776 -1.55004,-0.76616 -0.41555,-0.3744 -0.65305,-0.41025 -0.82924,-0.12516 -0.1456,0.23557 0.0572,0.47902 0.49414,0.59329 0.40758,0.10658 0.74105,0.4134 0.74105,0.68181 0,0.53982 1.601,0.6842 1.91702,0.17287 z m -4.38646,-5.68207 c 0,-0.19403 -0.2475,-0.35278 -0.54999,-0.35278 -0.30249,0 -0.45187,0.15875 -0.33196,0.35278 0.11992,0.19403 0.36741,0.35278 0.54999,0.35278 0.18258,0 0.33196,-0.15875 0.33196,-0.35278 z m 0,-10.03335 c 0,-0.81942 -0.52966,-0.91265 -0.99072,-0.17439 -0.36848,0.59004 -0.33017,0.68274 0.28217,0.68274 0.3897,0 0.70855,-0.22876 0.70855,-0.50835 z m 17.10971,83.41113 c 0.96982,-0.41674 1.52681,-0.41674 0.88195,0 -0.29104,0.18809 -0.76729,0.33325 -1.05834,0.32258 -0.34891,-0.0128 -0.28883,-0.12267 0.17639,-0.32258 z m 4.40972,-2.06651 c 0,-0.36257 1.06853,-0.86312 1.31543,-0.61621 0.0859,0.0859 -0.17498,0.33331 -0.57965,0.54988 -0.40494,0.21671 -0.73578,0.24654 -0.73578,0.0663 z m -26.07769,-4.1365 c 0.0169,-0.41097 0.10052,-0.49456 0.21313,-0.21314 0.10191,0.25466 0.0894,0.55894 -0.0278,0.67616 -0.11723,0.11723 -0.2006,-0.0911 -0.18528,-0.46302 z m 37.63117,-12.39411 c -1.07072,-0.1622 -1.32931,-0.78225 -0.35278,-0.84588 0.33955,-0.0221 1.04354,-0.0912 1.56443,-0.15348 0.90506,-0.10823 0.92114,-0.083 0.36257,0.56939 -0.32147,0.37545 -0.5889,0.65886 -0.59429,0.62979 -0.005,-0.0291 -0.44636,-0.11899 -0.97993,-0.19982 z m -52.475691,-2.51075 c 0,-0.16169 0.238125,-0.29398 0.529167,-0.29398 0.291041,0 0.529166,0.13229 0.529166,0.29398 0,0.16169 -0.238125,0.29398 -0.529166,0.29398 -0.291042,0 -0.529167,-0.13229 -0.529167,-0.29398 z m -1.940278,-0.41157 c -0.27759,-0.44916 0.539708,-0.44916 1.234722,0 0.430206,0.27802 0.384616,0.34298 -0.243762,0.34737 -0.425111,0.003 -0.871043,-0.15335 -0.99096,-0.34737 z m -3.861932,-1.02821 c -0.113587,-0.18378 -0.05615,-0.42709 0.127635,-0.54067 0.183787,-0.11359 0.42709,-0.0562 0.540674,0.12763 0.113588,0.18379 0.05615,0.42709 -0.127635,0.54068 -0.183786,0.11359 -0.42709,0.0562 -0.540674,-0.12764 z m 63.371921,-23.57024 c -0.86275,-0.10629 -1.13844,-0.29888 -1.05545,-0.7373 0.14948,-0.78961 2.13132,-0.989 2.72462,-0.27411 0.42334,0.51009 0.24921,1.32912 -0.25763,1.21173 -0.13407,-0.031 -0.76926,-0.1212 -1.41154,-0.20032 z m -18.99265,-14.90366 c -0.4167,-0.17179 -0.86264,-0.48222 -0.99095,-0.68984 -0.3421,-0.55353 -1.11626,-0.46085 -1.79159,0.21448 -0.52354,0.52354 -0.83213,0.54237 -2.66912,0.16295 -1.46084,-0.30173 -2.28017,-0.32037 -2.76141,-0.0628 -0.98751,0.5285 -3.26606,0.45005 -4.7332,-0.16295 -0.69655,-0.29105 -1.66286,-0.52917 -2.14733,-0.52917 -0.90009,0 -1.61124,-0.86318 -1.61124,-1.95568 0,-0.47047 0.23375,-0.55226 1.14652,-0.40114 2.19471,0.36335 3.26657,0.68798 3.80158,1.15136 0.29611,0.25647 1.20892,0.57353 2.02847,0.70458 1.3594,0.21738 1.49009,0.17244 1.49009,-0.51237 0,-0.8939 0.30919,-0.92572 2.02578,-0.20848 0.96849,0.40465 2.08204,0.49741 4.39084,0.36574 3.28255,-0.18721 4.4444,-0.60503 6.77344,-2.43586 1.13659,-0.89347 1.30257,-0.94881 0.9674,-0.32253 -0.22252,0.41578 -0.74173,0.99212 -1.15379,1.28073 -0.47382,0.33188 -0.66813,0.73602 -0.52865,1.0995 0.16849,0.43908 0.0655,0.52553 -0.4362,0.36629 -0.78065,-0.24777 -2.51382,0.34456 -2.51382,0.85913 0,0.19883 0.25136,0.36151 0.55857,0.36151 0.78615,0 0.41417,0.86633 -0.40981,0.95442 -0.37286,0.0399 -1.01887,-0.0681 -1.43558,-0.23986 z m -51.112433,-6.74376 c -0.381586,-0.14917 -1.190293,-0.28237 -1.797128,-0.29601 -0.606831,-0.0137 -1.309241,-0.2729 -1.56091,-0.57614 -0.402236,-0.48467 -0.337096,-0.52112 0.538589,-0.30133 0.712061,0.17871 0.924362,0.13383 0.744391,-0.15737 -0.31032,-0.5021 0.07143,-1.81218 0.528064,-1.81218 0.183688,0 0.768304,0.46103 1.299146,1.02451 0.982194,1.04258 3.963776,1.86725 3.963776,1.09633 0,-0.19632 -0.221142,-0.35695 -0.491423,-0.35695 -0.933408,0 -0.914488,-0.97707 0.0224,-1.15617 1.249384,-0.23883 2.308927,0.0965 2.091898,0.66207 -0.228151,0.59455 0.361121,0.9942 0.68743,0.46622 0.41571,-0.67264 -0.588839,-2.02791 -1.919086,-2.58912 -2.419075,-1.02056 -3.899341,-2.06558 -3.913579,-2.76286 -0.0088,-0.43008 1.315974,-0.3018 1.821483,0.17639 0.570209,0.53939 2.975589,1.67368 3.564947,1.6811 0.235951,0.003 0.667127,0.16172 0.958169,0.35277 0.470369,0.30878 0.470369,0.38732 0,0.70686 -0.458488,0.31147 -0.437702,0.42927 0.155621,0.88194 0.927907,0.70796 1.25549,0.65708 1.25549,-0.19498 0,-0.39459 -0.47625,-1.18299 -1.058334,-1.752 -1.358603,-1.32807 -1.336537,-1.76661 0.08819,-1.75267 1.210373,0.0118 2.38125,0.67594 2.38125,1.35059 0,0.22115 0.15875,0.40208 0.352778,0.40208 0.194027,0 0.357148,0.27782 0.362489,0.61737 0.0053,0.33954 0.556595,1.01423 1.22501,1.4993 1.572603,1.14124 1.548695,1.67535 -0.08819,1.97029 -0.727604,0.13111 -1.481959,0.36317 -1.676343,0.51569 -0.48392,0.37972 -8.67459,0.64105 -9.536112,0.30427 z m 11.915143,-7.74119 c -0.43814,-0.17606 -0.979558,-0.72162 -1.203152,-1.21236 -0.43947,-0.96453 -0.975886,-1.12688 -1.614216,-0.48855 -0.295794,0.2958 -0.668267,0.30149 -1.393472,0.0213 -0.544368,-0.21033 -1.815215,-0.48518 -2.824099,-0.61075 -1.827198,-0.22745 -2.560274,-0.69702 -2.713034,-1.73782 -0.0442,-0.30116 -0.626625,-0.94927 -1.294274,-1.44025 -1.06371,-0.78223 -1.242625,-1.14224 -1.445966,-2.90956 -0.127628,-1.10928 -0.344572,-2.45344 -0.482099,-2.98702 -0.238866,-0.92676 -0.192493,-0.97014 1.037174,-0.97014 1.008143,0 1.354211,0.17209 1.596234,0.79375 0.226646,0.58217 0.158623,0.9113 -0.255181,1.23473 -0.497103,0.38852 -0.467784,0.44097 0.246521,0.44097 0.60423,0 0.75456,0.14637 0.590208,0.57466 -0.337256,0.87887 0.540522,2.95312 1.249697,2.95312 0.361855,0 0.656026,0.31956 0.722881,0.78529 0.08917,0.62117 0.427189,0.83869 1.617454,1.04086 0.827599,0.14056 1.700724,0.3825 1.940277,0.53763 0.239554,0.15512 1.467429,0.46213 2.728609,0.68224 1.261181,0.2201 3.200492,0.60893 4.309579,0.86407 1.567,0.36047 2.697508,0.37951 5.071399,0.0854 3.49446,-0.43294 4.37736,-0.30552 4.37736,0.63176 0,0.36543 0.23254,0.66441 0.51675,0.66441 0.28422,0 0.68668,0.3175 0.89436,0.70556 0.34422,0.64318 0.26828,0.70556 -0.85897,0.70556 -0.96491,0 -1.40848,-0.23251 -2.01904,-1.05834 -0.91708,-1.24043 -2.33816,-1.53004 -1.7053,-0.34754 0.29942,0.55949 0.26435,0.75532 -0.16477,0.91999 -0.841938,0.32308 -2.307479,-0.17002 -2.307479,-0.77638 0,-0.29879 -0.151818,-0.44944 -0.337372,-0.33476 -0.185554,0.11468 -0.256942,0.4181 -0.158641,0.67427 0.131075,0.34157 -0.404167,0.52668 -2.007436,0.69426 -2.689539,0.28111 -3.109817,0.26718 -4.114002,-0.13634 z m 25.62775,-1.23717 c -0.413,-0.413 -0.75954,-0.46158 -1.44191,-0.20215 -1.15168,0.43787 -1.69339,-0.073 -1.69339,-1.59697 0,-1.51298 0.48557,-1.74245 1.76273,-0.83303 l 1.05238,0.74935 2.473,-0.79648 c 2.11577,-0.68143 2.473,-0.91385 2.473,-1.60899 0,-1.00003 0.69849,-1.04965 1.50564,-0.10695 0.78915,0.92166 1.11457,0.89 1.8133,-0.17639 0.31784,-0.48507 0.88067,-0.88195 1.25076,-0.88195 0.42922,0 0.71371,-0.28743 0.78562,-0.79375 0.0958,-0.67468 0.33857,-0.7991 1.61831,-0.82941 1.39791,-0.0331 2.68105,-0.4935 1.37544,-0.4935 -0.35278,0 -0.58796,-0.28222 -0.58796,-0.70556 0,-0.70477 0.30521,-0.84758 1.53457,-0.71803 0.35894,0.0378 0.87159,-0.24384 1.13921,-0.62592 0.45466,-0.64913 1.25615,-0.73652 3.99548,-0.43563 0.0786,0.009 -0.15955,0.35008 -0.52917,0.75879 -0.73464,0.81232 -3.01836,2.07913 -3.74813,2.07913 -0.25209,0 -0.66992,0.33877 -0.92851,0.75283 -0.39213,0.6279 -0.39158,0.80264 0.003,1.05293 0.62116,0.3937 1.46089,0.38747 2.52933,-0.0188 0.85966,-0.32684 2.35642,-0.14693 2.35113,0.28261 -0.004,0.32079 -1.78994,1.10538 -2.51621,1.10538 -0.86947,0 -1.17427,0.66421 -0.43497,0.9479 0.3402,0.13056 0.67164,0.0781 0.73652,-0.11651 0.0649,-0.19464 0.63002,-0.29397 1.25588,-0.22074 2.41738,0.28287 2.72542,0.43155 2.72542,1.31553 0,0.46992 -0.14567,0.94443 -0.3237,1.05446 -0.67072,0.41452 -5.46592,-0.52459 -6.20002,-1.21424 -0.77209,-0.72535 -1.68833,-0.8767 -4.67698,-0.77259 -1.31701,0.0459 -1.85208,0.20649 -1.85208,0.55595 0,0.75032 -0.88999,0.92763 -1.72401,0.34347 -1.00649,-0.70498 -1.54383,-0.29682 -1.26722,0.96258 0.21518,0.97971 0.17049,1.02474 -1.01687,1.02474 -0.68306,0 -1.34004,0.15875 -1.45996,0.35278 -0.32524,0.52626 -1.36286,0.42622 -1.97997,-0.19089 z m -2.89053,-19.43748 c -0.3678,-0.36781 0.0981,-0.83274 0.83438,-0.83274 0.82419,0 0.90602,0.54515 0.12671,0.8442 -0.68871,0.26428 -0.6853,0.26432 -0.96109,-0.0115 z m 9.09557,-1.00124 c 0.77157,-0.66019 1.47437,-1.12882 1.56178,-1.04141 0.28226,0.28225 -1.84359,2.26868 -2.41326,2.255 -0.34159,-0.008 -0.0176,-0.46995 0.85148,-1.21359 z"
       style="fill:#000000;stroke-width:0.35277778"
       inkscape:connector-curvature="0" />
  </g>
</svg>
