<?xml version="1.0" encoding="UTF-8" standalone="no"?>
<!-- Created with Inkscape (http://www.inkscape.org/) -->

<svg
   xmlns:dc="http://purl.org/dc/elements/1.1/"
   xmlns:cc="http://creativecommons.org/ns#"
   xmlns:rdf="http://www.w3.org/1999/02/22-rdf-syntax-ns#"
   xmlns:svg="http://www.w3.org/2000/svg"
   xmlns="http://www.w3.org/2000/svg"
   xmlns:sodipodi="http://sodipodi.sourceforge.net/DTD/sodipodi-0.dtd"
   xmlns:inkscape="http://www.inkscape.org/namespaces/inkscape"
   width="105mm"
   height="146mm"
   viewBox="0 0 105 146"
   version="1.1"
   id="svg8"
   inkscape:version="0.92.3 (2405546, 2018-03-11)"
   sodipodi:docname="araucaria_0_younger_02.svg">
  <defs
     id="defs2" />
  <sodipodi:namedview
     id="base"
     pagecolor="#ffffff"
     bordercolor="#666666"
     borderopacity="1.0"
     inkscape:pageopacity="0.0"
     inkscape:pageshadow="2"
     inkscape:zoom="0.98994949"
     inkscape:cx="225.52176"
     inkscape:cy="-14.024201"
     inkscape:document-units="mm"
     inkscape:current-layer="layer1"
     showgrid="false"
     inkscape:pagecheckerboard="true"
     height="147mm"
     inkscape:window-width="1279"
     inkscape:window-height="1414"
     inkscape:window-x="0"
     inkscape:window-y="1080"
     inkscape:window-maximized="0" />
  <metadata
     id="metadata5">
    <rdf:RDF>
      <cc:Work
         rdf:about="">
        <dc:format>image/svg+xml</dc:format>
        <dc:type
           rdf:resource="http://purl.org/dc/dcmitype/StillImage" />
        <dc:title></dc:title>
      </cc:Work>
    </rdf:RDF>
  </metadata>
  <g
     inkscape:label="Layer 1"
     inkscape:groupmode="layer"
     id="layer1"
     transform="translate(0,-151)">
    <g
       transform="matrix(0.49105763,0,0,0.49105763,22.111039,150.7307)"
       id="layer1-3"
       inkscape:label="Layer 1">
      <path
         inkscape:connector-curvature="0"
         id="path858"
         d="m 51.755372,298.56344 c -0.03745,-0.0374 -0.06808,-0.23881 -0.06808,-0.44749 0,-0.20867 -0.05383,-0.3794 -0.119631,-0.3794 -0.0658,0 -0.193202,-0.17608 -0.283123,-0.3913 -0.16034,-0.38374 -0.136766,-0.90289 0.06234,-1.37294 0.220182,-0.5198 0.33529,-1.41508 0.278055,-2.16261 -0.03355,-0.43822 -0.07726,-1.00164 -0.09711,-1.25204 -0.01986,-0.25041 -0.07347,-0.64114 -0.119124,-0.8683 -0.05837,-0.2904 -0.02947,-0.51655 0.09737,-0.76183 0.119119,-0.23036 0.140126,-0.37372 0.06185,-0.4221 -0.07695,-0.0476 -0.09172,-0.40379 -0.0421,-1.01524 0.05284,-0.65124 0.03686,-0.96644 -0.05177,-1.02123 -0.153495,-0.0949 -0.168511,-0.57401 -0.02638,-0.84158 0.05601,-0.10544 0.135307,-0.65268 0.17622,-1.2161 0.05902,-0.81276 0.04669,-0.97737 -0.05963,-0.79676 -0.07371,0.12521 -0.254855,0.34441 -0.402543,0.48713 -0.14769,0.14272 -0.302635,0.39538 -0.344324,0.56148 -0.04169,0.16611 -0.195942,0.47906 -0.342785,0.69544 -0.146843,0.21638 -0.266986,0.46565 -0.266986,0.55392 0,0.0883 -0.17927,0.34507 -0.398377,0.57069 -0.447934,0.46121 -0.483619,0.5698 -0.204895,0.62348 0.151521,0.0292 0.120665,0.0851 -0.142277,0.25774 -0.184667,0.12126 -0.425394,0.21387 -0.534948,0.2058 -0.109553,-0.008 -0.199187,0.0334 -0.199187,0.0921 0,0.0587 -0.05425,0.10675 -0.12054,0.10675 -0.06629,0 -0.08992,-0.0496 -0.0525,-0.11011 0.03742,-0.0606 -0.02918,-0.17081 -0.148015,-0.24503 -0.198434,-0.12392 -0.201373,-0.15208 -0.03603,-0.34519 0.09901,-0.11564 0.245474,-0.21025 0.325465,-0.21025 0.07999,0 0.147065,-0.0896 0.149056,-0.19919 0.0047,-0.25903 0.236661,-0.54066 0.445289,-0.54066 0.214307,0 0.53703,-0.56693 0.6388,-1.12219 0.07542,-0.41147 0.06517,-0.43439 -0.161935,-0.36231 -0.133344,0.0423 -0.396193,0.0813 -0.584108,0.0867 -0.248434,0.007 -0.341665,0.0651 -0.341665,0.21288 0,0.17094 -0.0677,0.19241 -0.426833,0.13536 -0.234757,-0.0373 -0.535254,-0.13793 -0.667771,-0.22364 -0.216394,-0.13997 -0.25913,-0.12808 -0.419502,0.11667 -0.216495,0.33042 -0.636076,0.46775 -0.72456,0.23717 -0.09175,-0.23911 -0.212525,-0.19779 -0.358527,0.12266 -0.135562,0.29752 -0.644091,0.40628 -0.727646,0.15562 -0.06974,-0.20921 -0.498638,-0.007 -0.639212,0.30185 -0.131026,0.28756 -0.404745,0.3743 -0.531912,0.16854 -0.03869,-0.0626 -0.19235,-0.11382 -0.341465,-0.11382 -0.149116,0 -0.302776,0.0512 -0.341466,0.11382 -0.03869,0.0626 -0.252567,0.11382 -0.475281,0.11382 -0.352447,0 -0.395836,-0.0295 -0.334747,-0.22764 0.0386,-0.12521 0.101769,-0.33009 0.140372,-0.45529 0.0822,-0.26661 -0.22901,-0.32596 -0.377541,-0.072 -0.05776,0.0987 -0.173469,0.12602 -0.316617,0.0746 -0.20862,-0.0749 -0.196005,-0.10804 0.167644,-0.44019 0.448254,-0.40941 0.548007,-0.43296 0.737345,-0.17402 0.110238,0.15076 0.181268,0.16059 0.382469,0.0529 0.135898,-0.0728 0.247088,-0.20486 0.247088,-0.29362 0,-0.0888 0.178818,-0.24625 0.397373,-0.34995 0.2394,-0.11361 0.366462,-0.24017 0.319616,-0.31835 -0.05807,-0.0969 -0.03621,-0.0971 0.08637,-6.5e-4 0.09027,0.071 0.343396,0.16448 0.562503,0.20769 0.219107,0.0432 0.488011,0.10378 0.597565,0.13463 0.128834,0.0363 0.199188,-0.007 0.199188,-0.12232 0,-0.0981 0.07683,-0.1784 0.170733,-0.1784 0.0939,0 0.170732,-0.0512 0.170732,-0.11383 0,-0.15779 0.65396,-0.14382 0.706936,0.0151 0.07122,0.21367 0.548485,-0.009 0.662629,-0.3094 0.128569,-0.33817 0.457792,-0.38005 0.370743,-0.0472 -0.04833,0.18481 -0.0035,0.22765 0.238299,0.22765 0.163807,0 0.29783,0.0543 0.29783,0.12054 0,0.26959 0.223914,-0.0419 0.29234,-0.40656 0.06298,-0.33572 0.103234,-0.37596 0.280934,-0.28086 0.188752,0.10101 0.198077,0.0785 0.103614,-0.25094 -0.156403,-0.54535 -0.293527,-0.625 -0.543823,-0.3159 -0.210052,0.25941 -0.227584,0.26197 -0.512737,0.0752 -0.162387,-0.10636 -0.450712,-0.19342 -0.64072,-0.19342 -0.190009,0 -0.34547,-0.0494 -0.34547,-0.10981 0,-0.0604 -0.108621,-0.16795 -0.24138,-0.239 -0.160455,-0.0859 -0.216133,-0.0883 -0.166077,-0.007 0.130928,0.21185 -0.47569,0.28603 -0.678719,0.083 -0.128732,-0.12873 -0.271921,-0.1577 -0.487108,-0.0985 -0.167627,0.0461 -0.564061,0.0782 -0.880964,0.0714 -0.447837,-0.01 -0.645346,-0.0765 -0.886653,-0.30012 -0.170757,-0.15825 -0.441614,-0.32064 -0.601905,-0.36087 -0.160292,-0.0402 -0.427155,-0.17257 -0.593031,-0.29408 -0.436807,-0.31999 -1.308516,-0.55952 -1.548152,-0.42541 -0.108971,0.061 -0.379122,0.0713 -0.612428,0.0233 -0.229597,-0.0472 -0.520024,-0.0757 -0.645395,-0.0634 -0.125369,0.0123 -0.402089,-0.106 -0.614933,-0.26304 -0.212844,-0.15703 -0.724907,-0.39586 -1.137917,-0.53074 -0.828449,-0.27054 -1.109156,-0.4447 -0.716781,-0.4447 0.297591,0 0.297341,0.002 0.07871,-0.41382 -0.159626,-0.3031 -0.155624,-0.33701 0.05691,-0.48218 0.125735,-0.0859 0.228608,-0.25235 0.228608,-0.36993 0,-0.28482 0.04049,-0.27473 0.626367,0.15617 0.276635,0.20345 0.504971,0.46435 0.507412,0.57977 0.0024,0.1154 0.110809,0.23765 0.240816,0.27165 0.130007,0.034 0.282399,0.18286 0.338649,0.33081 0.10505,0.2763 0.592986,0.38322 0.730853,0.16014 0.08768,-0.14187 0.40145,-0.0206 0.40145,0.15518 0,0.20812 0.236857,0.39828 0.412246,0.33098 0.28143,-0.108 0.167157,-0.34774 -0.460036,-0.96515 -0.348571,-0.34314 -0.633244,-0.73105 -0.654476,-0.89184 -0.02498,-0.18915 -0.119549,-0.29624 -0.282073,-0.3194 -0.238152,-0.034 -0.376755,-0.30657 -0.379969,-0.74739 -0.0013,-0.17657 0.02772,-0.18882 0.169178,-0.0714 0.147103,0.12208 0.170733,0.0762 0.170733,-0.3312 0,-0.38585 0.04714,-0.49071 0.256099,-0.56969 0.357049,-0.13494 0.426832,-0.0616 0.426832,0.44831 0,0.3304 0.05939,0.47635 0.231268,0.56833 0.127198,0.068 0.223568,0.18513 0.214158,0.26011 -0.0094,0.075 -0.01104,0.35723 -0.0036,0.62723 0.01098,0.39957 0.05054,0.48506 0.212674,0.4595 0.168424,-0.0265 0.93903,0.60679 0.93903,0.77177 0,0.10124 0.62552,0.83881 0.711387,0.83882 0.04695,0 0.08707,-0.0896 0.08915,-0.19918 0.0032,-0.16807 0.03826,-0.15783 0.224461,0.0655 0.165011,0.198 0.286078,0.24472 0.479956,0.18526 0.401192,-0.12304 0.5259,-0.26639 0.457915,-0.52637 -0.121633,-0.46512 0.238811,-0.14792 0.40772,0.35881 0.144092,0.43227 0.183115,0.47151 0.304217,0.30589 0.163314,-0.22334 0.397293,-0.25119 0.400912,-0.0477 0.0014,0.0782 0.09584,0.2636 0.209872,0.41189 0.183785,0.23898 0.23784,0.25329 0.475772,0.12595 0.196938,-0.10539 0.279983,-0.10899 0.31181,-0.0135 0.02386,0.0716 0.144575,0.13015 0.268258,0.13015 0.135022,0 0.193853,-0.0502 0.147233,-0.12564 -0.0427,-0.0691 0.05102,-0.0414 0.208284,0.0617 0.15726,0.10304 0.508062,0.21412 0.779561,0.24685 0.271499,0.0327 0.560414,0.11492 0.642034,0.18266 0.104577,0.0868 0.225795,0.0879 0.410507,0.004 0.183069,-0.0834 0.430895,-0.0833 0.821837,6.4e-4 0.307852,0.066 0.713389,0.1279 0.901195,0.13759 0.471347,0.0244 0.853664,0.1662 0.853664,0.3168 0,0.0693 0.128049,0.006 0.284555,-0.14134 0.349688,-0.32852 0.3532,-0.4151 0.02846,-0.70181 -0.140854,-0.12435 -0.192074,-0.19357 -0.113822,-0.1538 0.08814,0.0448 0.14194,-0.006 0.141389,-0.13361 -9.11e-4,-0.21231 -0.461612,-0.49046 -0.812346,-0.49046 -0.109308,0 -0.26604,-0.14085 -0.348294,-0.31301 -0.09055,-0.18951 -0.259649,-0.3286 -0.428583,-0.35253 -0.153466,-0.0217 -0.337654,-0.11968 -0.409307,-0.21768 -0.07561,-0.1034 -0.20883,-0.14802 -0.31747,-0.10633 -0.136655,0.0525 -0.187192,0.008 -0.187192,-0.16444 0,-0.16324 0.05276,-0.216 0.170732,-0.17073 0.0939,0.036 0.170734,0.0284 0.170734,-0.0169 0,-0.14153 -0.601754,-0.34888 -1.175236,-0.40497 -0.522838,-0.0511 -0.887727,-0.18836 -0.500869,-0.18836 0.421078,0 0.260916,-0.19226 -0.174371,-0.20931 -0.261367,-0.0102 -0.56657,-0.0477 -0.678231,-0.0831 -0.147308,-0.0467 -0.203018,-0.003 -0.203018,0.15694 0,0.30804 -0.291592,0.54339 -0.381846,0.3082 -0.0448,-0.11673 -0.189206,-0.16481 -0.436162,-0.14518 -0.327765,0.026 -0.377181,-0.009 -0.440346,-0.31214 l -0.07115,-0.34147 -0.124099,0.29963 c -0.08904,0.21498 -0.230842,0.31614 -0.501921,0.35805 -0.207804,0.0322 -0.499926,0.0971 -0.649162,0.14447 -0.206034,0.0653 -0.25862,0.0479 -0.218497,-0.0725 0.02906,-0.0872 -0.02171,-0.23307 -0.112819,-0.32419 -0.144997,-0.14499 -0.207622,-0.14156 -0.502113,0.0274 -0.411033,0.23591 -0.659471,0.24731 -0.659471,0.0303 0,-0.0895 -0.114722,-0.17918 -0.254936,-0.19918 -0.148351,-0.0211 -0.272072,-0.13155 -0.295918,-0.26403 -0.02254,-0.12519 -0.139756,-0.33492 -0.26048,-0.46604 -0.120724,-0.13113 -0.189589,-0.31635 -0.153033,-0.41161 0.03656,-0.0953 -0.04102,-0.49228 -0.172399,-0.88227 -0.184823,-0.54863 -0.208855,-0.74522 -0.106222,-0.86888 0.152281,-0.18349 0.611626,-0.22153 0.500322,-0.0414 -0.04024,0.0651 0.05783,0.22143 0.217939,0.34737 0.260467,0.20488 0.283612,0.28367 0.219896,0.74853 -0.06745,0.4921 -0.05928,0.51316 0.154627,0.39868 0.12421,-0.0665 0.291453,-0.19992 0.37165,-0.29655 0.271581,-0.32725 0.337914,-0.0605 0.114545,0.46058 -0.273028,0.63695 -0.275011,0.60374 0.03393,0.56855 0.334712,-0.0381 0.9569,-0.36642 1.04325,-0.55046 0.03733,-0.0796 0.04099,-0.004 0.0081,0.16833 -0.07338,0.38435 0.04508,0.90379 0.18622,0.81656 0.05695,-0.0352 0.07739,-0.1063 0.04542,-0.15802 -0.03196,-0.0517 0.02261,-0.12501 0.121274,-0.16287 0.284156,-0.10904 0.388412,-0.0817 0.388412,0.1019 0,0.0949 0.101175,0.17073 0.227644,0.17073 0.125203,0 0.227643,-0.0512 0.227643,-0.11383 0,-0.0626 0.07228,-0.11381 0.160616,-0.11381 0.08834,0 0.298972,-0.16444 0.468075,-0.3654 0.305746,-0.36337 0.30612,-0.366 0.06703,-0.47268 -0.132239,-0.059 -0.240433,-0.20787 -0.240433,-0.33082 0,-0.17091 -0.05617,-0.20883 -0.238622,-0.16111 -0.330878,0.0865 -0.558131,-0.0219 -0.558131,-0.2662 0,-0.11328 -0.06065,-0.22619 -0.134772,-0.2509 -0.09889,-0.033 -0.08524,-0.16871 0.05127,-0.50988 0.178847,-0.44699 0.177458,-0.46721 -0.03596,-0.52302 -0.122101,-0.0319 -0.222001,-0.13807 -0.222001,-0.23587 0,-0.11129 0.06387,-0.1533 0.170733,-0.11229 0.189569,0.0727 0.244448,-0.24132 0.06189,-0.35415 -0.05987,-0.037 -0.08157,-0.13839 -0.04821,-0.22531 0.03911,-0.10193 -0.03294,-0.17134 -0.202996,-0.19554 -0.145001,-0.0206 -0.279735,-0.12202 -0.299407,-0.2253 -0.02817,-0.14788 0.08045,-0.19919 0.511035,-0.24145 0.300742,-0.0295 0.67006,-0.0939 0.820706,-0.14316 0.261503,-0.0854 0.270935,-0.0712 0.208335,0.31456 -0.04326,0.2666 -0.0077,0.48667 0.104578,0.64696 0.09358,0.13359 0.158847,0.40802 0.145039,0.60983 -0.04758,0.69543 0.0085,1.09097 0.178721,1.26123 0.1937,0.1937 0.221207,0.37757 0.06487,0.4336 -0.05823,0.0209 -0.03315,0.13665 0.05574,0.25728 0.08888,0.12063 0.19354,0.1874 0.232572,0.14837 0.03903,-0.039 0.07798,-0.50485 0.08654,-1.03514 0.01302,-0.80631 0.0575,-1.02085 0.271672,-1.31043 0.140854,-0.19044 0.256099,-0.42678 0.256099,-0.52518 0,-0.0984 0.07978,-0.20953 0.177274,-0.24695 0.0975,-0.0374 0.151766,-0.1345 0.120587,-0.21574 -0.03117,-0.0813 0.0043,-0.1974 0.07882,-0.25811 0.189814,-0.15463 1.090853,-0.41163 1.169035,-0.33345 0.03552,0.0356 -0.02189,0.23177 -0.127567,0.43613 -0.165595,0.32022 -0.207032,0.34493 -0.299944,0.17891 -0.159351,-0.28474 -0.32386,-0.1145 -0.249351,0.25805 0.03556,0.17778 0.01308,0.35512 -0.04995,0.39407 -0.186214,0.11509 -0.02535,0.51998 0.175907,0.44274 0.146507,-0.0562 0.162665,0.002 0.09745,0.34935 -0.0495,0.26384 -0.03453,0.41673 0.0408,0.41673 0.210153,0 0.127898,0.36418 -0.222486,0.98502 -0.402101,0.71248 -0.41614,0.8471 -0.116611,1.11816 0.174599,0.15801 0.34574,0.18988 0.765713,0.14253 0.484487,-0.0546 0.518099,-0.0443 0.322499,0.0987 -0.191117,0.13974 -0.194344,0.15966 -0.02587,0.15966 0.105868,0 0.192488,0.0768 0.192488,0.17073 0,0.0939 0.06451,0.17074 0.143353,0.17074 0.07885,0 0.204451,0.0978 0.279127,0.21741 0.07468,0.11958 0.291875,0.25169 0.482666,0.2936 0.270117,0.0593 0.346894,0.13717 0.346894,0.3517 0,0.23024 0.05611,0.27551 0.341466,0.27551 0.346604,0 0.855545,-0.3819 0.745732,-0.55958 -0.03263,-0.0528 0.0665,-0.33263 0.220289,-0.62187 0.153788,-0.28923 0.234104,-0.52588 0.17848,-0.52588 -0.05562,0 -0.127113,0.0641 -0.158866,0.14228 -0.08041,0.19819 -0.311371,-0.13326 -0.273816,-0.39297 0.01541,-0.10656 -0.06645,-0.26307 -0.181919,-0.3478 -0.20203,-0.14822 -0.198483,-0.18124 0.09411,-0.87641 0.167228,-0.39731 0.282255,-0.80573 0.255616,-0.9076 -0.02663,-0.10187 0.02065,-0.24974 0.10508,-0.32861 0.224648,-0.20986 0.187376,-0.56359 -0.07413,-0.70354 -0.250098,-0.13385 -0.303268,-0.56178 -0.0956,-0.76945 0.100176,-0.10017 0.07466,-0.18121 -0.105706,-0.33577 -0.208168,-0.17839 -0.225521,-0.26746 -0.139468,-0.71594 0.05405,-0.2817 0.162823,-0.72762 0.241706,-0.99092 0.123418,-0.41196 0.11831,-0.50721 -0.03662,-0.68293 -0.118047,-0.13389 -0.160503,-0.33108 -0.123294,-0.57267 0.109209,-0.70907 -0.02023,-0.91056 -0.639672,-0.99576 -0.527267,-0.0725 -0.560675,-0.0975 -0.601913,-0.45077 -0.05443,-0.46619 0.106051,-1.1186 0.252834,-1.02789 0.06024,0.0372 0.109516,0.01 0.109516,-0.061 0,-0.0708 -0.115245,-0.1139 -0.2561,-0.0958 -0.340903,0.0438 -0.942914,-0.55358 -0.899483,-0.89245 0.01762,-0.13744 -0.02445,-0.35541 -0.09348,-0.48439 -0.106006,-0.19807 -0.195468,-0.22332 -0.575824,-0.1625 -0.247675,0.0396 -0.51462,0.021 -0.593211,-0.0414 -0.07859,-0.0624 -0.488629,-0.18073 -0.911193,-0.26298 -0.454652,-0.0885 -0.768296,-0.20711 -0.768296,-0.29056 0,-0.0776 -0.192075,-0.20294 -0.426833,-0.27862 -0.595435,-0.19195 -0.626923,-0.21973 -0.467161,-0.41224 0.09414,-0.11342 0.28754,-0.15651 0.578147,-0.1288 0.570124,0.0544 0.55039,-0.24677 -0.0258,-0.39359 -0.219012,-0.0558 -0.444465,-0.14629 -0.501007,-0.20105 -0.0588,-0.0569 -0.189238,-0.0533 -0.304763,0.009 -0.277441,0.14848 -0.526334,0.0306 -0.606072,-0.28713 -0.03669,-0.14616 -0.09801,-0.34734 -0.136271,-0.44706 -0.04459,-0.11619 -0.0083,-0.1813 0.101158,-0.1813 0.0939,0 0.201849,-0.081 0.239882,-0.1802 0.03804,-0.0991 0.124183,-0.16185 0.191447,-0.13944 0.06726,0.0225 0.105652,0.0762 0.08531,0.11938 -0.02034,0.0433 0.215359,0.24684 0.523788,0.45244 0.759214,0.50612 0.740837,0.49527 1.288825,0.76133 0.473528,0.22992 0.483743,0.23022 0.483743,0.0144 0,-0.12125 0.05875,-0.34941 0.130564,-0.50702 0.104019,-0.22829 0.09217,-0.38709 -0.05828,-0.78104 -0.217476,-0.56945 -0.153242,-1.111 0.166049,-1.39995 0.253203,-0.22915 0.280895,-0.17395 0.376054,0.74951 0.03548,0.34431 0.137445,0.67938 0.226593,0.74459 0.114691,0.0839 0.130268,0.17543 0.05327,0.31302 -0.08703,0.15551 -0.06212,0.19443 0.124486,0.19443 0.2796,0 0.318977,0.39614 0.07412,0.74571 -0.143548,0.20495 -0.132169,0.23999 0.115923,0.35708 0.24698,0.11655 0.292265,0.0966 0.443078,-0.19502 0.225917,-0.43688 0.598431,-0.68012 1.041553,-0.68012 0.500462,0 0.536121,0.12198 0.154894,0.5299 -0.328618,0.35162 -0.488129,1.08016 -0.302321,1.3808 0.04763,0.0771 0.05423,0.24211 0.01468,0.36676 -0.108701,0.34248 0.04215,0.68191 0.303051,0.68191 0.296595,0 0.754001,0.35829 0.692592,0.54251 -0.026,0.078 -0.102035,0.10799 -0.168963,0.0666 -0.0734,-0.0453 -0.08833,-0.0212 -0.03761,0.0608 0.09404,0.15216 0.529151,0.0573 0.657612,-0.1435 0.08848,-0.13823 0.0426,-0.79435 -0.08058,-1.15249 -0.05532,-0.16084 -0.04639,-0.18309 0.03042,-0.0758 0.08841,0.12345 0.121644,0.11813 0.177897,-0.0285 0.03805,-0.0992 0.01957,-0.18028 -0.04107,-0.18028 -0.217719,0 -0.104565,-0.2351 0.174304,-0.36216 0.339729,-0.1548 0.37043,-0.39199 0.06335,-0.48946 -0.432633,-0.13731 -0.708642,-1.9417 -0.332566,-2.17414 0.16427,-0.10152 0.110309,-0.27506 -0.08553,-0.27506 -0.125586,0 -0.165813,-0.0696 -0.126704,-0.21914 0.03845,-0.14702 0.0091,-0.20062 -0.0892,-0.1629 -0.08058,0.0309 -0.143542,-0.0114 -0.139919,-0.0939 0.01853,-0.42216 -0.05436,-0.66751 -0.310397,-1.0448 l -0.281126,-0.41425 h 0.313814 c 0.242647,0 0.318133,-0.0573 0.33286,-0.25286 0.01047,-0.13907 -0.04626,-0.33115 -0.126087,-0.42683 -0.07982,-0.0957 -0.200749,-0.36606 -0.268725,-0.60081 -0.100128,-0.3458 -0.09396,-0.42684 0.03248,-0.42684 0.192466,0 0.391727,-0.35367 0.391727,-0.69528 v -0.25498 l -0.281259,0.26424 c -0.35746,0.33582 -1.112094,0.42731 -1.488773,0.1805 -0.148913,-0.0976 -0.427821,-0.17741 -0.619794,-0.17741 -0.203759,0 -0.376052,-0.0704 -0.413932,-0.1691 -0.0574,-0.14957 -0.09275,-0.14957 -0.306308,0 -0.318687,0.22322 -0.869273,0.22221 -0.887927,-0.002 -0.0078,-0.0939 -0.02703,-0.22196 -0.04268,-0.28456 -0.01565,-0.0626 -0.03486,-0.14532 -0.04268,-0.18382 -0.0078,-0.0385 -0.129472,0.005 -0.270327,0.0966 -0.412604,0.2685 -1.076841,0.35344 -1.189509,0.15211 -0.08092,-0.1446 -0.193188,-0.1207 -0.748185,0.15925 -0.359137,0.18115 -0.843641,0.48653 -1.076676,0.67861 -0.233033,0.19209 -0.502145,0.34925 -0.598028,0.34925 -0.219723,0 -0.496433,-0.41732 -0.34058,-0.51364 0.06132,-0.0379 0.111491,-0.267 0.111491,-0.50913 0,-0.32355 0.05279,-0.45402 0.199188,-0.49228 0.177377,-0.0463 0.178268,-0.0534 0.0081,-0.0653 -0.105082,-0.007 -0.267887,0.0636 -0.36179,0.15754 -0.184943,0.18494 -0.869924,0.23701 -0.869924,0.0661 0,-0.0575 0.08963,-0.26519 0.199188,-0.46147 0.186965,-0.33497 0.228831,-0.35257 0.682241,-0.28691 0.438992,0.0636 0.495096,0.0435 0.615107,-0.21987 0.07263,-0.1594 0.257686,-0.37215 0.411235,-0.47276 0.20549,-0.13464 0.245646,-0.21645 0.152134,-0.30997 -0.09351,-0.0935 -0.174731,-0.0589 -0.307713,0.1309 -0.246441,0.35184 -0.68604,0.29597 -0.633166,-0.0805 0.02246,-0.15985 -0.0089,-0.23973 -0.07751,-0.19733 -0.06337,0.0392 -0.14919,0.0162 -0.190711,-0.051 -0.151419,-0.245 0.06416,-0.64481 0.462714,-0.85813 0.38642,-0.20684 0.414365,-0.20787 0.520548,-0.0194 0.141983,0.25204 0.395855,0.25691 0.490826,0.009 0.104891,-0.27333 0.322214,-0.0206 0.274182,0.31892 -0.02588,0.18293 -0.101933,0.2585 -0.237279,0.23578 -0.109554,-0.0184 -0.199189,0.0354 -0.199189,0.11951 0,0.2156 0.236186,0.42613 0.478052,0.42613 0.137434,0 0.204879,0.0855 0.204879,0.25973 0,0.19545 -0.07101,0.2656 -0.286911,0.28347 -0.304393,0.0252 -0.851308,0.33422 -0.851308,0.48102 0,0.20855 0.556232,0.18378 0.741877,-0.0331 0.106158,-0.12398 0.225959,-0.18003 0.266223,-0.12455 0.200577,0.27636 0.531036,0.35649 0.833462,0.2021 0.369228,-0.18848 1.046184,-0.0908 0.958284,0.13824 -0.07117,0.18548 0.06686,0.28651 0.242848,0.17775 0.151196,-0.0934 0.285234,-1.01306 0.159027,-1.09107 -0.0472,-0.0292 -0.236284,0.0462 -0.420185,0.16738 -0.405638,0.26739 -0.603802,0.27993 -0.694366,0.0439 -0.04167,-0.10859 0.0263,-0.24426 0.174305,-0.34792 0.321144,-0.22494 0.307018,-0.55781 -0.03635,-0.85636 -0.153422,-0.1334 -0.309866,-0.38331 -0.347656,-0.55536 -0.05085,-0.23154 -0.155826,-0.33025 -0.403983,-0.37988 -0.368877,-0.0737 -0.430011,-0.3094 -0.207171,-0.79848 0.213353,-0.46826 1.12394,-0.51503 1.12394,-0.0578 0,0.22013 0.374564,0.66966 0.557975,0.66966 0.174321,0 0.367517,0.69854 0.236767,0.85609 -0.170811,0.20581 -0.0087,0.53982 0.215887,0.44476 0.101476,-0.0429 0.307484,-0.10456 0.457795,-0.13692 0.266145,-0.0573 0.270864,-0.0457 0.180402,0.44147 -0.151357,0.81519 -0.134414,1.30176 0.04401,1.26395 0.100611,-0.0213 0.13178,0.0306 0.08754,0.14592 -0.08685,0.22632 0.271228,0.36409 0.905528,0.34841 0.414389,-0.0103 0.459771,0.0142 0.407093,0.21891 -0.04789,0.18616 -0.02815,0.20612 0.102732,0.10386 0.233616,-0.18253 0.763197,-0.29025 0.837316,-0.17031 0.03478,0.0563 -0.01244,0.13135 -0.104926,0.16683 -0.179896,0.069 -0.113215,0.41462 0.08,0.41462 0.06261,0 0.0842,-0.0772 0.04799,-0.17156 -0.05404,-0.14083 0.01072,-0.15931 0.36159,-0.10321 l 0.427423,0.0684 0.03614,-0.49435 c 0.01987,-0.2719 0.03637,-0.6096 0.03665,-0.75045 2.28e-4,-0.14086 0.05913,-0.25766 0.130751,-0.25957 0.07163,-0.002 0.04273,-0.0544 -0.06422,-0.11683 -0.106953,-0.0623 -0.165996,-0.18754 -0.131208,-0.2782 0.03479,-0.0907 -0.05409,-0.35469 -0.197496,-0.58674 -0.202236,-0.32722 -0.21989,-0.40621 -0.07867,-0.35202 0.104779,0.0402 0.261179,-0.0176 0.368415,-0.13604 0.166039,-0.18347 0.167205,-0.21325 0.0107,-0.27331 -0.112849,-0.0433 -0.175651,-0.21242 -0.175651,-0.473 0,-0.22309 -0.07256,-0.57927 -0.161242,-0.79151 -0.153208,-0.36668 -0.147413,-0.39627 0.116353,-0.59391 l 0.277592,-0.20801 -0.25019,-0.0601 c -0.33771,-0.081 -0.404747,-0.33852 -0.108327,-0.41603 0.131799,-0.0345 0.239635,-0.10394 0.239635,-0.15439 0,-0.13875 -0.736643,-0.35294 -0.942367,-0.27399 -0.0992,0.038 -0.439942,-0.0499 -0.757214,-0.19543 -0.505494,-0.2319 -0.577099,-0.30697 -0.578823,-0.60677 -0.0012,-0.22004 -0.10905,-0.44367 -0.302054,-0.62669 -0.374981,-0.35557 -0.614575,-0.91222 -0.530698,-1.23297 0.04803,-0.18365 -0.003,-0.27124 -0.205154,-0.35218 -0.147993,-0.0592 -0.200458,-0.11099 -0.11659,-0.11496 0.08387,-0.004 0.246697,-0.12246 0.361841,-0.26331 0.273914,-0.33507 0.502888,-0.13436 0.48698,0.42687 -0.0062,0.21935 0.03485,0.42734 0.09126,0.4622 0.05641,0.0349 0.102562,0.009 0.102562,-0.0572 0,-0.0663 0.07683,-0.12054 0.170733,-0.12054 0.100434,0 0.171762,0.10545 0.173233,0.2561 0.0065,0.67181 0.700609,1.59289 1.041516,1.38219 0.0708,-0.0437 0.191289,0.006 0.267741,0.11053 0.07645,0.10456 0.210847,0.16254 0.298655,0.12884 0.121261,-0.0466 0.164681,-0.35311 0.180571,-1.275 0.01829,-1.06087 -0.0053,-1.23208 -0.187092,-1.35943 -0.234516,-0.16425 -0.198362,-0.72292 0.04679,-0.72292 0.07945,0 0.291162,-0.0765 0.470473,-0.17003 0.567242,-0.29583 0.650262,-0.23879 0.575177,0.39519 -0.04771,0.4029 -0.0244,0.592 0.0807,0.65447 0.229954,0.13668 0.31263,0.90879 0.118136,1.10329 -0.191212,0.19121 -0.214802,0.40734 -0.04446,0.40734 0.07433,0 0.09093,0.1495 0.04424,0.39838 -0.06734,0.35892 -0.0495,0.39838 0.180123,0.39838 0.230684,0 0.248422,-0.0405 0.187008,-0.42683 -0.09117,-0.57352 0.04078,-0.7622 0.472595,-0.67584 0.381832,0.0764 0.530456,-0.041 0.648755,-0.51236 0.04677,-0.18636 0.134312,-0.28261 0.225281,-0.2477 0.08183,0.0314 0.182596,0.002 0.223924,-0.0645 0.04187,-0.0678 -0.0093,-0.12158 -0.115584,-0.12158 -0.142244,0 -0.173279,-0.0651 -0.122094,-0.2561 0.03775,-0.14085 0.06933,-0.34573 0.07019,-0.45529 9.94e-4,-0.13469 0.09121,-0.19919 0.278438,-0.19919 0.17692,0 0.302969,-0.0822 0.349135,-0.22764 0.03974,-0.1252 0.141441,-0.22764 0.226005,-0.22764 0.08456,0 0.234773,-0.0311 0.333795,-0.0691 0.124643,-0.0478 0.180043,-0.003 0.180043,0.14389 0,0.25535 -0.395758,1.36674 -0.555021,1.55864 -0.254432,0.30657 -0.783392,1.42848 -0.85601,1.81557 -0.04279,0.22811 -0.141002,0.45455 -0.218241,0.5032 -0.07724,0.0486 -0.230018,0.22932 -0.339512,0.40147 -0.136823,0.21513 -0.296144,0.31356 -0.509465,0.31476 -0.652668,0.003 -0.631393,-0.1534 -0.491886,3.63125 0.0056,0.15139 0.07692,0.35627 0.158537,0.45529 0.08162,0.099 0.212544,0.43613 0.290954,0.74914 0.1345,0.53693 0.47185,1.08332 0.47185,0.76424 0,-0.076 0.08964,-0.13947 0.199188,-0.14101 0.214791,-0.003 0.597565,-0.65903 0.597565,-1.02411 0,-0.14122 0.103662,-0.24681 0.287615,-0.29299 0.21687,-0.0544 0.258032,-0.10782 0.167353,-0.21709 -0.07117,-0.0858 -0.08944,-0.33765 -0.04476,-0.61706 0.05772,-0.36097 0.183064,-0.56423 0.532235,-0.8631 0.371779,-0.31824 0.431455,-0.42141 0.320829,-0.55471 -0.109197,-0.13157 -0.08512,-0.19933 0.12249,-0.34475 0.857582,-0.60067 1.033694,0.31866 0.231203,1.20692 -0.356807,0.39494 -0.407053,0.52262 -0.399618,1.01545 0.0077,0.51057 -0.02257,0.57978 -0.321137,0.73418 -0.26967,0.13945 -0.316812,0.22158 -0.259122,0.45144 0.04322,0.17217 0.02167,0.28097 -0.05564,0.28097 -0.06939,0 -0.126161,0.0709 -0.126161,0.15764 0,0.21331 -0.423919,0.47457 -0.91911,0.56645 -0.382432,0.0709 -0.403739,0.0977 -0.354196,0.444 0.06623,0.46298 0.188446,0.54229 0.597649,0.38783 0.250186,-0.0944 0.453387,-0.0815 0.883357,0.0559 0.315912,0.10102 0.629121,0.13902 0.721211,0.0875 0.08953,-0.0501 0.229662,-0.0498 0.311401,6.4e-4 0.08174,0.0506 0.375043,0.0237 0.651787,-0.0596 0.577629,-0.17384 2.366283,-1.1021 2.628081,-1.3639 0.09673,-0.0967 0.250282,-0.14732 0.341233,-0.11241 0.09095,0.0349 0.216467,0.0635 0.278922,0.0635 0.06857,0 0.082,0.14654 0.03389,0.36993 -0.151962,0.70563 -0.358866,0.95535 -1.010792,1.21995 -0.344842,0.13997 -0.654905,0.34244 -0.689029,0.44996 -0.03412,0.10751 -0.215188,0.30871 -0.402365,0.44709 -0.221005,0.1634 -0.34032,0.35199 -0.34032,0.53793 0,0.49565 -0.758693,1.0691 -0.967486,0.73127 -0.03869,-0.0626 -0.164282,-0.11383 -0.279094,-0.11383 -0.356461,0 -0.356671,-0.3142 -4.52e-4,-0.67042 0.185052,-0.18505 0.336457,-0.36194 0.336457,-0.39308 0,-0.0312 -0.154086,-0.0905 -0.342413,-0.13183 -0.188326,-0.0414 -0.398164,-0.17939 -0.466306,-0.30671 -0.09886,-0.18472 -0.200489,-0.21907 -0.502992,-0.16998 -0.525008,0.0852 -0.8509,-0.0206 -0.8509,-0.27627 0,-0.22909 -0.168346,-0.28858 -0.284555,-0.10055 -0.03869,0.0626 -0.214711,0.11383 -0.391157,0.11383 -0.362853,0 -0.671288,0.26934 -0.458811,0.40066 0.07394,0.0457 0.09839,0.19972 0.05753,0.36248 -0.03907,0.15567 -0.01181,0.3544 0.06059,0.44162 0.07991,0.0963 0.102404,0.31436 0.05725,0.55505 -0.04837,0.25785 -0.01599,0.50935 0.09261,0.71937 0.09847,0.19042 0.128286,0.38553 0.07267,0.47551 -0.05389,0.0872 -0.02372,0.39031 0.07038,0.70718 0.175991,0.59262 0.135305,0.80639 -0.133825,0.70312 -0.213454,-0.0819 -0.219135,0.20981 -0.01208,0.62037 0.318954,0.63243 0.445539,2.7269 0.183863,3.0422 -0.147032,0.17717 -0.06279,0.73672 0.110914,0.73672 0.0572,0 0.134748,-0.0969 0.17235,-0.21541 0.0376,-0.11846 0.21662,-0.2768 0.397818,-0.35186 0.181198,-0.0751 0.422668,-0.23946 0.5366,-0.36536 0.257216,-0.28422 0.780355,-0.56246 0.876585,-0.46624 0.08604,0.086 -0.242648,0.62111 -0.461568,0.75139 -0.08536,0.0508 -0.125412,0.14057 -0.089,0.19949 0.08871,0.14354 0.507684,-0.0842 0.507684,-0.27602 0,-0.0808 0.12805,-0.26719 0.284556,-0.41421 0.156504,-0.14703 0.284554,-0.20718 0.284554,-0.13366 0,0.0735 0.12257,0.13366 0.272377,0.13366 0.4012,0 0.451093,0.29294 0.09417,0.55295 l -0.305102,0.22225 0.312423,-0.0598 c 0.171833,-0.0328 0.340384,-0.10497 0.37456,-0.16027 0.03525,-0.057 0.152218,-0.0524 0.270308,0.0109 0.164955,0.0883 0.220384,0.0647 0.266991,-0.11351 0.04259,-0.16288 0.155963,-0.22493 0.410941,-0.22493 0.237115,0 0.352121,-0.0558 0.352121,-0.17073 0,-0.0939 0.07683,-0.17073 0.170733,-0.17073 0.113821,0 0.170733,0.11382 0.170733,0.34146 0,0.26559 0.05059,0.34147 0.227644,0.34147 0.130818,0 0.227643,-0.0759 0.227643,-0.1784 0,-0.12399 0.06651,-0.1573 0.218065,-0.10919 0.119936,0.038 0.248728,0.0195 0.286207,-0.041 0.03748,-0.0607 -0.0439,-0.14582 -0.180836,-0.18928 l -0.248978,-0.079 0.275781,-0.15278 c 0.151679,-0.084 0.364148,-0.1546 0.472153,-0.15682 0.162733,-0.003 0.177838,0.0447 0.08818,0.28052 -0.06865,0.18056 -0.06841,0.28455 6.78e-4,0.28455 0.05986,0 0.140045,-0.12434 0.178188,-0.27631 0.07311,-0.29132 0.366762,-0.47565 0.517536,-0.32488 0.144559,0.14456 -0.09414,0.97139 -0.318911,1.10465 -0.274945,0.16301 -1.250794,0.26628 -1.45203,0.15366 -0.105965,-0.0593 -0.23544,0.007 -0.384215,0.19583 -0.123418,0.1569 -0.306659,0.28527 -0.407203,0.28527 -0.106925,0 -0.182807,0.0945 -0.182807,0.22765 0,0.25355 -0.223069,0.30051 -0.432523,0.091 -0.185895,-0.18589 -0.171665,-0.3187 0.03415,-0.3187 0.192826,0 0.213181,-0.0982 0.06789,-0.32759 -0.111717,-0.17632 -0.352482,-0.0777 -0.352482,0.14435 0,0.17422 -0.407671,0.40698 -0.798122,0.45568 -0.75477,0.0941 -1.00834,0.21407 -1.143755,0.54099 -0.10494,0.25335 -0.1066,0.39346 -0.007,0.58505 0.07208,0.13857 0.111602,0.17511 0.08783,0.0812 -0.06054,-0.23913 0.129345,-0.56911 0.327495,-0.56911 0.09121,0 0.25607,0.19208 0.36636,0.42683 0.257285,0.54764 0.617894,0.61835 1.007816,0.19762 0.321238,-0.34662 0.494893,-0.27766 0.729982,0.2899 0.160726,0.38802 0.399799,0.44238 0.486554,0.11062 0.08167,-0.31227 0.381666,-0.40233 0.726133,-0.21798 0.252731,0.13525 0.306014,0.13009 0.431701,-0.0418 0.07886,-0.10785 0.201762,-0.19608 0.273113,-0.19608 0.07135,0 0.232169,-0.10244 0.357374,-0.22765 0.125204,-0.1252 0.352669,-0.22764 0.50548,-0.22764 0.152811,0 0.309493,-0.0512 0.348183,-0.11382 0.110846,-0.17935 0.284644,-0.13267 0.211894,0.0569 -0.03603,0.0939 -0.0088,0.17073 0.06048,0.17073 0.0693,0 0.125999,-0.0816 0.125999,-0.18138 0,-0.0998 0.103,-0.20833 0.22889,-0.24125 0.125887,-0.0329 0.258275,-0.17695 0.294194,-0.32006 0.06484,-0.25833 0.349131,-0.39806 0.785868,-0.38626 0.210291,0.006 0.207934,0.0157 -0.03093,0.13076 -0.239378,0.11537 -0.465814,0.5963 -0.339991,0.72212 0.111308,0.11131 0.649702,-0.17571 0.596213,-0.31785 -0.05368,-0.14265 0.606661,-0.60395 0.712724,-0.49789 0.02943,0.0294 -0.04677,0.37677 -0.169341,0.77186 l -0.22286,0.71833 -0.500551,0.0685 c -0.776024,0.10625 -1.392661,0.36236 -1.528227,0.63472 -0.08908,0.17897 -0.169137,0.21904 -0.287717,0.14402 -0.271329,-0.17167 -0.420414,-0.1224 -0.491941,0.16259 -0.04734,0.18862 -0.175467,0.29158 -0.424944,0.34147 -0.595545,0.11911 -0.69279,0.0943 -0.613269,-0.15621 0.05127,-0.16155 0.02045,-0.22765 -0.106151,-0.22765 -0.12144,0 -0.178403,0.1066 -0.178403,0.33385 0,0.25555 -0.113447,0.42554 -0.483743,0.7248 -0.266059,0.21502 -0.598987,0.45074 -0.739842,0.52382 -0.140855,0.0731 -0.256099,0.23351 -0.256099,0.35652 0,0.12299 -0.05838,0.22364 -0.129729,0.22364 -0.07135,0 -0.186596,0.0717 -0.2561,0.15923 -0.0695,0.0876 -0.241949,0.19358 -0.383212,0.23555 -0.198389,0.0589 -0.277456,0.0205 -0.347416,-0.16853 -0.09035,-0.24424 -0.09089,-0.24416 -0.215862,0.0302 -0.103723,0.22765 -0.215668,0.2784 -0.650407,0.29484 -0.525028,0.0199 -0.525118,0.0198 -0.503093,-0.35105 0.0294,-0.49508 0.138632,-0.61648 0.900849,-1.00124 0.665531,-0.33596 1.015861,-0.61279 1.015861,-0.80274 0,-0.0593 -0.130885,-0.075 -0.290857,-0.0349 -0.351673,0.0883 -0.86547,-0.3256 -0.771492,-0.62143 0.03514,-0.1106 0.02014,-0.14029 -0.03668,-0.0727 -0.08928,0.10631 -0.811985,0.39777 -0.986304,0.39777 -0.04251,0 -0.07728,-0.15497 -0.07728,-0.34438 v -0.3444 l -0.364906,0.18871 c -0.251638,0.13012 -0.378241,0.14869 -0.407862,0.0598 -0.07424,-0.22271 -0.365451,-0.13996 -0.365451,0.10384 0,0.12798 0.08435,0.5685 0.187437,0.9789 0.155898,0.62062 0.1616,0.76216 0.03389,0.84109 -0.08445,0.0522 -0.199895,0.0662 -0.256543,0.0312 -0.05863,-0.0362 -0.06784,0.0528 -0.02139,0.2067 0.118481,0.39253 0.463638,1.37813 0.557895,1.59308 0.0481,0.10969 0.009,0.2564 -0.09636,0.36179 -0.218967,0.21897 -0.219776,0.41234 -0.0029,0.69904 0.211094,0.27909 0.212058,0.40508 0.0031,0.40508 -0.238838,0 -0.308843,0.16909 -0.344304,0.83164 -0.0174,0.32512 -0.07083,0.91034 -0.11875,1.30048 -0.06038,0.49165 -0.04618,0.75867 0.04625,0.87004 0.103507,0.12473 0.08854,0.25469 -0.06686,0.58056 -0.196114,0.41126 -0.194874,0.42915 0.06048,0.87283 0.183588,0.319 0.239679,0.54868 0.189638,0.77652 -0.08237,0.37503 0.103262,0.5579 0.267832,0.26383 0.09849,-0.176 0.121281,-0.16264 0.190068,0.11143 0.07142,0.28456 0.394944,0.45307 0.394944,0.20571 0,-0.0581 0.07975,-0.18544 0.177229,-0.28292 0.160425,-0.16043 0.203595,-0.15996 0.455288,0.005 0.26221,0.1718 0.278058,0.16949 0.278058,-0.0406 0,-0.1262 0.270672,-0.46497 0.624324,-0.78139 0.343377,-0.30723 0.625086,-0.61047 0.62602,-0.67388 9.11e-4,-0.0634 0.11694,-0.16585 0.257794,-0.22765 0.223612,-0.0981 0.251198,-0.18196 0.217457,-0.661 -0.03292,-0.46734 -0.0056,-0.5573 0.18463,-0.60704 0.173908,-0.0455 0.239057,-0.19269 0.294665,-0.66583 0.03926,-0.33409 0.04029,-0.68848 0.0023,-0.78754 -0.103961,-0.27091 0.05057,-0.74869 0.242164,-0.74869 0.116764,0 0.168564,0.12242 0.168564,0.39838 0,0.2191 0.05122,0.39837 0.113822,0.39837 0.0626,0 0.113822,-0.13008 0.113822,-0.28909 0,-0.159 0.10244,-0.48988 0.227644,-0.7353 0.125204,-0.24543 0.227644,-0.55236 0.227644,-0.68207 0,-0.32835 0.435902,-0.4741 0.767707,-0.25669 0.318863,0.20892 0.328105,0.49738 0.02474,0.77192 -0.176204,0.15946 -0.21431,0.29027 -0.158537,0.5442 0.05897,0.26847 0.01743,0.38238 -0.211021,0.57868 -0.204523,0.17574 -0.295895,0.38467 -0.325206,0.7436 -0.04925,0.60303 0.16292,0.74463 0.315441,0.21052 0.07701,-0.26966 0.183258,-0.38453 0.381987,-0.41296 0.226736,-0.0324 0.251646,-0.0109 0.141187,0.12222 -0.10281,0.12389 -0.102868,0.19287 -2.27e-4,0.29549 0.218215,0.21822 0.345543,0.15329 0.272231,-0.13881 -0.07214,-0.28745 0.08663,-0.42028 0.57263,-0.47906 0.191433,-0.0232 0.254735,0.0414 0.292453,0.29843 0.04092,0.27882 -0.02556,0.38322 -0.443502,0.69637 -0.270402,0.2026 -0.491641,0.40459 -0.491641,0.44886 0,0.19552 -0.337548,0.18232 -0.556624,-0.0218 l -0.240151,-0.22372 -0.01946,0.31744 c -0.01072,0.1746 -0.02477,0.41213 -0.03124,0.52784 -0.01376,0.24595 -0.361069,0.52945 -0.648621,0.52945 -0.110293,0 -0.325911,0.0571 -0.479152,0.12694 -0.269783,0.12292 -0.273315,0.13964 -0.111391,0.52718 0.19589,0.46883 0.106165,0.61006 -0.413568,0.65094 -0.459954,0.0362 -0.638851,0.20591 -0.413853,0.39264 0.09283,0.0771 0.14218,0.20944 0.109655,0.29419 -0.07643,0.19917 0.351416,0.0989 0.538164,-0.12613 0.177507,-0.21388 0.445079,-0.20079 0.445079,0.0218 0,0.0991 0.06402,0.15763 0.142277,0.13003 0.07825,-0.0276 0.136923,-0.12377 0.130378,-0.21368 -0.01731,-0.23785 0.492745,-0.24561 0.626881,-0.01 0.0946,0.1665 0.148738,0.17518 0.344645,0.0553 0.27892,-0.17075 0.763686,-0.18676 0.861523,-0.0284 0.09983,0.16154 0.508585,0.14132 0.575029,-0.0284 0.03424,-0.0875 0.32663,-0.15394 0.759141,-0.17256 0.386902,-0.0167 0.731745,-0.0761 0.766321,-0.13201 0.03457,-0.0559 0.216357,-0.11914 0.403959,-0.14044 0.264578,-0.03 0.349641,-0.10257 0.37919,-0.32329 0.03995,-0.29844 0.24646,-0.60662 0.24646,-0.36779 0,0.0732 0.07836,0.10294 0.174125,0.0662 0.107033,-0.0411 0.148882,-0.14636 0.108613,-0.27323 -0.05519,-0.17388 0.0205,-0.21794 0.480352,-0.27957 0.747728,-0.10023 0.830417,-0.135 0.830417,-0.34923 0,-0.10251 0.122293,-0.28257 0.271763,-0.40015 0.14947,-0.11757 0.304105,-0.34263 0.343634,-0.50012 0.08253,-0.32883 0.408999,-0.39084 0.408999,-0.0776 0,0.32964 0.109132,0.35647 0.377324,0.0928 0.307018,-0.30188 0.280297,-1.04675 -0.04874,-1.35874 -0.304861,-0.28904 -0.272689,-0.53621 0.0698,-0.53621 0.156504,0 0.284554,0.0575 0.284554,0.12776 0,0.0883 0.05277,0.084 0.170733,-0.0139 0.195163,-0.16197 0.226687,-0.52109 0.05506,-0.62716 -0.172856,-0.10683 -0.0019,-0.30921 0.196775,-0.23297 0.116771,0.0448 0.151748,0.0134 0.109075,-0.0977 -0.03455,-0.09 0.0077,-0.2222 0.09383,-0.29371 0.08616,-0.0715 0.188479,-0.27492 0.22738,-0.45203 0.08892,-0.40484 0.51118,-0.56197 0.516633,-0.19224 0.0036,0.24223 0.253706,0.66612 0.38439,0.6514 0.500913,-0.0564 0.750209,0.0127 0.750209,0.20788 0,0.34327 -0.719503,0.49918 -1.001633,0.21706 -0.09395,-0.094 -0.173283,-0.0999 -0.254139,-0.0191 -0.159394,0.15939 -0.0058,0.52508 0.189152,0.45029 0.24093,-0.0925 0.190361,0.3358 -0.06101,0.51665 -0.301129,0.21665 -0.426447,0.66836 -0.185422,0.66836 0.264519,0 0.321173,0.25328 0.17668,0.78988 -0.09301,0.3454 -0.209718,0.50497 -0.434431,0.59399 -0.168994,0.067 -0.517751,0.21833 -0.775015,0.33641 -0.257266,0.11808 -0.526169,0.2147 -0.597565,0.2147 -0.0714,0 -0.129811,0.0982 -0.129811,0.21814 0,0.11998 -0.122847,0.31206 -0.272996,0.42683 -0.150148,0.11478 -0.307258,0.32393 -0.349135,0.46478 -0.118983,0.40021 0.207065,0.32061 0.679559,-0.16591 0.355873,-0.36643 0.438842,-0.4039 0.629956,-0.28455 0.121057,0.0756 0.310432,0.1415 0.420835,0.14644 0.119101,0.005 0.142873,0.0323 0.05845,0.0664 -0.07825,0.0316 -0.142277,0.10436 -0.142277,0.16175 0,0.16161 0.525712,0.12304 0.66854,-0.0491 0.07001,-0.0844 0.357998,-0.24853 0.639956,-0.3648 0.281959,-0.11627 0.512653,-0.24453 0.512653,-0.28502 0,-0.135 0.682831,-0.79025 0.826198,-0.79282 0.247753,-0.004 0.691066,-0.41369 0.60281,-0.55649 -0.0635,-0.10275 -0.128544,-0.0997 -0.272466,0.0128 -0.163356,0.12771 -0.170573,0.12404 -0.05311,-0.027 0.134801,-0.1733 0.645348,-0.2201 0.792773,-0.0727 0.04219,0.0422 0.196217,0.0767 0.342291,0.0767 0.411507,0 0.289993,0.36595 -0.202785,0.6107 -0.14931,0.0742 -0.287916,0.24936 -0.30801,0.38934 -0.03654,0.25452 -0.532492,0.59347 -0.868388,0.59347 -0.09701,0 -0.176384,0.0768 -0.176384,0.17073 0,0.0939 0.07683,0.17073 0.170735,0.17073 0.259128,0 0.205347,0.21063 -0.142281,0.55725 -0.5078,0.50632 -0.902995,0.72156 -1.169491,0.63698 -0.247876,-0.0786 -0.831612,0.1005 -1.135399,0.3485 -0.232132,0.1895 -0.682932,0.009 -0.682932,-0.27375 0,-0.23167 -0.342666,-0.38454 -0.560364,-0.24999 -0.07165,0.0442 -0.09772,0.16534 -0.05794,0.26902 0.0776,0.20221 -0.321013,0.41931 -0.76986,0.41931 -0.20627,0 -0.226989,-0.0501 -0.168818,-0.4086 0.06505,-0.40088 0.06156,-0.4054 -0.184296,-0.23883 -0.253611,0.17182 -0.284005,0.31849 -0.139078,0.67112 0.114778,0.27928 -0.303426,0.35495 -1.256207,0.22729 -0.712422,-0.0954 -0.817793,-0.0829 -1.129472,0.13489 -0.189061,0.13208 -0.390113,0.31383 -0.446781,0.40389 -0.204144,0.32443 -0.917639,0.97477 -1.28605,1.17223 -0.550712,0.29516 -0.797092,0.57765 -1.279916,1.46753 -0.150811,0.27795 -0.328198,0.43406 -0.541846,0.47684 -0.174698,0.035 -0.445818,0.0959 -0.60249,0.13531 -0.44887,0.11298 -0.901167,-0.12213 -1.086003,-0.56451 l -0.164721,-0.39423 -0.470104,0.16587 c -0.258559,0.0912 -0.591716,0.16586 -0.74035,0.16586 -0.22439,0 -0.270244,-0.0579 -0.270244,-0.34146 0,-0.34005 -0.146349,-0.45127 -0.28935,-0.21989 -0.04133,0.0669 -0.140549,0.0965 -0.220493,0.0658 -0.07994,-0.0307 -0.199368,-0.002 -0.26539,0.0643 -0.154761,0.15476 -0.517392,0.0183 -0.445967,-0.16784 0.02995,-0.0781 -0.01057,-0.20266 -0.09003,-0.27689 -0.113681,-0.10619 -0.155467,-0.0775 -0.195991,0.13447 -0.0903,0.47237 0.05195,3.07196 0.172295,3.14868 0.07778,0.0496 0.07301,0.24346 -0.01451,0.59105 -0.175068,0.69526 -0.167015,0.75793 0.09739,0.75793 0.274157,0 0.283739,0.15565 0.04991,0.8109 -0.135637,0.3801 -0.190696,1.1585 -0.232482,3.28669 -0.03011,1.53375 -0.07658,2.85266 -0.103253,2.93092 -0.02667,0.0782 -0.178157,0.14227 -0.336628,0.14227 -0.25291,0 -0.288127,-0.0482 -0.288127,-0.3948 0,-0.61853 -0.321225,-0.39794 -0.36409,0.25003 -0.02707,0.40924 -0.08582,0.53722 -0.279214,0.60828 -0.134713,0.0495 -0.275567,0.0593 -0.313011,0.0219 z m 5.781566,-11.47854 c 0.111455,-0.29045 0.08065,-0.38636 -0.101644,-0.31641 -0.0939,0.0361 -0.170733,0.16248 -0.170733,0.28098 0,0.2615 0.176803,0.28449 0.272377,0.0355 z m -12.876713,-0.0191 c 0.02382,-0.047 0.0068,-0.23903 -0.03785,-0.42683 -0.07818,-0.32885 -0.08429,-0.33177 -0.165387,-0.0789 -0.05068,0.15802 -0.146227,0.23874 -0.239984,0.20276 -0.158364,-0.0607 -0.218386,0.17399 -0.07989,0.31248 0.102942,0.10294 0.469433,0.0963 0.523117,-0.009 z m 0.766864,-0.65448 c -0.07794,-0.0939 -0.225059,-0.1691 -0.326946,-0.16711 -0.155632,0.003 -0.149925,0.0303 0.03569,0.17073 0.287576,0.21751 0.472866,0.21521 0.291255,-0.003 z m 12.020062,-0.13991 c -0.115702,-0.1157 -0.211169,0.0585 -0.116237,0.2121 0.07171,0.11603 0.09852,0.11612 0.137075,3.2e-4 0.02636,-0.079 0.01699,-0.17473 -0.02084,-0.21255 z m -10.426556,-0.0442 c 0,-0.0626 -0.05122,-0.0822 -0.113822,-0.0435 -0.0626,0.0387 -0.113822,0.12156 -0.113822,0.18416 0,0.0626 0.05122,0.0822 0.113822,0.0435 0.0626,-0.0387 0.113822,-0.12156 0.113822,-0.18417 z m 5.804914,0.007 c 0,-0.0589 -0.07682,-0.1071 -0.170732,-0.1071 -0.176016,0 -0.22613,0.13431 -0.09795,0.26249 0.09094,0.0909 0.268678,-0.0118 0.268678,-0.15539 z m 3.937025,-0.0502 c -0.06387,-0.25447 -0.03657,-0.28455 0.258314,-0.28455 0.181353,0 0.521238,-0.08 0.755298,-0.17781 0.23406,-0.0978 0.501154,-0.1488 0.593542,-0.11335 0.102038,0.0391 0.188954,-0.0157 0.22141,-0.13986 0.07526,-0.2878 0.897308,-0.62953 1.167063,-0.48516 0.256656,0.13736 0.394982,0.0239 0.2232,-0.18311 -0.168603,-0.20315 0.133954,-0.21227 0.347853,-0.0105 0.120652,0.11382 0.161248,0.11382 0.202982,0 0.02869,-0.0782 0.11925,-0.14227 0.201239,-0.14227 0.08199,0 0.180056,-0.0807 0.217927,-0.17944 0.061,-0.15897 -0.07075,-0.17186 -1.154496,-0.11298 -1.373823,0.0747 -2.682239,0.23095 -2.86169,0.34186 -0.06557,0.0405 -0.263158,-6.4e-4 -0.439085,-0.0917 -0.225854,-0.11679 -0.379134,-0.13224 -0.52151,-0.0525 -0.287011,0.16062 -1.073043,8.3e-4 -1.58407,-0.32152 -0.390234,-0.24634 -0.45819,-0.25747 -0.669317,-0.10959 l -0.234985,0.16459 0.238759,0.12778 c 0.131317,0.0703 0.23876,0.22841 0.23876,0.35142 0,0.14667 0.07722,0.22364 0.224389,0.22364 0.15663,0 0.254781,0.1117 0.325035,0.36992 0.05535,0.20345 0.164651,0.35531 0.242879,0.33747 0.07823,-0.0178 0.223262,0.0334 0.322296,0.11382 0.153368,0.12459 0.168996,0.11674 0.105414,-0.0529 -0.05816,-0.15519 -0.01417,-0.1992 0.199121,-0.1992 0.225671,0 0.280036,0.065 0.309437,0.36993 0.02734,0.28352 0.09548,0.37841 0.291767,0.40629 0.140854,0.02 0.256098,-0.0184 0.256098,-0.0854 0,-0.067 0.07683,-0.12174 0.170733,-0.12174 0.0939,0 0.170733,0.0768 0.170733,0.17073 0,0.0939 0.05677,0.17074 0.126162,0.17074 0.07774,0 0.09875,-0.10922 0.05474,-0.28455 z m -8.626742,-0.15035 c 0.160004,-0.24098 0.155527,-0.2475 -0.104081,-0.15165 -0.1492,0.0551 -0.288971,0.18991 -0.3106,0.29961 -0.05235,0.26553 0.199895,0.17553 0.414681,-0.14796 z m 1.388884,-0.0525 c 0,-0.12833 -0.01335,-0.21199 -0.02967,-0.18592 -0.01632,0.0261 -0.123471,0.15912 -0.238119,0.29561 -0.203995,0.24288 -0.203361,0.24686 0.02967,0.18592 0.143927,-0.0376 0.238121,-0.15458 0.23812,-0.29561 z m -3.104016,0.0773 c -0.03782,-0.0378 -0.135995,-0.0419 -0.218159,-0.009 -0.0908,0.0363 -0.06383,0.0633 0.06877,0.0688 0.119986,0.005 0.187212,-0.022 0.149391,-0.0598 z m 13.042616,-0.45662 c -0.05294,-0.13798 -0.08758,-0.1446 -0.158251,-0.0302 -0.106702,0.17265 -0.02015,0.35903 0.125044,0.26928 0.05555,-0.0343 0.07049,-0.14189 0.03321,-0.23904 z m -9.272641,-0.27137 c 0.122955,0 0.619141,-0.68781 0.547714,-0.75924 -0.03213,-0.0322 -0.24286,0.008 -0.468298,0.0898 -0.281612,0.10183 -0.389935,0.20021 -0.346133,0.31436 0.03507,0.0914 0.0017,0.20444 -0.07395,0.25124 -0.07574,0.0468 -0.155682,0.2029 -0.177651,0.34687 l -0.03995,0.26175 0.235141,-0.2524 c 0.129326,-0.13881 0.274732,-0.25239 0.323122,-0.25239 z m 3.203984,-0.85366 c 0,-0.0939 -0.07683,-0.17073 -0.170733,-0.17073 -0.0939,0 -0.170734,0.0768 -0.170734,0.17073 0,0.0939 0.07683,0.17073 0.170734,0.17073 0.0939,0 0.170733,-0.0768 0.170733,-0.17073 z m 8.004354,-1.26334 c -0.0438,-0.11412 -0.105749,-0.13604 -0.178608,-0.0631 -0.130346,0.13034 -0.0041,0.3923 0.144676,0.30033 0.05555,-0.0343 0.07081,-0.14105 0.03393,-0.23716 z m 5.44749,-0.29792 c -0.08167,-0.0817 -0.134689,-0.0884 -0.134689,-0.0171 0,0.0647 0.03415,0.15176 0.07588,0.1935 0.04173,0.0418 0.102345,0.0494 0.134689,0.0171 0.03234,-0.0323 -0.0018,-0.11941 -0.07588,-0.19349 z m -0.703798,-0.71517 c 0,-0.0939 -0.07683,-0.17074 -0.170733,-0.17074 -0.0939,0 -0.170732,0.0768 -0.170732,0.17074 0,0.0939 0.07682,0.17073 0.170732,0.17073 0.0939,0 0.170733,-0.0768 0.170733,-0.17073 z m 1.89114,-0.0781 c 0.118602,-0.1919 -0.02738,-0.2134 -0.396129,-0.0583 -0.198321,0.0834 -0.332918,0.17928 -0.299102,0.2131 0.08932,0.0893 0.616975,-0.0281 0.695231,-0.15474 z m -16.232692,-0.49103 c 0,-0.0939 -0.02013,-0.17074 -0.04473,-0.17074 -0.0246,0 -0.07422,0.0768 -0.110251,0.17074 -0.03603,0.0939 -0.0159,0.17073 0.04473,0.17073 0.06063,0 0.110251,-0.0768 0.110251,-0.17073 z m -0.682932,-0.28456 c -0.138345,-0.2585 -0.341465,-0.30364 -0.341465,-0.0759 0,0.19442 0.110542,0.30352 0.30753,0.30352 0.120496,0 0.12818,-0.0515 0.03393,-0.22764 z m 1.407024,-0.39838 c -0.06927,-0.18051 -0.268805,-0.23684 -0.268805,-0.0759 0,0.12037 0.124418,0.24662 0.243041,0.24662 0.0502,0 0.06179,-0.0768 0.02576,-0.17074 z m -6.029181,-1.48848 c 0.06561,-0.17097 -0.125398,-0.21111 -0.436511,-0.0917 -0.137446,0.0527 -0.151846,0.10768 -0.0579,0.22088 0.14453,0.17415 0.404035,0.10636 0.494409,-0.12915 z m 5.041376,-1.66295 c -0.03634,-0.0908 -0.0633,-0.0638 -0.06877,0.0688 -0.005,0.11999 0.02196,0.18722 0.05978,0.14939 0.03782,-0.0378 0.04186,-0.13599 0.009,-0.21816 z m -5.996489,-1.74291 c 0,-0.0313 -0.102439,-0.15935 -0.227644,-0.28455 -0.125204,-0.1252 -0.253253,-0.22764 -0.284555,-0.22764 -0.110135,0 -0.05533,0.29751 0.07968,0.43252 0.135006,0.13501 0.432523,0.18981 0.432523,0.0796 z m 9.826225,-1.81173 c 0.08183,-0.21324 -0.200302,-0.3127 -0.521163,-0.18374 l -0.256225,0.10299 0.256099,0.007 c 0.140854,0.004 0.256099,0.0584 0.256099,0.12103 0,0.17147 0.194537,0.13663 0.26519,-0.0475 z m -3.155953,-0.65848 c -0.100335,-0.0561 -0.182427,-0.21905 -0.182427,-0.36201 0,-0.37761 -0.13036,-0.4489 -0.283282,-0.15492 -0.170352,0.32748 -0.09468,0.53998 0.192294,0.53998 0.137843,0 0.253491,0.1 0.29623,0.25609 0.06265,0.22887 0.07486,0.23308 0.11486,0.0395 0.02461,-0.11911 -0.03734,-0.26251 -0.137675,-0.31867 z m 4.760826,-0.4193 c 0.03429,-0.0555 -0.03568,-0.12652 -0.155499,-0.15785 -0.152521,-0.0399 -0.199684,-0.01 -0.157275,0.10088 0.06877,0.17922 0.220178,0.2068 0.312774,0.0569 z m 0.577107,-0.0129 c 0.03869,-0.0626 0.0161,-0.11382 -0.05019,-0.11382 -0.06629,0 -0.120539,0.0512 -0.120539,0.11382 0,0.0626 0.02259,0.11382 0.05019,0.11382 0.0276,0 0.08185,-0.0512 0.120539,-0.11382 z m -5.214963,-0.70427 c -0.03634,-0.0908 -0.0633,-0.0638 -0.06877,0.0688 -0.005,0.11999 0.02196,0.18721 0.05978,0.14939 0.03782,-0.0378 0.04186,-0.13599 0.009,-0.21816 z m 5.613339,0.0213 c 0,-0.0626 -0.05122,-0.11382 -0.113822,-0.11382 -0.0626,0 -0.113822,0.0512 -0.113822,0.11382 0,0.0626 0.05122,0.11382 0.113822,0.11382 0.06261,0 0.113822,-0.0512 0.113822,-0.11382 z m -6.032557,-0.34504 c 0,-0.13626 -0.321049,-0.28242 -0.414684,-0.18879 -0.09967,0.0997 0.06939,0.30619 0.250669,0.30619 0.09021,0 0.164015,-0.0528 0.164015,-0.1174 z m 1.593505,-1.58993 c 0,-0.10856 -0.352056,-0.25499 -0.428729,-0.17832 -0.03007,0.0301 -0.02469,0.13286 0.01198,0.2284 0.06572,0.17126 0.416746,0.12907 0.416746,-0.05 z m -2.013946,-0.18661 c 0.142804,-0.14281 -0.05681,-0.27833 -0.215713,-0.14644 -0.120031,0.0996 -0.199913,0.10066 -0.316231,0.004 -0.118376,-0.0982 -0.189829,-0.0879 -0.298491,0.043 -0.12341,0.1487 -0.08156,0.17214 0.307394,0.17214 0.247639,0 0.483007,-0.0327 0.523041,-0.0728 z m 2.897457,-0.8947 c -0.07695,-0.076 -0.132542,-0.0665 -0.167381,0.0284 -0.0287,0.0782 -0.12675,0.14228 -0.217904,0.14228 -0.136041,0 -0.13944,0.0284 -0.01897,0.1589 0.125181,0.13554 0.174172,0.13136 0.333117,-0.0284 0.125454,-0.12613 0.148702,-0.22456 0.07114,-0.30119 z m 1.506748,0.28456 c 0,-0.0626 -0.05122,-0.11383 -0.113822,-0.11383 -0.0626,0 -0.113822,0.0512 -0.113822,0.11383 0,0.0626 0.05122,0.11382 0.113822,0.11382 0.06261,0 0.113822,-0.0512 0.113822,-0.11382 z m -0.518207,-0.9203 c -0.03664,-0.0593 -0.115148,-0.0778 -0.174446,-0.0412 -0.0593,0.0366 -0.07783,0.11515 -0.04118,0.17445 0.03664,0.0593 0.115147,0.0778 0.174446,0.0412 0.0593,-0.0366 0.07783,-0.11515 0.04118,-0.17445 z m -2.896448,-1.41976 c 0,-0.0976 -0.05122,-0.1458 -0.113823,-0.10711 -0.0626,0.0387 -0.113821,0.11854 -0.113821,0.17745 0,0.0589 0.05122,0.10711 0.113821,0.10711 0.06261,0 0.113823,-0.0799 0.113823,-0.17745 z m -3.073191,-0.56912 c 0,-0.0976 -0.05206,-0.14528 -0.115677,-0.10596 -0.06363,0.0394 -0.08621,0.11918 -0.05019,0.17746 0.09757,0.15787 0.165871,0.12844 0.165871,-0.0715 z m -0.796752,-0.0435 c 0,-0.13429 -0.221992,-0.27795 -0.303525,-0.19642 -0.08153,0.0815 0.06212,0.30352 0.196421,0.30352 0.05891,0 0.107104,-0.0482 0.107104,-0.1071 z m -0.500021,-0.18676 c -0.038,-0.099 -0.06909,-0.22707 -0.06909,-0.28455 0,-0.0575 -0.07683,-0.10451 -0.170733,-0.10451 -0.100052,0 -0.1723,0.10601 -0.174519,0.25609 l -0.0038,0.2561 -0.226703,-0.27222 c -0.263207,-0.31605 -0.412151,-0.25565 -0.226228,0.0917 0.162,0.3027 0.986027,0.35696 0.871059,0.0573 z m -0.467465,-2.89315 c 0.03869,-0.0626 -0.01253,-0.11381 -0.113821,-0.11381 -0.101293,0 -0.152513,0.0512 -0.113822,0.11381 0.03869,0.0627 0.08991,0.11383 0.113822,0.11383 0.02392,0 0.07514,-0.0512 0.113821,-0.11383 z m 3.962953,-1.89125 c -0.05294,-0.13797 -0.08758,-0.14458 -0.15825,-0.0302 -0.106702,0.17264 -0.02015,0.35903 0.125044,0.26929 0.05555,-0.0343 0.07049,-0.1419 0.03321,-0.23905 z m 4.744418,-0.42816 c 0,-0.0236 -0.06829,-0.0996 -0.151762,-0.16892 -0.114875,-0.0953 -0.151763,-0.0849 -0.151763,0.043 0,0.0929 0.06829,0.16893 0.151763,0.16893 0.08347,0 0.151762,-0.0193 0.151762,-0.043 z m -5.235805,-0.18467 c 0,-0.0626 -0.02259,-0.11382 -0.05019,-0.11382 -0.0276,0 -0.08185,0.0512 -0.12054,0.11382 -0.03869,0.0626 -0.0161,0.11383 0.05019,0.11383 0.06629,0 0.120539,-0.0512 0.12054,-0.11383 z m 5.804914,-0.5122 c 0,-0.0939 -0.02013,-0.17073 -0.04473,-0.17073 -0.0246,0 -0.07422,0.0768 -0.11025,0.17073 -0.03603,0.0939 -0.0159,0.17074 0.04473,0.17074 0.06063,0 0.11025,-0.0768 0.11025,-0.17074 z m -5.200021,-1.0384 c -0.03368,-0.0878 0.003,-0.23704 0.08152,-0.33166 0.258602,-0.31159 -0.0052,-0.33304 -0.292044,-0.0237 -0.351662,0.37925 -0.352523,0.47908 -0.0043,0.49912 0.193803,0.0112 0.257825,-0.0317 0.214828,-0.14373 z m -0.604893,-0.83966 c 0,-0.0626 -0.07985,-0.11381 -0.17745,-0.11381 -0.0976,0 -0.145794,0.0512 -0.107104,0.11381 0.03869,0.0626 0.118543,0.11382 0.17745,0.11382 0.05891,0 0.107104,-0.0512 0.107104,-0.11382 z m 0.393515,-0.33359 c 0.03601,-0.0583 0.01343,-0.13813 -0.05019,-0.17745 -0.06363,-0.0394 -0.115678,0.008 -0.115678,0.10595 0,0.19993 0.0683,0.22937 0.165871,0.0715 z m -4.377279,-1.16003 c 0,-0.20103 -0.02844,-0.21797 -0.16948,-0.10092 -0.1713,0.14217 -0.134816,0.3425 0.06237,0.3425 0.05891,0 0.107104,-0.10871 0.107104,-0.24158 z m 4.211408,-6.53081 c 0,-0.0939 -0.05122,-0.17074 -0.113821,-0.17074 -0.06261,0 -0.113823,0.0768 -0.113823,0.17074 0,0.0939 0.05122,0.17073 0.113823,0.17073 0.0626,0 0.113821,-0.0768 0.113821,-0.17073 z m 0,-0.52564 c 0,-0.0626 -0.05122,-0.0822 -0.113821,-0.0435 -0.06261,0.0387 -0.113823,0.12157 -0.113823,0.18417 0,0.0626 0.05122,0.0822 0.113823,0.0435 0.0626,-0.0387 0.113821,-0.12157 0.113821,-0.18417 z m -10.053368,37.03924 c -0.197313,-0.051 -0.197858,-0.0646 -0.01081,-0.27134 0.108329,-0.11971 0.257916,-0.21765 0.332414,-0.21765 0.0745,0 0.227065,-0.10123 0.339037,-0.22496 0.342083,-0.378 0.403426,-0.14093 0.08814,0.34062 -0.294616,0.44999 -0.348427,0.47682 -0.748777,0.37333 z m 25.59005,-5.61098 c 0.03869,-0.0626 0.09293,-0.11381 0.12054,-0.11381 0.0276,0 0.05019,0.0512 0.05019,0.11381 0,0.0626 -0.05424,0.11383 -0.12054,0.11383 -0.06629,0 -0.08888,-0.0512 -0.05019,-0.11383 z m -3.07319,-0.5691 c 0.03869,-0.0626 0.09293,-0.11382 0.12054,-0.11382 0.0276,0 0.05019,0.0512 0.05019,0.11382 0,0.0626 -0.05424,0.11382 -0.120539,0.11382 -0.06629,0 -0.08888,-0.0512 -0.05019,-0.11382 z m -16.951483,-0.44239 c -0.03431,-0.0555 0.01389,-0.16422 0.107103,-0.24158 0.141038,-0.11705 0.16948,-0.10011 0.16948,0.10092 0,0.24419 -0.161757,0.32645 -0.276583,0.14066 z m 2.439198,-1.0373 c 0,-0.0626 0.05424,-0.11382 0.120539,-0.11382 0.06629,0 0.08888,0.0512 0.05019,0.11382 -0.03869,0.0627 -0.09293,0.11382 -0.12054,0.11382 -0.0276,0 -0.05019,-0.0512 -0.05019,-0.11382 z m 10.83584,-1.27481 c -0.218425,-0.21842 -0.158282,-0.54552 0.119512,-0.64999 0.143733,-0.054 0.272746,-0.0525 0.29404,0.003 0.06156,0.16223 0.246614,0.11417 0.246614,-0.0641 0,-0.22323 0.140457,-0.29276 0.435535,-0.2156 0.338901,0.0886 0.310226,0.39065 -0.07185,0.7567 -0.336601,0.32248 -0.794878,0.39824 -1.02386,0.16926 z m -14.022851,-7.48947 c -0.151762,-0.15176 -0.379406,-0.22764 -0.682932,-0.22764 -0.316915,0 -0.455287,-0.049 -0.455287,-0.16125 0,-0.0887 0.06402,-0.18472 0.142277,-0.21342 0.111274,-0.0408 0.112327,-0.084 0.0048,-0.19816 -0.175776,-0.18669 -0.506862,0.0512 -0.412712,0.29659 0.102116,0.26611 -0.562409,0.20693 -0.732371,-0.0652 -0.07819,-0.12521 -0.224452,-0.22765 -0.325024,-0.22765 -0.166975,0 -0.166662,0.0247 0.0036,0.28456 0.215358,0.32868 0.04193,0.38719 -0.325027,0.10967 -0.121921,-0.0922 -0.326799,-0.13844 -0.455287,-0.10274 -0.159448,0.0443 -0.186736,0.0322 -0.08595,-0.038 0.11866,-0.0827 0.113316,-0.13137 -0.02721,-0.248 -0.09618,-0.0798 -0.152074,-0.182 -0.124216,-0.22708 0.02786,-0.0451 -0.02173,-0.082 -0.110198,-0.082 -0.08847,0 -0.192419,0.14375 -0.231005,0.31942 -0.06336,0.28849 -0.630571,0.89469 -0.837151,0.89469 -0.04583,0 -0.174579,-0.0667 -0.2861,-0.14827 -0.184359,-0.1348 -0.186334,-0.1619 -0.02175,-0.29849 0.216852,-0.17997 0.235135,-0.42036 0.03873,-0.50924 -0.07825,-0.0354 -0.03984,-0.0515 0.08537,-0.0359 0.125204,0.0157 0.3463,-0.0743 0.491323,-0.19986 0.209501,-0.18146 0.249775,-0.3025 0.196009,-0.5891 -0.04422,-0.2357 -0.01932,-0.37683 0.07182,-0.40721 0.107829,-0.036 0.109759,-0.12231 0.0085,-0.38046 -0.07204,-0.18369 -0.186578,-0.55166 -0.254521,-0.81772 -0.06794,-0.26606 -0.187004,-0.48374 -0.264582,-0.48374 -0.154708,0 -0.533107,-0.39732 -0.533107,-0.55975 0,-0.056 -0.100604,-0.0756 -0.223565,-0.0434 -0.314654,0.0823 -0.642227,-0.25782 -0.459908,-0.4775 0.07474,-0.0901 0.109476,-0.22948 0.0772,-0.30984 -0.03689,-0.0918 -0.06203,-0.0721 -0.06767,0.0531 -0.01092,0.24209 -0.350451,0.26966 -0.350451,0.0284 0,-0.0939 -0.05976,-0.17073 -0.132792,-0.17073 -0.07304,0 -0.09592,-0.0369 -0.05085,-0.082 0.04507,-0.0451 0.194462,-0.0835 0.33198,-0.0854 0.203281,-0.003 0.255729,-0.0779 0.280495,-0.4018 0.02682,-0.35085 0.01227,-0.37532 -0.121997,-0.20517 -0.142675,0.18081 -0.176175,0.17879 -0.521965,-0.0315 -0.428211,-0.2604 -0.445522,-0.62291 -0.02899,-0.60704 0.193472,0.007 0.247687,-0.0409 0.209587,-0.18659 -0.07885,-0.30151 0.0875,-0.48403 0.361781,-0.39698 0.242714,0.0771 0.343902,0.40289 0.12511,0.40289 -0.06571,0 -0.03715,0.15392 0.06531,0.35204 0.217692,0.42098 0.341524,0.34748 0.29643,-0.17592 -0.01804,-0.20942 0.02189,-0.41458 0.08875,-0.45589 0.06744,-0.0417 0.121552,0.009 0.121552,0.11282 0,0.10338 0.106115,0.32286 0.235811,0.48774 0.138317,0.17584 0.185376,0.3166 0.113822,0.34045 -0.0671,0.0224 -0.121989,0.0931 -0.121989,0.15718 0,0.0641 0.06675,0.0909 0.148333,0.0596 0.08495,-0.0326 0.206576,0.0747 0.284631,0.25099 0.07496,0.16936 0.234546,0.41338 0.354628,0.54228 0.120082,0.12889 0.295951,0.45863 0.390817,0.73276 0.09487,0.27413 0.229506,0.4848 0.299195,0.46816 0.06969,-0.0166 0.116199,0.0346 0.103353,0.11382 -0.04072,0.25121 0.143669,0.54246 0.343427,0.54246 0.229065,0 0.465875,0.21407 0.465875,0.42114 0,0.0905 -0.141075,0.14797 -0.363221,0.14797 -0.343808,0 -0.351413,0.009 -0.142277,0.16711 0.121518,0.0919 0.284968,0.16875 0.36322,0.17073 0.227509,0.006 0.546749,0.38654 0.50516,0.60249 -0.02316,0.12026 0.03214,0.19788 0.14097,0.19788 0.09849,0 0.179078,0.0743 0.179078,0.16508 0,0.2604 0.338705,0.38894 0.729521,0.27685 0.364665,-0.10458 1.028266,-0.12577 0.77791,-0.0249 -0.179335,0.0723 -0.07035,0.26584 0.149704,0.26584 0.09021,0 0.164015,-0.10243 0.164015,-0.22764 0,-0.30317 0.20131,-0.28697 0.707381,0.0569 0.505611,0.34357 0.544659,0.34765 0.544659,0.0569 0,-0.12647 0.07588,-0.22764 0.170733,-0.22764 0.0939,0 0.170732,0.0512 0.170732,0.11382 0,0.0626 0.126249,0.11382 0.280551,0.11382 0.164058,0 0.331137,0.0945 0.402381,0.22764 0.06701,0.12521 0.196858,0.22765 0.288558,0.22765 0.0917,0 0.166729,-0.10244 0.166729,-0.22765 0,-0.26612 0.205103,-0.305 0.300304,-0.0569 0.03604,0.0939 0.136867,0.17074 0.224072,0.17074 0.08721,0 0.158555,0.0512 0.158555,0.11382 0,0.0626 0.07683,0.11382 0.170733,0.11382 0.0939,0 0.170732,0.0512 0.170732,0.11382 0,0.11005 -0.416784,0.16231 -1.041995,0.13066 -0.248852,-0.0126 -0.291688,0.0247 -0.242824,0.21157 0.05431,0.20768 0.0026,0.22689 -0.611581,0.22689 -0.531328,0 -0.711693,-0.0477 -0.866938,-0.22895 -0.107817,-0.12592 -0.196029,-0.28937 -0.196029,-0.36322 0,-0.0738 -0.07113,-0.037 -0.158071,0.0819 -0.08694,0.1189 -0.132679,0.28235 -0.101645,0.36322 0.08797,0.22924 -0.282859,0.17358 -0.537037,-0.0806 z m 2.080917,-0.54781 c 0.09726,-0.11967 0.05516,-0.13354 -0.211436,-0.0696 -0.590039,0.14145 -0.659591,0.26738 -0.24752,0.44817 0.198555,0.0871 0.265244,0.074 0.296803,-0.0583 0.02238,-0.0939 0.09536,-0.23797 0.162153,-0.32016 z m -1.765537,0.22769 c 0.06829,-0.20486 -0.166977,-0.16182 -0.246369,0.0451 -0.04253,0.11085 -0.0171,0.16289 0.06608,0.13516 0.07438,-0.0248 0.155514,-0.1059 0.180295,-0.18024 z m -2.591818,-1.28007 c 0,-0.1289 -0.05122,-0.20271 -0.113822,-0.16402 -0.06261,0.0387 -0.113822,0.14416 -0.113822,0.23437 0,0.0902 0.05122,0.16402 0.113822,0.16402 0.06261,0 0.113822,-0.10547 0.113822,-0.23437 z m -0.895324,-0.0113 c 0.24202,-0.0725 0.440037,-0.2031 0.440037,-0.29021 0,-0.11344 -0.05302,-0.1287 -0.186899,-0.0538 -0.102794,0.0575 -0.276283,0.0812 -0.38553,0.0526 -0.109248,-0.0285 -0.234583,0.007 -0.278523,0.0773 -0.05932,0.096 -0.121228,0.095 -0.240489,-0.004 -0.125743,-0.10436 -0.1606,-0.0973 -0.1606,0.0324 0,0.34491 0.159005,0.38126 0.812004,0.18562 z m -1.722578,-3.2259 c 0,-0.27823 -0.05149,-0.39838 -0.170733,-0.39838 -0.203947,0 -0.202708,-0.0118 -0.04578,0.43831 0.161364,0.46288 0.216509,0.45271 0.216509,-0.0399 z m -0.416351,-0.67714 c 0.0423,-0.11023 0.0086,-0.14394 -0.101644,-0.10164 -0.180035,0.0691 -0.226925,0.26658 -0.06329,0.26658 0.0559,0 0.130126,-0.0743 0.164937,-0.16494 z m -0.721867,4.38751 c 0,-0.0564 -0.320125,-0.13877 -0.711387,-0.18292 -0.76567,-0.0864 -1.150509,-0.31731 -1.051069,-0.63062 0.07265,-0.22889 -0.09802,-0.31107 -0.570893,-0.27494 -0.187805,0.0143 -0.407626,-0.0448 -0.488489,-0.1315 -0.121846,-0.13062 -0.09913,-0.17943 0.13263,-0.28502 0.153811,-0.0701 0.306452,-0.22989 0.339204,-0.35514 0.04953,-0.18941 0.122948,-0.21602 0.436479,-0.15819 0.207311,0.0382 0.710642,0.0908 1.118513,0.11678 1.081842,0.069 1.819408,0.19454 1.819408,0.3098 0,0.0555 -0.09942,0.1009 -0.220927,0.1009 -0.121509,0 -0.257198,0.0587 -0.301531,0.13041 -0.05633,0.0912 0.0065,0.10858 0.208465,0.0578 0.227098,-0.057 0.328341,-0.0126 0.472263,0.20704 0.237666,0.36271 0.233198,0.3794 -0.08527,0.31853 -0.175282,-0.0335 -0.292563,0.0115 -0.337893,0.1296 -0.03833,0.0999 -0.01154,0.18093 0.05979,0.18093 0.07108,0 0.09487,0.0344 0.05289,0.0763 -0.04198,0.042 -0.20294,-0.0426 -0.357683,-0.188 -0.238177,-0.22375 -0.337177,-0.24831 -0.64511,-0.15999 -0.422291,0.12111 -0.573405,0.38547 -0.220343,0.38547 0.130421,0 0.237128,-0.0609 0.237128,-0.13528 0,-0.0744 0.105053,-0.0225 0.233451,0.1153 0.128398,0.13781 0.202204,0.30113 0.164015,0.36292 -0.08691,0.14062 -0.283643,0.14735 -0.283643,0.01 z m -1.252041,-0.58075 c 0,-0.0626 -0.07683,-0.11382 -0.170733,-0.11382 -0.0939,0 -0.170733,0.0512 -0.170733,0.11382 0,0.0626 0.07683,0.11382 0.170733,0.11382 0.0939,0 0.170733,-0.0512 0.170733,-0.11382 z m 0.147391,-0.74271 c -0.323453,-0.13448 -0.483122,-0.0531 -0.487114,0.24831 -0.0013,0.0982 0.100822,0.10015 0.401748,0.007 l 0.403489,-0.12384 -0.318123,-0.13227 z m 0.763184,0.0598 c 0,-0.0626 -0.05122,-0.11383 -0.113822,-0.11383 -0.0626,0 -0.113821,0.0512 -0.113821,0.11383 0,0.0626 0.05122,0.11382 0.113821,0.11382 0.06261,0 0.113822,-0.0512 0.113822,-0.11382 z m 22.536725,0.93041 c 0,-0.14524 0.55943,-0.63657 0.636757,-0.55923 0.09621,0.0962 -0.321737,0.64529 -0.49448,0.64964 -0.07825,0.002 -0.142277,-0.0387 -0.142277,-0.0904 z m -16.162701,-0.14037 c 0,-0.0663 0.05122,-0.0889 0.113821,-0.0502 0.06261,0.0387 0.113822,0.0929 0.113822,0.12054 0,0.0276 -0.05122,0.0502 -0.113822,0.0502 -0.06261,0 -0.113821,-0.0543 -0.113821,-0.12054 z m -1.876914,-0.45043 c 0.03932,-0.0636 0.119174,-0.0862 0.177451,-0.0502 0.157875,0.0976 0.128437,0.16588 -0.0715,0.16588 -0.0976,0 -0.145277,-0.052 -0.105956,-0.11568 z m 16.925544,-0.25424 c 0.01802,-0.14085 -0.01845,-0.26554 -0.08106,-0.27709 -0.06261,-0.0115 -0.09977,0.0481 -0.08259,0.13263 0.03413,0.16788 -0.574502,0.35132 -0.768292,0.23154 -0.143826,-0.0889 -0.154731,-0.40009 -0.01402,-0.40009 0.05642,0 0.217615,-0.19207 0.358213,-0.42683 l 0.255633,-0.42683 0.125531,0.2965 c 0.107964,0.25502 0.161369,0.28046 0.381629,0.1818 0.140854,-0.0631 0.2561,-0.16113 0.2561,-0.21785 0,-0.0568 0.04641,-0.0745 0.103136,-0.0394 0.05672,0.0351 0.07636,0.16613 0.04364,0.29128 -0.08046,0.30765 0.119321,0.28651 0.483708,-0.0512 0.301359,-0.2793 0.296208,-0.51804 -0.01118,-0.51804 -0.290887,0 -0.174825,-0.30621 0.234361,-0.61831 0.219108,-0.16711 0.398377,-0.36579 0.398377,-0.4415 0,-0.25588 0.576431,-0.77436 0.78671,-0.70762 0.118676,0.0377 0.28354,-0.0296 0.406964,-0.16593 0.114108,-0.12609 0.28352,-0.22926 0.376469,-0.22926 0.09295,0 0.237042,-0.0896 0.320205,-0.19918 0.139761,-0.18412 0.151479,-0.17945 0.154826,0.0616 0.002,0.14347 0.108296,0.37321 0.236234,0.51054 0.127939,0.13733 0.179158,0.2675 0.113823,0.28928 -0.06534,0.0218 -0.118794,0.12094 -0.118794,0.22034 0,0.0994 -0.08304,0.2725 -0.184537,0.38465 -0.118211,0.13063 -0.153243,0.27703 -0.09747,0.40734 0.04789,0.11189 0.09251,0.30137 0.09917,0.42109 0.01874,0.33693 0.26114,0.34073 0.479478,0.007 l 0.19733,-0.30117 0.138828,0.2594 c 0.100688,0.18814 0.105929,0.33161 0.01908,0.52223 -0.137684,0.30218 -0.02982,0.48207 0.169535,0.28272 0.07407,-0.0741 0.253763,-0.13469 0.399296,-0.13469 0.174664,0 0.299952,-0.093 0.368591,-0.2735 0.123796,-0.3256 0.302295,-0.45787 0.401433,-0.29747 0.03932,0.0636 0.17091,0.11568 0.29242,0.11568 0.18849,0 0.220926,-0.0815 0.220926,-0.55517 0,-0.5249 0.175708,-0.85972 0.41485,-0.7905 0.05354,0.0155 0.212593,-0.0357 0.353448,-0.11384 0.232461,-0.1289 0.255846,-0.11799 0.253382,0.1181 -0.0083,0.79113 -0.308708,1.38615 -0.745175,1.47577 -0.124961,0.0256 -0.212505,0.13072 -0.203142,0.24378 0.01223,0.14772 -0.04047,0.18063 -0.205432,0.12827 -0.173274,-0.055 -0.25092,0.007 -0.354416,0.2807 -0.155325,0.4115 -0.591882,0.49135 -0.706796,0.12929 -0.06941,-0.21869 -0.07363,-0.2186 -0.299121,0.007 -0.29873,0.29874 -0.801925,0.24696 -0.953303,-0.0981 -0.135025,-0.30777 -0.267456,-0.32395 -0.465727,-0.0569 -0.124354,0.16748 -0.184984,0.17655 -0.380925,0.0569 -0.327449,-0.19992 -0.500717,-0.17768 -0.664993,0.0854 -0.07819,0.1252 -0.198925,0.22764 -0.268298,0.22764 -0.0701,0 -0.09968,-0.10114 -0.0666,-0.22764 0.072,-0.27533 -0.202553,-0.31551 -0.306417,-0.0448 -0.04982,0.12983 -0.151894,0.16229 -0.352269,0.11199 -0.155805,-0.0391 -0.386211,-0.007 -0.51461,0.0733 -0.183228,0.11357 -0.250952,0.11446 -0.319612,0.004 -0.06432,-0.10326 -0.137574,-0.081 -0.279967,0.0854 -0.256495,0.29957 -0.439037,0.28543 -0.398573,-0.0309 z m 2.423023,-1.10976 c 0.03869,-0.0627 0.169763,-0.11383 0.291272,-0.11383 0.121509,0 0.220926,-0.0512 0.220926,-0.11381 0,-0.0626 0.07135,-0.11382 0.158554,-0.11382 0.08721,0 0.185592,-0.0704 0.218637,-0.15657 0.06086,-0.15863 -0.349727,-0.41254 -0.667101,-0.41254 -0.110341,0 -0.165958,-0.12311 -0.16712,-0.36993 -0.0013,-0.28071 -0.02835,-0.32875 -0.11208,-0.19918 -0.171622,0.26556 -0.136842,0.68292 0.05691,0.68292 0.241604,0 0.211703,0.26911 -0.05691,0.5122 -0.125204,0.11332 -0.227643,0.2493 -0.227643,0.3022 0,0.1332 0.198953,0.12086 0.284555,-0.0177 z m -0.796754,-0.22764 c 0.03869,-0.0626 -0.01253,-0.11382 -0.113821,-0.11382 -0.101292,0 -0.152512,0.0512 -0.113823,0.11382 0.03869,0.0626 0.08991,0.11381 0.113823,0.11381 0.02391,0 0.07513,-0.0512 0.113821,-0.11381 z m 2.097704,-1.50814 c 0.0044,-0.047 -0.04322,-0.0854 -0.105821,-0.0854 -0.0626,0 -0.110221,0.14085 -0.105821,0.31301 0.0071,0.27737 0.01914,0.28709 0.105821,0.0854 0.0538,-0.12521 0.101422,-0.26606 0.105821,-0.31301 z m -23.584323,2.65315 c -0.04949,-0.18924 -0.02801,-0.20226 0.150096,-0.091 0.114315,0.0714 0.182527,0.17076 0.15158,0.22084 -0.09873,0.15976 -0.242085,0.0981 -0.301676,-0.12981 z m 14.894394,0.008 c -0.04903,-0.0793 -0.05841,-0.17498 -0.02084,-0.21256 0.101867,-0.10186 0.212934,0.048 0.157915,0.21302 -0.03856,0.11566 -0.06537,0.11557 -0.137076,-3.2e-4 z m -5.415979,-1.50204 c 0,-0.0588 0.06402,-0.1083 0.142277,-0.11021 0.07896,-0.002 0.05363,-0.0551 -0.05691,-0.11948 -0.109554,-0.0638 -0.199188,-0.24152 -0.199188,-0.39491 0,-0.51828 0.400399,-0.24033 0.520766,0.3615 0.05616,0.2808 0.029,0.33701 -0.170056,0.352 -0.130289,0.01 -0.236889,-0.0302 -0.236889,-0.0889 z m 14.611686,-1.42817 c -0.237995,-0.24816 -0.238519,-0.25783 -0.03108,-0.57525 0.118492,-0.18133 0.348249,-0.3481 0.524119,-0.38045 0.225501,-0.0414 0.341946,-0.15297 0.416065,-0.39837 0.331425,-1.09733 0.484644,-1.36053 0.853627,-1.46635 0.574544,-0.16478 0.704061,0.0694 0.265156,0.47939 -0.195281,0.18241 -0.382463,0.30426 -0.415961,0.27076 -0.0335,-0.0335 -0.06091,-0.0196 -0.06091,0.0309 0,0.0505 0.08679,0.15526 0.192865,0.23282 0.181271,0.13254 0.181271,0.15871 0,0.43537 -0.106077,0.1619 -0.192865,0.37298 -0.192865,0.46908 0,0.0961 -0.07503,0.17475 -0.166729,0.17475 -0.0917,0 -0.223627,0.10631 -0.29317,0.23626 -0.347171,0.64869 -0.761258,0.83508 -1.091118,0.49111 z m 0.526619,-0.73409 c 0,-0.0589 -0.07683,-0.10711 -0.170733,-0.10711 -0.176015,0 -0.226129,0.13431 -0.09795,0.26249 0.09094,0.0909 0.268679,-0.0118 0.268679,-0.15538 z M 43.802428,264.965 c -0.237808,-0.24092 -0.151617,-0.57869 0.14767,-0.57869 0.239444,0 0.318191,0.17018 0.248191,0.53636 -0.05897,0.30847 -0.126077,0.31565 -0.395861,0.0423 z m 6.69818,-0.31317 c -0.04005,-0.10437 -0.02997,-0.2326 0.02239,-0.28498 0.133237,-0.13324 0.534155,0.18341 0.435118,0.34366 -0.118905,0.19239 -0.373709,0.15971 -0.457513,-0.0587 z m 3.946862,-5.5767 c -0.396863,-0.16014 0.0922,-1.14713 0.51379,-1.03689 0.159874,0.0418 0.271646,-0.0161 0.363827,-0.18827 0.07318,-0.13675 0.282907,-0.30518 0.466057,-0.37431 0.18315,-0.0691 0.380304,-0.25012 0.438122,-0.40219 0.150979,-0.39711 0.808209,-0.92731 0.96059,-0.77492 0.188738,0.18873 0.416171,0.14088 0.416171,-0.0876 0,-0.25988 0.459253,-0.70277 0.728727,-0.70277 0.172439,0 0.190647,0.0664 0.124936,0.45528 -0.05056,0.29931 -0.0345,0.45529 0.0469,0.45529 0.161354,0 0.157246,0.22527 -0.0106,0.58092 -0.08207,0.1739 -0.388866,0.40437 -0.787795,0.5918 -0.698438,0.32813 -0.957346,0.37489 -1.069668,0.19315 -0.147412,-0.23852 -0.376584,-0.0941 -0.715195,0.45057 -0.407002,0.65473 -1.040849,1.01544 -1.475876,0.83991 z m -1.961683,-8.03443 c 9.11e-4,-0.0782 0.05701,-0.21911 0.124559,-0.31301 0.103665,-0.14412 0.112825,-0.13968 0.05874,0.0284 -0.03524,0.10955 -0.01144,0.19919 0.05289,0.19919 0.06433,0 0.08531,0.0512 0.04662,0.11382 -0.09912,0.16038 -0.284895,0.14169 -0.282811,-0.0284 z"
         style="fill:#000000;stroke-width:0.11382186" />
    </g>
  </g>
</svg>
