<?xml version="1.0" encoding="UTF-8" standalone="no"?>
<!-- Created with Inkscape (http://www.inkscape.org/) -->

<svg
   xmlns:dc="http://purl.org/dc/elements/1.1/"
   xmlns:cc="http://creativecommons.org/ns#"
   xmlns:rdf="http://www.w3.org/1999/02/22-rdf-syntax-ns#"
   xmlns:svg="http://www.w3.org/2000/svg"
   xmlns="http://www.w3.org/2000/svg"
   xmlns:sodipodi="http://sodipodi.sourceforge.net/DTD/sodipodi-0.dtd"
   xmlns:inkscape="http://www.inkscape.org/namespaces/inkscape"
   width="105mm"
   height="146mm"
   viewBox="0 0 105 146"
   version="1.1"
   id="svg8"
   inkscape:version="0.92.3 (2405546, 2018-03-11)"
   sodipodi:docname="araucaria_0_younger_01.svg">
  <defs
     id="defs2" />
  <sodipodi:namedview
     id="base"
     pagecolor="#ffffff"
     bordercolor="#666666"
     borderopacity="1.0"
     inkscape:pageopacity="0.0"
     inkscape:pageshadow="2"
     inkscape:zoom="0.98994949"
     inkscape:cx="225.52176"
     inkscape:cy="-14.024201"
     inkscape:document-units="mm"
     inkscape:current-layer="layer1"
     showgrid="false"
     inkscape:pagecheckerboard="true"
     height="147mm"
     inkscape:window-width="1279"
     inkscape:window-height="1414"
     inkscape:window-x="0"
     inkscape:window-y="1080"
     inkscape:window-maximized="0" />
  <metadata
     id="metadata5">
    <rdf:RDF>
      <cc:Work
         rdf:about="">
        <dc:format>image/svg+xml</dc:format>
        <dc:type
           rdf:resource="http://purl.org/dc/dcmitype/StillImage" />
        <dc:title />
      </cc:Work>
    </rdf:RDF>
  </metadata>
  <g
     inkscape:label="Layer 1"
     inkscape:groupmode="layer"
     id="layer1"
     transform="translate(0,-151)">
    <path
       style="fill:#000000;stroke-width:0.03711652"
       d="m 50.985664,297.08361 c -0.06442,-0.14564 -0.265214,-0.39173 -0.319621,-0.39173 -0.02416,0 0.0044,0.17905 0.04291,0.2691 0.02148,0.0503 0.0099,0.065 -0.05134,0.065 -0.08913,0 -0.16576,-0.15149 -0.133906,-0.26472 0.01073,-0.0381 0.02898,-0.10274 0.04056,-0.14357 0.01707,-0.0602 0.0051,-0.0725 -0.06343,-0.065 -0.115492,0.0127 -0.129205,-0.0849 -0.03922,-0.27924 0.11787,-0.25452 0.120086,-0.27359 0.03145,-0.27077 -0.120804,0.004 -0.09555,-0.18711 0.06871,-0.51954 0.132048,-0.26725 0.148481,-0.41658 0.04132,-0.37546 -0.09838,0.0378 -0.128295,-0.0485 -0.06909,-0.19928 0.05132,-0.13064 0.05093,-0.15257 -0.0042,-0.23676 -0.03344,-0.0511 -0.0608,-0.1584 -0.0608,-0.23859 0,-0.0986 -0.01897,-0.15308 -0.05863,-0.1683 -0.06413,-0.0246 -0.04946,-0.18672 0.03171,-0.35063 0.03585,-0.0724 0.03227,-0.0928 -0.0215,-0.12291 -0.03547,-0.0198 -0.05382,-0.0533 -0.04078,-0.0745 0.01304,-0.0211 -0.01233,-0.0871 -0.05639,-0.1467 l -0.0801,-0.10834 0.09772,-0.12812 0.09772,-0.12811 -0.08116,-0.11398 c -0.07769,-0.1091 -0.07864,-0.12025 -0.02229,-0.26109 0.05156,-0.12885 0.05199,-0.14711 0.0035,-0.14711 -0.03045,0 -0.05538,0.0176 -0.05538,0.0391 0,0.0215 -0.05029,0.0925 -0.111756,0.15774 -0.08543,0.0907 -0.106843,0.14153 -0.0909,0.21587 0.01695,0.0791 0.0049,0.10152 -0.06455,0.12012 -0.130611,0.035 -0.141077,0.0303 -0.141077,-0.0622 0,-0.0924 0.208944,-0.39313 0.447118,-0.64346 0.157435,-0.16546 0.175092,-0.24397 0.09706,-0.43154 -0.02733,-0.0657 -0.04264,-0.14031 -0.03402,-0.16583 0.0086,-0.0255 0.0101,-0.0472 0.0033,-0.0483 -0.372858,-0.0569 -0.439214,-0.0282 -0.439214,0.18983 0,0.2526 -0.121598,0.21873 -0.127087,-0.0354 -0.0025,-0.11654 -0.01574,-0.13325 -0.122954,-0.15533 -0.114184,-0.0235 -0.118964,-0.0201 -0.09651,0.0694 0.01972,0.0786 0.01301,0.09 -0.04065,0.0694 -0.03535,-0.0136 -0.07125,-0.0246 -0.07979,-0.0246 -0.0085,0 -0.01552,-0.0384 -0.01552,-0.0854 0,-0.17675 -0.132755,-0.22112 -0.291078,-0.0973 -0.111568,0.0873 -0.157278,0.20909 -0.112263,0.29919 0.02234,0.0447 0.01035,0.0661 -0.04522,0.0806 -0.09569,0.025 -0.124218,-0.0449 -0.09439,-0.23144 0.02016,-0.12611 0.01311,-0.14539 -0.06044,-0.1651 -0.139378,-0.0374 -0.213176,-0.0262 -0.213176,0.0323 0,0.0306 0.02505,0.0557 0.05567,0.0557 0.03062,0 0.05567,0.0167 0.05567,0.0371 0,0.0204 -0.0334,0.0371 -0.07423,0.0371 -0.08816,0 -0.09858,0.0569 -0.0162,0.0886 0.0898,0.0344 0.0248,0.097 -0.100809,0.097 -0.08142,0 -0.118014,-0.0206 -0.132046,-0.0742 -0.01239,-0.0473 -0.05063,-0.0742 -0.105684,-0.0742 -0.09522,0 -0.150388,0.0558 -0.09126,0.0924 0.05782,0.0358 0.0448,0.13028 -0.01795,0.13028 -0.03062,0 -0.05567,0.025 -0.05567,0.0557 0,0.0306 0.02505,0.0557 0.05567,0.0557 0.03093,0 0.05567,0.033 0.05567,0.0742 0,0.0527 -0.02474,0.0742 -0.08537,0.0742 -0.113045,0 -0.174448,-0.0666 -0.174448,-0.1891 0,-0.0901 -0.01516,-0.10148 -0.153622,-0.11468 -0.258214,-0.0246 -0.341918,0.13163 -0.111984,0.20904 0.09486,0.0319 0.110155,0.0497 0.07385,0.0861 -0.05816,0.0582 -0.18511,0.0585 -0.311635,5.7e-4 -0.08522,-0.0388 -0.105607,-0.0354 -0.150213,0.0257 -0.08531,0.11667 -0.06566,0.17266 0.05046,0.14374 0.09629,-0.024 0.09892,-0.0214 0.0464,0.0457 -0.08546,0.10915 -0.119454,0.1256 -0.260836,0.12622 -0.130744,5.2e-4 -0.295912,0.0849 -0.295912,0.15113 0,0.0193 0.02505,0.035 0.05567,0.035 0.03062,0 0.05567,0.0232 0.05567,0.0514 0,0.0326 -0.0619,0.0607 -0.169187,0.0768 -0.09305,0.014 -0.177415,0.0468 -0.187473,0.073 -0.01006,0.0262 -0.06337,0.0481 -0.118466,0.0487 -0.0551,5.2e-4 -0.133585,0.005 -0.174413,0.0107 -0.04083,0.005 -0.09094,0.003 -0.11135,-0.005 -0.02041,-0.008 -0.04547,0.002 -0.05567,0.0226 -0.0102,0.0204 0.03486,0.0423 0.100148,0.0486 l 0.118707,0.0115 -0.06303,0.12678 c -0.05427,0.10916 -0.08181,0.12691 -0.198106,0.1277 -0.07763,5.2e-4 -0.172338,0.0315 -0.2227,0.0729 l -0.08762,0.072 0.08414,0.0854 0.08414,0.0854 0.157113,-0.0832 c 0.08641,-0.0457 0.177991,-0.0832 0.203509,-0.0831 0.08362,2.1e-4 0.04855,0.11247 -0.0464,0.14856 -0.05681,0.0216 -0.09279,0.0644 -0.09279,0.11043 0,0.0414 -0.01596,0.0752 -0.03547,0.0752 -0.07601,0 -0.318227,0.19471 -0.337756,0.27152 -0.01678,0.066 -0.04787,0.0812 -0.167024,0.0819 -0.327721,0.002 -0.473679,0.18561 -0.198958,0.25058 0.1118,0.0265 0.166755,0.0136 0.351333,-0.0822 0.21937,-0.11382 0.350757,-0.14344 0.350757,-0.0791 0,0.0507 -0.154859,0.16373 -0.319706,0.23345 -0.221247,0.0936 -0.943809,0.29969 -0.967518,0.27599 -0.04713,-0.0471 0.03061,-0.13851 0.135735,-0.15953 0.125835,-0.0252 0.135629,-0.0535 0.05954,-0.17222 -0.02898,-0.0452 -0.06313,-0.17407 -0.07589,-0.28634 -0.02785,-0.24498 0.05822,-0.45661 0.193527,-0.47582 0.09542,-0.0136 0.118269,0.0834 0.02784,0.11807 -0.03062,0.0118 -0.05567,0.0457 -0.05567,0.0754 0,0.0465 0.01607,0.046 0.115434,-0.003 0.102789,-0.0513 0.11323,-0.0712 0.09532,-0.18156 -0.0173,-0.10662 -0.0036,-0.13721 0.09798,-0.2185 0.06496,-0.052 0.138983,-0.11164 0.1645,-0.13255 0.02551,-0.0209 0.04412,-0.0749 0.04134,-0.12007 l -0.0051,-0.0821 -0.01609,0.0835 c -0.01741,0.0904 -0.03916,0.0998 -0.116965,0.0505 -0.06943,-0.044 -0.02361,-0.16912 0.08893,-0.24286 0.05024,-0.0329 0.09134,-0.0924 0.09134,-0.1323 0,-0.0599 0.01835,-0.0688 0.106328,-0.0512 0.08957,0.0179 0.109503,0.008 0.126474,-0.0659 0.01108,-0.0479 0.06048,-0.1977 0.109774,-0.33283 l 0.08963,-0.24569 -0.299614,-0.0468 c -0.164787,-0.0257 -0.340043,-0.0462 -0.389458,-0.0455 -0.04941,5.7e-4 -0.151818,-0.0379 -0.227564,-0.0857 -0.07953,-0.0502 -0.169179,-0.0787 -0.212178,-0.0675 -0.04095,0.0107 -0.08568,10e-4 -0.0994,-0.0209 -0.03586,-0.058 -0.131907,-0.0497 -0.131907,0.0114 0,0.0284 -0.02642,0.0618 -0.05871,0.0742 -0.122551,0.047 -0.188801,0.02 -0.240802,-0.0981 -0.07067,-0.16053 -0.191323,-0.18817 -0.175611,-0.0402 0.01039,0.0979 0.0025,0.10474 -0.114115,0.0992 -0.06891,-0.003 -0.14707,-0.0283 -0.1737,-0.0557 -0.05905,-0.0606 -0.08299,-0.43478 -0.03007,-0.46987 0.02092,-0.0139 0.0367,-0.0749 0.03507,-0.13556 -0.0037,-0.13653 0.09275,-0.16848 0.145916,-0.0484 0.02392,0.054 0.06285,0.08 0.108074,0.0722 0.03888,-0.007 0.10957,0.008 0.157091,0.0339 0.06668,0.0357 0.108047,0.0364 0.181256,0.003 0.139981,-0.0638 0.231798,-0.0528 0.258386,0.031 0.02593,0.0817 0.09293,0.0964 0.15529,0.034 0.04363,-0.0436 0.538815,-0.18247 0.65079,-0.18247 0.05727,0 0.06213,0.0124 0.02904,0.0742 -0.02283,0.0427 -0.07771,0.0742 -0.129023,0.0742 -0.04911,0 -0.09946,0.0164 -0.111888,0.0366 -0.01405,0.0228 0.02101,0.0278 0.09275,0.0135 0.09747,-0.0195 0.118643,-0.0104 0.136631,0.0583 0.01171,0.0448 0.04201,0.0734 0.06734,0.0637 0.02533,-0.01 0.122098,-0.0291 0.215044,-0.043 0.150126,-0.0225 0.183807,-0.0135 0.301677,0.0805 0.152916,0.12201 0.162023,0.15308 0.05633,0.19218 l -0.07636,0.0282 0.07971,0.0721 c 0.0752,0.0681 0.08237,0.0685 0.126844,0.008 0.02593,-0.0355 0.08547,-0.0645 0.132332,-0.0645 0.04686,0 0.13994,-0.0418 0.206851,-0.0928 0.06691,-0.0511 0.165441,-0.0928 0.218956,-0.0928 0.102231,0 0.541653,-0.24152 0.668542,-0.36744 0.05613,-0.0557 0.09015,-0.0647 0.13948,-0.0367 0.08047,0.0456 0.133169,0.0157 0.177381,-0.10055 0.02344,-0.0617 0.06282,-0.0892 0.127618,-0.0892 0.07304,0 0.09371,-0.0188 0.09371,-0.0854 0,-0.0944 0.06298,-0.17445 0.137331,-0.17445 0.02654,0 0.04825,0.0334 0.04825,0.0742 0,0.0577 0.02475,0.0742 0.11135,0.0742 0.07423,0 0.11135,0.0185 0.11135,0.0557 0,0.0781 0.07028,0.0697 0.31193,-0.0371 0.231841,-0.10253 0.305823,-0.11392 0.32702,-0.0503 0.01052,0.0315 0.04942,0.0308 0.15156,-0.003 0.244967,-0.0808 0.143318,-0.23374 -0.1554,-0.23374 -0.157659,0 -0.192703,-0.0144 -0.261243,-0.10707 -0.05362,-0.0725 -0.11184,-0.10706 -0.180468,-0.10706 -0.06111,0 -0.119704,-0.0294 -0.147669,-0.0742 -0.05483,-0.0878 -0.166421,-0.0968 -0.231313,-0.0185 -0.07058,0.085 -0.0965,0.0704 -0.224115,-0.12654 -0.0922,-0.14228 -0.145649,-0.18739 -0.243911,-0.20583 -0.06921,-0.013 -0.125838,-0.0447 -0.125838,-0.0705 0,-0.0258 -0.0216,-0.0764 -0.04801,-0.11255 -0.04565,-0.0624 -0.05247,-0.062 -0.138903,0.008 -0.06459,0.0523 -0.10913,0.0639 -0.153873,0.0399 -0.03877,-0.0208 -0.135705,-0.0181 -0.252225,0.007 -0.148446,0.0318 -0.201801,0.0302 -0.247438,-0.008 -0.05167,-0.0429 -0.04632,-0.0578 0.0478,-0.1331 0.123212,-0.0986 0.107848,-0.10091 -0.190945,-0.0288 -0.324156,0.0783 -0.501073,0.073 -0.501073,-0.015 0,-0.0387 0.03315,-0.0786 0.07423,-0.0893 0.04083,-0.0107 0.07423,-0.0438 0.07423,-0.0736 0,-0.0474 -0.02886,-0.0475 -0.230732,-5.7e-4 -0.218137,0.0504 -0.238589,0.0491 -0.374673,-0.0235 -0.178848,-0.0955 -0.308514,-0.0981 -0.35713,-0.007 -0.02048,0.0383 -0.120244,0.0967 -0.2217,0.12992 -0.23125,0.0756 -0.22174,0.0765 -0.264008,-0.0232 -0.02884,-0.068 -0.03396,-0.053 -0.02757,0.0807 0.0079,0.166 -0.06031,0.25377 -0.10559,0.13578 -0.01519,-0.0396 -0.06939,-0.0588 -0.166126,-0.0588 -0.140292,0 -0.142713,0.002 -0.105853,0.0992 0.02914,0.0766 0.02505,0.1119 -0.01795,0.15489 -0.04949,0.0495 -0.05997,0.0444 -0.09432,-0.046 -0.02125,-0.0559 -0.03864,-0.12462 -0.03864,-0.15271 0,-0.0281 -0.0167,-0.0614 -0.03712,-0.074 -0.02041,-0.0126 -0.03712,0.0101 -0.03712,0.0504 0,0.0989 -0.227777,0.23534 -0.392742,0.23534 -0.07189,0 -0.179658,-0.0202 -0.239483,-0.0451 -0.147997,-0.0613 -0.238052,-0.0256 -0.185089,0.0733 0.03177,0.0594 0.02392,0.0896 -0.0399,0.15341 -0.104938,0.10493 -0.138898,0.0471 -0.115464,-0.19685 0.0204,-0.21227 -0.04282,-0.22428 -0.0962,-0.0183 -0.01693,0.0653 -0.05478,0.1188 -0.0841,0.1188 -0.0566,0 -0.06285,-0.084 -0.01836,-0.24676 0.02536,-0.0928 0.01785,-0.0999 -0.133951,-0.1269 -0.08845,-0.0157 -0.202576,-0.0299 -0.253611,-0.0316 -0.06682,-0.002 -0.09611,-0.0264 -0.104652,-0.0865 -0.01014,-0.0714 0.0051,-0.0835 0.104511,-0.0835 0.064,0 0.149539,0.0177 0.190078,0.0395 0.04054,0.0217 0.110427,0.0327 0.155305,0.0245 0.07219,-0.0132 0.06748,-0.0204 -0.04093,-0.0623 -0.151501,-0.0586 -0.15119,-0.17431 4.21e-4,-0.15845 0.05388,0.006 0.108554,-0.007 0.1215,-0.0278 0.0312,-0.0505 0.179265,-0.0487 0.23072,0.003 0.04276,0.0428 0.167051,-0.0516 0.206633,-0.15682 0.01408,-0.0374 0.04586,-0.0233 0.119219,0.0529 0.08514,0.0885 0.108973,0.0968 0.160143,0.0557 0.111864,-0.0898 0.187452,-0.17224 0.22885,-0.24959 0.05817,-0.10869 0.166163,-0.1035 0.134848,0.006 -0.06934,0.24348 -0.06797,0.28029 0.01193,0.32306 0.08702,0.0465 0.151654,0.0243 0.151654,-0.0522 0,-0.0272 0.0273,-0.06 0.06066,-0.0728 0.05161,-0.0198 0.05774,-0.002 0.04111,0.12251 -0.02092,0.15601 0.01917,0.22688 0.128352,0.22688 0.04497,0 0.06681,-0.0279 0.06681,-0.0854 0,-0.0469 0.01809,-0.10345 0.04019,-0.12556 0.02885,-0.0289 0.0026,-0.0894 -0.09279,-0.21441 -0.07314,-0.0958 -0.132982,-0.21427 -0.132982,-0.26323 0,-0.0797 -0.01203,-0.0866 -0.114625,-0.0661 -0.104675,0.0209 -0.113535,0.0152 -0.102071,-0.0659 0.0097,-0.0683 0.04077,-0.0931 0.134644,-0.10736 0.235181,-0.0358 0.103858,-0.0929 -0.187194,-0.0815 -0.278986,0.0109 -0.288909,0.008 -0.323851,-0.0835 -0.01983,-0.0521 -0.05135,-0.0948 -0.07006,-0.0948 -0.01871,0 -0.0443,-0.041 -0.05688,-0.0911 -0.02107,-0.0839 -0.04251,-0.092 -0.272735,-0.10207 -0.207142,-0.009 -0.252074,-0.0225 -0.262761,-0.0786 -0.0083,-0.0437 0.01444,-0.0747 0.06457,-0.0878 0.131447,-0.0344 0.08728,-0.0722 -0.163796,-0.14012 -0.206494,-0.0559 -0.241258,-0.0774 -0.241258,-0.14918 0,-0.0795 0.0089,-0.0822 0.169505,-0.0522 0.09323,0.0174 0.187402,0.0427 0.209278,0.0562 0.02703,0.0167 0.03194,-0.0172 0.01533,-0.10571 -0.04537,-0.24185 0.02962,-0.3031 0.238722,-0.19497 0.09105,0.0471 0.107951,0.0768 0.100227,0.1763 -0.0081,0.10444 0.0025,0.12021 0.0835,0.12392 0.05104,0.002 0.122816,0.017 0.159514,0.0325 0.0367,0.0155 0.136912,0.0189 0.222699,0.008 0.141869,-0.0188 0.14946,-0.0159 0.08393,0.0325 -0.07077,0.0522 -0.07069,0.0531 0.0047,0.0531 0.04224,0 0.100366,0.0355 0.129169,0.0789 0.03211,0.0484 0.09156,0.0789 0.15367,0.0789 0.08955,0 0.188184,0.0602 0.111417,0.068 -0.105866,0.0108 -0.253986,0.0415 -0.268141,0.0557 -0.0092,0.009 0.0018,0.0353 0.0244,0.0579 0.0578,0.0578 0.277352,0.01 0.401391,-0.0878 l 0.102413,-0.0806 -0.02494,0.0994 c -0.02366,0.0943 -0.02003,0.0975 0.07079,0.063 0.05266,-0.02 0.112129,-0.0364 0.132167,-0.0364 0.06279,0 -0.09297,0.17967 -0.174089,0.20081 -0.0811,0.0212 -0.163236,0.15893 -0.138064,0.23161 0.02897,0.0836 0.212913,-0.004 0.268307,-0.12807 0.05699,-0.12749 0.150181,-0.15358 0.22528,-0.0631 0.02541,0.0306 0.06921,0.0557 0.09734,0.0557 0.02947,0 0.05113,0.0384 0.05113,0.0906 0,0.1134 0.05154,0.14848 0.111689,0.076 0.06389,-0.077 0.111011,-0.0689 0.111011,0.019 0,0.0871 0.06469,0.0953 0.169757,0.0217 0.04121,-0.0289 0.122973,-0.0581 0.1817,-0.065 0.148347,-0.0173 0.162438,-0.0999 0.02585,-0.15142 -0.06194,-0.0234 -0.120746,-0.0736 -0.13069,-0.11165 -0.0099,-0.038 -0.06781,-0.0879 -0.128583,-0.11085 -0.115066,-0.0434 -0.153797,-0.14991 -0.154744,-0.42543 -2.6e-4,-0.0716 -0.02481,-0.13244 -0.06182,-0.15316 -0.03563,-0.02 -0.05208,-0.0587 -0.03919,-0.0923 0.01222,-0.0318 -0.01044,-0.0994 -0.05035,-0.15016 -0.09486,-0.1206 -0.1542,-0.43984 -0.125343,-0.67435 0.0202,-0.1642 0.0122,-0.19756 -0.06675,-0.27837 -0.169476,-0.17345 -0.150381,-0.34897 0.02102,-0.19322 0.104176,0.0947 0.271647,0.12499 0.326331,0.0591 0.0762,-0.0918 0.152339,-0.0612 0.128332,0.0516 -0.01849,0.0869 -0.0023,0.11455 0.1084,0.18592 0.128262,0.0827 0.165607,0.16822 0.09301,0.21308 -0.06103,0.0377 -0.04216,0.15096 0.03712,0.2227 0.06645,0.0601 0.08104,0.0613 0.139187,0.0114 0.03572,-0.0307 0.08583,-0.0677 0.11135,-0.0822 0.06859,-0.039 0.05881,0.10873 -0.01187,0.17941 -0.08753,0.0875 -0.05528,0.22831 0.04899,0.21381 0.04869,-0.007 0.0853,0.009 0.08779,0.0371 0.0023,0.0268 0.0082,0.0654 0.0129,0.0858 0.0047,0.0204 0.01117,0.0569 0.01428,0.0811 0.0031,0.0242 0.05158,0.0492 0.107724,0.0557 0.139262,0.016 0.132753,0.11659 -0.0093,0.14336 -0.122729,0.0232 -0.126614,0.0584 -0.02741,0.24883 0.03457,0.0663 0.09089,0.12063 0.125163,0.12063 0.04464,0 0.05665,0.0217 0.04233,0.0764 -0.01469,0.0562 9.69e-4,0.0819 0.05915,0.0971 0.08981,0.0235 0.0977,0.0575 0.03616,0.15609 -0.04613,0.0739 -0.01645,0.20816 0.03851,0.1742 0.04539,-0.0281 0.12798,0.0774 0.09826,0.12552 -0.01317,0.0213 -0.06373,0.0387 -0.112355,0.0387 -0.111125,0 -0.119264,0.0145 -0.135323,0.24126 -0.01684,0.23773 0.04527,0.27307 0.09816,0.0558 0.02751,-0.113 0.06277,-0.17111 0.109237,-0.18006 0.05802,-0.0112 0.06519,0.004 0.04647,0.0975 -0.03057,0.15287 0.01489,0.18181 0.07205,0.0459 0.05618,-0.13362 0.172946,-0.15487 0.156381,-0.0285 -0.01383,0.10556 -6e-6,0.11422 0.130243,0.0815 0.123369,-0.031 0.178032,0.0256 0.163297,0.16901 -0.0085,0.0827 0.0026,0.0915 0.101815,0.0808 0.06124,-0.007 0.130451,-0.0366 0.153799,-0.0667 0.02865,-0.0369 0.07435,-0.0467 0.140588,-0.0301 0.09235,0.0232 0.09491,0.0295 0.0433,0.10833 -0.112977,0.17242 0.01666,0.30818 0.17779,0.18619 0.04417,-0.0334 0.0922,-0.0416 0.129907,-0.0221 0.0329,0.017 0.09323,0.0176 0.13406,0.001 0.15336,-0.0617 0.204141,-0.0416 0.204141,0.0806 0,0.10315 0.009,0.11279 0.08351,0.0889 0.274516,-0.088 0.415457,-0.0512 0.242909,0.0634 -0.07647,0.0508 -0.07882,0.0645 -0.03563,0.20866 0.04772,0.15928 0.117487,0.20864 0.117487,0.0831 0,-0.11063 0.04001,-0.18862 0.09676,-0.18862 0.02844,0 0.0517,0.0324 0.0517,0.072 0,0.10028 0.06167,0.12846 0.0851,0.0389 0.02612,-0.0999 0.137602,-0.0961 0.137602,0.005 0,0.0759 0.0032,0.0764 0.09601,0.0156 0.135753,-0.089 0.158593,-0.0387 0.03909,0.0861 -0.09928,0.10362 -0.09974,0.10638 -0.03193,0.19013 0.05872,0.0725 0.0807,0.0786 0.149843,0.0416 0.04457,-0.0238 0.08102,-0.0595 0.08102,-0.0792 0,-0.0197 0.03758,-0.0359 0.08351,-0.0359 0.05141,-7e-5 0.112049,-0.0428 0.157745,-0.11124 0.106015,-0.15872 0.17129,-0.14789 0.119801,0.0199 -0.03332,0.10857 -0.02985,0.14164 0.02009,0.19159 0.05574,0.0557 0.06381,0.0528 0.105382,-0.0384 0.05251,-0.11525 0.08864,-0.12383 0.14258,-0.0339 0.03665,0.0612 0.04219,0.0607 0.09464,-0.007 0.0809,-0.10464 0.0687,-0.16611 -0.04129,-0.20792 -0.08241,-0.0313 -0.09323,-0.0521 -0.07198,-0.13827 0.01375,-0.0558 0.03464,-0.1515 0.04641,-0.21274 0.01177,-0.0612 0.04417,-0.1443 0.07198,-0.18457 0.06907,-0.1 0.06349,-0.20609 -0.01379,-0.2626 -0.05612,-0.041 -0.0585,-0.0633 -0.01855,-0.17375 0.06807,-0.18825 0.05959,-0.22549 -0.04675,-0.20516 -0.05435,0.0104 -0.110826,-0.005 -0.136815,-0.0356 -0.04369,-0.0527 -0.03247,-0.0885 0.122137,-0.39046 0.06513,-0.12719 0.03827,-0.20687 -0.07835,-0.23249 -0.131029,-0.0288 -0.146865,-0.12012 -0.03712,-0.21409 0.04083,-0.035 0.07423,-0.0879 0.07423,-0.11775 0,-0.0298 0.02923,-0.0706 0.06495,-0.0907 0.07079,-0.0398 0.0782,-0.0338 -0.120628,-0.096 -0.03393,-0.0106 -0.05567,-0.0628 -0.05567,-0.13358 0,-0.0639 -0.02625,-0.1715 -0.05833,-0.23911 -0.04483,-0.0945 -0.04995,-0.15328 -0.02213,-0.25407 0.0293,-0.10611 0.02273,-0.1563 -0.03446,-0.26299 -0.08143,-0.15193 -0.08943,-0.24698 -0.02613,-0.31028 0.03207,-0.0321 0.03324,-0.0558 0.0042,-0.0849 -0.02906,-0.029 -0.04733,-0.029 -0.06529,0 -0.03351,0.0542 -0.131907,0.0515 -0.131907,-0.003 0,-0.0242 0.03594,-0.11819 0.07985,-0.20891 0.07844,-0.16203 0.07868,-0.1682 0.01386,-0.34848 -0.04568,-0.12703 -0.05412,-0.19542 -0.02741,-0.22213 0.04725,-0.0472 0.119289,-0.008 0.119289,0.0648 0,0.0659 0.09665,0.0711 0.121422,0.007 0.0099,-0.0258 -0.04227,-0.15153 -0.115956,-0.27936 l -0.133972,-0.23241 -0.158446,0.0237 c -0.115028,0.0172 -0.158447,0.011 -0.158447,-0.0229 0,-0.0641 -0.422558,-0.0191 -0.530467,0.0565 -0.09186,0.0643 -0.253681,0.0728 -0.360833,0.0189 -0.04055,-0.0204 -0.107518,-0.0542 -0.148817,-0.0751 -0.05113,-0.0258 -0.0977,-0.0258 -0.145928,-3e-5 -0.04324,0.0232 -0.126058,0.0261 -0.212565,0.007 -0.140178,-0.0301 -0.262645,0.0126 -0.364424,0.12694 -0.05553,0.0624 -0.148943,0.0862 -0.204269,0.052 -0.03011,-0.0186 -0.08618,-0.003 -0.1451,0.04 -0.06058,0.0444 -0.126859,0.0621 -0.179542,0.048 -0.08003,-0.0214 -0.08943,-0.0367 -0.09913,-0.16212 -0.0027,-0.0357 -0.03745,-0.0529 -0.09642,-0.0481 -0.15128,0.0124 -0.466613,-0.0979 -0.557959,-0.19513 -0.102803,-0.10943 -0.168075,-0.11508 -0.2195,-0.019 -0.07877,0.14719 -0.01029,0.37202 0.114135,0.37474 0.03483,5.7e-4 0.02984,0.0138 -0.01537,0.0401 -0.09018,0.0525 -0.241565,-0.0472 -0.292178,-0.19243 -0.02082,-0.0597 -0.05156,-0.10861 -0.06831,-0.10861 -0.01675,0 -0.05559,-0.01 -0.08631,-0.0214 -0.03454,-0.0132 -0.073,0.0106 -0.100767,0.0625 -0.0386,0.0721 -0.03379,0.0929 0.03427,0.14801 0.101833,0.0825 0.100447,0.11608 -0.0042,0.10119 -0.05313,-0.008 -0.110706,-0.0647 -0.158814,-0.15759 -0.101804,-0.19658 -0.166123,-0.2125 -0.166123,-0.0411 0,0.11416 -0.0094,0.12961 -0.06095,0.10074 -0.03352,-0.0188 -0.0878,-0.0272 -0.120629,-0.0186 -0.04138,0.0108 -0.08017,-0.0319 -0.126491,-0.13929 l -0.06681,-0.15481 -0.192334,0.0255 c -0.105784,0.014 -0.199193,0.0323 -0.207576,0.0407 -0.03287,0.0328 0.07811,0.12277 0.127958,0.10365 0.07515,-0.0288 0.06593,0.0509 -0.01084,0.0939 -0.04421,0.0248 -0.09687,0.0186 -0.17149,-0.02 -0.05923,-0.0306 -0.187204,-0.0631 -0.284399,-0.0721 -0.143722,-0.0134 -0.181381,-0.004 -0.201696,0.0487 -0.01508,0.0393 -0.0031,0.0811 0.03021,0.10545 0.03035,0.0222 0.06049,0.0894 0.06697,0.14945 0.0098,0.0909 -0.003,0.11118 -0.07681,0.12161 -0.04872,0.007 -0.09883,-0.002 -0.11135,-0.0188 -0.03077,-0.0423 -0.290859,-0.23501 -0.317212,-0.23501 -0.01157,0 -0.02104,0.0575 -0.02104,0.12771 0,0.0702 -0.0167,0.13804 -0.03712,0.15066 -0.02042,0.0126 -0.03712,0.0553 -0.03712,0.095 0,0.0818 -0.07258,0.0946 -0.145682,0.0257 -0.03934,-0.0371 -0.05258,-0.0371 -0.06619,0 -0.02321,0.0633 -0.146607,0.0588 -0.171583,-0.006 -0.02271,-0.0592 -0.115954,-0.0566 -0.177491,0.005 -0.02263,0.0226 -0.03477,0.12424 -0.02746,0.22977 0.01568,0.22644 -0.04579,0.25325 -0.137505,0.06 -0.04934,-0.10398 -0.0533,-0.15214 -0.0203,-0.2468 0.02255,-0.0647 0.041,-0.12269 0.041,-0.1289 0,-0.006 -0.05846,-0.039 -0.129908,-0.0729 -0.08076,-0.0383 -0.129908,-0.0881 -0.129908,-0.13165 0,-0.0855 0.119139,-0.0944 0.185924,-0.0139 0.04015,0.0484 0.05225,0.0488 0.08806,0.003 0.02283,-0.0291 0.07491,-0.0589 0.115742,-0.0661 0.04485,-0.008 0.07423,-0.0422 0.07423,-0.0867 0,-0.10286 0.13047,-0.24056 0.227939,-0.24056 0.07682,0 0.127704,-0.0208 0.46607,-0.19085 0.07549,-0.0379 0.172472,-0.069 0.215507,-0.069 0.117082,0 0.445237,-0.3383 0.445237,-0.459 0,-0.0621 -0.02028,-0.0978 -0.05567,-0.0978 -0.03062,0 -0.05567,0.0265 -0.05567,0.0589 0,0.0928 -0.293464,0.0297 -0.38136,-0.082 -0.03818,-0.0485 -0.09744,-0.0884 -0.131687,-0.0885 -0.03424,-1.1e-4 -0.112367,-0.0334 -0.173609,-0.074 -0.142612,-0.0944 -0.178106,-0.0934 -0.147072,0.005 0.04507,0.14201 -0.07054,0.0586 -0.14986,-0.10807 -0.04453,-0.0936 -0.107654,-0.16508 -0.157745,-0.17866 -0.09959,-0.027 -0.11233,-0.12594 -0.01622,-0.12594 0.03701,0 0.116345,-0.0516 0.176303,-0.11467 0.109144,-0.1148 0.275248,-0.21939 0.348429,-0.21939 0.07562,0 0.0378,0.11363 -0.04877,0.14654 -0.186971,0.0711 -0.14276,0.24989 0.05061,0.2047 0.319627,-0.0747 0.369917,-0.0576 0.2227,0.0756 -0.164187,0.14859 -0.01861,0.1834 0.155235,0.0371 0.108545,-0.0913 0.290163,-0.127 0.290163,-0.057 0,0.0197 -0.0334,0.0537 -0.07423,0.0755 -0.04083,0.0219 -0.07425,0.0517 -0.07426,0.0663 -3.4e-5,0.0317 0.287989,0.0276 0.421651,-0.006 0.102981,-0.0258 0.322253,0.0743 0.350896,0.16017 0.01206,0.0362 -0.0104,0.0447 -0.0819,0.031 -0.05419,-0.0104 -0.10746,-0.005 -0.118384,0.0133 -0.01092,0.0177 -0.06063,0.0322 -0.110464,0.0322 -0.07171,0 -0.0906,0.0192 -0.0906,0.0921 0,0.13244 0.159584,0.16798 0.273542,0.0609 0.104087,-0.0978 0.142452,-0.0986 0.227531,-0.005 0.04227,0.0467 0.114318,0.0742 0.194284,0.0742 0.121918,0 0.126107,0.005 0.102648,0.11135 -0.03554,0.16181 0.0615,0.14593 0.205853,-0.0337 0.06411,-0.0798 0.14945,-0.15364 0.18965,-0.16416 0.06391,-0.0167 0.0701,-0.006 0.04927,0.0894 -0.02002,0.0911 -0.01218,0.10848 0.04903,0.10848 0.04164,0 0.08117,0.0318 0.09226,0.0742 0.02557,0.0978 0.190487,0.0984 0.349785,0.001 0.120123,-0.0732 0.212043,-0.0394 0.126165,0.0465 -0.118709,0.11871 0.01012,0.13502 0.135705,0.0172 0.07335,-0.0688 0.132532,-0.0838 0.336442,-0.0854 0.13609,-0.001 0.294455,-0.0219 0.351923,-0.0464 0.05747,-0.0245 0.155317,-0.0446 0.217443,-0.0446 0.101197,0 0.110592,0.009 0.09024,0.0905 -0.03001,0.11957 0.0253,0.14873 0.108255,0.0571 0.03651,-0.0403 0.0983,-0.0734 0.137308,-0.0734 0.03901,0 0.104743,-0.0181 0.146081,-0.0402 0.09472,-0.0507 0.295838,0.0218 0.267232,0.0964 -0.01175,0.0306 0.01375,0.0539 0.06745,0.0615 0.05649,0.008 0.09045,0.0411 0.09821,0.0957 0.01245,0.0876 0.07888,0.11707 0.08377,0.0371 0.01259,-0.20573 0.09246,-0.28766 0.280438,-0.28766 0.06634,0 0.130945,-0.0167 0.143562,-0.0371 0.01262,-0.0204 0.08598,-0.0371 0.163029,-0.0371 0.07705,0 0.15108,-0.011 0.164512,-0.0244 0.05519,-0.0552 -0.06933,-0.12427 -0.230015,-0.12761 -0.09447,-0.002 -0.255122,-0.0229 -0.35701,-0.0466 -0.163085,-0.0379 -0.187524,-0.0561 -0.204245,-0.15268 -0.0153,-0.0883 -0.04278,-0.11452 -0.141402,-0.13469 -0.155213,-0.0318 -0.177715,-0.0553 -0.11975,-0.1251 0.05745,-0.0692 0.01853,-0.0872 -0.22159,-0.10222 -0.141123,-0.009 -0.168863,-0.0234 -0.178885,-0.094 -0.0093,-0.0654 0.0068,-0.0842 0.07423,-0.0864 0.08535,-0.003 0.0853,-0.003 -0.0067,-0.0339 -0.05103,-0.017 -0.134811,-0.0401 -0.186168,-0.0513 -0.0602,-0.0131 -0.108509,-0.0604 -0.135963,-0.13316 -0.02915,-0.0772 -0.06762,-0.11282 -0.121937,-0.11282 -0.05534,0 -0.09549,-0.0386 -0.132705,-0.12769 -0.02934,-0.0702 -0.112084,-0.17249 -0.183865,-0.22724 -0.07178,-0.0548 -0.166811,-0.16413 -0.211176,-0.24307 -0.09071,-0.1614 -0.149356,-0.18902 -0.409677,-0.19295 -0.136059,-0.002 -0.205243,-0.0244 -0.274373,-0.0884 -0.05084,-0.0471 -0.125834,-0.0857 -0.166652,-0.0857 -0.04935,0 -0.09192,-0.0424 -0.127058,-0.12647 l -0.05284,-0.12648 -0.223636,0.0203 c -0.227296,0.0206 -0.24441,0.0109 -0.226624,-0.12827 0.0038,-0.0301 -0.04163,-0.0426 -0.13479,-0.0371 -0.117787,0.007 -0.140597,-0.003 -0.140597,-0.0645 0,-0.0536 0.03681,-0.0815 0.139188,-0.10575 0.130047,-0.0308 0.139187,-0.042 0.139187,-0.17123 0,-0.0966 0.02592,-0.16265 0.0859,-0.21901 0.08212,-0.0772 0.21587,-0.11137 0.206632,-0.0529 -0.01222,0.0774 0.01444,0.0819 0.121033,0.0207 0.08071,-0.0464 0.121315,-0.0538 0.131826,-0.0242 0.01103,0.0311 0.05206,0.0327 0.149638,0.006 0.120332,-0.0333 0.141475,-0.028 0.201396,0.0499 0.03682,0.0479 0.06728,0.0954 0.06767,0.1056 3.97e-4,0.0102 -0.06074,0.052 -0.135856,0.0928 -0.156359,0.085 -0.219061,0.19072 -0.08853,0.1493 0.04422,-0.014 0.101853,-0.008 0.128066,0.014 0.03437,0.0285 0.0675,0.0245 0.118847,-0.0143 0.09981,-0.0755 0.158971,-0.0689 0.161673,0.018 0.0013,0.0408 0.0033,0.10883 0.0044,0.15112 0.0018,0.0658 0.02194,0.0752 0.139187,0.065 0.113499,-0.01 0.135204,-5.7e-4 0.126174,0.053 -0.006,0.0357 0.0065,0.065 0.02784,0.065 0.02131,0 0.03874,0.0548 0.03874,0.12165 0,0.25359 0.229438,0.39809 0.278367,0.17531 0.02059,-0.0937 0.03799,-0.10792 0.11025,-0.0898 0.04972,0.0125 0.09772,0.002 0.114141,-0.0243 0.01891,-0.0306 0.01305,-0.0364 -0.01763,-0.0175 -0.03258,0.0201 -0.04236,0.003 -0.03357,-0.0592 0.0083,-0.0586 0.04085,-0.0917 0.09818,-0.0998 0.121792,-0.0173 0.147314,-0.11589 0.05032,-0.19444 -0.101599,-0.0823 -0.103122,-0.17092 -0.0035,-0.20254 0.06835,-0.0217 0.07091,-0.0313 0.02295,-0.086 -0.02969,-0.0339 -0.06545,-0.0992 -0.07944,-0.1451 -0.02069,-0.0679 -0.01109,-0.0835 0.05129,-0.0835 0.0422,0 0.07673,-0.0167 0.07673,-0.0371 0,-0.0204 0.03242,-0.0371 0.07204,-0.0371 0.10832,0 0.134038,-0.0767 0.0484,-0.14428 -0.0578,-0.0456 -0.0713,-0.0885 -0.0568,-0.18049 0.02564,-0.1627 0.132255,-0.15943 0.291028,0.009 0.106153,0.11255 0.137972,0.12639 0.242591,0.10546 0.104318,-0.0209 0.117078,-0.0154 0.09547,0.041 -0.06199,0.16155 -0.06415,0.23261 -0.0085,0.27883 0.07768,0.0645 0.07338,0.11333 -0.01,0.11333 -0.111332,0 -0.118482,0.0382 -0.03702,0.19789 0.05123,0.10042 0.06322,0.15629 0.03552,0.16553 -0.02299,0.008 -0.04181,0.0439 -0.04181,0.0805 0,0.0366 -0.02424,0.0867 -0.05385,0.11129 -0.02962,0.0246 -0.06502,0.11911 -0.07866,0.21007 -0.02122,0.14149 -0.04425,0.17565 -0.159565,0.23658 l -0.134764,0.0712 0.129907,0.008 c 0.07145,0.005 0.156762,0.008 0.189583,0.009 0.03981,2.2e-4 0.05368,0.0232 0.04165,0.0692 -0.0099,0.0379 -0.0034,0.0662 0.01456,0.0629 0.07929,-0.0145 0.12537,0.007 0.12537,0.0585 0,0.0306 -0.03162,0.0557 -0.07026,0.0557 -0.03865,0 -0.07988,0.025 -0.09163,0.0557 -0.02617,0.0682 0.110761,0.0746 0.324768,0.0152 0.113762,-0.0316 0.151084,-0.0295 0.176257,0.009 0.056,0.0869 0.01688,0.1553 -0.107215,0.18746 -0.107452,0.0278 -0.120572,0.0456 -0.120572,0.16275 0,0.11363 0.01134,0.13058 0.08351,0.12474 0.180148,-0.0146 0.242398,0.003 0.261291,0.0757 0.01673,0.064 0.05062,0.0742 0.245586,0.0742 0.167365,0 0.226175,0.0133 0.226175,0.0511 0,0.0637 -0.06967,0.12217 -0.167025,0.14025 -0.04319,0.008 -0.07423,0.0431 -0.07423,0.0839 0,0.0514 0.02983,0.0724 0.11135,0.0785 0.237223,0.0177 0.520484,0.0671 0.538284,0.0939 0.01026,0.0155 0.06423,0.0193 0.119927,0.009 0.09853,-0.0188 0.100853,-0.0251 0.08567,-0.23118 -0.0086,-0.1165 -0.03603,-0.25665 -0.061,-0.31145 -0.0551,-0.12094 -0.02878,-0.15648 0.07483,-0.10103 0.06882,0.0369 0.07741,0.0312 0.07741,-0.0508 0,-0.0508 -0.02189,-0.10561 -0.04863,-0.12194 -0.08826,-0.0539 -0.166183,-0.20026 -0.14655,-0.27534 0.0121,-0.0463 -0.01019,-0.10131 -0.05978,-0.14751 -0.135628,-0.12635 -0.08132,-0.29348 0.09536,-0.29348 0.144854,0 0.10208,-0.10543 -0.04804,-0.11839 l -0.133401,-0.0115 0.07773,-0.0892 c 0.09704,-0.11136 0.0978,-0.15879 0.0035,-0.21769 -0.09998,-0.0624 -0.09346,-0.13594 0.01856,-0.20934 0.10403,-0.0682 0.118531,-0.15 0.04042,-0.22811 -0.05398,-0.054 -0.04556,-0.15871 0.02443,-0.30385 0.03202,-0.0664 0.02675,-0.0979 -0.02616,-0.15637 -0.03791,-0.0419 -0.05624,-0.0993 -0.04284,-0.13421 0.02099,-0.0547 -0.0065,-0.0583 -0.264543,-0.035 -0.158375,0.0143 -0.298786,0.0327 -0.312023,0.0409 -0.01324,0.008 -0.126001,0.004 -0.250587,-0.009 -0.189623,-0.0198 -0.226517,-0.0352 -0.226517,-0.0943 0,-0.0606 -0.01842,-0.0672 -0.129908,-0.0463 -0.1048,0.0197 -0.129907,0.0128 -0.129907,-0.0354 0,-0.0421 -0.03569,-0.0607 -0.120629,-0.0628 -0.25994,-0.007 -0.32506,-0.0201 -0.37044,-0.0775 -0.02592,-0.0328 -0.109552,-0.0706 -0.185857,-0.0839 -0.133031,-0.0233 -0.219182,-0.10889 -0.190059,-0.18884 0.0085,-0.0233 -0.08005,-0.0375 -0.230634,-0.0371 -0.197672,5.7e-4 -0.254279,-0.0127 -0.295982,-0.0697 -0.07009,-0.0957 -0.0296,-0.14555 0.09759,-0.12011 0.07014,0.014 0.12536,0.001 0.165037,-0.0386 0.05475,-0.0548 0.04999,-0.0643 -0.0583,-0.11674 -0.09865,-0.0478 -0.136976,-0.0495 -0.234492,-0.0102 -0.237254,0.0955 -0.260023,0.0964 -0.237261,0.009 0.02222,-0.085 -0.02521,-0.14432 -0.06451,-0.0807 -0.03399,0.055 -0.119117,0.0462 -0.14251,-0.0148 -0.01301,-0.0339 0.02511,-0.074 0.107378,-0.11309 0.07015,-0.0333 0.12755,-0.0675 0.12755,-0.076 0,-0.0437 -0.182503,-0.10467 -0.292043,-0.0976 -0.116905,0.008 -0.123471,0.002 -0.101169,-0.0869 0.02299,-0.0916 0.01828,-0.0947 -0.130798,-0.085 -0.186718,0.0122 -0.234261,-0.0614 -0.08205,-0.12684 0.05774,-0.0249 0.113338,-0.0515 0.123545,-0.0593 0.0102,-0.008 0.0192,-0.11222 0.02,-0.2321 0.0016,-0.24294 0.02789,-0.29365 0.120964,-0.23342 0.04618,0.0299 0.06156,0.0869 0.05716,0.2121 -0.0065,0.18652 0.04281,0.22571 0.0988,0.0784 0.04911,-0.12916 0.154576,-0.12371 0.140591,0.007 -0.01042,0.0976 -0.0063,0.0998 0.169698,0.0897 0.110298,-0.006 0.171682,0.004 0.157992,0.0259 -0.03733,0.0604 0.0846,0.3107 0.135913,0.27898 0.06343,-0.0392 0.323718,-0.0487 0.323718,-0.0118 0,0.0168 -0.05011,0.0777 -0.111349,0.13554 -0.101337,0.0956 -0.146736,0.19813 -0.08777,0.19813 0.01297,0 0.06228,-0.0418 0.109578,-0.0928 0.10473,-0.113 0.163773,-0.11863 0.163773,-0.0156 0,0.0667 0.01536,0.0738 0.112871,0.0524 0.128643,-0.0282 0.221178,0.0281 0.221178,0.13478 0,0.0429 0.02623,0.0697 0.06829,0.0697 0.04656,0 0.08361,0.0464 0.116419,0.14583 l 0.04813,0.14583 0.105823,-0.0782 c 0.0582,-0.043 0.110204,-0.0711 0.115558,-0.0623 0.0054,0.009 0.0288,0.0494 0.0521,0.0902 0.02624,0.046 0.07404,0.0705 0.125575,0.0645 0.04577,-0.005 0.1035,0.007 0.128301,0.0277 0.03174,0.0264 0.06495,0.0155 0.112156,-0.0367 0.09601,-0.10609 0.142614,-0.0918 0.117086,0.0358 -0.02432,0.12161 0.02749,0.187 0.06714,0.0847 0.02202,-0.0568 0.03045,-0.0579 0.06884,-0.009 0.02406,0.0306 0.0688,0.0557 0.09942,0.0557 0.03062,0 0.05127,0.0216 0.0459,0.0479 -0.01491,0.073 0.06127,0.19335 0.122436,0.19335 0.0325,0 0.05437,-0.0355 0.05437,-0.0882 0,-0.0485 0.02546,-0.10938 0.05657,-0.1352 0.06551,-0.0544 0.06407,-0.0555 0.127108,0.10282 0.06854,0.17216 0.156808,0.16425 0.10355,-0.009 -0.02193,-0.0715 -0.05377,-0.12991 -0.07076,-0.12991 -0.01699,0 -0.03089,-0.0418 -0.03089,-0.0928 0,-0.0511 -0.01473,-0.0928 -0.03273,-0.0928 -0.018,0 -0.04448,-0.14111 -0.05885,-0.31358 -0.01707,-0.20495 -0.04514,-0.32936 -0.08101,-0.35913 -0.03277,-0.0272 -0.04659,-0.0786 -0.03431,-0.12757 0.01233,-0.0492 -0.0016,-0.10043 -0.03473,-0.12793 -0.03043,-0.0253 -0.05649,-0.0898 -0.05793,-0.14344 -0.0014,-0.0536 -0.01571,-0.13093 -0.03173,-0.17175 -0.01601,-0.0408 -0.0168,-0.1174 -0.0018,-0.17015 0.01505,-0.0528 0.01375,-0.12025 -0.0029,-0.15 -0.01664,-0.0297 -0.02084,-0.12438 -0.0093,-0.2103 0.01554,-0.11589 0.03768,-0.15621 0.08575,-0.15621 0.106221,0 0.167279,-0.0992 0.106273,-0.17271 -0.05041,-0.0607 -0.07711,-0.34692 -0.03236,-0.34692 0.01276,0 0.07121,0.0501 0.129884,0.11135 0.119348,0.12457 0.169572,0.13488 0.288959,0.0593 0.04521,-0.0286 0.138282,-0.0638 0.20682,-0.0781 0.110104,-0.023 0.120495,-0.0186 0.08924,0.0372 -0.01945,0.0347 -0.100583,0.0936 -0.180288,0.13073 -0.127845,0.0596 -0.133987,0.0679 -0.05213,0.0708 0.06248,0.002 0.107819,0.0356 0.138798,0.10237 0.05631,0.12127 0.04042,0.14288 -0.05926,0.0806 -0.04189,-0.0262 -0.08733,-0.0364 -0.100991,-0.0228 -0.04427,0.0443 0.01747,0.14056 0.131881,0.20569 0.08179,0.0465 0.109305,0.0874 0.102715,0.15249 -0.0076,0.0747 0.01685,0.0976 0.152946,0.14368 0.16338,0.0553 0.156285,0.11817 -0.01348,0.11947 -0.05761,4.1e-4 -0.07423,0.0255 -0.07423,0.11191 0,0.0612 0.01909,0.11135 0.04242,0.11135 0.02334,0 0.05182,0.0245 0.06331,0.0544 0.01623,0.0423 -0.0018,0.0499 -0.08093,0.0341 -0.07046,-0.0141 -0.129956,0.003 -0.193215,0.0557 -0.07601,0.0632 -0.08038,0.0763 -0.02595,0.0773 0.036,5.7e-4 0.09788,-0.019 0.137499,-0.0437 0.109138,-0.0682 0.128359,-0.0126 0.05165,0.14933 -0.04223,0.0891 -0.108648,0.16075 -0.171093,0.18448 -0.05614,0.0213 -0.10207,0.0569 -0.10207,0.0791 0,0.0749 0.148371,0.041 0.229638,-0.0524 0.07728,-0.0889 0.21576,-0.12783 0.21576,-0.0607 0,0.0177 -0.03462,0.0761 -0.07693,0.1299 -0.04231,0.0538 -0.06,0.0978 -0.03931,0.0978 0.02069,0 0.04867,-0.0179 0.06217,-0.0397 0.0135,-0.0219 0.06005,-0.0529 0.103448,-0.0689 0.05309,-0.0196 0.09218,-0.0825 0.119503,-0.19226 0.02805,-0.11264 0.05914,-0.1616 0.100536,-0.15831 0.05295,0.004 0.05173,-0.0106 -0.01046,-0.12658 -0.08608,-0.16061 -0.06417,-0.2057 0.08411,-0.17313 l 0.113301,0.0249 -0.08002,-0.11238 c -0.04401,-0.0618 -0.09007,-0.16261 -0.102345,-0.22399 -0.0203,-0.10152 -0.01271,-0.11272 0.08382,-0.12376 0.103249,-0.0118 0.106218,-0.0182 0.109057,-0.23483 0.0016,-0.12248 0.0212,-0.26635 0.04355,-0.31971 0.03434,-0.082 0.06395,-0.097 0.19132,-0.097 0.161946,0 0.290142,-0.0723 0.231723,-0.13076 -0.02153,-0.0216 -0.06255,-0.0198 -0.108043,0.005 -0.0837,0.0448 -0.120214,0.022 -0.120214,-0.075 0,-0.0409 0.03647,-0.0765 0.09279,-0.0906 0.07616,-0.0191 0.09279,-0.0459 0.09279,-0.14917 0,-0.13507 0.06899,-0.17251 0.09992,-0.0543 0.02367,0.0905 0.100167,0.0632 0.154069,-0.0552 0.02274,-0.0499 0.06735,-0.0907 0.09912,-0.0907 0.03178,0 0.0974,-0.026 0.145825,-0.0577 0.131014,-0.0859 0.143999,-0.009 0.0185,0.10942 -0.124605,0.11761 -0.156479,0.30867 -0.04421,0.26498 0.125222,-0.0487 0.139165,-0.0371 0.136421,0.11348 -0.0031,0.17381 -0.193267,0.44858 -0.323721,0.46791 -0.04179,0.006 -0.08332,0.0335 -0.09229,0.0607 -0.01252,0.038 0.01008,0.0358 0.09732,-0.009 0.141325,-0.0731 0.15443,-0.073 0.15443,4.2e-4 0,0.0325 -0.03359,0.0679 -0.07464,0.0787 -0.07202,0.0188 -0.142385,0.17716 -0.09832,0.22122 0.02941,0.0294 -0.07987,0.23483 -0.124923,0.23483 -0.01989,0 -0.03617,0.0342 -0.03617,0.0761 0,0.0419 -0.0277,0.12953 -0.06155,0.19486 -0.03697,0.0714 -0.06536,0.22725 -0.07109,0.39042 l -0.0095,0.27163 -0.186388,0.17871 c -0.148761,0.14263 -0.181911,0.19583 -0.164205,0.26354 0.01784,0.0682 0.0101,0.0802 -0.03946,0.0612 -0.03391,-0.013 -0.06164,-0.0103 -0.06164,0.006 0,0.075 0.05627,0.0697 0.156465,-0.0145 0.05998,-0.0505 0.124467,-0.0917 0.143315,-0.0917 0.05277,0 0.04059,0.0997 -0.01953,0.15984 -0.0668,0.0668 -0.01704,0.14435 0.145896,0.2274 0.106427,0.0542 0.113823,0.0525 0.193527,-0.0448 0.04558,-0.0557 0.08347,-0.1401 0.08421,-0.18765 0.0012,-0.0766 0.01404,-0.0837 0.112701,-0.062 0.09989,0.022 0.133423,0.002 0.325383,-0.19191 0.117709,-0.11901 0.243203,-0.26207 0.278874,-0.31793 0.07232,-0.11324 0.239534,-0.23618 0.274151,-0.20156 0.01233,0.0123 -0.0052,0.0647 -0.03913,0.11637 -0.05005,0.0764 -0.05179,0.094 -0.0093,0.094 0.02874,0 0.08132,-0.0459 0.116846,-0.10207 0.08743,-0.13818 0.206365,-0.23016 0.298895,-0.23116 0.04211,-4.2e-4 0.124574,-0.0509 0.183248,-0.11217 0.05867,-0.0613 0.144356,-0.11135 0.190405,-0.11135 0.114601,0 0.33947,-0.13803 0.367198,-0.2254 0.02488,-0.0784 0.166511,-0.0999 0.16561,-0.0251 -2.94e-4,0.0255 -0.02463,0.1132 -0.05405,0.19486 -0.0535,0.14852 -0.0755,0.38972 -0.03554,0.38972 0.05871,0 0.132941,-0.12272 0.115218,-0.19049 -0.04413,-0.16875 0.08366,-0.25002 0.162248,-0.10318 0.03067,0.0573 0.06425,0.0718 0.128939,0.0556 0.116998,-0.0294 0.152491,0.0395 0.06832,0.13247 -0.05357,0.0592 -0.09685,0.0706 -0.203042,0.0537 -0.133042,-0.0213 -0.135598,-0.0193 -0.180289,0.14034 -0.03967,0.14166 -0.06395,0.16806 -0.194192,0.21104 -0.08187,0.027 -0.17409,0.0876 -0.204927,0.1347 -0.0313,0.0477 -0.0933,0.0856 -0.140349,0.0856 -0.04635,0 -0.132121,0.025 -0.190593,0.0554 -0.05847,0.0305 -0.166097,0.0556 -0.239168,0.0557 -0.11384,2.1e-4 -0.132433,0.0122 -0.129908,0.0837 0.0022,0.0625 -0.0204,0.0862 -0.08984,0.0941 -0.134842,0.0154 -0.408282,0.12024 -0.408282,0.15656 0,0.0171 -0.04895,0.0419 -0.108784,0.055 -0.05983,0.0131 -0.128687,0.0479 -0.153011,0.0772 -0.02432,0.0293 -0.07642,0.0533 -0.115757,0.0533 -0.09179,0 -0.290545,0.10222 -0.290545,0.14942 0,0.0199 -0.04175,0.0362 -0.09279,0.0362 -0.05103,0 -0.09279,-0.0188 -0.09279,-0.0418 0,-0.0634 -0.223968,-0.007 -0.316099,0.0794 -0.08174,0.0768 -0.24065,0.10093 -0.24065,0.0366 0,-0.0204 -0.02784,-0.0371 -0.06186,-0.0371 -0.03403,0 -0.05269,0.009 -0.04147,0.0204 0.01121,0.0112 0.0051,0.0883 -0.01352,0.17129 -0.04473,0.19908 -0.01414,0.28062 0.11597,0.3092 0.140123,0.0308 0.219151,0.11989 0.134969,0.15219 -0.03292,0.0126 -0.08557,0.0131 -0.116996,10e-4 -0.05597,-0.0214 -0.202674,0.0457 -0.202674,0.0928 0,0.0131 0.03758,0.0342 0.08351,0.0468 0.06967,0.0191 0.07428,0.0289 0.02784,0.0594 -0.03062,0.0201 -0.101606,0.0368 -0.157745,0.0371 -0.07714,4.2e-4 -0.102071,0.0187 -0.102071,0.0748 0,0.0828 0.04382,0.0931 0.151457,0.0355 0.110617,-0.0592 0.147832,0.0714 0.04063,0.14263 -0.08307,0.0552 -0.108115,0.17172 -0.04524,0.21057 0.03712,0.0229 0.01,0.13484 -0.04118,0.16967 -0.04275,0.0291 0.03781,0.29448 0.09094,0.29957 0.02456,0.002 0.0724,0.002 0.106317,-0.002 0.113099,-0.0111 0.111499,0.0714 -0.0033,0.16792 -0.08939,0.0752 -0.105949,0.10947 -0.07809,0.16153 0.02465,0.046 0.01929,0.0873 -0.01769,0.13616 -0.07122,0.0941 -0.06885,0.20054 0.0056,0.25503 0.0558,0.0408 0.05368,0.0547 -0.02439,0.16028 -0.06808,0.0921 -0.07646,0.12649 -0.04117,0.16902 0.02437,0.0294 0.0771,0.0448 0.117182,0.0343 0.08797,-0.023 0.09675,0.0572 0.02243,0.20487 -0.06801,0.13515 -0.101687,0.37196 -0.05684,0.39968 0.01997,0.0123 0.07646,-0.004 0.125528,-0.036 0.09097,-0.0596 0.145107,-0.0316 0.112164,0.058 -0.01006,0.0274 -0.0052,0.0702 0.01078,0.0952 0.04043,0.0632 0.209174,0.0778 0.210414,0.0181 0.0015,-0.0714 0.09643,-0.11804 0.242251,-0.11901 0.113866,-5.7e-4 0.151805,-0.0284 0.307244,-0.22327 0.171454,-0.21502 0.323737,-0.29344 0.323737,-0.16672 0,0.0835 0.09696,0.067 0.173609,-0.0296 0.09981,-0.1258 0.148876,-0.14529 0.233163,-0.0927 0.06212,0.0388 0.09076,0.0378 0.159255,-0.005 0.04593,-0.0289 0.172075,-0.0554 0.280318,-0.0588 0.133118,-0.004 0.229206,-0.0307 0.296932,-0.0818 0.09928,-0.075 0.09958,-0.0766 0.03517,-0.18783 -0.0843,-0.14559 -0.082,-0.19351 0.0093,-0.19351 0.04124,0 0.07423,0.0248 0.07423,0.0557 0,0.0306 0.02505,0.0557 0.05567,0.0557 0.03062,0 0.09009,0.0344 0.132157,0.0765 0.04836,0.0484 0.113181,0.0722 0.176303,0.065 0.08804,-0.0102 0.09982,-0.0276 0.09982,-0.1472 0,-0.0746 0.0092,-0.14506 0.02043,-0.15652 0.03486,-0.0356 0.239925,0.0384 0.230112,0.083 -0.01456,0.0662 0.03121,0.0496 0.108238,-0.0391 0.0388,-0.0447 0.06319,-0.10054 0.05418,-0.124 -0.009,-0.0234 -0.0035,-0.0635 0.01228,-0.089 0.02217,-0.0359 0.06125,-0.0306 0.172869,0.0235 0.181305,0.0878 0.38548,0.0442 0.38548,-0.0825 0,-0.043 0.04684,-0.12305 0.104101,-0.17791 0.120112,-0.11507 0.214886,-0.13401 0.174032,-0.0348 -0.06525,0.1585 -0.06428,0.19486 0.0052,0.19406 0.04824,-5.3e-4 0.100171,-0.0682 0.17099,-0.2227 0.102317,-0.22323 0.176667,-0.28538 0.176667,-0.14767 0,0.0467 0.02474,0.0742 0.06681,0.0742 0.102253,0 0.155833,-0.0756 0.156436,-0.22085 6.85e-4,-0.16246 0.07283,-0.31259 0.158131,-0.32902 0.08211,-0.0158 0.08371,0.0795 0.0027,0.1605 -0.05704,0.057 -0.05379,0.0605 0.0464,0.0491 0.205211,-0.0234 0.142361,-0.32277 -0.06857,-0.3266 -0.08062,-0.002 -0.08716,-0.11254 -0.0066,-0.11254 0.03859,0 0.05509,-0.0283 0.04875,-0.0835 -0.0052,-0.0459 0.0034,-0.12229 0.01924,-0.16968 0.02043,-0.0611 0.0097,-0.10729 -0.03674,-0.15862 -0.04762,-0.0527 -0.05441,-0.0836 -0.0248,-0.11322 0.02242,-0.0224 0.03198,-0.0636 0.02125,-0.0916 -0.01073,-0.0279 0.0086,-0.0616 0.04286,-0.0748 0.03431,-0.0132 0.07738,-0.0634 0.09572,-0.11167 0.02229,-0.0586 0.06294,-0.0877 0.12252,-0.0877 0.04904,0 0.109487,-0.0245 0.134324,-0.0544 0.02544,-0.0306 0.104418,-0.0534 0.180848,-0.0521 0.294927,0.005 0.326886,0.0621 0.173775,0.31068 -0.05029,0.0817 -0.09197,0.17085 -0.0926,0.1982 -6.28e-4,0.0273 -0.03874,0.0813 -0.08467,0.11987 -0.0705,0.0592 -0.075,0.0757 -0.02891,0.106 0.0651,0.0427 0.04158,0.0735 -0.07316,0.0956 -0.150462,0.029 -0.134361,0.0667 0.01855,0.0435 0.08166,-0.0124 0.171054,-0.008 0.198662,0.009 0.0786,0.0488 0.260982,-0.063 0.316992,-0.19442 0.06021,-0.14127 0.226264,-0.30198 0.312681,-0.30263 0.03436,-2.1e-4 0.07895,-0.038 0.0991,-0.084 0.03837,-0.0875 0.10984,-0.10967 0.149005,-0.0463 0.01516,0.0245 0.0462,0.0248 0.09108,5.7e-4 0.107586,-0.0576 0.168562,0.0412 0.116896,0.18947 -0.02256,0.0647 -0.04102,0.19087 -0.04102,0.28034 0,0.0895 -0.0216,0.21643 -0.04801,0.28211 -0.06425,0.15985 -0.05724,0.2332 0.021,0.21989 0.0734,-0.0125 0.08183,0.0384 0.0242,0.14606 -0.03624,0.0677 -0.03283,0.0708 0.03697,0.0334 0.0423,-0.0226 0.114544,-0.11909 0.160554,-0.21436 0.106866,-0.22126 0.176446,-0.2476 0.176446,-0.0668 v 0.13488 l 0.120629,-0.0896 c 0.06635,-0.0493 0.173921,-0.10735 0.239056,-0.1291 0.152508,-0.0509 0.173237,0.0152 0.08086,0.25819 -0.05732,0.15075 -0.05887,0.17902 -0.01195,0.21796 0.07141,0.0593 0.06873,0.1705 -0.0048,0.19871 -0.179084,0.0687 -0.254883,-1e-4 -0.250295,-0.2273 0.0014,-0.0667 -0.0021,-0.12133 -0.0076,-0.12133 -0.0055,0 -0.04465,0.0586 -0.08691,0.13021 -0.09958,0.16878 -0.233288,0.23311 -0.352215,0.16947 -0.07454,-0.0399 -0.12151,-0.0328 -0.327365,0.0496 -0.135336,0.0541 -0.314102,0.0961 -0.409182,0.0961 -0.104805,0 -0.186372,0.0211 -0.215053,0.0557 -0.02782,0.0335 -0.109034,0.0557 -0.204141,0.0557 -0.102076,0 -0.175951,0.0218 -0.208875,0.0617 -0.02802,0.0339 -0.121925,0.0932 -0.208685,0.13164 -0.08676,0.0385 -0.157746,0.0848 -0.157746,0.10299 0,0.0182 -0.112741,0.088 -0.250536,0.15523 -0.137795,0.0672 -0.272608,0.1434 -0.299584,0.16935 -0.06226,0.0599 -0.0843,0.0592 -0.176678,-0.006 -0.07992,-0.056 -0.113994,-0.0387 -0.374225,0.18957 -0.05092,0.0447 -0.141738,0.092 -0.201832,0.1052 -0.07761,0.0171 -0.130379,0.0654 -0.182153,0.16688 -0.08259,0.16189 -0.201791,0.25914 -0.317649,0.25914 -0.04333,0 -0.10901,0.0334 -0.145959,0.0742 -0.08264,0.0913 -0.162374,0.0948 -0.224535,0.01 -0.04463,-0.061 -0.05089,-0.0611 -0.117877,-4.2e-4 -0.03891,0.0352 -0.128104,0.075 -0.198214,0.0885 -0.07011,0.0135 -0.171807,0.0555 -0.225993,0.0932 -0.05418,0.0378 -0.149797,0.0687 -0.212467,0.0687 -0.09066,0 -0.126504,0.0243 -0.175386,0.11881 -0.118396,0.22896 -0.260171,0.31395 -0.381698,0.22882 -0.07598,-0.0532 -0.09052,-0.0499 -0.213087,0.0482 -0.275459,0.22045 -0.301118,0.22828 -0.394475,0.12045 -0.07354,-0.085 -0.105062,-0.0943 -0.27006,-0.0805 -0.182358,0.0154 -0.395084,0.12677 -0.342453,0.1794 0.01451,0.0145 0.05225,0.005 0.08385,-0.0213 0.03161,-0.0262 0.06581,-0.0394 0.076,-0.0292 0.0396,0.0396 -0.0334,0.14253 -0.15392,0.21702 -0.140188,0.0866 -0.151695,0.11596 -0.0716,0.18244 0.04393,0.0365 0.07932,0.0301 0.180684,-0.0326 0.157917,-0.0976 0.184249,-0.0977 0.153401,-5.3e-4 -0.02173,0.0684 -0.01585,0.0727 0.05073,0.0371 0.109189,-0.0584 0.121294,-0.0516 0.109427,0.0618 -0.0086,0.0819 0.006,0.10444 0.07385,0.11406 0.04649,0.007 0.128266,0.0525 0.181723,0.10207 l 0.09719,0.0901 h -0.133137 c -0.130531,0 -0.197686,0.044 -0.160048,0.10493 0.01043,0.0169 0.107457,0.0192 0.215611,0.005 0.223424,-0.0292 0.30722,0.0262 0.158019,0.10439 -0.05021,0.0263 -0.09128,0.0807 -0.09128,0.12087 0,0.0402 0,0.0856 0,0.10089 0,0.0256 0.02089,0.0274 0.158887,0.0139 0.02615,-0.002 0.06645,-0.0548 0.08957,-0.11599 0.03948,-0.10459 0.159828,-0.15849 0.159828,-0.0716 0,0.0219 0.04562,0.0344 0.101382,0.0278 0.07734,-0.009 0.1046,0.006 0.114952,0.0623 0.02146,0.11737 0.07016,0.14565 0.136538,0.0793 0.07539,-0.0754 0.107742,-0.0762 0.167662,-0.004 0.03903,0.047 0.03296,0.0718 -0.03536,0.14455 -0.04709,0.0501 -0.06679,0.0975 -0.04591,0.11038 0.06506,0.0402 0.15465,-0.0204 0.178604,-0.12093 0.02957,-0.12406 0.08177,-0.19077 0.149254,-0.19077 0.04067,0 0.04697,0.0312 0.0274,0.1355 l -0.02542,0.13548 0.157392,-0.0211 c 0.150759,-0.0202 0.156669,-0.0173 0.140233,0.0686 -0.0296,0.15487 0.165681,0.10614 0.253247,-0.0632 0.05358,-0.10363 0.13998,-0.13976 0.179864,-0.0752 0.01075,0.0174 -0.01332,0.0961 -0.05348,0.17487 -0.06723,0.13187 -0.09354,0.2389 -0.05873,0.2389 0.03492,0 0.236177,-0.0993 0.330189,-0.16291 0.05677,-0.0384 0.110662,-0.0624 0.119748,-0.0533 0.0091,0.009 -0.01649,0.1034 -0.05683,0.20957 -0.04035,0.10618 -0.07335,0.21793 -0.07335,0.24833 0,0.0804 0.181934,0.0695 0.315491,-0.0189 0.166738,-0.11043 0.211877,-0.0976 0.183739,0.0524 -0.03041,0.16213 0.0076,0.2816 0.08971,0.2816 0.09339,0 0.153388,-0.0745 0.153388,-0.19035 0,-0.10195 0.083,-0.21793 0.155973,-0.21793 0.02417,0 0.03124,0.0498 0.01835,0.12923 -0.0229,0.14111 0.03656,0.2167 0.09222,0.11724 0.06576,-0.1175 0.141735,-0.0705 0.141735,0.0876 0,0.15854 0.04653,0.18577 0.188022,0.11004 0.09387,-0.0503 0.0913,-0.15511 -0.006,-0.24313 -0.06852,-0.062 -0.07623,-0.10392 -0.06494,-0.35268 0.0082,-0.1799 0.03301,-0.30663 0.06848,-0.34935 0.08343,-0.10049 0.113895,-0.62471 0.04057,-0.69803 -0.02232,-0.0223 -0.04059,-0.15416 -0.04059,-0.29298 0,-0.20291 0.01456,-0.26695 0.07423,-0.32662 0.04083,-0.0409 0.09929,-0.0742 0.129909,-0.0742 0.07676,0 0.07427,-0.25198 -0.0033,-0.33773 -0.0413,-0.0456 -0.0486,-0.0838 -0.02433,-0.12719 0.04445,-0.0794 0.724761,-0.44295 0.934782,-0.49951 0.168873,-0.0455 0.201505,-0.0321 0.241036,0.099 0.02088,0.0692 -1.47e-4,0.0919 -0.144294,0.15566 -0.205552,0.0909 -0.234737,0.20236 -0.04811,0.18368 0.17542,-0.0176 0.156189,0.0782 -0.03712,0.18484 -0.171114,0.0944 -0.202776,0.15569 -0.08042,0.15569 0.105724,0 0.07245,0.0799 -0.06183,0.14847 -0.07857,0.0401 -0.105721,0.0781 -0.0972,0.13604 0.0078,0.0528 -0.0112,0.0863 -0.05531,0.0978 -0.05524,0.0143 -0.05633,0.0181 -0.0061,0.0217 0.132383,0.009 0.1005,0.11339 -0.08143,0.2657 -0.18888,0.15814 -0.225345,0.22112 -0.128023,0.22112 0.08168,0 0.06784,0.10816 -0.02327,0.18194 -0.09745,0.0789 -0.06745,0.24997 0.03591,0.20478 0.03388,-0.0148 0.152848,-0.0592 0.264373,-0.0986 0.111524,-0.0394 0.240171,-0.11202 0.285881,-0.16133 0.101116,-0.10911 0.136591,-0.11432 0.105211,-0.0155 -0.02894,0.0912 0.04166,0.0985 0.158765,0.0165 0.08866,-0.0621 0.107292,-0.16239 0.04225,-0.22743 -0.02891,-0.0289 -0.01614,-0.0571 0.04538,-0.10021 0.04709,-0.033 0.10601,-0.06 0.130931,-0.06 0.02492,0 0.06823,-0.0327 0.09624,-0.0727 0.04485,-0.064 0.109453,-0.0751 0.541565,-0.0925 0.422298,-0.017 0.493733,-0.0118 0.512853,0.0381 0.03148,0.082 -0.04454,0.14381 -0.183818,0.14936 -0.06562,0.003 -0.181947,0.007 -0.2585,0.01 -0.175609,0.006 -0.201919,0.11641 -0.02784,0.11641 0.153291,0 0.142257,0.0853 -0.01855,0.14341 -0.07145,0.0258 -0.131553,0.0668 -0.133565,0.091 -0.002,0.0242 -0.0062,0.0857 -0.0093,0.13678 -0.0051,0.0843 -0.02079,0.0928 -0.171691,0.0928 -0.161808,0 -0.168252,0.005 -0.251034,0.17812 l -0.08496,0.17811 -0.174535,-0.0111 c -0.166642,-0.0106 -0.177448,-0.005 -0.238977,0.11882 -0.08036,0.162 -0.08193,0.18559 -0.01233,0.18559 0.03062,0 0.05568,0.025 0.05568,0.0557 0,0.0306 0.02366,0.0557 0.05258,0.0557 0.02892,0 0.05889,0.0189 0.0666,0.042 0.008,0.0241 0.04611,0.0318 0.08939,0.0181 0.05916,-0.0188 0.07188,-0.0478 0.0591,-0.13483 -0.01504,-0.10244 -0.0076,-0.11091 0.09687,-0.11091 0.06223,0 0.155398,-0.0161 0.20704,-0.0357 0.06011,-0.0229 0.101831,-0.0229 0.115957,0 0.042,0.068 0.154411,0.0353 0.19651,-0.0571 0.04924,-0.10807 0.171888,-0.1228 0.271543,-0.0326 0.08384,0.0759 0.171179,0.0445 0.187009,-0.0672 0.01131,-0.0798 0.02682,-0.0849 0.22163,-0.0737 0.122655,0.007 0.219709,-0.005 0.234169,-0.0278 0.01358,-0.022 0.05085,-0.04 0.08282,-0.04 0.04571,0 0.053,0.0256 0.03414,0.11988 -0.01948,0.0974 -0.0082,0.13214 0.06032,0.18531 0.07086,0.055 0.07559,0.0711 0.02969,0.1008 -0.03003,0.0195 -0.04418,0.0458 -0.03145,0.0585 0.01273,0.0127 0.05818,10e-4 0.100996,-0.0254 0.09073,-0.0566 0.102144,-0.18708 0.02217,-0.25346 -0.06661,-0.0553 -0.07119,-0.1181 -0.01287,-0.17642 0.05431,-0.0543 0.179897,0.006 0.179897,0.0871 0,0.0311 0.0167,0.0463 0.03712,0.0336 0.02042,-0.0126 0.03737,-0.0679 0.03768,-0.12282 3.16e-4,-0.0549 0.01702,-0.12494 0.03712,-0.15556 0.06619,-0.10083 0.102401,0.0274 0.06533,0.23145 -0.02906,0.1599 -0.025,0.19455 0.02614,0.22317 0.08213,0.046 0.0063,0.13859 -0.09238,0.11279 -0.0489,-0.0128 -0.102132,0.0172 -0.166663,0.0939 -0.131148,0.15586 -0.292391,0.18631 -0.43363,0.0819 -0.105255,-0.0778 -0.114931,-0.0787 -0.238014,-0.0203 -0.07056,0.0335 -0.157096,0.0519 -0.192293,0.0408 -0.03924,-0.0123 -0.127032,0.0299 -0.226963,0.10916 -0.08963,0.0711 -0.177321,0.12926 -0.194862,0.12926 -0.01754,0 -0.03189,0.0214 -0.03189,0.0475 0,0.0261 -0.05011,0.0665 -0.111349,0.0896 -0.06834,0.0258 -0.11135,0.0685 -0.11135,0.11056 0,0.0377 -0.0334,0.0894 -0.07423,0.11488 -0.07908,0.0494 -0.0999,0.11997 -0.03539,0.11997 0.02136,0 0.0673,-0.05 0.102071,-0.11111 0.0636,-0.11178 0.167309,-0.14629 0.213753,-0.0711 0.01533,0.0248 0.07551,0.031 0.155632,0.016 0.109197,-0.0205 0.12696,-0.0149 0.108263,0.0338 -0.03263,0.085 0.02826,0.0714 0.154116,-0.0345 0.06065,-0.051 0.126956,-0.0928 0.147343,-0.0928 0.04368,0 0.08213,0.0883 0.08213,0.18862 0,0.0913 0.0816,0.0914 0.164231,3e-5 0.05185,-0.0573 0.05618,-0.0865 0.02225,-0.14986 -0.06776,-0.12662 -0.01441,-0.21905 0.140377,-0.24321 0.0754,-0.0118 0.183434,-0.0288 0.240072,-0.0376 0.09175,-0.0145 0.09883,-0.009 0.06495,0.0548 -0.0693,0.1295 -0.04311,0.15719 0.08261,0.0873 0.06635,-0.0369 0.126197,-0.0796 0.133001,-0.0949 0.0068,-0.0153 0.04438,-0.0278 0.08351,-0.0278 0.05656,0 0.07114,0.0266 0.07114,0.12991 0,0.14896 0.05071,0.16495 0.169434,0.0534 l 0.08143,-0.0765 -0.0086,0.2196 c -0.0047,0.12079 -0.01915,0.23672 -0.03207,0.25762 -0.01292,0.0209 -0.110612,0.0665 -0.217087,0.10134 -0.176336,0.0577 -0.197428,0.0581 -0.236634,0.005 -0.06198,-0.0848 -0.101915,-0.0745 -0.276116,0.071 -0.139982,0.11695 -0.177838,0.12991 -0.379575,0.12991 -0.159396,0 -0.258802,-0.0215 -0.344344,-0.0743 -0.111612,-0.069 -0.129856,-0.0703 -0.253725,-0.0185 -0.07341,0.0307 -0.200814,0.0558 -0.283125,0.0558 -0.08231,0 -0.149659,0.0167 -0.149659,0.0371 0,0.0678 -0.173899,0.0385 -0.347644,-0.0587 -0.125184,-0.07 -0.200565,-0.0894 -0.279515,-0.0721 -0.06211,0.0136 -0.118436,0.007 -0.132386,-0.0156 -0.03195,-0.0517 -0.211064,-0.0501 -0.342255,0.003 l -0.104486,0.0423 0.0926,0.0242 c 0.142172,0.0372 0.132338,0.12724 -0.02194,0.20081 l -0.136046,0.0649 0.08764,0.10035 c 0.0482,0.0552 0.132745,0.15047 0.187873,0.21171 0.120803,0.1342 0.177008,0.31549 0.09781,0.31549 -0.02899,0 -0.08976,-0.0501 -0.135042,-0.11135 -0.08806,-0.11911 -0.191452,-0.14827 -0.191452,-0.054 0,0.0315 0.04175,0.0991 0.09279,0.15015 0.05103,0.0511 0.09279,0.10503 0.09279,0.11997 0,0.0149 0.02923,0.0554 0.06495,0.0898 0.12508,0.12061 0.194861,0.20157 0.194861,0.22608 0,0.0469 -0.151324,0.0246 -0.243721,-0.036 -0.110391,-0.0723 -0.162142,-0.0407 -0.08384,0.0512 0.03054,0.0358 0.077,0.11946 0.103253,0.18581 0.02625,0.0663 0.06241,0.12063 0.08035,0.12063 0.01794,0 0.03262,0.0302 0.03262,0.0671 0,0.0369 0.02452,0.0996 0.05449,0.13918 0.07393,0.0977 0.0728,0.23908 -0.0019,0.23908 -0.03233,0 -0.05174,0.0209 -0.04316,0.0464 0.0089,0.0266 0.0594,0.0411 0.118238,0.0339 0.1,-0.0121 0.102005,-0.009 0.07833,0.13137 -0.01337,0.0791 -0.0088,0.21265 0.01007,0.29679 l 0.03437,0.15298 -0.1345,-0.0474 c -0.07397,-0.0261 -0.186657,-0.0397 -0.250404,-0.0303 -0.08779,0.0129 -0.135612,-0.004 -0.197135,-0.07 -0.136292,-0.14602 -0.225152,-0.39377 -0.225152,-0.62774 0,-0.11869 -0.0167,-0.22612 -0.03712,-0.23873 -0.02041,-0.0126 -0.03712,-0.0641 -0.03712,-0.11446 0,-0.0636 -0.02847,-0.10235 -0.09346,-0.12705 -0.0514,-0.0196 -0.109924,-0.0789 -0.130052,-0.13179 -0.02013,-0.0529 -0.06158,-0.12124 -0.09213,-0.15178 -0.03054,-0.0305 -0.05631,-0.0752 -0.05725,-0.0993 -0.01168,-0.29682 -0.004,-0.65396 0.01469,-0.68423 0.013,-0.0211 -0.01947,-0.0491 -0.07216,-0.0623 -0.09373,-0.0235 -0.09445,-0.0261 -0.03327,-0.11948 0.04673,-0.0713 0.05636,-0.1366 0.03811,-0.25829 -0.0222,-0.14806 -0.03392,-0.16285 -0.128953,-0.16285 -0.05749,0 -0.126517,-0.0265 -0.153391,-0.0589 -0.03554,-0.0428 -0.07978,-0.0517 -0.16229,-0.0326 -0.06239,0.0144 -0.170455,0.0284 -0.240154,0.031 -0.122861,0.005 -0.217204,0.0976 -0.09907,0.0976 0.03232,0 0.05877,0.0229 0.05877,0.0509 0,0.0302 0.05701,0.06 0.140154,0.0733 0.264765,0.0423 0.361982,0.20978 0.1218,0.20978 -0.130529,0 -0.191537,0.14471 -0.07397,0.17545 0.144734,0.0379 0.05884,0.15859 -0.112816,0.15859 -0.09238,0 -0.126227,0.10866 -0.0575,0.1846 0.03111,0.0344 0.05657,0.0817 0.05657,0.10528 0,0.0618 -0.187331,0.1014 -0.221142,0.0467 -0.01813,-0.0293 -0.04327,-0.007 -0.07329,0.0657 -0.07305,0.17635 -0.299433,0.17609 -0.299433,-3.2e-4 0,-0.0642 -0.0092,-0.0693 -0.05567,-0.0307 -0.03062,0.0254 -0.05567,0.0674 -0.05567,0.0932 0,0.0258 -0.0315,0.0859 -0.07001,0.13348 -0.05678,0.0701 -0.109499,0.0877 -0.279011,0.0929 -0.222718,0.007 -0.319078,0.0565 -0.319078,0.16444 0,0.12252 -0.04515,0.18644 -0.167948,0.23774 -0.06701,0.028 -0.132646,0.085 -0.145864,0.12663 -0.02626,0.0827 -0.03847,0.0876 -0.391402,0.15519 -0.247471,0.0474 -0.378364,0.10991 -0.230122,0.10991 0.09155,0 0.100343,0.0467 0.04091,0.21716 -0.03215,0.0922 -0.06192,0.11689 -0.141042,0.11689 -0.05517,0 -0.122426,-0.0209 -0.149475,-0.0464 -0.03949,-0.0373 -0.053,-0.0358 -0.06858,0.007 -0.03741,0.10328 -0.191543,0.22481 -0.285122,0.22481 -0.05197,0 -0.09448,-0.0167 -0.09448,-0.0371 0,-0.0462 -0.22233,-0.048 -0.294403,-0.002 -0.04496,0.0285 -0.0458,0.0584 -0.0054,0.1943 0.02623,0.0884 0.06498,0.18185 0.0861,0.20776 0.02735,0.0335 0.0209,0.0664 -0.02239,0.11427 -0.03344,0.037 -0.0608,0.0867 -0.0608,0.11065 0,0.0538 0.165259,0.057 0.262256,0.005 0.05886,-0.0315 0.07179,-0.0261 0.07179,0.0297 0,0.10848 -0.07707,0.1572 -0.248681,0.1572 -0.117124,0 -0.159601,0.0148 -0.159601,0.0557 0,0.0677 0.07394,0.0711 0.208726,0.01 0.08075,-0.0368 0.103993,-0.0366 0.116535,10e-4 0.01074,0.0322 0.05547,0.0395 0.142134,0.0233 0.153028,-0.0287 0.174633,0.0423 0.02964,0.0974 -0.08062,0.0306 -0.08912,0.0461 -0.05075,0.0923 0.03502,0.0422 0.05825,0.0454 0.09683,0.0134 0.02791,-0.0231 0.05075,-0.0633 0.05075,-0.0893 0,-0.088 0.09628,-0.0846 0.183862,0.006 0.06082,0.0632 0.09898,0.0788 0.126119,0.0517 0.0746,-0.0746 0.138642,-0.0429 0.127543,0.0632 -0.01139,0.10875 0.009,0.11451 0.241697,0.0682 0.06354,-0.0127 0.09514,-0.006 0.08132,0.0159 -0.01243,0.0201 -0.0049,0.0366 0.01671,0.0366 0.02162,0 0.03931,0.0501 0.03931,0.11135 0,0.13566 0.05757,0.14255 0.155097,0.0185 0.04015,-0.0511 0.09659,-0.0928 0.125429,-0.0928 0.04257,0 0.03897,0.0342 -0.01911,0.18154 -0.100122,0.25401 -0.02672,0.30555 0.183378,0.12877 0.147675,-0.12426 0.233333,-0.0723 0.133068,0.0807 -0.03529,0.0538 -0.05663,0.10545 -0.04743,0.11465 0.03989,0.0399 0.199914,-0.0741 0.244085,-0.17393 0.06003,-0.13562 0.127738,-0.13923 0.186643,-0.01 0.04043,0.0887 0.03522,0.10832 -0.04972,0.18709 -0.06105,0.0566 -0.09487,0.12759 -0.09487,0.19912 0,0.10356 0.0057,0.10815 0.08351,0.0672 0.105246,-0.0555 0.129954,-0.0923 0.177744,-0.26485 0.0427,-0.15421 0.161229,-0.20134 0.140041,-0.0557 -0.0067,0.0459 0.0099,0.10077 0.03692,0.12187 0.03988,0.0312 0.03579,0.0555 -0.0218,0.12991 -0.100011,0.12921 -0.134619,0.32933 -0.06179,0.35727 0.06435,0.0247 0.202113,-0.0849 0.202113,-0.16071 0,-0.12806 0.09633,-0.34339 0.161206,-0.36036 0.06315,-0.0165 0.06789,-0.003 0.04698,0.13705 l -0.02326,0.15541 0.0727,-0.0928 c 0.07194,-0.0918 0.07329,-0.092 0.129053,-0.0185 0.07226,0.0952 0.07191,0.10278 -0.0096,0.20841 -0.08658,0.11222 -0.159341,0.32235 -0.120034,0.34664 0.05172,0.032 0.148028,-0.10732 0.179747,-0.25998 0.01857,-0.0894 0.05155,-0.14672 0.08447,-0.14689 0.03243,-2.1e-4 0.05448,-0.0373 0.05519,-0.0928 0.0015,-0.11806 0.0505,-0.25953 0.08989,-0.25953 0.04928,0 0.302151,-0.27107 0.338356,-0.36269 0.01979,-0.0501 0.07595,-0.0928 0.13837,-0.10533 0.07199,-0.0144 0.117895,-0.055 0.145854,-0.12911 0.04462,-0.1182 0.13711,-0.14339 0.17396,-0.0473 0.02157,0.0562 0.02828,0.0562 0.09041,0 0.07498,-0.0679 0.191165,-0.0814 0.191165,-0.0223 0,0.0211 -0.02689,0.0795 -0.05977,0.12963 -0.05858,0.0894 -0.04745,0.27734 0.01643,0.27734 0.01622,0 0.06696,-0.12968 0.11276,-0.28819 0.06917,-0.23939 0.10228,-0.2991 0.195513,-0.35261 0.127569,-0.0732 0.217573,-0.0833 0.217573,-0.0244 0,0.0586 0.231293,0.003 0.287792,-0.0694 0.03114,-0.0398 0.03421,-0.0718 0.0093,-0.0967 -0.05797,-0.058 -0.04388,-0.17066 0.02464,-0.19696 0.04308,-0.0165 0.0982,0.0195 0.181353,0.11854 l 0.119458,0.14229 0.102025,-0.0803 c 0.05611,-0.0442 0.116476,-0.0803 0.134137,-0.0803 0.06094,0 0.0319,0.13214 -0.04315,0.19641 -0.05993,0.0513 -0.06732,0.0793 -0.03627,0.1373 0.02145,0.0401 0.07144,0.0902 0.111102,0.11146 0.06064,0.0325 0.08086,0.0217 0.12716,-0.0679 0.03028,-0.0586 0.09766,-0.13438 0.149742,-0.1685 0.09205,-0.0603 0.09469,-0.0597 0.09469,0.0233 0,0.0469 -0.02427,0.12003 -0.05392,0.16237 -0.08249,0.11776 -0.05511,0.35799 0.04592,0.40302 0.08534,0.038 0.103695,0.0756 0.05239,0.10732 -0.0532,0.0329 -0.35859,-0.0524 -0.404501,-0.11298 -0.02539,-0.0335 -0.07038,-0.0489 -0.104422,-0.0359 -0.07619,0.0293 -0.03606,0.0977 0.05727,0.0977 0.135075,0 0.03384,0.10361 -0.124223,0.12714 -0.08535,0.0127 -0.221985,0.0331 -0.303642,0.0454 -0.08166,0.0123 -0.181412,0.0453 -0.221679,0.0734 -0.110188,0.0768 -0.223691,0.0619 -0.352347,-0.0464 -0.06367,-0.0536 -0.119235,-0.0911 -0.123476,-0.0835 -0.0042,0.008 -0.02873,0.0514 -0.05442,0.0974 -0.03934,0.0703 -0.03788,0.0835 0.0093,0.0835 0.06801,0 0.07273,0.0763 0.0096,0.15495 -0.05547,0.0691 -0.469463,0.15996 -0.575467,0.12632 -0.116361,-0.037 -0.268934,0.0497 -0.268934,0.15269 0,0.13341 0.09884,0.14439 0.320615,0.0356 0.254419,-0.12478 0.339142,-0.12601 0.369421,-0.005 0.01837,0.0732 -0.0052,0.1247 -0.110642,0.24137 -0.13938,0.15427 -0.172154,0.25945 -0.08085,0.25945 0.04898,0 0.206669,-0.1834 0.206669,-0.24036 0,-0.0594 0.209179,-0.20503 0.294492,-0.20503 0.02176,0 0.03956,0.0334 0.03956,0.0742 0,0.0408 -0.02327,0.0742 -0.0517,0.0742 -0.07759,0 -0.10722,0.1168 -0.04533,0.17869 0.07032,0.0703 0.171267,0.0306 0.171267,-0.0673 0,-0.0421 0.02923,-0.0869 0.06495,-0.0995 0.03572,-0.0126 0.102755,-0.057 0.148957,-0.0985 0.05967,-0.0537 0.09551,-0.0641 0.123722,-0.0359 0.02821,0.0282 0.09512,0.0195 0.230963,-0.0302 0.231683,-0.0847 0.21085,-0.0851 0.21085,0.005 0,0.0408 -0.01494,0.0742 -0.03321,0.0742 -0.06108,0 0.02786,0.27702 0.110411,0.34389 0.06184,0.0501 0.09283,0.0556 0.13174,0.0233 0.06557,-0.0544 0.06429,-0.0993 -0.0048,-0.16834 -0.08219,-0.0822 -0.06846,-0.16178 0.02784,-0.16139 0.04943,2.1e-4 0.124008,-0.0489 0.182727,-0.12039 0.128156,-0.15594 0.173656,-0.10762 0.09599,0.10194 -0.07063,0.19058 -0.02255,0.2609 0.06399,0.0936 0.03202,-0.0619 0.0834,-0.11257 0.114183,-0.11257 0.03079,0 0.09046,-0.0585 0.132621,-0.1299 0.04215,-0.0715 0.0917,-0.12991 0.110097,-0.12991 0.04732,0 0.03854,0.14726 -0.01647,0.27619 -0.03811,0.0893 -0.03693,0.13846 0.0065,0.27044 0.0292,0.0887 0.04378,0.17059 0.03239,0.18197 -0.01138,0.0114 -0.105354,0.0245 -0.208822,0.0292 -0.134,0.006 -0.212883,0.0317 -0.274189,0.0893 -0.04975,0.0467 -0.134045,0.0808 -0.199758,0.0808 -0.06253,0 -0.135958,0.0268 -0.163173,0.0596 -0.03994,0.0481 -0.08913,0.0545 -0.255081,0.0333 -0.32875,-0.0421 -0.513113,-0.0325 -0.611502,0.032 -0.06911,0.0453 -0.115056,0.0512 -0.186248,0.0242 -0.05198,-0.0197 -0.0945,-0.0531 -0.0945,-0.074 0,-0.0662 -0.07429,-0.0413 -0.17376,0.0581 -0.07383,0.0738 -0.11868,0.0906 -0.193175,0.0723 -0.05336,-0.0131 -0.185554,-0.0334 -0.293762,-0.0452 -0.180195,-0.0196 -0.198532,-0.0304 -0.218059,-0.12802 -0.02397,-0.11986 -0.05556,-0.13265 -0.123985,-0.0502 -0.05199,0.0626 -0.237385,0.044 -0.399572,-0.0401 -0.05037,-0.0261 -0.114559,-0.0387 -0.14264,-0.0279 -0.07744,0.0297 -0.06105,0.11172 0.02691,0.13473 0.123228,0.0322 0.04389,0.0996 -0.117275,0.0996 -0.08045,0 -0.146275,0.0167 -0.146275,0.0371 0,0.0204 0.06544,0.0371 0.14543,0.0371 0.07999,0 0.17185,0.0102 0.20414,0.0225 0.08711,0.0334 0.0711,0.11901 -0.0248,0.13263 -0.08465,0.012 -0.228676,0.23552 -0.191028,0.29644 0.039,0.0631 0.231782,0.0329 0.254894,-0.0399 0.02908,-0.0916 0.127734,-0.12935 0.154674,-0.0591 0.01148,0.0299 -0.0059,0.13283 -0.03852,0.22869 -0.03267,0.0959 -0.05939,0.17778 -0.05939,0.18204 0,0.004 0.05131,0.0153 0.114018,0.0245 0.07604,0.0112 0.144035,-0.007 0.204141,-0.0541 0.08992,-0.0707 0.09012,-0.0707 0.08791,0.0154 -0.0012,0.0474 -0.0163,0.16972 -0.03353,0.27179 -0.01722,0.10207 -0.01788,0.1998 -0.0015,0.21717 0.05806,0.0614 0.240613,-0.0137 0.304564,-0.12535 0.09947,-0.17365 0.154926,-0.14139 0.129274,0.0752 -0.01209,0.10207 -0.0152,0.18559 -0.0069,0.18559 0.0083,0 0.05768,-0.0194 0.109758,-0.0431 0.148108,-0.0675 0.157041,-0.005 0.01961,0.1365 -0.06896,0.0711 -0.106379,0.12934 -0.08317,0.12934 0.02322,0 0.05253,-0.0167 0.06515,-0.0371 0.0338,-0.0547 0.129908,-0.0452 0.129908,0.0129 0,0.14535 -0.346007,0.36786 -0.546308,0.35132 -0.125749,-0.0104 -0.139687,-0.0217 -0.133994,-0.10903 0.0047,-0.0713 -0.01849,-0.10877 -0.08635,-0.13969 -0.07867,-0.0358 -0.08902,-0.059 -0.06836,-0.15309 0.02205,-0.10039 0.01544,-0.11085 -0.0701,-0.11085 -0.11542,0 -0.356848,-0.20349 -0.356848,-0.30078 0,-0.045 -0.02606,-0.0704 -0.07234,-0.0704 -0.07906,0 -0.246194,-0.19711 -0.267506,-0.31549 -0.0098,-0.0544 -0.048,-0.0775 -0.142819,-0.0865 -0.211849,-0.0201 -0.307517,-0.15986 -0.144824,-0.21149 0.07577,-0.0241 0.07511,-0.0274 -0.02607,-0.13301 -0.09557,-0.0998 -0.10066,-0.11931 -0.06427,-0.24692 0.02174,-0.0762 0.05133,-0.1662 0.06577,-0.19993 0.01897,-0.0443 -0.0056,-0.0802 -0.08875,-0.12926 -0.139984,-0.0827 -0.132234,-0.17327 0.01704,-0.19913 0.153184,-0.0265 0.16647,-0.13188 0.02032,-0.16111 -0.08363,-0.0167 -0.113109,-0.0432 -0.113109,-0.10175 0,-0.0581 -0.01618,-0.0729 -0.0609,-0.0558 -0.0335,0.0128 -0.101385,-0.003 -0.15086,-0.0356 -0.05892,-0.0386 -0.127258,-0.0508 -0.198076,-0.0352 -0.175932,0.0386 -0.258256,-0.007 -0.258265,-0.14204 -6e-6,-0.11754 -8.55e-4,-0.11807 -0.176303,-0.10835 -0.199224,0.0111 -0.358348,0.0139 -0.426833,0.008 -0.02551,-0.002 -0.08286,0.007 -0.127419,0.0207 -0.06947,0.0214 -0.09478,-0.002 -0.177522,-0.1655 -0.07582,-0.14964 -0.120263,-0.19519 -0.207402,-0.21262 -0.130565,-0.0261 -0.174978,-0.0782 -0.09337,-0.10954 0.105276,-0.0404 0.01944,-0.0886 -0.157721,-0.0886 -0.136141,0 -0.184986,-0.0168 -0.222368,-0.0767 -0.06061,-0.0971 -0.128622,-0.0765 -0.13747,0.0416 -0.0038,0.0499 -0.01881,0.11826 -0.0335,0.15188 -0.01823,0.0418 0.0064,0.0918 0.0775,0.15774 0.05731,0.0531 0.08517,0.0966 0.06193,0.0966 -0.02325,0 -0.07805,0.0687 -0.121776,0.15255 -0.07405,0.14207 -0.07519,0.15568 -0.01663,0.1985 0.03458,0.0253 0.0509,0.0653 0.03628,0.089 -0.01463,0.0237 -1.1e-5,0.0696 0.03248,0.10211 0.05402,0.054 0.06574,0.0506 0.13705,-0.0401 0.09777,-0.12429 0.138179,-0.0869 0.166742,0.15427 0.01972,0.16648 0.01277,0.19328 -0.06408,0.2471 -0.07768,0.0544 -0.09473,0.0548 -0.172616,0.004 -0.04753,-0.0311 -0.102655,-0.0466 -0.122493,-0.0343 -0.05582,0.0345 -0.04257,0.15594 0.01961,0.1798 0.03062,0.0118 0.05567,0.064 0.05567,0.11603 0,0.0838 0.01128,0.0918 0.09792,0.0701 0.09611,-0.0241 0.09745,-0.0219 0.07225,0.11992 -0.01412,0.0795 -0.03369,0.17197 -0.0435,0.20554 -0.0098,0.0336 0.0079,0.0868 0.03938,0.11826 0.03583,0.0358 0.04309,0.0659 0.01942,0.0806 -0.02422,0.0149 -0.0181,0.0515 0.01703,0.10164 0.05106,0.0729 0.04668,0.0839 -0.06353,0.15939 -0.106975,0.0733 -0.117264,0.0968 -0.106909,0.24405 0.0063,0.0896 0.03772,0.19224 0.06982,0.22805 0.05137,0.0573 0.0524,0.09 0.0086,0.27272 -0.05759,0.24006 -0.02689,0.32384 0.12528,0.34201 0.14094,0.0168 0.124157,0.11097 -0.0223,0.12509 l -0.120629,0.0116 v 0.21739 c 0,0.11957 0.01781,0.26122 0.03958,0.31478 0.0309,0.0761 0.02498,0.1358 -0.027,0.27259 -0.06011,0.15819 -0.06099,0.18078 -0.0091,0.23269 0.03162,0.0316 0.110577,0.058 0.175464,0.0587 0.11177,10e-4 0.114187,0.004 0.04593,0.0557 -0.08392,0.0635 -0.206326,0.0723 -0.206326,0.0148 0,-0.0218 -0.04851,-0.005 -0.107801,0.0371 -0.161342,0.11488 -0.221268,0.0974 -0.303418,-0.0883 z m 0.225636,-0.3153 c 0,-0.0396 -0.0167,-0.0824 -0.03712,-0.095 -0.02041,-0.0126 -0.03712,-0.0516 -0.03712,-0.0867 0,-0.0351 -0.03433,-0.0932 -0.07629,-0.12911 -0.04818,-0.0412 -0.06829,-0.0905 -0.05457,-0.13376 0.02561,-0.0807 -0.06912,-0.13237 -0.12048,-0.0657 -0.09974,0.12938 -0.05865,0.2948 0.119311,0.48031 0.114288,0.11913 0.206262,0.13253 0.206262,0.0301 z m -0.408282,-0.68769 c 0,-0.0662 -0.01545,-0.0857 -0.05567,-0.0703 -0.03062,0.0118 -0.05567,0.053 -0.05567,0.0916 0,0.0386 0.02505,0.0703 0.05567,0.0703 0.03445,0 0.05567,-0.0349 0.05567,-0.0916 z m 0.241258,-0.31407 c 0,-0.11577 -0.07619,-0.14007 -0.129111,-0.0412 -0.04931,0.0921 -0.0177,0.15865 0.06762,0.14222 0.0369,-0.007 0.06149,-0.0475 0.06149,-0.10103 z m 4.232285,-0.0381 c -0.01206,-0.0195 -0.04646,-0.0261 -0.07642,-0.0146 -0.07672,0.0294 -0.06768,0.0501 0.02194,0.0501 0.04203,0 0.06655,-0.016 0.05449,-0.0355 z m -4.473543,-0.33567 c 0,-0.0204 -0.01769,-0.0371 -0.03931,-0.0371 -0.02162,0 -0.02898,0.0167 -0.01637,0.0371 0.01262,0.0204 0.03031,0.0371 0.03931,0.0371 0.009,0 0.01637,-0.0167 0.01637,-0.0371 z m 4.045701,-0.3289 c 0,-0.13254 -0.0069,-0.142 -0.09202,-0.12573 -0.079,0.0151 -0.08986,0.034 -0.07674,0.13404 0.0084,0.0641 0.01641,0.12063 0.01779,0.12573 0.0014,0.005 0.03591,0.009 0.07674,0.009 0.06142,0 0.07423,-0.0248 0.07423,-0.14332 z m -3.711652,0.0123 c 0,-0.097 -0.09278,-0.16372 -0.147083,-0.10584 -0.04491,0.0479 0.02369,0.19979 0.09021,0.19979 0.03611,0 0.05687,-0.0343 0.05687,-0.094 z m 0.02458,-0.39785 c -0.0103,-0.0255 -0.01872,-0.005 -0.01872,0.0464 0,0.0511 0.0084,0.0719 0.01872,0.0464 0.0103,-0.0255 0.0103,-0.0673 0,-0.0928 z m 3.353022,0.0341 c 0,-0.0727 -0.03242,-0.0933 -0.113498,-0.0721 -0.105615,0.0276 -0.08961,0.12155 0.02071,0.12155 0.05258,0 0.09279,-0.0214 0.09279,-0.0495 z m -3.549763,-0.19177 c 0.01302,-0.0339 7.4e-5,-0.0557 -0.03315,-0.0557 -0.02998,0 -0.05451,0.025 -0.05451,0.0557 0,0.0306 0.01492,0.0557 0.03315,0.0557 0.01823,0 0.04276,-0.025 0.05451,-0.0557 z m 3.245904,-0.19486 c 0.0134,-0.13895 -0.07545,-0.16989 -0.140233,-0.0488 -0.0655,0.12239 -0.04757,0.19448 0.04509,0.18132 0.06401,-0.009 0.08623,-0.04 0.09514,-0.13249 z m -2.888162,-0.12321 c 0,-0.0969 -0.01247,-0.11216 -0.08351,-0.10207 -0.08755,0.0124 -0.112239,0.0909 -0.05341,0.1696 0.06489,0.0869 0.13692,0.0513 0.13692,-0.0675 z m -0.581483,-0.0504 c 0.02608,-0.068 -0.06888,-0.15422 -0.105157,-0.0955 -0.03058,0.0495 0.0031,0.14849 0.05052,0.14849 0.01887,0 0.04345,-0.0238 0.05463,-0.053 z m -4.953328,-0.1662 c 0.04235,-0.0268 0.03914,-0.049 -0.01856,-0.12808 -0.0874,-0.11979 -0.135337,-0.10716 -0.166212,0.0438 -0.02108,0.10307 -0.01421,0.11778 0.05472,0.11729 0.04335,-3.2e-4 0.101875,-0.0152 0.130049,-0.033 z m 8.272165,-0.0314 c 0.0203,-0.0609 -0.096,-0.10446 -0.145881,-0.0546 -0.02135,0.0213 -0.02702,0.0579 -0.0126,0.0812 0.03279,0.053 0.137826,0.0354 0.158485,-0.0266 z m -3.294101,-0.21124 c 0,-0.009 -0.0167,-0.0267 -0.03712,-0.0393 -0.02041,-0.0126 -0.03712,-0.005 -0.03712,0.0164 0,0.0216 0.0167,0.0393 0.03712,0.0393 0.02041,0 0.03712,-0.007 0.03712,-0.0164 z m 3.451836,-0.0185 c 0,-0.0549 -0.07182,-0.0853 -0.139924,-0.0592 -0.05348,0.0205 -0.05452,0.0287 -0.0075,0.0584 0.07086,0.0448 0.147426,0.0452 0.147426,5.7e-4 z m -8.202749,-0.33628 c 0,-0.0408 -0.01466,-0.0742 -0.03257,-0.0742 -0.04867,0 -0.118927,0.0959 -0.09083,0.12404 0.05081,0.0508 0.1234,0.0215 0.1234,-0.0498 z m 10.614394,-0.008 c 0.06386,-0.0789 0.06365,-0.17752 -3.89e-4,-0.17752 -0.05644,0 -0.147146,0.11604 -0.147146,0.18824 0,0.0954 0.06548,0.0906 0.147535,-0.0107 z m -1.653754,-0.35011 c 0.01467,-0.0382 0.0013,-0.0516 -0.0431,-0.0431 -0.03542,0.007 -0.06998,0.0414 -0.0768,0.0768 -0.01522,0.0791 0.08773,0.0501 0.119899,-0.0337 z m -1.648685,-0.19907 c 0,-0.0891 -0.01174,-0.10083 -0.08255,-0.0823 -0.04541,0.0119 -0.06214,0.0284 -0.03718,0.0367 0.02807,0.009 0.03675,0.0495 0.02275,0.10526 -0.01817,0.0724 -0.01085,0.0856 0.03718,0.0672 0.03529,-0.0135 0.0598,-0.0655 0.0598,-0.12684 z m -6.771931,0.0463 c 0.05156,-0.0361 0.1707,-0.41517 0.144043,-0.4583 -0.05738,-0.0928 -0.302518,0.2544 -0.310828,0.44031 -0.0023,0.0504 0.104068,0.0619 0.166785,0.018 z m 8.494814,-0.17971 c 0.06373,-0.0245 0.08395,-0.23729 0.02255,-0.23729 -0.03225,0 -0.149419,0.18774 -0.149419,0.23942 0,0.0268 0.05382,0.0259 0.126872,-0.002 z m -7.900599,-0.10473 c 0.06568,-0.0483 0.0665,-0.0552 0.0093,-0.0774 -0.09592,-0.0372 -0.194767,-0.006 -0.208605,0.0659 -0.01546,0.0803 0.09705,0.0868 0.199342,0.0115 z m 5.577294,-0.10779 c 0.01322,-0.0681 -0.02181,-0.078 -0.100268,-0.0284 -0.05848,0.037 -0.01986,0.12622 0.04527,0.10454 0.02365,-0.008 0.04839,-0.0422 0.05499,-0.0762 z m 2.690638,-0.0655 c 0.02856,-0.10922 -0.0074,-0.182 -0.08989,-0.182 -0.075,0 -0.09458,0.0548 -0.03315,0.0928 0.02041,0.0126 0.03712,0.0553 0.03712,0.095 0,0.0962 0.06033,0.0921 0.08592,-0.006 z m -2.935185,-0.0846 c 0.05929,-0.0907 0.02801,-0.12799 -0.09222,-0.10984 -0.139861,0.0211 -0.233891,0.0977 -0.19572,0.15951 0.03137,0.0508 0.246574,0.0136 0.287943,-0.0497 z m -1.307789,-0.0987 c 0,-0.0401 -0.159689,-0.0493 -0.197633,-0.0114 -0.01343,0.0135 -0.0061,0.0465 0.01627,0.0735 0.04407,0.0531 0.181363,0.006 0.181363,-0.0621 z m -3.785885,-0.0142 c 0,-0.009 0.01014,-0.0419 0.02253,-0.0742 0.01691,-0.0441 -10e-4,-0.0587 -0.07204,-0.0587 -0.101246,0 -0.154905,0.0508 -0.117511,0.11135 0.02185,0.0354 0.167024,0.0541 0.167024,0.0216 z m -1.317637,-0.0587 c 0.01262,-0.0204 -0.0031,-0.0371 -0.03493,-0.0371 -0.03182,0 -0.05787,0.0167 -0.05787,0.0371 0,0.0204 0.01572,0.0371 0.03493,0.0371 0.01921,0 0.04525,-0.0167 0.05786,-0.0371 z m -0.7472,-0.20229 c -0.03815,-0.0928 -0.07787,-0.16872 -0.08827,-0.16879 -0.0104,-8e-5 -0.04021,0.0339 -0.06625,0.0756 -0.04172,0.0668 -0.03378,0.0894 0.06697,0.19011 0.06287,0.0629 0.123893,0.10471 0.13561,0.093 0.01172,-0.0117 -0.0099,-0.0972 -0.04806,-0.18997 z m 11.343966,0.0971 c 0,-0.0945 -0.03961,-0.12456 -0.09911,-0.0752 -0.03797,0.0315 -0.03997,0.0541 -0.0082,0.0925 0.05892,0.071 0.107263,0.0632 0.107263,-0.0173 z m 0.3303,-0.1035 c -0.05651,-0.0681 -0.105199,-0.0314 -0.08102,0.061 0.01549,0.0592 0.03044,0.066 0.07121,0.0322 0.03882,-0.0322 0.04125,-0.0553 0.0098,-0.0932 z m -8.904029,0.0227 c 0.0343,-0.0641 0.02554,-0.0801 -0.06222,-0.11342 -0.07454,-0.0283 -0.125091,-0.0265 -0.187076,0.007 -0.114487,0.0613 -0.107081,0.0893 0.03569,0.13511 0.169668,0.0544 0.169302,0.0545 0.213607,-0.0283 z m -0.445586,-0.12442 c 0,-0.0339 -0.03057,-0.0447 -0.09279,-0.0328 -0.05103,0.01 -0.09279,0.0325 -0.09279,0.0505 0,0.018 0.04175,0.0328 0.09279,0.0328 0.05353,0 0.09279,-0.0214 0.09279,-0.0505 z m 3.693094,-0.0237 c 0.01262,-0.0204 0.0052,-0.0371 -0.01637,-0.0371 -0.02162,0 -0.03931,0.0167 -0.03931,0.0371 0,0.0204 0.0074,0.0371 0.01637,0.0371 0.009,0 0.02669,-0.0167 0.03931,-0.0371 z m -6.588182,-0.0164 c 0,-0.009 -0.0167,-0.0267 -0.03712,-0.0393 -0.02041,-0.0126 -0.03712,-0.005 -0.03712,0.0164 0,0.0216 0.0167,0.0393 0.03712,0.0393 0.02041,0 0.03712,-0.007 0.03712,-0.0164 z m 3.785885,-0.042 c 0,-0.0346 -0.02525,-0.0535 -0.06188,-0.0464 -0.09312,0.0181 -0.105903,0.10479 -0.01545,0.10479 0.04559,0 0.07733,-0.024 0.07733,-0.0584 z m -0.229056,-0.0937 c 0.05707,-0.0914 0.0555,-0.094 -0.07689,-0.12721 -0.118271,-0.0297 -0.17804,0.0582 -0.101948,0.14986 0.0634,0.0764 0.121584,0.069 0.178834,-0.0226 z m 1.156969,-0.17743 c 0,-0.0179 -0.02505,-0.0533 -0.05567,-0.0788 -0.06043,-0.0501 -0.06799,-0.0382 -0.03315,0.0526 0.02385,0.0622 0.08882,0.0813 0.08882,0.0261 z m -0.39486,-0.0602 c -0.01175,-0.0306 -0.03628,-0.0557 -0.05451,-0.0557 -0.01823,0 -0.03315,0.025 -0.03315,0.0557 0,0.0306 0.02453,0.0557 0.05451,0.0557 0.0332,0 0.04616,-0.0218 0.03315,-0.0557 z m 0.986295,-0.0687 c 0.02157,-0.0583 0.0084,-0.10196 -0.049,-0.16259 -0.09275,-0.0979 -0.154785,-0.10643 -0.185862,-0.0254 -0.03405,0.0887 -0.02899,0.10865 0.05467,0.21501 0.08337,0.106 0.133785,0.0985 0.180181,-0.027 z m 0.410711,-0.002 c 0,-0.0284 -0.02239,-0.0603 -0.04976,-0.0708 -0.06794,-0.0261 -0.151242,0.0304 -0.119828,0.0812 0.03658,0.0592 0.169589,0.051 0.169589,-0.0104 z m 0.512208,0.007 c 0.06451,-0.0645 0.05475,-0.10393 -0.02572,-0.10393 -0.0705,0 -0.129564,0.0847 -0.08802,0.12629 0.0332,0.0332 0.06429,0.0271 0.11374,-0.0224 z m -0.252393,-0.16179 c 0,-0.0318 -0.01698,-0.0474 -0.03772,-0.0346 -0.02075,0.0128 -0.02812,0.0389 -0.01637,0.0579 0.03182,0.0515 0.05409,0.0419 0.05409,-0.0233 z m -0.519631,-0.0848 c 0,-0.0172 -0.0334,-0.0616 -0.07423,-0.0985 -0.07187,-0.065 -0.07423,-0.0648 -0.07423,0.007 0,0.0406 0.01114,0.0849 0.02475,0.0985 0.03534,0.0354 0.123721,0.0306 0.123721,-0.007 z m -0.39739,-0.14036 c 0.03064,-0.0306 -0.07659,-0.23656 -0.123194,-0.23656 -0.04735,0 -0.04618,0.0975 0.0023,0.18803 0.03935,0.0735 0.07974,0.0897 0.120936,0.0485 z m 6.52385,-0.2981 c 0.03218,-0.0846 0.02314,-0.11368 -0.06354,-0.20414 -0.127907,-0.13351 -0.161395,-0.1328 -0.161395,0.003 0,0.26496 0.149711,0.39853 0.224933,0.20068 z m -4.833006,-0.39709 c 0.03811,-0.14089 0.01627,-0.18065 -0.04356,-0.0792 -0.07788,0.13201 -0.09737,0.23788 -0.03972,0.21576 0.02844,-0.0109 0.06592,-0.0724 0.08328,-0.13652 z m -7.25399,-0.25027 c -0.03511,-0.0388 -0.08922,-0.0705 -0.120237,-0.0705 -0.04242,0 -0.03507,0.0227 0.02971,0.0916 0.09927,0.10567 0.186794,0.0853 0.09053,-0.0211 z m 7.139682,-0.0173 c -0.0085,-0.008 -0.06845,-0.026 -0.133311,-0.039 -0.08183,-0.0164 -0.117922,-0.009 -0.117922,0.0225 0,0.0275 0.02935,0.0384 0.07294,0.027 0.05106,-0.0133 0.08022,0.004 0.09721,0.0574 0.02232,0.0703 0.02717,0.0713 0.06037,0.012 0.01986,-0.0355 0.02918,-0.0714 0.02071,-0.0799 z m -2.959434,0.0379 c 0.0343,-0.0413 0.03626,-0.0685 0.007,-0.0977 -0.0585,-0.0585 -0.156811,-0.009 -0.156811,0.0796 0,0.0892 0.08254,0.0992 0.149771,0.0181 z m 2.208654,-0.0566 c 0.04352,-0.0704 -0.01995,-0.0878 -0.0846,-0.0232 -0.05786,0.0579 -0.05797,0.0628 -0.0013,0.0628 0.03379,0 0.07245,-0.0178 0.0859,-0.0396 z m 1.425597,-0.0139 c 0.02439,-0.0294 0.03867,-0.10037 0.03175,-0.15774 -0.01244,-0.10303 -0.01363,-0.10236 -0.09623,0.0534 -0.0636,0.11996 -0.0712,0.15775 -0.03175,0.15775 0.02854,0 0.07184,-0.024 0.09623,-0.0534 z m -4.310637,-0.14186 c 0.0085,-0.044 -0.0113,-0.0645 -0.06234,-0.0645 -0.08512,0 -0.13226,0.0554 -0.09643,0.1134 0.03612,0.0584 0.144527,0.0251 0.15877,-0.0489 z m 4.906365,-0.009 c 0.06307,-0.076 -0.03206,-0.0768 -0.132093,-0.001 -0.07064,0.0534 -0.0705,0.0545 0.0069,0.0557 0.04343,5.7e-4 0.09976,-0.0239 0.125173,-0.0545 z m -0.948693,-0.0289 c 0.06002,-0.007 0.115696,-0.0331 0.123722,-0.0572 0.008,-0.0241 0.03766,-0.0438 0.06587,-0.0438 0.0282,0 0.06991,-0.0348 0.09269,-0.0774 0.02278,-0.0426 0.09792,-0.10099 0.166991,-0.12985 0.06907,-0.0289 0.142198,-0.0835 0.162506,-0.12146 0.03069,-0.0573 0.06839,-0.066 0.223414,-0.0511 0.138081,0.0133 0.190368,0.005 0.201433,-0.0331 0.0082,-0.0281 0.03449,-0.12292 0.05838,-0.21076 0.04097,-0.15066 0.123434,-0.23246 0.17866,-0.17724 0.01365,0.0136 0.0034,0.0591 -0.02273,0.10099 -0.05336,0.0854 -0.03486,0.12533 0.04409,0.095 0.02893,-0.0111 0.06373,-0.0842 0.07734,-0.16233 0.03722,-0.21377 0.0985,-0.3463 0.160119,-0.3463 0.03756,0 0.04695,0.0207 0.02946,0.065 -0.01413,0.0357 -0.03486,0.11957 -0.04607,0.18633 -0.01704,0.10149 -0.01044,0.11756 0.04028,0.0981 0.04124,-0.0158 0.06065,-0.0679 0.06065,-0.16282 0,-0.14498 0.135891,-0.52061 0.188341,-0.52061 0.06663,0 0.07192,0.0816 0.01597,0.24638 -0.03928,0.11569 -0.04657,0.18602 -0.02186,0.21074 0.057,0.057 0.151592,-0.0416 0.151592,-0.15812 0,-0.15395 0.11185,-0.44747 0.170514,-0.44747 0.03074,0 0.05219,0.0376 0.05219,0.0916 0,0.0662 0.01545,0.0857 0.05567,0.0703 0.03062,-0.0118 0.05567,-0.0541 0.05567,-0.0941 0,-0.1071 0.06842,-0.21629 0.13554,-0.21629 0.05628,0 0.058,0.0428 0.0087,0.21807 -0.0079,0.0281 0.0046,0.058 0.02773,0.0666 0.06468,0.024 0.162053,-0.0936 0.162053,-0.19569 0,-0.0502 0.02505,-0.10092 0.05567,-0.11267 0.07688,-0.0295 0.07012,-0.12375 -0.0093,-0.12938 -0.03572,-0.002 -0.150072,-10e-4 -0.254106,0.003 -0.180805,0.007 -0.311921,-0.0543 -0.311921,-0.14661 0,-0.0173 -0.04895,-0.0423 -0.108785,-0.0554 -0.05983,-0.0131 -0.128395,-0.0475 -0.152364,-0.0764 -0.02875,-0.0346 -0.06436,-0.0416 -0.104635,-0.0205 -0.129869,0.068 -0.33943,-0.12418 -0.33943,-0.3112 0,-0.0859 -0.08311,-0.10394 -0.259606,-0.0564 -0.134872,0.0363 -0.165902,0.0331 -0.228768,-0.0238 -0.0495,-0.0448 -0.11946,-0.0625 -0.219018,-0.0553 -0.112909,0.008 -0.146288,-0.003 -0.146288,-0.048 0,-0.0322 -0.01706,-0.0585 -0.03791,-0.0585 -0.02085,0 -0.05629,-0.0403 -0.07876,-0.0896 -0.03758,-0.0825 -0.05639,-0.088 -0.235386,-0.0696 -0.124634,0.0128 -0.203822,0.005 -0.220366,-0.0217 -0.0142,-0.023 -0.07495,-0.0418 -0.134984,-0.0418 -0.06004,0 -0.109159,-0.0167 -0.109159,-0.0371 0,-0.0204 -0.03327,-0.0371 -0.07392,-0.0371 -0.04065,0 -0.09478,-0.0334 -0.120277,-0.0742 -0.0255,-0.0408 -0.0674,-0.0742 -0.09311,-0.0742 -0.02571,0 -0.04727,-0.0292 -0.04791,-0.065 -0.0014,-0.0782 -0.17012,-0.21091 -0.20219,-0.15902 -0.01222,0.0198 0.01066,0.0565 0.05085,0.0816 0.0914,0.0571 0.04053,0.1795 -0.07459,0.1795 -0.100198,0 -0.07026,0.0891 0.03514,0.10465 0.09609,0.0142 0.09787,0.0306 0.02274,0.21035 -0.03182,0.0762 -0.09028,0.14697 -0.129908,0.15733 -0.03963,0.0104 -0.07204,0.0421 -0.07204,0.0705 0,0.0424 0.01335,0.0434 0.07423,0.005 0.04083,-0.0255 0.07423,-0.059 0.07423,-0.0745 0,-0.048 0.163165,-0.0288 0.238221,0.0281 0.06027,0.0456 0.06467,0.0682 0.02863,0.14729 -0.02582,0.0566 -0.02827,0.0934 -0.0062,0.0934 0.05368,0 0.04408,0.11525 -0.01522,0.18266 -0.02835,0.0322 -0.06327,0.11376 -0.07761,0.18118 -0.02395,0.11262 -0.01674,0.12609 0.08866,0.16588 0.0631,0.0238 0.114727,0.054 0.114727,0.0671 0,0.0131 -0.04175,0.0853 -0.09279,0.16054 -0.05103,0.0752 -0.09279,0.15846 -0.09279,0.18501 0,0.0659 0.107415,0.15422 0.238937,0.19644 0.05997,0.0192 0.114956,0.0528 0.122198,0.0745 0.01989,0.0597 -0.09708,0.0906 -0.178241,0.0472 -0.06395,-0.0342 -0.07146,-0.0253 -0.07075,0.0836 6.27e-4,0.0985 0.02745,0.14041 0.139187,0.21788 0.07612,0.0528 0.167624,0.10653 0.203348,0.11946 0.06499,0.0236 0.09278,0.1372 0.03354,0.1372 -0.01728,0 -0.0855,-0.027 -0.151605,-0.06 -0.146843,-0.0732 -0.234034,-0.022 -0.161155,0.0947 0.03652,0.0585 0.03028,0.0793 -0.03805,0.12704 l -0.08174,0.0571 0.0981,0.002 c 0.107418,0.002 0.160595,0.081 0.09729,0.14431 -0.02867,0.0287 -0.02619,0.0568 0.0088,0.0989 0.03697,0.0446 0.03839,0.0692 0.0059,0.10179 -0.02363,0.0236 -0.04297,0.0748 -0.04297,0.11367 0,0.0617 0.02004,0.068 0.157745,0.0498 0.08676,-0.0115 0.206853,-0.027 0.266874,-0.0343 z m 1.302826,-0.0292 c 0.03538,-0.0572 0.0071,-0.0719 -0.0898,-0.0466 -0.06365,0.0167 -0.07257,0.0301 -0.0355,0.0536 0.06624,0.042 0.09602,0.0403 0.125293,-0.007 z m -6.144311,-0.0706 c 0,-0.0198 -0.02505,-0.0263 -0.05567,-0.0146 -0.03062,0.0118 -0.05567,0.0279 -0.05567,0.0359 0,0.008 0.02505,0.0146 0.05567,0.0146 0.03062,0 0.05567,-0.0162 0.05567,-0.0359 z m 0.519632,-0.15673 c 0,-0.0437 -0.102794,-0.0368 -0.131007,0.009 -0.01322,0.0214 -0.01301,0.0673 4.6e-4,0.10207 0.02242,0.0578 0.02898,0.0571 0.07752,-0.009 0.02917,-0.0396 0.05303,-0.0856 0.05303,-0.10207 z m 5.279825,0.0563 c 0.04008,-0.0237 0.03434,-0.12344 -0.0071,-0.12344 -0.01921,0 -0.04567,0.0174 -0.0588,0.0386 -0.01313,0.0212 -0.05667,0.0282 -0.09676,0.0155 -0.07401,-0.0235 -0.180678,0.0368 -0.180678,0.10215 0,0.0333 0.276188,0.007 0.343327,-0.0328 z m 3.08995,-0.0121 c -0.01262,-0.0204 -0.04283,-0.0369 -0.06714,-0.0366 -0.02656,3.1e-4 -0.02198,0.0149 0.01147,0.0366 0.07131,0.0461 0.08415,0.0461 0.05567,0 z m -2.762145,-0.0371 c 0.01874,0 0.03408,-0.025 0.03408,-0.0557 0,-0.0306 -0.01534,-0.0557 -0.03408,-0.0557 -0.07819,0 -0.151502,0.0488 -0.151502,0.10074 0,0.0355 0.02125,0.0475 0.05871,0.0331 0.03229,-0.0124 0.07405,-0.0225 0.09279,-0.0225 z m 0.246728,-0.0595 c -0.01233,-0.0123 -0.04435,-0.0136 -0.07114,-0.003 -0.02961,0.0119 -0.02081,0.0206 0.02242,0.0224 0.03912,0.002 0.06105,-0.007 0.04871,-0.0195 z m -7.190553,-0.15944 c 0,-0.0185 -0.0334,-0.0249 -0.07423,-0.0142 -0.04083,0.0107 -0.07423,0.0258 -0.07423,0.0337 0,0.008 0.0334,0.0142 0.07423,0.0142 0.04083,0 0.07423,-0.0151 0.07423,-0.0337 z m -0.03469,-0.19359 c 0.04271,-0.0798 0.01243,-0.0876 -0.129922,-0.0335 -0.05236,0.0199 -0.09521,0.0593 -0.09521,0.0876 0,0.0751 0.179008,0.0321 0.22513,-0.0541 z m -0.846226,0.0157 c 0.07616,-0.0435 -0.03202,-0.0828 -0.16987,-0.0617 -0.181364,0.0278 -0.189704,0.0323 -0.156327,0.0864 0.02289,0.037 0.247989,0.02 0.326197,-0.0246 z m 9.206553,-0.17367 c 0.07896,-0.16768 0.06092,-0.24573 -0.05677,-0.24573 -0.06742,0 -0.08486,0.0208 -0.08556,0.10207 -4.84e-4,0.0561 -0.01367,0.14935 -0.0293,0.20715 -0.04404,0.16286 0.08806,0.114 0.171633,-0.0635 z m -8.861832,0.0851 c 0.01372,-0.0222 0.0091,-0.0561 -0.01016,-0.0755 -0.04659,-0.0466 -0.158862,-0.001 -0.158862,0.0641 0,0.0609 0.13287,0.0699 0.169023,0.0113 z m 8.107961,-0.0463 c 0,-0.12183 -0.03854,-0.14632 -0.117617,-0.0747 -0.09637,0.0872 -0.08496,0.16135 0.02482,0.16135 0.07247,0 0.09279,-0.0189 0.09279,-0.0866 z m 0.458857,-0.0624 c 0.03587,-0.0337 -0.08555,-0.2198 -0.143367,-0.21978 -0.07156,3e-5 -0.162346,0.096 -0.188179,0.19892 l -0.02607,0.1039 0.162802,-0.0265 c 0.08954,-0.0145 0.17721,-0.0401 0.194819,-0.0565 z m -9.785153,-0.65236 c -0.01233,-0.0123 -0.04435,-0.0136 -0.07114,-0.003 -0.02961,0.0119 -0.02082,0.0206 0.02242,0.0224 0.03912,0.002 0.06105,-0.007 0.04871,-0.0195 z m 6.44324,-0.0296 c 0.02503,-0.0652 -0.0049,-0.0964 -0.09245,-0.0964 -0.07844,0 -0.08748,0.0399 -0.02351,0.10393 0.0584,0.0584 0.09149,0.0562 0.115956,-0.008 z m 7.745323,-0.13134 c 0,-0.0501 -0.06766,-0.0849 -0.111954,-0.0575 -0.02075,0.0128 -0.02812,0.0388 -0.01637,0.0579 0.02786,0.0451 0.128323,0.0448 0.128323,-4.2e-4 z m -1.818709,-0.24345 c 0.03758,-0.0453 0.03581,-0.0557 -0.0095,-0.0557 -0.03062,0 -0.07647,0.025 -0.101881,0.0557 -0.03758,0.0453 -0.03581,0.0557 0.0095,0.0557 0.03062,0 0.07647,-0.025 0.101881,-0.0557 z m -6.087108,-0.0512 c 0,-0.0474 -0.109137,-0.13047 -0.136094,-0.10351 -0.02696,0.027 0.05606,0.13609 0.103521,0.13609 0.01792,0 0.03257,-0.0147 0.03257,-0.0326 z m 6.012876,-0.21149 c 0,-0.0297 -0.02299,-0.0417 -0.05567,-0.0292 -0.03062,0.0118 -0.05567,0.0441 -0.05567,0.0719 0,0.0297 0.02298,0.0417 0.05567,0.0292 0.03062,-0.0118 0.05567,-0.0441 0.05567,-0.0719 z m -2.418277,-0.037 c 0.06438,-0.0321 0.117052,-0.0739 0.117052,-0.0928 0,-0.0431 -0.0014,-0.043 -0.142927,0.006 -0.06429,0.0224 -0.116888,0.0642 -0.116888,0.0928 0,0.0647 3.89e-4,0.0647 0.142763,-0.006 z m 1.723493,-0.27131 c 0.129728,-0.0807 0.13534,-0.0911 0.07423,-0.13742 -0.03636,-0.0275 -0.08338,-0.0507 -0.104498,-0.0513 -0.04286,-0.001 -0.165748,0.1901 -0.165748,0.25819 0,0.0504 0.0076,0.0477 0.196013,-0.0694 z m -2.051839,-0.0835 c 0,-0.0153 -0.01481,-0.037 -0.03291,-0.0482 -0.05269,-0.0326 -0.126285,0.083 -0.0985,0.15467 0.02374,0.0612 0.02874,0.0608 0.07839,-0.007 0.02916,-0.0396 0.05302,-0.0846 0.05302,-0.0999 z m 3.581744,-0.0322 c 0.01262,-0.0204 -0.0041,-0.0371 -0.03712,-0.0371 -0.03303,0 -0.04973,0.0167 -0.03712,0.0371 0.01262,0.0204 0.02932,0.0371 0.03712,0.0371 0.0078,0 0.0245,-0.0167 0.03712,-0.0371 z m -1.948617,-0.0928 c 0,-0.051 -0.0167,-0.0928 -0.03712,-0.0928 -0.04146,0 -0.05087,0.12233 -0.01237,0.16084 0.04092,0.0409 0.04949,0.0291 0.04949,-0.0681 z m 1.039263,-0.0185 c 0,-0.0919 -0.04967,-0.11892 -0.165318,-0.0899 -0.09945,0.0249 -0.130775,0.0899 -0.04337,0.0899 0.02812,0 0.07177,0.0249 0.097,0.0553 0.05583,0.0673 0.111689,0.0396 0.111688,-0.0553 z m -3.004599,-0.009 c -10e-4,-0.0153 -0.0018,-0.0446 -0.0018,-0.065 0,-0.0204 -0.01729,-0.0371 -0.03842,-0.0371 -0.06197,0 -0.22238,0.11684 -0.203143,0.14796 0.02167,0.0351 0.24596,-0.007 0.243405,-0.0459 z m 2.225152,0.03 c 0,-0.0392 -0.07123,-0.0556 -0.09242,-0.0213 -0.01282,0.0208 0.0027,0.0377 0.03455,0.0377 0.03182,0 0.05787,-0.007 0.05787,-0.0164 z m 2.041409,-0.095 c 0,-0.0204 -0.02505,-0.0371 -0.05568,-0.0371 -0.03062,0 -0.05567,0.0167 -0.05567,0.0371 0,0.0204 0.02505,0.0371 0.05567,0.0371 0.03062,0 0.05568,-0.0167 0.05568,-0.0371 z m 0.445398,-0.1445 c 0,-0.0386 -0.02505,-0.0799 -0.05568,-0.0916 -0.05944,-0.0228 -0.06949,0.008 -0.03315,0.10317 0.03117,0.0812 0.08882,0.0737 0.08882,-0.0116 z m -5.047848,-0.0204 c 0,-0.009 -0.0167,-0.0267 -0.03712,-0.0393 -0.02041,-0.0126 -0.03712,-0.005 -0.03712,0.0164 0,0.0216 0.0167,0.0393 0.03712,0.0393 0.02041,0 0.03712,-0.007 0.03712,-0.0164 z m -1.454241,-0.42265 c 0.0077,-0.0524 -0.0078,-0.0806 -0.04421,-0.0806 -0.07218,0 -0.110134,0.0622 -0.08228,0.13477 0.03023,0.0788 0.112078,0.0437 0.126479,-0.0542 z m 4.99887,-0.006 c 0.01262,-0.0204 0.0062,-0.0371 -0.01417,-0.0371 -0.02041,0 -0.04744,0.0167 -0.06006,0.0371 -0.01262,0.0204 -0.0062,0.0371 0.01418,0.0371 0.02041,0 0.04744,-0.0167 0.06006,-0.0371 z m -5.75626,-0.47734 c 0.01085,-0.0176 0.01021,-0.0415 -0.0014,-0.0531 -0.02897,-0.029 -0.125273,0.0109 -0.125273,0.0519 0,0.0424 0.100651,0.0434 0.126709,10e-4 z m 6.355874,-0.0253 c 0.01209,-0.0315 0.01276,-0.0665 0.0015,-0.0778 -0.0393,-0.0393 -0.248495,0.03 -0.248495,0.0823 0,0.074 0.218394,0.07 0.247007,-0.005 z m -1.212326,-0.3974 c 4.83e-4,-0.0469 -0.06544,-0.031 -0.126968,0.0305 -0.08094,0.0809 -0.07321,0.0901 0.03417,0.0403 0.05088,-0.0236 0.09263,-0.0554 0.09279,-0.0707 z m -8.629302,-0.0304 c 0,-0.0286 -0.02923,-0.0577 -0.06495,-0.0646 -0.06398,-0.0123 -0.09043,0.0664 -0.03944,0.11743 0.03891,0.0389 0.10439,0.006 0.10439,-0.0529 z m -2.02285,-0.0716 c 0,-0.0204 -0.01769,-0.0371 -0.03931,-0.0371 -0.02162,0 -0.02898,0.0167 -0.01637,0.0371 0.01262,0.0204 0.03031,0.0371 0.03931,0.0371 0.009,0 0.01637,-0.0167 0.01637,-0.0371 z m 2.412573,-0.0322 c 0,-0.0133 -0.0334,-0.0451 -0.07423,-0.0706 -0.07542,-0.0471 -0.09161,-0.0229 -0.0526,0.0788 0.02014,0.0525 0.126836,0.0456 0.126836,-0.008 z m -3.711651,-0.0213 c 0,-0.009 -0.0167,-0.0267 -0.03712,-0.0393 -0.02041,-0.0126 -0.03712,-0.005 -0.03712,0.0164 0,0.0216 0.0167,0.0393 0.03712,0.0393 0.02041,0 0.03712,-0.007 0.03712,-0.0164 z m 3.033502,-0.0432 c -0.01233,-0.0123 -0.04435,-0.0136 -0.07114,-0.003 -0.02961,0.0119 -0.02081,0.0206 0.02242,0.0224 0.03912,0.002 0.06105,-0.007 0.04871,-0.0195 z m 1.89666,-0.0649 c 0.0094,-0.0491 -0.0058,-0.0643 -0.05482,-0.0548 -0.03734,0.007 -0.07378,0.0436 -0.08097,0.081 -0.0094,0.049 0.0058,0.0643 0.05482,0.0548 0.03735,-0.007 0.07378,-0.0436 0.08097,-0.081 z M 47.606,285.12883 c 0.01173,-0.0605 0.0055,-0.0633 -0.0464,-0.0202 -0.07094,0.0589 -0.07977,0.12769 -0.01356,0.10564 0.02551,-0.009 0.0525,-0.0469 0.05996,-0.0854 z m -2.759165,-0.0527 c -0.05159,-0.0539 -0.09381,-0.11911 -0.09381,-0.145 0,-0.0652 -0.126791,-0.0351 -0.138796,0.033 -0.01076,0.0611 0.180518,0.20991 0.26977,0.20991 0.04139,0 0.03138,-0.0264 -0.03717,-0.0979 z m 2.269276,-0.12934 c 0,-0.0297 -0.01419,-0.0453 -0.03154,-0.0346 -0.01735,0.0107 -0.02193,0.035 -0.01018,0.0541 0.03002,0.0485 0.04172,0.0431 0.04172,-0.0195 z m 9.10592,-0.0208 c 0.04845,-0.0318 0.04868,-0.041 0.0018,-0.0712 -0.06469,-0.0416 -0.113123,-0.0179 -0.113123,0.0554 0,0.0622 0.03339,0.067 0.111349,0.0158 z m -3.579961,-0.11423 c 0.03265,-0.0631 0.05117,-0.12299 0.04116,-0.133 -0.02904,-0.029 -0.172854,0.1308 -0.172854,0.19213 0,0.0932 0.06889,0.0623 0.131691,-0.0591 z m -0.40156,-0.0561 c -0.01233,-0.0123 -0.04435,-0.0136 -0.07114,-0.003 -0.02961,0.0119 -0.02081,0.0206 0.02242,0.0224 0.03912,0.002 0.06105,-0.007 0.04871,-0.0195 z m 0.544993,-0.25985 c 0.08157,-0.0313 0.03558,-0.0889 -0.07098,-0.0889 -0.09128,0 -0.145856,0.0459 -0.104154,0.0876 0.02984,0.0298 0.09939,0.0303 0.175138,0.001 z M 50.0872,284.26905 c -0.04487,-0.0449 -0.07459,-0.0516 -0.102866,-0.0233 -0.02828,0.0283 -0.02154,0.058 0.02333,0.10287 0.04487,0.0449 0.07459,0.0516 0.102866,0.0233 0.02828,-0.0283 0.02154,-0.058 -0.02333,-0.10287 z m 3.477902,-0.18294 c 0.01287,-0.0335 0.01577,-0.0686 0.0064,-0.0779 -0.0295,-0.0295 -0.09613,0.0297 -0.09613,0.0855 0,0.0728 0.06083,0.0677 0.08969,-0.007 z m -3.318831,-0.1639 c 0,-0.0192 -0.0167,-0.0349 -0.03712,-0.0349 -0.02041,0 -0.03712,0.0261 -0.03712,0.0579 0,0.0318 0.0167,0.0476 0.03712,0.0349 0.02042,-0.0126 0.03712,-0.0387 0.03712,-0.0579 z m 3.154904,0.01 c 0,-0.0438 -0.01052,-0.0453 -0.05567,-0.008 -0.03062,0.0254 -0.05567,0.0497 -0.05567,0.054 0,0.005 0.02505,0.008 0.05567,0.008 0.03062,0 0.05567,-0.0243 0.05567,-0.054 z m 1.029163,-0.31656 c -0.008,-0.0241 -0.04246,-0.0493 -0.07649,-0.0559 -0.04501,-0.009 -0.06188,0.0144 -0.06188,0.0848 0,0.0863 0.0083,0.0924 0.07649,0.0559 0.04207,-0.0225 0.06991,-0.0607 0.06188,-0.0848 z m 2.014391,-0.7469 c 0,-0.0392 -0.07123,-0.0556 -0.09242,-0.0213 -0.01282,0.0208 0.0027,0.0377 0.03455,0.0377 0.03182,0 0.05787,-0.007 0.05787,-0.0164 z m -8.258425,-0.0579 c 0.01262,-0.0204 -0.0021,-0.0371 -0.03274,-0.0371 -0.03062,0 -0.066,0.0167 -0.07861,0.0371 -0.01262,0.0204 0.0021,0.0371 0.03274,0.0371 0.03062,0 0.066,-0.0167 0.07861,-0.0371 z m 1.891792,-0.0353 c 0.01198,-0.0194 -0.01209,-0.0534 -0.05348,-0.0755 -0.05858,-0.0314 -0.07527,-0.029 -0.07527,0.0105 0,0.0915 0.08568,0.13473 0.128757,0.065 z m 7.034731,-0.0367 c 0,-0.0148 -0.01099,-0.0379 -0.02443,-0.0514 -0.03275,-0.0327 -0.128456,0.0491 -0.103888,0.0889 0.02179,0.0352 0.12831,0.004 0.12831,-0.0375 z m -10.503975,-0.68887 c 0,-0.0306 -0.01492,-0.0557 -0.03315,-0.0557 -0.01823,0 -0.04276,0.025 -0.05451,0.0557 -0.01302,0.0339 -7.4e-5,0.0557 0.03315,0.0557 0.02998,0 0.05451,-0.025 0.05451,-0.0557 z m -0.760889,-0.31549 c 0.01262,-0.0204 0.0052,-0.0371 -0.01637,-0.0371 -0.02162,0 -0.03931,0.0167 -0.03931,0.0371 0,0.0204 0.0074,0.0371 0.01637,0.0371 0.009,0 0.02669,-0.0167 0.03931,-0.0371 z m 11.543238,-0.2227 c -0.01262,-0.0204 -0.03866,-0.0371 -0.05787,-0.0371 -0.01921,0 -0.03493,0.0167 -0.03493,0.0371 0,0.0204 0.02604,0.0371 0.05786,0.0371 0.03183,0 0.04754,-0.0167 0.03493,-0.0371 z m -7.071707,-0.42564 c 0.03826,-0.0461 0.02614,-0.0539 -0.07897,-0.0509 -0.191953,0.006 -0.291189,0.029 -0.291189,0.0689 0,0.0587 0.319353,0.0432 0.370156,-0.018 z m -1.149603,-0.26103 c 0,-0.0282 -0.01857,-0.0628 -0.04126,-0.0768 -0.0586,-0.0362 -0.111297,0.0643 -0.06376,0.12154 0.04557,0.0549 0.105021,0.0296 0.105021,-0.0447 z m 2.525884,-0.14847 c -0.0029,-0.0551 -0.08595,-0.0449 -0.105212,0.0128 -0.0104,0.0312 0.0066,0.0451 0.04526,0.0371 0.03405,-0.007 0.06103,-0.0295 0.05995,-0.0499 z m 0.406322,-0.14543 c 0,-0.0725 -0.05302,-0.12183 -0.113747,-0.10595 -0.105426,0.0276 -0.08923,0.12148 0.02096,0.12148 0.05103,0 0.09279,-0.007 0.09279,-0.0155 z m 0.364962,-0.27881 c 0.01839,-0.12561 -0.0253,-0.26241 -0.08381,-0.26241 -0.02832,0 -0.07675,0.0742 -0.107644,0.16483 -0.05477,0.16076 -0.05417,0.16522 0.02435,0.18027 0.12368,0.0237 0.1537,0.009 0.167101,-0.0827 z m -4.559129,-0.11849 c 0,-0.0656 -0.0093,-0.0711 -0.05527,-0.0329 -0.05586,0.0464 -0.04396,0.11169 0.02034,0.11169 0.01921,0 0.03493,-0.0355 0.03493,-0.0788 z m 5.183579,-0.079 c 0.01841,-0.0255 0.02463,-0.12155 0.01382,-0.21342 l -0.01965,-0.16702 -0.06441,0.0947 c -0.03543,0.0521 -0.07509,0.14814 -0.08815,0.21342 -0.02038,0.1019 -0.01322,0.11869 0.05059,0.11869 0.04088,0 0.08939,-0.0209 0.107799,-0.0464 z m -0.303444,-0.1763 c 0.02361,-0.11942 0.02144,-0.12392 -0.02704,-0.0557 -0.07091,0.0998 -0.10204,0.19191 -0.07426,0.21969 0.03636,0.0363 0.07359,-0.0239 0.1013,-0.16401 z m -1.762347,-0.11135 c 0,-0.0204 -0.02604,-0.0371 -0.05787,-0.0371 -0.03182,0 -0.04754,0.0167 -0.03493,0.0371 0.01262,0.0204 0.03866,0.0371 0.05786,0.0371 0.01921,0 0.03493,-0.0167 0.03493,-0.0371 z m 2.530342,-0.009 c 0.0079,-0.0255 0.0048,-0.12155 -0.0069,-0.21342 l -0.02128,-0.16702 -0.04727,0.16164 c -0.04748,0.16233 -0.03708,0.2652 0.02679,0.2652 0.01887,0 0.04077,-0.0209 0.04867,-0.0464 z m -3.688378,-0.77759 c 0.07424,-0.0742 0.04957,-0.11928 -0.104093,-0.19012 -0.215304,-0.0992 -0.307855,5.7e-4 -0.148299,0.16043 0.08378,0.0838 0.186248,0.0958 0.252392,0.0297 z m 1.158036,-0.10276 c 0,-0.0198 -0.02505,-0.0264 -0.05567,-0.0146 -0.03062,0.0118 -0.05567,0.0279 -0.05567,0.0359 0,0.008 0.02505,0.0146 0.05567,0.0146 0.03062,0 0.05567,-0.0162 0.05567,-0.0359 z m -0.983426,-0.14989 c 0.0127,-0.0205 -0.0072,-0.0481 -0.04421,-0.0613 -0.03702,-0.0132 -0.09548,-0.0481 -0.129922,-0.0776 -0.03444,-0.0295 -0.08218,-0.0416 -0.106093,-0.0268 -0.02934,0.0181 -0.009,0.0551 0.06262,0.11365 0.11544,0.0944 0.181639,0.11026 0.217605,0.0521 z m 1.419659,-0.47332 c 0.0084,-0.0253 -0.0058,-0.046 -0.03174,-0.046 -0.05534,0 -0.218905,0.14605 -0.218905,0.19547 0,0.0463 0.231388,-0.0916 0.25065,-0.14942 z m 5.334657,7.15337 c -0.01441,-0.0233 -0.0087,-0.0599 0.0126,-0.0812 0.04988,-0.0499 0.166176,-0.006 0.145882,0.0546 -0.02066,0.062 -0.12569,0.0797 -0.158485,0.0266 z m 0.705942,-0.0429 c -0.130892,-0.0429 -0.233684,-0.16858 -0.264686,-0.3236 -0.01931,-0.0965 -0.0061,-0.12055 0.102708,-0.18688 0.06867,-0.0419 0.141565,-0.0704 0.161978,-0.0635 0.02041,0.007 0.03226,0.0946 0.02631,0.19472 -0.01024,0.17264 -0.004,0.18641 0.120628,0.26592 0.07229,0.0461 0.131431,0.1004 0.131431,0.12063 0,0.0451 -0.128917,0.0417 -0.278374,-0.007 z m 0.191769,-0.20336 c -0.04632,-0.0463 -0.02627,-0.23507 0.02497,-0.23507 0.05755,0 0.147045,0.17458 0.115589,0.22548 -0.02469,0.0399 -0.10474,0.0454 -0.140561,0.01 z m -0.932683,-0.17012 c 0.01423,-0.0663 0.03324,-0.13315 0.04226,-0.14846 0.02706,-0.046 0.190212,-0.0314 0.207047,0.0185 0.02346,0.0695 -0.12461,0.25054 -0.204973,0.25054 -0.05977,0 -0.06636,-0.0179 -0.04433,-0.12063 z"
       id="path1509"
       inkscape:connector-curvature="0" />
  </g>
</svg>
