<?xml version="1.0" encoding="UTF-8" standalone="no"?>
<!-- Created with Inkscape (http://www.inkscape.org/) -->

<svg
   xmlns:dc="http://purl.org/dc/elements/1.1/"
   xmlns:cc="http://creativecommons.org/ns#"
   xmlns:rdf="http://www.w3.org/1999/02/22-rdf-syntax-ns#"
   xmlns:svg="http://www.w3.org/2000/svg"
   xmlns="http://www.w3.org/2000/svg"
   xmlns:sodipodi="http://sodipodi.sourceforge.net/DTD/sodipodi-0.dtd"
   xmlns:inkscape="http://www.inkscape.org/namespaces/inkscape"
   width="105mm"
   height="146mm"
   viewBox="0 0 105 146"
   version="1.1"
   id="svg8"
   inkscape:version="0.92.3 (2405546, 2018-03-11)"
   sodipodi:docname="araucaria_4_older_02.svg">
  <defs
     id="defs2" />
  <sodipodi:namedview
     id="base"
     pagecolor="#ffffff"
     bordercolor="#666666"
     borderopacity="1.0"
     inkscape:pageopacity="0.0"
     inkscape:pageshadow="2"
     inkscape:zoom="0.7"
     inkscape:cx="-0.54686088"
     inkscape:cy="204.43158"
     inkscape:document-units="mm"
     inkscape:current-layer="layer1"
     showgrid="false"
     inkscape:pagecheckerboard="true"
     height="147mm"
     inkscape:window-width="1920"
     inkscape:window-height="1055"
     inkscape:window-x="381"
     inkscape:window-y="0"
     inkscape:window-maximized="1"
     inkscape:snap-global="false" />
  <metadata
     id="metadata5">
    <rdf:RDF>
      <cc:Work
         rdf:about="">
        <dc:format>image/svg+xml</dc:format>
        <dc:type
           rdf:resource="http://purl.org/dc/dcmitype/StillImage" />
        <dc:title></dc:title>
      </cc:Work>
    </rdf:RDF>
  </metadata>
  <g
     inkscape:label="Layer 1"
     inkscape:groupmode="layer"
     id="layer1"
     transform="translate(0,-151)">
    <path
       style="fill:#000000;stroke-width:0.21605709"
       d="m 55.875316,299.2611 c -0.184689,-0.21571 -0.892816,-1.6968 -1.573616,-3.29132 -1.491562,-3.49342 -1.775063,-5.28277 -1.526122,-9.63219 0.210583,-3.67929 0.217406,-4.79373 0.04361,-7.12988 -0.07956,-1.06948 -0.293815,-4.42377 -0.476127,-7.45397 -0.400276,-6.65294 -0.790729,-11.71001 -0.89599,-11.60475 -0.0425,0.0425 -0.08997,1.50428 -0.105438,3.24835 -0.01543,1.74407 -0.101029,3.17103 -0.190152,3.17103 -0.256327,0 -0.412464,-1.89427 -0.311649,-3.781 0.112763,-2.11026 0.379202,-11.82119 0.373469,-13.61159 -0.0025,-0.71299 -0.02358,-4.11589 -0.0474,-7.562 -0.02376,-3.44611 0.01966,-7.33514 0.0966,-8.64228 0.07691,-1.30715 0.178215,-4.71005 0.225128,-7.56201 0.04691,-2.85195 0.192082,-8.10213 0.322606,-11.66708 0.208979,-5.70759 0.157398,-12.97331 -0.09388,-13.22459 -0.0924,-0.0924 -0.24567,1.46813 -0.476464,4.85102 -0.0878,1.287 -0.215501,1.9482 -0.359107,1.85944 -0.227156,-0.14039 -0.181106,-1.13023 0.267173,-5.74263 0.123916,-1.27497 0.262947,-4.2422 0.30896,-6.59384 0.06669,-3.40844 0.02285,-4.35893 -0.216321,-4.68597 -0.263395,-0.36021 -0.248365,-0.4464 0.123223,-0.70667 0.29877,-0.20926 0.401017,-0.48704 0.347729,-0.94468 -0.08734,-0.75009 -0.08414,-0.74593 -0.724125,-0.94265 -0.516273,-0.15869 -0.68562,0.0953 -1.00035,1.50007 l -0.145217,0.64817 0.432858,-0.54015 c 0.602475,-0.75179 0.57584,-0.10619 -0.03564,0.86423 -1.199266,1.90319 -1.254135,2.18027 -1.235327,6.23819 0.0097,2.09466 0.121221,4.48905 0.247796,5.32087 0.298903,1.96423 0.248616,20.11526 -0.06489,23.4244 -0.173083,1.82686 -0.165722,3.59009 0.02836,6.79629 0.173512,2.86644 0.202187,5.61028 0.08485,8.11993 -0.09746,2.08478 -0.191193,11.22827 -0.208274,20.31887 -0.02505,13.3247 -0.09991,17.32405 -0.386263,20.63346 -0.195358,2.25779 -0.457037,5.80653 -0.581517,7.88608 -0.124479,2.07955 -0.358893,4.36435 -0.520921,5.07734 -0.162029,0.71299 -0.359242,1.78247 -0.438248,2.37663 -0.20485,1.54056 -0.539466,2.48465 -0.880623,2.48465 -0.474437,0 -0.57745,-0.38265 -0.245553,-0.91214 0.506143,-0.80749 0.812127,-2.74526 1.322961,-8.37831 0.83597,-9.21834 0.964608,-10.88542 1.083667,-14.04371 0.15795,-4.18986 0.167522,-20.43945 0.01452,-24.63051 -0.06602,-1.80804 0.0096,-4.73171 0.178803,-6.91382 0.194862,-2.51294 0.25128,-5.41137 0.168227,-8.64229 -0.148684,-5.7838 -0.139497,-7.12079 0.143202,-20.8495 0.187567,-9.10877 0.173634,-10.76361 -0.09978,-11.85328 -0.17884,-0.71275 -0.306419,-2.12974 -0.291787,-3.24086 0.05592,-4.24654 -0.0037,-5.75538 -0.228014,-5.75538 -0.124504,0 -0.451635,0.24307 -0.72696,0.54015 -0.275325,0.29708 -0.608991,0.54014 -0.741494,0.54014 -0.132496,0 -0.427333,0.3646 -0.655187,0.81022 -0.783759,1.53277 -2.187184,2.60719 -2.187184,1.67444 0,-0.39496 0.180506,-0.40699 -1.620426,0.10803 -2.031873,0.58106 -2.48466,0.56761 -2.48466,-0.0738 0,-0.44876 0.103761,-0.50766 0.918246,-0.52129 1.082282,-0.0181 3.177648,-0.76031 3.880171,-1.37441 l 0.494985,-0.43269 -0.756199,0.11679 c -2.503511,0.38668 -2.92897,0.39261 -3.217555,0.0449 -0.381773,-0.46001 -0.142179,-1.1519 0.278106,-0.8031 0.227192,0.18856 0.325796,0.16904 0.422777,-0.0837 0.06957,-0.18128 0.275368,-0.3296 0.45735,-0.3296 0.181975,0 0.330861,-0.15836 0.330861,-0.35192 0,-0.29738 -0.167437,-0.32971 -1.08028,-0.20862 -1.049878,0.13927 -1.080286,0.12789 -1.080286,-0.40428 0,-0.30117 0.09723,-0.54758 0.216052,-0.54758 0.118833,0 0.216058,-0.27977 0.216058,-0.62172 0,-0.34194 0.161968,-0.75515 0.359922,-0.91824 0.325478,-0.26814 0.344985,-0.23656 0.203816,0.33002 l -0.156112,0.62654 1.470634,-0.134 c 1.920053,-0.17494 4.03226,-1.2312 4.86635,-2.43353 0.552272,-0.7961 0.587402,-0.98985 0.594157,-3.27677 0.008,-2.69615 6.13e-4,-2.70714 -1.472986,-2.19345 -0.742431,0.25882 -0.90226,0.60773 -0.302309,0.65994 0.704226,0.0613 0.809787,0.0863 1.080286,0.25563 0.602163,0.37699 0.191683,0.51239 -1.242327,0.40979 -1.299719,-0.093 -1.512403,-0.0585 -1.512403,0.2449 0,0.19422 -0.08075,0.35312 -0.179428,0.35312 -0.155181,0 -1.319728,1.46849 -1.828437,2.30565 -0.22312,0.36718 1.031817,1.14935 1.845824,1.15045 0.38374,4.4e-4 0.594158,0.11558 0.594158,0.3249 0,0.4228 -0.199265,0.40972 -1.678351,-0.11014 l -1.235449,-0.43423 -0.865716,0.94973 c -0.47614,0.52234 -1.287832,1.47124 -1.803762,2.10866 -2.327555,2.87566 -6.473179,5.76104 -7.904421,5.50151 -0.895855,-0.16246 -0.873727,-0.2467 0.144776,-0.55128 2.040955,-0.61033 4.867764,-2.54001 6.969235,-4.75744 0.632068,-0.66694 0.634751,-0.67879 0.10803,-0.47686 -0.297079,0.11389 -1.269336,0.63615 -2.160573,1.16059 -2.016898,1.18682 -2.842622,1.52616 -3.490411,1.43445 -0.462703,-0.0655 -0.441065,-0.10136 0.249559,-0.4133 1.959108,-0.88492 1.950277,-0.84325 0.167265,-0.78926 -0.995652,0.0301 -1.674775,-0.0366 -1.683,-0.16552 -0.0076,-0.11883 0.208826,-0.24923 0.480904,-0.28977 0.272079,-0.0405 0.673592,-0.23369 0.89226,-0.4292 0.218661,-0.19553 0.510338,-0.36631 0.648169,-0.37951 0.686815,-0.0658 0.79074,-0.10602 0.79074,-0.30589 0,-0.11883 -0.490954,-0.21606 -1.09101,-0.21606 -0.600061,0 -1.376219,-0.14748 -1.724799,-0.32774 -0.580929,-0.3004 -1.289271,-1.29377 -1.289271,-1.80803 0,-0.117 -0.09424,-0.4606 -0.209431,-0.76355 l -0.209426,-0.55084 -0.745695,0.43997 c -0.410136,0.24199 -0.863352,0.58174 -1.007154,0.75501 -0.143802,0.17327 -0.781682,0.46627 -1.417511,0.6511 -1.119685,0.32551 -1.731395,0.73986 -1.092247,0.73986 0.233599,0 0.305579,0.25814 0.282821,1.01426 l -0.0305,1.01426 -1.296344,0.39051 c -0.712985,0.21478 -1.733857,0.50136 -2.268596,0.63684 -0.962366,0.24382 -0.965924,0.2481 -0.349455,0.42069 0.800938,0.22423 2.685634,-0.13213 3.210377,-0.60702 0.323365,-0.29264 0.441879,-0.31016 0.580512,-0.0858 0.141194,0.22847 0.296136,0.2188 0.817933,-0.051 0.354055,-0.18309 0.834182,-0.28309 1.066954,-0.22221 0.507153,0.13262 0.926531,1.13207 0.785222,1.87131 -0.05598,0.29265 0.05304,0.83143 0.242253,1.19727 0.498493,0.96398 0.430126,2.54578 -0.165079,3.81946 -1.186901,2.53983 -5.152337,6.01035 -6.744909,5.90309 -0.512047,-0.0345 -0.98984,0.14364 -1.648807,0.61468 -1.399768,1.00059 -3.218461,1.86482 -3.445831,1.63744 -0.252396,-0.25239 0.0093,-0.95765 0.290807,-0.78368 0.263039,0.16257 1.948336,-0.56102 2.183913,-0.93767 0.09503,-0.15193 0.289484,-0.27815 0.432117,-0.28049 0.476702,-0.008 3.062514,-2.27124 3.500192,-3.06379 0.237659,-0.43036 0.748096,-1.24532 1.134297,-1.81102 0.386202,-0.56571 0.702187,-1.15773 0.702187,-1.3156 0,-0.56481 -0.576856,-0.27265 -1.032974,0.52317 -0.899695,1.56973 -3.199059,3.45599 -3.655937,2.99912 -0.09283,-0.0928 5.63e-4,-0.26354 0.207527,-0.37937 0.812188,-0.45452 0.317148,-0.5916 -0.695297,-0.19254 -1.255427,0.49485 -1.65887,0.24764 -0.485565,-0.29752 1.036545,-0.48161 3.501674,-2.13178 3.501674,-2.34404 0,-0.4056 -1.874083,0.13568 -3.789646,1.09454 -2.492236,1.24751 -5.828191,2.48686 -6.959193,2.58541 -1.034042,0.0901 -1.1343,0.0594 -1.1343,-0.34728 0,-0.57064 0.363929,-0.79718 0.756814,-0.47112 0.350215,0.29066 1.163969,0.15644 2.851004,-0.47023 1.303717,-0.48429 1.349769,-0.98069 0.100632,-1.08475 -0.740027,-0.0617 -0.786943,-0.10824 -0.719082,-0.71413 0.03993,-0.35649 0.151004,-0.73007 0.246834,-0.83018 0.09583,-0.10011 0.123278,-0.56193 0.061,-1.02627 -0.0739,-0.55099 -0.02831,-0.84426 0.131267,-0.84426 0.134478,0 0.244505,0.14584 0.244505,0.32409 0,0.18005 0.192051,0.32408 0.432114,0.32408 0.237663,0 0.432114,-0.13368 0.432114,-0.29708 0,-0.16339 0.300033,-0.35708 0.666739,-0.43042 1.085098,-0.21702 0.616284,-0.62552 -1.149821,-1.0019 -1.736807,-0.37013 -2.32566,-0.69132 -2.32566,-1.26854 0,-0.19379 -0.291677,-0.62764 -0.648171,-0.96411 -0.573725,-0.54151 -0.86617,-1.22331 -0.524711,-1.22331 0.203192,0 0.740768,0.60123 0.740768,0.82848 0,0.37515 1.984359,0.90047 3.333358,0.88242 1.287973,-0.0172 1.300063,-0.023 0.663698,-0.31434 -0.356494,-0.16323 -1.00898,-0.30118 -1.449969,-0.30653 -0.873797,-0.0106 -1.682859,-0.65814 -1.682859,-1.34683 0,-0.55092 0.607109,-0.49425 1.85832,0.17347 1.287406,0.68703 3.327048,0.76263 3.327048,0.12331 0,-0.44256 -3.016389,-1.32532 -4.053372,-1.18623 -1.295622,0.17378 -3.206631,-0.1192 -3.773095,-0.57846 -0.270451,-0.21927 -0.413523,-0.47715 -0.317939,-0.57305 0.09558,-0.0959 0.262172,-0.0314 0.370195,0.14344 0.141292,0.22865 0.713951,0.33921 2.040795,0.39401 1.958279,0.0809 2.267915,-0.0961 1.399056,-0.79964 -0.290638,-0.23535 -0.395186,-0.49129 -0.30097,-0.73682 0.206002,-0.53683 0.64553,-0.46507 1.117179,0.1824 l 0.406916,0.5586 -0.0108,-1.71303 -0.01079,-1.71304 -1.188314,-0.42687 c -0.867695,-0.31169 -1.206296,-0.54908 -1.25496,-0.87983 -0.101163,-0.68757 0.578733,-0.699 1.649686,-0.0277 0.703714,0.44107 1.110945,0.55738 1.646975,0.4704 0.396607,-0.0644 0.774806,-0.0141 0.853622,0.11342 0.161244,0.26089 2.275987,0.091 2.603333,-0.2092 0.124443,-0.11411 0.07106,-0.18821 -0.135589,-0.18821 -0.425748,0 -0.908048,-0.55647 -0.730831,-0.84321 0.08376,-0.13553 0.466763,-0.0931 1.044868,0.11585 1.065704,0.38512 3.222026,0.25757 4.191184,-0.24791 0.335767,-0.17513 0.732013,-0.31902 0.880555,-0.31974 0.3217,-0.001 0.362201,0.5644 0.05402,0.75487 -0.347526,0.21478 -0.248708,0.54064 0.162047,0.53432 0.20795,-0.003 0.62116,-0.40588 0.918239,-0.89487 0.297079,-0.48899 0.668325,-1.02081 0.824982,-1.18184 0.35618,-0.3661 0.168166,-0.99696 -0.517663,-1.73698 -0.840465,-0.90688 -0.697667,-1.12249 0.588572,-0.88872 1.32949,0.24165 1.678578,-0.0494 1.03717,-0.86486 -0.622226,-0.79104 -0.235503,-1.34074 0.94324,-1.34074 0.504122,0 1.10836,-0.13244 1.342755,-0.29432 0.430053,-0.297 2.335095,-0.68767 2.882817,-0.59118 0.162837,0.0287 0.584928,-0.0675 0.937972,-0.21373 0.532411,-0.22053 0.582963,-0.29886 0.296375,-0.45925 -0.190042,-0.10635 -0.445566,-0.13154 -0.567829,-0.056 -0.122268,0.0756 -0.616971,-0.0683 -1.099351,-0.31975 -0.482375,-0.25143 -1.232289,-0.46978 -1.666482,-0.48523 -0.757607,-0.0269 -1.474707,-0.25995 -3.013256,-0.97903 -0.678454,-0.31709 -0.736533,-0.30888 -1.253847,0.1771 -0.482864,0.45363 -0.504643,0.53724 -0.198304,0.76124 0.314559,0.23001 0.314222,0.28155 -0.0037,0.59968 -0.191426,0.19143 -0.447098,0.34805 -0.56816,0.34805 -0.121068,0 -0.598175,0.26737 -1.06024,0.59416 -0.615833,0.43553 -0.841359,0.74895 -0.84474,1.17396 -0.0037,0.46593 -0.11803,0.59323 -0.582105,0.64817 -0.781259,0.0925 -0.884542,0.55621 -0.183268,0.82283 0.701097,0.26656 0.600129,0.44975 -0.652487,1.18383 -1.871167,1.09658 -3.874127,1.43639 -6.518032,1.10583 -1.449212,-0.18119 -2.736129,-0.52742 -3.391083,-0.91233 -0.483833,-0.28434 -0.313481,-1.06063 0.190324,-0.8673 0.17344,0.0666 0.365787,0.0394 0.427438,-0.0604 0.06165,-0.0998 0.672425,-0.24712 1.357276,-0.32749 2.014567,-0.2364 2.071144,-0.26723 1.622561,-0.88418 -0.262038,-0.36039 -0.59199,-0.5211 -1.079563,-0.52581 -0.905599,-0.009 -0.934024,-0.52398 -0.05401,-0.97905 0.356494,-0.18435 0.651128,-0.50283 0.654742,-0.70773 0.0056,-0.31934 0.04157,-0.31084 0.251606,0.0596 0.379666,0.66953 0.467867,0.68373 2.599777,0.41853 2.80179,-0.34852 5.02711,-0.91218 5.451137,-1.38072 0.346931,-0.38336 0.283825,-0.39891 -1.76004,-0.43374 -1.165936,-0.0198 -2.703235,-0.0508 -3.416226,-0.0687 -0.712984,-0.0179 -1.967774,0.0898 -2.788409,0.23943 -1.021269,0.18617 -1.562113,0.20196 -1.714053,0.05 -0.330579,-0.33058 -0.119642,-0.43206 1.149125,-0.55285 0.632333,-0.0602 1.290689,-0.22645 1.463013,-0.36947 0.172323,-0.14302 0.959818,-0.29027 1.749989,-0.32724 0.790177,-0.0369 1.631131,-0.16037 1.868797,-0.27425 0.237659,-0.11387 1.404368,-0.51115 2.592683,-0.88284 1.188315,-0.37169 2.459047,-0.85734 2.82385,-1.07923 0.610327,-0.37122 0.702169,-0.37619 1.150295,-0.0623 0.267853,0.18761 0.98894,0.37525 1.602414,0.41699 0.613474,0.0417 1.149125,0.17701 1.190331,0.30063 0.04122,0.12362 0.173383,0.22476 0.293734,0.22476 0.527732,0 2.553916,0.69781 2.553916,0.87956 0,0.1104 -0.145836,0.20072 -0.324088,0.20072 -0.178246,0 -0.324081,-0.0942 -0.324081,-0.20927 0,-0.1151 -0.145842,-0.15331 -0.324088,-0.0849 -0.558324,0.21424 -0.357968,0.60095 0.616218,1.18938 0.974651,0.58872 3.002537,1.26538 3.792194,1.26538 0.249081,0 0.452872,0.10856 0.452872,0.24124 0,0.14079 -0.224798,0.19827 -0.539888,0.13804 -0.296938,-0.0568 -0.710149,0.0292 -0.91824,0.19087 -0.358409,0.27857 -0.356247,0.31116 0.04103,0.61816 0.62968,0.48659 1.052585,0.39238 1.461056,-0.32545 0.282398,-0.49629 0.521221,-0.6468 1.026268,-0.6468 0.362023,0 0.65822,0.0881 0.65822,0.19582 0,0.10771 0.205291,0.14215 0.456198,0.0765 0.41672,-0.10898 0.442669,-0.0577 0.299798,0.5928 -0.140489,0.63963 -0.115452,0.69426 0.245989,0.53677 0.221313,-0.0964 0.862911,-0.3298 1.425766,-0.51857 1.284715,-0.43087 1.356603,-0.88336 0.140336,-0.88336 -0.872355,0 -2.232179,-0.5798 -3.108227,-1.32528 -0.237666,-0.20224 -1.064081,-0.57855 -1.836485,-0.83624 -0.772404,-0.25769 -2.036338,-0.79598 -2.808741,-1.1962 -0.772404,-0.40022 -1.890503,-0.84352 -2.48466,-0.98513 -2.059476,-0.49084 -2.711345,-1.07034 -1.931775,-1.71733 0.246803,-0.20483 0.300692,-0.49338 0.201629,-1.07969 -0.123047,-0.72834 -0.0854,-0.81266 0.419384,-0.93935 0.744801,-0.18693 0.721712,-0.83912 -0.03963,-1.11848 -0.73262,-0.26884 -1.350356,-0.16027 -1.350356,0.23734 0,0.37181 -0.73262,1.0653 -2.161963,2.04653 -0.605861,0.4159 -1.346081,0.97639 -1.644942,1.24551 -0.760308,0.68466 -1.89125,1.11678 -2.666158,1.01871 -0.361251,-0.0457 -0.656823,-6.1e-4 -0.656823,0.10014 0,0.34451 -2.089192,1.52467 -2.699065,1.52467 -0.761306,0 -2.164687,-1.40418 -2.379113,-2.38045 -0.223237,-1.01639 0.04342,-1.03272 0.445711,-0.0273 0.222321,0.55564 0.63462,1.05991 1.103538,1.34972 0.730697,0.4516 0.768803,0.45357 1.592223,0.0822 0.463989,-0.20923 1.01462,-0.56937 1.223623,-0.80031 0.363431,-0.4016 0.361839,-0.43008 -0.03656,-0.65302 -0.506192,-0.28327 -0.995334,-0.82072 -1.940974,-2.13265 -0.927548,-1.28683 -1.080941,-1.80857 -0.759726,-2.58405 0.294525,-0.71104 0.641573,-0.83741 0.641573,-0.23361 0,0.21924 0.171804,0.5541 0.381787,0.74414 0.332441,0.30085 0.534891,0.31082 1.566414,0.0771 1.263267,-0.28621 1.223482,-0.21313 0.928786,-1.70602 -0.07159,-0.36267 -0.02358,-0.59416 0.123291,-0.59416 0.132319,0 0.240581,0.17501 0.240581,0.3889 0,0.50579 0.411882,0.90744 0.930555,0.90744 0.311637,0 0.371547,-0.0921 0.245909,-0.3781 -0.09136,-0.20795 -0.208451,-0.73482 -0.260197,-1.17081 -0.07242,-0.61017 -0.227113,-0.84781 -0.671767,-1.03199 -0.693863,-0.28741 -1.925687,-1.74024 -1.475515,-1.74024 0.164901,0 0.472477,0.19079 0.683513,0.42398 0.548617,0.60622 1.70958,0.93303 2.712551,0.76358 0.820989,-0.13871 1.134947,-0.55986 0.643692,-0.86347 -0.281014,-0.17368 -0.281014,-0.97226 0,-0.97226 0.118833,0 0.216059,0.13077 0.216059,0.2906 0,0.15983 0.194843,0.46693 0.432992,0.68245 0.357767,0.32378 0.526673,0.34917 0.972257,0.14615 0.408924,-0.18632 0.539265,-0.18416 0.539265,0.009 0,0.1929 0.06285,0.19178 0.259266,-0.005 0.142596,-0.14259 0.429704,-0.25927 0.638009,-0.25927 0.66081,0 1.452255,-0.46739 1.33017,-0.78553 -0.07899,-0.20585 -0.0061,-0.25783 0.233152,-0.16606 0.191481,0.0735 0.348144,0.22283 0.348144,0.33189 0,0.10905 0.228785,0.28527 0.508409,0.39158 0.391898,0.149 0.795003,0.0487 1.758907,-0.43746 0.68777,-0.34692 1.382632,-0.63076 1.544127,-0.63076 0.455856,0 0.350803,-0.35197 -0.339809,-1.13853 -0.93295,-1.06258 -1.049903,-1.76429 -0.368471,-2.21078 0.886502,-0.58086 1.338321,-0.35283 1.258532,0.63517 -0.07801,0.966 0.220407,1.25962 1.093747,1.07616 0.524027,-0.11008 0.594158,-0.0605 0.594158,0.41975 0,0.8338 0.369023,0.87575 0.634249,0.0721 0.186948,-0.56645 0.169475,-0.85328 -0.08279,-1.35895 -0.348745,-0.69908 -0.232294,-1.6 0.206823,-1.6 0.323273,0 0.538058,0.47632 0.538058,1.19323 0,0.28035 0.103429,0.57364 0.229838,0.65177 0.155635,0.0962 0.182889,-0.10822 0.08441,-0.63314 -0.112022,-0.59712 -0.06784,-0.80496 0.192321,-0.90479 0.18576,-0.0713 0.533397,-0.46121 0.772532,-0.86651 0.279434,-0.47361 0.600037,-0.73691 0.8973,-0.73691 0.356994,0 0.426255,-0.0863 0.303589,-0.3781 -0.08741,-0.20795 -0.206376,-0.59685 -0.264362,-0.86422 -0.09105,-0.41981 -0.01672,-0.48613 0.544807,-0.48613 0.407674,0 0.701813,0.13438 0.788474,0.36021 0.105353,0.27455 0.198206,0.30024 0.390409,0.10803 0.138707,-0.1387 0.652071,-0.25218 1.140815,-0.25218 0.705322,0 1.016714,-0.13371 1.50961,-0.64818 0.70433,-0.73516 0.990428,-0.78779 1.712091,-0.31494 0.718306,0.47066 2.501018,0.0444 2.501018,-0.59805 0,-0.30296 0.100741,-0.39092 0.341757,-0.29844 0.187965,0.0721 0.382417,0.13115 0.432117,0.13115 0.04967,0 0.09036,0.24306 0.09036,0.54014 0,0.29708 0.07749,0.54014 0.172207,0.54014 0.290869,0 1.704068,-1.57945 2.078131,-2.32261 0.354667,-0.70462 0.990514,-0.96319 0.990514,-0.4028 0,0.16467 -0.145241,0.57788 -0.322752,0.91825 -0.532632,1.02126 -0.398102,1.4786 0.24559,0.83491 0.633575,-0.63358 0.966819,-0.27279 0.475178,0.51445 -0.400735,0.64168 -0.0858,1.04915 0.882252,1.14147 0.730843,0.0697 0.880305,0.0188 0.880305,-0.29986 0,-0.26536 -0.166702,-0.38381 -0.54014,-0.38381 -0.300056,0 -0.540147,-0.12525 -0.540147,-0.28178 0,-0.3364 1.153278,-2.19698 1.491274,-2.40587 0.357876,-0.22118 0.286288,0.46734 -0.111753,1.07483 -0.340195,0.51921 -0.334787,0.53254 0.216059,0.53254 0.391432,0 0.567106,-0.11615 0.571864,-0.3781 0.0088,-0.48332 0.499345,-1.1343 0.854772,-1.1343 0.197544,0 0.236153,0.23587 0.138535,0.84633 -0.09277,0.58018 -0.05053,0.88332 0.134432,0.96396 0.184848,0.0806 0.116744,0.23056 -0.216371,0.47637 -0.267369,0.1973 -0.486128,0.49271 -0.486128,0.65646 0,0.44355 0.74115,0.35973 1.188315,-0.13438 0.215085,-0.23766 0.521828,-0.43211 0.681658,-0.43211 0.159829,0 0.290599,-0.17501 0.290599,-0.38891 0,-0.44841 0.397017,-0.90744 0.784855,-0.90744 0.44605,0 0.585105,0.85689 0.206878,1.27483 -0.385014,0.42543 -0.453559,0.88575 -0.131891,0.88575 0.116414,0 0.403951,-0.37692 0.638965,-0.83759 0.448046,-0.87824 1.093882,-1.33644 1.093882,-0.77606 0,0.49077 1.351318,0.39817 2.034782,-0.13944 0.719078,-0.56563 0.896081,-0.42049 0.582883,0.47795 -0.386931,1.10996 -0.325019,1.41811 0.191077,0.95105 0.402793,-0.36453 0.458923,-0.3668 0.827223,-0.0335 0.489871,0.44333 0.685174,0.45287 0.685174,0.0335 0,-0.18005 0.19205,-0.32409 0.432116,-0.32409 0.673586,0 0.512188,0.5054 -0.432116,1.35312 -0.475325,0.42671 -0.864228,0.87444 -0.864228,0.99495 0,0.47241 0.390685,0.41386 1.097324,-0.16443 1.125914,-0.92142 1.711417,-1.19353 1.711417,-0.79539 0,0.17775 -0.152805,0.44854 -0.33957,0.60176 -0.186765,0.15323 -0.527052,0.44874 -0.756198,0.65669 -0.229147,0.20796 -0.517792,0.3781 -0.641433,0.3781 -0.439233,0 -1.503651,0.95182 -1.503651,1.34458 0,0.33535 0.07072,0.36123 0.442816,0.16209 0.243552,-0.13034 0.553339,-0.47954 0.688407,-0.77599 0.219305,-0.48132 0.334567,-0.52397 1.077053,-0.39853 0.530034,0.0896 0.946246,0.0452 1.148077,-0.12229 0.515612,-0.42792 0.400913,0.48892 -0.148548,1.18746 -0.255837,0.32524 -0.534463,0.97032 -0.619158,1.4335 -0.146938,0.80354 -0.128087,0.84212 0.411147,0.84153 0.392118,-4.3e-4 0.697447,-0.20331 0.997257,-0.66264 0.539583,-0.82665 1.188315,-1.23248 1.188315,-0.74336 0,0.38936 0.835223,0.75845 1.716311,0.75845 0.463897,0 0.661851,-0.14074 0.835675,-0.59415 0.618735,-1.61392 0.549492,-1.85545 -0.35109,-1.22465 -0.359897,0.25208 -0.726875,0.30236 -1.398433,0.19163 -1.948195,-0.32126 -1.968761,-1.13008 -0.06051,-2.38041 0.534916,-0.35049 0.554404,-0.34719 0.554404,0.0937 0,0.25383 -0.138394,0.45696 -0.311336,0.45696 -0.335853,0 -0.666757,0.39027 -0.485002,0.57202 0.06112,0.0611 0.313933,0.003 0.561778,-0.13 0.365826,-0.19579 0.450619,-0.17876 0.450619,0.0905 0,0.18243 0.142895,0.33169 0.317546,0.33169 0.192075,0 0.433918,-0.3991 0.612066,-1.01005 0.303761,-1.04176 0.74937,-0.97943 0.486471,0.068 -0.108023,0.4304 -0.04489,0.56993 0.298586,0.65974 0.32274,0.0844 0.3881,0.20567 0.252297,0.46816 -0.100803,0.19484 -0.250276,0.81607 -0.33216,1.38052 -0.123267,0.84968 -0.09084,1.02627 0.188437,1.02627 0.185528,0 0.337329,0.14584 0.337329,0.32409 0,0.18437 -0.194053,0.32408 -0.450123,0.32408 -0.266861,0 -0.411337,0.10996 -0.354857,0.27007 0.05922,0.16794 0.454171,0.25767 1.044275,0.23727 0.521956,-0.018 0.827487,0.0144 0.678944,0.072 -0.148536,0.0577 -0.27007,0.19536 -0.27007,0.306 0,0.11064 0.583354,-0.0933 1.296345,-0.45323 0.712984,-0.35992 1.296338,-0.59407 1.296338,-0.52033 0,0.41595 -1.398078,1.79089 -2.257467,2.22008 -1.101654,0.5502 -1.63156,0.49155 -1.63156,-0.18057 0,-0.35756 -0.14014,-0.4389 -0.756199,-0.4389 -0.857062,0 -0.927432,0.17278 -0.357184,0.87701 0.330904,0.40865 0.561416,0.47833 1.350362,0.40819 0.523237,-0.0465 1.705042,-0.0689 2.626245,-0.0498 l 1.674909,0.0348 -0.135987,-0.90519 c -0.0748,-0.49785 -0.142877,-0.9538 -0.151304,-1.01322 -0.03926,-0.27716 0.33625,-1.08028 0.505138,-1.08028 0.104312,0 0.219292,0.46182 0.255512,1.02627 0.05873,0.91515 0.124333,1.03233 0.605991,1.08224 0.63072,0.0653 1.353479,-0.34594 0.918245,-0.52254 -0.61762,-0.25061 -0.238584,-0.54787 0.517682,-0.406 0.545982,0.10243 0.840777,0.062 0.96051,-0.13174 0.341167,-0.55202 0.407005,-0.0237 0.07899,0.63381 -0.358274,0.71817 -1.344556,1.43162 -2.313383,1.67342 -1.035033,0.25833 -0.645812,0.49568 0.934475,0.56985 1.24281,0.0583 1.59246,0.001 1.869972,-0.30636 0.368992,-0.40873 0.70648,-0.49615 0.70648,-0.18299 0,0.33579 -2.10193,2.22738 -3.181683,2.86328 -0.567284,0.3341 -1.371718,0.67128 -1.78763,0.74928 -0.415911,0.078 -0.998757,0.2321 -1.295218,0.34242 -0.508758,0.18931 -0.460246,0.23785 0.864228,0.86457 0.771785,0.36519 1.694924,0.66538 2.051416,0.66707 1.505826,0.007 2.420058,-0.20329 2.924395,-0.67315 0.323598,-0.30148 0.696534,-0.45121 0.962519,-0.38645 0.475441,0.11575 1.361729,-0.41776 1.110816,-0.66868 -0.08585,-0.0858 -0.344806,-0.0382 -0.575453,0.1058 -0.950956,0.59389 -3.233961,0.14419 -3.233961,-0.63701 0,-0.47902 -0.02719,-0.47702 0.947691,-0.0697 1.182925,0.49425 2.641084,0.006 3.880336,-1.30001 0.606787,-0.63934 0.613291,-0.64081 0.477659,-0.10802 -0.07563,0.29707 -0.177695,0.808 -0.226813,1.13538 -0.04912,0.32739 -0.166781,0.72853 -0.261478,0.89142 -0.503565,0.86624 -2.927978,2.29745 -3.185628,1.88057 -0.141077,-0.22826 -0.983598,-0.049 -0.983598,0.20922 0,0.0974 0.315189,0.20763 0.700416,0.24487 0.418294,0.0404 0.725564,0.20076 0.762849,0.39805 0.05389,0.28505 -0.197679,0.30999 -1.834719,0.1819 -1.043429,-0.0816 -1.924169,-0.12225 -1.957204,-0.0902 -0.03301,0.032 0.03877,0.31823 0.159628,0.63602 0.174473,0.4589 0.152346,0.60366 -0.107497,0.70337 -0.58927,0.22612 0.102652,0.72326 1.00664,0.72326 1.104968,0 1.075815,0.38894 -0.04256,0.56778 -0.781088,0.1249 -0.843931,0.17718 -0.557429,0.46368 0.177603,0.1776 0.78758,0.44089 1.355506,0.58509 1.221068,0.31005 1.520627,0.76008 0.505929,0.76008 -0.568863,0 -0.64782,0.054 -0.441848,0.30219 0.254238,0.30633 1.108929,0.48883 3.259034,0.69588 0.653577,0.0629 1.285541,0.23475 1.404374,0.38179 0.118833,0.14704 0.396736,0.33523 0.617565,0.41821 0.370015,0.13902 0.375362,0.19075 0.06811,0.65967 -0.248658,0.3795 -0.27108,0.57114 -0.08822,0.754 0.303497,0.3035 3.183546,0.32984 3.183546,0.0291 0,-0.11883 0.245149,-0.21606 0.544776,-0.21606 0.36762,0 0.622765,0.17117 0.784603,0.52637 0.341469,0.74944 0.116622,1.12593 -0.771987,1.29263 -0.476207,0.0893 -0.773451,0.26881 -0.773451,0.467 0,0.25494 -0.08988,0.27379 -0.432111,0.0906 -0.292975,-0.1568 -0.432117,-0.15925 -0.432117,-0.008 0,0.25548 -0.787421,0.30719 -0.938241,0.0616 -0.05475,-0.0891 -0.789669,-0.12976 -1.633184,-0.0903 -1.750901,0.0819 -1.972551,0.37796 -0.817449,1.09186 0.531639,0.32857 0.921394,0.40934 1.512403,0.31343 0.437905,-0.0711 0.796185,-0.0734 0.796185,-0.006 0,0.0682 -0.20471,0.47091 -0.454912,0.89498 -0.751795,1.2742 -0.260583,2.21295 1.922362,3.67376 0.92448,0.61866 0.921222,0.96989 -0.0091,0.97804 -0.466169,0.004 -0.469623,0.0949 -0.02915,0.7671 0.19191,0.2929 0.493993,0.53254 0.671283,0.53254 0.188199,0 0.273837,0.12643 0.205782,0.30379 -0.06412,0.16708 0.07132,0.47383 0.300968,0.68165 0.670101,0.60643 0.48069,0.81741 -0.26021,0.28984 -0.372765,-0.26543 -0.724106,-0.65986 -0.780764,-0.87651 -0.05665,-0.21665 -0.190133,-0.34006 -0.296619,-0.27425 -0.165495,0.10229 -1.046136,-0.76236 -1.525681,-1.49796 -0.100288,-0.15383 -0.328375,-0.13047 -0.70757,0.0725 l -0.559579,0.29948 0.805433,0.82483 c 0.442987,0.45367 0.920627,0.82485 1.061429,0.82485 0.140795,0 0.756186,0.34407 1.367541,0.7646 0.611349,0.42055 1.214963,0.70071 1.341353,0.62259 0.139289,-0.0861 0.197673,0.017 0.14823,0.26166 -0.06776,0.33532 -0.245082,0.39175 -1.047036,0.33323 -0.531009,-0.0388 -1.180335,-0.20859 -1.442946,-0.37741 -0.368006,-0.23658 -0.597024,-0.25249 -0.998941,-0.0694 -0.59439,0.27082 -1.010449,0.10595 -2.412612,-0.95609 -1.340404,-1.01527 -2.268595,-1.93259 -2.268595,-2.24204 0,-0.55416 0.826844,-0.26656 1.755764,0.61069 1.105366,1.04388 2.215974,1.91635 2.439406,1.91635 0.287023,0 -0.704661,-1.10284 -1.538132,-1.71056 -1.476556,-1.07661 -2.235633,-1.89916 -2.093766,-2.26887 0.261349,-0.68105 -0.32508,-1.00536 -1.729214,-0.95628 -0.778687,0.0272 -1.537826,-0.0726 -1.853774,-0.2436 -0.726176,-0.39316 -1.949609,-0.65385 -1.949609,-0.41542 0,0.10632 -0.291677,0.1933 -0.648169,0.1933 -0.356493,0 -0.64817,0.0972 -0.64817,0.21606 0,0.22049 0.270009,0.29155 0.885229,0.23295 0.18979,-0.0181 0.675925,0.34457 1.08028,0.80587 1.157044,1.31998 2.572258,1.899 3.173048,1.2982 0.140618,-0.14062 0.32312,-0.18822 0.405562,-0.10578 0.266903,0.26691 -1.061711,1.43243 -1.788249,1.56873 -0.729294,0.13682 -2.790723,-0.63739 -3.56652,-1.33948 -0.199375,-0.18043 -0.41288,-0.24656 -0.474449,-0.14695 -0.118998,0.19256 2.144851,2.65578 2.440815,2.65578 0.09607,0 0.226562,0.13519 0.289968,0.30044 0.190085,0.49534 2.329154,1.40805 3.657927,1.56078 0.68328,0.0785 1.242327,0.22419 1.242327,0.32369 0,0.0995 0.315985,0.13383 0.702186,0.0763 l 0.702187,-0.10461 -0.730598,0.33828 c -0.401831,0.18606 -0.846901,0.29366 -0.989044,0.23912 -0.142148,-0.0546 -1.287904,0.0268 -2.546124,0.18085 -1.880538,0.23019 -2.511993,0.22966 -3.548153,-0.003 -2.072074,-0.46521 -2.979111,-0.78035 -3.161712,-1.09846 -0.09503,-0.16554 -0.436569,-0.301 -0.758985,-0.301 -0.604214,0 -0.663492,-0.0727 -1.521473,-1.86669 -0.533293,-1.11508 -0.71323,-1.22504 -2.069698,-1.26491 -0.602003,-0.0177 -1.361925,-0.10866 -1.688708,-0.20216 -0.362451,-0.1037 -0.594157,-0.0866 -0.594157,0.0438 0,0.11761 0.451929,0.32763 1.004288,0.46671 0.705157,0.17756 0.936324,0.32086 0.77609,0.48109 -0.287059,0.28706 -1.24425,-0.0124 -3.698245,-1.15675 -1.864914,-0.8697 -3.051447,-1.22553 -3.051447,-0.91511 0,0.39146 1.192835,1.38919 1.660847,1.38919 0.401532,0 0.499725,0.11715 0.499725,0.5962 0,0.3622 0.169592,0.70211 0.432111,0.86606 0.237665,0.14842 0.432117,0.40914 0.432117,0.57936 0,0.43925 0.09795,0.47592 2.60604,0.97575 1.240386,0.24718 2.473171,0.56041 2.739529,0.69606 0.36296,0.18485 0.620052,0.18478 1.026269,-2.2e-4 0.445578,-0.20311 0.54199,-0.19021 0.54199,0.0724 0,0.1777 -0.195952,0.31945 -0.441586,0.31945 -0.300704,0 -0.421332,0.12063 -0.378105,0.3781 0.100349,0.59761 -1.886264,0.62078 -3.750719,0.0437 -0.8287,-0.25648 -1.547888,-0.42517 -1.598195,-0.37485 -0.11732,0.11732 2.1251,2.06678 3.13139,2.7223 l 0.768613,0.50068 -0.716818,-0.12011 c -0.725276,-0.12153 -1.939333,-0.97858 -3.71235,-2.6207 -1.180929,-1.09374 -2.18036,-1.56463 -1.241965,-0.58516 0.55041,0.57451 0.806149,1.36832 0.431749,1.34016 -0.08912,-0.007 -0.745395,-0.77903 -1.458385,-1.71627 -0.712991,-0.93725 -1.374346,-1.70956 -1.469679,-1.71627 -0.09533,-0.007 -0.143943,0.49199 -0.108029,1.10822 0.06369,1.09269 0.09203,1.13621 1.145591,1.75949 0.594158,0.35149 1.66364,0.94945 2.376631,1.3288 0.71299,0.37934 1.831082,0.97869 2.484653,1.33187 0.653578,0.35318 1.674444,0.82322 2.268602,1.04451 0.594158,0.2213 1.177512,0.52397 1.296345,0.67261 0.118832,0.14864 0.580653,0.47237 1.026268,0.71939 0.445621,0.24703 1.126201,0.62755 1.512403,0.8456 0.684175,0.38629 1.890496,0.77508 1.890496,0.60931 0,-0.0455 -0.394715,-0.35631 -0.877138,-0.69063 -0.482429,-0.33432 -0.968821,-0.77916 -1.080874,-0.98852 -0.387843,-0.7247 0.162929,-0.60114 1.099817,0.24673 1.121933,1.01533 2.714976,1.60474 3.84296,1.42185 0.437929,-0.071 1.314608,-0.1242 1.948176,-0.11822 1.304533,0.0124 1.923879,-0.31697 1.517381,-0.80677 -0.398315,-0.47994 0.122293,-0.90048 0.682025,-0.55092 0.547459,0.34189 0.645708,0.33347 0.645708,-0.0553 0,-0.17598 0.267375,-0.38349 0.594157,-0.46113 0.326789,-0.0776 0.764902,-0.28955 0.97358,-0.47091 0.208685,-0.18136 0.439773,-0.26941 0.513523,-0.19566 0.07375,0.0738 0.408618,-0.008 0.744146,-0.18137 0.766493,-0.39637 0.847569,-0.39415 0.847569,0.0231 0,0.40392 0.828124,0.23146 1.212127,-0.25243 0.357086,-0.44996 0.409971,-0.38128 0.391212,0.50806 -0.02578,1.22161 -0.06425,1.35024 -0.403896,1.35024 -0.172127,0 -0.564141,0.23279 -0.871142,0.51731 -0.307006,0.28452 -0.871062,0.57056 -1.253461,0.63565 -3.071162,0.52269 -4.47627,1.09477 -4.47627,1.82247 0,0.25981 0.258427,0.29063 1.458385,0.17387 0.802113,-0.078 1.895904,-0.16958 2.430642,-0.20344 0.534744,-0.0339 1.215324,-0.16154 1.512403,-0.28376 0.890012,-0.36613 1.728455,-0.52212 1.728455,-0.32157 0,0.1035 -0.704887,0.51471 -1.566414,0.91378 -1.485235,0.688 -1.726092,0.73165 -4.64748,0.8422 -1.844011,0.0698 -3.076636,0.20335 -3.070028,0.33266 0.02952,0.57735 3.819851,1.19423 5.454069,0.88765 0.418876,-0.0786 1.111662,-0.38044 1.539522,-0.6708 0.883318,-0.59943 1.087648,-0.25822 0.2918,0.4873 -0.708354,0.66356 -1.535143,0.91628 -2.997602,0.91628 -1.434003,0 -1.546448,0.29805 -0.194028,0.51431 0.477958,0.0764 0.869017,0.24359 0.869017,0.37146 0,0.40782 -1.732865,-0.0304 -3.462477,-0.87563 -0.899921,-0.43976 -2.470359,-1.00878 -3.489866,-1.26448 -2.693437,-0.67554 -3.087601,-0.8479 -2.781733,-1.21645 0.213841,-0.25767 0.39804,-0.23824 1.229753,0.12966 0.538033,0.238 1.027206,0.38376 1.087054,0.3239 0.25019,-0.25018 -1.016304,-0.7913 -2.629387,-1.1234 -0.95065,-0.19573 -2.020133,-0.47754 -2.376625,-0.62626 -0.356492,-0.14871 -1.037078,-0.34114 -1.512403,-0.42761 -0.475325,-0.0865 -1.642033,-0.47912 -2.592683,-0.87256 -0.95065,-0.39343 -2.409035,-0.98125 -3.240858,-1.30628 -2.238402,-0.87463 -2.500859,-1.01736 -3.226074,-1.75433 -0.364626,-0.37053 -0.886668,-0.74325 -1.160106,-0.82827 -0.273433,-0.085 -0.787219,-0.43813 -1.141746,-0.78469 -0.354532,-0.34656 -0.8357,-0.63011 -1.069262,-0.63011 -0.233568,0 -0.424669,-0.10242 -0.424669,-0.2276 0,-0.34049 -1.15092,-1.7169 -1.435633,-1.71691 -0.207699,0 -0.554882,4.72566 -0.515881,7.02185 0.0043,0.23766 -0.04722,5.39063 -0.113934,11.45102 -0.07589,6.89513 -0.02144,14.05112 0.145481,19.12106 0.146717,4.45618 0.301402,10.80015 0.343741,14.09772 0.05438,4.2351 0.148028,5.99559 0.318937,5.99559 0.17549,0 0.188523,0.60838 0.04746,2.21458 -0.313572,3.56996 -0.132172,19.48216 0.255543,22.41592 0.343135,2.59643 0.380537,2.93823 0.74474,6.8058 0.123095,1.30715 0.366407,3.30027 0.540697,4.42917 0.17429,1.1289 0.422434,2.73312 0.551427,3.56495 0.314013,2.02488 0.942548,4.13796 1.719067,5.77938 0.643221,1.35965 0.834549,2.42387 0.410332,2.28247 -0.232441,-0.0775 -1.112231,-2.00666 -1.576232,-3.4563 -0.331161,-1.03465 -0.571491,-1.26026 -0.571491,-0.53648 0,0.62999 -0.191162,0.72284 -0.630206,0.30608 -0.234236,-0.22234 -0.258991,-0.0791 -0.140079,0.81021 0.07944,0.59416 0.295279,1.61503 0.479643,2.2686 0.450429,1.59678 0.474957,1.77336 0.309548,2.22869 -0.137647,0.37888 -0.15387,0.37888 -0.478283,0 z m -2.337648,-9.21721 c -0.277732,-0.27774 -0.296546,0.21423 -0.06573,1.71899 l 0.162041,1.05642 0.06574,-1.27382 c 0.03613,-0.70059 -0.03675,-1.37631 -0.162047,-1.50159 z m 2.50209,0.77811 c -0.181572,-0.80278 -0.538352,-3.16105 -0.792835,-5.24061 -0.254489,-2.07955 -0.491083,-3.80983 -0.525766,-3.84509 -0.03466,-0.0352 -0.128442,0.28448 -0.208366,0.71051 -0.266775,1.42203 0.570303,6.94294 1.433716,9.45602 0.415642,1.20979 0.469672,0.58348 0.09325,-1.08083 z m -1.434874,-10.75606 c -0.08231,-0.36494 -0.167589,-1.31544 -0.189509,-2.11222 -0.02193,-0.79679 -0.133445,-1.66701 -0.247838,-1.93384 -0.145713,-0.33987 -0.17658,0.0648 -0.103093,1.35134 0.167222,2.92753 0.358514,4.2784 0.536061,3.78568 0.08471,-0.23509 0.08669,-0.72602 0.0043,-1.09096 z M 52.276306,258.04398 C 51.97954,254.11544 51.622,252.4419 51.596057,254.8599 c -0.008,0.74964 0.07763,2.01357 0.190379,2.80874 0.112745,0.79517 0.275563,2.32079 0.36182,3.39027 0.104416,1.29474 0.198494,1.73123 0.281541,1.30621 0.06859,-0.35106 -4.35e-4,-2.29558 -0.153491,-4.32114 z m 1.669698,-6.92047 c -0.118956,-0.29322 -0.172967,-0.0121 -0.165459,0.86101 0.01047,1.21856 0.02107,1.24468 0.176611,0.43532 0.091,-0.47355 0.08598,-1.0569 -0.01115,-1.29633 z m -0.706456,-9.67178 c -0.07341,-3.11932 -0.231088,-6.01178 -0.350386,-6.4277 -0.231413,-0.8068 -0.11228,9.08891 0.133305,11.07293 0.276335,2.23241 0.344586,0.772 0.217081,-4.64523 z M 24.118343,204.36847 c 1.568895,-1.20969 3.850738,-3.63649 4.302612,-4.57594 0.664081,-1.38063 0.607509,-3.65877 -0.09086,-3.65877 -0.42704,0 -0.369819,0.87169 0.07921,1.20677 0.344954,0.25742 0.317198,0.30374 -0.316707,0.52851 -0.556897,0.19746 -0.888971,0.60256 -1.672968,2.04081 -0.568251,1.04248 -1.61255,2.47376 -2.492034,3.4155 -0.832631,0.89158 -1.513879,1.68649 -1.513879,1.76648 0,0.26009 0.954423,-0.14492 1.704619,-0.72336 z m -1.931891,-2.39516 c 0.215868,-0.11554 0.450355,-0.36085 0.521074,-0.54515 0.102383,-0.2668 0.04894,-0.29244 -0.26242,-0.12582 -0.441812,0.23645 -1.026985,0.88102 -0.799829,0.88102 0.08177,0 0.325306,-0.0945 0.541175,-0.21005 z m 56.12755,-0.78471 c -0.0718,-0.0718 -0.258146,-0.0795 -0.414111,-0.017 -0.172354,0.069 -0.12116,0.12017 0.130537,0.13054 0.227756,0.009 0.355365,-0.0417 0.283574,-0.11348 z m -60.890923,-1.25065 c 0.52301,-0.27359 0.863297,-0.54154 0.756198,-0.59546 -0.107098,-0.0539 -0.802383,-0.0601 -1.54508,-0.0138 -1.136039,0.0709 -1.350357,0.14729 -1.350357,0.48135 0,0.35444 0.335447,0.5649 0.972257,0.60999 0.118832,0.008 0.643974,-0.20854 1.166982,-0.48213 z m 54.035608,-0.23925 c -0.14793,-0.17824 -0.414362,-0.32408 -0.592069,-0.32408 -0.177707,0 -1.356817,-0.53012 -2.620249,-1.17804 -1.263426,-0.64792 -3.172167,-1.60797 -4.241649,-2.13343 -1.069483,-0.52547 -2.421946,-1.21127 -3.005466,-1.52401 -1.136949,-0.60934 -1.323684,-0.60734 -1.112807,0.0119 0.176673,0.51883 1.593742,1.38372 3.470097,2.11794 0.831823,0.32549 1.658239,0.71368 1.836491,0.86266 0.178246,0.14896 1.053994,0.5189 1.9461,0.82207 0.892106,0.30318 2.15604,0.79478 2.808742,1.09244 1.426305,0.65047 1.907877,0.73096 1.51081,0.25252 z m 10.586796,-0.11384 c -0.590324,-0.15538 -0.931976,-0.0625 -0.764877,0.20783 0.05855,0.0947 0.376084,0.11864 0.705709,0.0532 l 0.599314,-0.11891 z m -62.98064,-3.70774 c 0.135074,-0.12592 -0.182521,-0.17629 -0.847343,-0.13442 -0.619513,0.039 -1.101305,0.1821 -1.154214,0.34278 -0.06887,0.20915 0.135938,0.24164 0.847336,0.13442 0.515991,-0.0778 1.035388,-0.23202 1.154221,-0.34278 z m 5.925885,-0.31264 c 0.246289,-0.3131 0.447796,-0.66393 0.447796,-0.77962 0,-0.2591 -1.15882,0.002 -1.260333,0.28459 -0.03963,0.11004 -0.243863,0.20009 -0.453889,0.20009 -0.210026,0 -0.697422,0.11 -1.083103,0.24445 -0.91462,0.31884 -0.490918,0.61194 0.891144,0.61647 0.83657,0.002 1.087697,-0.0947 1.458385,-0.56598 z m -10.571116,-0.0789 c -0.42312,-0.27344 -0.709139,-0.27344 -0.540143,0 0.07344,0.11883 0.297938,0.21457 0.49888,0.21275 0.314855,-0.003 0.320557,-0.0323 0.04126,-0.21275 z m 12.315257,-0.64817 c 0.148744,-0.27794 0.15417,-0.43211 0.01519,-0.43211 -0.118826,0 -0.320125,0.19445 -0.447318,0.43211 -0.148744,0.27794 -0.15417,0.43212 -0.01519,0.43212 0.118826,0 0.320125,-0.19446 0.447318,-0.43212 z m -5.131361,-0.14309 c -0.148536,-0.06 -0.391597,-0.06 -0.54014,0 -0.148536,0.0599 -0.02701,0.10897 0.27007,0.10897 0.297079,0 0.418613,-0.049 0.27007,-0.10897 z m 37.323868,-0.9372 c 0,-0.11883 -0.04067,-0.21606 -0.09036,-0.21606 -0.04967,0 -0.265268,-0.0671 -0.479048,-0.14915 -0.347183,-0.13323 -0.354839,-0.11103 -0.07169,0.20784 0.360951,0.40648 0.641095,0.47524 0.641095,0.15737 z m -2.819704,-1.43894 c -1.303896,-1.22364 -1.644887,-1.44601 -1.809329,-1.17994 -0.11092,0.17947 0.67467,0.93813 2.189774,2.11472 1.048929,0.81457 0.780286,0.1545 -0.380445,-0.93478 z m -35.329808,0.2352 c 0.561992,-0.562 0.392051,-0.74155 -0.686753,-0.72558 -1.340802,0.0198 -1.935125,0.23917 -1.533349,0.56589 0.646277,0.52553 1.773201,0.60659 2.220102,0.15969 z m 3.838673,-0.32003 c 0.452095,-0.12174 0.821987,-0.31481 0.821987,-0.42907 0,-0.3268 -1.790171,-0.22902 -2.255856,0.12321 -0.322594,0.244 -0.457001,0.25632 -0.582411,0.0534 -0.230874,-0.37357 -0.441727,-0.0896 -0.268551,0.36172 0.151512,0.39484 0.46912,0.37965 2.284831,-0.10927 z m 34.143819,-1.44651 c -0.07459,-2.1179 -0.19322,-2.6472 -0.593294,-2.6472 -0.175986,0 -0.319972,0.10192 -0.319972,0.22649 0,0.3105 -1.303724,0.83469 -1.717143,0.6904 -0.543166,-0.18956 -1.307657,-0.96519 -1.307657,-1.32672 0,-0.23956 0.09546,-0.19821 0.336337,0.1457 0.202523,0.28914 0.56231,0.48019 0.904318,0.48019 0.623261,0 1.568087,-0.75613 1.568087,-1.25493 0,-0.52398 -0.488995,-1.98593 -0.664252,-1.98593 -0.09006,0 -0.585106,0.39515 -1.100099,0.87811 -0.726789,0.68157 -1.069348,0.85919 -1.530519,0.79362 -0.575129,-0.0818 -0.594158,-0.0523 -0.594158,0.92057 0,0.72509 0.121062,1.12092 0.434591,1.42097 0.239032,0.22875 0.774597,0.76451 1.190153,1.19059 0.415556,0.42607 1.022098,0.90801 1.347876,1.07097 0.325778,0.16295 0.738162,0.41196 0.916408,0.55336 0.178246,0.14139 0.518539,0.30446 0.756204,0.36235 0.23766,0.0579 0.432111,0.11678 0.432111,0.13084 0,0.0141 -0.02652,-0.72816 -0.05898,-1.64938 z m 17.667645,1.35202 c 0,-0.0582 -0.896595,-0.55615 -1.992438,-1.10652 l -1.992431,-1.00066 0.559965,0.72842 c 0.313333,0.4076 0.97677,0.88978 1.506309,1.09477 0.913364,0.35359 1.918595,0.50239 1.918595,0.28399 z M 47.922665,191.3729 c 0.229851,-0.12302 0.417914,-0.41812 0.417914,-0.65578 0,-0.37993 -0.05873,-0.4012 -0.486128,-0.17611 -0.493741,0.26002 -0.800919,0.60015 -0.806909,0.8935 -0.0049,0.22853 0.384144,0.20115 0.875123,-0.0616 z m -26.98584,-0.6949 c 0.396386,-0.29518 1.097342,-0.594 1.557687,-0.66405 0.460338,-0.0701 0.853173,-0.15584 0.872967,-0.19063 0.01978,-0.0348 0.289632,-0.40853 0.599645,-0.83053 0.386913,-0.52667 0.530164,-0.94253 0.456829,-1.32615 -0.05873,-0.30737 0.0031,-0.76421 0.137384,-1.01519 0.191861,-0.35849 0.182368,-0.45633 -0.04428,-0.45633 -0.158666,0 -0.391162,0.10269 -0.516665,0.2282 -0.125502,0.1255 -0.752609,0.22827 -1.39357,0.22836 -1.275717,2.1e-4 -1.978143,0.14136 -1.837317,0.36922 0.04979,0.0806 -0.118943,0.16072 -0.374964,0.17811 -0.256021,0.0174 -0.903014,0.14618 -1.437752,0.2862 -0.534744,0.14002 -1.31255,0.20167 -1.728462,0.13699 -0.726215,-0.11292 -0.757787,-0.09 -0.796303,0.57803 -0.05763,0.9996 0.573373,2.67626 1.103071,2.93101 0.79161,0.38071 2.606537,0.13889 3.401705,-0.45324 z m 50.262418,-0.39026 c -0.268637,-0.36336 -0.523285,-0.55611 -0.565875,-0.42834 -0.04257,0.12778 0.149988,0.42183 0.427953,0.65346 0.687175,0.57262 0.705549,0.54263 0.137922,-0.22512 z m -46.516917,0.0125 c 0.07344,-0.11883 -0.01807,-0.21606 -0.203308,-0.21606 -0.185258,0 -0.336838,0.0972 -0.336838,0.21606 0,0.11883 0.09149,0.21606 0.203307,0.21606 0.11182,0 0.263394,-0.0972 0.336839,-0.21606 z m 14.432775,-0.55061 c 1.003994,-0.8011 0.678725,-0.93298 -0.767069,-0.31102 -1.511882,0.65039 -3.338317,0.80184 -4.213293,0.34937 -0.371105,-0.1919 -0.826728,-0.29059 -1.012501,-0.21929 -0.253093,0.0971 -0.337769,-0.0116 -0.337769,-0.43365 0,-0.45677 -0.102119,-0.56326 -0.540147,-0.56326 -0.647085,0 -0.70373,0.43316 -0.12511,0.9568 0.692719,0.6269 2.359531,0.97802 4.349207,0.91617 1.67788,-0.0521 1.920837,-0.11596 2.646682,-0.69512 z m 2.185861,-0.55431 c 0.319365,-0.25121 0.540097,-0.49731 0.490519,-0.54689 -0.125245,-0.12524 -1.441972,0.64236 -1.44365,0.84159 -0.0024,0.28554 0.356591,0.17454 0.953131,-0.2947 z m 7.900538,-0.58228 c -0.0024,-0.59442 -0.05665,-0.71495 -0.212751,-0.47337 -0.278663,0.4312 -0.278663,1.5766 0,1.40437 0.118832,-0.0734 0.21457,-0.49239 0.212751,-0.931 z m 11.67039,0.70219 c 0,-0.18526 -0.09881,-0.27576 -0.21958,-0.20113 -0.120768,0.0746 -0.163645,0.22622 -0.09528,0.33684 0.18521,0.29968 0.314858,0.2438 0.314858,-0.13571 z m -34.89322,-0.53329 c 0,-0.47203 -0.747979,-0.51809 -1.08973,-0.0671 -0.449559,0.59326 -0.384609,0.6809 0.387543,0.52298 0.402077,-0.0822 0.702187,-0.27707 0.702187,-0.45588 z m 11.829124,0.21059 c 0.461263,-0.1281 0.810216,-0.36021 0.810216,-0.53893 0,-0.3762 -0.03791,-0.37766 -2.010927,-0.0776 -1.958723,0.29789 -2.15236,0.35892 -1.987073,0.62636 0.175355,0.28374 2.152647,0.27763 3.187784,-0.01 z m 31.925574,-0.52554 c -0.401391,-0.41413 -0.777971,-0.70479 -0.836846,-0.64592 -0.142154,0.14216 1.069428,1.39888 1.348629,1.39888 0.119911,0 -0.110393,-0.33883 -0.511783,-0.75296 z m -41.414171,-0.28268 c 0.574296,-0.26221 1.17622,-0.47676 1.337605,-0.47676 0.16138,0 0.35351,-0.0972 0.426948,-0.21605 0.203197,-0.32879 -0.34104,-0.26081 -1.748648,0.21839 -2.082216,0.70887 -1.957209,0.64065 -1.594176,0.87 0.174914,0.11051 0.36664,0.17398 0.426053,0.14105 0.05941,-0.0329 0.577916,-0.27441 1.152218,-0.53663 z m 44.219776,0.53592 c 0,-0.0372 -0.312267,-0.35316 -0.693931,-0.70218 -0.381663,-0.34902 -0.556584,-0.44013 -0.388707,-0.20247 0.414056,0.58618 1.082638,1.14485 1.082638,0.90465 z m -13.414236,-1.04761 c -0.170695,-0.31894 -0.303644,-0.40242 -0.362016,-0.22729 -0.09487,0.28459 0.367418,0.99571 0.537034,0.82609 0.05212,-0.0521 -0.02664,-0.32157 -0.175018,-0.5988 z m 9.093092,0.15571 c 0,-0.17123 -0.0916,-0.36795 -0.203571,-0.43714 -0.34657,-0.2142 -0.520272,-2.04641 -0.250202,-2.63915 0.20553,-0.45108 0.304024,-0.49928 0.569703,-0.27878 0.176672,0.14662 0.50907,0.69125 0.73867,1.21029 0.229593,0.51904 0.450845,0.94372 0.491665,0.94372 0.04085,0 0.095,-0.27266 0.120394,-0.60591 0.02793,-0.36644 -0.169488,-0.89821 -0.499498,-1.34552 -0.300116,-0.40678 -0.605163,-1.11168 -0.677879,-1.56645 -0.104318,-0.65236 -0.205788,-0.79614 -0.480824,-0.68129 -0.191726,0.0801 -0.722925,0.24551 -1.18044,0.36765 -0.935847,0.24985 -1.351189,-0.0582 -0.989564,-0.73385 0.288657,-0.53937 0.255591,-0.62 -0.254251,-0.62 -0.308195,0 -0.416536,0.10084 -0.335424,0.31222 0.09032,0.23537 -0.09797,0.32843 -0.765091,0.3781 -1.207387,0.0899 -1.512918,0.59652 -0.807809,1.33951 0.289888,0.30546 0.697213,0.55707 0.905169,0.55912 0.207956,0.002 0.378099,0.0901 0.378099,0.19578 0,0.10563 0.121534,0.18196 0.27007,0.16962 0.148537,-0.0123 0.707589,0.10738 1.242327,0.26604 0.915827,0.27173 0.941788,0.29993 0.447275,0.48597 -0.288743,0.10861 -0.945015,0.1345 -1.458385,0.0575 -0.638499,-0.0958 -0.933403,-0.0618 -0.933403,0.10739 0,0.13605 0.145841,0.30334 0.324087,0.37173 0.178246,0.0684 0.324088,0.24433 0.324088,0.39096 0,0.14686 0.53366,0.38601 1.188309,0.53252 0.761594,0.17044 1.188316,0.37675 1.188316,0.57452 0,0.41082 -0.327499,0.3892 -1.63556,-0.10798 -1.501765,-0.57079 -2.651135,-1.27593 -2.930447,-1.79782 -0.173567,-0.32432 -0.27726,-0.36618 -0.403019,-0.1627 -0.133024,0.21524 -0.277285,0.19834 -0.673023,-0.0788 -0.552119,-0.38672 -0.839662,-0.4478 -0.839662,-0.17834 0,0.54143 3.590828,2.47016 5.509454,2.95927 1.459432,0.37205 1.620426,0.37322 1.620426,0.0118 z m -32.24652,-0.26971 c -0.207955,-0.0543 -0.548248,-0.0543 -0.756198,0 -0.207956,0.0543 -0.03779,0.0988 0.378099,0.0988 0.415906,0 0.586055,-0.0445 0.378099,-0.0988 z m -7.818948,-0.52508 c 0.511361,-0.12876 0.984788,-0.37754 1.052059,-0.55284 0.07916,-0.20631 0.370113,-0.30156 0.824902,-0.27004 0.942982,0.0653 2.320739,-0.21089 2.917187,-0.58488 0.26737,-0.16765 0.487617,-0.22965 0.489436,-0.13779 0.0065,0.32949 0.422263,-0.48894 0.425496,-0.83764 0.0024,-0.26913 -0.195247,-0.35562 -0.806902,-0.35291 -0.701587,0.003 -0.743178,0.0289 -0.31021,0.19262 0.275006,0.10397 0.442038,0.28284 0.371185,0.39749 -0.127965,0.20705 -0.671099,0.0964 -1.089816,-0.2221 -0.649749,-0.49416 -1.354441,-0.26619 -3.392861,1.09759 -1.905465,1.27483 -2.6733,1.9893 -1.762122,1.63965 0.193545,-0.0743 0.770285,-0.24039 1.281646,-0.36915 z m 23.581882,-1.10594 c -0.05169,-0.26875 -0.09593,-0.0997 -0.09832,0.37558 -0.0024,0.47533 0.03987,0.69522 0.09396,0.48865 0.05408,-0.20657 0.05604,-0.59547 0.0043,-0.86423 z m 21.711021,0.75368 c 0.04054,-0.20795 -0.02474,-0.69408 -0.145058,-1.08028 -0.261134,-0.83806 -0.826617,-0.97747 -0.657319,-0.16205 0.06168,0.29708 0.16261,0.78321 0.22429,1.08029 0.129207,0.62231 0.469696,0.71776 0.578087,0.16204 z m -38.89541,-0.12622 c 0.23995,-0.18247 1.051091,-0.26567 2.418774,-0.2481 2.054815,0.0264 2.058453,0.0255 2.544006,-0.63125 0.598242,-0.80916 0.56288,-1.76348 -0.09147,-2.46872 -0.440991,-0.47529 -0.596473,-0.50673 -1.956065,-0.39552 -0.812347,0.0664 -1.590153,0.21367 -1.728455,0.32717 -0.138309,0.11351 -0.494531,0.24004 -0.79161,0.28119 -0.400656,0.0555 -0.522637,0.18638 -0.472361,0.50683 0.123892,0.78973 0.06453,1.25573 -0.179171,1.40634 -0.439962,0.27192 -0.851127,1.25939 -0.571907,1.37353 0.380481,0.15553 0.438474,0.14493 0.828259,-0.15147 z m 0.526697,-1.31546 c 0.06488,-0.16906 0.275129,-0.36769 0.467235,-0.44141 0.286949,-0.11011 0.277989,-0.0552 -0.05022,0.30738 -0.470621,0.52003 -0.57846,0.55469 -0.417044,0.13403 z m 1.934917,-1.05229 c 0.08114,-0.21309 0.201948,-0.333 0.268472,-0.26647 0.06652,0.0665 1.34e-4,0.24085 -0.14752,0.38742 -0.213382,0.21179 -0.238198,0.18697 -0.120952,-0.12095 z m 12.847847,-0.0295 c 0.353614,-0.35362 0.233354,-0.95091 -0.220462,-1.09494 -0.739907,-0.23484 -0.86691,0.0675 -0.844586,2.01067 l 0.02156,1.87774 0.416879,-1.29187 c 0.229281,-0.71054 0.511251,-1.38625 0.626599,-1.5016 z m 10.989168,1.83381 c -0.534163,-0.44484 -1.056879,-0.57732 -1.056879,-0.26785 0,0.19427 1.352861,0.89833 1.488996,0.7749 0.04654,-0.0422 -0.147912,-0.27037 -0.432117,-0.50705 z m 10.910456,-0.2562 c 0.123609,-0.68461 0.07941,-0.80574 -0.349437,-0.95747 -0.343729,-0.12162 0.09218,-0.21055 1.453559,-0.29654 l 1.944514,-0.12281 -2.160572,-1.08029 c -1.548911,-0.77445 -2.35955,-1.0611 -2.863427,-1.01253 -0.642578,0.0619 -0.691102,0.11753 -0.565802,0.64817 0.07538,0.31923 0.306597,0.77487 0.513811,1.01253 0.207221,0.23767 0.500968,0.67518 0.652775,0.97226 0.248941,0.48717 1.145316,1.70882 1.207712,1.64597 0.01396,-0.014 0.08903,-0.37823 0.166867,-0.80929 z M 54.714457,186.056 c 0.520052,-0.52006 0.122685,-1.78509 -0.566083,-1.80212 -0.124492,-0.003 -0.398622,1.27748 -0.403987,1.88719 -0.0037,0.38318 0.550374,0.33462 0.97007,-0.0851 z m -26.606553,-0.6813 c 0.492559,-0.3324 1.06571,-0.66964 1.273665,-0.74942 0.672331,-0.25793 0.450809,-0.80713 -0.324087,-0.80347 -0.386202,0.002 -0.799964,0.0747 -0.919471,0.16204 -0.272979,0.19941 -1.403142,1.70785 -1.403142,1.87277 0,0.27404 0.526874,0.0891 1.373035,-0.48192 z m 54.473444,-1.35963 c -0.119555,-0.54434 -0.05745,-0.65826 0.473482,-0.86855 l 0.611085,-0.24204 -0.864227,-0.3912 c -0.475325,-0.21516 -1.350357,-0.40054 -1.944514,-0.41196 -1.266646,-0.0244 -2.780513,-0.64932 -3.122999,-1.28925 -0.160185,-0.29931 -0.166033,-0.45049 -0.01745,-0.45049 0.123009,0 0.223659,-0.10495 0.223659,-0.23322 0,-0.14549 -0.238107,-0.18093 -0.632963,-0.0942 -0.551972,0.12123 -0.773126,0.002 -1.728455,-0.93366 -0.602524,-0.58998 -1.095499,-1.23935 -1.095499,-1.44305 0,-0.34398 -0.03791,-0.34551 -0.53254,-0.0214 -0.579992,0.38002 -1.844085,0.47621 -1.844085,0.14031 0,-0.11473 0.488309,-0.27339 1.085131,-0.35256 0.972116,-0.12895 1.489975,-0.39264 1.247441,-0.63518 -0.04802,-0.048 -0.616819,0.0141 -1.263965,0.13802 -0.647153,0.12395 -1.444011,0.25479 -1.770794,0.29076 -0.326788,0.0359 -0.691383,0.0775 -0.810216,0.0924 -0.118833,0.0148 -0.216058,0.13557 -0.216058,0.26825 0,0.1443 0.229452,0.19739 0.570958,0.13211 0.432533,-0.0827 0.720621,0.044 1.188309,0.5224 0.339552,0.34735 0.617363,0.68081 0.617363,0.74102 0,0.0602 -0.510436,0.0508 -1.134297,-0.0208 -1.770194,-0.20336 -2.722044,-0.22533 -2.620121,-0.0605 0.05138,0.0831 -0.460657,0.18032 -1.137838,0.21605 -1.463554,0.0772 -1.771087,0.4922 -0.577162,0.77877 2.174199,0.52188 3.039431,0.59685 4.015277,0.34791 0.933575,-0.23816 0.978578,-0.23006 0.750503,0.13515 -0.326029,0.52204 0.04361,0.94755 1.446265,1.66483 1.487991,0.76091 4.209214,0.92479 4.38204,0.26388 0.162996,-0.6233 0.649547,-0.51811 1.032963,0.22333 0.253552,0.49031 0.48524,0.64817 0.951346,0.64817 0.338891,0 0.742817,0.1526 0.8976,0.33911 0.15479,0.1865 0.458507,0.29279 0.674927,0.2362 0.21642,-0.0566 0.348794,-0.0306 0.294176,0.0578 -0.155751,0.25201 0.535339,1.11806 0.774321,0.97037 0.117657,-0.0727 0.152003,-0.41415 0.07632,-0.75873 z m -12.310976,-4.51772 c 0.07344,-0.11883 0.176409,-0.21605 0.228809,-0.21605 0.05243,0 0.09528,0.0972 0.09528,0.21605 0,0.11884 -0.102965,0.21606 -0.22881,0.21606 -0.125845,0 -0.168716,-0.0972 -0.09528,-0.21606 z m -10.752966,4.60389 c 0.101011,-0.30339 -1.155176,-1.00773 -1.460602,-0.81897 -0.403761,0.24954 -0.220205,0.93622 0.276415,1.03407 0.7177,0.14142 1.08788,0.0742 1.184187,-0.2151 z m 2.542457,-0.42427 c -0.771522,-0.57582 -1.187973,-0.75498 -1.187973,-0.51108 0,0.27317 1.334788,1.11829 1.502053,0.95103 0.06474,-0.0647 -0.07661,-0.26271 -0.31408,-0.43995 z m -19.984942,-0.0745 c 0,-0.11883 -0.145835,-0.21606 -0.324088,-0.21606 -0.178246,0 -0.324081,0.0972 -0.324081,0.21606 0,0.11883 0.145835,0.21606 0.324081,0.21606 0.178253,0 0.324088,-0.0972 0.324088,-0.21606 z m -1.080286,-0.43212 c 0,-0.11883 -0.09723,-0.21606 -0.216059,-0.21606 -0.118826,0 -0.216052,0.0972 -0.216052,0.21606 0,0.11884 0.09723,0.21606 0.216052,0.21606 0.118833,0 0.216059,-0.0972 0.216059,-0.21606 z m -10.467138,-0.45093 c 0.0807,-0.13058 0.350215,-0.17103 0.606909,-0.0911 1.063787,0.33125 3.378518,0.27474 3.378518,-0.0825 0,-0.0794 -0.753498,-0.26429 -1.674444,-0.41092 -0.920946,-0.14662 -1.872539,-0.31987 -2.114663,-0.38497 -0.490544,-0.13191 -1.69531,0.67922 -1.493601,1.00559 0.170621,0.27607 1.120689,0.24961 1.297281,-0.0361 z m -9.373965,-0.44498 c 0.554631,-0.1204 1.17739,-0.40562 1.383918,-0.63383 0.368092,-0.40674 0.341769,-0.41241 -1.332491,-0.28731 -1.773837,0.13255 -3.019263,0.41711 -3.5007,0.79987 -0.722386,0.57431 1.071675,0.63738 3.449273,0.12127 z m 39.070189,0.0556 c 0,-0.10567 -0.191218,-0.42165 -0.424927,-0.70219 -0.407313,-0.48891 -0.425227,-0.4917 -0.432117,-0.0671 -0.0072,0.44431 0.360804,0.96145 0.684194,0.96145 0.09507,0 0.17285,-0.0865 0.17285,-0.19212 z m -44.399737,-0.24 c 0.07706,-0.12468 -0.123131,-0.21465 -0.473378,-0.21274 -0.471243,0.002 -0.534464,0.0501 -0.282823,0.21274 0.415108,0.26827 0.590405,0.26827 0.756201,0 z m 46.510793,-0.17554 c 0.04753,-0.14248 -0.111618,-0.25657 -0.357815,-0.25657 -0.310712,0 -0.40509,0.0997 -0.31547,0.33322 0.141505,0.36876 0.539931,0.3234 0.673285,-0.0767 z m -11.617573,-0.25657 c 0,-0.23766 -0.07292,-0.43904 -0.162041,-0.44751 -0.08912,-0.008 -0.526641,-0.0598 -0.972257,-0.11409 -0.625808,-0.0762 -0.810216,-0.0235 -0.810216,0.23146 0,0.1861 0.188529,0.33014 0.432117,0.33014 0.23766,0 0.432111,0.0972 0.432111,0.21606 0,0.11883 0.243067,0.21605 0.540146,0.21605 0.396105,0 0.54014,-0.11522 0.54014,-0.43211 z m -7.628508,-0.20111 c 0.06002,-0.22944 0.245351,-0.46945 0.411887,-0.53336 0.166537,-0.0639 0.302793,-0.25935 0.302793,-0.43431 0,-0.17496 0.09576,-0.3773 0.212807,-0.44963 0.131982,-0.0816 0.162751,0.11873 0.08102,0.52739 -0.177848,0.88924 0.432742,0.90366 0.889185,0.021 0.327303,-0.63293 0.323971,-0.64072 -0.42677,-0.99697 -0.669391,-0.31765 -0.812685,-0.3227 -1.242572,-0.0439 -0.267259,0.17338 -1.05882,0.37336 -1.759029,0.4444 -0.700209,0.071 -1.358606,0.21466 -1.463107,0.31916 -0.176078,0.17608 2.200969,1.56333 2.678756,1.56333 0.113266,0 0.255028,-0.18773 0.31503,-0.41717 z m 14.673865,-0.12851 c 0.334805,-0.51099 0.332998,-0.5728 -0.02848,-0.97226 -0.506284,-0.55943 -0.667608,-0.53894 -1.113426,0.14147 -0.360479,0.55016 -0.35648,0.58077 0.126985,0.97226 0.624461,0.50566 0.587568,0.5108 1.01495,-0.14147 z m -20.224837,0.12632 c 0,-0.11182 -0.09275,-0.26064 -0.206125,-0.3307 -0.297801,-0.18406 -1.325564,0.11194 -1.184003,0.34099 0.159248,0.25767 1.390128,0.24856 1.390128,-0.0103 z m 10.683423,-0.67938 c -0.06957,-0.11256 -0.218576,-0.14774 -0.331137,-0.0782 -0.112562,0.0696 -0.147734,0.21858 -0.07817,0.33114 0.06956,0.11255 0.21857,0.14773 0.331131,0.0782 0.112561,-0.0696 0.147734,-0.21857 0.07817,-0.33113 z m -17.057111,-0.41366 c 0.07344,-0.11883 0.03632,-0.21606 -0.08253,-0.21606 -0.118832,0 -0.276145,0.0972 -0.349583,0.21606 -0.07344,0.11883 -0.03632,0.21606 0.08253,0.21606 0.118832,0 0.276145,-0.0972 0.349583,-0.21606 z m -10.799652,-0.453 c 0.473561,-0.24916 1.006866,-0.60158 1.185112,-0.78317 0.290257,-0.2957 0.211319,-0.31312 -0.756198,-0.16686 -0.594158,0.0898 -1.565404,0.22349 -2.158325,0.29704 -0.764993,0.0949 -1.097949,0.23823 -1.146632,0.49362 -0.133323,0.69945 1.660554,0.79886 2.876043,0.15937 z m 28.918553,0.12891 c -0.0684,-0.17824 -0.211184,-0.32408 -0.317302,-0.32408 -0.106118,0 -0.192945,0.14584 -0.192945,0.32408 0,0.17825 0.142792,0.32409 0.317308,0.32409 0.193282,0 0.268692,-0.12667 0.192939,-0.32409 z m 6.835698,-0.43971 c 0,-0.17407 -0.142418,-0.31649 -0.316487,-0.31649 -0.34545,0 -0.827616,0.7284 -0.619758,0.93625 0.207851,0.20786 0.936245,-0.27431 0.936245,-0.61976 z m -5.670417,0.27767 c -0.04893,-0.14854 -0.319739,-0.30372 -0.601825,-0.34484 -0.447784,-0.0653 -0.476556,-0.031 -0.226697,0.27008 0.33837,0.4077 0.956542,0.46349 0.828522,0.0748 z m 12.152128,-0.27007 c -0.287574,-0.3465 -0.864228,-0.44261 -0.864228,-0.14404 0,0.29561 0.261882,0.46813 0.710639,0.46813 0.351108,0 0.377082,-0.0548 0.153589,-0.32409 z m 20.899027,0.19355 c -0.0718,-0.0718 -0.258146,-0.0795 -0.414111,-0.017 -0.172354,0.069 -0.12116,0.12016 0.130537,0.13053 0.227756,0.009 0.355365,-0.0417 0.283574,-0.11348 z m -44.71264,-0.7337 c 0.01801,-0.63216 -0.230341,-0.85679 -0.487378,-0.4409 -0.09497,0.15366 0.287917,1.08908 0.445774,1.08908 0.01274,0 0.03148,-0.29168 0.04158,-0.64818 z m 40.300402,-0.61273 c 0.565048,-1.28071 0.498414,-1.43182 -0.661674,-1.50051 -1.078798,-0.0639 -1.99746,0.27171 -1.99746,0.72966 0,0.35811 1.515135,1.59964 1.952163,1.59964 0.188168,0 0.505372,-0.37186 0.706971,-0.82879 z m -33.028606,0.0552 c 0.48219,-0.48219 0.176721,-0.85576 -0.326991,-0.3999 -0.223065,0.20187 -0.35351,0.45127 -0.289883,0.55422 0.158023,0.25568 0.223163,0.23939 0.616874,-0.15432 z m 12.976877,0.12544 c -0.07344,-0.11883 -0.279367,-0.21605 -0.457619,-0.21605 -0.178247,0 -0.263995,0.0972 -0.190551,0.21605 0.07344,0.11884 0.279367,0.21606 0.457613,0.21606 0.178247,0 0.263995,-0.0972 0.190557,-0.21606 z m 23.002366,-0.73305 c -0.494941,-0.47074 -1.288627,-0.64924 -1.288627,-0.28981 0,0.45389 0.219243,0.59071 0.946534,0.59071 0.57015,0 0.616028,-0.0404 0.342093,-0.3009 z m -17.276854,-0.088 c 0,-0.33189 -0.52233,-0.69138 -1.004551,-0.69138 -0.351354,0 -0.763689,-0.38912 -1.488157,-1.40437 l -1.002138,-1.40437 h -1.277377 c -0.991408,0 -1.277377,0.0726 -1.277377,0.32409 0,0.17824 0.170143,0.34071 0.378099,0.36104 0.207956,0.0203 0.523941,0.0586 0.702187,0.0851 0.178246,0.0265 0.421314,0.0615 0.540146,0.0779 0.118827,0.0164 0.0362,0.16612 -0.183684,0.33268 -0.58085,0.44005 -0.313456,0.67138 1.151789,0.99644 1.051942,0.23338 1.279257,0.35802 1.186411,0.65056 -0.132913,0.41877 0.310326,0.65033 0.933084,0.48748 0.235718,-0.0616 0.493895,-0.006 0.573733,0.1228 0.167485,0.27099 0.767835,0.3195 0.767835,0.062 z m -13.682114,-0.82617 c -0.167308,-1.03098 -0.23799,-1.07408 -0.903191,-0.55084 l -0.56435,0.44392 0.444941,0.44494 c 0.244721,0.24472 0.603504,0.44495 0.7973,0.44495 0.284321,0 0.327823,-0.15118 0.2253,-0.78297 z m 8.280689,-0.0813 c 0,-0.11883 -0.04287,-0.21606 -0.09528,-0.21606 -0.05242,0 -0.155371,0.0972 -0.228809,0.21606 -0.07344,0.11882 -0.03056,0.21605 0.09528,0.21605 0.125845,0 0.228809,-0.0972 0.228809,-0.21605 z M 39.84916,176.6143 c -0.0798,-0.20796 0.03626,-0.26212 0.409003,-0.19086 0.376262,0.0719 0.520413,0.002 0.520413,-0.2498 0,-0.25179 -0.200967,-0.34927 -0.720088,-0.34927 -0.618705,0 -0.712501,0.0684 -0.666175,0.48613 0.06948,0.62645 0.05157,0.59416 0.329097,0.59416 0.131541,0 0.189037,-0.13066 0.12775,-0.29036 z m 25.11686,-0.35782 c 0.09583,0 0.510259,0.1404 0.92094,0.312 0.410687,0.1716 1.273286,0.31347 1.916886,0.31529 1.468969,0.004 3.483338,-0.3804 3.326019,-0.63495 -0.06892,-0.11152 -0.333531,-0.11016 -0.631817,0.003 -0.815715,0.31014 -4.196885,0.0797 -5.677031,-0.38693 -1.013211,-0.31941 -1.395946,-0.36153 -1.554055,-0.17101 -0.443888,0.53484 0.727083,1.3601 1.224321,0.86286 0.165274,-0.16527 0.378908,-0.30049 0.474737,-0.30049 z m -38.949923,-0.96427 c 0.693551,-0.78826 1.368748,-0.81366 2.861583,-0.10766 0.722759,0.34181 1.314099,0.54344 1.314099,0.44808 0,-0.41818 -0.951286,-0.96651 -2.162042,-1.24622 -1.137182,-0.26271 -1.403522,-0.26111 -2.005299,0.0121 -0.381663,0.17327 -1.277297,0.48224 -1.990282,0.6866 -2.978799,0.85381 -3.034023,1.21343 -0.140133,0.91258 1.36337,-0.14175 1.73469,-0.26519 2.122074,-0.70547 z m 16.14374,0.62252 c 0.227382,-0.59255 0.146533,-0.73853 -0.409004,-0.73853 -0.57541,0 -0.709609,0.39228 -0.280873,0.82102 0.348481,0.34847 0.532962,0.32642 0.689877,-0.0825 z M 72.558351,175.693 c 0.137274,-0.16541 0.37312,-0.30074 0.524106,-0.30074 0.15098,0 0.330476,-0.14584 0.39888,-0.32409 0.0684,-0.17825 0.362525,-0.32408 0.653614,-0.32408 0.812212,0 1.212764,-0.22172 1.212764,-0.67129 0,-0.22495 0.09723,-0.409 0.216058,-0.409 0.118833,0 0.216059,-0.14584 0.216059,-0.32409 0,-0.17824 -0.05347,-0.32409 -0.118759,-0.32409 -0.266334,0 -1.384041,0.66699 -1.544949,0.92194 -0.158366,0.25093 -0.81394,0.4723 -3.197577,1.07972 -1.352108,0.34455 -3.173838,0.20717 -5.030607,-0.37938 -1.820904,-0.57523 -2.207308,-0.96945 -2.207308,-2.25198 0,-0.55873 -0.08978,-0.62713 -1.080286,-0.82297 -0.619513,-0.1225 -1.080286,-0.13122 -1.080286,-0.0205 0,0.10623 -0.263915,0.16516 -0.586478,0.13095 -0.416849,-0.0442 -0.60893,0.0473 -0.664099,0.31637 -0.06831,0.33313 0.0925,0.37387 1.340085,0.3395 1.445353,-0.0398 2.111687,0.17103 1.251416,0.396 -0.545474,0.14264 -0.573855,0.2728 -0.225956,1.03635 0.137905,0.30267 0.421479,0.55031 0.630164,0.55031 0.208691,0 0.413554,0.10237 0.455261,0.22749 0.14352,0.43057 3.965963,1.22089 5.721097,1.18288 0.693514,-0.015 1.437372,0.0883 1.653014,0.22954 0.449584,0.29451 1.099976,0.17948 1.463787,-0.25889 z m 1.218448,0.43295 c -0.07179,-0.0718 -0.25814,-0.0795 -0.414105,-0.017 -0.17236,0.069 -0.12116,0.12016 0.13053,0.13053 0.227763,0.009 0.355372,-0.0417 0.283575,-0.11348 z m 2.003033,-0.3664 c 0,-0.31132 -0.422128,-0.79941 -0.691383,-0.79941 -0.208771,0 -0.231346,0.73371 -0.02878,0.93625 0.247354,0.24735 0.720192,0.15751 0.720192,-0.13684 z M 56.332887,175.614 c 0.243606,-0.15401 0.261385,-0.26464 0.07284,-0.45319 -0.295768,-0.29577 -0.719207,-0.0884 -0.719207,0.35223 0,0.35945 0.190452,0.3892 0.646369,0.10096 z m -10.801049,-0.22174 c 0,-0.11884 -0.145842,-0.21606 -0.324088,-0.21606 -0.178246,0 -0.324087,0.0972 -0.324087,0.21606 0,0.11883 0.145841,0.21605 0.324087,0.21605 0.178246,0 0.324088,-0.0972 0.324088,-0.21605 z m 5.077337,-0.21606 c 0.07344,-0.11883 -0.02376,-0.21606 -0.216052,-0.21606 -0.192278,0 -0.289503,0.0972 -0.216059,0.21606 0.07344,0.11883 0.170664,0.21606 0.216059,0.21606 0.04538,0 0.142614,-0.0972 0.216052,-0.21606 z m 4.291251,-0.32408 c 0.08459,-0.22045 -0.01164,-0.32409 -0.300974,-0.32409 -0.234034,0 -0.425331,0.14576 -0.425331,0.32409 0,0.17824 0.135436,0.32408 0.300968,0.32408 0.165538,0 0.356933,-0.14584 0.425337,-0.32408 z m -6.980547,-0.21606 c -0.01696,-0.32069 -0.500307,-0.26177 -0.612452,0.0746 -0.06057,0.18172 0.03822,0.26272 0.26348,0.21605 0.198212,-0.041 0.355243,-0.17187 0.348972,-0.2907 z m -8.81574,-0.70798 c 0.207955,-0.18219 0.378099,-0.44695 0.378099,-0.58837 0,-0.14141 0.190789,-0.42978 0.423977,-0.64081 0.233189,-0.21103 0.537538,-0.73653 0.67633,-1.16778 0.138792,-0.43126 0.339515,-0.89443 0.446056,-1.02928 0.129845,-0.16437 0.02634,-0.2872 -0.313995,-0.37262 -0.279232,-0.0701 -0.95659,-0.47018 -1.505243,-0.88911 -0.548647,-0.41893 -1.190771,-0.76168 -1.426943,-0.76168 -0.549387,0 -1.324982,-0.9793 -1.324982,-1.67299 0,-0.46433 -0.07194,-0.51637 -0.548445,-0.39678 -0.619715,0.15554 -1.943809,-0.38167 -2.128774,-0.86369 -0.117455,-0.30607 -0.779698,-0.44136 -0.779698,-0.15928 0,0.0815 0.211404,0.37314 0.469776,0.64817 l 0.469776,0.50005 h -0.685834 c -0.555941,0 -0.685829,0.0872 -0.685829,0.46063 0,0.74938 0.809316,1.85513 1.447019,1.97703 0.638639,0.12209 1.197281,-0.0188 1.045903,-0.26371 -0.05353,-0.0866 0.03889,-0.15742 0.205292,-0.15742 0.166419,0 0.287322,0.0567 0.268679,0.12604 -0.08469,0.31488 0.561423,1.12412 1.133863,1.42014 0.796651,0.41196 1.084617,0.41255 1.084617,0.002 0,-0.52611 0.557766,-0.37027 0.832447,0.23259 0.220248,0.48339 0.345689,0.53836 0.952922,0.41757 l 0.699284,-0.13908 -0.648169,0.36354 c -0.356498,0.19995 -0.88175,0.42971 -1.167229,0.51057 -0.285485,0.0809 -0.601678,0.37036 -0.702658,0.64334 -0.148396,0.40115 -0.10065,0.51803 0.248983,0.60946 0.237923,0.0622 0.432589,0.20955 0.432589,0.3274 0,0.1204 -0.235504,0.15518 -0.537531,0.0794 -0.295646,-0.0742 -0.727108,-0.0165 -0.958808,0.12818 -0.413897,0.25848 -0.412996,0.27086 0.05138,0.70742 0.539724,0.50737 1.536736,0.48362 2.147117,-0.0511 z m 10.100668,0.38389 c 0.263474,-0.17027 0.235553,-0.21006 -0.149289,-0.21275 -0.260363,-0.002 -0.533471,0.0939 -0.606909,0.21275 -0.170009,0.27508 0.330536,0.27508 0.756198,0 z m 8.426225,-0.0935 c 0,-0.43007 -0.816476,-0.64724 -1.208906,-0.32155 -0.259861,0.21566 -0.268496,0.30403 -0.04367,0.44666 0.459174,0.29127 1.252554,0.21203 1.252554,-0.12511 z m 3.672975,-0.66273 c 0,-0.18005 -0.192057,-0.32409 -0.432117,-0.32409 -0.430439,0 -0.561992,0.23022 -0.288076,0.50414 0.263144,0.26314 0.720193,0.14888 0.720193,-0.18005 z m 11.523918,-0.4215 c 0.641898,-0.27584 0.897998,-0.29908 1.134298,-0.10297 0.608973,0.50539 0.314656,-0.74757 -0.346252,-1.47406 -0.743931,-0.81776 -1.234482,-0.89999 -1.332044,-0.22327 -0.03797,0.26339 -0.341898,0.62799 -0.675393,0.81021 -0.559407,0.30565 -0.629391,0.30035 -0.903865,-0.0684 -0.327817,-0.44045 -0.530825,-0.37186 -1.460566,0.49349 -1.094574,1.01877 -0.640544,1.32696 1.566415,1.06329 0.653571,-0.0781 1.561405,-0.3023 2.017407,-0.49826 z m -7.395399,0.15143 c -0.114307,-0.20796 -0.357699,-0.57256 -0.540875,-0.81022 -0.326036,-0.42302 -0.333189,-0.42051 -0.33992,0.11884 -0.0075,0.59956 0.34409,1.06948 0.800142,1.06948 0.209872,0 0.231847,-0.10303 0.08065,-0.3781 z m -23.495803,-0.37942 c 0.929606,-0.38841 1.162715,-1.04603 0.691279,-1.95014 -0.183899,-0.35267 -0.334959,-0.85731 -0.335694,-1.12142 -6.12e-4,-0.34427 -0.351372,-0.71182 -1.238021,-1.29855 -0.709934,-0.46979 -1.430133,-1.16321 -1.690839,-1.62798 -0.24978,-0.44529 -0.519684,-0.74407 -0.599792,-0.66396 -0.0801,0.0801 -0.145646,-0.0164 -0.145646,-0.21445 0,-0.25607 -0.187255,-0.36009 -0.648175,-0.36009 -0.807209,0 -0.887966,0.57975 -0.108029,0.7755 0.297078,0.0746 0.540146,0.26748 0.540146,0.42871 0,0.474 1.177548,1.65468 2.462195,2.46876 0.687844,0.43588 1.197018,0.91635 1.202047,1.13429 0.0049,0.20796 -0.08395,0.37811 -0.19722,0.37811 -0.196546,0 -1.090398,1.79363 -1.090398,2.18803 0,0.26718 0.266641,0.23568 1.158147,-0.13681 z m 26.763272,-0.70141 c 0.443435,-0.42988 0.771062,-0.81678 0.728062,-0.85978 -0.136722,-0.13672 -3.035027,0.43788 -3.323979,0.659 -0.217681,0.16657 -0.172483,0.3237 0.210326,0.73118 0.629514,0.67009 1.301305,0.52073 2.385591,-0.5304 z m -16.786061,0.36503 c 0.07807,-0.12632 -0.01341,-0.40135 -0.203307,-0.61117 -0.189889,-0.20983 -0.345248,-0.5822 -0.345248,-0.8275 0,-0.57181 -0.506051,-0.76378 -1.190875,-0.45175 -0.349749,0.15935 -0.537586,0.42155 -0.537586,0.7504 0,0.49209 0.168961,0.591 0.890716,0.52142 0.19281,-0.0186 0.402468,0.16467 0.465899,0.40724 0.122312,0.46773 0.68246,0.59635 0.920401,0.21136 z m -19.016273,-0.43476 c 0.169751,-0.53483 -0.06057,-0.8506 -0.317339,-0.4351 -0.130653,0.21139 -0.410608,0.24915 -1.011514,0.13642 l -0.830868,-0.15587 0.40858,0.45147 c 0.544042,0.60117 1.56075,0.60295 1.751141,0.003 z m 22.217764,-0.0945 c -0.06898,-0.17976 -0.0037,-0.47379 0.145597,-0.65339 0.434646,-0.52372 0.02652,-0.66132 -0.47475,-0.16006 -0.489999,0.49 -0.415587,1.14029 0.130488,1.14029 0.200521,0 0.276268,-0.12461 0.198665,-0.32684 z m 4.02801,0.023 c 0,-0.19748 -0.151274,-0.2643 -0.432117,-0.19086 -0.237659,0.0622 -0.432111,0.19889 -0.432111,0.30386 0,0.10497 0.194452,0.19086 0.432111,0.19086 0.237666,0 0.432117,-0.13674 0.432117,-0.30386 z M 47.32912,171.58177 c -0.240654,-0.36729 -0.406486,-0.46993 -0.466824,-0.28892 -0.05145,0.15441 0.08422,0.41075 0.301531,0.56965 0.561202,0.41036 0.588137,0.36461 0.165293,-0.28073 z m 28.757124,0.22244 c 0.845898,-0.3246 0.121203,-0.93868 -1.116628,-0.94619 -0.561025,-0.003 -0.583428,0.0632 -0.218098,0.64815 0.272164,0.43581 0.716916,0.53512 1.334726,0.29804 z M 54.05241,170.96183 c 0.660828,-0.86639 0.577707,-1.18705 -0.307723,-1.18705 -0.340992,0 -0.78311,-0.16312 -0.982485,-0.3625 -0.263627,-0.26362 -0.455855,-0.30361 -0.704759,-0.1466 -0.576109,0.3634 -0.532497,0.68925 0.10534,0.78712 0.581003,0.0892 0.586172,0.10013 0.120836,0.25684 -0.648568,0.21842 -0.61808,0.72014 0.05402,0.88882 0.297079,0.0746 0.54014,0.22225 0.54014,0.32821 0,0.44551 0.638003,0.13871 1.174634,-0.56484 z m -33.367141,0.25862 c 0,-0.49228 -0.553884,-1.06353 -0.953137,-0.98303 -0.354514,0.0715 -0.347979,0.12374 0.08398,0.67166 0.502658,0.63761 0.869158,0.7689 0.869157,0.31137 z m 2.357749,-0.45293 c 0.225202,-0.17453 0.32903,-0.16574 0.396105,0.0336 0.142026,0.42198 0.645107,0.31783 1.014895,-0.21012 0.443772,-0.63358 0.424229,-0.81615 -0.08736,-0.81615 -0.233035,0 -0.62628,-0.21744 -0.873874,-0.48321 l -0.450177,-0.48321 -1.016623,0.57576 c -1.210339,0.68546 -1.364455,1.11544 -0.552315,1.54097 0.604116,0.31653 1.010204,0.27575 1.569348,-0.15758 z m 13.306391,0.2514 c -0.656352,-0.38752 -1.171951,-0.4204 -0.66089,-0.0421 0.230665,0.17073 0.570958,0.30746 0.756198,0.30384 0.253963,-0.005 0.230519,-0.0693 -0.09531,-0.2617 z m -4.429174,-0.39086 c -0.297073,-0.2384 -0.718968,-0.53599 -0.937531,-0.66129 -0.328847,-0.18854 -0.38442,-0.16046 -0.322177,0.16276 0.07836,0.4069 0.915354,0.93641 1.475766,0.93361 0.217082,-0.001 0.145744,-0.14474 -0.216058,-0.43508 z m 17.284572,0.10623 c 0,-0.18526 -0.09881,-0.27577 -0.21958,-0.20113 -0.120774,0.0746 -0.163645,0.22622 -0.09528,0.33684 0.18521,0.29968 0.314858,0.2438 0.314858,-0.13571 z m 8.171184,-0.14708 c -0.03797,-0.26616 -0.239484,-0.51641 -0.447795,-0.55612 -0.478792,-0.0913 -0.763236,0.58393 -0.354918,0.84248 0.53886,0.3412 0.875129,0.22124 0.802713,-0.28636 z m 10.625785,-0.61328 c 0,-0.28611 2.774359,-2.87363 3.286572,-3.06524 0.243159,-0.091 0.551103,-0.0759 0.684322,0.0335 0.55414,0.4551 4.76284,-0.31578 6.291816,-1.15245 0.638547,-0.34941 0.6241,-0.35304 -0.972257,-0.24461 -0.891237,0.0605 -2.155171,0.16917 -2.808742,0.2414 -1.317829,0.14566 -2.376624,-0.14467 -2.376624,-0.65167 0,-0.76107 -0.815006,-0.19089 -2.988213,2.09055 -1.267854,1.331 -2.522368,2.62892 -2.787802,2.88428 -0.26544,0.25536 -0.427897,0.519 -0.361024,0.58587 0.171913,0.17192 2.031952,-0.4887 2.031952,-0.72168 z m -3.110321,0.0754 c -0.219629,-0.21963 -0.40084,0.11103 -0.220646,0.40259 0.136122,0.22026 0.187016,0.22043 0.260197,6.2e-4 0.05004,-0.15012 0.03222,-0.33168 -0.03956,-0.40348 z m 8.985417,-0.0993 c 1.107393,0.0507 1.28352,0.0116 1.075975,-0.23842 -0.136496,-0.16446 -0.638229,-0.41589 -1.114963,-0.55872 -0.497263,-0.14899 -0.866794,-0.39417 -0.866794,-0.57511 0,-0.17348 -0.08507,-0.31542 -0.189049,-0.31542 -0.103981,0 -0.492884,-0.0608 -0.864234,-0.13503 -0.582056,-0.11641 -0.675178,-0.0734 -0.675178,0.31173 0,0.24573 -0.204055,0.79262 -0.453455,1.21532 -0.581725,0.98595 -0.266175,0.99349 0.516684,0.0124 0.609873,-0.76434 1.233115,-0.99966 1.233115,-0.46559 0,0.15983 -0.19216,0.4645 -0.427021,0.67705 -0.23486,0.21255 -0.365856,0.48541 -0.291101,0.60636 0.08059,0.1304 0.25719,0.0541 0.433893,-0.1876 0.245768,-0.33611 0.530028,-0.3969 1.622128,-0.34691 z m -9.547899,-0.28336 c 1.772239,-0.69454 2.376459,-1.10395 2.376459,-1.61026 0,-0.35275 -0.09094,-0.38597 -0.631909,-0.23083 -0.34755,0.0997 -0.702193,0.1172 -0.788101,0.039 -0.0859,-0.0783 -0.102584,0.0755 -0.03705,0.34164 0.105041,0.4267 -0.01256,0.52378 -0.994372,0.82091 -0.612427,0.18534 -1.599628,0.38899 -2.193785,0.45256 -1.598727,0.17105 -1.726869,0.23064 -1.384065,0.64369 0.373199,0.44967 1.793099,0.27217 3.652832,-0.45665 z m -30.896335,0.25378 c 0,-0.0387 -0.243067,-0.29871 -0.540146,-0.5778 -0.378283,-0.35539 -0.54014,-0.41439 -0.54014,-0.19692 0,0.25971 0.178846,0.40236 1.026268,0.81856 0.0297,0.0146 0.05402,-0.005 0.05402,-0.0439 z m 12.315252,-0.35414 c 0,-0.25404 -0.855096,-0.73692 -1.017449,-0.57457 -0.06392,0.0639 -0.05867,0.26625 0.01176,0.44962 0.138247,0.36029 1.005715,0.46806 1.005715,0.12495 z m 4.955209,-0.0986 c 0.209255,-0.25215 0.174731,-0.28614 -0.192969,-0.18998 -0.540471,0.14133 -0.80689,0.49706 -0.372275,0.49706 0.170713,0 0.425074,-0.13819 0.565244,-0.30708 z m -30.449947,-0.12502 c 0.241695,-0.15619 0.122085,-0.21028 -0.470444,-0.21275 -0.598665,-0.002 -0.904925,-0.14364 -1.242327,-0.57258 -0.246289,-0.31311 -0.447795,-0.44091 -0.447795,-0.284 0,0.45606 0.898187,1.28569 1.388015,1.28208 0.246656,-0.002 0.594305,-0.0976 0.772551,-0.21275 z m 11.522766,-0.46705 c 0.132184,-0.50548 -0.174314,-1.26141 -0.511453,-1.26141 -0.244653,0 -0.254838,0.14617 -0.07342,1.05328 0.156994,0.78497 0.410443,0.87516 0.584873,0.20813 z m 18.836601,-0.18653 c 0.05978,-0.0967 -0.03809,-0.32255 -0.217412,-0.50189 -0.430335,-0.43034 -0.43001,-1.03144 4.29e-4,-0.86625 0.234419,0.09 0.288553,0.0263 0.191885,-0.22558 -0.07406,-0.19299 -0.01268,-0.49785 0.136373,-0.67745 0.368239,-0.4437 0.09259,-0.66677 -0.361925,-0.29289 -0.332704,0.27368 -0.353975,0.24139 -0.235448,-0.35749 0.1878,-0.94885 -0.07928,-1.29614 -0.732129,-0.95204 -0.636576,0.33552 -0.830133,0.61556 -0.834384,1.20715 -0.0018,0.26234 -0.383188,0.80419 -0.884861,1.25742 -0.977401,0.88303 -0.993637,1.4125 -0.04348,1.41773 0.330512,0.002 0.718025,0.0777 0.861135,0.16869 0.319549,0.20311 1.969961,0.065 2.119771,-0.1774 z m 11.283662,-0.25673 c 0.147452,-0.12078 0.55553,-0.17742 0.906835,-0.12586 0.351305,0.0516 0.591285,0.017 0.533287,-0.0769 -0.058,-0.0938 0.117277,-0.2213 0.389509,-0.28324 1.913138,-0.43528 2.542995,-0.53828 3.32006,-0.54294 0.653093,-0.004 1.010302,-0.14337 1.382718,-0.53979 0.38287,-0.40754 0.430304,-0.55694 0.199706,-0.62896 -0.95577,-0.2985 -1.311552,-0.2741 -1.81862,0.12476 -0.572563,0.45038 -1.256358,0.39447 -1.069146,-0.0874 0.05947,-0.15304 0.495334,-0.49991 0.968613,-0.77083 1.116494,-0.63911 1.175087,-1.23544 0.104318,-1.06168 -0.64033,0.10392 -0.756198,0.0603 -0.756198,-0.28482 0,-0.22414 0.340286,-0.66708 0.756198,-0.98431 0.942909,-0.71919 1.015814,-1.38973 0.151103,-1.38973 -1.048795,0 -1.713531,0.46317 -2.010909,1.40112 -0.151268,0.47712 -0.548194,1.22176 -0.882056,1.65477 -0.715435,0.9279 -0.826838,1.53116 -0.173586,0.93997 0.475086,-0.42994 0.476679,-0.42943 0.841243,0.27127 0.215103,0.41344 0.197544,0.48613 -0.117443,0.48613 -0.203693,0 -0.702205,0.12 -1.107797,0.26666 -0.643809,0.23281 -0.77244,0.21879 -1.013168,-0.11042 -0.2253,-0.30812 -0.319194,-0.32472 -0.513364,-0.0908 -0.130702,0.15749 -0.74907,0.52316 -1.374156,0.81262 -1.068643,0.49484 -1.90201,1.11511 -1.90201,1.41567 0,0.20852 2.884856,-0.14956 3.184863,-0.39533 z m -36.241599,-0.16999 c 0,-0.4506 -0.352143,-0.53449 -1.242326,-0.29593 -0.844079,0.22621 -0.583459,0.72805 0.378099,0.72805 0.720186,0 0.864227,-0.072 0.864227,-0.43212 z m 1.512397,-0.64817 c 0,-0.28369 -0.144034,-0.43211 -0.419359,-0.43211 -0.474817,0 -0.752383,0.3254 -0.552898,0.64817 0.249027,0.40293 0.972257,0.24221 0.972257,-0.21606 z m 16.420345,0.3268 c 0,-0.0579 -0.413211,-0.36414 -0.918245,-0.68047 -0.505035,-0.31633 -0.979919,-0.66969 -1.055299,-0.78524 -0.199975,-0.30655 -0.680641,-0.0858 -0.743343,0.34144 -0.02964,0.20208 0.02456,0.3189 0.120529,0.2596 0.09595,-0.0593 0.228675,0.0335 0.294954,0.20622 0.158476,0.41299 2.301404,1.02609 2.301404,0.65845 z m 9.147238,-0.33652 c -0.276488,-0.27057 -1.247306,-0.34178 -1.369183,-0.10042 -0.05941,0.11766 0.183648,0.27046 0.54014,0.33955 0.723004,0.14013 1.104215,0.0302 0.829043,-0.23913 z m -22.542783,0.01 c 0,-0.11883 -0.04287,-0.21606 -0.09528,-0.21606 -0.05242,0 -0.155365,0.0972 -0.228803,0.21606 -0.07344,0.11884 -0.03056,0.21606 0.09527,0.21606 0.125845,0 0.228809,-0.0972 0.228809,-0.21606 z m 24.528313,0.009 c -0.07023,-0.11364 -0.27042,-0.15185 -0.444862,-0.0849 -0.446614,0.17139 -0.393986,0.29153 0.127701,0.29153 0.244672,0 0.387396,-0.093 0.317161,-0.20662 z m 7.104181,-2.17 c 0.313615,0 2.433962,-1.86113 2.288476,-2.0087 -0.05941,-0.0603 -0.448322,0.0704 -0.864228,0.29042 -0.415912,0.22 -0.90204,0.47131 -1.080286,0.55848 -0.452407,0.22123 -1.926024,1.37088 -2.640993,2.06038 -0.960577,0.92637 -0.198206,0.87445 0.994771,-0.0678 0.579973,-0.45805 1.165991,-0.83282 1.30226,-0.83282 z m -15.103244,0.86252 c 0.329294,-0.63678 0.323971,-0.65486 -0.264521,-0.89759 -0.799486,-0.32977 -2.139951,-0.91604 -3.151864,-1.37853 -1.090906,-0.49858 -1.550712,-0.14424 -0.820897,0.63261 0.489754,0.52132 1.535688,0.88568 1.535688,0.53497 0,-0.44518 0.679404,-0.13208 0.884616,0.40767 0.28181,0.74122 0.821448,1.35075 1.195867,1.35075 0.156773,0 0.436281,-0.29244 0.621111,-0.64988 z m -4.269809,-0.0252 c -0.206964,-0.11583 -0.376299,-0.42722 -0.376299,-0.69198 0,-0.26477 -0.186232,-0.64085 -0.413854,-0.83575 -0.431743,-0.36966 -0.666432,-0.30389 -0.666432,0.18678 0,0.3426 1.539614,1.84481 1.713022,1.6714 0.06593,-0.0659 -0.04949,-0.21463 -0.256437,-0.33045 z m -16.367779,0.18898 c -0.0018,-0.0297 -0.138559,-0.44283 -0.303926,-0.91805 -0.281621,-0.80925 -0.346479,-0.85821 -1.023022,-0.77214 -0.397287,0.0505 -0.941096,0.0991 -1.208471,0.10783 -0.518172,0.017 -0.656554,0.60036 -0.282613,1.19136 0.163449,0.25832 0.337231,0.2673 1.022961,0.0528 0.694838,-0.21731 0.860216,-0.20668 1.041022,0.0669 0.174082,0.26342 0.766414,0.4765 0.754049,0.27126 z m 4.274881,-0.55365 c 0.12963,-0.38887 -0.316953,-0.30716 -0.467657,0.0856 -0.08075,0.21043 -0.03246,0.3092 0.125422,0.25657 0.141193,-0.0471 0.295199,-0.20102 0.342235,-0.34214 z m 27.56748,0.0662 c 0.340372,-0.17751 0.753577,-0.32275 0.918245,-0.32275 0.164662,0 0.299388,-0.10297 0.299388,-0.22881 0,-0.12585 0.07292,-0.18588 0.162041,-0.1334 0.277235,0.16324 1.169501,-0.27027 1.027891,-0.4994 -0.0845,-0.13673 -0.389589,-0.0833 -0.824094,0.14434 -0.379459,0.19879 -0.970022,0.34176 -1.312354,0.31771 -0.920867,-0.0647 -1.430115,0.1597 -1.430115,0.63017 0,0.50028 0.326629,0.52625 1.158998,0.0921 z m 4.632818,-0.4365 c -0.06652,-0.0665 -0.187335,0.0534 -0.268466,0.26647 -0.117252,0.30792 -0.09244,0.33274 0.120946,0.12095 0.147661,-0.14656 0.214044,-0.3209 0.14752,-0.38742 z m -6.53007,-1.1826 c 0.182515,0 0.306143,-0.21812 0.306143,-0.54014 0,-0.29708 -0.100281,-0.54014 -0.222838,-0.54014 -0.833814,0 -0.183378,-1.30747 1.758582,-3.53499 0.428748,-0.4918 0.897073,-1.1187 1.040716,-1.3931 0.22941,-0.43824 0.213431,-0.49079 -0.131376,-0.43211 -0.288027,0.049 -0.373451,-0.0482 -0.320842,-0.36532 0.199694,-1.20342 0.133385,-1.49461 -0.410761,-1.80368 -0.339711,-0.19295 -0.776176,-0.25982 -1.124817,-0.17231 l -0.569708,0.14298 0.476653,0.49874 c 0.334886,0.3504 0.584873,0.44627 0.840545,0.32235 0.531168,-0.25747 0.60836,-0.22416 0.60836,0.26251 0,0.24139 -0.121533,0.4856 -0.270076,0.54269 -0.148536,0.0571 -0.284897,0.32141 -0.303019,0.58738 -0.01813,0.26596 -0.137249,0.75094 -0.264724,1.07773 -0.181835,0.46613 -0.372587,0.59416 -0.88529,0.59416 -0.515727,0 -0.653522,0.0938 -0.653522,0.44486 0,0.24468 0.09723,0.38478 0.216059,0.31134 0.118833,-0.0734 0.216058,-0.0419 0.216058,0.0701 0,0.11198 -0.194451,0.25445 -0.432117,0.3166 -0.314643,0.0823 -0.432116,0.29471 -0.432116,0.7814 0,0.56638 -0.08128,0.6684 -0.53254,0.6684 -0.311416,0 -0.628565,0.17943 -0.763799,0.43212 -0.184579,0.34489 -0.164313,0.43211 0.100429,0.43211 0.182423,0 0.331682,0.14825 0.331682,0.32943 0,0.43025 -1.06628,0.85128 -1.374738,0.54283 -0.351678,-0.35168 -0.534726,-0.2704 -0.875601,0.38878 -0.292069,0.56479 -0.281651,0.64814 0.132772,1.06257 l 0.449701,0.4497 1.39202,-0.73849 c 0.765612,-0.40616 1.529785,-0.73848 1.698164,-0.73848 z m -27.476728,0.86216 c 0.141273,-0.14128 0.0665,-0.21399 -0.220051,-0.21399 -0.238713,0 -0.622759,-0.14274 -0.853424,-0.31721 -0.676514,-0.51169 -1.391654,-0.4227 -1.391654,0.17318 0,0.27727 0.07292,0.57823 0.162047,0.66879 0.209714,0.21311 2.024016,-0.0317 2.303082,-0.31077 z m 7.800263,-0.268 c -0.08765,-0.3862 -0.149504,-0.92094 -0.137457,-1.18831 0.03656,-0.81118 -0.919127,-0.47156 -1.443405,0.51294 -0.337966,0.63464 0.294225,1.18585 1.551177,1.35249 0.103981,0.0138 0.117338,-0.29092 0.0297,-0.67712 z m -6.592416,0.27007 c 0,-0.11883 -0.09723,-0.21606 -0.216059,-0.21606 -0.118833,0 -0.216058,0.0972 -0.216058,0.21606 0,0.11883 0.09723,0.21606 0.216058,0.21606 0.118833,0 0.216059,-0.0972 0.216059,-0.21606 z m 2.302218,-0.32562 c 0.292866,-0.63145 0.09049,-0.82116 -0.671858,-0.62982 -0.593362,0.14892 -0.704741,0.4983 -0.290808,0.91223 0.395689,0.39569 0.687911,0.30996 0.962666,-0.28241 z m 6.46139,-0.25778 c -0.100355,-0.26151 -0.198524,-0.29006 -0.378522,-0.11006 -0.179997,0.18 -0.166205,0.3356 0.05322,0.59997 0.335105,0.40378 0.546246,0.0858 0.325319,-0.48991 z m 9.930317,0.0973 c 1.204851,-1.04521 3.305073,-3.29092 3.214609,-3.4373 -0.05249,-0.0849 -0.48396,-0.14909 -0.958801,-0.14253 -0.690569,0.01 -0.949119,0.13238 -1.291997,0.6139 -0.555843,0.78061 -0.541732,1.07543 0.05145,1.07543 0.477872,0 0.478124,0.002 0.05402,0.42605 -0.291909,0.29186 -0.585797,0.38428 -0.933121,0.29343 -0.424725,-0.1111 -0.486962,-0.23283 -0.383501,-0.75013 0.225049,-1.12524 -0.405543,-0.55962 -1.165116,1.04507 -0.520799,1.10025 -0.520395,1.0906 -0.05096,1.21328 0.722073,0.1887 0.906021,0.14631 1.463371,-0.3372 z m 21.268786,0.17151 c 0.270003,-0.32534 0.11266,-0.85594 -0.197054,-0.66453 -0.243269,0.15035 -0.440856,0.97915 -0.23344,0.97915 0.09316,0 0.286876,-0.14158 0.430494,-0.31462 z m 5.193224,0.11657 c 0,-0.25858 -0.462604,-0.41506 -0.828332,-0.2802 -0.240213,0.0886 -0.240213,0.13668 0,0.28895 0.382901,0.24272 0.828332,0.23802 0.828332,-0.009 z m -28.781285,-1.12855 c 0.04299,-0.22331 -0.130427,-0.39912 -0.480353,-0.48694 -0.330378,-0.0829 -0.598194,-0.33879 -0.675031,-0.64492 -0.09077,-0.36164 -0.379778,-0.58308 -1.005813,-0.77065 -0.789724,-0.23661 -0.921534,-0.22011 -1.304956,0.16331 -0.424633,0.42463 -0.419525,0.43029 1.164571,1.28952 1.688426,0.91582 2.19283,1.01437 2.301582,0.44968 z m -16.806767,0.0303 c 0,-0.27318 -0.441506,-0.27318 -0.864228,0 -0.252542,0.16321 -0.192926,0.21018 0.27007,0.21275 0.326789,0.002 0.594158,-0.0939 0.594158,-0.21275 z m 7.886084,0 c 0.07345,-0.11883 0.03056,-0.21605 -0.09528,-0.21605 -0.125845,0 -0.228809,0.0972 -0.228809,0.21605 0,0.11884 0.04287,0.21606 0.09528,0.21606 0.05242,0 0.155365,-0.0972 0.228809,-0.21606 z m 3.56494,0.13115 c 0,-0.0467 -0.145835,-0.14088 -0.324081,-0.20928 -0.178246,-0.0684 -0.324088,-0.0302 -0.324088,0.0849 0,0.1151 0.145842,0.20927 0.324088,0.20927 0.178246,0 0.324081,-0.0382 0.324081,-0.0849 z M 58.402162,163.701 c 0.08165,-0.13212 0.01801,-0.32084 -0.141457,-0.41939 -0.215825,-0.13339 -0.236704,-0.32856 -0.08169,-0.76368 0.280329,-0.7869 0.903982,-1.17548 1.183318,-0.73729 0.168416,0.26419 0.207215,0.23913 0.209909,-0.13558 0.0018,-0.25282 -0.137206,-0.5763 -0.308954,-0.71883 -0.253564,-0.21044 -0.434775,-0.12403 -0.964025,0.45967 -0.729031,0.80404 -1.220634,1.90714 -0.849927,1.90714 0.125361,0 0.171968,0.14584 0.10357,0.32409 -0.147869,0.38533 0.616304,0.4608 0.84926,0.0839 z m -3.730196,-3.29447 c 0.582264,-1.05672 0.593404,-1.43463 0.04232,-1.43463 -0.422778,0 -0.611748,0.3898 -0.581321,1.19914 0.02162,0.57595 -0.08174,0.74387 -0.586876,0.9531 -0.367829,0.15236 -0.775472,0.59286 -1.018827,1.10093 -0.223114,0.46583 -0.478577,0.84807 -0.5677,0.84944 -0.08913,0.001 -0.162047,0.13992 -0.162047,0.3079 0,0.49251 2.242683,-1.82929 2.874475,-2.97588 z m 6.199924,2.88651 c 0,-0.11883 0.115269,-0.21605 0.256149,-0.21605 0.374964,0 1.256248,-0.88647 1.256248,-1.26364 0,-0.24611 -0.120309,-0.21106 -0.500049,0.14569 -0.699909,0.65753 -1.051275,0.60837 -0.888995,-0.12438 0.125147,-0.5651 0.09424,-0.55189 -0.631768,0.27007 -0.685663,0.77627 -0.727414,0.89171 -0.410259,1.1343 0.4241,0.32438 0.918674,0.35346 0.918674,0.054 z m 3.304669,-0.43211 c 0.381321,0 0.921682,-0.61652 1.067395,-1.21781 0.09178,-0.37876 0.01923,-0.45632 -0.404049,-0.43212 -0.283752,0.0162 -0.569997,0.19965 -0.636092,0.4076 -0.0661,0.20796 -0.228901,0.3781 -0.361771,0.3781 -0.347606,0 -1.241696,0.88677 -1.241696,1.23152 0,0.23675 0.120566,0.22963 0.637445,-0.0377 0.350594,-0.1813 0.773035,-0.32964 0.938768,-0.32964 z m -30.677054,0.1113 c 0.841977,-0.3518 1.225472,-0.75947 0.714435,-0.75947 -0.318563,0 -1.861588,0.82357 -1.861588,0.9936 0,0.16382 0.380665,0.0861 1.147153,-0.23413 z m 8.020688,-0.56702 c -0.07131,-0.11539 0.117124,-0.40392 0.418759,-0.64119 0.519188,-0.40839 0.576777,-1.06366 0.09347,-1.06366 -0.597232,0 -1.312237,1.59804 -0.89962,2.01066 0.203699,0.2037 0.538798,-0.0608 0.387391,-0.30581 z m -1.843038,-0.44075 c 0.30392,-0.87181 0.317534,-0.81547 -0.248935,-1.03012 -0.780604,-0.29581 -1.027297,0.0796 -0.629312,0.95767 0.420866,0.92854 0.575374,0.94128 0.878247,0.0724 z m 7.401071,-0.42129 c -0.0927,-0.91994 -0.178442,-1.00701 -0.588156,-0.5973 -0.257442,0.25744 -0.279245,0.45559 -0.101556,0.92294 0.312102,0.82089 0.78284,0.59863 0.689712,-0.32564 z m 1.131909,-0.75428 c 0.146944,-0.38293 -0.0043,-0.7367 -0.314424,-0.7367 -0.11182,0 -0.203307,0.24306 -0.203307,0.54014 0,0.60438 0.315299,0.72409 0.517731,0.19656 z m -7.222372,-1.0299 c -0.0037,-0.37349 -0.149614,-0.8678 -0.324081,-1.09847 -0.174468,-0.23066 -0.317216,-0.62767 -0.317216,-0.88223 0,-0.67972 -0.197992,-0.77135 -0.891623,-0.41266 -0.525686,0.27184 -0.62078,0.45255 -0.62078,1.17969 0,0.7601 0.05898,0.85868 0.513688,0.85868 0.520891,0 1.101244,0.47363 0.867174,0.70769 -0.225533,0.22554 0.134241,0.57406 0.462549,0.44808 0.188125,-0.0722 0.314368,-0.39799 0.310289,-0.80078 z m 6.27253,0.29318 c 0,-0.11883 -0.04287,-0.21605 -0.09528,-0.21605 -0.05242,0 -0.155365,0.0972 -0.228809,0.21605 -0.07344,0.11884 -0.03056,0.21606 0.09528,0.21606 0.125845,0 0.228809,-0.0972 0.228809,-0.21606 z m 14.180694,-2.1433 c 0.137524,-0.68761 -0.368294,-1.22192 -0.944446,-0.99764 -0.353932,0.13777 -0.349712,0.17384 0.05965,0.5103 l 0.440483,0.36205 -0.490942,0.86422 c -0.270021,0.47533 -0.492547,0.95882 -0.494501,1.07443 -0.0072,0.42774 1.317609,-1.25253 1.429772,-1.81336 z m -10.428872,1.38524 c 0.06879,-0.17928 0.370872,-0.43795 0.671283,-0.57483 0.525472,-0.23942 0.721779,-0.69831 0.384162,-0.89803 -0.08912,-0.0527 -0.575251,-0.16423 -1.08028,-0.2478 -0.758562,-0.12552 -0.918245,-0.0923 -0.918245,0.19113 0,0.1887 -0.194452,0.53753 -0.432117,0.7752 -0.615612,0.61561 -0.538278,0.87465 0.216058,0.72379 0.412911,-0.0826 0.648176,-0.0414 0.648176,0.11343 0,0.35592 0.365311,0.29666 0.510963,-0.0829 z m -4.408608,-0.20381 c 0.143196,-0.17254 0.228019,-0.48158 0.188498,-0.68676 -0.06782,-0.35206 -0.09313,-0.35178 -0.449957,0.005 -0.39774,0.39775 -0.51092,0.99541 -0.188492,0.99541 0.104275,0 0.306755,-0.14116 0.449951,-0.3137 z m -2.885744,-0.63905 c 0.119916,-0.3125 -0.51503,-1.75948 -0.69368,-1.58083 -0.05457,0.0546 -0.03503,0.50115 0.04354,0.99234 0.143294,0.89611 0.43186,1.15731 0.650136,0.58849 z m 4.011186,-0.82972 c 0.184352,-0.14854 0.396907,-0.44691 0.472342,-0.66306 0.108844,-0.31187 0.04005,-0.37876 -0.333366,-0.32408 -0.301593,0.0442 -0.527205,0.28221 -0.628418,0.66306 -0.172165,0.64783 -0.02958,0.74226 0.489442,0.32408 z m 6.774423,-0.17832 c 0.07828,-0.24662 0.0964,-0.49431 0.0403,-0.55043 -0.131793,-0.1318 -0.801649,0.53518 -0.801649,0.7982 0,0.39437 0.621786,0.19202 0.761368,-0.24777 z m -9.307025,-0.43429 c -0.06957,-0.11256 -0.218576,-0.14773 -0.331137,-0.0782 -0.112556,0.0696 -0.147734,0.21858 -0.07817,0.33114 0.06956,0.11256 0.21857,0.14773 0.331131,0.0782 0.112561,-0.0696 0.147734,-0.21858 0.07817,-0.33114 z m 8.059633,-0.14359 c 0.05206,-0.1563 -0.09301,-0.27007 -0.344354,-0.27007 -0.238853,0 -0.474976,-0.17014 -0.524712,-0.3781 -0.08585,-0.35892 -0.09884,-0.35878 -0.25607,0.003 -0.1994,0.45848 0.243104,1.06922 0.709163,0.97877 0.179324,-0.0348 0.366512,-0.18481 0.415973,-0.33335 z m -3.541361,-0.93609 c 0.220976,-0.47904 0.350613,-0.92215 0.288076,-0.98469 -0.227677,-0.22767 -1.013946,0.80111 -1.013946,1.32668 0,0.78083 0.265648,0.65568 0.72587,-0.34199 z m 13.216717,0.42827 c 0.188302,-0.59329 -0.102309,-0.84363 -0.70909,-0.61082 -0.47108,0.18075 -0.636581,0.62615 -0.342087,0.92064 0.303828,0.30383 0.913438,0.12416 1.051177,-0.30982 z m -20.640357,-0.62643 c 0,-0.45568 -0.314337,-0.58141 -0.540146,-0.21605 -0.157545,0.25492 0.04679,0.64817 0.336839,0.64817 0.11182,0 0.203307,-0.19445 0.203307,-0.43212 z m 18.148794,-0.10802 c 0,-0.17825 -0.03822,-0.32409 -0.08491,-0.32409 -0.04673,0 -0.140875,0.14584 -0.209279,0.32409 -0.0684,0.17824 -0.03019,0.32408 0.08492,0.32408 0.115103,0 0.209272,-0.14584 0.209272,-0.32408 z m -14.259766,-0.10803 c -0.418882,-0.27071 -0.648169,-0.27071 -0.648169,0 0,0.11883 0.218753,0.21457 0.486128,0.21275 0.393098,-0.003 0.424107,-0.0434 0.162041,-0.21275 z m -1.728455,-0.67463 c 0,-0.38161 -0.05402,-0.41376 -0.321712,-0.19158 -0.325159,0.26987 -0.255904,0.65015 0.118404,0.65015 0.111821,0 0.203308,-0.20636 0.203308,-0.45857 z m 3.780998,0.24251 c 0.07344,-0.11883 0.03056,-0.21605 -0.09528,-0.21605 -0.125845,0 -0.228809,0.0972 -0.228809,0.21605 0,0.11883 0.04287,0.21606 0.09528,0.21606 0.05242,0 0.155365,-0.0972 0.228809,-0.21606 z m -0.432117,-0.86423 c 0.07344,-0.11883 0.03056,-0.21605 -0.09528,-0.21605 -0.125839,0 -0.228803,0.0972 -0.228803,0.21605 0,0.11884 0.04287,0.21606 0.09527,0.21606 0.05242,0 0.155371,-0.0972 0.228809,-0.21606 z m 25.602768,43.44965 c 0,-0.13102 -0.02431,-0.31115 -0.05402,-0.40027 -0.0297,-0.0891 0.439675,-0.17177 1.043074,-0.18366 0.603394,-0.0119 2.03651,-0.15059 3.184685,-0.30823 1.922442,-0.26395 2.603798,-0.21804 2.235186,0.15056 -0.538871,0.53887 -6.408933,1.21812 -6.408933,0.7416 z m 6.966503,-0.94041 c 0.04875,-0.14854 0.372857,-0.30135 0.720187,-0.33958 0.608336,-0.0669 0.615654,-0.0573 0.199394,0.2632 -0.52459,0.40391 -1.041225,0.44682 -0.919581,0.0764 z M 50.967376,195.9177 c 0,-0.29707 0.04906,-0.41861 0.108978,-0.27007 0.05996,0.14854 0.05996,0.39161 0,0.54014 -0.05996,0.14855 -0.108978,0.027 -0.108978,-0.27007 z m 38.964192,-5.40142 c 0.07344,-0.11883 0.279373,-0.21606 0.457619,-0.21606 0.178246,0 0.263994,0.0972 0.190556,0.21606 -0.07344,0.11883 -0.279373,0.21605 -0.457619,0.21605 -0.178246,0 -0.263995,-0.0972 -0.190556,-0.21605 z m -59.685771,-1.01984 c -0.324363,-0.11585 -0.363872,-0.70862 -0.04722,-0.70862 0.222868,0 0.550318,0.60547 0.398016,0.73594 -0.0444,0.038 -0.202242,0.0257 -0.350779,-0.0273 z m 55.904772,-3.60227 c 0,-0.0467 0.150888,-0.14282 0.335308,-0.21359 0.192277,-0.0738 0.278999,-0.0375 0.203307,0.0849 -0.12688,0.20531 -0.538615,0.30366 -0.538615,0.12868 z m -49.90919,-7.47709 c 0,-0.11883 0.102965,-0.21606 0.22881,-0.21606 0.125845,0 0.168716,0.0972 0.09528,0.21606 -0.07344,0.11883 -0.176409,0.21606 -0.228809,0.21606 -0.05243,0 -0.09528,-0.0972 -0.09528,-0.21606 z m 46.435749,-4.59122 c -0.136826,-0.44706 -0.120847,-0.81021 0.03565,-0.81021 0.108317,0 0.196944,0.19445 0.196944,0.43212 0,0.34736 -0.1616,0.61006 -0.232589,0.37809 z m -8.047223,-13.26712 c -0.337458,-0.33746 -0.09525,-0.86343 0.622789,-1.35248 0.421442,-0.28703 0.861717,-0.70024 0.978388,-0.91824 0.116664,-0.218 0.305928,-0.39637 0.420578,-0.39637 0.362513,0 0.226807,0.60195 -0.316052,1.40189 -0.28848,0.4251 -0.55585,0.85408 -0.594158,0.9533 -0.09791,0.25357 -0.93499,0.48845 -1.111545,0.3119 z"
       id="path2812"
       inkscape:connector-curvature="0" />
  </g>
</svg>
