<?xml version="1.0" encoding="UTF-8" standalone="no"?>
<!-- Created with Inkscape (http://www.inkscape.org/) -->

<svg
   xmlns:dc="http://purl.org/dc/elements/1.1/"
   xmlns:cc="http://creativecommons.org/ns#"
   xmlns:rdf="http://www.w3.org/1999/02/22-rdf-syntax-ns#"
   xmlns:svg="http://www.w3.org/2000/svg"
   xmlns="http://www.w3.org/2000/svg"
   xmlns:sodipodi="http://sodipodi.sourceforge.net/DTD/sodipodi-0.dtd"
   xmlns:inkscape="http://www.inkscape.org/namespaces/inkscape"
   width="105mm"
   height="146mm"
   viewBox="0 0 105 146"
   version="1.1"
   id="svg8"
   inkscape:version="0.92.3 (2405546, 2018-03-11)"
   sodipodi:docname="araucaria_1_young_04.svg">
  <defs
     id="defs2" />
  <sodipodi:namedview
     id="base"
     pagecolor="#ffffff"
     bordercolor="#666666"
     borderopacity="1.0"
     inkscape:pageopacity="0.0"
     inkscape:pageshadow="2"
     inkscape:zoom="0.98994949"
     inkscape:cx="5.8051253"
     inkscape:cy="373.66328"
     inkscape:document-units="mm"
     inkscape:current-layer="layer1"
     showgrid="false"
     inkscape:pagecheckerboard="true"
     height="147mm"
     inkscape:window-width="1920"
     inkscape:window-height="1055"
     inkscape:window-x="381"
     inkscape:window-y="0"
     inkscape:window-maximized="1"
     inkscape:snap-global="false" />
  <metadata
     id="metadata5">
    <rdf:RDF>
      <cc:Work
         rdf:about="">
        <dc:format>image/svg+xml</dc:format>
        <dc:type
           rdf:resource="http://purl.org/dc/dcmitype/StillImage" />
        <dc:title></dc:title>
      </cc:Work>
    </rdf:RDF>
  </metadata>
  <g
     inkscape:label="Layer 1"
     inkscape:groupmode="layer"
     id="layer1"
     transform="translate(0,-151)">
    <path
       style="fill:#000000;stroke-width:0.09709039"
       d="m 51.739381,297.79895 c -0.06648,-0.0801 -0.238238,-0.14564 -0.381693,-0.14564 -0.143454,0 -0.341315,-0.0589 -0.439691,-0.13079 -0.157449,-0.11512 -0.164714,-0.17035 -0.06068,-0.46117 0.065,-0.18172 0.143754,-1.08406 0.174999,-2.0052 0.05264,-1.5518 0.04433,-1.67481 -0.11305,-1.67481 -0.173944,0 -0.173502,-0.14701 0.0045,-1.5049 0.104676,-0.79842 0.129412,-1.73778 0.03963,-1.5049 -0.06305,0.16354 -0.0759,-0.24426 -0.03939,-1.25005 l 0.0542,-1.49277 -0.655795,0.0702 c -0.80667,0.0864 -0.925486,0.12967 -0.906125,0.3301 0.04843,0.50135 -0.12955,0.6997 -0.238465,0.26575 -0.03203,-0.12761 -0.11913,-0.25538 -0.19356,-0.28395 -0.217901,-0.0836 -0.545237,0.21035 -0.553647,0.4972 l -0.0077,0.2615 -0.09344,-0.25478 c -0.104108,-0.28385 0.102795,-0.27067 -2.069297,-0.1318 -0.895637,0.0573 -1.149782,0.0397 -1.626264,-0.11257 -0.310608,-0.0993 -0.564739,-0.23507 -0.564739,-0.30183 0,-0.0668 -0.03834,-0.12138 -0.0852,-0.12138 -0.131176,0 -0.313267,0.25585 -0.282293,0.39664 0.01523,0.0692 -0.0597,0.14343 -0.166501,0.16495 -0.1068,0.0215 -0.347098,0.1811 -0.533998,0.35463 -0.594313,0.55177 -0.95766,0.75869 -1.217693,0.69342 -0.31862,-0.08 -0.302297,-0.21338 0.03434,-0.28071 0.150153,-0.03 0.37953,-0.14765 0.509725,-0.26137 l 0.236718,-0.20677 -0.242726,0.0472 c -0.133499,0.0259 -0.417489,0.11432 -0.631088,0.19643 -0.736543,0.28311 -1.343569,0.14462 -1.586467,-0.36197 -0.07833,-0.16335 -0.290858,-0.34112 -0.533997,-0.44663 -0.548485,-0.23803 -0.846051,-0.58559 -0.91008,-1.06295 -0.06763,-0.50423 0.06549,-0.50641 0.296779,-0.005 0.17439,0.37816 0.656658,0.74003 0.837387,0.62833 0.04855,-0.03 0.123725,0.005 0.167057,0.0776 0.04333,0.0727 0.188012,0.16291 0.321511,0.20045 0.390601,0.10983 2.330183,0.19022 2.330034,0.0966 -7.4e-5,-0.0469 -0.268511,-0.16419 -0.596528,-0.26059 -0.48493,-0.14251 -0.713552,-0.28767 -1.223249,-0.77672 -0.344769,-0.3308 -0.690954,-0.72514 -0.769299,-0.87632 -0.09882,-0.19069 -0.190858,-0.25629 -0.300519,-0.21421 -0.08694,0.0334 -0.47374,0.10974 -0.859553,0.16972 -0.614269,0.0955 -0.732611,0.0887 -0.951902,-0.055 -0.267178,-0.17507 -0.338553,-0.45088 -0.116677,-0.45088 0.07356,0 0.190468,0.0683 0.259794,0.15187 0.07127,0.0859 0.21356,0.1316 0.327432,0.10521 0.110762,-0.0257 0.447959,-0.0961 0.749326,-0.15661 0.493216,-0.099 0.542886,-0.1313 0.49733,-0.32366 -0.06666,-0.28149 -0.296415,-0.45645 -0.599402,-0.45645 -0.244111,0 -1.037673,0.26532 -1.222592,0.40877 -0.0534,0.0414 -0.292219,0.23297 -0.530711,0.42567 -0.512922,0.41444 -0.671807,0.26899 -0.18344,-0.16793 0.359176,-0.32134 1.17863,-0.76359 1.414854,-0.76359 0.10424,0 0.07459,-0.0599 -0.09611,-0.19419 -0.135773,-0.1068 -0.286966,-0.19418 -0.335985,-0.19418 -0.114823,0 -0.453614,-0.37211 -0.604031,-0.66343 -0.09731,-0.18848 -0.08867,-0.2578 0.05146,-0.41264 0.09263,-0.10235 0.227187,-0.1861 0.29901,-0.1861 0.181128,0 0.163246,-0.12648 -0.05757,-0.40721 -0.23826,-0.30289 -0.36136,-0.75788 -0.205052,-0.75788 0.06231,0 0.294792,0.19944 0.516629,0.4432 0.506811,0.55688 1.746955,1.19331 1.967929,1.00992 0.07795,-0.0647 0.141734,-0.1724 0.141734,-0.23935 0,-0.0774 0.193577,-0.13778 0.531312,-0.16579 0.422581,-0.035 0.57087,-0.0943 0.724615,-0.2898 0.106316,-0.13516 0.413359,-0.34041 0.682317,-0.45612 0.268959,-0.1157 0.489016,-0.23016 0.489016,-0.25435 0,-0.0242 -0.731819,-0.0339 -1.626264,-0.0216 -1.537858,0.0212 -1.655293,0.01 -2.160261,-0.21398 -0.293698,-0.13001 -0.673121,-0.35553 -0.843161,-0.50115 -0.170041,-0.14563 -0.399417,-0.29342 -0.509725,-0.32843 -0.225919,-0.0717 -0.271319,-0.39101 -0.06676,-0.46951 0.07359,-0.0282 0.179141,-0.006 0.234552,0.0494 0.320247,0.32024 1.920978,1.06841 2.401886,1.12261 0.49925,0.0563 0.572985,-0.0754 0.134831,-0.2408 -0.164401,-0.062 -0.32297,-0.20483 -0.352377,-0.31728 -0.03098,-0.11848 -0.247505,-0.30279 -0.514895,-0.43829 -0.528832,-0.26797 -1.011043,-0.82615 -1.110888,-1.28589 -0.03769,-0.17355 -0.09921,-0.31554 -0.136709,-0.31554 -0.09976,0 -0.332472,-0.84364 -0.273356,-0.991 0.0277,-0.069 0.05381,-0.005 0.05803,0.14146 0.0042,0.14685 0.04115,0.267 0.08207,0.267 0.04092,0 0.226396,0.25122 0.412159,0.55827 0.280678,0.46393 0.343075,0.52135 0.369252,0.33981 0.01733,-0.12015 0.04503,-0.21845 0.06156,-0.21845 0.01653,0 0.278436,0.11371 0.582007,0.25269 0.303571,0.13898 0.570734,0.2339 0.593694,0.21094 0.02296,-0.023 -0.148425,-0.24022 -0.380856,-0.4828 -0.232432,-0.24257 -0.483135,-0.5778 -0.557117,-0.74494 -0.07398,-0.16713 -0.164019,-0.30388 -0.200079,-0.30388 -0.133668,0 -1.149208,-0.99529 -1.149208,-1.12629 0,-0.24204 0.243224,-0.14474 0.631087,0.25247 0.424098,0.43432 0.533997,0.47546 0.533997,0.19991 0,-0.10365 0.04369,-0.21545 0.09709,-0.24845 0.177455,-0.10968 0.100409,-0.51516 -0.155726,-0.81956 -0.185285,-0.2202 -0.23666,-0.36482 -0.192331,-0.54144 0.03327,-0.13255 0.121098,-0.24099 0.195181,-0.24099 0.0869,0 0.116676,0.0689 0.08392,0.19418 -0.02793,0.1068 -0.0048,0.19418 0.05148,0.19418 0.05625,0 0.115954,-0.142 0.132687,-0.31555 0.0372,-0.38579 0.220855,-0.3753 0.234314,0.0134 0.01832,0.52915 0.08858,0.59342 0.64864,0.59342 0.560955,0 1.163191,0.23508 1.469592,0.57365 0.263558,0.29123 0.419365,0.25786 0.369892,-0.0792 -0.03142,-0.21409 0.002,-0.2937 0.13818,-0.32952 0.161255,-0.0424 0.157614,-0.0543 -0.03563,-0.11657 -0.118381,-0.0381 -0.239887,-0.14698 -0.270013,-0.2419 -0.03013,-0.0949 -0.239105,-0.29761 -0.464395,-0.45042 -0.225291,-0.15281 -0.440809,-0.32165 -0.478929,-0.3752 -0.03812,-0.0536 -0.409492,-0.10006 -0.825269,-0.10336 -0.518903,-0.004 -0.847295,-0.0572 -1.047229,-0.16931 -0.160199,-0.0898 -0.466034,-0.16876 -0.679633,-0.1754 -0.794148,-0.0247 -0.96644,-0.10505 -1.019449,-0.4753 l -0.04854,-0.33908 -0.582542,-0.0314 c -0.411285,-0.0221 -0.673745,0.0172 -0.892772,0.13379 -0.352407,0.18759 -0.642327,0.12607 -0.593784,-0.126 0.04136,-0.21475 0.76,-0.39122 1.645366,-0.40403 0.676636,-0.01 1.145905,-0.17297 1.078545,-0.37505 -0.05409,-0.16228 0.176245,-0.14588 0.407466,0.029 0.203903,0.15423 1.557094,0.20256 1.776119,0.0634 0.235991,-0.1499 -0.147172,-0.46716 -1.1902,-0.98551 -1.054116,-0.52385 -1.277163,-0.72972 -0.974248,-0.89924 0.155028,-0.0868 0.145266,-0.12194 -0.111176,-0.40062 -0.355202,-0.386 -0.543276,-0.76187 -0.498695,-0.99665 0.0265,-0.13957 0.134687,-0.18985 0.458558,-0.21311 0.409217,-0.0294 0.42176,-0.0221 0.362798,0.21289 -0.07189,0.28643 0.109052,0.73991 0.295234,0.73991 0.130109,0 0.16579,-0.10424 0.137154,-0.40068 -0.02653,-0.27467 0.249088,-0.2772 0.448165,-0.004 0.103913,0.14254 0.217631,0.33628 0.252706,0.43053 0.03507,0.0942 0.166262,0.21033 0.291527,0.25796 0.229359,0.0872 0.443221,0.3198 1.13346,1.23273 0.206658,0.27334 0.543103,0.59817 0.747654,0.72185 0.204553,0.12368 0.495415,0.32603 0.646361,0.44966 0.33209,0.272 0.45373,0.28378 0.45373,0.044 0,-0.43118 -1.036538,-1.36933 -1.585362,-1.43489 -0.398965,-0.0476 -0.435352,-0.088 -0.604785,-0.67084 -0.09656,-0.33217 -0.207118,-0.52906 -0.297063,-0.52906 -0.07879,0 -0.217688,-0.13114 -0.308654,-0.29142 -0.09097,-0.16029 -0.220006,-0.27088 -0.286756,-0.24578 -0.14757,0.0555 -0.162579,-0.1055 -0.01815,-0.19476 0.05676,-0.0351 0.176914,-5.5e-4 0.266998,0.0766 0.331324,0.28397 0.383781,0.27576 0.31723,-0.0496 -0.04844,-0.23683 -0.133457,-0.33317 -0.351394,-0.3982 -0.578893,-0.17271 -0.724404,-0.2552 -0.724404,-0.41063 0,-0.13331 0.07057,-0.14816 0.44038,-0.0927 0.435761,0.0653 0.439724,0.0634 0.377836,-0.18315 -0.03897,-0.15527 -0.02198,-0.2492 0.04507,-0.2492 0.05919,0 0.107616,0.069 0.107616,0.15335 0,0.12012 0.06357,0.13939 0.293362,0.0889 0.235404,-0.0517 0.329114,-0.0203 0.474324,0.15904 0.149123,0.18416 0.20665,0.20216 0.326973,0.1023 0.08031,-0.0667 0.165626,-0.22378 0.189599,-0.34919 0.03589,-0.18777 -0.02072,-0.25637 -0.320832,-0.38878 -0.683545,-0.30158 -1.344244,-1.27054 -0.866336,-1.27054 0.25804,0 0.22449,-0.33017 -0.04608,-0.45345 -0.174334,-0.0794 -0.245071,-0.17849 -0.225367,-0.31562 0.04355,-0.30303 0.292124,-0.28988 0.703744,0.0372 0.204118,0.16221 0.429135,0.29493 0.500037,0.29493 0.0709,0 0.335592,0.13108 0.5882,0.29127 0.520692,0.33022 0.666557,0.35697 0.750699,0.1377 0.09838,-0.25636 0.06986,-0.3081 -0.208065,-0.37746 -0.314977,-0.0786 -0.606815,-0.32007 -0.606815,-0.50206 0,-0.0721 -0.193111,-0.17782 -0.436907,-0.23921 -0.259713,-0.0654 -0.436907,-0.16564 -0.436907,-0.24717 0,-0.18456 0.277336,-0.28092 0.414306,-0.14395 0.190426,0.19042 0.452074,0.12486 0.515855,-0.12927 0.03303,-0.13158 0.137314,-0.26377 0.231752,-0.29374 0.19988,-0.0634 0.682804,0.0985 0.682804,0.22893 0,0.18171 0.314325,0.19883 0.948868,0.0517 0.358729,-0.0832 0.66685,-0.16588 0.68471,-0.18374 0.01786,-0.0179 -0.04371,-0.15641 -0.136822,-0.3079 -0.09311,-0.15148 -0.230601,-0.37665 -0.305525,-0.50037 -0.109748,-0.18123 -0.163378,-0.20242 -0.275914,-0.10902 -0.145487,0.12074 -1.927128,0.13743 -2.117408,0.0198 -0.05435,-0.0336 -0.204062,-0.0657 -0.332686,-0.0713 -0.265912,-0.0116 -0.503407,-0.28396 -0.505607,-0.57973 -0.0028,-0.37265 -0.388449,-0.669 -0.748219,-0.57491 -0.145863,0.0381 -0.265978,-0.0365 -0.452604,-0.28115 -0.139726,-0.18319 -0.254046,-0.40678 -0.254046,-0.49686 0,-0.25451 0.277999,-0.30043 0.514664,-0.085 0.206886,0.1883 0.582519,0.41278 0.690725,0.41278 0.02919,0 0.02612,-0.19661 -0.0068,-0.4369 -0.05393,-0.39345 -0.04036,-0.43691 0.136327,-0.43691 0.107916,0 0.267779,0.10922 0.355251,0.24272 0.196235,0.2995 0.275672,0.30434 0.39854,0.0243 0.06101,-0.13907 0.197858,-0.2301 0.376576,-0.25051 0.344893,-0.0394 0.546519,0.20044 0.233276,0.27746 -0.283982,0.0698 -0.338002,0.28932 -0.08733,0.35487 0.135691,0.0355 0.20441,0.13125 0.20441,0.28486 0,0.31082 0.269891,0.30185 0.348558,-0.0116 0.06617,-0.26364 0.03077,-0.55818 -0.174999,-1.45609 -0.07342,-0.3204 -0.117462,-0.659 -0.09787,-0.75245 0.04362,-0.20796 0.271194,-0.22385 0.347778,-0.0243 0.03074,0.0801 0.115779,0.14563 0.188984,0.14563 0.0732,0 0.1804,0.10382 0.238215,0.23071 0.08181,0.17956 0.160605,0.2201 0.355401,0.18286 0.241107,-0.0461 0.250337,-0.0305 0.251746,0.42465 7.7e-4,0.25988 0.05995,0.64726 0.131436,0.86086 0.108622,0.32456 0.212061,0.4273 0.629626,0.62537 0.274808,0.13035 0.49965,0.28884 0.49965,0.3522 0,0.0634 0.0605,0.16541 0.134456,0.22678 0.107613,0.0893 0.147663,0.059 0.200617,-0.15202 0.03639,-0.14499 0.138304,-0.31636 0.226478,-0.38084 0.143941,-0.10525 0.12841,-0.14703 -0.152073,-0.40904 -0.202195,-0.18888 -0.312387,-0.38403 -0.312387,-0.55324 0,-0.26048 0.0018,-0.26115 0.509724,-0.18399 0.631105,0.0959 0.945421,0.0949 1.165085,-0.004 0.24296,-0.10905 0.218391,0.12312 -0.04241,0.40072 -0.266654,0.28384 -0.136665,0.44371 0.291199,0.35814 0.351219,-0.0703 0.363601,-0.10528 0.169473,-0.47946 -0.0814,-0.15691 -0.116393,-0.3879 -0.0836,-0.55188 l 0.0564,-0.28202 -0.329035,0.2006 c -0.627207,0.38237 -0.949423,0.29434 -2.334599,-0.63787 -1.077801,-0.72535 -1.452472,-1.07978 -1.174147,-1.1107 0.04005,-0.004 0.172673,-0.0191 0.294718,-0.0326 0.38928,-0.0429 0.434324,-0.18237 0.231436,-0.71633 -0.165841,-0.43646 -0.171481,-0.51784 -0.0481,-0.69399 0.142962,-0.2041 0.420032,-0.27417 0.420032,-0.10621 0,0.0513 0.174763,0.26636 0.388362,0.47783 0.35844,0.35488 0.388361,0.36731 0.388361,0.16128 0,-0.12277 -0.06764,-0.27936 -0.150321,-0.34798 -0.208865,-0.17334 -0.144769,-0.53908 0.0875,-0.49928 0.09895,0.017 0.246889,0.005 0.32876,-0.0263 0.132678,-0.0509 0.132968,-0.0754 0.0027,-0.22501 -0.0804,-0.0923 -0.165839,-0.23159 -0.189863,-0.30946 -0.02403,-0.0779 -0.259102,-0.21573 -0.522393,-0.30636 -0.343394,-0.1182 -0.487483,-0.22226 -0.509739,-0.36814 -0.01971,-0.12921 0.02165,-0.20337 0.113422,-0.20337 0.07945,0 0.205099,-0.0233 0.279228,-0.0517 0.07413,-0.0285 0.263388,0.0589 0.420575,0.19406 0.157187,0.13518 0.339352,0.24584 0.404811,0.2459 0.06546,7e-5 0.262067,0.0873 0.436907,0.19394 0.174839,0.1066 0.425916,0.19398 0.557947,0.19418 l 0.240056,2.7e-4 -0.216339,-0.15153 c -0.338281,-0.23694 -0.534897,-0.70119 -0.477667,-1.12787 0.04019,-0.29964 0.01359,-0.39356 -0.133824,-0.47245 -0.101193,-0.0542 -0.212672,-0.21276 -0.247731,-0.35244 -0.03506,-0.13969 -0.133879,-0.32847 -0.219599,-0.41952 -0.493999,-0.52468 -0.60841,-0.79322 -0.39433,-0.92552 0.134903,-0.0834 0.359486,0.11311 0.643479,0.56299 0.274021,0.43408 0.748067,0.74948 1.127215,0.74999 0.371321,5.5e-4 0.427868,-0.22602 0.180213,-0.7219 -0.11414,-0.22857 -0.20753,-0.47772 -0.20753,-0.55368 0,-0.076 -0.06267,-0.37701 -0.13926,-0.669 -0.111856,-0.42641 -0.115249,-0.55547 -0.01724,-0.65581 0.120367,-0.12324 0.447769,-0.0694 0.447769,0.0737 0,0.0405 0.09262,0.19135 0.205809,0.33525 l 0.205811,0.26165 0.191737,-0.20581 c 0.191225,-0.20526 0.191122,-0.20676 -0.03856,-0.5641 -0.543597,-0.8457 -0.565701,-0.94372 -0.231711,-1.02755 0.146745,-0.0368 0.247719,-0.14141 0.266999,-0.27653 0.07316,-0.51276 0.691471,-0.22229 0.804034,0.37772 0.05188,0.27653 0.09531,0.32699 0.228067,0.26495 0.09019,-0.0421 0.349104,-0.0802 0.575359,-0.0845 0.226255,-0.004 0.464369,-0.0609 0.529143,-0.12567 0.202456,-0.20246 0.273115,-0.13131 0.273115,0.275 0,0.47075 0.23015,0.73676 0.955413,1.10428 0.491784,0.2492 0.792795,0.3168 0.791574,0.17776 -0.0014,-0.16073 -0.368165,-0.60648 -0.890371,-1.08217 -0.303157,-0.27616 -0.645657,-0.69724 -0.761111,-0.93573 -0.139863,-0.28892 -0.27183,-0.43363 -0.395438,-0.43363 -0.102035,0 -0.185519,-0.0655 -0.185519,-0.14564 0,-0.0801 0.04627,-0.14563 0.102821,-0.14563 0.05655,0 0.07472,-0.0455 0.04037,-0.10105 -0.03435,-0.0556 -0.147958,-0.0739 -0.252473,-0.0407 -0.139544,0.0443 -0.279237,-0.0371 -0.525827,-0.3063 -0.387104,-0.42262 -0.418138,-0.57575 -0.131849,-0.65062 0.120863,-0.0316 0.176138,-0.0983 0.135681,-0.16379 -0.0392,-0.0634 0.08399,-0.24592 0.289372,-0.42864 0.326052,-0.29007 0.344081,-0.33173 0.204135,-0.47168 -0.185759,-0.18576 -0.201773,-0.45865 -0.02692,-0.45865 0.06963,0 0.274804,0.15292 0.455953,0.33982 0.181149,0.1869 0.364483,0.33982 0.407408,0.33982 0.04292,0 0.07804,-0.31332 0.07804,-0.69626 0,-0.50162 -0.04337,-0.74419 -0.155147,-0.8677 -0.165183,-0.18253 -0.112422,-0.37785 0.102064,-0.37785 0.0713,0 0.26533,0.12675 0.431176,0.28168 0.278689,0.26033 0.30154,0.33046 0.30154,0.92548 0,0.7016 0.140609,1.13262 0.54055,1.65697 0.292789,0.38386 0.430353,0.43043 0.430353,0.14567 0,-0.1068 0.04561,-0.19418 0.101347,-0.19418 0.05574,0 0.09425,-0.0546 0.08559,-0.12136 -0.03523,-0.27129 0.01689,-0.36409 0.204476,-0.36409 0.108476,0 0.217702,0.0655 0.242726,0.14563 0.02502,0.0801 0.06878,0.21848 0.09723,0.30751 0.03597,0.11254 0.08264,0.13096 0.153171,0.0604 0.156013,-0.15602 -0.434826,-1.13715 -1.140298,-1.89356 -0.642676,-0.68908 -0.885767,-1.26805 -0.606574,-1.44469 0.205028,-0.12971 0.325201,-0.0511 0.359065,0.235 0.04199,0.3547 0.212004,0.32923 0.212004,-0.0318 0,-0.28228 0.231233,-0.42284 0.309472,-0.18812 0.02404,0.0721 0.114119,0.0728 0.299362,0.002 0.280871,-0.10678 0.350219,-0.002 0.178303,0.26929 -0.08966,0.14151 -0.03234,0.49897 0.08002,0.49897 0.03728,0 0.140706,-0.15291 0.229832,-0.33981 0.16606,-0.34824 0.409601,-0.47523 0.325844,-0.16991 -0.02564,0.0934 -0.09999,0.40559 -0.165224,0.69365 -0.113834,0.50263 -0.10947,0.53063 0.108299,0.6949 0.193621,0.14605 0.211416,0.20518 0.121278,0.40301 -0.08066,0.17702 -0.07274,0.29462 0.03347,0.49733 0.07651,0.14602 0.180721,0.23977 0.231585,0.20834 0.05087,-0.0314 0.09686,-0.5461 0.10221,-1.1437 0.01285,-1.43483 0.117439,-2.94555 0.210342,-3.03823 0.300893,-0.30016 0.386439,1.09081 0.172079,2.79799 -0.04715,0.37547 -0.05058,0.77556 -0.0076,0.8891 0.06465,0.1709 0.105938,0.10618 0.239937,-0.37613 0.08902,-0.32039 0.227413,-0.70221 0.30755,-0.84847 0.105114,-0.19185 0.122543,-0.35413 0.06257,-0.58254 -0.11031,-0.42012 -0.04944,-0.65643 0.169097,-0.65643 0.13262,0 0.195399,-0.0999 0.244141,-0.38836 0.09002,-0.53283 0.285147,-0.51026 0.209863,0.0243 -0.03196,0.22695 -0.08237,0.52186 -0.112016,0.65536 -0.02964,0.1335 -0.01378,0.30339 0.03525,0.37753 0.0704,0.10646 0.177094,0.0503 0.507309,-0.26699 0.229986,-0.221 0.498044,-0.40181 0.595684,-0.40181 0.162988,0 0.159397,0.0258 -0.04383,0.31555 -0.121749,0.17355 -0.249607,0.33739 -0.28413,0.36408 -0.03452,0.0267 -0.110749,0.22712 -0.169391,0.44537 -0.0723,0.26907 -0.184925,0.43249 -0.349864,0.50764 -0.133784,0.0609 -0.243244,0.15994 -0.243244,0.21997 0,0.06 -0.175157,0.48291 -0.389236,0.93974 -0.21408,0.45684 -0.36874,0.85111 -0.343688,0.87616 0.02505,0.025 -0.01212,0.16016 -0.08259,0.30024 -0.07048,0.14008 -0.156393,0.37263 -0.190927,0.51678 l -0.06279,0.26208 0.307883,-0.2812 c 0.169337,-0.15467 0.430306,-0.33192 0.579932,-0.3939 0.149626,-0.062 0.29829,-0.19537 0.330363,-0.29642 0.03207,-0.10106 0.121616,-0.18374 0.198981,-0.18374 0.07737,0 0.213585,-0.15292 0.302711,-0.33982 0.08913,-0.1869 0.217806,-0.33982 0.285958,-0.33982 0.06815,0 0.169884,-0.17072 0.226072,-0.37939 0.155092,-0.57597 1.008403,-1.75387 1.160429,-1.60185 0.02298,0.023 -0.146922,0.40883 -0.37756,0.85745 -0.510984,0.99391 -0.487755,1.2836 0.0681,0.84927 0.200792,-0.1569 0.496149,-0.31252 0.656348,-0.34582 0.286167,-0.0595 0.283614,-0.0536 -0.145636,0.33417 -0.240299,0.21709 -0.727443,0.61335 -1.082543,0.88056 -0.686945,0.51693 -0.808244,0.72915 -0.651266,1.13939 l 0.09818,0.25658 0.230137,-0.26645 c 0.126576,-0.14654 0.272862,-0.34278 0.325082,-0.43609 0.148666,-0.26565 0.255024,-0.0548 0.109509,0.21709 -0.07136,0.13333 -0.09648,0.27526 -0.05583,0.31539 0.111348,0.10991 0.714394,-0.65045 0.861349,-1.08605 0.07094,-0.21026 0.180856,-0.39959 0.244268,-0.42072 0.315538,-0.10518 -0.07223,1.00695 -0.570417,1.63596 -0.326727,0.41252 -0.616273,0.54909 -0.81482,0.38431 -0.10281,-0.0853 -0.196915,-0.04 -0.426152,0.20529 -0.338073,0.36174 -0.316654,0.47072 0.09252,0.47072 0.472122,0 0.827181,-0.25312 1.152391,-0.82153 0.319385,-0.55822 0.562072,-0.81031 0.462202,-0.4801 -0.03079,0.1018 -0.101718,0.33801 -0.157623,0.5249 l -0.101644,0.33982 0.297383,-0.36409 c 0.171984,-0.21056 0.383286,-0.36409 0.501106,-0.36409 0.112047,0 0.325807,-0.11696 0.475021,-0.25992 0.149215,-0.14295 0.29948,-0.23174 0.333925,-0.19729 0.102635,0.10263 -0.151717,0.60934 -0.448692,0.89386 -0.357166,0.34218 -0.283719,0.53426 0.204298,0.53426 0.425598,0 0.505483,0.14112 0.132827,0.23465 -0.314754,0.079 -1.068688,0.7994 -0.898174,0.85822 0.06813,0.0235 0.265318,-0.024 0.438196,-0.10556 0.61893,-0.29201 0.424989,0.0525 -0.355229,0.63101 -0.288886,0.2142 -0.01586,0.25042 0.33358,0.0442 0.705874,-0.41648 0.741562,-0.16637 0.04046,0.28352 -0.693143,0.44479 -0.415207,0.54143 0.313399,0.10897 0.564453,-0.33502 1.052551,-0.80103 1.052551,-1.00491 0,-0.055 -0.06554,-0.0749 -0.145636,-0.0441 -0.173662,0.0666 -0.184662,-0.078 -0.04033,-0.53035 0.295323,-0.92559 0.692907,-1.43652 1.020127,-1.31096 0.107008,0.0411 0.05901,0.15873 -0.206781,0.50694 -0.190373,0.2494 -0.322031,0.51626 -0.292574,0.59303 0.02946,0.0768 0.05356,0.18027 0.05356,0.23002 0,0.11877 0.670776,-0.16365 0.921033,-0.38779 0.290092,-0.25982 0.418051,-0.3152 0.483527,-0.20925 0.03229,0.0522 -0.123435,0.28233 -0.346061,0.5113 -0.222625,0.22898 -0.519094,0.56779 -0.658819,0.75293 -0.357117,0.47318 -0.575109,0.68283 -0.710005,0.68283 -0.06388,0 -0.27141,0.103 -0.461179,0.22888 -0.509259,0.33782 -0.957186,0.60215 -1.582938,0.93411 -0.307048,0.16289 -0.558269,0.33922 -0.558269,0.39186 0,0.1507 0.156354,0.11631 0.889301,-0.19558 0.740874,-0.31527 0.858326,-0.34202 0.858326,-0.19548 0,0.0527 -0.159626,0.16248 -0.354724,0.24399 -0.195098,0.0815 -0.325442,0.1775 -0.289653,0.21329 0.03579,0.0358 0.116771,0.0134 0.179961,-0.0498 0.160117,-0.16012 0.296082,-0.14384 0.202048,0.0242 -0.0923,0.16492 -0.664144,0.5915 -0.981377,0.73207 -0.123363,0.0547 -0.19717,0.14328 -0.164017,0.19692 0.0399,0.0646 0.127059,0.0618 0.257757,-0.008 0.178237,-0.0954 0.190732,-0.0836 0.128259,0.1211 -0.03807,0.12474 -0.129584,0.29577 -0.203368,0.38007 -0.393449,0.44955 0.271153,0.7188 0.936463,0.37938 0.386699,-0.19728 1.03566,-0.89856 0.879645,-0.95057 -0.05028,-0.0168 -0.312183,0.0645 -0.582006,0.18058 -0.479437,0.20624 -0.785711,0.2034 -0.785711,-0.007 0,-0.0578 0.152917,-0.16898 0.339816,-0.24708 0.186899,-0.0781 0.339816,-0.20219 0.339816,-0.27579 0,-0.0736 0.0983,-0.15901 0.218453,-0.18981 0.139445,-0.0357 0.323799,-0.25514 0.509725,-0.6066 0.160199,-0.30282 0.400498,-0.66922 0.533997,-0.81421 0.133499,-0.14499 0.351953,-0.42159 0.485452,-0.61467 0.133499,-0.19308 0.286417,-0.33701 0.339816,-0.31984 0.08684,0.0279 0.09363,0.14103 0.0386,0.64265 -0.0088,0.0801 0.01421,0.21646 0.05111,0.30302 0.03921,0.092 0.0043,0.22023 -0.08413,0.30861 -0.213099,0.2131 -0.188288,0.27519 0.08278,0.20715 0.175592,-0.0441 0.245728,-0.0142 0.28098,0.11952 0.04162,0.15792 0.05498,0.15334 0.117138,-0.0402 0.07425,-0.2312 0.338785,-0.30492 0.338785,-0.0944 0,0.27087 -0.320334,0.5497 -1.016073,0.88442 -0.401062,0.19296 -0.773423,0.35083 -0.827469,0.35083 -0.145378,0 -0.12084,0.0745 0.09592,0.29127 0.226394,0.22639 0.250973,0.38836 0.05893,0.38836 -0.112843,0 -0.253114,0.19272 -0.253114,0.34776 0,0.0223 0.111396,0.0406 0.247547,0.0406 0.287934,0 0.786053,-0.23663 0.840226,-0.39915 0.02625,-0.0788 0.129613,-0.0642 0.348588,0.049 0.234952,0.1215 0.311176,0.22582 0.310903,0.42547 -3.03e-4,0.24469 -0.312976,0.88029 -0.488396,0.99291 -0.04178,0.0268 -0.106679,0.2125 -0.144223,0.41263 -0.06086,0.3244 -0.04665,0.36387 0.130994,0.36387 0.109591,0 0.224222,-0.0404 0.254734,-0.0898 0.126173,-0.20415 1.251374,-0.97823 1.421958,-0.97823 0.234515,0 0.235735,0.19981 0.003,0.49663 -0.09984,0.12735 -0.212538,0.37355 -0.25044,0.5471 -0.0379,0.17354 -0.09821,0.31682 -0.134016,0.31838 -0.03581,0.002 -0.211269,0.13575 -0.389916,0.29819 -0.357172,0.32476 -0.348419,0.49216 0.01334,0.25513 0.125722,-0.0824 0.334617,-0.16475 0.46421,-0.18306 0.22588,-0.0319 0.235213,-0.0112 0.225714,0.50071 -0.0078,0.41815 -0.07621,0.64164 -0.315543,1.03019 -0.358215,0.58155 -0.378047,0.71744 -0.104703,0.71744 0.285475,0 0.211398,0.39549 -0.103843,0.55441 -0.133499,0.0673 -0.17719,0.12161 -0.09709,0.1207 0.0801,-8.2e-4 0.230445,-0.0658 0.3341,-0.1442 0.475941,-0.35999 0.635328,-0.0124 0.242796,0.52947 -0.157094,0.21686 -0.285625,0.41652 -0.285625,0.44368 0,0.11824 0.667344,0.0355 0.776723,-0.0962 0.15126,-0.18226 0.291271,-0.1878 0.291271,-0.0115 0,0.15517 -0.530438,0.58285 -0.847007,0.68292 -0.211951,0.067 -0.609348,0.49035 -0.609348,0.64914 0,0.0444 0.143054,-0.004 0.317898,-0.10684 0.174843,-0.10316 0.469755,-0.19999 0.65536,-0.21518 0.326098,-0.0267 0.33771,-0.016 0.34484,0.31841 0.0086,0.40453 0.09496,0.57633 0.289623,0.57633 0.110736,0 0.141048,-0.17712 0.145385,-0.84954 0.0089,-1.37774 0.385144,-2.06402 0.479972,-0.87546 0.04785,0.59976 0.05293,0.60889 0.354763,0.63819 0.219332,0.0213 0.344984,-0.0256 0.442849,-0.16534 0.07515,-0.10729 0.259785,-0.24189 0.410303,-0.29912 0.270901,-0.103 0.273037,-0.10088 0.211049,0.20906 -0.03444,0.17221 -0.116578,0.35138 -0.182523,0.39815 -0.09494,0.0673 -0.09463,0.0953 0.0015,0.13428 0.174642,0.0709 0.14935,0.53244 -0.04433,0.80895 -0.09113,0.1301 -0.167587,0.34735 -0.169908,0.48278 -0.0037,0.21692 -0.04041,0.24261 -0.308258,0.21585 -0.315853,-0.0316 -0.817168,0.14349 -1.152318,0.40238 -0.19207,0.14836 -0.192127,0.15151 -0.0053,0.28996 0.180088,0.13342 0.170204,0.14951 -0.211394,0.34419 -0.220173,0.11232 -0.428801,0.29398 -0.463617,0.40368 -0.03482,0.1097 -0.226645,0.30256 -0.426284,0.42859 -0.385274,0.24321 -0.689617,0.63012 -0.689617,0.8767 0,0.21958 0.173184,0.18171 0.428404,-0.0937 0.123723,-0.1335 0.29203,-0.24272 0.374016,-0.24272 0.08199,0 0.315389,-0.16385 0.518672,-0.36409 0.312912,-0.30824 0.375279,-0.33692 0.406582,-0.18696 0.02034,0.0974 -0.03239,0.25378 -0.117173,0.34746 -0.08478,0.0937 -0.154145,0.19966 -0.154145,0.2355 0,0.0828 0.65094,0.0676 0.970904,-0.0226 0.285932,-0.0806 0.679632,-0.0232 0.679632,0.0991 0,0.0472 -0.06613,0.0858 -0.146953,0.0858 -0.08082,0 -0.222818,0.0396 -0.315543,0.088 -0.09273,0.0484 -0.355001,0.13775 -0.582835,0.19856 -0.439455,0.11728 -1.090655,0.61612 -1.090655,0.83547 0,0.11998 -0.524075,0.32385 -0.873814,0.33993 -0.08327,0.004 -0.05185,0.0444 0.07335,0.0947 0.120445,0.0484 0.382589,0.0671 0.582542,0.0414 0.199954,-0.0256 0.727111,-0.0853 1.171461,-0.1327 l 0.807907,-0.0861 0.53968,-0.544 c 0.518565,-0.52272 0.708671,-0.64494 0.708671,-0.45563 0,0.10299 -0.775997,1.10978 -0.892261,1.15762 -0.04325,0.0178 -0.07864,0.17629 -0.07864,0.3522 0,0.39152 -0.228806,0.63217 -0.366732,0.38571 -0.08165,-0.14589 -0.107821,-0.13903 -0.251351,0.0659 -0.149457,0.21338 -0.149051,0.23265 0.006,0.28706 0.149193,0.0523 0.144288,0.0771 -0.04776,0.24158 -0.258894,0.22167 -0.272857,0.33428 -0.04145,0.33428 0.267154,0 0.603765,-0.27638 0.539758,-0.44318 -0.07773,-0.20255 0.240436,-0.52773 0.516342,-0.52773 0.213671,0 0.270139,0.0851 0.236607,0.35677 -0.02973,0.24083 0.190384,0.22492 0.283693,-0.0205 0.05394,-0.14188 0.18191,-0.27989 0.284371,-0.30668 0.110543,-0.0289 0.165063,-0.10405 0.134079,-0.18479 -0.02872,-0.0748 -0.0038,-0.13607 0.05526,-0.13607 0.1545,0 0.129994,0.18371 -0.08884,0.66596 -0.25301,0.55759 -0.244615,0.60188 0.100966,0.53276 0.24623,-0.0493 0.28307,-0.0327 0.23073,0.10371 -0.03425,0.0893 -0.08447,0.14011 -0.111598,0.11299 -0.111907,-0.11192 -0.412143,0.16166 -0.412143,0.37554 0,0.21904 -0.481872,0.73339 -0.687082,0.73339 -0.0493,0 -0.08964,0.0413 -0.08964,0.0918 0,0.0505 0.207531,0.10509 0.46118,0.12137 0.376653,0.0242 0.45595,0.0607 0.43265,0.1995 -0.03413,0.20328 0.200693,0.22628 0.359288,0.0352 0.119139,-0.14355 1.309176,-0.73909 1.476891,-0.73909 0.260347,0 -0.01448,0.35344 -0.448483,0.57679 -0.397325,0.20446 -0.480748,0.29158 -0.459967,0.48033 0.01395,0.12681 -0.0446,0.28174 -0.13013,0.34428 -0.142111,0.10392 -0.142208,0.12477 -0.0011,0.24186 0.232552,0.19301 0.188793,0.34636 -0.178853,0.62678 -0.183289,0.1398 -0.360993,0.34159 -0.394902,0.44843 -0.03391,0.10683 -0.101102,0.19424 -0.149321,0.19424 -0.335325,0 -1.204219,0.54832 -1.616625,1.02018 -0.256934,0.29397 -0.620071,0.63523 -0.80697,0.75834 -0.186899,0.12312 -0.60196,0.39393 -0.922358,0.60179 -0.320399,0.20787 -0.604388,0.39457 -0.631088,0.41489 -0.09067,0.069 0.495283,0.50588 0.678505,0.50588 0.100222,0 0.210032,-0.0876 0.24402,-0.19471 0.115707,-0.36456 0.55858,-0.7859 1.128438,-1.07356 0.418275,-0.21114 0.697311,-0.45074 1.05499,-0.90588 0.267464,-0.34034 0.562779,-0.63864 0.656254,-0.66288 0.240837,-0.0625 0.412678,0.0134 0.412678,0.18212 0,0.18316 -0.484137,1.02812 -0.646487,1.1283 -0.06719,0.0415 -0.09478,0.14675 -0.06131,0.23398 0.04031,0.10504 -0.03352,0.23385 -0.218691,0.38149 -0.357394,0.28498 -0.292954,0.34191 0.249491,0.2204 0.433028,-0.097 0.968272,-0.49959 0.968272,-0.7283 0,-0.14624 0.266404,-0.42568 0.405821,-0.42568 0.05891,0 0.07541,0.1007 0.03976,0.24272 -0.06797,0.27082 0.04945,0.31953 0.23405,0.0971 0.165595,-0.19953 0.291273,-0.1827 0.291273,0.039 0,0.11509 -0.137174,0.25581 -0.36409,0.3735 -0.20025,0.10385 -0.379714,0.27198 -0.398808,0.3736 -0.05661,0.30124 -0.213131,0.42728 -0.535438,0.43115 -0.310189,0.004 -1.140745,0.59944 -1.013355,0.72683 0.03436,0.0344 0.268266,-0.0286 0.519791,-0.13982 0.251526,-0.11126 0.501431,-0.20229 0.555348,-0.20229 0.177308,0 2.26141,-1.06192 2.475441,-1.26132 0.115142,-0.10727 0.258505,-0.19504 0.318588,-0.19504 0.726231,0 -2.65243,1.88427 -4.047899,2.2575 -0.338907,0.0906 -0.466247,0.1845 -0.582399,0.42927 -0.155572,0.32785 -0.101984,0.56405 0.109555,0.48287 0.166258,-0.0638 0.339611,0.12133 0.273918,0.29252 -0.029,0.0756 -0.189429,0.2025 -0.356502,0.28203 -0.549443,0.26158 -0.740559,0.39836 -0.667281,0.47759 0.03973,0.043 -0.0469,0.002 -0.192522,-0.0912 -0.261212,-0.16702 -0.268703,-0.16535 -0.55827,0.12422 -0.313479,0.31347 -0.393109,0.6968 -0.144751,0.6968 0.08181,0 0.300268,-0.0633 0.485452,-0.14068 0.185183,-0.0774 0.336698,-0.0992 0.336698,-0.0486 0,0.10842 0.454261,0.12591 0.501634,0.0193 0.06588,-0.14824 1.56596,-0.80099 1.840742,-0.80099 0.04669,0 0.08488,0.0895 0.08488,0.19884 0,0.20983 -0.361553,0.5851 -0.78946,0.81941 -0.231795,0.12693 -0.250865,0.18069 -0.205827,0.58027 0.04187,0.37149 0.02343,0.44038 -0.11791,0.44038 -0.263941,0 -0.73152,0.38164 -0.73152,0.59707 0,0.16657 0.04916,0.18887 0.332285,0.15071 0.443968,-0.0598 0.368755,0.12249 -0.16612,0.40269 -0.347689,0.18214 -0.366181,0.20556 -0.123541,0.15649 0.156941,-0.0317 0.407865,-0.14494 0.557606,-0.25156 0.312717,-0.22268 0.504947,-0.16042 0.411714,0.13333 -0.09104,0.28684 0.48537,0.78821 0.811945,0.70625 0.171442,-0.043 0.212794,-0.0256 0.159828,0.0672 -0.146741,0.25725 -0.367425,0.46507 -0.493864,0.46507 -0.07182,0 -0.21088,0.0765 -0.309016,0.1699 -0.09813,0.0935 -0.261975,0.22615 -0.364089,0.29488 -0.161422,0.10865 -0.13179,0.11801 0.226974,0.0717 0.400833,-0.0518 0.412634,-0.0454 0.412634,0.22157 0,0.24813 -0.04807,0.28796 -0.494053,0.4094 -0.272282,0.0742 -0.570454,0.23167 -0.664254,0.35091 -0.09361,0.11901 -0.352835,0.31157 -0.576054,0.42792 -0.352754,0.18387 -0.443655,0.19589 -0.694794,0.0919 -0.293832,-0.12171 -0.33356,-0.10471 -1.054978,0.45133 -0.02058,0.0159 0.03752,0.14323 0.12912,0.28303 0.221363,0.33784 0.154029,0.37806 -0.168685,0.10076 -0.256191,-0.22014 -0.275999,-0.22216 -0.785718,-0.0803 -0.79532,0.22137 -1.146376,0.11406 -1.855935,-0.56729 -0.629058,-0.60405 -0.767235,-0.67192 -0.862517,-0.42362 -0.04843,0.1262 -0.09497,0.11175 -0.278771,-0.0866 -0.175874,-0.18977 -0.353307,-0.25077 -0.87461,-0.30069 -0.467682,-0.0448 -0.653976,-0.0305 -0.653976,0.0501 0,0.0824 -0.423887,0.10296 -1.577719,0.0764 l -1.577718,-0.0363 0.01644,0.58254 c 0.09045,3.20581 0.09487,6.81439 0.0085,6.92006 -0.05564,0.068 -0.11857,0.72196 -0.139844,1.45312 -0.03049,1.04784 -0.07187,1.36606 -0.195373,1.50253 -0.194518,0.21494 -0.830344,0.23243 -1.00041,0.0275 z m 0.875941,-2.03836 c -0.03213,-0.15991 -0.08581,-0.24642 -0.119287,-0.19225 -0.09693,0.15683 -0.10886,1.14345 -0.01641,1.3568 0.06528,0.15066 0.09647,0.0745 0.139129,-0.33982 0.03024,-0.2937 0.0287,-0.66483 -0.0034,-0.82473 z m -0.849252,0.62503 c -0.05457,-0.20866 -0.220103,-0.2588 -0.222195,-0.0673 -7.7e-4,0.0667 -0.02943,0.23059 -0.06379,0.36409 -0.06121,0.23787 -0.05848,0.23921 0.13643,0.0673 0.121994,-0.1076 0.179816,-0.24836 0.149553,-0.36409 z m 0.428956,-5.98796 c -0.02462,-0.0945 -0.04638,-0.0407 -0.04836,0.11951 -0.002,0.1602 0.01816,0.23749 0.04476,0.17176 0.0266,-0.0657 0.02821,-0.19681 0.0036,-0.29127 z m -0.003,-0.53585 c -0.02693,-0.0667 -0.04897,-0.0121 -0.04897,0.12136 0,0.1335 0.02204,0.18812 0.04897,0.12137 0.02693,-0.0667 0.02693,-0.17598 0,-0.24273 z m -0.264506,-1.85895 c 0.05892,-0.52841 0.08438,-0.9835 0.05658,-1.0113 -0.127256,-0.12726 -0.179959,0.14926 -0.201003,1.05462 -0.0125,0.5376 -0.0092,0.96394 0.0073,0.94744 0.01651,-0.0165 0.07822,-0.46235 0.137138,-0.99076 z m -10.479738,0.62105 c 0,-0.0534 -0.177341,-0.0971 -0.394092,-0.0971 -0.238003,0 -0.370325,0.0385 -0.334086,0.0971 0.033,0.0534 0.210344,0.0971 0.394092,0.0971 0.183747,0 0.334086,-0.0437 0.334086,-0.0971 z m 11.359575,-0.20564 c 0,-0.1068 -0.04369,-0.16718 -0.09709,-0.13418 -0.0534,0.033 -0.09709,0.14739 -0.09709,0.25419 0,0.1068 0.04369,0.16718 0.09709,0.13417 0.0534,-0.033 0.09709,-0.14738 0.09709,-0.25418 z m 7.082285,-0.33476 c -0.185029,-0.22295 -0.67432,-0.46036 -0.67432,-0.3272 0,0.15857 0.407721,0.47226 0.618702,0.47601 0.154064,0.003 0.162548,-0.02 0.05562,-0.14881 z m -12.753529,-0.20449 c 0.376581,-0.14451 -0.01876,-0.22972 -1.165182,-0.25114 -0.933688,-0.0174 -1.263645,0.008 -1.294294,0.0981 -0.07656,0.22612 0.395383,0.31699 1.363105,0.26244 0.523089,-0.0295 1.016456,-0.0787 1.096371,-0.10936 z m -3.892159,-0.37641 c -0.160199,-0.13558 -0.401254,-0.28901 -0.535679,-0.34095 -0.189346,-0.0732 -0.271146,-0.207 -0.363096,-0.5941 -0.110451,-0.46497 -0.104959,-0.50927 0.07913,-0.63821 0.218237,-0.15286 0.1419,-0.32655 -0.231299,-0.52628 -0.276347,-0.1479 -1.813219,0.28353 -1.813219,0.509 0,0.21012 1.039367,1.18748 1.40781,1.32382 0.553979,0.205 1.456917,0.48682 1.601992,0.5 0.08272,0.008 0.01981,-0.0933 -0.145636,-0.23328 z m 5.70406,-0.20444 c 0.09345,-0.0256 0.169908,-0.10453 0.169908,-0.17532 0,-0.0708 -0.07646,-0.15859 -0.169908,-0.19511 -0.148844,-0.0582 -0.135207,-0.0943 0.110005,-0.29133 l 0.279913,-0.22493 -0.22071,-0.11812 c -0.143283,-0.0767 -0.394748,-0.0954 -0.716819,-0.0534 -0.809841,0.10558 -0.915722,0.14753 -0.8647,0.34264 0.04011,0.15338 -0.04625,0.18703 -0.665382,0.25926 -0.568383,0.0663 -0.718186,0.11811 -0.744845,0.25752 -0.03039,0.15896 0.04532,0.17243 0.849038,0.15108 0.585784,-0.0155 0.921589,0.0157 0.998966,0.0931 0.107296,0.1073 0.481526,0.0899 0.974534,-0.0454 z m 12.181321,-0.43549 c 0.363728,-0.17292 0.39631,-0.21499 0.293703,-0.37929 -0.0896,-0.14347 -0.08881,-0.2114 0.0035,-0.30374 0.06541,-0.0654 0.118932,-0.17726 0.118932,-0.24856 0,-0.10247 -0.04364,-0.10628 -0.20826,-0.0182 -0.19406,0.10386 -0.782682,0.12018 -2.307151,0.064 -0.619831,-0.0229 -0.622195,-0.0219 -0.63453,0.24945 -0.0155,0.34091 0.0545,0.39219 0.756864,0.55446 0.312499,0.0722 0.591785,0.19279 0.620638,0.26797 0.06937,0.18078 0.793641,0.0814 1.356283,-0.18607 z m -2.399465,-0.56894 c 0,-0.0534 0.0848,-0.0971 0.18845,-0.0971 0.103648,0 0.215454,0.0437 0.248456,0.0971 0.03403,0.0551 -0.04754,0.0971 -0.18845,0.0971 -0.136651,0 -0.248456,-0.0437 -0.248456,-0.0971 z m -13.342685,0.57082 c 0.08212,-0.13287 -0.0955,-0.10051 -0.304229,0.0554 -0.181826,0.13584 -0.180716,0.13885 0.0315,0.0854 0.120981,-0.0305 0.243709,-0.0939 0.272728,-0.14081 z m 9.610421,-0.0399 c -0.211758,-0.16017 -0.405632,-0.18386 -0.482799,-0.059 -0.08304,0.13436 0.05069,0.20795 0.371902,0.20463 0.284232,-0.003 0.289837,-0.0103 0.110897,-0.14563 z m 7.130427,-0.18536 c 0,-0.0236 -0.04369,-0.0698 -0.09709,-0.10282 -0.0534,-0.033 -0.09709,-0.0137 -0.09709,0.0428 0,0.0566 0.04369,0.10282 0.09709,0.10282 0.0534,0 0.09709,-0.0193 0.09709,-0.0428 z M 51.05973,286.48793 c 0,-0.0534 -0.01927,-0.0971 -0.04281,-0.0971 -0.02355,0 -0.06982,0.0437 -0.102821,0.0971 -0.033,0.0534 -0.01374,0.0971 0.04282,0.0971 0.05655,0 0.102821,-0.0437 0.102821,-0.0971 z m -5.152242,-0.49996 c 0.270547,-0.16819 0.491903,-0.34295 0.491903,-0.38837 0,-0.0454 0.09466,-0.0826 0.210363,-0.0826 0.115699,0 0.181514,-0.0289 0.146253,-0.0641 -0.03526,-0.0353 0.02372,-0.12563 0.131078,-0.20083 0.32493,-0.22759 0.120482,-0.32216 -0.713399,-0.32999 -2.667346,-0.025 -2.70178,-0.0237 -2.783588,0.10865 -0.06007,0.0972 0.04693,0.19157 0.405496,0.35769 0.574141,0.26601 0.676224,0.27351 1.055173,0.0776 0.350153,-0.18107 0.371292,-0.0625 0.04372,0.24522 -0.390856,0.36719 -0.297879,0.53903 0.309092,0.57128 0.116601,0.006 0.433359,-0.12634 0.703905,-0.29452 z m -0.576091,-0.80503 c 0,-0.0832 0.04369,-0.15137 0.09709,-0.15137 0.0534,0 0.09709,0.0411 0.09709,0.0914 0,0.0503 -0.04369,0.11837 -0.09709,0.15137 -0.0534,0.033 -0.09709,-0.008 -0.09709,-0.0914 z m 18.953125,0.69984 c 0.282106,-0.13576 0.458853,-0.28524 0.461179,-0.39003 0.0021,-0.0934 -0.02384,-0.16991 -0.05759,-0.16991 -0.07875,0 -0.694949,0.37169 -0.995457,0.60046 -0.204746,0.15586 -0.210365,0.17646 -0.04854,0.17793 0.100651,8.3e-4 0.388835,-0.0974 0.640408,-0.21845 z m -2.809805,-0.21444 c 0.201364,-0.019 0.485353,-0.11394 0.631088,-0.21096 0.238974,-0.15908 0.246399,-0.18017 0.07567,-0.21487 -0.104116,-0.0212 -0.40995,0.01 -0.679633,0.0685 -0.397795,0.0868 -1.624955,0.28031 -1.965283,0.3099 -0.04317,0.004 0.0089,0.0467 0.115688,0.0954 0.172722,0.0788 0.597706,0.0676 1.82247,-0.048 z m 1.332968,0.0971 c 0,-0.10247 -0.186327,-0.14553 -0.241747,-0.0559 -0.03354,0.0543 0.0071,0.0987 0.09038,0.0987 0.08325,0 0.151366,-0.0193 0.151367,-0.0428 z m -22.400587,-0.39409 c -0.01169,-0.0534 -0.131572,-0.11089 -0.266404,-0.12775 -0.192176,-0.0241 -0.232118,0.003 -0.184842,0.12649 0.06454,0.1682 0.488048,0.16938 0.451246,10e-4 z m 9.924473,0.0141 c 0.28208,-0.0847 0.396852,-0.17566 0.419387,-0.33235 0.01706,-0.11865 0.01705,-0.21573 -3.6e-5,-0.21573 -0.07312,0 -1.317911,0.28667 -1.578109,0.36343 -0.15672,0.0462 -0.302355,0.1363 -0.323634,0.20013 -0.05127,0.15381 0.953648,0.14331 1.482392,-0.0155 z m 13.87748,-0.14979 c 0.103255,-0.0404 0.146946,-0.0978 0.09709,-0.12741 -0.09641,-0.0573 -0.527552,0.0758 -0.527552,0.1629 0,0.0703 0.202935,0.0536 0.430462,-0.0355 z m -15.854759,-0.18442 c -0.126308,-0.0199 -0.269675,0.004 -0.318593,0.0528 -0.05386,0.0539 0.03671,0.0681 0.229651,0.0361 0.269612,-0.0447 0.283287,-0.0584 0.08894,-0.0889 z m 10.229961,0.10105 c 0.0534,-0.0397 0.148072,-0.13773 0.210382,-0.21783 0.09781,-0.12573 0.04474,-0.14293 -0.388361,-0.12586 -0.489322,0.0193 -1.44745,-0.0811 -2.460435,-0.2579 -0.562548,-0.0982 -1.579183,0.0108 -1.245201,0.13349 0.1068,0.0392 0.313874,0.13563 0.460165,0.21423 0.146291,0.0786 0.452125,0.17613 0.679632,0.21673 0.557576,0.0995 2.622361,0.12745 2.743818,0.0371 z m -4.656726,-0.61203 c 0.02702,-0.0437 -0.06961,-0.18961 -0.214745,-0.32418 -0.268365,-0.24884 -0.517045,-0.20448 -0.517045,0.0923 0,0.32696 0.562816,0.50533 0.73179,0.23193 z m 5.529355,0.008 c 0.03034,-0.0491 -0.03943,-0.13989 -0.155056,-0.20178 -0.242618,-0.12984 -2.102296,-0.0288 -1.96511,0.10673 0.140749,0.13909 2.040314,0.22425 2.120166,0.095 z m -13.389347,-0.099 c 0.368756,0 0.278295,-0.16876 -0.282891,-0.52774 -0.848955,-0.54308 -1.443082,-0.66702 -2.918377,-0.60884 -1.516383,0.0598 -1.862523,0.11041 -2.052212,0.3001 -0.07864,0.0786 -0.142977,0.16227 -0.142977,0.18584 0,0.0452 0.613086,0.21458 1.134103,0.31332 0.16986,0.0322 0.360895,0.12126 0.424523,0.19793 0.08233,0.0992 0.332743,0.13939 0.868385,0.13939 0.919578,0 1.359514,-0.0803 1.359514,-0.24832 0,-0.0698 0.09051,-0.15568 0.201138,-0.19079 0.189823,-0.0602 0.306962,0.005 0.754989,0.42042 0.0753,0.0698 0.200381,0.10259 0.277963,0.0728 0.07758,-0.0298 0.24671,-0.0541 0.375842,-0.0541 z m -4.86246,-0.77672 c -0.033,-0.0534 0.02995,-0.0971 0.139906,-0.0971 0.10995,0 0.19991,0.0437 0.19991,0.0971 0,0.0534 -0.06296,0.0971 -0.139905,0.0971 -0.07695,0 -0.166908,-0.0437 -0.199911,-0.0971 z m 7.060806,0.65823 c -0.159823,-0.15982 -0.212248,-0.16496 -0.490333,-0.048 -0.398253,0.16745 -0.289106,0.2766 0.248756,0.24876 0.408607,-0.0212 0.415458,-0.0268 0.241577,-0.20073 z m -8.48577,-0.1381 c -0.01727,-0.0877 -0.09693,-0.19166 -0.177027,-0.23096 -0.925035,-0.45391 -1.405501,-0.66366 -1.440352,-0.62881 -0.02318,0.0232 0.01081,0.16997 0.07552,0.3262 0.08223,0.19851 0.23967,0.32899 0.522793,0.43324 0.775355,0.28551 1.061047,0.31364 1.019066,0.10033 z m 9.526763,-0.23341 c -0.225215,-0.19533 -0.480204,-0.25246 -0.480204,-0.10759 0,0.10502 0.296084,0.36406 0.485452,0.42472 0.234815,0.0752 0.231723,-0.11161 -0.0052,-0.31713 z m 9.327113,-0.0925 c 0.208256,0 0.284242,-0.0513 0.307603,-0.20786 0.02315,-0.15509 0.112169,-0.21662 0.35068,-0.24236 0.371935,-0.0401 0.893975,-0.28896 0.893975,-0.42609 0,-0.052 -9.8e-5,-0.12206 -1.95e-4,-0.15563 -1.94e-4,-0.059 -1.643131,-0.0482 -2.135756,0.0142 -0.133499,0.0169 -0.319185,0.0343 -0.412634,0.0388 -0.09345,0.004 -0.169908,0.0513 -0.169908,0.10415 0,0.0844 0.925779,0.0714 1.234742,-0.0173 0.05781,-0.0166 0.120397,0.0135 0.139087,0.0669 0.01869,0.0534 -0.06699,0.1114 -0.190409,0.12889 -0.123415,0.0175 -0.248156,0.0937 -0.2772,0.16942 -0.03767,0.0982 -0.154291,0.12282 -0.406698,0.086 -0.413313,-0.0603 -1.292495,0.14536 -1.348277,0.31539 -0.02724,0.083 0.182662,0.12658 0.720702,0.14952 0.417528,0.0178 0.817326,0.0197 0.888444,0.004 0.07112,-0.0155 0.253764,-0.0282 0.405882,-0.0282 z m -7.865509,-0.28088 c 0,-0.11004 -0.245221,-0.20548 -0.517666,-0.20148 -0.205992,0.003 -0.206464,0.006 -0.02205,0.14563 0.208125,0.15742 0.539712,0.19173 0.539713,0.0558 z m 4.994438,-0.25621 c 0.103656,-0.0784 0.308608,-0.14254 0.45545,-0.14254 0.146841,0 0.288037,-0.0341 0.313767,-0.0757 0.02573,-0.0416 -0.04815,-0.0715 -0.164178,-0.0665 -0.318317,0.014 -1.13332,0.27107 -1.13332,0.35753 0,0.12494 0.326276,0.0799 0.528281,-0.0728 z m -6.570772,-0.20287 c 0.121712,-0.12172 0.279816,-0.14597 0.696969,-0.10693 0.296752,0.0278 0.605084,0.0659 0.685184,0.0846 0.09757,0.0228 0.155774,-0.054 0.176357,-0.2329 0.02454,-0.21326 -0.0087,-0.26699 -0.165339,-0.26699 -0.107835,0 -0.308078,-0.051 -0.444987,-0.11342 -0.210634,-0.096 -0.26881,-0.0862 -0.378201,0.0634 -0.171622,0.2347 -0.316538,0.12874 -0.394853,-0.28871 l -0.06395,-0.34089 H 48.454047 47.60477 l -0.115887,0.43329 -0.115888,0.43329 -0.680972,-0.0206 c -0.469267,-0.0142 -0.680973,-0.0583 -0.680973,-0.14202 0,-0.14315 -0.183521,-0.15589 -0.38755,-0.0269 -0.258351,0.16333 0.01383,0.25901 1.212818,0.42635 2.077617,0.28997 2.160797,0.29344 2.355827,0.0984 z m 14.141501,-0.23463 c 0.0535,-0.0523 0.0212,-0.11308 -0.0809,-0.15226 -0.111343,-0.0427 -0.242505,0.0105 -0.380324,0.15424 l -0.210368,0.21946 0.291271,-0.0672 c 0.160199,-0.037 0.331345,-0.10637 0.380325,-0.15424 z m -8.778643,-0.28758 c 0,-0.0534 -0.01927,-0.0971 -0.04281,-0.0971 -0.02355,0 -0.06982,0.0437 -0.102821,0.0971 -0.033,0.0534 -0.01374,0.0971 0.04281,0.0971 0.05655,0 0.10282,-0.0437 0.102821,-0.0971 z m 6.789972,-0.59215 c 0.260424,-0.49964 0.255793,-0.67142 -0.01792,-0.66455 -0.437944,0.011 -0.888888,0.23172 -0.94268,0.46143 -0.02887,0.1233 -0.08526,0.2216 -0.125314,0.21845 -0.04005,-0.003 -0.161281,-0.006 -0.269402,-0.006 -0.115995,0 -0.231512,-0.0919 -0.281784,-0.2241 -0.07352,-0.19336 -0.147253,-0.222 -0.537767,-0.20881 -0.273893,0.009 -0.515842,0.0786 -0.612835,0.17555 -0.148963,0.14896 -0.148527,0.16027 0.0062,0.16027 0.09154,0 0.166441,0.0437 0.166441,0.0971 0,0.0534 -0.0848,0.0971 -0.188451,0.0971 -0.103648,0 -0.215453,0.0437 -0.248456,0.0971 -0.033,0.0534 -0.0465,0.0976 -0.03,0.0982 0.696174,0.025 2.059292,0.13633 2.311627,0.18871 0.402946,0.0836 0.504852,0.0187 0.770368,-0.49067 z m -2.420904,-0.011 c 0,-0.042 0.131072,-0.0764 0.291271,-0.0764 0.160199,0 0.291271,0.0444 0.291271,0.0986 0,0.0543 -0.131072,0.0886 -0.291271,0.0764 -0.160199,-0.0122 -0.291271,-0.0566 -0.291271,-0.0986 z m 5.474764,0.19056 c 0.188342,-0.12014 0.344288,-0.2767 0.346549,-0.3479 0.0023,-0.0712 -0.02866,-0.11266 -0.06871,-0.0921 -0.04005,0.0205 -0.28629,0.13807 -0.5472,0.2612 -0.350096,0.16523 -0.439126,0.24621 -0.339816,0.3091 0.191206,0.12109 0.227249,0.11339 0.609175,-0.13026 z m -13.533266,-0.27738 c 0,-0.11907 -0.06839,-0.18379 -0.194181,-0.18379 -0.201735,0 -0.233627,0.0755 -0.1376,0.32574 0.07606,0.19822 0.331781,0.0888 0.331781,-0.14195 z m -5.950002,0.14421 c 0.219661,-0.0589 0.376145,-0.35079 0.275423,-0.51376 -0.03321,-0.0537 -0.281902,-0.0317 -0.613083,0.0544 -0.306465,0.0796 -0.688282,0.17848 -0.848481,0.2197 -0.291004,0.0749 -0.29087,0.075 0.145635,0.1771 0.531588,0.1243 0.759262,0.138 1.040506,0.0626 z m 7.696142,-0.30946 c -0.0013,-0.14149 -0.01449,-0.14405 -0.0956,-0.0186 -0.122877,0.19014 -0.122877,0.31867 0,0.24272 0.0534,-0.033 0.09642,-0.13388 0.0956,-0.22418 z m -11.218897,-0.20282 c 0.239486,-0.0938 0.101766,-0.1788 -0.426448,-0.26327 -0.401326,-0.0642 -0.410861,-0.0597 -0.302867,0.14209 0.113961,0.21294 0.381492,0.25739 0.729315,0.12118 z m 1.948253,-0.006 0.291271,-0.0699 -0.255268,-0.0719 c -0.343037,-0.0966 -0.788484,-0.0364 -0.837602,0.1132 -0.04394,0.1338 0.310087,0.14641 0.801599,0.0285 z m 4.718039,-0.20003 c -0.873518,-0.31417 -1.631895,-0.43362 -1.810739,-0.28519 -0.137672,0.11425 -0.135706,0.13595 0.02022,0.22322 0.300447,0.16813 0.738378,0.23767 1.538635,0.2443 l 0.776723,0.006 -0.524842,-0.18877 z m -3.949815,0.04 c 0.177742,-0.0682 0.111083,-0.23255 -0.09432,-0.23255 -0.07695,0 -0.139906,0.0655 -0.139906,0.14563 0,0.16334 0.01783,0.16996 0.234228,0.0869 z M 54.8986,281.24088 c 0.157339,-0.17386 0.159198,-0.19056 0.01505,-0.13525 -0.09045,0.0347 -0.164464,0.0989 -0.164464,0.1427 0,0.0438 -0.07646,0.0996 -0.169908,0.12398 -0.138069,0.0361 -0.140889,0.0465 -0.01505,0.0557 0.08517,0.006 0.235641,-0.078 0.334373,-0.1871 z m 2.516668,-0.13447 c 0.312774,-0.0297 0.582155,-0.0674 0.598624,-0.0839 0.01647,-0.0165 -0.0043,-0.15882 -0.0462,-0.31634 -0.07963,-0.29949 -0.401195,-0.43351 -0.626684,-0.26117 -0.06381,0.0488 -0.369846,0.18932 -0.68008,0.31235 -0.310233,0.12302 -0.528686,0.25754 -0.485452,0.29892 0.08085,0.0774 0.522167,0.16824 0.617587,0.12713 0.02944,-0.0127 0.309432,-0.0473 0.622206,-0.077 z m -13.782933,-0.2497 c -0.168258,-0.18592 -0.625629,-0.26437 -0.7597,-0.1303 -0.138553,0.13856 0.173104,0.32448 0.54391,0.32448 0.385371,0 0.38876,-0.003 0.21579,-0.19418 z m 16.74809,0.0842 c 0.240299,-0.0558 0.624913,-0.12406 0.854698,-0.15159 0.318298,-0.0381 0.410559,-0.0876 0.387418,-0.20777 -0.0382,-0.19835 -0.577514,-0.40754 -0.631752,-0.24504 -0.0268,0.0803 -0.126227,0.0835 -0.360704,0.0115 -0.585196,-0.1796 -1.574219,0.0878 -1.057754,0.286 0.145679,0.0559 0.143124,0.0702 -0.02427,0.13576 -0.102896,0.0403 -0.296309,0.0757 -0.429809,0.0786 -0.18648,0.004 -0.209609,-0.0156 -0.09981,-0.085 0.122999,-0.0778 0.120265,-0.0991 -0.01962,-0.15275 -0.2161,-0.0829 -0.366017,0.0202 -0.366017,0.25184 0,0.16834 0.06992,0.188 0.655359,0.18422 0.360449,-0.002 0.851969,-0.0499 1.092267,-0.10577 z m -0.388361,-0.27836 c 0,-0.0534 0.03277,-0.0999 0.07282,-0.10329 0.04005,-0.003 0.214812,-0.0202 0.388361,-0.0373 0.328919,-0.0324 0.42778,0.0767 0.161967,0.17871 -0.240846,0.0924 -0.623146,0.069 -0.623146,-0.0382 z m -17.502687,-0.0308 c -0.02102,-0.0631 -0.111056,-0.12891 -0.200081,-0.14618 -0.117744,-0.0228 -0.161862,0.0376 -0.161862,0.22187 0,0.22566 0.0218,0.24159 0.200081,0.14618 0.110044,-0.0589 0.182882,-0.15874 0.161862,-0.22187 z m 2.356587,0.17335 c 0,-0.0786 -0.426573,-0.22289 -0.511308,-0.17294 -0.138588,0.0817 0.03596,0.22462 0.274313,0.22462 0.130347,0 0.236995,-0.0233 0.236995,-0.0517 z m 0.776723,-0.0826 c 0,-0.0739 -0.08738,-0.15716 -0.19418,-0.18508 -0.188105,-0.0492 -0.270744,0.11338 -0.129454,0.25467 0.114185,0.11419 0.323634,0.0692 0.323634,-0.0696 z m -5.129716,-0.22977 c -0.165781,-0.23135 -1.180852,-0.704 -1.51175,-0.70393 -0.135599,3e-5 0.234436,0.37386 0.516201,0.5215 0.138213,0.0724 0.382369,0.2029 0.542569,0.28995 0.160199,0.0871 0.370704,0.15855 0.46779,0.15888 0.167021,5.5e-4 0.166224,-0.0138 -0.01481,-0.2664 z m 7.751157,0.1818 c 0,-0.0469 -0.06739,-0.14114 -0.149751,-0.20949 -0.170806,-0.14175 -0.403756,0.009 -0.292384,0.18914 0.07771,0.12574 0.442135,0.14251 0.442135,0.0203 z m 14.21742,-0.10658 c 0.378606,-0.14395 0.321273,-0.39077 -0.09077,-0.39077 -0.297744,0 -0.339816,0.0301 -0.339816,0.24273 0,0.26731 0.06138,0.28841 0.430586,0.14804 z M 46.690682,280.4019 c 0,-0.0366 -0.095,-0.16769 -0.211105,-0.29127 -0.148201,-0.15776 -0.320078,-0.22472 -0.576813,-0.22472 -0.646595,0 -0.533434,0.20977 0.253921,0.47069 0.356658,0.1182 0.533997,0.13324 0.533997,0.0453 z m 8.984506,-0.14745 c 0.08379,-0.0838 -0.320544,-0.19998 -0.439684,-0.12635 -0.185282,0.11451 -0.09764,0.24987 0.141096,0.21789 0.13148,-0.0176 0.265844,-0.0588 0.298588,-0.0915 z m -8.256328,-0.0773 c 0.033,-0.0534 -0.01069,-0.0971 -0.09709,-0.0971 -0.0864,0 -0.130093,0.0437 -0.09709,0.0971 0.033,0.0534 0.07669,0.0971 0.09709,0.0971 0.0204,0 0.06409,-0.0437 0.09709,-0.0971 z m 3.835069,-0.0485 c 0,-0.18378 -0.105388,-0.18472 -0.345532,-0.003 -0.180519,0.13653 -0.177208,0.14267 0.07853,0.14563 0.173977,0.002 0.266998,-0.0477 0.266998,-0.14255 z m -7.67014,-0.0476 c 0,-0.093 -0.38702,-0.29963 -0.800995,-0.42776 -0.09345,-0.0289 -0.169908,-0.13598 -0.169908,-0.23792 0,-0.10194 -0.06294,-0.23758 -0.139865,-0.30142 -0.07693,-0.0638 -0.121075,-0.1675 -0.09811,-0.23034 0.05543,-0.15169 -0.05364,-0.30254 -0.320295,-0.44296 -0.318439,-0.1677 -0.286223,-0.42131 0.04854,-0.38216 0.237379,0.0278 0.266999,-1.9e-4 0.266999,-0.25196 0,-0.2603 -0.02818,-0.28318 -0.348847,-0.28318 -0.191865,0 -0.452808,0.0728 -0.579872,0.16182 -0.127065,0.089 -0.308686,0.16182 -0.403605,0.16182 -0.187353,0 -0.230371,0.19464 -0.07693,0.34808 0.05261,0.0526 0.139162,0.32509 0.192346,0.60553 0.121723,0.64185 0.32989,0.92232 0.856013,1.15333 0.458868,0.20148 1.574524,0.29156 1.574524,0.12712 z m 10.896049,-0.10697 0.31789,-0.20307 -0.555773,0.0502 c -0.602935,0.0544 -0.789226,0.12488 -0.702255,0.2656 0.09808,0.1587 0.611681,0.0971 0.940138,-0.11269 z m -3.436221,-0.17326 c 0.186323,-0.11811 -0.122088,-0.22395 -0.42849,-0.14705 -0.261955,0.0658 -0.301464,-0.0659 -0.144035,-0.47998 l 0.09098,-0.23929 -0.600701,0.043 c -0.330385,0.0237 -0.796408,0.0671 -1.035607,0.0966 -0.407861,0.0503 -0.422955,0.0624 -0.242725,0.1944 0.131852,0.0966 0.33695,0.12524 0.65336,0.0912 0.362839,-0.039 0.461179,-0.0192 0.461179,0.0926 0,0.0782 -0.0848,0.14221 -0.188451,0.14221 -0.225832,0 -0.348196,0.15745 -0.176243,0.22677 0.205553,0.0829 1.473093,0.0667 1.610737,-0.0206 z m 6.715368,-0.0756 c 0.293698,-0.0871 0.675992,-0.16306 0.849541,-0.16876 0.173549,-0.006 0.315544,-0.0615 0.315544,-0.12402 0,-0.19069 -0.50928,-0.23893 -0.991236,-0.0939 -0.33312,0.10025 -0.468952,0.10747 -0.503555,0.0268 -0.03021,-0.0705 -0.08637,-0.0489 -0.154935,0.0594 -0.07577,0.1197 -0.233551,0.16991 -0.533902,0.16991 -0.406763,0 -0.60134,0.0954 -0.467537,0.22918 0.115829,0.11583 0.949649,0.0605 1.48608,-0.0986 z m 2.634492,-0.0593 c -0.0534,-0.0534 -0.17526,-0.0671 -0.270803,-0.0304 -0.140489,0.0539 -0.148063,0.0825 -0.0396,0.14954 0.179769,0.11111 0.440553,0.011 0.310407,-0.11911 z m 1.502373,-0.11227 c 0.07551,-0.19677 -0.115188,-0.50822 -0.348536,-0.56924 -0.263774,-0.069 -0.439731,0.23908 -0.293075,0.51311 0.120717,0.22556 0.561787,0.26415 0.641611,0.0561 z m 1.160112,0.0294 c 0.237246,-0.0597 0.431356,-0.14821 0.431356,-0.19659 0,-0.0484 0.09923,-0.12569 0.220513,-0.1718 0.271711,-0.10331 0.507192,-0.51986 0.420941,-0.74462 -0.05774,-0.15047 -0.08731,-0.14481 -0.303212,0.058 -0.20084,0.18868 -0.276426,0.2078 -0.471008,0.11914 -0.238964,-0.10888 -0.449777,-0.008 -0.449777,0.21533 0,0.0566 -0.109227,0.22073 -0.242726,0.36471 -0.424393,0.45769 -0.334205,0.53915 0.393913,0.35581 z m -8.393796,-0.19495 c 0.645736,-0.009 1.00855,-0.12322 0.907434,-0.28683 -0.03236,-0.0524 -0.202245,-0.0683 -0.377524,-0.0354 -0.231197,0.0434 -0.333635,0.0208 -0.373137,-0.0821 -0.03646,-0.095 -0.140608,-0.12543 -0.315156,-0.0921 -0.157811,0.0302 -0.291679,-2.8e-4 -0.339183,-0.0771 -0.06301,-0.10195 -0.127955,-0.0946 -0.32949,0.0375 -0.363066,0.23789 -0.32847,0.71393 0.04331,0.59593 0.0895,-0.0284 0.442189,-0.0554 0.783746,-0.0599 z m -9.185067,-0.31876 c -0.160171,-0.12816 -0.326858,-0.21098 -0.370413,-0.18407 -0.130811,0.0808 0.239268,0.41807 0.458232,0.41755 0.182214,-2.8e-4 0.173065,-0.0247 -0.08782,-0.23348 z m 13.889593,-0.29444 c 0.185776,-0.13803 0.185533,-0.143 -0.01701,-0.34841 -0.20424,-0.20713 -0.208483,-0.20732 -0.703905,-0.0314 -0.502487,0.17847 -0.642102,0.37094 -0.328519,0.45288 0.365279,0.0955 0.869886,0.0603 1.049437,-0.0731 z M 46.39941,278.28385 c 0,-0.30253 0.243403,-0.32079 0.738524,-0.0554 0.192202,0.10302 0.413445,0.16275 0.491651,0.13274 0.0782,-0.03 0.246276,10e-4 0.373492,0.0692 0.185222,0.0991 0.28924,0.0998 0.522121,0.003 l 0.290818,-0.12045 -0.251577,-0.23316 c -0.140614,-0.13032 -0.384497,-0.23915 -0.552942,-0.24676 -1.627823,-0.0735 -2.40499,0.15277 -1.98103,0.57673 0.192664,0.19267 0.368943,0.13236 0.368943,-0.12622 z m 8.932316,0.0867 c 0,-0.021 -0.141995,-0.0351 -0.315544,-0.0313 -0.256957,0.006 -0.27949,0.0211 -0.121363,0.0837 0.177866,0.0704 0.436907,0.0393 0.436907,-0.0523 z m -14.783167,-0.1052 c -0.09027,-0.0903 -0.191389,-0.13687 -0.224708,-0.10355 -0.09556,0.0955 0.05114,0.26768 0.228127,0.26768 0.148205,0 0.147939,-0.0128 -0.0034,-0.16413 z m 2.687394,0.08 c 0.06217,-0.10059 -0.30807,-0.45742 -0.389802,-0.37569 -0.03125,0.0312 -0.02804,0.14749 0.0071,0.25831 0.06468,0.2038 0.287094,0.27202 0.382665,0.11738 z m 13.720014,0.0255 c -0.03226,-0.0323 -0.116004,-0.0357 -0.18609,-0.008 -0.07745,0.031 -0.05445,0.054 0.05866,0.0587 0.102349,0.004 0.159693,-0.0188 0.127431,-0.051 z m 3.431931,-0.54491 c 0.269911,-0.34146 0.35922,-0.52019 0.274111,-0.54856 -0.06943,-0.0231 -0.142987,0.008 -0.163457,0.0696 -0.02047,0.0614 -0.115623,0.11166 -0.211451,0.11166 -0.20075,0 -0.877579,0.26772 -0.877579,0.34712 0,0.12245 0.349139,0.52083 0.458921,0.52364 0.06551,0.002 0.299263,-0.22487 0.519455,-0.50343 z m -16.367202,0.3123 c -0.033,-0.0534 -0.103695,-0.0971 -0.157095,-0.0971 -0.0534,0 -0.07009,0.0437 -0.03709,0.0971 0.033,0.0534 0.103696,0.0971 0.157095,0.0971 0.0534,0 0.07009,-0.0437 0.03709,-0.0971 z m 7.222791,-0.036 c 0.06073,-0.0732 0.120696,-0.30087 0.133251,-0.50598 0.01765,-0.2884 -0.01569,-0.3809 -0.147081,-0.40806 -0.132102,-0.0273 -0.169908,0.0302 -0.169908,0.25842 0,0.17219 -0.06642,0.33074 -0.160635,0.38347 -0.09667,0.0541 -0.136544,0.15267 -0.100138,0.24755 0.07386,0.19246 0.295035,0.2047 0.444511,0.0246 z m 7.49648,-0.0899 c -0.124615,-0.12461 -0.250984,-0.0283 -0.158728,0.12097 0.03574,0.0578 0.109455,0.0776 0.163818,0.044 0.06631,-0.041 0.06464,-0.0953 -0.0051,-0.16502 z m -13.180693,-0.36735 c 0.186856,-0.15131 0.183101,-0.15764 -0.130641,-0.22039 -0.538068,-0.10761 -0.920427,0.38049 -0.461306,0.58889 0.171111,0.0777 0.238079,0.0654 0.309007,-0.0568 0.0498,-0.0858 0.177128,-0.22604 0.28294,-0.31172 z m 11.034627,-0.1293 c 0,-0.0782 -0.07298,-0.12307 -0.169909,-0.10452 -0.09345,0.0179 -0.30098,0.041 -0.461179,0.0515 l -0.291271,0.0189 0.291271,0.0741 c 0.462898,0.11779 0.631088,0.10714 0.631088,-0.04 z M 53.97246,277.3672 c 0,-0.0502 -0.04369,-0.11837 -0.09709,-0.15137 -0.0534,-0.033 -0.09709,-0.19108 -0.09709,-0.35127 0,-0.16946 -0.0406,-0.26618 -0.09709,-0.23127 -0.0534,0.033 -0.09709,0.23219 -0.09709,0.44263 0,0.31791 0.03285,0.38264 0.19418,0.38264 0.1068,0 0.194181,-0.0411 0.194181,-0.0914 z m -8.207518,-0.38863 c 0.100236,-0.16218 -0.78497,-0.59298 -1.419688,-0.69091 -0.338706,-0.0523 -0.735978,-0.11949 -0.882827,-0.1494 -0.234577,-0.0478 -0.266999,-0.0249 -0.266999,0.18833 0,0.19382 0.06358,0.25775 0.315544,0.3173 0.173549,0.041 0.373398,0.0637 0.444109,0.0504 0.07071,-0.0133 0.185773,0.0233 0.255694,0.0813 0.06992,0.058 0.360059,0.12833 0.644753,0.15623 0.284694,0.0279 0.537362,0.0705 0.561484,0.0946 0.07653,0.0765 0.289154,0.0473 0.34793,-0.0478 z m 10.358135,-0.0712 c 0.332183,-0.13291 0.373053,-0.1747 0.222528,-0.2275 -0.106032,-0.0372 -0.23981,-0.009 -0.3148,0.0657 -0.07172,0.0717 -0.258358,0.13041 -0.414744,0.13041 -0.156384,0 -0.284335,0.0437 -0.284335,0.0971 0,0.14515 0.333548,0.11744 0.791351,-0.0657 z m 6.721217,-0.183 c 0.498139,-0.38035 0.520631,-0.59746 0.04165,-0.40202 -0.353224,0.14413 -0.868793,0.74783 -0.638658,0.74783 0.07926,0 0.347919,-0.15561 0.597011,-0.34581 z m -13.87363,-0.2399 c -0.170699,-0.3301 -0.338175,-0.30165 -0.338175,0.0574 0,0.18871 0.04996,0.23699 0.24522,0.23699 0.241797,0 0.243094,-0.004 0.09296,-0.29444 z m 1.555334,0.19695 c 0.07651,-0.12379 -0.660545,-0.63006 -0.930045,-0.63882 -0.137591,-0.004 -0.304338,-0.0416 -0.370548,-0.0825 -0.226311,-0.13987 -0.210583,0.0155 0.04037,0.3988 0.23465,0.3584 0.281911,0.38359 0.732325,0.39039 0.264818,0.004 0.50237,-0.0265 0.527894,-0.0678 z m 8.203891,2.8e-4 c 0.110222,-0.0712 0.06751,-0.0945 -0.175639,-0.0956 -0.189767,-8.3e-4 -0.296712,0.0382 -0.261268,0.0956 0.07538,0.12197 0.24817,0.12197 0.436907,0 z m -3.938692,-0.12791 c 0.530577,-0.13756 0.666535,-0.30119 0.326045,-0.3924 -0.570546,-0.15284 -0.950601,-0.0147 -0.950601,0.34555 0,0.20637 0.0072,0.20691 0.624556,0.0469 z m 5.456406,0.002 c 0.03745,-0.0375 -0.111371,-0.0681 -0.330718,-0.0681 -0.219347,0 -0.423255,0.0396 -0.45313,0.0879 -0.06269,0.10143 0.681412,0.0826 0.783848,-0.0198 z m -8.800979,-0.238 c -0.0012,-0.20806 -0.02226,-0.23485 -0.0956,-0.12136 -0.122762,0.18996 -0.122762,0.38836 0,0.38836 0.0534,0 0.09642,-0.12015 0.0956,-0.267 z m -6.010401,-0.35587 c -0.12117,-0.12898 -0.324863,-0.26075 -0.452649,-0.29283 -0.139217,-0.0349 -0.307795,-0.20622 -0.420604,-0.42734 -0.253381,-0.49667 -0.41566,-0.61382 -0.930689,-0.67187 -0.545681,-0.0615 -0.55709,0.042 -0.06448,0.585 0.204803,0.22575 0.396486,0.47766 0.425961,0.55979 0.0317,0.0883 0.191127,0.15859 0.390299,0.172 0.185189,0.0125 0.528717,0.0829 0.763395,0.15662 0.234678,0.0737 0.445227,0.13826 0.467885,0.14354 0.02266,0.005 -0.05794,-0.0959 -0.179116,-0.22491 z m 3.138123,-0.15385 c 0.07908,0 0.164726,-0.0339 0.190335,-0.0753 0.02561,-0.0414 -0.179345,-0.073 -0.45545,-0.0701 -0.276106,0.003 -0.622159,-0.0257 -0.769009,-0.0635 -0.319874,-0.0823 -0.326669,-0.0504 -0.06694,0.31435 l 0.200062,0.28096 0.378614,-0.19316 c 0.208237,-0.10623 0.44331,-0.19315 0.522386,-0.19315 z m -2.52514,-0.15358 c 0.08694,-0.22655 0.08049,-0.23478 -0.183792,-0.23478 -0.265019,0 -0.307206,0.0909 -0.126218,0.27185 0.156596,0.1566 0.239499,0.14669 0.31001,-0.0371 z m -2.659597,-0.0372 c 0,-0.17238 -0.33005,-0.27542 -0.580206,-0.18114 -0.195962,0.0739 -0.213905,0.10736 -0.09709,0.18123 0.188831,0.11941 0.677296,0.11935 0.677296,-9e-5 z m 20.089802,-0.13952 c 0.06213,-0.0749 0.220397,-0.16308 0.351705,-0.19603 0.131309,-0.033 0.238744,-0.10126 0.238744,-0.15179 0,-0.0505 0.135598,-0.2463 0.301329,-0.43505 0.458708,-0.52244 0.299976,-0.46235 -1.015082,0.38427 -0.248232,0.15981 -0.451332,0.3455 -0.451332,0.41264 0,0.16575 0.43423,0.15514 0.574636,-0.014 z m -20.952562,-0.17302 c 0.207519,-0.11663 0.377308,-0.27737 0.377308,-0.3572 0,-0.0798 -0.163781,-0.29515 -0.363958,-0.47851 -0.355063,-0.32522 -0.378758,-0.33185 -0.969683,-0.27131 -1.056788,0.10827 -1.166342,0.27425 -0.359479,0.54461 0.329581,0.11044 0.479708,0.2137 0.480186,0.33027 5.78e-4,0.14317 0.283368,0.4442 0.417276,0.4442 0.02257,0 0.21083,-0.0954 0.41835,-0.21206 z m 11.807678,0.0563 c -0.03226,-0.0323 -0.116004,-0.0357 -0.18609,-0.008 -0.07745,0.031 -0.05445,0.054 0.05866,0.0587 0.10235,0.004 0.159694,-0.0187 0.127432,-0.051 z m 7.518492,-0.42128 c 0.151106,-0.2656 0.151106,-0.28072 0,-0.22735 -0.208749,0.0737 -0.50169,0.32543 -0.50169,0.43106 0,0.19871 0.354682,0.0547 0.50169,-0.20371 z m -12.706106,0.0188 c -0.135963,-0.37246 -0.437696,-0.65291 -0.71759,-0.66699 -0.156635,-0.008 -0.307042,0.0217 -0.334237,0.0657 -0.06024,0.0975 0.334447,0.47994 0.495278,0.47994 0.06349,0 0.169829,0.0655 0.236306,0.14564 0.1706,0.20556 0.397855,0.18834 0.320243,-0.0243 z m 7.606057,0.0243 c 0.03074,-0.0801 0.12403,-0.14563 0.207317,-0.14563 0.190133,0 0.07391,-0.12553 -0.150743,-0.1628 -0.184875,-0.0307 -0.798186,0.26058 -0.798186,0.37906 0,0.1446 0.684018,0.0795 0.741612,-0.0706 z m -10.856531,-0.16891 c -0.01706,-0.11961 -0.107484,-0.23204 -0.200934,-0.24985 -0.194758,-0.0371 -0.227332,0.17687 -0.0534,0.3508 0.180797,0.1808 0.288435,0.13807 0.254334,-0.10095 z m 4.294501,-0.0893 c -0.209069,-0.1693 -0.393366,-0.23205 -0.393366,-0.13395 0,0.1162 0.429302,0.42684 0.515916,0.37332 0.05652,-0.0349 0.0045,-0.13646 -0.12255,-0.23937 z m 0.868809,0.004 c 0,-0.20875 -0.526107,-0.57098 -0.825268,-0.56821 -0.191816,0.002 -0.19174,0.004 0.0063,0.16955 0.11024,0.0923 0.274167,0.28649 0.364282,0.43162 0.181922,0.29299 0.454732,0.27321 0.454732,-0.033 z m 4.013493,-0.33843 c -0.134232,-0.20486 -0.225438,-0.2323 -0.772132,-0.2323 h -0.619921 v 0.41971 0.41972 l 0.772132,-0.18741 0.77213,-0.18742 z m 6.887952,-0.0286 c 0.04173,-0.0406 -0.05711,-0.0543 -0.219641,-0.0305 -0.16253,0.0239 -0.323337,0.0884 -0.357348,0.14343 -0.06968,0.11275 0.449547,0.0111 0.576989,-0.11295 z m 1.286495,-0.11159 c 0.106915,-0.173 -0.133689,-0.17254 -0.29033,5.5e-4 -0.160131,0.17694 -0.158489,0.18277 0.03708,0.13162 0.112546,-0.0294 0.226508,-0.0889 0.253247,-0.13217 z m -25.537868,0.005 c -0.033,-0.0534 -0.101117,-0.0971 -0.151365,-0.0971 -0.05025,0 -0.09136,0.0437 -0.09136,0.0971 0,0.0534 0.06812,0.0971 0.151366,0.0971 0.08325,0 0.124363,-0.0437 0.09136,-0.0971 z m 2.42726,-0.0896 0.194181,-0.0759 -0.194181,-0.0573 c -0.106799,-0.0315 -0.368702,-0.0555 -0.582006,-0.0532 l -0.387826,0.004 0.290735,0.12804 c 0.340203,0.14983 0.418588,0.15609 0.679097,0.0543 z m 5.16868,-0.33072 c 0.03348,-0.47205 -0.342002,-0.78172 -1.166414,-0.96197 -0.592787,-0.12961 -0.918877,-0.093 -0.650297,0.073 0.05643,0.0349 0.210612,0.2345 0.342617,0.44361 0.276753,0.43841 0.376119,0.46349 0.640796,0.16175 l 0.191621,-0.21845 -0.05584,0.34676 c -0.06682,0.41488 -0.01685,0.47857 0.375269,0.47831 0.269755,-1.9e-4 0.301625,-0.0321 0.322251,-0.32298 z m 1.718915,0.17223 c 0.444993,-0.0835 0.526778,-0.2154 0.179701,-0.28985 -0.577114,-0.12379 -1.155683,-0.37151 -1.402182,-0.60036 -0.14157,-0.13142 -0.331446,-0.224 -0.421949,-0.20572 -0.136187,0.0275 -0.100188,0.12083 0.208854,0.54138 0.355528,0.4838 0.72378,0.7316 0.973324,0.65495 0.06296,-0.0194 0.270971,-0.0645 0.462252,-0.1004 z m 18.931718,-0.51923 c -0.02554,-0.0255 -0.121858,0.0323 -0.214036,0.12853 -0.16013,0.16719 -0.158063,0.16926 0.04644,0.0464 0.117721,-0.0707 0.193139,-0.14944 0.167596,-0.17498 z m -6.144127,-0.014 c 0.232388,-0.063 0.640976,-0.15072 0.907975,-0.19501 0.89489,-0.14843 1.258811,-0.25525 1.820444,-0.53434 0.601436,-0.29887 0.668982,-0.41239 0.36014,-0.60526 -0.220432,-0.13766 -0.384412,-0.0816 -0.384412,0.1313 0,0.0769 -0.07063,0.1399 -0.15696,0.1399 -0.111742,0 -0.141571,0.0589 -0.103542,0.20427 0.0448,0.17133 0.01923,0.19556 -0.158585,0.15027 -0.720418,-0.18346 -0.725602,-0.18339 -0.787409,0.0113 -0.05355,0.16873 -0.109854,0.18147 -0.488865,0.11066 -0.35432,-0.0662 -0.567825,-0.0322 -1.23548,0.1968 -0.443927,0.15225 -0.883347,0.30791 -0.97649,0.34591 -0.512569,0.20912 0.462333,0.2449 1.203184,0.0442 z m -3.460684,-0.27152 c -0.207805,-0.0416 -0.385407,0.12445 -0.292999,0.27397 0.04895,0.0792 0.126157,0.0604 0.264405,-0.0644 0.176467,-0.15926 0.179219,-0.17944 0.02859,-0.20961 z m 1.054151,0.13047 c -0.03074,-0.0801 -0.112073,-0.14563 -0.180746,-0.14563 -0.06867,0 -0.150009,0.0655 -0.180747,0.14563 -0.04026,0.10491 0.0103,0.14564 0.180747,0.14564 0.17045,0 0.221002,-0.0407 0.180746,-0.14564 z m -8.724699,-0.14563 c -0.09665,-0.1068 -0.289109,-0.19235 -0.427683,-0.19012 -0.241993,0.004 -0.23852,0.0114 0.08787,0.19012 0.441594,0.24176 0.558609,0.24176 0.339817,0 z m 2.767075,-0.0543 c 0,-0.077 -0.08738,-0.1399 -0.194181,-0.1399 -0.218432,0 -0.249018,0.1005 -0.08155,0.26797 0.13384,0.13384 0.275729,0.0679 0.275729,-0.12807 z m 12.003674,-0.0728 c 0.380956,-0.14832 0.77002,-0.35517 0.864589,-0.45967 0.09457,-0.1045 0.230708,-0.19 0.302532,-0.19 0.07182,0 0.130588,-0.0437 0.130588,-0.0971 0,-0.0534 -0.06501,-0.0971 -0.144469,-0.0971 -0.175958,0 -2.185701,0.99018 -2.185701,1.07688 0,0.11407 0.335372,0.0384 1.032461,-0.23303 z m -5.066862,-0.12971 c 0.0771,-0.30718 -0.0817,-0.52048 -0.256994,-0.34519 -0.06408,0.0641 -0.195151,0.1165 -0.291271,0.1165 -0.10474,0 -0.174762,0.0713 -0.174762,0.178 0,0.24248 0.08327,0.30746 0.394018,0.30746 0.205087,0 0.279051,-0.0577 0.329009,-0.25677 z m -2.082293,-0.17532 c 0,-0.0774 0.05857,-0.17575 0.130153,-0.21845 0.07158,-0.0427 0.15554,-0.17849 0.186569,-0.30175 0.08815,-0.35016 -0.211499,-0.22778 -0.426924,0.17435 -0.09976,0.18623 -0.257778,0.36885 -0.351138,0.40581 -0.118337,0.0469 -0.07418,0.0693 0.145796,0.074 0.214089,0.005 0.315544,-0.0385 0.315544,-0.13399 z m -13.786834,-0.19902 c 0,-0.0801 -0.06296,-0.14564 -0.139905,-0.14564 -0.162204,0 -0.271699,0.13858 -0.18109,0.22919 0.116038,0.11604 0.320995,0.0627 0.320995,-0.0836 z m 1.980644,-0.22654 c -0.0053,-0.0623 -0.01626,-0.19568 -0.02427,-0.29639 -0.01131,-0.14215 -0.223515,-0.25076 -0.94855,-0.48545 -1.099777,-0.35601 -1.202002,-0.36509 -1.202002,-0.10673 0,0.24727 0.463428,0.53881 1.165084,0.73295 0.293699,0.0813 0.599533,0.18684 0.679633,0.23461 0.182089,0.10862 0.34289,0.0701 0.330107,-0.079 z m 2.485514,-0.10755 c 0,-0.0502 -0.04423,-0.11869 -0.09829,-0.1521 -0.0609,-0.0376 -0.06505,-0.12016 -0.01089,-0.21693 0.0666,-0.119 0.01489,-0.20469 -0.217251,-0.36 -0.16756,-0.1121 -0.347782,-0.30105 -0.400494,-0.41989 -0.149355,-0.33672 -0.358782,-0.27221 -0.322945,0.0995 0.02526,0.26194 0.07527,0.32071 0.2944,0.34598 0.231941,0.0267 0.250138,0.0526 0.149946,0.21302 -0.09262,0.1483 -0.08011,0.22007 0.06661,0.3822 0.183789,0.20309 0.538912,0.27442 0.538912,0.10825 z m 2.505582,-0.30446 c 0.09042,-0.004 -0.01036,-0.0625 -0.223958,-0.12969 -0.213599,-0.0672 -0.42113,-0.10497 -0.46118,-0.0839 -0.123257,0.0649 -0.08088,0.2962 0.08457,0.46165 0.145127,0.14513 0.168251,0.14189 0.296776,-0.0416 0.07666,-0.10945 0.213367,-0.20236 0.303788,-0.20646 z m 6.038371,0.1531 c 0.180949,-0.1335 0.275078,-0.24273 0.209176,-0.24273 -0.139453,0 -0.888808,0.37002 -0.888808,0.43888 0,0.13028 0.389585,0.0178 0.679632,-0.19615 z m 1.702217,-0.0131 c 0.0017,-0.11402 0.06169,-0.27786 0.133252,-0.36409 0.173099,-0.20857 -0.01565,-0.20856 -0.333983,3e-5 -0.275336,0.1804 -0.32114,0.35239 -0.0694,0.26059 0.147665,-0.0538 0.144522,-0.0331 -0.024,0.15858 l -0.193915,0.22054 0.24246,-0.0342 c 0.170877,-0.0241 0.243384,-0.0954 0.245594,-0.24148 z m -3.426081,-0.084 c -0.02552,-0.1335 -0.085,-0.24272 -0.132172,-0.24272 -0.100179,0 -0.109581,0.11625 -0.02684,0.33187 0.09349,0.24363 0.210125,0.17824 0.159011,-0.0892 z m -5.932759,-0.0518 c -0.204885,-0.17068 -0.498969,-0.2587 -0.498969,-0.14934 0,0.12416 0.334114,0.34631 0.51666,0.34352 0.211499,-0.003 0.211497,-0.003 -0.01769,-0.19418 z m 6.491539,0.009 c 0,-0.19048 -0.164163,-0.35938 -0.258051,-0.26549 -0.07624,0.0762 0.06313,0.45394 0.167503,0.45394 0.0498,0 0.09055,-0.0848 0.09055,-0.18845 z m 7.061742,-0.004 c 0.219438,-0.10602 0.481974,-0.31355 0.58341,-0.46118 0.194169,-0.28258 0.555495,-1.1805 0.49645,-1.23371 -0.121612,-0.10958 -0.688665,0.11114 -0.986507,0.384 -0.194397,0.17809 -0.442027,0.35191 -0.550289,0.38627 -0.108263,0.0344 -0.196841,0.10323 -0.196841,0.15303 0,0.0498 -0.05766,0.0905 -0.128126,0.0905 -0.154214,0 -0.573456,0.46043 -0.474776,0.52142 0.03818,0.0236 0.244062,-0.0179 0.457521,-0.0922 0.213459,-0.0743 0.44272,-0.13572 0.50947,-0.13652 0.197883,-0.002 0.138339,0.25428 -0.09709,0.41851 -0.309109,0.21562 -0.08595,0.1982 0.386779,-0.0302 z m -2.5832,-0.0742 c 0.120768,-0.154 0.117334,-0.15743 -0.03666,-0.0367 -0.161729,0.12683 -0.21316,0.20656 -0.133251,0.20656 0.02016,0 0.09662,-0.0765 0.169908,-0.1699 z m -13.194876,-0.53226 c -0.03722,-0.41634 -0.05839,-0.45017 -0.22562,-0.36067 -0.249239,0.13338 -0.232902,0.4585 0.03391,0.67482 0.12015,0.0974 0.221678,0.16996 0.22562,0.1612 0.0039,-0.009 -0.01132,-0.22266 -0.03391,-0.47535 z m 5.54876,0.43053 c 0.106087,-0.17165 -0.125027,-0.32063 -0.526663,-0.3395 -0.329853,-0.0155 -0.432441,0.0165 -0.458552,0.14295 -0.02379,0.11523 0.04617,0.1749 0.239131,0.2039 0.489061,0.0735 0.697371,0.0715 0.746084,-0.007 z m 6.565737,-0.468 c 0,-0.0801 -0.04369,-0.11864 -0.09709,-0.0856 -0.0534,0.033 -0.09709,0.12555 -0.09709,0.20564 0,0.0801 0.04369,0.11864 0.09709,0.0856 0.0534,-0.033 0.09709,-0.12554 0.09709,-0.20564 z m -13.440008,-0.0689 c 0.0272,-0.0709 0.0079,-0.2381 -0.04281,-0.37158 -0.07445,-0.19581 -0.220515,-0.27707 -0.756414,-0.42079 -0.36528,-0.098 -0.838908,-0.25206 -1.052507,-0.34244 -0.213599,-0.0904 -0.497588,-0.15249 -0.631087,-0.13803 -0.1335,0.0145 -0.319185,0.0299 -0.412634,0.0344 -0.113986,0.005 -0.169909,0.0874 -0.169909,0.24897 0,0.18267 0.06452,0.25621 0.266999,0.30431 0.146849,0.0349 0.337109,0.12413 0.4228,0.19831 0.08569,0.0742 0.475829,0.20161 0.866971,0.28317 0.391141,0.0815 0.779782,0.18842 0.863646,0.23749 0.22629,0.13239 0.588454,0.11342 0.644941,-0.0338 z m 3.468179,-0.0167 c -0.0183,-0.0885 -0.173574,-0.13456 -1.047608,-0.31036 -0.269129,-0.0541 -0.280305,-0.0457 -0.149006,0.11251 0.07807,0.0941 0.230842,0.20811 0.339495,0.25344 0.260344,0.1086 0.882709,0.0682 0.857119,-0.0556 z m -2.844101,-0.297 c 0,-0.0833 -0.0444,-0.12392 -0.09867,-0.0904 -0.05427,0.0335 -0.07354,0.10166 -0.04282,0.15137 0.08323,0.13466 0.141489,0.10955 0.141489,-0.061 z m 15.607278,-0.26836 c 0.303066,-0.27283 0.27659,-0.33106 -0.169908,-0.37364 -0.378588,-0.0361 -0.510959,0.0403 -0.266998,0.15419 0.08777,0.041 0.09063,0.0714 0.01031,0.10984 -0.06108,0.0293 -0.08888,0.13799 -0.06178,0.24163 0.05295,0.20248 0.144218,0.17781 0.488379,-0.13202 z m -14.393648,-0.0657 c 0.033,-0.0534 -0.03253,-0.0971 -0.145636,-0.0971 -0.113103,0 -0.178639,0.0437 -0.145635,0.0971 0.033,0.0534 0.09854,0.0971 0.145635,0.0971 0.0471,0 0.112633,-0.0437 0.145636,-0.0971 z m 8.217145,-0.0154 c 0.206444,-0.0618 0.374908,-0.13831 0.374366,-0.16991 -0.0019,-0.10996 -0.773549,-0.38226 -0.829003,-0.29253 -0.09131,0.14773 -0.202217,0.10212 -0.313687,-0.12901 -0.09471,-0.19638 -0.10602,-0.1784 -0.111927,0.178 -0.0036,0.21805 0.02256,0.42558 0.05816,0.46118 0.09631,0.0963 0.400238,0.0787 0.822095,-0.0477 z m -8.848233,-0.0841 c 0,-0.22545 -0.988562,-0.39885 -1.114269,-0.19545 -0.06429,0.10402 0.434985,0.27267 0.847271,0.28619 0.146849,0.005 0.266998,-0.036 0.266998,-0.0907 z m 11.456665,-0.18268 c 0,-0.0484 -0.08738,-0.0652 -0.194181,-0.0372 -0.106799,0.0279 -0.19418,0.0675 -0.19418,0.088 0,0.0205 0.08738,0.0372 0.19418,0.0372 0.1068,0 0.194181,-0.0396 0.194181,-0.088 z m -5.400533,-0.24813 c -0.02996,-0.0781 -0.132623,-0.16674 -0.228146,-0.19706 -0.09552,-0.0303 -0.273255,-0.14148 -0.394959,-0.24704 -0.356627,-0.3093 -0.352503,-0.12162 0.0054,0.24768 0.332915,0.34348 0.721514,0.46706 0.617661,0.19642 z m 3.496104,-0.38864 c 0.08624,-0.13162 0.156802,-0.26269 0.156802,-0.29127 0,-0.10373 -0.253176,-0.0484 -0.468478,0.10242 -0.174849,0.12247 -0.196927,0.18268 -0.106805,0.29128 0.159094,0.19169 0.238502,0.17226 0.418481,-0.10243 z m 4.113235,-0.10957 c 0.120149,-0.13447 0.218454,-0.30227 0.218454,-0.3729 0,-0.16358 -0.787845,-0.37393 -0.916953,-0.24482 -0.05103,0.051 -0.170308,0.0928 -0.265057,0.0928 -0.09477,0 -0.242901,0.13659 -0.329262,0.30359 l -0.156995,0.30359 0.275864,-0.0503 c 0.151724,-0.0277 0.417858,-0.0957 0.591407,-0.15118 0.406859,-0.13008 0.429813,0.05 0.02439,0.19134 -0.160136,0.0558 -0.264597,0.14447 -0.232135,0.197 0.09449,0.15288 0.552611,-0.003 0.790289,-0.26912 z m -16.114691,0.0403 c -0.05634,-0.16902 -0.34522,-0.32748 -0.434409,-0.23829 -0.04253,0.0425 0.0074,0.13928 0.11099,0.21502 0.229066,0.16749 0.374995,0.17799 0.323419,0.0233 z m 2.63679,-0.16757 c 0.273833,-0.38456 0.252519,-0.54684 -0.09048,-0.68891 -0.295587,-0.12244 -0.376598,-0.36129 -0.186881,-0.55101 0.07446,-0.0745 -0.02993,-0.12395 -0.364089,-0.17262 -0.257663,-0.0375 -0.565246,-0.13036 -0.683516,-0.2063 -0.288373,-0.18515 -0.41605,-0.17389 -0.41605,0.0367 0,0.25078 0.192171,0.40778 0.49914,0.40778 0.332506,0 0.466602,0.18832 0.186291,0.26162 -0.114356,0.0299 -0.19521,0.0916 -0.179677,0.13718 0.06828,0.2002 0.812339,1.05755 0.917803,1.05755 0.06417,0 0.207023,-0.12689 0.317459,-0.28199 z m -1.158474,0.13383 c 0,-0.0281 -0.159354,-0.26451 -0.35412,-0.52539 -0.31738,-0.42512 -0.377054,-0.46389 -0.575146,-0.37363 l -0.221025,0.10071 0.219726,0.23696 c 0.330711,0.35666 0.930565,0.71851 0.930565,0.56135 z m 5.170069,-0.74452 c -0.192647,-0.19265 -0.216479,-0.19636 -0.275401,-0.0428 -0.07774,0.20259 0.247385,0.4883 0.392982,0.34533 0.05936,-0.0583 0.01658,-0.16837 -0.117581,-0.30253 z m -1.789387,0.13344 c 0.131155,-0.13115 0.153863,-0.22788 0.0881,-0.37525 -0.07256,-0.16263 -0.212533,-0.21008 -0.773427,-0.26221 -0.376656,-0.035 -0.701276,-0.0472 -0.721377,-0.0271 -0.03016,0.0302 1.128274,0.83758 1.20573,0.84038 0.01335,5.5e-4 0.103788,-0.0786 0.200972,-0.17582 z m 8.173074,0.0311 c 0.15558,-0.0889 0.188386,-0.13999 0.09137,-0.1422 -0.08324,-0.002 -0.23616,0.0607 -0.339816,0.13911 -0.241357,0.18255 -0.06924,0.18469 0.248442,0.003 z m 3.495253,-0.43386 c 0,-0.13001 -0.04658,-0.17326 -0.145635,-0.13525 -0.155761,0.0598 -0.185764,0.1568 -0.08091,0.26165 0.122459,0.12246 0.226544,0.0644 0.226544,-0.1264 z m -5.261139,-0.29039 c 0.267717,-0.36211 0.266678,-0.42115 -0.006,-0.34185 -0.224768,0.0653 -0.55827,0.38965 -0.55827,0.54285 0,0.19662 0.366945,0.0659 0.564284,-0.201 z m 3.591852,-0.34634 c -0.02989,-0.0299 -0.08418,0.024 -0.120643,0.11975 -0.05269,0.13837 -0.04154,0.14952 0.05435,0.0543 0.06635,-0.0659 0.09618,-0.14421 0.06629,-0.1741 z m -14.484937,-0.046 c -0.03293,-0.10679 -0.08348,-0.27063 -0.112334,-0.36408 -0.03998,-0.12948 0.04691,-0.21035 0.365109,-0.33982 0.229666,-0.0935 0.445029,-0.16991 0.478584,-0.16991 0.03355,0 0.05494,0.0765 0.04753,0.16991 -0.01008,0.12701 0.145869,0.22254 0.617602,0.37835 0.715543,0.23632 1.650844,0.38476 1.649923,0.26185 -6.88e-4,-0.0902 -0.492847,-0.40859 -0.8732,-0.56479 -0.359229,-0.14753 -0.782063,-0.43405 -1.165084,-0.78949 -0.265802,-0.24666 -0.397971,-0.30386 -0.606815,-0.26263 -0.32371,0.0639 -0.343512,0.24577 -0.04854,0.44584 l 0.218453,0.14817 -0.275146,0.10709 c -0.297941,0.11596 -0.453032,0.0712 -0.453032,-0.13086 0,-0.0704 -0.06887,-0.18518 -0.153036,-0.25503 -0.207309,-0.17205 -0.362006,0.0607 -0.218527,0.3288 0.09413,0.17589 -0.01583,0.35046 -0.223928,0.35549 -0.09255,0.002 -0.166199,0.35486 -0.09651,0.46208 0.08171,0.12571 0.610271,0.40447 0.776147,0.40933 0.08841,0.002 0.11271,-0.0609 0.07282,-0.1903 z m 13.96358,0.007 c 0.162654,-0.17973 0.16141,-0.18528 -0.03032,-0.13514 -0.109965,0.0288 -0.250408,0.11309 -0.312097,0.18742 -0.181849,0.21912 0.141479,0.16975 0.342414,-0.0523 z m -8.766748,-0.11597 c -0.0191,-0.0734 -0.04157,-0.25064 -0.04995,-0.39381 -0.01889,-0.32301 -0.09459,-0.40144 -0.428725,-0.44413 -0.144831,-0.0185 -0.337702,-0.12971 -0.428603,-0.24714 -0.150383,-0.19427 -0.179139,-0.19975 -0.319111,-0.0608 -0.209763,0.20818 -0.12424,0.35453 0.516917,0.88456 0.535464,0.44266 0.780063,0.53276 0.709468,0.26136 z m 8.145639,-0.0869 c 0.410733,-0.20954 0.45165,-0.28039 0.267985,-0.46406 -0.295652,-0.29565 -0.854395,-0.0181 -0.854395,0.42443 0,0.28676 0.09007,0.29285 0.58641,0.0396 z m 2.132121,-0.14939 c 0,-0.077 -0.03902,-0.13991 -0.0867,-0.13991 -0.107165,0 -0.211559,0.25192 -0.135792,0.32769 0.08499,0.085 0.222495,-0.0311 0.222495,-0.18778 z m -7.4381,-0.26127 c 0.03461,-0.14685 0.02542,-0.267 -0.02042,-0.267 -0.117919,0 -0.288092,0.41127 -0.234513,0.56677 0.05896,0.17113 0.176535,0.0329 0.254938,-0.29977 z m 2.452412,-0.52762 c -0.119505,-0.11951 -0.400595,0.11836 -0.434429,0.36763 l -0.0316,0.23281 0.269178,-0.26406 c 0.148048,-0.14523 0.236631,-0.2966 0.196851,-0.33638 z m 6.588001,0.2601 c 0.09489,-0.15353 -0.116761,-0.11189 -0.284658,0.056 -0.08391,0.0839 -0.152571,0.17284 -0.152571,0.1976 0,0.0697 0.370074,-0.14494 0.437229,-0.2536 z m -2.961579,-0.0569 c 0,-0.14306 0.136096,-0.41142 0.315544,-0.62219 0.409538,-0.48103 0.694002,-0.97096 0.563759,-0.97096 -0.05642,0 -0.10258,0.0405 -0.10258,0.09 0,0.0495 -0.229376,0.22134 -0.509724,0.38191 -0.437722,0.2507 -0.513312,0.33743 -0.535124,0.61394 -0.03196,0.40516 0.04863,0.7589 0.172885,0.7589 0.05238,0 0.09524,-0.1132 0.09524,-0.25156 z m -0.518859,-0.38028 c 0.132559,-0.2858 -0.01966,-0.33571 -0.219799,-0.0721 -0.16357,0.21547 -0.167963,0.31575 -0.01379,0.31479 0.06675,-2.8e-4 0.171865,-0.10965 0.23359,-0.24273 z m -14.772876,-0.14488 c 0.033,-0.0534 -0.02995,-0.0971 -0.139905,-0.0971 -0.109951,0 -0.199911,0.0437 -0.199911,0.0971 0,0.0534 0.06296,0.0971 0.139905,0.0971 0.07695,0 0.166908,-0.0437 0.199911,-0.0971 z m 8.88377,-0.0406 c 0,-0.0223 -0.02695,-0.11083 -0.05988,-0.19666 -0.04611,-0.12016 -0.09053,-0.13062 -0.193112,-0.0455 -0.153625,0.1275 -0.09153,0.28275 0.11309,0.28275 0.07695,0 0.139905,-0.0183 0.139905,-0.0406 z m 9.267563,-0.0721 c 0.136012,-0.062 0.247295,-0.17256 0.247295,-0.24577 0,-0.20965 -0.281153,-0.26334 -0.472441,-0.0902 -0.09567,0.0866 -0.216759,0.15741 -0.269098,0.15741 -0.05234,0 -0.179971,0.0642 -0.283626,0.14255 -0.176751,0.13369 -0.16612,0.14274 0.171056,0.14563 0.197736,0.002 0.470802,-0.0476 0.606814,-0.10959 z m -8.685021,-0.32996 c 0,-0.13665 -0.03959,-0.22399 -0.08798,-0.19408 -0.04839,0.0299 -0.06514,0.14171 -0.03722,0.24846 0.06986,0.26714 0.125197,0.24311 0.125197,-0.0544 z m -2.427259,-0.12915 c 0,-0.15428 -0.08294,-0.38294 -0.184318,-0.50813 -0.182155,-0.22496 -0.188488,-0.22564 -0.539767,-0.0581 l -0.35545,0.1695 0.202307,0.28411 c 0.134332,0.18865 0.307539,0.29721 0.515495,0.3231 0.172253,0.0214 0.32411,0.046 0.33746,0.0545 0.01335,0.009 0.02427,-0.11069 0.02427,-0.26498 z m 10.051905,-0.38096 c -0.08161,-0.0816 -0.537048,0.0824 -0.537048,0.19342 0,0.0615 -0.07646,0.19768 -0.169908,0.30256 -0.09345,0.10487 0.03696,0.0457 0.2898,-0.13138 0.252839,-0.17713 0.440559,-0.3412 0.417156,-0.3646 z m -8.993031,0.30959 c -0.141076,-0.16998 -0.231157,-0.10354 -0.149196,0.11005 0.03292,0.0858 0.105975,0.12747 0.162345,0.0926 0.07039,-0.0435 0.06627,-0.10699 -0.01315,-0.20268 z m -3.300043,0.12494 c -0.02225,-0.0174 -0.208711,-0.13294 -0.414356,-0.25671 -0.341745,-0.20567 -0.370926,-0.20957 -0.339307,-0.0454 0.01903,0.0988 0.143592,0.20996 0.276811,0.24702 0.264353,0.0736 0.54129,0.10554 0.476852,0.0551 z m 10.882213,-0.47812 c 0.186899,-0.0879 0.458785,-0.18439 0.60419,-0.21452 0.242154,-0.0502 0.255125,-0.0751 0.154324,-0.29631 -0.06053,-0.13285 -0.135806,-0.24133 -0.167284,-0.24107 -0.03148,2.7e-4 -0.219876,0.14985 -0.418662,0.33243 -0.198785,0.18258 -0.450642,0.36028 -0.559679,0.39488 -0.109039,0.0346 -0.172752,0.10419 -0.141587,0.15461 0.03117,0.0504 0.08641,0.0777 0.122773,0.0607 0.03636,-0.017 0.219026,-0.10287 0.405925,-0.19072 z m -1.443705,-0.22982 c 0.09547,-0.0864 0.317361,-0.18742 0.493097,-0.2245 0.233342,-0.0492 0.31139,-0.11351 0.289375,-0.23832 -0.05731,-0.32491 1.659458,-2.13432 2.570607,-2.70932 0.442735,-0.2794 0.564817,-0.41683 0.439214,-0.49446 -0.04501,-0.0278 -0.279853,0.11305 -0.521871,0.31304 -0.408583,0.33763 -0.753172,0.48912 -1.486901,0.65365 -0.160199,0.0359 -0.236658,0.0854 -0.169908,0.10998 0.172928,0.0636 0.150726,0.41685 -0.0262,0.41685 -0.172267,0 -0.920117,0.45425 -0.921092,0.55948 -3.85e-4,0.0394 -0.164205,0.18057 -0.364089,0.31375 -0.819529,0.54603 -1.254782,1.25214 -0.509062,0.82585 0.1335,-0.0763 0.347128,-0.14031 0.474729,-0.1422 0.209838,-0.003 0.197833,0.0198 -0.125675,0.23929 -0.196723,0.1335 -0.421272,0.24273 -0.499001,0.24273 -0.07773,0 -0.141324,0.0655 -0.141324,0.14563 0,0.19229 0.280085,0.18586 0.498103,-0.0114 z m -9.392151,-0.1745 c -0.029,-0.0756 -0.366231,-0.30041 -0.749403,-0.49962 -0.38317,-0.19922 -0.660731,-0.32307 -0.616799,-0.27523 0.06296,0.0686 1.310616,0.87666 1.397706,0.90528 0.01167,0.004 -0.0025,-0.0549 -0.0315,-0.13043 z m -1.785894,-0.23591 c 0,-0.0451 -0.08304,-0.15719 -0.184541,-0.24905 -0.217519,-0.19685 -0.387493,-0.0359 -0.200291,0.18971 0.126953,0.15297 0.384832,0.19273 0.384832,0.0593 z m 7.960785,-0.25587 c 0.111059,-0.33652 0.0497,-0.62625 -0.09987,-0.47154 -0.04322,0.0447 -0.108685,0.24512 -0.145482,0.44537 -0.08599,0.46794 0.09324,0.48706 0.245349,0.0262 z m -11.057599,-0.46757 c -0.124614,-0.12461 -0.250983,-0.0283 -0.158727,0.12097 0.03574,0.0578 0.109455,0.0776 0.163818,0.044 0.06631,-0.041 0.06464,-0.0953 -0.0051,-0.16502 z m -1.033847,0.0357 c 0.03063,-0.0495 -0.03562,-0.11908 -0.147222,-0.1545 -0.230492,-0.0732 -0.335269,-0.0118 -0.240812,0.14105 0.07877,0.12746 0.312565,0.13556 0.388034,0.0135 z m 6.946282,-0.14033 c 0,-0.12022 -0.973704,-0.74047 -1.162433,-0.74047 -0.193048,0 -0.07164,0.52845 0.13021,0.56677 0.126321,0.024 0.161041,-0.005 0.114341,-0.0963 -0.03689,-0.0719 0.0344,-0.0163 0.158409,0.12362 0.323703,0.36511 0.759473,0.44908 0.759473,0.14634 z m -4.953071,0.012 c -0.0056,-0.0935 -0.278458,-0.76011 -0.417224,-1.01945 -0.184639,-0.34506 -0.426771,-0.41268 -0.521477,-0.14563 -0.03314,0.0935 -0.126165,0.24663 -0.206721,0.34041 -0.201067,0.23407 -0.07099,0.32747 0.230986,0.16586 0.213279,-0.11415 0.261671,-0.11301 0.338183,0.008 0.04911,0.0776 0.08996,0.20887 0.09078,0.29164 0.0018,0.18386 0.189597,0.38351 0.36072,0.38351 0.06942,0 0.12556,-0.0109 0.124756,-0.0243 z m 2.083386,-0.19418 c -0.0908,-0.29539 -0.124853,-0.3211 -0.254129,-0.19182 -0.08297,0.083 -0.07958,0.14836 0.01351,0.26053 0.183046,0.22055 0.317717,0.1821 0.240622,-0.0687 z m 10.443926,-0.56049 c 0.07894,-0.14751 0.07213,-0.19196 -0.0294,-0.19196 -0.165373,0 -0.578209,0.42922 -0.493914,0.51351 0.09175,0.0917 0.405187,-0.10084 0.52331,-0.32155 z m 4.825237,0.0346 c 0.0588,-0.12459 0.09679,-0.22654 0.08443,-0.22654 -0.01237,0 -0.118259,0.10195 -0.235313,0.22654 -0.136504,0.14531 -0.16678,0.22655 -0.08443,0.22655 0.07062,0 0.176512,-0.10194 0.235313,-0.22655 z m -11.533471,-0.41155 c -0.481459,-0.54697 -0.908348,-0.87301 -1.009979,-0.77137 -0.02595,0.0259 0.192442,0.27067 0.485306,0.54385 0.292864,0.27317 0.53248,0.47604 0.53248,0.45082 0,-0.0252 0.09562,0.0432 0.212488,0.15211 0.379237,0.35331 0.295405,0.21045 -0.220295,-0.37541 z m -1.295826,0.0373 c -0.199528,-0.15095 -0.311024,-0.12696 -0.205261,0.0442 0.0352,0.057 0.137879,0.10216 0.228176,0.10046 0.144146,-0.003 0.14135,-0.0204 -0.02291,-0.14463 z m 6.158152,-0.14355 c 0,-0.0534 -0.01926,-0.0971 -0.04281,-0.0971 -0.02355,0 -0.06982,0.0437 -0.102821,0.0971 -0.033,0.0534 -0.01374,0.0971 0.04282,0.0971 0.05655,0 0.102821,-0.0437 0.102821,-0.0971 z m 0.825268,-0.48545 c 0.033,-0.0534 -0.01069,-0.0971 -0.09709,-0.0971 -0.0864,0 -0.130094,0.0437 -0.09709,0.0971 0.033,0.0534 0.07669,0.0971 0.09709,0.0971 0.0204,0 0.06409,-0.0437 0.09709,-0.0971 z m -3.096778,-0.26498 c -0.09869,-0.0987 -0.180127,0.0499 -0.09915,0.18092 0.06117,0.099 0.08404,0.0991 0.116926,2.7e-4 0.02248,-0.0675 0.01449,-0.14904 -0.01778,-0.1813 z m -2.633024,-0.13007 c -0.05493,-0.25008 -0.03276,-0.30651 0.137922,-0.35114 0.217856,-0.057 0.26405,-0.17575 0.106273,-0.27326 -0.0534,-0.033 -0.09709,-0.14481 -0.09709,-0.24846 0,-0.10364 -0.05696,-0.18845 -0.126589,-0.18845 -0.06963,0 -0.274804,-0.15292 -0.455953,-0.33982 -0.18115,-0.18689 -0.380979,-0.33981 -0.444064,-0.33981 -0.06309,0 -0.170647,-0.0674 -0.239024,-0.1498 -0.213863,-0.25769 -0.406226,-0.12621 -0.432236,0.29544 -0.01829,0.29651 0.04725,0.49743 0.277129,0.84954 0.326206,0.49965 0.449833,0.5722 0.449833,0.26395 0,-0.10848 0.06995,-0.22407 0.155434,-0.25688 0.171328,-0.0657 0.326224,0.11564 0.328532,0.3847 0.0014,0.1679 0.268867,0.65195 0.360184,0.65195 0.0248,0 0.01564,-0.13408 -0.02035,-0.29796 z m -1.498981,-0.002 c 0.127699,-0.23861 0.08421,-0.31089 -0.136189,-0.22631 -0.169048,0.0649 -0.224943,0.4288 -0.06586,0.4288 0.05152,0 0.142442,-0.0911 0.202047,-0.20249 z m 9.607497,-0.0345 c 0,-0.0236 -0.04369,-0.0698 -0.09709,-0.10282 -0.0534,-0.033 -0.09709,-0.0137 -0.09709,0.0428 0,0.0565 0.04369,0.10282 0.09709,0.10282 0.0534,0 0.09709,-0.0193 0.09709,-0.0428 z m 3.255189,-0.93029 c 0.230325,-0.19116 0.1678,-0.3174 -0.124024,-0.25042 -0.146849,0.0337 -0.378214,0.0735 -0.514145,0.0883 -0.372972,0.0408 -0.966483,0.5333 -0.966483,0.80198 0,0.22391 0.0076,0.22237 0.730838,-0.14748 0.401961,-0.20556 0.795177,-0.42715 0.873814,-0.49241 z m -8.805393,0.19108 c -0.03936,-0.26881 -0.66358,-0.67008 -0.66358,-0.42658 0,0.0807 0.06474,0.17155 0.143858,0.20191 0.10939,0.042 0.120002,0.0998 0.04429,0.24124 -0.08182,0.15289 -0.05989,0.20124 0.123141,0.27142 0.273255,0.10477 0.395203,0.005 0.352286,-0.28799 z m -6.029846,0.14083 c -0.03226,-0.0323 -0.116003,-0.0357 -0.18609,-0.008 -0.07745,0.031 -0.05445,0.054 0.05866,0.0587 0.102349,0.004 0.159693,-0.0188 0.127431,-0.051 z m 10.075149,-0.13553 c 0.104553,-0.16917 -0.05042,-0.31349 -0.201755,-0.18789 -0.07476,0.062 -0.11198,0.15155 -0.08272,0.19889 0.07083,0.1146 0.210178,0.10921 0.284471,-0.011 z m -8.689589,-0.19418 c 0,-0.0534 -0.04111,-0.0971 -0.09136,-0.0971 -0.05025,0 -0.118363,0.0437 -0.151365,0.0971 -0.033,0.0534 0.0081,0.0971 0.09136,0.0971 0.08325,0 0.151366,-0.0437 0.151366,-0.0971 z m 11.024066,-0.17457 c -0.05309,-0.24169 -0.01912,-0.29123 0.307829,-0.449 0.242401,-0.11698 0.55753,-0.17222 0.925766,-0.1623 0.530191,0.0143 0.55827,0.003 0.55827,-0.22024 0,-0.12941 -0.06165,-0.25894 -0.137006,-0.28786 -0.105992,-0.0407 -0.124714,-0.18813 -0.08271,-0.65141 l 0.0543,-0.59883 -0.281385,0.1469 c -0.154761,0.0808 -0.409707,0.28187 -0.566546,0.44684 -0.15684,0.16496 -0.323596,0.29994 -0.370567,0.29994 -0.119626,0 -0.766813,0.50308 -0.714493,0.5554 0.02358,0.0236 0.13748,-0.008 0.253112,-0.0696 0.189921,-0.10164 0.207145,-0.0907 0.178223,0.1135 -0.01761,0.12431 -0.13032,0.26914 -0.250469,0.32186 -0.12015,0.0527 -0.21905,0.16193 -0.219779,0.24272 -7.71e-4,0.0808 -0.02767,0.24519 -0.05987,0.36534 -0.05011,0.187 -0.02086,0.21845 0.203221,0.21845 0.23614,0 0.255923,-0.0266 0.202098,-0.27166 z m -14.058094,-0.23806 c -0.02222,-0.0668 -0.12278,-0.13733 -0.223454,-0.15684 -0.158364,-0.0307 -0.165495,-0.0143 -0.05288,0.12137 0.154005,0.18556 0.334006,0.20867 0.276338,0.0355 z m 2.160215,-0.0749 c 0,-0.13245 -0.466855,-0.34015 -0.558527,-0.24848 -0.08378,0.0838 0.243699,0.34765 0.431448,0.34765 0.06989,0 0.127079,-0.0446 0.127079,-0.0992 z m 5.236299,-1.29823 c -0.0843,-0.079 -0.126597,-0.0753 -0.159281,0.0139 -0.02448,0.0668 -0.106395,0.12136 -0.182044,0.12136 -0.08568,0 -0.136985,0.10068 -0.136059,0.267 0.0018,0.31411 0.07421,0.4393 0.33833,0.58459 0.181376,0.0998 0.196148,0.0743 0.224008,-0.38625 0.01764,-0.29157 -0.01708,-0.53699 -0.08495,-0.60056 z m 5.103826,0.80654 c 0.155688,-0.0736 0.136441,-0.0815 -0.09709,-0.0402 -0.275499,0.0487 -0.281066,0.0436 -0.102806,-0.0956 0.226172,-0.17656 0.412386,-0.18929 0.464888,-0.0318 0.06422,0.19266 0.568207,-0.23055 0.519752,-0.43645 -0.02643,-0.1123 0.03593,-0.21065 0.173218,-0.2732 0.182953,-0.0834 0.216852,-0.18212 0.230409,-0.67124 0.01453,-0.52443 -0.114177,-0.86804 -0.210163,-0.56105 -0.02193,0.0701 -0.114982,0.37874 -0.206785,0.68579 -0.112719,0.377 -0.21777,0.55912 -0.323534,0.56089 -0.08614,10e-4 -0.320457,0.15495 -0.520706,0.34113 -0.515391,0.47916 -0.473423,0.77986 0.07282,0.52174 z m -1.184735,-0.45543 0.0504,-0.26364 -0.185281,0.22882 c -0.101905,0.12584 -0.185281,0.29486 -0.185281,0.37558 0,0.24279 0.261896,-0.0359 0.320165,-0.34076 z m -5.368865,0.33003 c 0,-0.0202 -0.07646,-0.0966 -0.169908,-0.16991 -0.153992,-0.12077 -0.157426,-0.11734 -0.03666,0.0367 0.126836,0.16173 0.206566,0.21315 0.206566,0.13325 z m -3.593831,-0.1818 c -0.0026,-0.21425 -0.134095,-0.3321 -0.597401,-0.53552 -0.327599,-0.14383 -0.462178,-0.26204 -0.485452,-0.42642 -0.04056,-0.28645 -0.469861,-0.38998 -0.467781,-0.11281 0.0026,0.34972 0.121401,0.61361 0.276997,0.6154 0.08722,0.001 0.355192,0.12928 0.595491,0.28504 0.477467,0.3095 0.680441,0.36167 0.678146,0.17431 z m 4.077796,-0.24273 c -0.0034,-0.16752 -0.179201,-0.33534 -0.283643,-0.27079 -0.08536,0.0528 -0.08511,0.10282 0.001,0.20662 0.121803,0.14676 0.285054,0.18384 0.282611,0.0642 z m -3.493767,-0.32127 c 0,-0.10365 -0.04369,-0.18845 -0.09709,-0.18845 -0.0534,0 -0.09709,0.1118 -0.09709,0.24846 0,0.14091 0.04203,0.22248 0.09709,0.18845 0.0534,-0.033 0.09709,-0.14481 0.09709,-0.24846 z m 1.235773,-0.74208 c 0.245994,-0.20177 0.249975,-0.21777 0.07072,-0.28419 -0.104472,-0.0387 -0.215727,-0.10852 -0.247232,-0.15514 -0.05686,-0.0841 -0.339049,-0.12565 -0.525261,-0.0773 -0.233345,0.0606 -0.533997,-0.008 -0.533997,-0.12193 0,-0.16835 -1.206927,-1.35508 -1.291812,-1.27019 -0.0371,0.0371 -0.06745,0.12158 -0.06745,0.18772 0,0.17737 0.657526,0.93316 0.985188,1.13243 0.156034,0.0949 0.32311,0.27055 0.371279,0.39036 0.04817,0.11982 0.09035,0.16323 0.09373,0.0965 0.0086,-0.16934 0.200335,-0.15292 0.200335,0.0171 0,0.0762 0.07646,0.15849 0.169908,0.18291 0.104534,0.0273 0.06718,0.0487 -0.09709,0.0557 -0.146849,0.006 -0.266999,0.036 -0.266999,0.0662 0,0.16129 0.233686,0.45139 0.418752,0.51985 0.178457,0.066 0.231388,0.0307 0.33557,-0.22393 0.06803,-0.16626 0.240993,-0.39852 0.384361,-0.51611 z m 5.860476,0.33518 0.243282,-0.50973 -0.251805,-0.2679 c -0.225324,-0.23973 -0.27137,-0.2536 -0.437846,-0.13187 -0.147195,0.10763 -0.162125,0.16485 -0.0715,0.27404 0.0687,0.0828 0.09157,0.27955 0.05714,0.49172 -0.05977,0.36829 3.02e-4,0.65346 0.137539,0.65346 0.04395,0 0.189388,-0.22937 0.323195,-0.50972 z m -5.516349,0.11494 c -0.03422,-0.13085 -0.0855,-0.16755 -0.147504,-0.10555 -0.100499,0.1005 -0.02144,0.30615 0.117691,0.30615 0.04525,0 0.05867,-0.0903 0.02981,-0.2006 z m 3.029134,-0.1833 c 0.106849,-0.17288 -0.06148,-0.587 -0.238604,-0.587 -0.09447,0 -0.226157,-0.0655 -0.292634,-0.14564 -0.06648,-0.0801 -0.160977,-0.14563 -0.210001,-0.14563 -0.04902,0 -0.207513,-0.0844 -0.3522,-0.18756 -0.32246,-0.2299 -0.991245,-0.33361 -0.991245,-0.15371 0,0.0711 0.245581,0.17733 0.582542,0.25209 0.320398,0.0711 0.582542,0.1553 0.582542,0.18716 0,0.0319 0.134852,0.24131 0.299671,0.46543 0.291444,0.3963 0.503143,0.50382 0.619929,0.31486 z m -5.191576,-0.54419 c 0,-0.0832 -0.0444,-0.12392 -0.09867,-0.0904 -0.05427,0.0335 -0.07354,0.10165 -0.04282,0.15136 0.08323,0.13467 0.141489,0.10956 0.141489,-0.061 z m -0.339816,-0.237 c -0.033,-0.0534 -0.133886,-0.0964 -0.224184,-0.0956 -0.141487,0.001 -0.14405,0.0145 -0.01854,0.0956 0.190139,0.12288 0.318668,0.12288 0.242726,0 z m 5.657747,-0.29707 c 0.01736,-0.0901 -0.104174,-0.2126 -0.306845,-0.30924 -0.308219,-0.14698 -0.346095,-0.1473 -0.464527,-0.004 -0.08886,0.10766 -0.0955,0.16751 -0.02135,0.19249 0.05918,0.0199 0.190248,0.0995 0.291271,0.17669 0.224538,0.17168 0.462713,0.14501 0.501453,-0.0562 z m 8.12494,0.0125 c 0.03072,-0.0497 0.0154,-0.11539 -0.03405,-0.14595 -0.126632,-0.0783 -0.40881,0.0443 -0.343873,0.14941 0.07032,0.11379 0.3068,0.11162 0.377927,-0.003 z m -7.928138,-0.51158 c 0.06408,-0.0641 0.116509,-0.23885 0.116509,-0.38837 0,-0.19962 -0.04765,-0.27185 -0.179325,-0.27185 -0.09863,0 -0.280396,-0.0877 -0.403927,-0.1948 -0.273756,-0.23742 -0.308846,-0.21217 -0.232885,0.16764 0.04449,0.22246 0.101723,0.28396 0.232443,0.24977 0.220639,-0.0577 0.356817,0.14714 0.150463,0.22632 -0.119309,0.0458 -0.12901,0.0896 -0.04281,0.1935 0.136656,0.16466 0.209079,0.16824 0.359533,0.0178 z m -2.650979,-0.0783 c -0.03323,-0.0538 -0.418101,-0.33589 -0.855271,-0.62695 -0.43717,-0.29105 -0.915003,-0.62207 -1.061852,-0.73561 -0.221399,-0.17117 -0.266999,-0.18016 -0.266999,-0.0527 0,0.0846 0.0356,0.15374 0.07911,0.15374 0.04351,0 0.152029,0.15292 0.241155,0.33981 0.10039,0.21052 0.231546,0.33982 0.344705,0.33982 0.100462,0 0.286854,0.0776 0.414204,0.17247 0.276033,0.2056 0.643732,0.38411 0.91118,0.44235 0.1068,0.0233 0.207682,0.0474 0.224184,0.0536 0.0165,0.006 0.0028,-0.0327 -0.03042,-0.0865 z m 4.622735,-0.41197 c 0.06918,-0.12586 0.05768,-0.16991 -0.04434,-0.16991 -0.07575,0 -0.159712,0.0765 -0.186582,0.16991 -0.02687,0.0935 -0.07922,0.25729 -0.11634,0.36409 l -0.06749,0.19418 0.160676,-0.19418 c 0.08837,-0.1068 0.202703,-0.27064 0.254068,-0.36409 z m 0.887556,0.002 c 0.159058,-0.11013 0.266999,-0.27431 0.266999,-0.40609 0,-0.12167 0.152667,-0.37842 0.339259,-0.57055 0.405303,-0.41733 0.278616,-0.58454 -0.173547,-0.22906 -0.872102,0.68563 -0.894938,0.71167 -0.763176,0.87044 0.103357,0.12453 0.09446,0.19732 -0.0514,0.42036 -0.189253,0.28938 -0.144607,0.27944 0.381865,-0.0851 z m 1.125153,-0.17164 c 0.330713,-0.16021 0.644289,-0.29128 0.696838,-0.29128 0.05255,0 0.09554,-0.0363 0.09554,-0.0807 0,-0.0444 0.109161,-0.13911 0.242579,-0.21051 0.133419,-0.0714 0.226871,-0.14553 0.20767,-0.16473 -0.07997,-0.08 -1.906605,0.79144 -1.906605,0.90956 0,0.16698 -0.03217,0.17485 0.663974,-0.16236 z m -5.209658,-1.31072 c -0.03394,-0.53303 -0.0158,-0.63109 0.116761,-0.63109 0.214701,0 0.197658,-0.16556 -0.02956,-0.28717 -0.212447,-0.1137 -0.881488,-0.23569 -0.881488,-0.16073 0,0.0273 0.109227,0.16739 0.242726,0.31144 0.1335,0.14404 0.242726,0.32641 0.242726,0.40525 0,0.15459 0.002,0.15565 -0.599846,-0.32718 -0.169428,-0.13593 -0.345429,-0.1923 -0.505123,-0.16177 -0.229686,0.0439 -0.236142,0.0605 -0.102694,0.26418 0.07832,0.11953 0.315218,0.26911 0.526442,0.33239 0.242257,0.0726 0.501631,0.25669 0.702542,0.49866 0.175172,0.21098 0.320567,0.38439 0.323097,0.38535 0.0025,0.001 -0.01348,-0.28224 -0.03558,-0.62933 z m 6.778763,0.4369 c 0,-0.0534 -0.01926,-0.0971 -0.04281,-0.0971 -0.02355,0 -0.06982,0.0437 -0.102821,0.0971 -0.033,0.0534 -0.01374,0.0971 0.04281,0.0971 0.05655,0 0.102821,-0.0437 0.102821,-0.0971 z m -8.415253,-0.13643 c 0.05608,-0.14614 -0.215111,-0.44603 -0.403344,-0.44603 -0.147091,0 -0.144545,0.14746 0.0067,0.38968 0.140569,0.22509 0.321975,0.25087 0.396616,0.0564 z m 3.035961,-0.16604 c 0.181884,-0.20205 0.181883,-0.20487 -5.1e-5,-0.16991 -0.101755,0.0196 -0.196192,0.11202 -0.209863,0.20547 -0.03167,0.21653 -0.01437,0.2136 0.209914,-0.0356 z m 2.643906,-0.45731 c 0.09753,-0.0975 0.250446,-0.20538 0.339816,-0.23968 0.166711,-0.064 0.234374,-0.5539 0.0765,-0.5539 -0.147295,0 -0.618813,0.27216 -0.703849,0.40626 -0.113078,0.17832 -0.104104,0.56464 0.01312,0.56464 0.0534,0 0.176887,-0.0798 0.274416,-0.17732 z m 1.084806,-0.30087 c 0.609397,-0.38393 0.881908,-0.78398 0.534041,-0.78398 -0.0801,0 -0.146334,-0.0765 -0.147186,-0.16991 -0.0012,-0.12702 -0.07467,-0.087 -0.291271,0.15879 -0.159347,0.18079 -0.289721,0.38155 -0.289721,0.44614 0,0.0646 -0.08738,0.19651 -0.194181,0.29316 -0.395236,0.35768 -0.147381,0.3933 0.388318,0.0558 z m -3.49521,-0.15289 c 0,-0.33173 -0.0092,-0.33982 -0.388362,-0.33982 -0.276795,0 -0.388361,0.041 -0.388361,0.14259 0,0.0869 0.05692,0.12074 0.145636,0.0867 0.0801,-0.0307 0.145635,-0.008 0.145635,0.0516 0,0.0591 -0.09273,0.10748 -0.206068,0.10748 -0.172165,0 -0.186184,0.024 -0.0852,0.14564 0.06648,0.0801 0.268435,0.14563 0.448794,0.14563 0.310049,0 0.327929,-0.0185 0.327929,-0.33981 z m -5.299528,-0.0832 c -0.06242,-0.16266 -0.234624,-0.22275 -0.234624,-0.0819 0,0.0945 0.216604,0.32063 0.262811,0.27443 0.01817,-0.0182 0.0055,-0.10483 -0.02819,-0.19257 z m 6.731611,-0.38508 c 0.311274,-0.28022 0.271538,-0.37312 -0.144828,-0.33858 -0.372145,0.0309 -0.496827,0.20679 -0.373794,0.52741 0.0613,0.15973 0.179068,0.11685 0.518622,-0.18883 z m -5.412789,-0.11088 c 0,-0.0782 -0.08738,-0.18899 -0.194181,-0.24614 -0.141865,-0.0759 -0.19418,-0.0738 -0.19418,0.008 0,0.0708 -0.09094,0.0521 -0.248647,-0.0512 -0.364059,-0.23854 -0.483538,-0.13865 -0.200044,0.16724 0.273487,0.2951 0.837052,0.37751 0.837052,0.1224 z m 6.899453,-0.25897 c 0.559163,-0.26864 1.158853,-0.85002 1.158962,-1.12357 l 8.7e-5,-0.21404 -0.238313,0.23831 c -0.131072,0.13107 -0.351295,0.23831 -0.489383,0.23831 -0.138089,0 -0.391296,0.0982 -0.562683,0.21813 -0.171387,0.11997 -0.316259,0.21827 -0.321939,0.21845 -0.05688,0.002 -0.110755,0.63142 -0.05403,0.63142 0.04203,0 0.270318,-0.0931 0.507297,-0.20701 z m -3.081406,-0.0511 c 0.08503,-0.085 -0.119418,-0.32447 -0.277047,-0.32447 -0.07686,0 -0.105186,0.0745 -0.07388,0.19418 0.04991,0.19084 0.225264,0.25596 0.350925,0.13029 z m -0.618919,-1.33907 c -0.166143,-0.35895 -0.325323,-0.6294 -0.353734,-0.60098 -0.112508,0.1125 0.192895,1.04198 0.387056,1.17797 0.111399,0.078 0.217442,0.12697 0.235651,0.10876 0.01821,-0.0182 -0.10283,-0.32679 -0.268973,-0.68575 z m 2.099386,-0.88075 c -0.199529,-0.15095 -0.311025,-0.12696 -0.205261,0.0442 0.0352,0.057 0.137878,0.10216 0.228176,0.10046 0.144145,-0.003 0.141349,-0.0204 -0.02291,-0.14463 z m -2.866126,-0.1921 c -0.0076,-0.14411 -0.224824,-0.11763 -0.275217,0.0335 -0.02722,0.0817 0.01716,0.11806 0.1184,0.0971 0.08907,-0.0184 0.159638,-0.0772 0.156817,-0.13064 z m 1.602839,-0.69907 c -0.0451,-0.11751 -0.08921,-0.13034 -0.170097,-0.0495 -0.08089,0.0809 -0.07469,0.1508 0.0239,0.2696 0.150589,0.18145 0.24547,0.0386 0.146191,-0.22015 z m 0.60258,0.16508 c 0.101144,-0.16196 0.09696,-0.19418 -0.02519,-0.19418 -0.08055,0 -0.146458,0.0183 -0.146458,0.0406 0,0.0223 -0.02652,0.10971 -0.05893,0.19418 -0.08441,0.21996 0.08667,0.18983 0.230582,-0.0406 z m -1.433824,-0.24273 c 0,-0.0801 -0.04369,-0.14564 -0.09709,-0.14564 -0.0534,0 -0.09709,0.0655 -0.09709,0.14564 0,0.0801 0.04369,0.14563 0.09709,0.14563 0.0534,0 0.09709,-0.0655 0.09709,-0.14563 z m -2.038898,-0.91104 c 0,-0.11561 -0.375388,-0.20795 -0.437415,-0.10759 -0.02709,0.0438 0.0056,0.10181 0.07272,0.12886 0.198908,0.0802 0.364694,0.0705 0.364694,-0.0213 z m 4.601405,-1.23289 c 0.03241,-0.0845 0.05893,-0.24612 0.05893,-0.35923 0,-0.26762 -0.158676,-0.10931 -0.246381,0.24581 -0.07047,0.28534 0.08531,0.3796 0.187448,0.11342 z m -3.223997,43.17216 c 0.0174,-0.24575 0.085,-0.44732 0.158077,-0.47137 0.09798,-0.0322 0.112179,0.045 0.06104,0.33227 -0.09885,0.55527 -0.255634,0.6548 -0.219119,0.1391 z m 7.379336,-3.12172 c 0.01913,-0.0574 0.0763,-0.10437 0.127026,-0.10437 0.05073,0 0.107891,0.047 0.127026,0.10437 0.01914,0.0574 -0.03803,0.10438 -0.127026,0.10438 -0.089,0 -0.146162,-0.047 -0.127026,-0.10438 z m -21.281403,-1.11498 c 0,-0.0833 0.04369,-0.12437 0.09709,-0.0914 0.0534,0.033 0.09709,0.10111 0.09709,0.15136 0,0.0503 -0.04369,0.0914 -0.09709,0.0914 -0.0534,0 -0.09709,-0.0681 -0.09709,-0.15136 z m -0.242726,-0.43118 c -0.033,-0.0534 -0.03012,-0.14545 0.0064,-0.20455 0.06526,-0.10558 0.231309,0.0562 0.234833,0.22882 0.0022,0.10643 -0.171248,0.089 -0.241239,-0.0243 z"
       id="path2307"
       inkscape:connector-curvature="0" />
  </g>
</svg>
