<?xml version="1.0" encoding="UTF-8" standalone="no"?>
<!-- Created with Inkscape (http://www.inkscape.org/) -->

<svg
   xmlns:dc="http://purl.org/dc/elements/1.1/"
   xmlns:cc="http://creativecommons.org/ns#"
   xmlns:rdf="http://www.w3.org/1999/02/22-rdf-syntax-ns#"
   xmlns:svg="http://www.w3.org/2000/svg"
   xmlns="http://www.w3.org/2000/svg"
   xmlns:sodipodi="http://sodipodi.sourceforge.net/DTD/sodipodi-0.dtd"
   xmlns:inkscape="http://www.inkscape.org/namespaces/inkscape"
   width="105mm"
   height="146mm"
   viewBox="0 0 105 146"
   version="1.1"
   id="svg8"
   inkscape:version="0.92.3 (2405546, 2018-03-11)"
   sodipodi:docname="araucaria_4_older_01.svg">
  <defs
     id="defs2" />
  <sodipodi:namedview
     id="base"
     pagecolor="#ffffff"
     bordercolor="#666666"
     borderopacity="1.0"
     inkscape:pageopacity="0.0"
     inkscape:pageshadow="2"
     inkscape:zoom="0.7"
     inkscape:cx="-0.54686088"
     inkscape:cy="204.43158"
     inkscape:document-units="mm"
     inkscape:current-layer="layer1"
     showgrid="false"
     inkscape:pagecheckerboard="true"
     height="147mm"
     inkscape:window-width="1920"
     inkscape:window-height="1055"
     inkscape:window-x="381"
     inkscape:window-y="0"
     inkscape:window-maximized="1"
     inkscape:snap-global="false" />
  <metadata
     id="metadata5">
    <rdf:RDF>
      <cc:Work
         rdf:about="">
        <dc:format>image/svg+xml</dc:format>
        <dc:type
           rdf:resource="http://purl.org/dc/dcmitype/StillImage" />
        <dc:title></dc:title>
      </cc:Work>
    </rdf:RDF>
  </metadata>
  <g
     inkscape:label="Layer 1"
     inkscape:groupmode="layer"
     id="layer1"
     transform="translate(0,-151)">
    <path
       style="fill:#000000;stroke-width:0.21004407"
       d="m 54.736733,298.08928 -0.630133,-0.50449 -0.01008,-2.91163 c -0.0055,-1.60139 -0.08584,-3.03417 -0.178414,-3.18396 -0.09258,-0.14979 -0.160205,-1.23499 -0.150293,-2.41156 0.0099,-1.17657 -0.119888,-4.92756 -0.288447,-8.33552 -0.174146,-3.5209 -0.28208,-9.09844 -0.249982,-12.91773 0.03107,-3.69676 -0.01176,-6.29606 -0.09519,-5.7762 -0.08342,0.51985 -0.158685,1.74074 -0.167248,2.71307 -0.0085,0.97232 -0.05723,1.72621 -0.108131,1.6753 -0.211536,-0.21153 -0.274703,-13.20176 -0.07169,-14.74231 0.118659,-0.90041 0.248096,-1.60475 0.28764,-1.56519 0.108803,0.1088 0.07923,3.96763 -0.04949,6.45798 -0.06271,1.213 -0.04996,2.14257 0.02832,2.0657 0.13114,-0.12879 0.58904,-4.28669 0.551334,-5.00631 -0.0091,-0.17329 -0.02044,-1.18938 -0.02521,-2.25798 -0.0071,-1.56841 -0.06842,-1.9429 -0.318519,-1.9429 -0.233301,0 -0.310604,-0.27233 -0.313026,-1.10274 -0.0017,-0.60649 -0.09484,-1.24451 -0.206828,-1.4178 -0.141831,-0.21947 -0.204588,0.14701 -0.206829,1.20776 -0.0017,0.83755 -0.08312,1.52282 -0.180789,1.52282 -0.09767,0 -0.13904,-1.0161 -0.09195,-2.25798 0.11485,-3.02852 0.108053,-10.59538 -0.01279,-14.25035 -0.05384,-1.62826 -0.02061,-3.08553 0.07387,-3.23838 0.152561,-0.24685 0.319797,3.9528 0.234022,5.87674 -0.02166,0.48577 0.03749,0.65814 0.177742,0.51791 0.23927,-0.23928 0.643345,-5.28351 0.613002,-7.65235 -0.01938,-1.51271 -0.02982,-1.54437 -0.262486,-0.79639 -0.30947,0.99484 -0.763867,1.50096 -0.763867,0.85079 0,-0.24733 0.08489,-0.50215 0.188643,-0.56628 0.277456,-0.17148 0.457411,-2.5545 0.445123,-5.89447 -0.01429,-3.8802 -0.211471,-7.06263 -0.429292,-6.92801 -0.255309,0.15779 -0.394719,1.8127 -0.520226,6.17553 -0.06121,2.12766 -0.192683,3.9708 -0.292165,4.09585 -0.09948,0.12507 -0.159254,0.69999 -0.132822,1.27761 0.02643,0.57762 -0.02333,1.14473 -0.110585,1.26025 -0.08725,0.11553 -0.207595,0.44636 -0.267428,0.73516 -0.05984,0.28882 -0.07217,-0.5146 -0.02743,-1.78537 0.04474,-1.27077 0.122248,-2.50121 0.172228,-2.73431 0.04999,-0.2331 0.159458,-2.21803 0.243281,-4.41092 0.08383,-2.19292 0.233307,-4.14266 0.332183,-4.33277 0.183383,-0.35261 0.257907,-1.13858 0.518807,-5.47175 0.106674,-1.77172 0.227654,-2.48731 0.433889,-2.56646 0.360926,-0.13849 0.382459,-1.62277 0.02867,-1.97654 -0.203031,-0.20304 -0.203031,-0.34419 0,-0.66929 0.332968,-0.53317 0.330183,-0.90637 -0.0053,-0.70484 -0.194449,0.11682 -0.191312,0.0698 0.0121,-0.18124 0.33494,-0.41338 0.809065,-5.27406 0.968481,-9.9288 0.164051,-4.7901 0.37732,-7.93337 0.522382,-7.6992 0.06869,0.11082 0.114489,-1.30402 0.101789,-3.14418 -0.01269,-1.84017 -0.08358,-3.40625 -0.157533,-3.4802 -0.07395,-0.074 -0.134462,0.0704 -0.134462,0.32064 0,0.26172 -0.132061,0.4551 -0.310798,0.4551 -0.170937,0 -0.512633,0.40171 -0.759324,0.89269 -0.246693,0.49097 -0.754625,1.41254 -1.128743,2.04792 -0.6556,1.11345 -0.693656,1.30725 -1.051749,5.35612 -0.204346,2.3105 -0.495221,5.05156 -0.646392,6.09128 l -0.274853,1.8904 0.101755,-2.10044 c 0.05596,-1.15523 0.190133,-2.76207 0.298152,-3.57074 0.24611,-1.84247 0.355766,-4.96693 0.167375,-4.76915 -0.07762,0.0815 -0.188218,0.66803 -0.245783,1.30341 -0.120215,1.32692 -0.717378,6.38425 -0.992066,8.40177 -0.600789,4.41263 -0.851588,10.72487 -0.831986,20.93995 0.0063,3.25699 -0.08292,6.99053 -0.198143,8.29674 -0.196158,2.22365 -0.380415,24.1743 -0.277354,33.04138 0.02551,2.19496 -0.07714,5.43768 -0.228122,7.20606 -0.150976,1.76837 -0.291608,4.88752 -0.312514,6.93146 -0.122566,11.98382 -0.236379,15.68107 -0.566997,18.41931 -0.19528,1.61734 -0.414465,3.68929 -0.487078,4.60434 -0.07261,0.91504 -0.231316,1.69642 -0.352672,1.7364 -0.312904,0.10308 -0.24368,-2.31504 0.181521,-6.34074 0.399051,-3.77813 0.526209,-6.85045 0.660684,-15.96335 0.05114,-3.46573 0.203828,-7.3883 0.3393,-8.71683 0.241601,-2.36934 0.331258,-8.35247 0.21875,-14.59807 -0.136543,-7.57991 0.02416,-22.51243 0.278035,-25.83542 0.158239,-2.07116 0.289853,-7.75943 0.313393,-13.54468 0.02232,-5.48565 0.129143,-10.92055 0.237387,-12.07752 0.108243,-1.15699 0.256962,-2.90703 0.33049,-3.88899 0.07353,-0.98196 0.206675,-1.87989 0.295885,-1.99542 0.261506,-0.33865 0.340609,-5.83065 0.08524,-5.91791 -0.121321,-0.0415 -0.394156,0.31805 -0.606302,0.79888 -0.212145,0.48084 -0.708267,1.4449 -1.102493,2.14235 -0.61536,1.08869 -0.670738,1.29387 -0.391407,1.45019 0.466311,0.26095 0.401218,0.65845 -0.147234,0.89906 -0.567222,0.24886 -0.946438,1.77093 -0.977454,3.92323 -0.01109,0.77297 -0.102103,1.45599 -0.202131,1.51781 -0.216246,0.13364 -0.08934,1.08672 0.233022,1.74995 0.29362,0.60412 0.0055,0.91186 -0.371206,0.39659 -0.389152,-0.5322 -0.593691,-2.36861 -0.473103,-4.24767 0.05497,-0.85647 0.0234,-1.55723 -0.07014,-1.55723 -0.09354,0 -0.612144,0.4726 -1.15244,1.05022 -0.540296,0.57762 -1.114969,1.05021 -1.27705,1.05021 -0.162079,0 -0.676261,0.19467 -1.142624,0.43259 -0.466363,0.23791 -1.053348,0.39609 -1.304407,0.3515 -0.44439,-0.079 -0.442574,-0.0873 0.06863,-0.31425 0.453553,-0.20139 0.336341,-0.23498 -0.860132,-0.24647 -1.107621,-0.0112 -1.461436,-0.0975 -1.765418,-0.43341 -0.209098,-0.23104 -0.294635,-0.43095 -0.190088,-0.4442 0.104545,-0.0133 0.662687,-0.0533 1.240308,-0.0891 0.577621,-0.0358 1.28652,-0.16911 1.57533,-0.29637 0.475158,-0.20938 0.44903,-0.22196 -0.274666,-0.13219 -0.924005,0.11462 -1.405686,-0.0215 -1.405686,-0.39725 0,-0.16481 0.29587,-0.26433 0.787665,-0.26495 0.747057,-0.001 2.559062,-0.81857 2.568619,-1.15902 0.0056,-0.20109 -0.05964,-0.20395 -0.928771,-0.0409 -0.395834,0.0743 -0.881511,0.31381 -1.079281,0.53235 -0.327689,0.36208 -0.381613,0.36719 -0.60798,0.0576 -0.202073,-0.27634 -0.333436,-0.29419 -0.70437,-0.0957 -0.250782,0.13422 -0.45597,0.32185 -0.45597,0.41696 0,0.0951 -0.827049,1.05189 -1.837886,2.12619 -1.548963,1.64619 -3.107077,3.00536 -5.408634,4.71809 -0.231049,0.17193 -0.68399,0.51319 -1.006538,0.75835 -0.33692,0.2561 -0.761559,0.39996 -0.997999,0.33813 -0.226351,-0.0592 -0.361147,-0.0261 -0.299544,0.0736 0.257115,0.41603 -2.257057,1.45274 -3.535073,1.45768 -0.801948,0.003 -1.750118,-0.51948 -1.886115,-1.03953 -0.128174,-0.49014 0.162307,-0.58865 0.343491,-0.11648 0.228322,0.59499 3.707021,-0.0574 3.705715,-0.69499 -1.6e-4,-0.0782 -0.545617,-0.30238 -1.212129,-0.49822 -1.452719,-0.42685 -2.641894,-1.18513 -2.747155,-1.75175 -0.07248,-0.39016 -0.04945,-0.38743 0.421501,0.0499 1.295646,1.20308 3.784949,1.53114 5.393054,0.71074 0.481576,-0.24567 0.875594,-0.5393 0.875594,-0.65247 0,-0.25151 0.04848,-0.25223 -0.841562,0.0123 -2.51434,0.74735 -4.268788,0.64826 -5.211423,-0.29438 -0.29762,-0.29762 -0.473074,-0.60917 -0.389901,-0.69235 0.08318,-0.0831 0.293549,0.052 0.467498,0.30031 0.430674,0.61487 1.510292,0.77578 3.140877,0.4681 1.405299,-0.26516 1.838288,-0.62992 0.747743,-0.62992 -1.231902,0 -2.324158,-0.70847 -2.324158,-1.50753 0,-0.37798 0.07033,-0.35201 0.609381,0.22505 0.49,0.52455 0.778047,0.65235 1.47031,0.65235 0.815235,0 1.112494,-0.23982 0.650882,-0.52511 -0.371478,-0.22959 -0.22368,-0.57767 0.198411,-0.4673 0.299041,0.0782 0.426972,-0.0137 0.477586,-0.34307 0.03841,-0.24999 0.197268,-0.422 0.357504,-0.38712 0.158604,0.0345 1.128447,-0.13445 2.155203,-0.3755 1.026755,-0.24106 1.958091,-0.38188 2.069635,-0.31294 0.379939,0.23482 0.204184,0.93014 -0.322304,1.27512 -0.28881,0.18922 -0.525109,0.47253 -0.525109,0.62957 0,0.15704 -0.28665,0.43375 -0.637001,0.61493 -0.35035,0.18116 -0.576024,0.42805 -0.501498,0.54864 0.07453,0.12059 -0.175851,0.54049 -0.556395,0.93311 -0.380544,0.39262 -0.638721,0.76703 -0.573727,0.83202 0.06499,0.065 0.266024,-0.0297 0.446738,-0.21039 0.180713,-0.1807 0.782715,-0.66599 1.337781,-1.07839 0.555066,-0.41241 1.98287,-1.74741 3.172898,-2.96668 2.247681,-2.30289 2.602887,-3.02259 1.564595,-3.17005 -0.682473,-0.0969 -0.591087,-0.39278 0.4726,-1.52993 0.519858,-0.55578 0.945198,-1.11836 0.945198,-1.25019 0,-0.13181 0.345126,-0.54679 0.766944,-0.92214 0.470617,-0.41879 0.678418,-0.73719 0.537822,-0.82409 -0.126018,-0.0779 -0.447513,0.0798 -0.714435,0.35029 -0.510657,0.51759 -1.008632,0.87301 -2.769975,1.97703 -1.160809,0.7276 -1.601149,0.84427 -1.601149,0.42424 0,-0.14662 0.557414,-0.57303 1.238698,-0.94756 1.219181,-0.67025 1.789011,-1.30639 1.170218,-1.30639 -0.169662,0 -0.308476,0.0946 -0.308476,0.21005 0,0.11552 -0.18904,0.21003 -0.420088,0.21003 -0.497144,0 -0.558463,-0.32204 -0.09517,-0.49982 0.178706,-0.0686 0.296854,-0.28972 0.262555,-0.49145 -0.04224,-0.24843 0.08277,-0.37528 0.38744,-0.39313 0.582873,-0.0342 2.371137,-0.89888 2.9109,-1.40758 0.231049,-0.21776 0.856829,-0.61924 1.390624,-0.89218 0.95824,-0.48997 1.225809,-0.90921 1.23206,-1.93051 0.0031,-0.51626 0.725091,-0.81906 1.423972,-0.59724 0.300576,0.0954 0.65998,-0.15471 1.432957,-0.99719 1.312925,-1.43099 1.976952,-2.21909 1.976952,-2.34634 0,-0.0551 0.291517,-0.57405 0.647815,-1.1531 0.356301,-0.57906 0.611238,-1.16257 0.566532,-1.2967 -0.104108,-0.31231 -0.943267,-0.44599 -1.109651,-0.17677 -0.07376,0.11933 0.02136,0.14795 0.228121,0.0686 0.246167,-0.0945 0.32473,-0.0464 0.25686,0.15725 -0.127336,0.38201 -1.896309,1.61411 -4.265449,2.97091 -2.067426,1.184 -3.813755,2.40669 -4.688803,3.28282 -0.708619,0.70952 -2.866378,2.18219 -3.765471,2.56995 -0.74249,0.32023 -0.737706,0.30904 -0.686537,1.60512 0.07058,1.78786 -1.733005,4.03303 -4.76906,5.93666 -0.718977,0.4508 -1.357397,0.73847 -1.418714,0.63926 -0.06132,-0.0992 0.367231,-0.47494 0.952321,-0.83495 1.685035,-1.03681 4.310431,-3.74593 4.579858,-4.72591 0.257671,-0.93724 0.118313,-1.79818 -0.291065,-1.79818 -0.685574,0 -2.14893,0.84452 -2.597367,1.49897 -0.268627,0.39204 -0.948651,1.04219 -1.511165,1.4448 -0.888091,0.63563 -1.329435,1.25711 -0.892726,1.25711 0.541549,0 1.782824,-0.78909 1.885633,-1.19871 0.06648,-0.2649 0.236581,-0.48164 0.377988,-0.48164 0.141407,0 0.48561,-0.34597 0.764895,-0.7688 0.607847,-0.92029 1.34859,-1.46044 1.551828,-1.1316 0.07637,0.12358 -0.154564,0.51813 -0.513208,0.87678 -0.358642,0.35864 -0.829372,0.9956 -1.046066,1.41547 -0.37648,0.72947 -2.637017,3.09934 -3.830901,4.01619 -0.753644,0.57875 -1.920687,1.0531 -2.590967,1.0531 -0.724978,0 -0.490478,-0.33136 0.354029,-0.50026 1.189774,-0.23795 4.40725,-2.65532 3.524223,-2.64784 -0.603364,0.006 -5.328058,1.63325 -5.404432,1.86236 -0.105532,0.31662 -2.447429,0.30488 -3.336781,-0.0167 -0.817101,-0.29546 -0.938228,-0.68292 -0.167433,-0.53557 0.714502,0.13659 0.84188,-0.14407 0.198444,-0.43723 -0.292601,-0.13332 -0.518524,-0.41424 -0.518524,-0.64475 0,-0.38659 0.03489,-0.39109 0.650836,-0.0838 0.759627,0.37896 2.291088,0.2483 3.069734,-0.26189 0.270699,-0.17736 0.576913,-0.27011 0.680479,-0.20611 0.197199,0.12187 2.084077,-1.402 2.39542,-1.93459 0.14967,-0.25603 0.06099,-0.28227 -0.525109,-0.15544 -1.026853,0.22223 -2.280522,0.79632 -2.280522,1.04432 0,0.22459 -1.052401,0.60517 -2.323955,0.8404 -0.531984,0.0984 -0.821513,0.0506 -1.000496,-0.16499 -0.211902,-0.25532 -0.09854,-0.32077 0.714379,-0.4124 1.533905,-0.17289 1.853955,-0.76588 0.47454,-0.87922 -0.385035,-0.0316 -0.818213,-0.071 -0.962618,-0.0874 -0.144405,-0.0165 -0.262556,-0.1835 -0.262556,-0.37122 0,-0.27342 0.135811,-0.31381 0.682644,-0.20305 1.426841,0.28904 3.217225,0.37874 2.888106,0.14471 -0.173287,-0.12323 -0.513087,-0.22549 -0.75511,-0.22726 -0.635956,-0.004 -1.179152,-0.69813 -1.09852,-1.40244 0.06715,-0.5866 0.0953,-0.59833 1.748608,-0.72875 0.924193,-0.0729 1.954948,-0.20497 2.290563,-0.29349 0.54588,-0.14399 0.598324,-0.1155 0.497427,0.27033 -0.138459,0.52948 0.484023,0.6951 2.043023,0.54359 0.980245,-0.0952 1.023053,-0.0801 0.642497,0.22764 -0.224246,0.18132 -0.74073,0.32969 -1.14774,0.32969 -0.65838,0 -0.705199,0.0349 -0.424389,0.31562 0.280809,0.28082 0.413218,0.2773 1.200251,-0.0318 0.951021,-0.37357 1.173615,-0.93856 0.517046,-1.31234 -0.629359,-0.3583 -0.05903,-0.87228 1.741709,-1.56961 0.919329,-0.35601 1.703342,-0.72147 1.74225,-0.81212 0.06064,-0.14131 0.710781,-0.46921 2.869875,-1.44746 0.231048,-0.10466 0.798167,-0.40843 1.260264,-0.67501 0.462096,-0.26657 1.170996,-0.66982 1.57533,-0.89609 0.404335,-0.22628 1.134986,-0.66823 1.623668,-0.98212 0.488683,-0.31389 0.944696,-0.5707 1.013366,-0.5707 0.06867,0 0.832932,-0.54349 1.69836,-1.20775 0.865427,-0.66427 1.791469,-1.32526 2.05787,-1.46888 0.266403,-0.14361 0.613396,-0.41659 0.771101,-0.60661 0.263848,-0.31792 0.136072,-0.33398 -1.60093,-0.2012 -2.967763,0.22685 -5.18492,0.55219 -5.737979,0.84197 -0.453044,0.23737 -0.284141,0.28203 1.555727,0.41135 1.939821,0.13637 2.381617,0.22287 2.172063,0.42524 -0.04814,0.0465 -1.316276,-0.004 -2.818092,-0.11273 -2.836435,-0.2049 -3.6427,-0.15022 -4.652336,0.31553 -0.329321,0.15192 -1.377752,0.59838 -2.329844,0.99216 -0.952093,0.39376 -1.731883,0.78025 -1.732863,0.85887 -0.0011,0.0787 0.210884,0.18388 0.470814,0.23394 0.380488,0.0733 0.352692,0.0966 -0.14262,0.11963 -0.753516,0.035 -1.779962,0.35287 -3.165574,0.98018 -1.331404,0.60278 -3.172044,1.14887 -3.872337,1.14887 -0.297224,0 -1.201639,0.24064 -2.009807,0.53478 -1.029861,0.37481 -1.846378,0.52613 -2.729662,0.50591 -0.693146,-0.0159 -1.969164,0.0632 -2.835595,0.17581 -1.910445,0.24823 -2.700855,-0.0644 -2.990705,-1.18299 -0.127781,-0.49313 -0.353014,-0.7528 -0.782963,-0.90267 -0.331967,-0.11573 -0.655449,-0.34559 -0.718847,-0.5108 -0.126987,-0.33092 0.194646,-0.4172 0.388142,-0.1041 0.10357,0.16757 2.126038,0.85395 2.516248,0.85395 0.219446,0 -0.332552,-0.90034 -0.805709,-1.31416 -0.438757,-0.38374 -0.436763,-0.38542 0.293393,-0.24715 0.918716,0.17398 1.553418,0.49504 0.99771,0.5047 -0.838873,0.0146 -0.11281,0.94078 0.914339,1.16639 0.360858,0.0792 1.280495,0.0772 2.043637,-0.004 1.255491,-0.13445 1.349345,-0.17652 0.986262,-0.44201 -0.220698,-0.16136 -0.796729,-0.29341 -1.280067,-0.29341 -1.141682,0 -2.191573,-0.21381 -2.191573,-0.44633 0,-0.10108 0.30719,-0.19364 0.682643,-0.20567 0.643579,-0.0206 0.625549,-0.0393 -0.315065,-0.32727 -0.54874,-0.16798 -0.99771,-0.39442 -0.99771,-0.50324 0,-0.25588 0.209355,-0.24945 1.014414,0.0311 1.318288,0.45956 1.145497,0.0295 -0.388364,-0.96667 -0.864187,-0.56123 -1.731841,-1.18286 -1.928122,-1.38138 -0.196282,-0.19853 -0.763401,-0.42578 -1.260265,-0.505 -1.101534,-0.17563 -2.8680238,-0.94595 -3.4083758,-1.4863 -0.218753,-0.21875 -0.689819,-0.42629 -1.0468135,-0.46119 -0.8651896,-0.0846 -3.5218965,-0.87476 -3.8522526,-1.14577 -0.3558325,-0.29191 -0.3311361,-0.58404 0.04937,-0.58404 0.1715595,0 1.3007095,0.33081 2.509222,0.73515 1.2085124,0.40433 2.3408371,0.73516 2.5162781,0.73516 0.17544,0 0.413216,0.17607 0.528389,0.39127 0.115174,0.21521 0.4729488,0.49232 0.7950558,0.61582 1.676803,0.64286 5.807574,1.27037 6.026871,0.91554 0.210002,-0.3398 -0.369433,-0.62847 -1.903574,-0.94835 -0.819599,-0.17088 -1.979436,-0.55862 -2.577418,-0.86165 -0.734065,-0.37198 -1.373646,-0.53837 -1.968933,-0.51221 -0.4849318,0.0213 -1.2668448,-0.0682 -1.7375853,-0.19912 -0.9670915,-0.26876 -2.8198804,-1.61895 -2.8198804,-2.05496 0,-0.33858 0.5444733,-0.38545 0.7431619,-0.064 0.1604394,0.25959 0.7481807,0.49966 1.7649866,0.72094 l 0.7227754,0.15728 -0.5652416,-0.67175 c -0.6274584,-0.74569 -0.7307004,-1.26965 -0.2501757,-1.26965 0.1732863,0 0.3150666,0.0873 0.3150666,0.19393 0,0.10667 0.250355,0.49145 0.5563457,0.85511 0.40725,0.48399 0.677645,0.63073 1.008977,0.54757 0.2951118,-0.0741 0.5759138,0.0304 0.8068848,0.30014 0.227538,0.26575 0.617951,0.41373 1.091463,0.41373 0.405466,0 0.737211,-0.0412 0.737211,-0.0915 0,-0.0504 -0.383544,-0.30715 -0.85232,-0.57062 -0.698312,-0.39247 -0.783707,-0.50313 -0.4726,-0.6124 0.230277,-0.0809 0.825333,0.10768 1.511965,0.47899 0.958899,0.51862 1.336749,0.60496 2.468006,0.56395 0.734669,-0.0267 1.39878,0.0146 1.475803,0.0917 0.07702,0.077 -0.06476,0.14004 -0.315054,0.14004 -0.250303,0 -0.455096,0.0946 -0.455096,0.21004 0,0.23812 0.540958,0.30533 1.837946,0.22836 0.720382,-0.0428 0.869387,0.008 0.771756,0.26231 -0.09507,0.24775 0.128027,0.34642 1.041209,0.46052 1.07539,0.13436 1.262452,0.0891 2.504365,-0.60538 0.73819,-0.41282 1.462691,-0.89581 1.610001,-1.07331 0.14731,-0.17749 0.34993,-0.32271 0.450267,-0.32271 0.271971,0 4.387101,-2.80561 4.387101,-2.99104 0,-0.3074 -0.387089,-0.15342 -1.501713,0.5974 -2.147495,1.44658 -3.39039,1.89531 -3.590111,1.29614 -0.05101,-0.15301 -0.551441,-0.27617 -1.234492,-0.30381 -1.426575,-0.0577 -2.189353,-0.33708 -2.498663,-0.91502 -0.217895,-0.40715 -0.201893,-0.42634 0.183464,-0.22011 0.232198,0.12428 0.800293,0.22595 1.262432,0.22595 0.816949,0 3.330198,-0.45924 4.070888,-0.74387 0.580753,-0.22317 0.428688,-0.51639 -0.267802,-0.51639 -0.349459,0 -1.175428,-0.18982 -1.835484,-0.4218 -1.141467,-0.4012 -1.266932,-0.40564 -2.567793,-0.0909 -1.614292,0.39064 -3.598392,0.33931 -3.742295,-0.0968 -0.069,-0.20914 0.02753,-0.2618 0.333315,-0.18184 0.469298,0.12272 4.03904,-0.19122 4.218851,-0.37103 0.06097,-0.0609 -0.04092,-0.36787 -0.226422,-0.682 -0.450623,-0.76314 -0.707886,-2.14649 -0.399182,-2.14649 0.128381,0 0.23342,0.19808 0.23342,0.44018 0,0.58513 0.772096,1.64477 1.361817,1.86898 0.300865,0.1144 0.806466,0.0742 1.393108,-0.11082 1.220595,-0.38483 3.789393,-0.93694 5.058931,-1.08729 0.83905,-0.0994 1.083558,-0.229 1.380637,-0.73192 0.273232,-0.46254 0.463341,-0.57846 0.781852,-0.47674 1.085985,0.34683 1.234444,0.25461 1.462879,-0.90877 0.120022,-0.61125 0.360001,-1.20054 0.533288,-1.30956 0.227353,-0.14302 0.07,-0.19911 -0.565224,-0.20141 -0.484161,-0.002 -0.938709,-0.0977 -1.010108,-0.21326 -0.0714,-0.11553 -0.263653,-0.21006 -0.427233,-0.21006 -0.218442,0 -0.263954,0.16733 -0.171392,0.63013 0.06932,0.34658 0.06645,0.63014 -0.0064,0.63014 -0.322957,0 -3.925633,-2.58236 -4.416451,-3.16567 -0.40569,-0.48213 -0.540488,-0.87109 -0.528138,-1.52393 l 0.01657,-0.87657 0.21925,0.63014 c 0.270119,0.77634 1.320084,1.92089 2.163094,2.35795 0.346572,0.17968 0.897314,0.5497 1.223869,0.82226 1.113972,0.92977 1.004034,0.49847 -0.15477,-0.60717 -1.243883,-1.18683 -1.711425,-2.06356 -1.407481,-2.63931 0.10273,-0.1946 0.117221,-0.80617 0.03219,-1.35901 -0.166242,-1.08093 0.0667,-1.57395 0.293514,-0.6212 0.903544,3.7955 2.947733,5.74964 5.630006,5.38199 1.327337,-0.18192 1.481363,-0.30893 1.217239,-1.00362 -0.120001,-0.31563 -0.207152,-1.20572 -0.19367,-1.978 l 0.02452,-1.40412 0.280969,1.41056 c 0.355108,1.78276 0.742567,2.36938 1.83999,2.78576 0.942256,0.35751 3.01389,0.73693 3.170198,0.58062 0.05245,-0.0524 -0.29542,-0.39344 -0.773055,-0.75774 -0.477634,-0.3643 -1.081735,-1.08684 -1.342448,-1.60563 -0.57221,-1.13865 -0.855745,-2.51859 -0.517486,-2.51859 0.128381,0 0.233421,0.20152 0.233421,0.44781 0,0.55173 0.723166,1.77569 1.498885,2.53686 1.104221,1.08353 4.191997,2.33526 4.165958,1.68882 -0.0035,-0.0866 -0.714756,-0.48836 -1.58059,-0.89269 -1.655623,-0.77317 -2.481273,-1.47119 -2.670811,-2.25798 -0.146804,-0.6094 0.105565,-0.6121 0.374635,-0.004 0.252017,0.56955 1.766275,1.46236 2.202759,1.29874 0.557189,-0.20885 0.715856,-0.19725 0.725609,0.053 0.01285,0.33008 0.120998,0.40734 0.797211,0.56957 0.746917,0.17919 0.771111,-0.24456 0.05251,-0.91965 -0.531724,-0.49953 -0.686628,-1.13565 -0.330189,-1.35595 0.107212,-0.0662 0.254882,0.0685 0.328164,0.29935 0.07328,0.2309 0.560085,0.76957 1.081785,1.19706 0.899502,0.73708 1.025182,0.77669 2.43106,0.76621 1.14764,-0.009 1.52606,-0.0889 1.67528,-0.35551 0.256482,-0.45831 0.08943,-0.68271 -0.613271,-0.8238 -0.814817,-0.16362 -2.05799,-1.17295 -2.454074,-1.99246 -0.369218,-0.76392 -0.45256,-2.35587 -0.123336,-2.35587 0.115524,0 0.210044,0.23014 0.210044,0.51144 0,0.6762 0.355972,1.58901 0.619682,1.58901 0.1213,0 0.156765,-0.26615 0.08396,-0.63014 -0.16322,-0.81609 0.03633,-0.80303 0.467411,0.0306 0.244165,0.47215 0.389508,0.58331 0.509294,0.38949 0.120092,-0.19432 0.262074,-0.0885 0.500731,0.37295 0.378862,0.73264 1.378225,1.51745 1.932287,1.51745 0.205014,0 0.671231,0.10791 1.03604,0.23985 0.686029,0.24806 2.202132,0.0924 2.202132,-0.22599 0,-0.0975 -0.323399,-0.23782 -0.718662,-0.31198 -1.620111,-0.30393 -2.852087,-0.77453 -2.852087,-1.08945 0,-0.22305 0.125393,-0.28129 0.410692,-0.19075 1.032767,0.32779 2.64756,0.47558 2.904068,0.26579 0.194689,-0.15924 0.339915,-0.12439 0.525109,0.12601 0.318352,0.43046 3.474656,0.88746 3.810403,0.55172 0.118257,-0.11826 0.185786,-0.55429 0.15006,-0.96894 -0.0968,-1.12358 0.281108,-0.69075 0.585851,0.67097 0.192458,0.85999 0.202253,1.2502 0.03557,1.41688 -0.12652,0.12652 -0.230036,0.54983 -0.230036,0.94069 0,0.964 -0.504269,0.78271 -0.589018,-0.21177 -0.04817,-0.56528 -0.177456,-0.78035 -0.525111,-0.87358 -0.676843,-0.18149 -1.616444,-0.15591 -1.616444,0.044 0,0.31557 1.015009,1.13339 1.236662,0.9964 0.119647,-0.074 0.405132,0.23327 0.634414,0.68269 0.343738,0.67379 0.588034,0.86507 1.392463,1.09029 1.003082,0.28085 1.41962,0.74996 0.932971,1.05072 -0.151595,0.0937 -0.502341,0.0841 -0.779435,-0.0212 -0.277093,-0.10533 -0.690682,-0.19155 -0.919086,-0.19155 -0.228402,0 -0.564737,-0.11815 -0.747407,-0.26255 -0.626644,-0.49537 -1.645777,-1.5638 -2.022942,-2.12077 -0.207562,-0.30651 -0.473862,-0.55729 -0.591776,-0.55729 -0.322503,0 -0.0044,0.8334 0.673429,1.7645 0.598464,0.82205 0.624834,1.17611 0.08759,1.17611 -0.395147,0 -1.056206,-0.9763 -1.368849,-2.02162 -0.206057,-0.68897 -0.339962,-0.84526 -0.653846,-0.76318 -0.217095,0.0567 -0.394719,0.18672 -0.394719,0.28877 0,0.10208 -0.191066,0.18555 -0.424591,0.18555 -0.47609,0 -0.960015,0.84332 -0.769228,1.3405 0.06692,0.17438 0.611361,0.46249 1.20987,0.64023 0.598509,0.17774 1.197038,0.41349 1.330067,0.52389 0.133027,0.11037 0.710718,0.27934 1.283758,0.3754 0.731721,0.12269 1.0627,0.28276 1.111803,0.53772 0.04841,0.25136 -0.06635,0.36305 -0.372963,0.36305 -0.512669,0 -1.478319,0.58017 -1.478319,0.88819 0,0.43517 2.935339,-0.27368 3.674868,-0.88744 0.19963,-0.16568 0.65958,-0.27824 1.02211,-0.25013 0.38495,0.0298 0.961258,-0.13584 1.385404,-0.39831 0.656241,-0.40608 0.691679,-0.47469 0.367578,-0.71168 -0.733169,-0.5361 -0.326815,-0.96362 0.496905,-0.52278 0.998274,0.53427 4.066891,0.37152 6.471564,-0.34321 0.358226,-0.10645 0.475509,-0.0732 0.412126,0.11697 -0.146071,0.4382 -3.186427,1.26822 -4.645528,1.26822 -1.062717,0 -2.109897,0.27763 -2.832157,0.75088 -0.417168,0.27334 -0.46653,0.3843 -0.236784,0.53227 0.375147,0.24162 7.285567,0.21365 7.436211,-0.03 0.06286,-0.10174 -0.172348,-0.33318 -0.522697,-0.51436 -0.766392,-0.39632 -0.899291,-1.08124 -0.164402,-0.84728 1.749275,0.5569 2.423052,0.58727 5.450248,0.24555 3.557863,-0.40161 3.706499,-0.44376 3.965314,-1.1245 0.364183,-0.95786 0.277129,-1.03581 -1.118823,-1.00186 -1.067875,0.026 -1.509257,0.15342 -2.366032,0.68316 -1.777949,1.09933 -3.672733,1.40563 -3.672733,0.5937 0,-0.2248 0.236058,-0.29671 0.892687,-0.27195 0.901095,0.034 1.737618,-0.30697 3.531393,-1.43934 1.04088,-0.65707 0.967789,-0.8375 -0.210706,-0.52017 -0.478547,0.12887 -1.369939,0.21408 -1.980862,0.18936 -0.610924,-0.0247 -1.229275,0.0282 -1.374112,0.11781 -0.144838,0.0895 -1.129758,0.29212 -2.188712,0.45023 -1.058954,0.15812 -2.58701,0.43578 -3.39568,0.61706 -1.837868,0.41198 -3.250964,0.25282 -4.100295,-0.46186 -0.339403,-0.28559 -0.70284,-0.46625 -0.80764,-0.40148 -0.297178,0.18366 -0.597321,-0.32133 -0.753222,-1.26733 -0.125033,-0.75867 -0.08965,-0.87841 0.288787,-0.97738 0.237203,-0.0621 0.516286,-0.33637 0.620189,-0.60966 0.103896,-0.27328 0.622785,-0.8968 1.153077,-1.38561 1.503552,-1.38592 1.532739,-1.17947 0.09231,0.65295 -1.053882,1.34067 -1.062666,1.96058 -0.03052,2.15421 0.439627,0.0825 0.919644,0.0499 1.121526,-0.0762 0.214233,-0.13379 0.469374,-0.14671 0.649212,-0.0328 0.3604,0.22814 1.452772,0.25564 1.448299,0.0364 -0.0017,-0.0866 -0.0812,-0.28048 -0.176514,-0.43075 -0.206782,-0.32599 0.248623,-2.21066 0.701014,-2.90109 0.175391,-0.26769 0.318892,-0.61943 0.318892,-0.78166 0,-0.3484 -1.46841,-0.64591 -1.758116,-0.35619 -0.11703,0.11702 -0.02513,0.14895 0.233844,0.0812 0.234653,-0.0614 0.490146,-0.009 0.567764,0.11677 0.08079,0.13072 -0.02132,0.23613 -0.238849,0.24658 -1.931387,0.0927 -5.768335,0.40856 -6.311141,0.51964 -0.979295,0.20042 -1.393376,3.8e-4 -1.106977,-0.53476 0.160146,-0.29924 0.439677,-0.4232 0.954255,-0.4232 0.571915,0 0.727765,-0.0845 0.727765,-0.39437 0,-0.50395 0.530444,-0.9491 0.942524,-0.79097 0.174758,0.0671 0.31774,0.31394 0.31774,0.54862 0,0.3615 0.136374,0.42711 0.892688,0.42954 0.490978,0.002 1.105356,0.0598 1.365286,0.12952 0.36717,0.0984 0.4726,0.0388 0.4726,-0.26741 0,-0.21673 -0.176115,-0.50403 -0.391365,-0.63846 -0.215251,-0.13443 -0.442701,-0.44073 -0.505446,-0.68067 -0.152518,-0.58322 0.483391,-0.58902 1.008134,-0.009 0.384982,0.4254 0.390589,0.4231 1.450351,-0.59342 1.151828,-1.10483 1.897195,-1.62117 2.798036,-1.9383 0.473887,-0.16683 0.408321,-0.0634 -0.368873,0.58182 -0.519859,0.4316 -1.315334,1.1444 -1.767724,1.58402 -0.711801,0.69171 -0.782243,0.83958 -0.523284,1.09854 0.164583,0.16459 0.746921,0.32543 1.294086,0.35743 1.015943,0.0594 1.247687,0.32375 0.689786,0.78676 -0.3832,0.31803 -1.163173,2.36698 -1.163173,3.0556 0,0.47517 0.03977,0.4946 0.542932,0.26535 0.481306,-0.2193 0.534779,-0.34992 0.471088,-1.15075 -0.03952,-0.49684 -0.01463,-0.90336 0.0553,-0.90336 0.06993,0 0.305179,-0.4017 0.522774,-0.89269 0.465443,-1.05021 2.312747,-3.09814 2.794629,-3.09814 0.21426,0 0.0022,0.32166 -0.588471,0.89269 -0.975326,0.94285 -1.555718,2.03977 -1.793883,3.39034 l -0.144128,0.81732 0.776705,-0.45828 c 0.868611,-0.51248 1.316384,-0.38245 0.543058,0.15772 -1.675657,1.17043 -1.890442,2.01868 -0.248734,0.98232 0.911929,-0.57567 2.594164,-1.02377 1.828085,-0.48694 -0.912164,0.6392 -2.612873,1.69513 -3.341555,2.07471 -0.433217,0.22566 -0.787665,0.55014 -0.787665,0.72108 0,0.35115 0.536109,0.42282 0.736565,0.0985 0.07217,-0.11678 0.388294,-0.19274 0.702486,-0.16881 0.314194,0.024 1.074107,-0.20705 1.688697,-0.51331 1.076214,-0.5363 1.121396,-0.5417 1.224803,-0.14626 0.126808,0.48491 0.43782,0.52068 1.014566,0.11672 0.622096,-0.43574 1.919653,-0.53123 1.667168,-0.12269 -0.147362,0.23843 2.196908,0.0468 2.473967,-0.20216 0.08871,-0.0798 0.264161,-0.72899 0.389897,-1.44279 0.145558,-0.82634 0.449885,-1.60328 0.837735,-2.13868 0.769371,-1.0621 1.226828,-1.11329 0.509043,-0.057 -0.596853,0.87836 -0.652969,1.10769 -0.270127,1.10389 0.331883,-0.003 1.079366,-1.10297 2.180173,-3.20744 0.499737,-0.95537 0.677714,-0.46035 0.264542,0.73578 -0.3778,1.09372 -0.516301,2.49478 -0.270878,2.74019 0.06925,0.0693 0.400068,-0.15455 0.735154,-0.49733 0.335085,-0.34279 0.609248,-0.50702 0.609248,-0.36496 0,0.14207 -0.253038,0.52243 -0.562307,0.84524 -0.309269,0.3228 -0.509014,0.64021 -0.443871,0.70536 0.06515,0.0651 0.900507,-0.0762 1.856357,-0.31411 1.676493,-0.41725 2.309178,-0.41579 1.66427,0.003 -0.169945,0.11059 -0.710694,0.3057 -1.201673,0.43359 -0.49098,0.12791 -0.892691,0.31586 -0.892691,0.41766 0,0.24185 1.328774,0.23207 3.675777,-0.027 2.002714,-0.22111 3.478348,-0.66216 3.894986,-1.16418 0.138769,-0.16722 0.406146,-0.30038 0.594167,-0.29595 0.336443,0.008 -1.571131,1.86882 -1.925126,1.87801 -0.0916,0.002 -0.658721,0.35922 -1.260266,0.79298 -0.601545,0.43375 -1.277135,0.88948 -1.501303,1.01272 -1.02597,0.56398 -0.536474,0.67155 2.655891,0.58359 2.972889,-0.0819 3.150092,-0.0662 2.372659,0.21057 -0.462095,0.16449 -1.536996,0.35216 -2.388674,0.41704 -1.241679,0.0946 -1.608369,0.20342 -1.850637,0.5493 -0.166176,0.23724 -0.579956,0.57503 -0.919512,0.75062 -0.523066,0.27049 -0.617383,0.27374 -0.617383,0.0213 0,-0.1639 0.156287,-0.35796 0.347303,-0.43127 0.313116,-0.12015 0.307941,-0.16307 -0.05252,-0.43587 -0.545226,-0.41267 -1.440327,-0.37956 -2.815328,0.1041 -0.635382,0.2235 -1.486059,0.41027 -1.890396,0.41504 -0.404331,0.004 -2.011168,0.53787 -3.570748,1.18465 -3.357601,1.39243 -3.780792,1.51187 -3.780792,1.06703 0,-0.18768 0.262834,-0.38059 0.627724,-0.46073 0.79939,-0.17559 1.030519,-0.52565 0.347046,-0.52565 -0.721638,0 -1.184814,0.20528 -1.184814,0.52511 0,0.30246 -0.456163,0.52512 -1.075768,0.52512 -0.616765,0 -2.114445,0.82614 -2.019538,1.114 0.291234,0.88338 2.379475,1.01011 3.851687,0.23377 0.565947,-0.29844 0.910845,-0.42132 0.766436,-0.27306 -0.478058,0.49083 -0.322843,0.82821 0.27623,0.60044 0.296332,-0.11267 0.799636,-0.20484 1.118455,-0.20484 0.318819,0 1.25786,-0.23067 2.086765,-0.5126 1.166289,-0.39668 1.507096,-0.44755 1.507096,-0.22494 0,0.16863 -0.477958,0.42416 -1.155238,0.61761 -0.635387,0.18149 -1.697565,0.48498 -2.360394,0.67444 -0.996075,0.28473 -1.128129,0.37298 -0.761184,0.50872 0.813532,0.30094 3.347854,-0.1679 4.693662,-0.86832 1.368861,-0.71241 1.519998,-0.92443 0.790912,-1.10954 -0.589953,-0.14978 -1.020963,-0.80833 -0.782053,-1.1949 0.14957,-0.24201 0.260578,-0.2419 0.713892,5.9e-4 0.484983,0.25955 0.575085,0.24311 0.933653,-0.17032 0.2297,-0.26484 0.531669,-0.40587 0.716875,-0.3348 0.176,0.0676 0.724959,-0.0728 1.219898,-0.31199 0.494944,-0.23913 0.976665,-0.43478 1.070488,-0.43478 0.278963,0 0.181276,0.70336 -0.160448,1.15524 -0.292842,0.38725 -0.281077,0.42879 0.150481,0.53134 0.562368,0.13363 4.203861,-0.64759 4.617069,-0.99051 0.160508,-0.13322 0.574865,-0.2997 0.920787,-0.36997 0.540814,-0.10981 0.503071,-0.0619 -0.269288,0.34226 -0.532311,0.27854 -0.856215,0.57953 -0.795079,0.73886 0.0593,0.15454 -0.09459,0.3137 -0.362016,0.37437 -1.412636,0.32041 -3.786534,0.72765 -4.981132,0.85451 -0.750909,0.0798 -1.601587,0.30705 -1.890398,0.50513 -2.158058,1.48005 -6.549233,3.0089 -8.401762,2.92521 -0.650955,-0.0295 -1.168589,0.0947 -1.662796,0.39862 -0.592848,0.3646 -2.401899,1.09447 -3.535795,1.42654 -0.711339,0.20832 -0.05405,0.47019 1.995418,0.79499 2.871521,0.45507 4.149008,0.31626 4.569313,-0.49651 0.241846,-0.4677 0.486574,-0.59723 1.342819,-0.71082 0.755771,-0.10029 1.081266,-0.24663 1.169969,-0.52611 0.09827,-0.30964 0.480029,-0.4333 1.905579,-0.61732 1.168866,-0.15089 2.089088,-0.4059 2.672568,-0.74064 0.489437,-0.28078 1.126183,-0.57845 1.414993,-0.66148 0.288812,-0.083 0.730782,-0.33906 0.982162,-0.56893 0.435308,-0.39807 1.048797,-0.35121 0.794245,0.0606 -0.173838,0.28127 -0.07054,0.25402 1.249086,-0.32958 1.242046,-0.5493 1.595476,-0.63064 1.595476,-0.36722 0,0.19507 -1.687222,1.10376 -2.047927,1.10295 -0.144403,-3.2e-4 -0.262554,0.0939 -0.262554,0.20946 0,0.11553 -0.183461,0.21005 -0.407695,0.21005 -0.224228,0 -0.466103,0.0946 -0.537504,0.21004 -0.0714,0.11553 -0.277826,0.21004 -0.458732,0.21004 -0.180901,0 -0.860592,0.22759 -1.510418,0.50576 -0.649832,0.27816 -2.032191,0.75839 -3.071909,1.06717 -1.893839,0.56244 -3.744379,1.3691 -3.561157,1.55232 0.05371,0.0537 0.451594,0.11208 0.884206,0.12972 0.432607,0.0176 0.928337,0.0723 1.101622,0.12142 0.2141,0.0607 0.29327,-0.0372 0.247044,-0.30568 -0.05644,-0.32763 0.03055,-0.37619 0.509645,-0.28461 0.347659,0.0665 0.694344,-0.007 0.870689,-0.18259 0.202597,-0.20259 0.823178,-0.29351 2.010889,-0.2946 2.066171,-0.002 3.972898,-0.28269 5.813717,-0.85612 2.359369,-0.73497 3.150662,-1.08062 3.150662,-1.3763 0,-0.15811 0.211815,-0.28503 0.472599,-0.28317 0.442437,0.003 0.429766,0.04 -0.198518,0.57762 -0.369106,0.31585 -0.982155,0.78694 -1.362324,1.04687 -0.674934,0.46146 -0.678781,0.47259 -0.163289,0.47259 0.290359,0 0.714368,-0.12607 0.94224,-0.28017 0.69092,-0.4672 1.149468,-0.57373 1.149468,-0.26703 0,0.33857 -2.090136,1.28755 -3.255686,1.47818 -1.160417,0.18979 -3.03771,1.0087 -3.042049,1.32699 -0.0024,0.18646 0.46827,0.26707 1.624252,0.27813 2.046618,0.0196 3.461295,0.2309 3.56112,0.53194 0.05209,0.15719 -0.253765,0.20065 -0.944859,0.13425 -0.81558,-0.0784 -1.315436,0.029 -2.475484,0.53206 -0.799451,0.34663 -2.000386,0.78607 -2.668741,0.97652 -1.911848,0.54475 -1.341818,0.82627 1.402419,0.69259 2.32455,-0.11323 3.505117,-0.3751 4.135212,-0.91725 0.572459,-0.49257 0.881543,-0.33793 0.465865,0.23307 -0.363505,0.49932 -1.135132,0.82479 -3.268119,1.37845 -0.998908,0.25929 -2.259521,0.21472 -5.300981,-0.18744 -1.887492,-0.24958 -2.265494,-0.40693 -2.139048,-0.89047 0.138264,-0.52871 -0.252373,-0.7933 -1.086016,-0.73558 -0.4243,0.0293 -0.895441,-0.10242 -1.187735,-0.3324 -0.26646,-0.2096 -0.670422,-0.38109 -0.897686,-0.38109 -0.742952,0 -1.725989,-0.25837 -1.725989,-0.45364 0,-0.1106 0.798558,-0.13453 1.894976,-0.0569 1.360597,0.0964 1.982535,0.0616 2.205465,-0.12342 0.216541,-0.17971 0.389921,-0.19196 0.573036,-0.0405 0.320077,0.2648 1.468116,0.23165 1.666497,-0.0481 0.311603,-0.43945 -0.160955,-0.53775 -2.58539,-0.53775 -1.387068,0 -2.681136,-0.0835 -2.875707,-0.1855 -0.428212,-0.22453 -3.019962,0.15986 -2.856889,0.42371 0.06182,0.10006 0.437648,0.18188 0.835165,0.18188 0.502423,0 0.722757,0.096 0.722757,0.31507 0,0.3606 -0.442419,0.41876 -0.761122,0.10006 -0.146647,-0.14664 -0.33731,-0.0799 -0.599674,0.21005 -0.211565,0.23378 -0.601619,0.42505 -0.866785,0.42505 -0.265162,0 -0.565407,0.14882 -0.667202,0.33073 -0.158601,0.2834 -0.362977,0.2991 -1.428235,0.10981 -0.683733,-0.12152 -1.43219,-0.20902 -1.663238,-0.19444 -0.231048,0.0146 -0.987207,-0.0345 -1.680353,-0.10914 -1.245693,-0.13412 -1.240834,-0.13104 0.420089,0.26638 3.400202,0.81358 4.447134,0.99161 6.091277,1.03579 1.049964,0.0282 1.759151,0.14436 1.890395,0.30957 0.287186,0.36152 1.650886,0.98196 2.158292,0.98196 0.227943,0 0.780778,0.12739 1.22852,0.28308 1.078038,0.37487 2.763706,0.59106 2.89919,0.37185 0.09911,-0.16037 -1.234516,-0.50597 -4.335482,-1.12352 -1.724553,-0.34343 -1.774667,-0.77902 -0.08007,-0.69592 0.726138,0.0356 1.500291,0.15731 1.720321,0.27045 0.220036,0.11314 1.328618,0.42015 2.463511,0.68224 1.660113,0.38339 2.469412,0.45699 4.140385,0.37653 1.142318,-0.055 2.209776,-0.21025 2.372123,-0.345 0.228373,-0.18952 0.353229,-0.17504 0.551634,0.064 0.213319,0.25704 0.156184,0.33181 -0.339713,0.44461 -0.327886,0.0746 -1.116012,0.2587 -1.7514,0.40915 -2.852719,0.67548 -5.809764,0.7083 -8.401763,0.0932 -1.097477,-0.26041 -2.278972,-0.49546 -2.625549,-0.52233 -1.027292,-0.0797 -1.064165,-0.0955 -0.735152,-0.31561 0.272705,-0.18248 0.260249,-0.25264 -0.09266,-0.52189 -0.224245,-0.1711 -0.744106,-0.31444 -1.155242,-0.31853 -0.798389,-0.008 -3.228047,-0.37728 -6.051133,-0.9198 -3.13902,-0.60324 -5.195358,-0.96283 -5.408635,-0.9458 -0.433131,0.0346 1.074092,0.59423 1.624828,0.60332 0.562664,0.009 1.409653,0.18113 3.731296,0.75712 0.635384,0.15762 1.624302,0.34625 2.197601,0.41916 1.034768,0.13161 2.727932,0.69908 2.566758,0.86026 -0.09204,0.092 -4.210407,-0.58281 -6.549733,-1.07326 -0.808669,-0.16952 -1.632752,-0.31172 -1.831294,-0.31596 -0.449075,-0.0101 -0.298651,0.45197 0.238511,0.73187 0.217021,0.11308 1.063407,0.65106 1.880856,1.19551 0.81745,0.54446 2.552101,1.63143 3.854781,2.41551 1.302683,0.78408 2.525216,1.52012 2.716742,1.63565 0.191526,0.11552 1.136724,0.69644 2.100439,1.29092 3.992059,2.46259 9.724022,5.32547 10.662468,5.32547 0.09772,0 0.225258,-0.18201 0.283428,-0.40446 0.07802,-0.29835 -0.05329,-0.47033 -0.500612,-0.65561 -0.333507,-0.13813 -0.606374,-0.38148 -0.606374,-0.54075 0,-0.39479 0.282345,-0.36422 1.205407,0.13051 0.974372,0.52223 1.050494,0.52133 2.295417,-0.0271 0.558313,-0.24599 1.608576,-0.65979 2.333911,-0.91955 l 1.318788,-0.47231 -0.137127,0.44695 c -0.07542,0.24582 -0.149016,0.45201 -0.16355,0.45819 -1.347433,0.57303 -1.811792,0.82642 -1.811792,0.98864 0,0.11115 0.242441,0.14006 0.542713,0.0647 0.339986,-0.0854 0.494153,-0.0576 0.412721,0.0741 -0.0715,0.11568 -0.448058,0.27 -0.836807,0.34293 -0.388742,0.0729 -0.904663,0.36016 -1.146484,0.63827 -0.28612,0.32907 -0.665046,0.50566 -1.084999,0.50566 -0.354931,0 -0.834198,0.10107 -1.065035,0.22462 -0.262529,0.1405 -0.513009,0.15137 -0.668837,0.029 -0.137025,-0.10757 -0.719024,-0.25697 -1.293341,-0.33199 -0.725216,-0.0947 -1.174368,-0.28832 -1.470306,-0.63373 -0.450022,-0.52526 -2.49964,-1.28463 -2.862328,-1.06048 -0.11746,0.0726 -0.581296,-0.11138 -1.03074,-0.40878 -0.449438,-0.29742 -1.223774,-0.6024 -1.720737,-0.67772 -1.153148,-0.17476 -2.591874,-0.84655 -4.579342,-2.13825 -0.866433,-0.56311 -2.04793,-1.28531 -2.625552,-1.60489 -0.577621,-0.31958 -1.191999,-0.70375 -1.365286,-0.85369 -0.904775,-0.78292 -3.990838,-2.74665 -3.990838,-2.53945 0,0.0558 1.157245,1.07526 2.571654,2.26536 1.41441,1.1901 2.904914,2.49464 3.31223,2.89897 1.788127,1.77504 3.302761,2.94062 3.82123,2.94062 0.294586,0 0.654065,0.14274 0.798849,0.31719 0.472211,0.56897 2.461022,1.00701 3.901928,0.85938 1.176332,-0.12051 1.305808,-0.0961 1.256955,0.23674 -0.05948,0.40531 -1.526232,0.86538 -3.34115,1.048 -1.185918,0.11934 -2.543134,-0.3251 -3.390233,-1.11016 -0.456279,-0.42287 -0.535425,-0.63688 -0.423686,-1.14562 0.105777,-0.48159 0.06335,-0.62561 -0.184246,-0.62561 -0.17691,0 -1.471055,-1.0161 -2.875874,-2.25798 -1.404821,-1.24188 -2.809413,-2.44702 -3.121313,-2.67806 -0.311903,-0.23105 -0.996289,-0.77454 -1.520863,-1.20775 -0.524571,-0.43321 -1.022674,-0.78767 -1.106892,-0.78767 -0.52366,0 5.978717,6.75248 7.98945,8.29674 2.230806,1.71329 3.531643,2.6021 3.826027,2.61419 0.173112,0.007 0.230087,0.15827 0.152172,0.40375 -0.09394,0.296 0.03155,0.45704 0.510955,0.65561 0.665867,0.27582 0.852107,0.63236 0.33031,0.63236 -0.721941,0 -3.826682,-1.83062 -4.63085,-2.73043 -0.231048,-0.25853 -1.229989,-1.00808 -2.219865,-1.66566 -0.989879,-0.65758 -2.133038,-1.44978 -2.540356,-1.76046 -0.612391,-0.46709 -0.955286,-0.56431 -1.981015,-0.56165 -1.371913,0.003 -1.840137,0.18815 -1.661054,0.65482 0.172247,0.44886 1.234251,1.02232 1.893294,1.02232 0.401454,0 0.5345,0.0865 0.454357,0.29532 -0.121322,0.31617 0.465367,0.96495 0.872587,0.96495 0.135308,0 0.246016,0.0946 0.246016,0.21004 0,0.11553 0.136201,0.21004 0.302669,0.21004 0.166469,0 0.36343,0.0983 0.437688,0.21846 0.166309,0.26909 -0.623526,0.10522 -2.166033,-0.4493 -1.437263,-0.51673 -1.519053,-0.50447 -0.839319,0.12581 0.311471,0.28882 0.608196,0.52512 0.659391,0.52512 0.101991,0 2.276353,1.44114 2.445781,1.62103 0.05776,0.0613 -0.131277,0.0396 -0.420089,-0.0484 -0.28881,-0.088 -0.66689,-0.20194 -0.840176,-0.25328 -0.213647,-0.0633 -0.189684,0.009 0.07445,0.22555 0.214235,0.1754 0.347379,0.44305 0.295876,0.59478 -0.0515,0.15172 0.229535,0.49693 0.624526,0.76713 0.394993,0.2702 0.678656,0.53079 0.63036,0.57908 -0.152961,0.15296 -1.41517,-0.16942 -1.41517,-0.36145 0,-0.10107 -0.11815,-0.18598 -0.262554,-0.18865 -0.144406,-0.002 -0.963709,-0.61692 -1.820673,-1.36499 -0.856966,-0.74808 -1.602675,-1.31558 -1.657132,-1.26112 -0.151213,0.15121 0.971392,1.54591 1.548881,1.92429 0.51121,0.33496 0.679721,0.70668 0.320359,0.70668 -0.104926,0 -0.634558,-0.43132 -1.176969,-0.95847 -0.542411,-0.52717 -1.009455,-0.92888 -1.037873,-0.89269 -0.02842,0.0362 0.02931,0.36524 0.1283,0.73124 0.22979,0.84966 2.668517,3.11192 3.7148,3.44598 1.007561,0.32172 1.223479,0.54168 0.696038,0.70908 -0.399057,0.12666 -0.84304,-0.0589 -2.738715,-1.14474 -0.865981,-0.49602 -2.034223,-1.79788 -2.297174,-2.55989 -0.222917,-0.646 -0.232164,-0.61539 -0.129201,0.42763 0.103526,1.04864 0.63024,2.73425 0.928832,2.97243 0.07241,0.0577 0.290428,0.33707 0.48448,0.62067 0.341355,0.4989 0.33597,0.52278 -0.165706,0.73516 -0.394398,0.16696 -0.469972,0.29493 -0.3157,0.53457 0.168291,0.26142 0.204641,0.24353 0.213484,-0.10499 0.0095,-0.37345 0.04285,-0.36195 0.30051,0.10364 0.159417,0.28804 0.215229,0.5716 0.124022,0.63013 -0.09121,0.0585 -0.08626,0.31912 0.01098,0.57904 0.233371,0.6237 1.045427,0.62032 1.775194,-0.008 0.516414,-0.4442 0.651022,-0.46461 1.804966,-0.27378 0.870412,0.14396 1.513551,0.13506 2.129898,-0.0295 1.039378,-0.27743 1.18286,-0.20017 0.789649,0.4252 -0.160132,0.25468 -0.270876,0.8175 -0.246094,1.25071 l 0.04506,0.78767 h -0.861056 c -0.572644,0 -0.81326,-0.0774 -0.718316,-0.231 0.10031,-0.1623 0.02591,-0.17074 -0.250157,-0.0284 -0.216111,0.11138 -0.511076,0.16025 -0.655481,0.10846 -0.144406,-0.0518 -0.262555,0.007 -0.262555,0.12941 0,0.12295 0.25993,0.2811 0.57762,0.35143 1.106699,0.24504 1.93787,0.54222 2.057401,0.73562 0.155817,0.25212 -1.28396,0.25168 -2.163808,-5.9e-4 -0.374692,-0.10746 -0.681257,-0.11551 -0.681257,-0.0178 0,0.26476 1.993435,1.80155 3.325352,2.5636 0.64213,0.36739 1.055751,0.70522 0.919159,0.75076 -0.569944,0.18999 -2.550322,-1.01729 -4.168805,-2.54138 -0.940319,-0.8855 -1.769796,-1.60998 -1.843281,-1.60998 -0.216759,0 0.496306,1.28424 1.341196,2.41551 1.059184,1.41821 1.25947,2.12141 0.272447,0.95657 -0.830869,-0.98055 -0.93596,-1.13556 -1.661605,-2.45092 -0.247638,-0.44887 -0.649347,-0.9962 -0.892688,-1.21627 -0.243342,-0.22008 -0.442439,-0.56177 -0.442439,-0.75934 0,-0.19756 -0.165409,-0.5853 -0.367577,-0.86162 -0.743923,-1.01682 -3.82949,-7.09057 -3.839691,-7.55822 -0.0048,-0.22263 -0.05312,-0.21283 -0.201512,0.0409 -0.107313,0.18353 -0.240522,1.17599 -0.296007,2.20547 -0.05549,1.02949 -0.203198,2.3283 -0.328248,2.88627 -0.332829,1.48507 -1.107626,12.67694 -0.958988,13.85253 0.06982,0.55226 0.0298,1.54471 -0.08895,2.20546 -0.118745,0.66075 -0.258023,2.5719 -0.309507,4.247 -0.05149,1.67511 -0.198088,6.25931 -0.325789,10.18714 -0.127699,3.92782 -0.215503,11.34762 -0.195117,16.48846 0.02037,5.14082 -0.0341,11.04831 -0.121055,13.12775 -0.135597,3.24234 -0.106563,3.98548 0.203871,5.21799 0.271032,1.07606 0.323063,1.78854 0.207085,2.83559 -0.194278,1.75391 -0.140157,3.63835 0.139694,4.86413 0.118688,0.51986 0.251678,2.24465 0.295533,3.83288 0.04386,1.58822 0.185165,3.08468 0.31402,3.32544 0.160001,0.29897 0.192426,1.41458 0.10227,3.51866 -0.07261,1.69451 -0.113833,3.2227 -0.09161,3.39597 0.02222,0.17329 0.05299,2.1039 0.06837,4.29024 0.02061,2.92731 0.09574,3.99776 0.285034,4.06084 0.333468,0.11116 0.332562,0.62065 -0.0012,0.73193 -0.306596,0.10219 0.247469,1.45821 1.028235,2.51648 0.613653,0.83176 0.617683,1.05045 0.01779,0.96526 -0.645557,-0.0917 -1.837884,-2.43202 -1.837884,-3.60745 0,-0.64427 -0.05886,-0.79073 -0.243528,-0.60606 -0.263453,0.26345 0.235109,2.54062 0.804336,3.6738 0.253435,0.50451 0.2496,0.57762 -0.03031,0.57762 -0.176252,0 -0.32046,0.14177 -0.32046,0.31505 0,0.43736 -0.213834,0.39404 -0.945198,-0.1915 z m 0.945197,-0.19723 c 0,-0.42239 -0.527153,-1.39663 -0.755702,-1.39663 -0.401522,0 -0.37135,0.61718 0.0531,1.0862 0.307509,0.33978 0.7026,0.51435 0.702602,0.31043 z m -0.801669,-2.49236 c -0.150718,-0.15072 -0.248551,-0.16313 -0.248551,-0.0315 0,0.28036 0.2484,0.52877 0.388581,0.38858 0.05969,-0.0597 -0.0034,-0.22036 -0.14003,-0.35707 z m -0.735199,-5.87512 c -0.06705,-0.16755 -0.116823,-0.11777 -0.126901,0.12692 -0.0091,0.22141 0.04052,0.34547 0.110316,0.27568 0.0698,-0.0698 0.07726,-0.25097 0.01657,-0.4026 z m 1.027562,-9.15174 c -0.253422,-0.25341 -0.374189,0.16417 -0.210268,0.72708 l 0.171053,0.5874 0.08002,-0.59682 c 0.04401,-0.32826 0.02565,-0.6512 -0.0408,-0.71766 z m -1.27235,-3.759 c -0.08113,-0.86578 -0.196366,-1.52529 -0.256078,-1.46558 -0.05971,0.0597 -0.03725,0.89378 0.04994,1.8535 0.08718,0.95972 0.202413,1.61924 0.25608,1.46558 0.05366,-0.15363 0.0312,-0.98771 -0.04994,-1.8535 z m 0.810781,-10.7126 c -0.111369,-2.223 -0.289389,-2.21676 -0.289389,0.0101 0,1.00802 0.08331,1.78129 0.185127,1.71836 0.101823,-0.063 0.148736,-0.84077 0.104265,-1.72853 z m -0.565993,-17.33524 c -0.06705,-0.16757 -0.116823,-0.11779 -0.126901,0.1269 -0.0091,0.22141 0.04052,0.34547 0.110316,0.27568 0.0698,-0.0698 0.07726,-0.25096 0.01657,-0.40258 z m -0.493754,-2.95821 c -0.254752,-0.41218 -0.38236,0.26198 -0.295002,1.55855 l 0.08988,1.33402 0.163725,-1.34731 c 0.09005,-0.74103 0.10868,-1.43639 0.0414,-1.54526 z m 0.140226,-1.83343 c 0,-0.11552 -0.04168,-0.21004 -0.09262,-0.21004 -0.05094,0 -0.151044,0.0946 -0.222442,0.21004 -0.0714,0.11553 -0.02972,0.21005 0.09262,0.21005 0.122342,0 0.222441,-0.0946 0.222442,-0.21005 z m 0.105296,-7.53023 c -0.164394,-0.65501 -0.384356,-0.42023 -0.361439,0.38577 0.0099,0.34821 -0.04657,0.63348 -0.125484,0.63395 -0.141884,6e-4 -0.157786,1.32898 -0.04274,3.56989 0.04877,0.94997 0.112268,0.68936 0.357358,-1.46668 0.16393,-1.44206 0.241468,-2.84738 0.172305,-3.12293 z m 0.249535,-5.65004 c -0.05283,-0.20216 -0.09606,-0.0368 -0.09606,0.36758 0,0.40434 0.04323,0.56974 0.09606,0.36758 0.05283,-0.20217 0.05283,-0.53298 0,-0.73516 z m -0.0057,-13.75788 c -0.05827,-0.1444 -0.105945,-0.0262 -0.105945,0.26255 0,0.28882 0.04768,0.40697 0.105945,0.26256 0.05827,-0.1444 0.05827,-0.38071 0,-0.52511 z m 0.06133,-4.24417 c 0.111705,-1.03463 0.16081,-1.92346 0.109117,-1.97515 -0.0517,-0.0517 -0.228887,0.22886 -0.393761,0.62345 -0.252029,0.6032 -0.493148,4.34309 -0.330307,5.12328 0.06576,0.31507 0.385349,-1.64499 0.614951,-3.77158 z m -1.308474,-1.00317 c -0.04675,-0.37753 -0.08595,-0.11929 -0.08714,0.57386 -0.0012,0.69314 0.03707,1.00203 0.08499,0.68641 0.04792,-0.31563 0.04889,-0.88275 0.0021,-1.26027 z m 1.318094,-1.73663 c 0,-0.17329 -0.09155,-0.31506 -0.203452,-0.31506 -0.111896,0 -0.149046,0.14177 -0.08255,0.31506 0.06649,0.17329 0.15805,0.31507 0.203452,0.31507 0.0454,0 0.08255,-0.14178 0.08255,-0.31507 z m 0.12359,-1.73179 c -0.229452,-0.22946 -0.386791,0.13544 -0.222054,0.51498 0.156206,0.35989 0.167528,0.35955 0.254561,-0.008 0.0501,-0.2112 0.03547,-0.43963 -0.03251,-0.50761 z m 0.618067,-4.8109 c 0.285536,-1.60205 0.405234,-3.39104 0.214102,-3.1999 -0.05196,0.052 -0.128435,0.42562 -0.169959,0.83037 -0.04153,0.40476 -0.128583,0.82698 -0.193465,0.93826 -0.172866,0.2965 -0.442195,3.37732 -0.281201,3.21664 0.07514,-0.075 0.268875,-0.87842 0.430523,-1.78537 z m 12.644278,-1.46087 c -0.0698,-0.0698 -0.25096,-0.0772 -0.402586,-0.0166 -0.167558,0.067 -0.117787,0.11683 0.126903,0.12691 0.22142,0.009 0.345478,-0.0406 0.275683,-0.11037 z m -13.076849,-2.30511 c 0.153032,-1.429 0.01053,-2.14312 -0.179172,-0.89763 -0.270012,1.77313 -0.30137,2.27943 -0.141177,2.27943 0.09481,0 0.238961,-0.62181 0.320349,-1.3818 z m 1.369945,-5.51425 c 0.130857,-2.1446 0.272544,-3.95531 0.314862,-4.02377 0.04231,-0.0685 -0.05491,-0.40423 -0.216045,-0.74613 -0.161143,-0.34189 -0.404042,-0.90518 -0.53978,-1.25176 l -0.246795,-0.63013 -0.159632,0.5251 c -0.231628,0.76195 -0.229284,1.05023 0.0085,1.05023 0.115525,0 0.210045,-0.15754 0.210045,-0.35008 0,-0.19254 0.04434,-0.30572 0.09855,-0.25152 0.05421,0.0541 0.03867,0.46757 -0.03452,0.91861 -0.08543,0.52641 -0.177123,0.69514 -0.256081,0.47121 -0.06766,-0.19187 -0.143792,1.29188 -0.169199,3.29723 -0.03673,2.89926 0.01187,3.66837 0.237327,3.75488 0.216597,0.0831 0.242056,0.32336 0.107851,1.01776 -0.09661,0.49993 -0.171334,1.19251 -0.166033,1.53909 0.008,0.51669 0.06035,0.44546 0.291315,-0.39566 0.154927,-0.56417 0.38875,-2.78045 0.519608,-4.92506 z m -0.838853,2.15766 c 0,-0.18011 0.09606,-0.26808 0.213469,-0.19553 0.117409,0.0726 0.159092,0.21992 0.09262,0.32746 -0.180055,0.29134 -0.306094,0.23702 -0.306094,-0.13193 z m 5.671189,1.79778 c 0,-0.11553 -0.09452,-0.21006 -0.210044,-0.21006 -0.115524,0 -0.210044,0.0946 -0.210044,0.21006 0,0.11552 0.09452,0.21004 0.210044,0.21004 0.115524,0 0.210044,-0.0946 0.210044,-0.21004 z m -0.526574,-0.99772 c -0.08329,-0.20216 -0.41029,-1.1438 -0.726669,-2.09253 -0.547112,-1.64062 -1.684002,-3.53626 -1.840057,-3.06809 -0.06555,0.19663 0.517704,1.5972 1.886668,4.53049 0.256096,0.54874 0.547948,0.99771 0.64856,0.99771 0.100612,0 0.114785,-0.16541 0.0315,-0.36758 z m -18.481781,-0.89268 c 0.154736,0 0.950818,-0.61438 1.769066,-1.36529 0.818251,-0.7509 1.580587,-1.36529 1.694082,-1.36529 0.189076,0 0.919411,-1.46453 0.79237,-1.58892 -0.0304,-0.0298 -0.890045,0.73018 -1.910326,1.68877 -1.020282,0.95859 -2.178151,1.91689 -2.573039,2.12955 -0.717328,0.38632 -1.01395,0.86973 -0.385739,0.62867 0.182735,-0.0701 0.458849,-0.12749 0.613586,-0.12749 z m -17.215875,-2.18561 c 0.377635,-0.27613 0.366652,-0.28812 -0.169899,-0.18556 -0.315493,0.0603 -0.573626,0.19316 -0.573626,0.29521 0,0.26945 0.281941,0.22786 0.743525,-0.10969 z m 14.127595,0.0431 c 0.442227,-0.44223 0.273727,-0.61528 -0.533865,-0.5483 -0.549254,0.0455 -0.806894,0.17588 -0.855579,0.43277 -0.05324,0.28096 0.07258,0.36758 0.533867,0.36758 0.331937,0 0.716948,-0.11342 0.855577,-0.25205 z m 3.612758,-0.58812 c 0.723348,-0.39602 0.726098,-0.40263 0.171207,-0.41129 -0.717375,-0.0112 -1.641516,0.33568 -1.641516,0.61613 0,0.33172 0.657584,0.24011 1.470309,-0.20484 z m -2.510417,-0.89937 c 0.514807,-0.40509 1.472854,-2.2513 1.168258,-2.2513 -0.267109,0 -2.648678,2.14766 -2.648678,2.38854 0,0.2334 1.1442,0.12733 1.48042,-0.13724 z m 19.713092,-1.64803 c 0.02582,-0.93939 -0.472533,-2.18623 -0.946497,-2.36811 -0.526975,-0.20222 -0.556221,-0.0598 -0.21747,1.05904 0.17,0.56148 0.430764,1.49347 0.579478,2.0711 0.239986,0.93212 0.286873,0.99116 0.416971,0.5251 0.08062,-0.2888 0.156005,-0.86802 0.167518,-1.28713 z m -18.125199,1.1296 c 0.331187,-0.43628 0.37796,-0.76031 0.08348,-0.57832 -0.27336,0.16894 -0.687566,0.94589 -0.504276,0.94589 0.07798,0 0.267331,-0.1654 0.420797,-0.36757 z m 1.569835,0.15753 c 0.25558,0 0.248739,-0.78085 -0.0082,-0.93966 -0.110607,-0.0684 -0.356458,0.17613 -0.546338,0.54332 -0.322253,0.62318 -0.321705,0.65859 0.0082,0.53198 0.194408,-0.0746 0.440261,-0.13564 0.546338,-0.13564 z m -14.975447,-0.57467 c 0.60521,-0.38706 1.077617,-0.89281 1.088663,-1.16552 0.0095,-0.23408 -0.605986,0.13466 -1.46363,0.87691 -0.796568,0.68938 -0.549286,0.87971 0.374967,0.28861 z m 16.72093,0.15465 c 0.383436,0 1.598187,-1.25718 1.596981,-1.65277 -6.55e-4,-0.24026 -0.147488,-0.15963 -0.491151,0.26986 -0.322589,0.40316 -0.541071,0.53004 -0.639218,0.37124 -0.08817,-0.14268 0.527995,-0.96011 1.507819,-2.00033 2.629306,-2.79138 2.790492,-3.05415 3.081217,-5.02308 0.140657,-0.95258 0.221475,-1.77353 0.179601,-1.82432 -0.04187,-0.0508 -0.221103,0.11462 -0.398282,0.36758 -0.177181,0.25296 -0.458565,0.45992 -0.625301,0.45992 -0.608529,0 -0.305532,-0.53363 0.703087,-1.23825 0.65217,-0.45561 0.687733,-0.54583 0.630132,-1.59875 -0.04785,-0.87459 -0.118845,-1.06815 -0.328343,-0.89515 -0.147014,0.12138 -0.213254,0.39098 -0.147201,0.5991 0.07831,0.24675 -0.124329,0.6566 -0.582488,1.1781 -0.69769,0.79414 -1.41852,1.83717 -1.41852,2.05258 0,0.0618 0.18904,0.11242 0.420088,0.11242 0.683251,0 0.490309,0.34058 -0.735154,1.29766 -0.635383,0.49625 -1.155242,1.01008 -1.155242,1.14187 0,0.13178 -0.151626,0.36544 -0.336948,0.51925 -0.18532,0.1538 -0.41055,0.47256 -0.50051,0.70835 -0.08996,0.2358 -0.609992,1.02215 -1.155625,1.74743 -0.894458,1.18897 -0.978436,1.39563 -0.853576,2.10045 0.2345,1.32372 0.344219,1.55488 0.677352,1.42705 0.172297,-0.0661 0.429374,-0.12021 0.571282,-0.12021 z m 13.515636,-0.73516 c -0.243988,-0.79498 -0.575232,-0.98504 -0.575232,-0.33006 0,0.34067 0.496868,1.06522 0.730498,1.06522 0.03869,0 -0.03117,-0.33083 -0.155266,-0.73516 z m -10.657347,-0.57654 c 0,-0.11718 -0.139314,-0.0945 -0.315065,0.0514 -0.173287,0.14381 -0.315067,0.356 -0.315067,0.47153 0,0.11716 0.139313,0.0945 0.315067,-0.0514 0.173285,-0.14382 0.315065,-0.35601 0.315065,-0.47153 z m -20.29086,0.0165 c -0.06832,-0.11048 -0.367708,-0.29356 -0.665305,-0.4067 -0.413421,-0.15718 -0.617456,-0.12935 -0.864782,0.11797 -0.291566,0.29158 -0.256683,0.3237 0.351443,0.3237 0.371328,0 0.675142,0.0916 0.675142,0.20346 0,0.11194 0.141238,0.14925 0.313861,0.083 0.172622,-0.0662 0.257959,-0.21089 0.189641,-0.32144 z m 33.127178,-0.23546 c -0.171536,-0.17154 -0.233674,-0.14803 -0.233674,0.0884 0,0.41753 0.282446,0.69998 0.386832,0.38683 0.04428,-0.13285 -0.02464,-0.3467 -0.153158,-0.47523 z m -35.100988,-0.46479 c -0.05776,-0.11552 -0.483101,-0.21555 -0.945198,-0.22228 -0.462098,-0.007 -1.059969,-0.0863 -1.328604,-0.1767 -0.611066,-0.20579 -0.811094,-0.0279 -0.453382,0.40306 0.205406,0.2475 0.591122,0.31398 1.552749,0.26763 0.764532,-0.0369 1.23719,-0.14621 1.174435,-0.27171 z m 16.771187,-0.74156 c 0.06346,-0.43532 0.03013,-0.4633 -0.262555,-0.22038 -0.39636,0.32894 -0.450592,0.92992 -0.07268,0.80546 0.144405,-0.0476 0.295262,-0.31085 0.335238,-0.58508 z m 5.431168,0.0923 c 0.207559,-0.29932 0.590051,-0.74171 0.84998,-0.98309 0.25993,-0.24138 0.472599,-0.53641 0.472599,-0.65565 0,-0.11922 -0.472599,0.24871 -1.05022,0.81765 -0.57762,0.56894 -1.05022,1.10887 -1.05022,1.19986 0,0.34606 0.415521,0.14373 0.777861,-0.37877 z m -3.29839,-1.92312 c 0,-0.2155 -0.09716,-0.22603 -0.431953,-0.0468 -0.548839,0.29373 -0.699697,0.69083 -0.525747,1.38391 0.137652,0.54845 0.138341,0.54813 0.547763,-0.25493 0.225466,-0.44223 0.409937,-0.92919 0.409937,-1.0821 z m -12.812687,0.98288 c 0,-0.35228 -0.08919,-0.40749 -0.4726,-0.29251 -0.259928,0.078 -0.611003,0.27334 -0.780164,0.43423 -0.265692,0.25271 -0.201358,0.29253 0.472599,0.29253 0.648612,0 0.780165,-0.0732 0.780165,-0.43425 z m 9.565642,0.21022 c 0.07615,-0.12321 0.09526,-0.26721 0.04246,-0.32 -0.1465,-0.14651 -0.786249,0.14354 -0.786249,0.35645 0,0.26293 0.576216,0.2347 0.74379,-0.0364 z m 20.000372,-0.19374 c 0.237837,-0.38083 0.209815,-0.4146 -0.317051,-0.38199 -0.317873,0.0197 -0.708644,0.13513 -0.868383,0.25657 -0.270144,0.20538 -0.03534,0.35538 0.81753,0.52225 0.05885,0.0114 0.22441,-0.16706 0.367904,-0.39683 z m 5.721389,0.27422 c 0,-0.079 -0.603889,-0.71696 -1.341972,-1.41779 -0.738085,-0.70085 -1.796707,-1.84138 -2.352494,-2.53453 -0.555787,-0.69314 -1.271794,-1.54154 -1.591124,-1.88533 -0.319332,-0.34379 -0.749397,-0.95817 -0.955699,-1.36529 -0.389486,-0.7686 -1.213838,-1.68541 -1.515446,-1.68541 -0.09542,0 -0.29117,-0.14178 -0.434985,-0.31506 -0.143814,-0.1733 -0.320798,-0.315 -0.393294,-0.31491 -0.0725,9e-5 -0.152872,0.73261 -0.178611,1.62784 -0.03656,1.27173 0.04469,1.81141 0.371568,2.46785 0.935563,1.87886 1.966688,3.29593 2.563333,3.52282 0.202168,0.0769 0.367577,0.22637 0.367577,0.33221 0,0.29857 2.225165,0.51132 2.69848,0.25802 0.340786,-0.18239 0.586145,-0.0779 1.4295,0.60898 0.996952,0.81193 1.333167,0.98862 1.333167,0.7006 z m -33.607051,-0.61356 c 0.288811,-0.17718 0.351971,-0.26834 0.140354,-0.2026 -0.211615,0.0658 -0.566065,0.11953 -0.787665,0.11953 -0.221599,0 -0.402909,0.0946 -0.402909,0.21004 0,0.30018 0.440775,0.2469 1.05022,-0.12697 z m 17.181738,-1.23832 c 0,-0.33264 -0.035,-0.31077 -0.168169,0.105 -0.09249,0.2888 -0.168169,0.71414 -0.168169,0.9452 0,0.33264 0.035,0.31076 0.168169,-0.105 0.0925,-0.2888 0.168169,-0.71415 0.168169,-0.9452 z m 23.564159,0.72908 c -0.38404,-0.24281 -0.627481,-0.25779 -0.627481,-0.0387 0,0.091 0.21148,0.18128 0.46995,0.20074 0.369338,0.0278 0.403068,-0.007 0.157531,-0.16213 z M 59.25268,186.65949 c 0,-0.24208 -0.872843,-1.10471 -0.994591,-0.98296 -0.23072,0.23071 0.402716,1.35804 0.699155,1.24429 0.162491,-0.0623 0.295436,-0.17995 0.295436,-0.26133 z m -3.007178,-0.47661 c -0.06705,-0.16755 -0.116823,-0.11779 -0.1269,0.1269 -0.0091,0.22143 0.04052,0.34548 0.110316,0.27569 0.0698,-0.0698 0.07726,-0.25096 0.01657,-0.40259 z m -0.425035,-1.31431 c -0.06895,-0.17967 -0.222837,-0.32666 -0.34199,-0.32666 -0.245803,0 -0.297791,1.10909 -0.063,1.34389 0.218866,0.21887 0.55517,-0.62585 0.404984,-1.01723 z m 14.981579,0.61486 c -0.145494,-0.17532 -1.362196,-0.99344 -2.703781,-1.81807 -1.341583,-0.82462 -2.775142,-1.72091 -3.185685,-1.99174 -0.791585,-0.5222 -1.038931,-0.59874 -1.038931,-0.32155 0,0.15911 3.417285,2.41907 5.015023,3.3166 2.185659,1.22781 2.29471,1.27424 1.913374,0.81476 z m -54.503928,-0.52054 c 0.14386,-0.23277 -0.39206,-0.47567 -1.737153,-0.78735 -1.084032,-0.25119 -1.298284,-0.0318 -0.546456,0.5596 0.585047,0.4602 2.049673,0.60627 2.283609,0.22775 z m 39.593856,-1.69363 c 0,-0.22422 -0.09452,-0.40769 -0.210044,-0.40769 -0.115524,0 -0.210044,0.24188 -0.210044,0.53751 0,0.30485 0.09092,0.48131 0.210044,0.40769 0.115525,-0.0714 0.210044,-0.31328 0.210044,-0.53751 z m -30.298855,0.3001 c 0.259929,-0.0697 0.472599,-0.21015 0.472599,-0.3122 0,-0.2176 -1.478708,-0.24974 -2.015393,-0.0438 -0.342789,0.13154 -0.340243,0.15318 0.03533,0.3003 0.512552,0.2008 0.911086,0.21552 1.507462,0.0557 z m -4.568458,-1.54796 c 0,-0.43487 0.506732,-0.57965 0.735153,-0.21005 0.187271,0.30301 1.155372,0.25897 1.15456,-0.0526 -7.73e-4,-0.30356 -4.676683,-2.63637 -5.460463,-2.72422 -0.422598,-0.0473 -0.511634,0.0232 -0.456079,0.36122 0.114595,0.69738 0.521419,0.945 2.001355,1.21814 0.777223,0.14344 1.407179,0.35338 1.399904,0.46653 -0.01467,0.22806 -0.925767,0.23174 -2.210025,0.009 l -0.840176,-0.14576 0.714762,0.6335 c 0.735762,0.65209 1.101987,0.78643 2.278365,0.83572 0.552149,0.0232 0.682644,-0.0517 0.682644,-0.39147 z m 31.695875,-2.71187 c 0.434733,-0.99592 0.635066,-1.73359 0.556174,-2.04793 -0.216508,-0.86263 -0.687432,-0.56156 -0.956377,0.61143 -0.139059,0.60649 -0.384787,1.50775 -0.54606,2.00275 -0.724377,2.22342 -0.111324,1.85657 0.946263,-0.56625 z m -27.867648,1.45239 c 0.905231,-0.55192 1.28117,-0.54701 1.102981,0.0145 -0.1338,0.42157 -0.118007,0.42487 0.500524,0.10499 0.79571,-0.41148 0.946806,-0.41437 0.793632,-0.0151 -0.148621,0.38731 0.73249,0.43045 1.724967,0.0845 0.477289,-0.16638 0.661475,-0.36202 0.661475,-0.7026 0,-0.63085 0.643405,-1.21008 1.055017,-0.94979 0.502029,0.31747 1.675556,0.24789 1.675556,-0.0993 0,-0.41317 -4.543144,-0.57219 -4.875305,-0.17064 -0.278693,0.3369 -5.674531,0.36238 -6.98274,0.0329 -0.501454,-0.12626 -1.086797,-0.18859 -1.300765,-0.1385 -0.379261,0.0888 -0.07751,0.25482 2.446149,1.34599 0.404562,0.17491 0.971867,0.44928 1.260678,0.60968 0.718848,0.39923 1.132778,0.37434 1.937831,-0.11649 z m -8.531016,-0.72066 c 0.06328,-0.1649 0.07231,-0.51934 0.02007,-0.78768 l -0.09496,-0.48787 -0.164307,0.50365 c -0.138113,0.42336 -0.200964,0.45413 -0.394242,0.19295 -0.267508,-0.3615 -1.527632,-0.66082 -1.688201,-0.40102 -0.09658,0.15626 1.619213,1.21648 2.042479,1.26207 0.09027,0.0101 0.215893,-0.11723 0.279164,-0.2821 z m 30.207809,-0.64993 c 0.222615,-0.16841 0.354155,-0.35682 0.29231,-0.41866 -0.06184,-0.0619 -0.338504,0.0759 -0.614799,0.30591 -0.574398,0.47835 -0.291495,0.57727 0.322489,0.11275 z m -20.043875,-0.70942 c -0.438503,-0.245 -5.041057,-0.45385 -5.041057,-0.22874 0,0.21627 1.110318,0.33271 3.570749,0.37448 1.054748,0.0179 1.656441,-0.0418 1.470308,-0.14574 z m 23.423349,-0.3888 c 0.876048,-0.99533 0.507038,-1.55686 -0.439026,-0.66808 -0.28513,0.26786 -0.421971,0.59025 -0.356617,0.84017 0.137674,0.52647 0.190947,0.51494 0.795643,-0.17209 z m -21.112864,-0.0287 c 0,-0.2247 -1.279897,-0.44466 -1.573214,-0.27036 -0.114358,0.068 0.02742,0.18905 0.315067,0.26911 0.764765,0.21287 1.258147,0.21335 1.258147,0.001 z m 5.223561,-0.0957 c 0.384169,-0.4629 0.0527,-0.5583 -1.939873,-0.5583 -1.980077,0 -2.232978,0.23268 -0.65451,0.60216 1.247498,0.29202 2.330829,0.2737 2.594383,-0.0439 z m -7.74409,-0.74101 c 0,-0.18838 -1.193802,-0.54188 -2.566287,-0.75992 -0.429502,-0.0682 -0.918981,-0.26213 -1.08773,-0.43087 -0.390012,-0.39001 -0.386645,-0.39047 -0.987325,0.13327 -0.40572,0.35376 -0.679861,0.41635 -1.397424,0.31909 -0.977291,-0.13248 -1.24653,0.17328 -0.315067,0.35779 0.317691,0.063 0.908441,0.20576 1.312776,0.31741 0.928856,0.25646 5.041057,0.30805 5.041057,0.0632 z m 55.451634,-0.57722 c 1.213004,-0.30409 2.295257,-0.63556 2.405002,-0.73662 0.332202,-0.3059 -2.045726,-0.20876 -3.159285,0.12905 -0.567101,0.17203 -1.332703,0.31381 -1.70134,0.31507 -0.743101,0.002 -1.118329,0.36835 -0.669439,0.65267 0.434125,0.27497 0.725377,0.2414 3.125062,-0.36017 z m -66.503908,-0.23772 c -0.236978,-0.99202 -0.432879,-1.09051 -2.101183,-1.05649 -1.874251,0.0382 -1.779025,0.26825 0.445792,1.07682 1.84726,0.67134 1.820699,0.67166 1.655391,-0.0203 z m 22.079587,0.15753 c 0.07492,-0.12121 -0.119704,-0.20868 -0.460202,-0.20682 -0.45813,0.002 -0.51959,0.0487 -0.274952,0.20682 0.403555,0.2608 0.573973,0.2608 0.735154,0 z m 6.931454,-0.19719 c 0.693146,-0.0101 1.145608,-0.0921 1.005473,-0.1812 -0.140135,-0.0891 0.50302,-0.17807 1.429232,-0.19783 1.450906,-0.0309 1.810191,-0.1171 2.595464,-0.62253 0.501293,-0.32264 1.016809,-0.75203 1.145589,-0.95421 0.196549,-0.30854 0.161888,-0.36756 -0.215864,-0.36756 -0.247506,0 -0.814749,0.10925 -1.260542,0.24284 -0.655931,0.19652 -0.764441,0.29837 -0.568885,0.53401 0.509117,0.61344 -0.121082,0.74974 -1.831318,0.39605 -1.468229,-0.30363 -1.679844,-0.30514 -2.122519,-0.015 -0.270433,0.17719 -0.491696,0.41451 -0.491696,0.52737 0,0.11286 -0.22857,0.2052 -0.50793,0.2052 -0.624885,0 -1.172422,0.198 -1.172422,0.42398 0,0.0929 0.16541,0.13732 0.367576,0.0986 0.202168,-0.0387 0.934696,-0.079 1.627842,-0.0896 z m 25.940442,-0.66505 c 0,-0.10343 -0.0709,-0.19566 -0.157534,-0.20505 -0.08664,-0.009 -0.393831,-0.048 -0.682642,-0.0858 -2.601569,-0.34073 -2.940617,-0.35941 -2.940617,-0.16202 0,0.24442 0.903172,0.63558 1.680352,0.72775 0.828374,0.0983 2.100441,-0.0682 2.100441,-0.27485 z m -43.823251,-0.0829 c -0.08389,-0.21863 0.01456,-0.31507 0.321658,-0.31507 0.243409,0 0.44256,0.0946 0.44256,0.21004 0,0.11553 0.195476,0.21004 0.43439,0.21004 0.433565,0 0.433515,-0.001 -0.02582,-0.6463 -0.347389,-0.48787 -0.400873,-0.70567 -0.218157,-0.88838 0.182716,-0.18273 0.356405,-0.10477 0.70847,0.31789 0.76459,0.91794 1.811815,1.19981 5.027992,1.35334 l 2.944575,0.14056 -0.150922,-0.47551 -0.15092,-0.4755 0.638212,0.47185 c 0.598021,0.44214 0.787831,0.46482 3.014229,0.36026 1.681792,-0.079 2.560131,-0.21588 3.00615,-0.46855 l 0.630133,-0.35697 -0.840176,0.13167 c -1.918417,0.30065 -3.046711,0.37216 -3.760127,0.23831 -0.96656,-0.18132 -0.996855,-0.55554 -0.03231,-0.39902 0.891009,0.1446 2.637187,-0.0983 2.637187,-0.36673 0,-0.10847 -0.307813,-0.19718 -0.684029,-0.19718 -0.866957,0 -1.94952,-0.30819 -2.61565,-0.74466 -0.746105,-0.48888 -0.489715,-0.5646 0.62526,-0.1847 1.01463,0.34573 2.052943,0.3393 2.06363,-0.0128 0.0035,-0.11384 -0.294563,-0.28493 -0.662263,-0.38022 -0.3677,-0.0952 -0.922551,-0.36102 -1.233001,-0.59055 -0.507474,-0.37519 -0.669218,-0.39249 -1.602241,-0.17141 -2.401963,0.56916 -4.082257,0.75919 -4.456169,0.50397 -0.199325,-0.13605 -0.620606,-0.31011 -0.936178,-0.38677 -0.315572,-0.0767 -0.89517,-0.42159 -1.287995,-0.76649 -0.836957,-0.73486 -0.854429,-0.73817 -1.368972,-0.25952 -0.842361,0.78359 -1.569282,1.2698 -4.631981,3.09814 -0.58055,0.34658 -1.024273,0.72466 -0.986049,0.84019 0.03822,0.11552 0.452725,0.18103 0.921108,0.14556 0.468384,-0.0355 0.91335,0.0354 0.988812,0.15754 0.07547,0.1221 0.412221,0.22201 0.74835,0.22201 0.456944,0 0.580639,-0.0796 0.490242,-0.31507 z m 37.997523,0.14376 c -0.142758,-0.0907 -0.969515,-0.39641 -1.837235,-0.67942 -1.343077,-0.43805 -1.577771,-0.58485 -1.578325,-0.98716 -8.33e-4,-0.58237 -0.303801,-0.59403 -1.365937,-0.0525 -0.453189,0.23104 -0.993031,0.42008 -1.199654,0.42008 -0.799057,0 -0.322125,0.40105 0.727055,0.61136 3.625969,0.72688 5.754438,1.00545 5.254096,0.68766 z m -13.311588,-0.6923 c 0.201778,-0.57884 0.190808,-0.62284 -0.09594,-0.38486 -0.53865,0.44705 -0.785698,1.03841 -0.4338,1.03841 0.16605,0 0.404433,-0.2941 0.529742,-0.65355 z m -42.4055938,0.0234 c 0,-0.11552 -0.1890397,-0.21004 -0.420088,-0.21004 -0.2310483,0 -0.420088,0.0946 -0.420088,0.21004 0,0.11553 0.1890397,0.21005 0.420088,0.21005 0.2310483,0 0.420088,-0.0946 0.420088,-0.21005 z M 65.077027,175.1731 c -0.0698,-0.0698 -0.25096,-0.0772 -0.402585,-0.0166 -0.167558,0.067 -0.117789,0.11683 0.126903,0.1269 0.221419,0.009 0.345477,-0.0406 0.275682,-0.11037 z m 17.768031,-0.69668 c 0.357567,-0.35758 -0.920073,-0.26806 -1.537753,0.10779 -0.513092,0.31217 -0.504095,0.31718 0.393012,0.21918 0.504965,-0.0551 1.020099,-0.20228 1.144741,-0.32692 z m -36.405066,-0.1216 c 0,-0.17329 -0.08441,-0.31507 -0.187572,-0.31507 -0.103167,0 -0.241977,0.14178 -0.308474,0.31507 -0.07364,0.19191 -4.21e-4,0.31505 0.187571,0.31505 0.169661,0 0.308475,-0.14178 0.308475,-0.31505 z m 13.42683,-0.52034 c 0.463881,-0.25961 -1.023598,-0.82194 -2.360808,-0.89251 -1.04021,-0.0549 -1.091826,-0.0324 -1.153678,0.5024 -0.04573,0.39538 0.04683,0.59188 0.315067,0.66884 0.500375,0.14357 2.803317,-0.057 3.199419,-0.27873 z m -4.184892,-0.29413 c 0,-0.15914 -0.129238,-0.3966 -0.287196,-0.52769 -0.21906,-0.18181 -0.352898,-0.15919 -0.564117,0.0954 -0.230468,0.27769 -0.226335,0.36567 0.02464,0.52447 0.443643,0.28073 0.82667,0.23806 0.82667,-0.0921 z m -5.19859,-0.26985 c -0.144405,-0.0583 -0.380704,-0.0583 -0.52511,0 -0.144406,0.0583 -0.02625,0.10589 0.262555,0.10589 0.288811,0 0.40696,-0.0477 0.262555,-0.10589 z m -13.857166,-1.43622 c -0.02573,-0.11551 -0.640102,-0.32745 -1.365286,-0.47096 -1.259669,-0.24926 -2.618379,-0.84107 -3.330475,-1.45064 -0.4397,-0.37639 -0.431857,-0.37856 -1.240808,0.34367 -0.665476,0.59413 -0.684102,0.64827 -0.350093,1.01734 0.354611,0.39184 1.920006,0.83442 3.287792,0.92956 1.204366,0.0837 3.049136,-0.14321 2.99887,-0.36897 z m 14.922605,0.40534 c 0.270853,-0.10387 0.273296,-0.19422 0.01849,-0.68265 -0.360145,-0.6903 -0.394494,-1.78586 -0.05242,-1.67184 0.134107,0.0447 0.381648,0.54882 0.55009,1.12024 0.264816,0.89836 0.329474,0.97747 0.47783,0.58453 0.146993,-0.38932 0.301384,-0.44259 1.077752,-0.37192 0.852263,0.0777 0.871812,0.0679 0.328559,-0.16374 -0.343164,-0.1463 -0.577621,-0.40942 -0.577621,-0.64826 0,-0.29974 0.09351,-0.36402 0.367577,-0.25265 0.814733,0.33108 1.592705,0.50731 1.766193,0.40009 0.315632,-0.19506 -0.03449,-0.50451 -0.570837,-0.50451 -0.390409,0 -0.513732,-0.11274 -0.516983,-0.4726 -0.0062,-0.67624 -1.776594,-1.48012 -2.685647,-1.21941 -0.351542,0.10085 -0.669912,0.15749 -0.707489,0.12594 -0.218873,-0.18378 -2.273795,-0.30868 -2.273795,-0.13821 0,0.25211 1.079378,0.49604 2.130794,0.48153 0.440757,-0.006 0.847598,0.0638 0.904089,0.15512 0.172073,0.27842 -3.204617,0.4417 -4.295646,0.20773 -0.835249,-0.17913 -1.111335,-0.15963 -1.518678,0.10723 -0.427883,0.28037 -0.923688,0.29955 -3.528037,0.13653 -1.666603,-0.10433 -3.101225,-0.1458 -3.188049,-0.0921 -0.259775,0.16055 -1.92161,-0.40607 -2.352843,-0.80222 -0.518215,-0.47607 -2.352181,-1.08581 -2.671769,-0.8883 -0.174364,0.1078 -0.13323,0.23529 0.140448,0.4354 0.33378,0.24407 0.339799,0.283 0.04372,0.283 -0.188816,0 -0.490121,0.20962 -0.669567,0.46582 -0.502089,0.71682 -0.02558,1.02862 1.693653,1.10818 0.794413,0.0368 1.557379,0.0757 1.69548,0.0866 0.138102,0.0112 0.377105,0.27968 0.531115,0.59737 0.269267,0.55544 0.332232,0.57471 1.639304,0.50159 0.747605,-0.0418 1.855594,-0.2613 2.462201,-0.48775 0.967301,-0.36111 1.401118,-0.39337 3.528024,-0.26241 2.06916,0.12743 2.415499,0.19902 2.359652,0.48777 -0.05646,0.29194 -0.468848,0.33842 -3.002914,0.33842 -2.833083,0 -3.605188,0.12443 -3.348579,0.53963 0.210055,0.33987 5.886057,0.23928 6.744836,-0.11953 0.982783,-0.41064 1.292769,-0.39769 1.25704,0.0525 -0.0225,0.28346 0.187127,0.39641 0.916026,0.49356 0.519858,0.0692 0.961098,0.14019 0.98053,0.15754 0.01943,0.0174 0.175791,-0.0223 0.347464,-0.0882 z m -1.958126,-0.80295 c 0,-0.19925 0.628742,-0.29967 0.740822,-0.11831 0.06828,0.11048 -0.07047,0.20086 -0.308337,0.20086 -0.237866,0 -0.432485,-0.0372 -0.432485,-0.0826 z m 12.287508,0.71279 c 0.07136,-0.11546 0.667686,-0.19864 1.32517,-0.18485 0.657487,0.0138 1.466108,0.002 1.796938,-0.0263 0.33083,-0.0282 0.674711,0.067 0.764182,0.21177 0.08947,0.14476 0.267757,0.19826 0.3962,0.11888 0.23543,-0.14551 0.321587,-0.80164 0.13037,-0.99286 -0.05673,-0.0567 -0.818196,0.009 -1.69213,0.14611 -0.873934,0.1371 -1.890862,0.21377 -2.259838,0.17037 -0.752854,-0.0885 -1.882176,0.29619 -1.70602,0.58122 0.156601,0.25338 1.084707,0.2353 1.245128,-0.0243 z m 2.190011,-1.34669 c 0.37464,-0.45142 -0.08135,-0.61375 -0.933783,-0.33242 -0.402078,0.13269 -0.731048,0.32846 -0.731048,0.43502 0,0.30957 1.394068,0.22364 1.664831,-0.10264 z m -6.051425,-0.2841 c -0.751111,-0.52253 -1.206064,-0.54313 -0.745077,-0.0337 0.201172,0.22229 0.563785,0.39921 0.80581,0.39315 0.423723,-0.0101 0.421471,-0.024 -0.06073,-0.3594 z m 4.561317,-0.49685 c 0.539286,-0.2574 1.056106,-0.59291 1.148489,-0.74557 0.09239,-0.15266 0.346735,-0.27757 0.565224,-0.27757 0.218491,0 0.455673,-0.0946 0.52707,-0.21003 0.215447,-0.3486 -0.699863,-0.23663 -1.666944,0.20394 -0.499812,0.22768 -1.581604,0.5251 -2.403985,0.66091 -1.552398,0.25638 -1.829087,0.47789 -1.022639,0.81873 0.645051,0.27263 1.680445,0.10914 2.852785,-0.45041 z m 6.104899,0.0181 c 0.351168,-0.006 0.02075,-0.19167 -0.923499,-0.51969 -1.683827,-0.58495 -2.158114,-0.62379 -2.690247,-0.22032 -0.361376,0.274 -0.356293,0.30497 0.105027,0.63965 0.37809,0.2743 0.757372,0.32504 1.723349,0.23049 0.68121,-0.0667 1.484629,-0.12523 1.785375,-0.13013 z m -40.633118,-0.59454 c 0.924779,-0.40906 1.300546,-0.75919 1.008514,-0.93967 -0.145107,-0.0896 -3.769733,0.48828 -5.040571,0.80373 -0.691425,0.17163 -0.576747,0.49041 0.210044,0.58387 1.255306,0.14913 2.910928,-0.0449 3.822013,-0.44793 z m 5.157371,-0.65675 c 0.718771,-0.67144 0.534281,-0.79453 -0.598789,-0.39955 -0.624495,0.2177 -0.834719,0.57637 -0.521445,0.88965 0.240313,0.24031 0.424655,0.15966 1.120234,-0.4901 z m 26.570574,0.42008 c 0.0714,-0.11552 -0.01198,-0.21005 -0.185253,-0.21005 -0.173286,0 -0.373481,0.0946 -0.444879,0.21005 -0.0714,0.11552 0.01197,0.21005 0.185253,0.21005 0.173286,0 0.37348,-0.0946 0.444879,-0.21005 z m 11.810602,-0.33695 c -0.0698,-0.0698 -0.25096,-0.0772 -0.402584,-0.0166 -0.167559,0.067 -0.117789,0.11681 0.126902,0.1269 0.22142,0.009 0.34548,-0.0406 0.275682,-0.11026 z m -12.300738,-0.37905 c 1.116716,-0.15826 2.136944,-0.3536 2.267174,-0.43409 0.130231,-0.0805 0.360891,-0.0434 0.512576,0.0826 0.288558,0.23948 1.596201,0.0826 1.596201,-0.19149 0,-0.21033 -1.322465,-0.41617 -2.69187,-0.41901 -0.614098,-0.001 -1.302534,-0.10185 -1.529859,-0.22351 -0.356583,-0.19083 -0.444001,-0.13317 -0.63687,0.42009 -0.122955,0.35271 -0.368455,0.64129 -0.545555,0.64129 -0.252475,0 -0.295471,-0.16348 -0.199135,-0.75713 0.114367,-0.70478 0.09085,-0.74754 -0.340094,-0.61843 -0.254629,0.0763 -0.887199,0.25157 -1.405715,0.38955 -0.635255,0.16903 -0.96742,0.37967 -1.018376,0.64577 -0.15782,0.82418 0.72673,0.9271 3.991523,0.46441 z m -13.372773,-0.33424 c -0.209096,-0.23104 -0.53566,-0.42009 -0.725699,-0.42009 -0.190037,0 -0.435318,-0.083 -0.545066,-0.18453 -0.109745,-0.10152 -0.866941,-0.38738 -1.682647,-0.63532 -0.815708,-0.24793 -1.855426,-0.65141 -2.310484,-0.89663 -0.972863,-0.52421 -3.622859,-1.22413 -4.634772,-1.22413 -0.420559,0 -0.873752,-0.1652 -1.114985,-0.40644 -0.237702,-0.23769 -0.673691,-0.39883 -1.05022,-0.38811 -0.740027,0.0211 -0.831239,0.25936 -0.223704,0.58451 0.268827,0.14386 0.420088,0.43978 0.420088,0.82184 0,0.77594 0.466958,1.15586 1.206546,0.98164 1.129584,-0.26608 1.208853,-0.24667 1.211975,0.29696 0.0027,0.47721 0.09438,0.53097 1.004672,0.58941 0.980465,0.063 0.998804,0.0529 0.866903,-0.47261 -0.154429,-0.61527 0.308216,-0.7553 0.747344,-0.22619 0.733195,0.88345 3.396615,1.64304 6.915115,1.97218 0.219574,0.0205 0.197801,-0.0799 -0.08507,-0.39249 z m 21.319473,-0.66785 c 0,-0.0992 -0.25993,-0.11797 -0.577622,-0.0418 -0.712597,0.17094 -0.758025,0.20765 -0.591152,0.47767 0.152045,0.24602 1.168774,-0.13319 1.168774,-0.43591 z m -18.789021,0.0538 c -0.129515,-0.20956 -3.939101,-1.48636 -4.434848,-1.48636 -0.680926,0 -0.216922,0.34987 1.116732,0.84205 2.148071,0.79273 3.581925,1.07116 3.318116,0.64431 z M 33.77681,167.18518 c 0.04361,-0.131 -0.04836,-0.3673 -0.204392,-0.52512 -0.156027,-0.15782 -0.364135,-0.47597 -0.462462,-0.70703 -0.161152,-0.37867 -0.192561,-0.35796 -0.318598,0.21005 -0.0769,0.34658 -0.05568,0.80125 0.04716,1.01038 0.198487,0.40363 0.805284,0.41121 0.938284,0.0118 z m 18.122866,-0.20505 c 8.34e-4,-0.0128 -0.305728,-0.34355 -0.681182,-0.73517 -0.375453,-0.39161 -1.060722,-0.83641 -1.522819,-0.98845 -0.462097,-0.15204 -1.029216,-0.35472 -1.260264,-0.45038 -1.832677,-0.75884 -2.336604,-0.85037 -3.371516,-0.61236 -0.571676,0.13146 -2.031869,0.29754 -3.244872,0.36903 -2.672622,0.15751 -2.353154,0.49049 0.525109,0.54734 1.161843,0.0229 2.325913,0.18232 3.02044,0.41355 1.14766,0.38209 1.723892,0.47012 3.347548,0.51134 0.793789,0.0202 0.890896,0.0733 0.778932,0.42604 -0.149724,0.47173 0.182843,0.59536 1.515936,0.56349 0.490177,-0.0118 0.891885,-0.0317 0.892688,-0.0444 z m 17.552506,-0.39028 c 0.402289,-0.30428 0.402125,-0.30843 -0.01237,-0.3122 -0.231048,-0.002 -0.640748,0.0552 -0.910442,0.12748 -0.366246,0.0981 -0.419408,0.17627 -0.210044,0.30899 0.402516,0.25515 0.670008,0.22581 1.132851,-0.12427 z m 11.855123,-0.11171 c 0.254777,-0.16466 0.224633,-0.20423 -0.157531,-0.20683 -0.259929,-0.002 -0.472599,0.0913 -0.472599,0.20683 0,0.26316 0.222905,0.26316 0.63013,0 z M 54.304596,166.2889 c 0.36387,-0.14243 0.331955,-0.19767 -0.294827,-0.51034 -0.634475,-0.31653 -2.764711,-0.51662 -2.481156,-0.23306 0.116403,0.1164 2.060561,0.8878 2.262921,0.89788 0.05776,0.003 0.28864,-0.0667 0.513062,-0.15448 z m -17.14803,-2.23275 c -0.238262,-0.23826 -1.429021,-0.4782 -1.533582,-0.30901 -0.06073,0.0983 0.05614,0.22212 0.259723,0.27522 0.539847,0.14082 1.403807,0.16374 1.273859,0.0337 z m 41.810166,-0.28556 c 0.207956,-0.13175 0.219429,-0.22108 0.04246,-0.33045 -0.32516,-0.20096 -0.913166,0.0394 -0.748443,0.30594 0.158513,0.25647 0.33049,0.26246 0.705984,0.0245 z m -1.545243,-0.44312 c 0.0714,-0.11552 -0.02311,-0.21003 -0.21004,-0.21003 -0.186925,0 -0.281445,0.0946 -0.210045,0.21003 0.0714,0.11553 0.165914,0.21004 0.210045,0.21004 0.04412,0 0.138645,-0.0946 0.21004,-0.21004 z m -14.440527,-0.54022 c -0.317692,-0.17236 -0.577621,-0.40487 -0.577621,-0.51671 0,-0.11183 -0.42534,-0.20333 -0.945199,-0.20333 -0.519858,0 -0.945198,0.0991 -0.945198,0.22019 0,0.34306 1.275858,0.81361 2.205462,0.8134 l 0.840176,-1.9e-4 z m 20.09807,-0.63799 c 1.451378,-0.74151 2.300771,-1.34256 1.896541,-1.34207 -0.927097,0.001 -3.316041,0.66745 -4.046711,1.12871 -1.854791,1.17087 -0.07059,1.34791 2.15017,0.21336 z m -6.850035,-0.36127 c 0.04727,-0.24368 -0.03222,-0.31107 -0.262553,-0.22268 -0.388297,0.149 -0.45397,0.78812 -0.06777,0.65953 0.144409,-0.0481 0.293056,-0.24466 0.330328,-0.43685 z m 2.13769,0.27922 c -0.410778,-0.26546 -0.991174,-0.26546 -1.155238,0 -0.07798,0.12616 0.189671,0.20876 0.670243,0.20683 0.593906,-0.002 0.718874,-0.0557 0.484995,-0.20683 z m -28.044686,-0.20389 c 0.150796,-0.24399 -0.822336,-0.52462 -1.139498,-0.32859 -0.122089,0.0754 -0.221982,0.22612 -0.221982,0.33483 0,0.26125 1.199555,0.25576 1.36148,-0.007 z m 29.777552,-0.0885 c 0.502274,-0.38127 0.461221,-0.54778 -0.135061,-0.54778 -0.482268,0 -0.864658,0.45308 -0.603122,0.71461 0.180429,0.18043 0.323236,0.14816 0.738183,-0.16683 z m -2.837822,-1.65052 c 0.11371,-0.1444 0.259357,-0.73515 0.32366,-1.31277 l 0.116912,-1.05023 -0.455475,0.99351 c -0.250509,0.54642 -0.573621,0.99538 -0.718023,0.9977 -0.283488,0.004 -0.348798,0.26806 -0.122528,0.49432 0.221906,0.2219 0.630297,0.16341 0.855454,-0.12253 z M 52.268715,296.09703 c -0.218512,-1.86366 -0.206229,-2.25485 0.06236,-1.98626 0.125886,0.12588 0.193234,0.88468 0.157533,1.77487 l -0.06236,1.55498 z m -0.25056,-3.85501 c -0.206252,-0.67825 -0.932507,-9.94776 -0.925689,-11.81497 0.004,-1.10361 0.02953,-1.18194 0.205087,-0.63013 0.11026,0.34656 0.235986,1.52807 0.279382,2.62555 0.117151,2.96287 0.525559,8.84263 0.66018,9.50449 0.115711,0.56888 -0.0634,0.82661 -0.21896,0.31506 z m -1.135767,-15.31603 c -0.01731,-0.30824 -0.08587,-0.73359 -0.152353,-0.9452 -0.114261,-0.36369 -0.107773,-0.36434 0.118458,-0.0119 0.131634,0.20512 0.200194,0.63046 0.152352,0.9452 l -0.08699,0.57227 -0.03148,-0.56045 z m -0.09821,-2.64273 c -0.05035,-0.0866 -0.149591,-1.33904 -0.220552,-2.78309 -0.07393,-1.50453 -0.05266,-2.44619 0.04982,-2.20546 0.09836,0.23105 0.194953,1.17625 0.214639,2.10045 0.01969,0.92419 0.09065,1.98753 0.157706,2.36299 0.113076,0.63312 0.01284,0.8942 -0.201615,0.52511 z m 0.923496,-0.80517 c 0.01009,-0.2447 0.05985,-0.29446 0.126901,-0.12691 0.06068,0.15163 0.05321,0.33279 -0.01657,0.4026 -0.0698,0.0698 -0.11944,-0.0542 -0.110316,-0.27569 z m -0.09412,-5.68628 c 0.0225,-2.48421 0.0948,-4.57062 0.160652,-4.63647 0.06587,-0.0659 0.11686,1.92376 0.113336,4.4214 -0.0035,2.49763 -0.07581,4.58404 -0.16065,4.63646 -0.08483,0.0524 -0.135836,-1.9372 -0.113338,-4.42139 z m 1.075254,0.64762 c -0.08664,-0.088 -0.157534,-0.54116 -0.157534,-1.00712 0,-0.60085 0.06524,-0.78194 0.224374,-0.6228 0.123405,0.1234 0.194294,0.57661 0.157533,1.00711 -0.03676,0.4305 -0.137731,0.71077 -0.224373,0.62281 z m -2.190743,-1.35018 c 0,-0.75091 0.03812,-1.0581 0.08471,-0.68265 0.04659,0.37546 0.04659,0.98983 0,1.36529 -0.04659,0.37545 -0.08471,0.0682 -0.08471,-0.68264 z m -0.05065,-1.80288 c 0.01008,-0.24469 0.05985,-0.29447 0.126899,-0.1269 0.06068,0.15163 0.05321,0.33278 -0.01657,0.40258 -0.0698,0.0698 -0.119441,-0.0542 -0.110316,-0.27568 z m 0.05065,-1.76787 c 0,-0.75091 0.03812,-1.0581 0.08471,-0.68265 0.04659,0.37546 0.04659,0.98984 0,1.3653 -0.04659,0.37545 -0.08471,0.0682 -0.08471,-0.68265 z m 1.193036,-1.71536 c 0,-1.03492 0.181001,-0.97212 0.319662,0.11093 0.05531,0.432 0.0071,0.76429 -0.11091,0.76429 -0.114816,0 -0.208756,-0.39384 -0.208756,-0.87519 z m -1.243681,-1.26537 c -0.0091,-0.65745 0.06376,-1.24502 0.161949,-1.3057 0.09819,-0.0607 0.137958,0.38271 0.08838,0.98531 -0.129346,1.5719 -0.231154,1.7022 -0.250323,0.32039 z m 1.366127,-0.56183 c -0.09048,-0.1464 -0.107784,-0.3229 -0.03846,-0.39224 0.187985,-0.18798 0.392945,0.0885 0.291414,0.39309 -0.07114,0.21344 -0.120622,0.21327 -0.252956,-5.9e-4 z m -0.11923,-1.32857 c -0.0017,-0.31087 0.0913,-0.62365 0.206828,-0.69504 0.268205,-0.16576 0.268205,0.53018 0,0.9452 -0.159255,0.24643 -0.204311,0.19194 -0.206828,-0.25016 z m -1.036853,-0.0825 c 0.01008,-0.24469 0.05985,-0.29446 0.126901,-0.1269 0.06068,0.15162 0.05321,0.33279 -0.01657,0.40259 -0.0698,0.0698 -0.119439,-0.0542 -0.110316,-0.27569 z m 0.01658,-1.13774 c 0,-0.28881 0.04768,-0.40696 0.105946,-0.26256 0.05827,0.14442 0.05827,0.38071 0,0.52512 -0.05827,0.1444 -0.105946,0.0262 -0.105946,-0.26256 z m 0.544457,-2.01131 c -0.2026,-0.20467 -0.176252,-2.64452 0.0418,-3.86992 0.140021,-0.78692 0.175516,-0.83969 0.211978,-0.31507 0.02408,0.34657 0.06725,0.84106 0.09593,1.09886 0.09074,0.81581 -0.185332,3.25217 -0.349692,3.08613 z m 0.925852,-4.92015 c 0,-0.2888 0.04767,-0.40695 0.105946,-0.26255 0.05827,0.14441 0.05827,0.3807 0,0.52512 -0.05827,0.1444 -0.105946,0.0262 -0.105946,-0.26257 z m -0.832393,-2.41551 c 0.0043,-0.34656 0.05135,-0.46292 0.104612,-0.25855 0.05326,0.20438 0.04975,0.48793 -0.0078,0.63013 -0.05754,0.14221 -0.101105,-0.025 -0.09683,-0.37158 z m 0.0472,-4.19507 c 0.03703,-1.79745 0.33194,-2.03132 0.33194,-0.26325 0,0.76334 -0.08092,1.43792 -0.179846,1.49906 -0.09892,0.0612 -0.167358,-0.49499 -0.152094,-1.23581 z m 0.121896,-3.56415 c 0,-0.64359 0.119713,-0.69558 0.27085,-0.11764 0.06038,0.23095 0.02416,0.47282 -0.08052,0.53752 -0.10468,0.0647 -0.190325,-0.12425 -0.190325,-0.41988 z m -0.807012,-4.3183 c 0,-0.28882 0.04768,-0.40697 0.105946,-0.26255 0.05827,0.1444 0.05827,0.3807 0,0.5251 -0.05827,0.14441 -0.105946,0.0262 -0.105946,-0.26255 z m 0.427873,-5.35612 c 0.0043,-0.34658 0.05135,-0.46294 0.104612,-0.25857 0.05326,0.20438 0.04975,0.48793 -0.0078,0.63013 -0.05754,0.14221 -0.101106,-0.025 -0.09682,-0.37156 z m -0.32851,-14.97366 c -0.07151,-0.11572 -0.03215,-0.71655 0.0875,-1.3352 0.252108,-1.30364 0.517716,-4.14919 0.83041,-8.89644 0.228658,-3.47145 0.60657,-8.81794 0.727491,-10.29215 0.03791,-0.4621 0.225925,-3.18413 0.417828,-6.04894 0.315139,-4.70455 0.778352,-7.81246 1.232011,-8.26612 0.203015,-0.20301 0.176998,0.33632 -0.0553,1.14628 -0.10905,0.38024 -0.253872,1.98645 -0.321821,3.56935 -0.275225,6.41154 -0.32408,7.33583 -0.446335,8.44417 -0.07009,0.63539 -0.141236,1.7372 -0.158118,2.44848 -0.01689,0.71127 -0.08479,1.20546 -0.150906,1.0982 -0.06612,-0.10724 -0.277718,1.48474 -0.470222,3.53779 -0.192501,2.05304 -0.540439,5.76498 -0.773193,8.24875 -0.232756,2.48378 -0.424312,4.84678 -0.425682,5.25111 -0.0027,0.81039 -0.283972,1.43402 -0.493667,1.09472 z m 1.798817,-8.76128 c 0.0043,-0.34657 0.05135,-0.46292 0.104612,-0.25855 0.05326,0.20436 0.04975,0.48792 -0.0078,0.63013 -0.05754,0.1422 -0.101105,-0.025 -0.09682,-0.37158 z m 0.232037,-4.51594 c 0,-0.63538 0.03938,-0.89531 0.0875,-0.57762 0.04813,0.31769 0.04813,0.83755 0,1.15524 -0.04813,0.31769 -0.0875,0.0577 -0.0875,-0.57762 z m 31.916268,-6.87336 c -0.375454,-0.0466 -0.682644,-0.20717 -0.682644,-0.35684 0,-0.20343 0.377471,-0.25571 1.495027,-0.20703 0.82226,0.0357 1.54002,0.11015 1.595024,0.16511 0.09809,0.098 -1.413618,0.57959 -1.61974,0.51592 -0.05775,-0.0178 -0.412214,-0.0706 -0.787667,-0.11716 z m -13.91542,-1.28995 c -1.448788,-0.57025 -2.684592,-1.43067 -3.038884,-2.11579 -0.390388,-0.75492 -0.106719,-1.01158 0.437772,-0.3961 0.64432,0.72835 2.704443,1.97892 3.735479,2.26759 0.527145,0.1476 0.907325,0.35106 0.844844,0.45217 -0.174578,0.28246 -0.936845,0.20241 -1.979211,-0.20787 z M 83.96296,194.0989 c 0.182138,-0.60195 0.204304,-0.60949 0.919863,-0.31309 0.444878,0.18427 1.172147,0.22816 2.317222,0.13986 0.917869,-0.0708 1.668854,-0.0494 1.668854,0.0474 0,0.34969 -1.833715,0.67868 -3.416438,0.61295 -1.504756,-0.0625 -1.60782,-0.0961 -1.489501,-0.48721 z m -1.536809,-0.58442 c -0.326553,-0.26369 -0.993151,-0.73611 -1.48132,-1.04982 -0.488175,-0.31373 -1.045487,-0.81139 -1.238474,-1.10593 -0.192988,-0.29454 -0.691517,-0.68703 -1.107832,-0.87219 -0.580915,-0.25837 -0.667826,-0.35802 -0.37374,-0.42848 0.21076,-0.0505 0.549025,0.0583 0.751694,0.24166 0.202668,0.18342 0.442448,0.33348 0.532842,0.33348 0.09039,0 0.60766,0.37115 1.149479,0.82479 0.810288,0.67841 1.020493,0.77034 1.184395,0.51793 0.163235,-0.25139 0.398507,-0.2686 1.301248,-0.0952 0.606093,0.11642 1.986434,0.15356 3.067426,0.0826 1.371964,-0.0901 2.010167,-0.0567 2.113583,0.11059 0.09995,0.16174 -0.08551,0.23972 -0.570091,0.23972 -1.103104,0 -2.667263,0.24872 -2.667263,0.42414 0,0.0864 0.208546,0.21152 0.46343,0.27818 0.25488,0.0667 0.41013,0.17449 0.344993,0.23963 -0.06515,0.0651 -0.948788,-0.0752 -1.963667,-0.31182 -1.014872,-0.23664 -1.880935,-0.39454 -1.92459,-0.35089 -0.04364,0.0436 0.300635,0.33084 0.765078,0.6382 0.464448,0.30735 0.84445,0.60475 0.84445,0.66087 0,0.26261 -0.656547,0.0547 -1.191641,-0.37739 z M 70.805103,179.29082 c -0.256144,-0.16554 -0.229001,-0.20422 0.145135,-0.20683 0.253113,-0.002 0.518621,0.0913 0.590019,0.20683 0.16528,0.26742 -0.321342,0.26742 -0.735154,0 z M 9.9736062,177.03909 c 0.1507758,-0.15078 1.6252448,-0.0966 1.7916118,0.0659 0.04814,0.047 -0.369328,0.0855 -0.927694,0.0855 -0.558367,0 -0.9471308,-0.0681 -0.8639178,-0.15129 z m 76.2544048,-8.57006 c 0.222614,-0.16841 0.456177,-0.25478 0.519022,-0.19193 0.131846,0.13184 -0.401621,0.50677 -0.713737,0.50161 -0.115525,-0.002 -0.02792,-0.14125 0.194715,-0.30968 z m -61.592019,-1.58844 c -2.434227,-0.65386 -3.751497,-1.69904 -4.550031,-3.61019 -0.363822,-0.87075 -0.42782,-2.04337 -0.111515,-2.04337 0.115524,0 0.210044,0.29728 0.210044,0.66062 0,0.36334 0.246022,1.0486 0.546717,1.52282 1.005441,1.58563 2.851145,2.61855 5.334516,2.98539 1.012943,0.14963 1.536664,0.43511 1.350578,0.73621 -0.176173,0.28505 -1.090816,0.20232 -2.780303,-0.25148 z m 2.63516,-1.86424 c -0.434492,-0.0843 -0.831061,-0.19427 -0.881267,-0.24447 -0.187577,-0.18759 0.220278,-0.54429 0.778564,-0.68092 0.429784,-0.10521 0.577621,-0.0633 0.577621,0.16356 0,0.16769 0.18904,0.3649 0.420089,0.43824 0.458013,0.14536 0.582115,0.54001 0.157533,0.50095 -0.144405,-0.0133 -0.618048,-0.0931 -1.05254,-0.17736 z m 3.677931,-3.35545 c -1.022804,-0.74093 -1.487011,-1.84067 -1.063319,-2.51911 0.379665,-0.60795 0.599451,-0.54244 0.47755,0.14234 -0.119343,0.67038 0.510213,1.49283 1.557134,2.03422 0.719923,0.37229 0.883912,0.9589 0.268063,0.9589 -0.213716,0 -0.771458,-0.27736 -1.239428,-0.61635 z m 38.85831,-2.66279 c -0.259929,-0.40746 -0.469628,-0.85243 -0.465999,-0.98882 0.01201,-0.45146 0.949256,-0.94235 2.731946,-1.4309 1.078603,-0.2956 2.007589,-0.69707 2.398957,-1.03675 0.351293,-0.30488 0.875007,-0.67553 1.163818,-0.82369 l 0.525113,-0.26935 -0.472599,0.51465 c -0.259933,0.28305 -0.472599,0.57287 -0.472599,0.64403 0,0.0712 0.212666,0.16236 0.472599,0.20264 0.38941,0.0604 0.299338,0.15224 -0.511705,0.52199 -0.892529,0.40687 -1.014931,0.55184 -1.312775,1.55479 -0.180662,0.60835 -0.328476,1.23071 -0.328476,1.38304 0,0.15231 -0.15422,0.27694 -0.342719,0.27694 -0.278599,0 -0.321635,-0.15721 -0.230026,-0.84023 0.128332,-0.9568 0.107122,-0.95282 -1.331168,0.2491 -0.527292,0.44064 -1.047151,0.79717 -1.155242,0.79228 -0.108087,-0.004 -0.409195,-0.34226 -0.669125,-0.74972 z m 1.613885,-0.7431 c 0.9935,-0.61759 1.333242,-1.01882 0.862696,-1.01882 -0.335251,0 -2.094134,1.1286 -2.203647,1.41399 -0.161877,0.42183 0.196611,0.3162 1.340951,-0.39517 z m -35.847319,0.37981 c -0.773703,-0.3874 -1.263102,-2.44885 -0.581368,-2.44885 0.175035,0 0.315066,-0.1867 0.315066,-0.42009 0,-0.23104 0.09452,-0.42008 0.210043,-0.42008 0.115524,0 0.210044,0.47462 0.210044,1.05472 0,0.92627 0.06513,1.0844 0.534727,1.29836 0.363828,0.16577 0.51487,0.38182 0.4726,0.67599 -0.07187,0.50017 -0.493038,0.59447 -1.161112,0.25995 z m 4.702595,-0.0305 c -0.321032,-0.32103 -0.330246,-0.42261 -0.07392,-0.81493 0.264052,-0.40414 2.55337,-1.97912 2.92257,-2.01064 0.321531,-0.0275 -0.106719,0.60824 -0.492182,0.73058 -0.637421,0.2023 -1.527334,1.11858 -1.769441,1.82186 -0.209604,0.60886 -0.238066,0.62209 -0.587031,0.27313 z m 14.092601,-0.1247 c -0.208084,-0.1212 -0.367577,-0.463 -0.367577,-0.78774 0,-0.4415 -0.141821,-0.62718 -0.615651,-0.80603 -0.74303,-0.28047 -1.175521,-1.56823 -0.987466,-2.94024 0.157395,-1.14832 -0.266273,-1.31662 -0.752751,-0.29901 -0.425597,0.89026 -0.467723,1.86509 -0.129394,2.99433 0.262358,0.87567 0.06854,1.33912 -0.43094,1.03042 -0.180033,-0.11126 -0.326778,-0.73148 -0.393409,-1.66274 -0.100287,-1.40163 -0.06812,-1.54472 0.57128,-2.54113 0.566606,-0.88298 0.739649,-1.02264 1.056811,-0.8529 0.284927,0.15249 0.411839,0.11809 0.510226,-0.13831 0.24709,-0.64391 0.345672,-0.12647 0.145575,0.7641 -0.165123,0.73492 -0.127373,1.04274 0.215922,1.76058 0.776673,1.62404 0.909064,1.81514 1.257473,1.81514 0.221376,0 0.347502,0.17201 0.346531,0.4726 -8.34e-4,0.25992 0.06743,0.68527 0.151737,0.9452 0.165778,0.51116 -0.0011,0.58202 -0.578367,0.24573 z m -16.413141,-0.82761 c -0.34086,-0.85189 -0.439137,-2.43207 -0.205484,-3.30394 0.228751,-0.85358 0.431332,-0.49485 0.415151,0.73516 -0.01138,0.8652 0.117225,1.46277 0.45344,2.10691 0.572418,1.09665 0.583981,1.3063 0.07205,1.3063 -0.267769,0 -0.507426,-0.27528 -0.735153,-0.84443 z m 29.618694,0.46526 c -0.199848,-0.32336 0.257511,-1.76487 0.714182,-2.25097 0.554813,-0.59057 2.434436,-1.1064 2.778365,-0.76248 0.164215,0.16423 0.144731,0.25509 -0.0695,0.32415 -0.163724,0.0528 -0.65065,0.20448 -1.082059,0.33715 -0.944276,0.29038 -1.631127,1.09865 -1.631127,1.91948 0,0.57114 -0.453464,0.84753 -0.709866,0.43267 z m -24.391382,-0.46259 c -0.158778,-0.25691 1.905318,-2.47 2.111451,-2.26386 0.179063,0.17906 -1.558481,2.47549 -1.873023,2.47549 -0.0592,0 -0.166491,-0.0952 -0.238428,-0.21163 z m 3.525022,-2.36141 c -0.111739,-0.1444 -0.322367,-0.7034 -0.468053,-1.24222 -0.304215,-1.12513 -0.06843,-2.1783 0.628981,-2.80945 0.538783,-0.48759 0.800814,-0.22352 0.313031,0.31547 -0.378664,0.41843 -0.375563,1.35522 0.01098,3.31611 0.137712,0.69861 -0.106024,0.90975 -0.484935,0.42009 z m 2.553075,-0.68101 c 0.169686,-0.90451 1.165222,-2.86461 1.385722,-2.72833 0.262246,0.16207 -0.916947,3.46046 -1.237401,3.4612 -0.212951,4.8e-4 -0.250808,-0.18657 -0.148321,-0.73287 z"
       id="path2780"
       inkscape:connector-curvature="0" />
  </g>
</svg>
