<?xml version="1.0" encoding="UTF-8" standalone="no"?>
<!-- Created with Inkscape (http://www.inkscape.org/) -->

<svg
   xmlns:dc="http://purl.org/dc/elements/1.1/"
   xmlns:cc="http://creativecommons.org/ns#"
   xmlns:rdf="http://www.w3.org/1999/02/22-rdf-syntax-ns#"
   xmlns:svg="http://www.w3.org/2000/svg"
   xmlns="http://www.w3.org/2000/svg"
   xmlns:sodipodi="http://sodipodi.sourceforge.net/DTD/sodipodi-0.dtd"
   xmlns:inkscape="http://www.inkscape.org/namespaces/inkscape"
   width="105mm"
   height="146mm"
   viewBox="0 0 105 146"
   version="1.1"
   id="svg8"
   inkscape:version="0.92.3 (2405546, 2018-03-11)"
   sodipodi:docname="nothofagus_1_intermediate_04.svg">
  <defs
     id="defs2" />
  <sodipodi:namedview
     id="base"
     pagecolor="#ffffff"
     bordercolor="#666666"
     borderopacity="1.0"
     inkscape:pageopacity="0.0"
     inkscape:pageshadow="2"
     inkscape:zoom="0.7"
     inkscape:cx="-0.54686088"
     inkscape:cy="204.43158"
     inkscape:document-units="mm"
     inkscape:current-layer="layer1"
     showgrid="false"
     inkscape:pagecheckerboard="true"
     height="147mm"
     inkscape:window-width="1920"
     inkscape:window-height="1055"
     inkscape:window-x="381"
     inkscape:window-y="0"
     inkscape:window-maximized="1"
     inkscape:snap-global="false" />
  <metadata
     id="metadata5">
    <rdf:RDF>
      <cc:Work
         rdf:about="">
        <dc:format>image/svg+xml</dc:format>
        <dc:type
           rdf:resource="http://purl.org/dc/dcmitype/StillImage" />
        <dc:title></dc:title>
      </cc:Work>
    </rdf:RDF>
  </metadata>
  <g
     inkscape:label="Layer 1"
     inkscape:groupmode="layer"
     id="layer1"
     transform="translate(0,-151)">
    <path
       style="fill:#000000;stroke-width:0.1538429"
       d="m 57.656095,298.76176 c -0.0442,-0.0715 -0.1252,-0.40635 -0.18007,-0.74416 -0.1839,-1.13235 -0.23211,-1.27214 -0.47022,-1.36351 -0.15824,-0.0607 -0.28526,0.0359 -0.38213,0.29072 -0.27546,0.72451 -0.61426,0.36009 -0.61426,-0.6607 0,-0.30562 -0.0998,-1.3557 -0.22169,-2.33352 -0.46725,-3.74716 -0.57159,-4.93173 -0.64441,-7.31619 -0.13244,-4.33637 -0.28503,-3.38801 -0.38368,2.38456 -0.11736,6.86827 -0.21961,8.25974 -0.62273,8.47549 -0.15945,0.0853 -0.24927,0.22091 -0.1996,0.30127 0.0497,0.0804 0.0208,0.14613 -0.0642,0.14613 -0.0861,0 -0.13504,-0.28957 -0.11059,-0.65383 0.0242,-0.35961 -0.0185,-0.77831 -0.0947,-0.93044 -0.12693,-0.25327 -0.20342,-1.03242 -0.28246,-2.87717 l -0.0297,-0.6923 -0.14385,0.84614 c -0.0791,0.46537 -0.14099,0.99596 -0.13747,1.17909 0.008,0.3958 -0.57446,1.77271 -0.8175,1.93387 -0.54194,0.35935 -0.73447,-0.16595 -0.34025,-0.92834 1.00955,-1.95242 1.47209,-5.73015 1.22813,-10.03061 -0.18884,-3.32876 -0.14817,-7.88886 0.0899,-10.07671 0.24756,-2.27538 0.43728,-8.5375 0.28511,-9.41075 -0.22702,-1.30278 -0.15163,-9.63555 0.11459,-12.66571 0.0335,-0.38076 0.0959,-1.30373 0.13867,-2.05104 0.0428,-0.74732 0.14651,-1.61269 0.23045,-1.92304 0.0839,-0.31035 0.17276,-1.0981 0.19738,-1.75056 0.0571,-1.51198 0.20907,-1.46632 -2.8067,-0.84304 -0.6346,0.13116 -1.51727,0.28445 -1.96149,0.34066 -0.99281,0.1256 -1.06407,0.38099 -0.10631,0.38099 1.06903,0 0.6921,0.23791 -0.85213,0.53785 -0.94472,0.1835 -1.38767,0.3371 -1.38767,0.48122 0,0.25076 0.36308,0.27519 0.77933,0.0524 0.24754,-0.13248 0.29757,-0.10814 0.29757,0.14476 0,0.16722 -0.0692,0.34681 -0.15384,0.3991 -0.20512,0.12677 -0.19652,0.38461 0.0128,0.38461 0.0917,0 0.68535,-0.20769 1.31929,-0.46153 1.35077,-0.54087 1.22801,-0.51958 1.3383,-0.23216 0.0615,0.16034 -0.11378,0.32129 -0.58261,0.53487 -0.46525,0.21194 -0.71867,0.44331 -0.82749,0.75547 -0.1161,0.33303 -0.29009,0.47923 -0.66952,0.56257 -0.28195,0.0619 -0.73792,0.22002 -1.01325,0.35132 -0.41463,0.19772 -0.50061,0.32537 -0.50061,0.74326 0,0.61068 -0.32195,0.82187 -1.25909,0.82594 -0.365171,0.002 -1.317969,0.17466 -2.117331,0.38461 -0.799359,0.20995 -1.554347,0.38172 -1.677749,0.38172 -0.380693,0 -1.226957,-0.74624 -1.634084,-1.44095 l -0.387558,-0.66132 -0.885076,0.0588 c -0.486792,0.0324 -1.806764,0.16376 -2.933271,0.292 -2.254734,0.25669 -2.9517,0.19735 -2.9517,-0.2513 0,-0.22373 0.159182,-0.30924 0.730753,-0.39253 1.019436,-0.14856 3.423005,-1.07215 3.423005,-1.31533 0,-0.25748 -0.734611,-0.2425 -1.444522,0.0295 l -0.7862,0.30121 -0.269225,-0.32704 c -0.537219,-0.65257 -0.21177,-0.88678 1.405482,-1.01149 1.091327,-0.0842 1.293999,-0.0593 1.592864,0.19567 0.230679,0.19679 0.279259,0.21012 0.148856,0.0409 -0.272006,-0.35306 0.130853,-0.49461 0.557388,-0.19586 0.1743,0.12209 0.403131,0.2034 0.508514,0.1807 0.105383,-0.0227 0.218101,0.0799 0.250483,0.22796 0.03238,0.14807 -0.01951,0.26922 -0.115324,0.26922 -0.09581,0 -0.128688,-0.0736 -0.07306,-0.16366 0.06887,-0.11143 -0.08777,-0.12946 -0.49091,-0.0565 -0.713881,0.12919 -0.731762,0.14234 -0.613342,0.45093 0.07556,0.19692 0.15604,0.21064 0.416789,0.0711 0.177729,-0.0951 0.349097,-0.14699 0.380816,-0.11526 0.03172,0.0317 -0.181897,0.18669 -0.474704,0.34437 -0.720338,0.38793 -0.67431,0.58237 0.07525,0.31791 1.063439,-0.37521 1.238483,-0.51838 1.238483,-1.01295 0,-0.30038 0.09378,-0.49392 0.269226,-0.5556 0.148073,-0.0521 0.461151,-0.272 0.695728,-0.48877 0.539246,-0.49831 1.422186,-0.72679 3.650333,-0.94458 1.848986,-0.18074 4.806596,-0.58133 5.269126,-0.71368 0.15259,-0.0437 0.26922,-0.22524 0.26922,-0.41914 0,-0.32187 0.0659,-0.34225 1.11536,-0.34467 0.73169,-0.002 1.43289,-0.11372 2.03842,-0.32567 0.50769,-0.1777 1.11344,-0.3654 1.34613,-0.41711 0.32872,-0.073 0.42705,-0.1877 0.44091,-0.51415 0.0122,-0.28604 0.0412,-0.32965 0.0909,-0.13663 0.0528,0.2048 0.1653,0.25877 0.40522,0.1944 0.18267,-0.049 0.41645,-0.09 0.51951,-0.0912 0.10307,-0.001 0.29068,-0.19247 0.41691,-0.42516 0.227,-0.41843 0.22954,-0.41378 0.231,0.42307 8.7e-4,0.64781 -0.0353,0.78303 -0.15533,0.57691 -0.20253,-0.34773 -0.38825,-0.33951 -0.86875,0.0385 -0.21515,0.16923 -0.31261,0.30769 -0.21658,0.30769 0.27036,0 0.20595,0.42868 -0.0892,0.59388 -0.39901,0.2233 -0.72702,5.8307 -0.49338,8.43448 0.10756,1.19862 0.11534,1.96915 0.0216,2.13669 -0.11219,0.20047 -0.17248,0.0552 -0.25664,-0.61841 -0.0605,-0.48424 -0.15265,-0.8378 -0.20476,-0.78569 -0.15089,0.15089 -0.0274,3.9942 0.18435,5.73766 0.19347,1.59296 0.12854,1.92943 -0.30322,1.57111 -0.19766,-0.16404 -0.21586,0.48537 -0.14736,5.25588 0.043,2.99367 0.11142,5.8238 0.15206,6.28918 0.27111,3.10446 0.27089,3.07686 0.0246,3.07686 -0.17526,0 -0.26666,-0.24925 -0.35265,-0.96152 l -0.11608,-0.96152 -0.11092,0.69229 c -0.061,0.38076 -0.1091,1.62689 -0.10688,2.76918 l 0.004,2.07688 0.21602,-0.98787 c 0.11881,-0.54333 0.25032,-1.02216 0.29224,-1.06408 0.10443,-0.10442 0.0934,0.65563 -0.0236,1.62984 -0.0791,0.65855 -0.13596,0.7764 -0.30635,0.63499 -0.28745,-0.23856 -0.28566,0.11727 0.002,0.40496 0.17172,0.17172 0.19847,0.93994 0.14294,4.10431 -0.0376,2.14118 -0.0586,3.99689 -0.0467,4.12381 0.0119,0.12692 0.012,1.13075 3.1e-4,2.23072 -0.0212,1.98312 0.12489,4.4647 0.2551,4.33449 0.19438,-0.19439 0.36949,-3.35392 0.44059,-7.9498 0.0439,-2.83455 0.14687,-6.15756 0.22891,-7.38445 0.19102,-2.85647 0.48781,-12.5122 0.45198,-14.70448 -0.0151,-0.92388 0.005,-1.86825 0.0455,-2.09858 0.0402,-0.23033 0.0135,-0.38201 -0.0592,-0.33706 -0.0728,0.0449 -0.13227,-0.0587 -0.13227,-0.23022 0,-0.22321 0.0703,-0.28498 0.24703,-0.21715 0.21675,0.0832 0.23367,-0.0164 0.13797,-0.8125 -0.24493,-2.03729 -0.32576,-4.86044 -0.14743,-5.149 0.18447,-0.29847 0.52488,1.01741 0.54012,2.0879 0.007,0.50768 0.0661,1.05854 0.13091,1.22413 0.16802,0.42962 0.32215,-0.82435 0.32215,-2.62111 0,-1.41705 -0.0852,-1.66536 -0.5752,-1.67581 -0.10482,-0.002 -0.19136,-0.056 -0.1923,-0.11945 -8.8e-4,-0.0635 -0.002,-0.17385 -0.002,-0.24529 0,-0.0715 0.16638,-0.32354 0.36973,-0.5602 0.50497,-0.58767 0.53434,-0.84342 0.45066,-3.92518 -0.0494,-1.81813 -0.0225,-2.6423 0.0828,-2.53841 0.0858,0.0846 0.16499,0.56922 0.17605,1.0769 0.0111,0.50769 0.0643,1.40767 0.1183,1.99996 l 0.0982,1.0769 0.11103,-0.76921 c 0.0893,-0.6188 0.32359,-8.6583 0.32158,-11.03597 -8.7e-4,-0.96461 -0.19788,-1.97701 -0.36476,-1.87387 -0.10305,0.0637 -0.12037,-0.51587 -0.0516,-1.72776 0.21034,-3.70724 0.24417,-5.54285 0.1215,-6.59272 -0.11405,-0.9761 -0.16029,-1.08177 -0.49392,-1.12894 -0.34155,-0.0483 -0.36062,-0.015 -0.26447,0.46153 0.057,0.28246 0.14197,1.58662 0.18885,2.89813 0.0679,1.89972 0.0317,2.65044 -0.17821,3.69223 -0.35263,1.75023 -0.4374,2.83868 -0.26075,3.34808 0.0803,0.23159 0.10081,0.54893 0.0456,0.70521 -0.0919,0.25995 -0.11806,0.26291 -0.30742,0.0348 -0.11384,-0.13717 -0.1631,-0.29328 -0.10947,-0.34691 0.16977,-0.16977 -0.2308,-0.51042 -0.60021,-0.51042 -0.32725,0 -0.34383,0.039 -0.21193,0.49897 0.19175,0.66859 0.18227,0.73714 -0.0877,0.63356 -0.51416,-0.1973 -0.10709,0.87079 0.44434,1.16591 0.46591,0.24935 0.54038,0.64379 0.10912,0.57798 -0.74856,-0.11424 -1.48874,-1.46828 -1.335,-2.44217 0.0764,-0.48408 0.0308,-0.61174 -0.31608,-0.8846 -0.22296,-0.17537 -0.46829,-0.31887 -0.54517,-0.31887 -0.0769,0 -0.9009,-0.41537 -1.83112,-0.92306 -0.93023,-0.50768 -1.72336,-0.92305 -1.7625,-0.92305 -0.0391,0 -0.0712,0.11192 -0.0712,0.2487 0,0.18873 -0.0835,0.22155 -0.34615,0.13608 -0.19038,-0.0619 -0.51922,-0.10615 -0.73075,-0.0982 -1.86314,0.0697 -2.615334,-0.10655 -2.615334,-0.6129 0,-0.23717 0.116545,-0.28902 0.649604,-0.28902 0.60043,0 0.62635,-0.0163 0.34235,-0.21522 -0.31264,-0.21898 -0.735978,-0.29389 -1.488098,-0.26334 -0.38141,0.0155 -0.410896,0.0587 -0.326916,0.47856 0.0588,0.294 0.02949,0.46152 -0.08077,0.46152 -0.263063,0 -0.206741,0.32513 0.09615,0.55506 0.236197,0.1793 0.180806,0.20497 -0.451513,0.20927 -0.396407,0.003 -0.910346,-0.0672 -1.142086,-0.15531 -0.470923,-0.17904 -1.071426,-0.086 -1.495419,0.23179 -0.229131,0.17172 -0.249416,0.27061 -0.109235,0.53254 0.239553,0.44761 -0.202562,1.03076 -0.960135,1.26641 -0.653525,0.20329 -2.334647,-0.0244 -2.934023,-0.39732 -0.181779,-0.11311 -0.672737,-0.24907 -1.091016,-0.30212 -0.418279,-0.0531 -0.902884,-0.22219 -1.0769,-0.37584 -0.174016,-0.15365 -0.524081,-0.29221 -0.777922,-0.3079 -0.625373,-0.0386 -2.710737,-0.61887 -2.956073,-0.82248 -0.108738,-0.0902 -0.197706,-0.21398 -0.197706,-0.27495 0,-0.061 0.77883,-0.11453 1.730733,-0.11899 1.297358,-0.006 2.000264,-0.0892 2.807143,-0.33182 0.617124,-0.18559 1.503503,-0.32371 2.077369,-0.32371 1.33117,0 3.692229,-0.67343 3.692229,-1.05311 0,-0.0656 -0.215903,-0.34005 -0.479783,-0.60996 -0.366788,-0.37516 -0.611355,-0.49017 -1.03844,-0.48837 -0.802951,0.003 -1.138615,0.24899 -0.550633,0.40289 0.249428,0.0653 0.578785,0.0996 0.731904,0.0763 0.41996,-0.064 0.768308,0.27679 0.550798,0.53887 -0.239632,0.28874 -0.800712,0.26407 -2.213782,-0.0973 -0.661672,-0.16923 -1.304287,-0.30769 -1.428033,-0.30769 -0.361668,0 0.09932,0.46824 0.713907,0.72514 0.784439,0.32789 0.439883,0.43571 -0.385307,0.12057 -0.709496,-0.27096 -2.57261,-1.81459 -2.399314,-1.98789 0.04871,-0.0487 0.487893,-0.0886 0.975964,-0.0886 1.185222,0 1.728672,-0.2091 1.599687,-0.61549 -0.09233,-0.2909 -0.02744,-0.30757 1.197457,-0.30757 1.423952,0 2.560047,-0.26723 2.025417,-0.47643 -0.164902,-0.0645 -0.626224,-0.12218 -1.025162,-0.12812 -0.808077,-0.012 -1.144636,-0.35753 -0.981499,-1.00753 0.05449,-0.21711 3.84e-4,-0.42581 -0.140761,-0.54295 -0.457903,-0.38003 -0.264764,-0.57132 0.501476,-0.49668 0.401914,0.0392 0.85452,0.13641 1.00579,0.21614 0.15127,0.0797 0.414202,0.10081 0.584293,0.0468 0.170092,-0.054 0.392472,-0.031 0.494179,0.0511 0.101706,0.0821 0.461838,0.18765 0.800292,0.23459 0.338454,0.0469 1.08267,0.20704 1.653811,0.3558 0.797165,0.20762 1.03844,0.33479 1.03844,0.54733 0,0.18293 -0.117453,0.27875 -0.346147,0.28241 -0.680859,0.0109 0.44098,0.6955 1.477164,0.90146 1.1735,0.23326 1.15897,0.22429 1.86265,1.14895 0.5001,0.65717 0.64668,1.02849 0.68796,1.74279 0.006,0.10089 0.35668,0.37781 0.77966,0.61538 0.42298,0.23756 0.76913,0.48386 0.76921,0.54732 9e-5,0.0635 0.062,0.11538 0.1377,0.11538 0.0756,0 0.95832,0.48763 1.96149,1.08362 1.69773,1.00862 2.44007,1.35149 2.59362,1.19794 0.0347,-0.0347 -0.0359,-1.04895 -0.1568,-2.25396 -0.12092,-1.20501 -0.21026,-2.75992 -0.19854,-3.45537 0.0179,-1.06263 -0.0612,-1.50997 -0.49552,-2.80287 -0.48201,-1.43479 -0.81445,-2.07688 -1.0753,-2.07688 -0.0599,0 -0.0899,0.17278 -0.0667,0.38395 0.0232,0.21117 -0.0119,0.41737 -0.0781,0.45823 -0.0661,0.0409 -0.1283,-0.2852 -0.1382,-0.72457 -0.0143,-0.63514 -0.0978,-0.87864 -0.40732,-1.18817 -0.35998,-0.35998 -0.4994,-0.39011 -1.85015,-0.39983 -0.90877,-0.007 -1.52983,-0.0795 -1.64343,-0.19312 -0.14091,-0.14091 -0.10325,-0.1826 0.16493,-0.1826 0.19251,0 0.30512,-0.0686 0.25245,-0.15384 -0.15594,-0.25233 -0.99998,-0.1874 -0.99998,0.0769 0,0.2651 -0.56583,0.30859 -1.10812,0.0852 -0.19436,-0.0801 -0.75145,-0.25509 -1.23798,-0.3889 -0.70417,-0.19369 -0.884597,-0.30662 -0.884597,-0.55368 0,-0.27123 0.06772,-0.29765 0.537128,-0.20959 0.966499,0.18132 1.075599,0.16136 1.127839,-0.20629 0.0388,-0.27309 -0.0544,-0.38654 -0.42299,-0.51504 -0.30954,-0.10791 -0.472763,-0.26825 -0.472763,-0.46441 0,-0.25652 0.07411,-0.28571 0.515203,-0.20296 l 0.5152,0.0967 0.10084,-0.96478 c 0.0662,-0.63375 0.0434,-1.00032 -0.0667,-1.06834 -0.0922,-0.057 -0.35745,-0.48003 -0.58955,-0.94017 l -0.421999,-0.83662 0.550419,0.0319 c 0.30273,0.0175 0.86195,0.1752 1.24271,0.35038 0.38076,0.17519 0.9132,0.32004 1.1832,0.3219 0.27,0.002 0.5337,0.0726 0.58599,0.15722 0.0523,0.0846 0.24677,0.1549 0.43215,0.1562 0.59402,0.004 0.75362,0.20935 0.63882,0.82131 -0.0611,0.32554 -0.19488,0.56092 -0.31887,0.56092 -0.11751,0 -0.21365,0.1117 -0.21365,0.24823 0,0.25184 0.50565,0.2498 1.09515,-0.004 0.39906,-0.17209 0.48704,0.4773 0.10127,0.7475 -0.37699,0.26406 -0.25935,0.77647 0.15158,0.66024 0.71034,-0.20092 0.72853,-0.19367 0.77706,0.30945 0.0367,0.38096 0.13713,0.52182 0.42307,0.59358 0.3806,0.0955 0.51947,0.5686 0.22105,0.75304 -0.0846,0.0523 -0.15384,0.16808 -0.15384,0.25731 0,0.17557 1.15386,0.0536 1.79359,-0.18967 0.50671,-0.19265 0.45975,-0.64572 -0.32449,-3.13049 -0.1311,-0.41537 -0.23836,-1.01922 -0.23836,-1.3419 0,-0.68914 -1.34165,-3.24131 -1.64816,-3.13524 -0.17076,0.0591 -0.26022,-0.22779 -0.38324,-1.22907 -0.0208,-0.16922 0.0168,-0.39479 0.0836,-0.50126 0.13844,-0.22074 -0.24478,-2.01106 -0.6995,-3.26789 -0.16837,-0.46537 -0.43448,-1.35632 -0.59136,-1.97988 -0.15688,-0.62357 -0.31583,-1.16434 -0.35321,-1.20173 -0.0374,-0.0374 -0.47334,-0.10765 -0.96877,-0.15614 -0.59029,-0.0578 -1.41018,-0.31966 -2.37854,-0.75977 -1.641461,-0.74602 -1.716159,-0.76324 -1.972283,-0.45462 -0.142639,0.17187 -0.09058,0.3239 0.250388,0.73126 0.742172,0.88666 1.062855,1.47079 0.897755,1.63526 -0.06,0.0598 -0.249153,-0.0643 -0.42025,-0.27586 -0.171096,-0.21154 -0.584041,-0.68112 -0.917654,-1.04351 -0.574312,-0.62386 -0.63472,-0.65113 -1.135971,-0.51273 -0.636484,0.17575 -0.835199,-0.0235 -0.449028,-0.45021 0.323133,-0.35705 0.291871,-0.37151 -1.313535,-0.60724 -1.608376,-0.23617 -4.046195,-0.88569 -4.230679,-1.1272 -0.08461,-0.11078 -0.406984,-0.20053 -0.716378,-0.19945 -0.593257,0.002 -1.052816,-0.26517 -1.052816,-0.61221 0,-0.31354 1.339095,-0.64422 2.424466,-0.5987 0.529626,0.0222 0.998733,-0.0175 1.042459,-0.0883 0.137116,-0.22186 1.378317,-1.01185 1.737245,-1.10571 0.344833,-0.0902 1.560435,0.3253 1.563353,0.53434 9.16e-4,0.0617 -0.16621,0.0356 -0.371269,-0.0578 -0.408854,-0.18629 -1.473281,-0.0538 -1.473281,0.18344 0,0.0808 -0.127729,0.14687 -0.283842,0.14687 -0.156113,0 -0.409146,0.13846 -0.562294,0.30769 -0.240772,0.26605 -0.245486,0.30768 -0.03483,0.30768 0.133991,0 0.355917,-0.1123 0.493169,-0.24955 0.193206,-0.1932 0.416857,-0.22735 0.99056,-0.15125 0.407556,0.0541 0.900382,0.0393 1.095168,-0.0327 0.194787,-0.0721 0.632127,-0.0802 0.971866,-0.0181 0.339739,0.0621 0.760695,0.0551 0.935454,-0.0157 0.174759,-0.0707 0.231209,-0.13301 0.125442,-0.13838 -0.105767,-0.005 -0.192304,-0.11277 -0.192304,-0.23869 0,-0.14835 0.217825,-0.26378 0.618781,-0.3279 0.79292,-0.12679 0.906016,-0.31367 0.267159,-0.44145 -0.275733,-0.0551 -0.847479,-0.21307 -1.270547,-0.35095 -0.423068,-0.13787 -0.890366,-0.23249 -1.03844,-0.21026 -0.148073,0.0222 -0.269225,-0.0307 -0.269225,-0.11769 0,-0.1824 0.537175,-0.50352 0.651333,-0.38936 0.08336,0.0833 3.295318,-0.31272 4.230418,-0.52167 0.31882,-0.0712 0.84966,-0.0977 1.17965,-0.0588 0.48063,0.0567 0.64895,0.006 0.84614,-0.25336 0.22645,-0.29815 0.43081,-0.32956 2.55379,-0.3925 2.78136,-0.0825 2.53841,-0.059 2.53841,-0.24551 0,-0.0846 -0.16899,-0.15385 -0.37553,-0.15385 -0.20653,0 -0.41831,-0.0692 -0.4706,-0.15384 -0.0523,-0.0846 -0.42867,-0.15384 -0.83638,-0.15384 -0.47125,0 -0.81107,-0.0841 -0.93282,-0.23077 -0.15975,-0.19249 -0.13867,-0.23076 0.12708,-0.23076 0.17523,0 0.49818,-0.16643 0.71766,-0.36984 0.35334,-0.32746 0.59758,-0.38224 2.13142,-0.47808 2.16169,-0.13507 3.901,0.0919 4.29292,0.56028 0.34937,0.4175 0.34059,0.59532 -0.0294,0.59532 -0.7073,0 -0.49256,0.69818 0.37155,1.20802 0.29834,0.17602 0.54243,0.42621 0.54243,0.55599 0,0.17736 0.17326,0.23595 0.6977,0.23595 0.66314,0 0.68906,-0.0162 0.52321,-0.32605 -0.096,-0.17932 -0.44455,-0.43213 -0.77463,-0.56178 -0.33007,-0.12966 -0.60012,-0.29133 -0.60012,-0.35928 0,-0.13155 0.6095,-0.25883 1.61535,-0.33733 l 0.61537,-0.048 -0.50698,-0.20123 c -0.27884,-0.11068 -0.4809,-0.2799 -0.44901,-0.37605 0.0736,-0.22205 1.26162,-0.4078 1.91751,-0.29981 0.53066,0.0874 0.69436,0.35576 0.21699,0.35576 -0.15564,0 -0.36015,0.16934 -0.45445,0.37631 -0.11065,0.24286 -0.39219,0.44245 -0.79391,0.56281 -0.69334,0.20772 -0.77081,0.35524 -0.31476,0.59931 0.21347,0.11425 0.30769,0.32212 0.30769,0.67887 0,0.28281 0.10384,0.60038 0.23076,0.70572 0.56477,0.46872 -0.0544,1.23074 -0.99998,1.23074 -0.64809,0 -0.76773,0.14356 -0.3846,0.46153 0.59914,0.49725 -0.0591,1.0769 -1.22294,1.0769 -0.2666,0 -0.55049,0.0643 -0.63087,0.14287 -0.0804,0.0786 -0.38846,0.16512 -0.6846,0.19231 -0.47445,0.0436 -0.58535,0.14185 -0.93302,0.82702 -0.69749,1.37457 -1.42049,2.58458 -2.08928,3.49654 -0.3588,0.48928 -0.6972,1.04311 -0.75201,1.23075 -0.0548,0.18763 -0.26644,0.76833 -0.47031,1.29044 -0.20387,0.52212 -0.37067,1.21708 -0.37067,1.54437 0,0.32728 -0.13628,0.86237 -0.30285,1.18908 l -0.30285,0.59402 0.54446,1.26738 c 0.43758,1.01857 0.59884,1.25317 0.82143,1.19496 0.19592,-0.0512 0.30425,0.0363 0.37025,0.29927 0.10588,0.42188 0.68097,1.43733 1.32813,2.34513 0.24092,0.33794 0.37645,0.65251 0.30118,0.69903 -0.0753,0.0465 0.0654,0.87769 0.31268,1.84703 0.24724,0.96935 0.48916,1.95284 0.5376,2.18552 0.0904,0.43431 0.38988,0.59374 0.38988,0.20755 0,-0.31244 1.37347,-2.09212 1.61459,-2.09212 0.33309,0 2.3005,-2.47694 2.1394,-2.69347 -0.62667,-0.84227 -0.74307,-1.11938 -0.79902,-1.90214 -0.0907,-1.2685 0.59803,-3.66561 1.28743,-4.48112 0.10729,-0.12692 0.24004,-0.41098 0.29499,-0.63124 l 0.0999,-0.40048 -1.66482,-0.10514 c -1.11994,-0.0707 -1.83103,-0.0471 -2.17266,0.0721 -0.27932,0.0975 -0.54525,0.13986 -0.59096,0.0942 -0.19322,-0.19322 0.13316,-0.66718 0.57402,-0.83359 0.26609,-0.10044 0.43185,-0.25105 0.37591,-0.34156 -0.13754,-0.22255 -1.27262,-0.20504 -1.34789,0.0208 -0.0394,0.11808 -0.17782,0.0658 -0.3915,-0.14791 -0.28581,-0.28581 -0.30807,-0.39519 -0.16435,-0.80748 0.12291,-0.35257 0.23164,-0.45018 0.41714,-0.37446 0.50027,0.20425 2.63129,0.41297 3.17497,0.31098 0.77258,-0.14494 0.60057,-0.46077 -0.28232,-0.51837 -0.59933,-0.0391 -0.71873,-0.0978 -0.71873,-0.35312 0,-0.26632 0.0799,-0.29706 0.61321,-0.23579 0.33726,0.0388 0.95294,-0.0382 1.36818,-0.17098 0.74458,-0.23811 0.75278,-0.2477 0.59624,-0.69674 -0.14544,-0.41722 -0.11545,-0.48921 0.35852,-0.86048 0.28449,-0.22285 0.69214,-0.41885 0.90589,-0.43557 0.87963,-0.0688 1.38862,-0.2256 1.38862,-0.42773 0,-0.23336 0.20481,-0.31365 1.19148,-0.46707 0.35916,-0.0559 0.69396,-0.16779 0.74399,-0.24875 0.14379,-0.23265 -0.2457,-0.59525 -0.63941,-0.59525 -0.55134,0 -1.16004,-0.33192 -1.10827,-0.60433 0.0294,-0.15493 0.26651,-0.26944 0.65983,-0.31872 0.52908,-0.0663 0.6205,-0.13421 0.66176,-0.49163 0.0466,-0.40379 0.0684,-0.41227 0.82845,-0.32225 0.62936,0.0745 0.76692,0.0506 0.70999,-0.12375 -0.0388,-0.11891 -0.27318,-0.30633 -0.52078,-0.41649 -0.74708,-0.33241 -0.85933,-0.40844 -0.83995,-0.56892 0.0103,-0.0853 0.35038,-0.13542 0.76353,-0.11248 0.59336,0.033 0.76607,-0.0137 0.84884,-0.22941 0.0684,-0.17826 -0.004,-0.35852 -0.21319,-0.52756 -0.4347,-0.35199 -0.39754,-0.46118 0.0934,-0.27451 0.77654,0.29524 1.06707,1.07201 0.55099,1.47315 -0.25602,0.19899 -0.25566,0.2198 0.007,0.42389 0.27603,0.21422 0.49369,0.18286 1.60498,-0.23125 0.46059,-0.17164 0.29167,-0.58717 -0.28562,-0.70263 -0.28261,-0.0565 -0.4421,-0.1845 -0.4421,-0.35476 0,-0.22225 0.20788,-0.28367 1.25582,-0.37107 0.80204,-0.0669 1.31347,-0.0471 1.41536,0.0548 0.11015,0.11014 -0.0564,0.15953 -0.53789,0.15953 -0.85118,0 -0.96425,0.0921 -0.58204,0.47435 0.44581,0.44581 0.37678,0.90604 -0.16666,1.11117 -0.25384,0.0958 -0.46153,0.22685 -0.46153,0.2912 0,0.0643 0.29423,0.26492 0.65383,0.44572 0.35961,0.18081 0.77788,0.43787 0.9295,0.57125 0.25148,0.22123 0.34763,0.21805 1.09595,-0.0363 0.45116,-0.15336 1.22709,-0.5843 1.7243,-0.95765 1.13512,-0.85236 1.37888,-0.91172 2.72985,-0.66471 1.48695,0.27188 1.78946,0.39756 1.78946,0.74344 0,0.42038 -0.61005,0.76329 -1.86008,1.04559 -0.71559,0.1616 -1.11441,0.33101 -1.16611,0.49535 -0.15412,0.48991 -0.42942,0.9738 -0.75213,1.32202 -0.32071,0.34604 -1.72117,0.85077 -2.36061,0.85077 -0.17736,0 -0.32248,0.0773 -0.32248,0.17179 0,0.0976 -0.13657,0.13607 -0.31613,0.0891 -0.2358,-0.0617 -0.35307,0.0145 -0.46152,0.29976 -0.20434,0.53743 -0.20163,0.54115 0.35459,0.48752 0.38622,-0.0372 0.48908,-0.11218 0.45204,-0.32938 -0.0368,-0.21576 0.0348,-0.26944 0.30769,-0.23076 0.25197,0.0357 0.36917,0.16703 0.40209,0.45054 0.064,0.55137 -0.43254,0.83999 -1.6291,0.94685 -1.00038,0.0893 -1.4173,0.29251 -1.4173,0.69065 0,0.19737 0.0375,0.20021 0.25957,0.0196 0.2285,-0.18587 0.24691,-0.17741 0.15384,0.0707 -0.0581,0.155 -0.10572,0.35288 -0.10572,0.43975 0,0.0913 -0.16089,0.11756 -0.38108,0.0623 -0.32055,-0.0804 -0.44482,8.8e-4 -0.78256,0.51105 -0.22081,0.33368 -0.37561,0.73267 -0.344,0.88665 0.0486,0.23638 0.13441,0.19681 0.5518,-0.25433 0.4989,-0.53923 0.67711,-0.48746 0.27892,0.081 -0.18207,0.25993 -0.183,0.35182 -0.006,0.59384 0.18705,0.25581 0.2633,0.26497 0.71538,0.086 0.62783,-0.24857 1.04447,-0.59393 1.04447,-0.8658 0,-0.12834 0.17912,-0.20692 0.47164,-0.20692 0.2594,0 0.62029,-0.0796 0.80198,-0.17679 l 0.33033,-0.17679 -0.35187,-0.13017 c -0.43587,-0.16123 -0.38937,-0.69643 0.0537,-0.61776 0.16204,0.0288 0.65947,0.007 1.1054,-0.049 l 0.81078,-0.1013 -0.089,-0.64927 c -0.0683,-0.49809 -0.0287,-0.69936 0.17014,-0.86434 0.35798,-0.2971 1.37883,-0.0135 2.30738,0.641 0.66277,0.46716 0.73422,0.48459 1.20089,0.29299 1.24739,-0.51217 1.75525,-0.32921 0.88079,0.31731 -0.57982,0.42868 -0.59608,0.74435 -0.0385,0.74658 0.96626,0.004 1.57689,0.18702 1.57689,0.47299 0,0.37627 -0.96829,0.57407 -1.33888,0.27351 -0.21978,-0.17825 -0.23903,-0.17726 -0.12824,0.007 0.10749,0.17835 0.0249,0.19548 -0.47046,0.0976 -0.77325,-0.15279 -0.96822,-0.14409 -2.44694,0.10917 -1.38041,0.23643 -1.92304,0.47145 -1.92304,0.83289 0,0.20642 0.12767,0.22872 0.80768,0.14109 0.44422,-0.0572 1.01536,-0.16554 1.2692,-0.24066 1.36322,-0.40339 1.81422,-0.48062 1.95933,-0.33551 0.23497,0.23497 0.0207,0.44184 -0.57304,0.55323 -0.53321,0.10003 -0.68603,0.28675 -0.38631,0.472 0.0846,0.0523 0.15384,0.22327 0.15384,0.37996 0,0.49386 -1.23554,0.95034 -3.30407,1.2207 l -1.87795,0.24545 -0.87295,0.79862 c -0.96612,0.88387 -1.64666,1.09059 -2.99952,0.91112 -0.40168,-0.0533 -1.05201,-0.0528 -1.44516,8.7e-4 -0.62912,0.0862 -0.85874,0.23865 -1.91513,1.27118 -1.25132,1.22309 -1.73876,1.78149 -1.73876,1.99195 0,0.0684 -0.20769,0.357 -0.46153,0.64132 -0.25384,0.28432 -0.46153,0.57371 -0.46153,0.64309 0,0.0694 -0.0865,0.12668 -0.1923,0.12736 -0.10577,4.3e-4 -0.64229,0.56135 -1.19228,1.24596 -0.54999,0.68461 -1.11183,1.35904 -1.24852,1.49874 -0.64351,0.65764 -2.04336,4.44827 -1.87727,5.08342 0.0421,0.16108 0.007,0.42284 -0.078,0.58171 -0.085,0.15886 -0.19779,0.94477 -0.2506,1.74646 -0.0528,0.80169 -0.13198,1.64141 -0.17594,1.86604 -0.0831,0.42455 0.14651,0.7228 0.32904,0.42746 0.0575,-0.093 0.49173,-0.41682 0.96498,-0.71955 1.11804,-0.71521 1.89629,-1.39758 2.9799,-2.61282 0.31166,-0.34953 0.72704,-0.7204 0.92305,-0.82416 0.85475,-0.45246 1.6383,-1.25446 1.94379,-1.98955 l 0.31859,-0.7666 h -0.52228 c -0.75689,0 -0.93479,-0.40606 -0.38177,-0.87139 0.23489,-0.19764 0.56436,-0.35935 0.73217,-0.35935 0.1678,0 0.3906,-0.10303 0.4951,-0.22895 0.15545,-0.18729 0.13789,-0.24528 -0.0965,-0.31878 -0.96642,-0.303 -0.98507,-0.65023 -0.0525,-0.97742 0.94825,-0.3327 1.07362,-0.43411 1.07362,-0.86849 0,-0.2679 0.0848,-0.37553 0.2957,-0.37553 0.16263,0 0.53815,-0.28325 0.83448,-0.62944 0.42354,-0.49482 0.60841,-0.60734 0.86435,-0.52611 0.37557,0.1192 2.09212,-0.69533 2.47062,-1.17235 0.12896,-0.16252 0.50972,-0.33416 0.84614,-0.38141 0.33641,-0.0472 0.93603,-0.2185 1.33247,-0.38057 0.90611,-0.37042 1.12754,-0.3688 1.66246,0.0121 0.23695,0.16872 0.69726,0.36212 1.02292,0.42978 0.81192,0.1687 0.85426,0.54876 0.10346,0.92887 -0.32265,0.16335 -0.82792,0.34914 -1.12282,0.41286 -0.29491,0.0637 -0.69065,0.21708 -0.87941,0.34076 -0.20204,0.13238 -0.61431,0.2071 -1.00224,0.18164 -0.36246,-0.0238 -1.04921,0.0762 -1.52612,0.2223 -0.47691,0.14605 -0.9269,0.25472 -0.99998,0.2415 -0.35232,-0.0638 -0.53434,0.0368 -0.50944,0.28161 0.0638,0.62695 0.0103,0.66861 -0.78636,0.61307 -0.42807,-0.0298 -0.81292,0.002 -0.85521,0.0702 -0.0423,0.0684 0.031,0.12443 0.16294,0.12443 0.30527,0 0.31023,0.49455 0.0108,1.07364 -0.23904,0.46224 -0.72185,0.71465 -1.01749,0.53193 -0.15722,-0.0972 -0.43765,0.16948 -0.44335,0.42157 -0.005,0.2167 0.57266,0.20538 1.613,-0.0316 1.06097,-0.2417 1.07635,-0.25232 1.04026,-0.71802 -0.034,-0.43825 0.0117,-0.48487 0.62733,-0.63987 0.36517,-0.092 1.05995,-0.21373 1.54395,-0.27061 0.60795,-0.0715 1.06755,-0.2393 1.48668,-0.54292 0.66973,-0.48515 0.85949,-0.5342 0.95618,-0.24718 0.0356,0.10577 -0.2182,0.45519 -0.56409,0.77649 -0.54881,0.5098 -0.57991,0.57157 -0.24426,0.48515 0.21153,-0.0545 0.76382,-0.26881 1.2273,-0.47632 0.74877,-0.33524 0.86212,-0.35073 1.01694,-0.139 0.2797,0.38251 0.74752,0.27794 1.36599,-0.30535 0.45178,-0.42609 0.62207,-0.50576 0.7875,-0.36846 0.26502,0.21995 0.11085,0.52904 -0.56327,1.12926 -0.61523,0.5478 -1.21018,0.68473 -2.22303,0.51165 -0.63818,-0.10906 -0.90223,-0.0768 -1.51272,0.1849 -0.40678,0.17436 -0.96472,0.31703 -1.23988,0.31703 -0.27516,0 -0.9098,0.1313 -1.4103,0.29179 -2.3069,0.73971 -3.80174,1.11243 -4.29206,1.07019 -0.66097,-0.0569 -0.75396,0.0406 -1.0587,1.1106 -0.15629,0.5488 -0.43606,1.05484 -0.77755,1.40647 -0.65288,0.67225 -1.6277,2.17142 -1.6277,2.50323 0,0.13383 -0.21007,0.44869 -0.46684,0.69968 -0.47782,0.46708 -0.29498,0.63899 0.24513,0.23047 0.16424,-0.12423 0.38517,-0.22807 0.49093,-0.23077 0.38498,-0.01 0.17666,0.44382 -0.49999,1.08871 -0.69332,0.66077 -0.91558,1.13623 -0.44712,0.95647 0.13483,-0.0517 0.55969,-0.43033 0.9441,-0.84131 0.69711,-0.74526 1.11837,-0.94394 1.11837,-0.52745 0,0.12087 -0.0865,0.31497 -0.1923,0.43132 -0.10577,0.11635 -0.38836,0.42523 -0.62799,0.6864 -0.58502,0.63764 -0.26055,0.81592 0.37666,0.20697 0.56678,-0.54164 1.05901,-0.61774 1.05901,-0.16373 0,0.25555 0.0733,0.28917 0.46153,0.21154 0.39592,-0.0792 0.46152,-0.0463 0.46152,0.23167 0,0.22637 -0.12747,0.35446 -0.42306,0.42511 -0.63827,0.15256 -0.67014,0.19837 -0.41208,0.59222 0.20085,0.30654 0.20481,0.38391 0.0252,0.49197 -0.49532,0.29791 -0.39376,0.59716 0.30006,0.88413 0.42389,0.17532 0.74051,0.22887 0.82916,0.14023 0.0789,-0.0789 0.24209,-0.52232 0.36272,-0.98542 0.19311,-0.74143 1.29551,-3.20369 1.82117,-4.06767 0.5168,-0.84944 0.92908,-1.30447 1.1819,-1.30447 0.15373,0 0.39398,-0.1747 0.53388,-0.38822 0.13991,-0.21352 0.52863,-0.49796 0.86383,-0.63208 0.33521,-0.13412 0.61629,-0.32288 0.62462,-0.41946 0.008,-0.0966 0.0256,-0.34595 0.0385,-0.55416 0.0218,-0.35451 0.0819,-0.38015 0.94636,-0.40354 0.50768,-0.0137 0.99228,-0.0451 1.0769,-0.0697 0.0846,-0.0246 0.49967,0.10991 0.92235,0.29888 0.4452,0.19903 0.91443,0.3067 1.11536,0.25594 1.1132,-0.28127 1.11607,-0.28134 1.11607,-0.0238 0,0.13944 -0.10384,0.29338 -0.23077,0.34208 -0.29056,0.11151 -0.30197,0.36332 -0.0164,0.36332 0.11787,0 0.26009,0.11933 0.31606,0.26517 0.1326,0.34555 -0.29228,0.6564 -0.90592,0.66278 -0.25882,0.003 -0.60096,0.10361 -0.76031,0.22426 -0.25121,0.1902 -0.36175,0.18928 -0.8313,-0.007 -0.29786,-0.12445 -0.54824,-0.20806 -0.5564,-0.1858 -0.13668,0.37283 -0.42112,0.66585 -0.68439,0.70502 -0.5619,0.0836 -0.39696,0.48929 0.19894,0.48929 0.29116,0 0.57488,0.0736 0.63052,0.16365 0.0679,0.10986 -0.0682,0.13198 -0.41399,0.0673 -3.68354,-0.68894 -4.41555,-0.50964 -5.33797,1.30746 -0.55006,1.08358 -1.10012,2.49072 -1.10012,2.81427 0,0.0793 0.16866,0.0336 0.37479,-0.10144 0.71242,-0.4668 1.48138,-0.86672 1.66831,-0.86766 0.10319,-4.4e-4 0.39094,-0.10698 0.63944,-0.23656 0.2485,-0.12958 0.76086,-0.30486 1.13857,-0.38951 0.37771,-0.0847 0.88931,-0.32434 1.13687,-0.53266 0.24758,-0.20831 0.53135,-0.37981 0.63063,-0.38111 0.4701,-0.006 0.57386,-0.24051 0.32624,-0.73687 -0.13378,-0.26818 -0.20178,-0.55469 -0.1511,-0.63668 0.14447,-0.23377 0.55327,-0.004 0.70563,0.39691 0.0965,0.25379 0.25926,0.36363 0.53889,0.36363 0.36512,0 0.39165,0.0409 0.29927,0.46152 -0.0557,0.25384 -0.0439,0.45973 0.0263,0.45753 0.0702,-0.002 0.64439,-0.17528 1.27603,-0.38461 0.63162,-0.20933 1.2294,-0.3806 1.32839,-0.3806 0.10213,0 0.22438,0.35534 0.28261,0.82145 0.0935,0.748 0.15104,0.84453 0.64387,1.07955 0.7149,0.34091 0.63556,0.69847 -0.24951,1.12443 -0.58899,0.28346 -0.93335,0.32938 -2.30765,0.30769 -1.38426,-0.0219 -1.72539,-0.0805 -2.38457,-0.41011 -0.5901,-0.29505 -0.7701,-0.46822 -0.77305,-0.74372 -0.006,-0.5325 -0.35485,-0.64225 -1.32543,-0.41663 -0.9109,0.21174 -2.78137,1.2181 -3.27231,1.76058 -0.16069,0.17756 -0.42496,0.32283 -0.58728,0.32283 -0.19776,0 -0.27809,0.0884 -0.2435,0.26804 0.0577,0.29976 0.60222,0.45543 1.68925,0.48297 0.88796,0.0225 2.62647,0.45404 2.77924,0.68986 0.0622,0.096 0.11409,0.29524 0.11538,0.44284 0.002,0.22707 -0.1258,0.26257 -0.8307,0.23076 -0.62008,-0.028 -0.795,0.008 -0.6842,0.14177 0.21838,0.26312 -0.21364,0.35409 -1.59552,0.33597 -1.3813,-0.0181 -1.83975,0.19707 -2.18612,1.02606 -0.21718,0.51976 -0.67958,1.19557 -1.47019,2.1487 -0.63711,0.76808 -2.93511,3.00208 -3.08808,3.00208 -0.0784,0 -0.14262,0.13437 -0.14262,0.2986 0,0.35551 -0.25118,0.55431 -0.35283,0.27927 -0.0425,-0.11501 -0.6031,0.33622 -1.38449,1.1144 -0.72218,0.71921 -1.45973,1.41151 -1.63899,1.53843 -0.40299,0.28532 -0.44426,0.58979 -0.55254,4.07684 -0.0473,1.52304 -0.14885,3.01147 -0.22568,3.30762 -0.0768,0.29615 -0.16894,1.18428 -0.20468,1.97364 -0.0358,0.78936 -0.13936,1.50956 -0.23026,1.60046 -0.0957,0.0957 -0.11251,0.26862 -0.0399,0.41092 0.069,0.13511 0.17087,0.43604 0.2265,0.66873 0.0765,0.32023 0.0443,0.42306 -0.13257,0.42306 -0.12853,0 -0.23369,0.0733 -0.23369,0.16293 0,0.0896 0.0692,0.12013 0.15384,0.0678 0.0846,-0.0523 0.15384,-0.0133 0.15384,0.0867 0,0.38928 0.45489,-0.20254 0.55151,-0.71751 0.0928,-0.49466 0.26826,-0.66365 0.42323,-0.40761 0.0384,0.0635 -0.0588,0.52936 -0.21598,1.03534 -0.1572,0.50597 -0.36051,1.7521 -0.4518,2.76917 -0.0913,1.01707 -0.23708,2.36843 -0.32395,3.00304 -0.15851,1.15802 -0.38782,6.0519 -0.51901,11.07668 -0.0386,1.48074 -0.10517,3.83454 -0.14782,5.23067 -0.0426,1.39612 -0.0191,2.95378 0.0522,3.46146 0.0714,0.50768 0.13881,0.73268 0.1499,0.49999 0.0389,-0.8153 0.32791,-0.41412 0.33252,0.46153 0.007,1.35047 0.4021,5.25328 0.61601,6.08678 0.12948,0.50455 0.13996,0.79089 0.0328,0.898 -0.0865,0.0865 -0.1934,0.0988 -0.23757,0.0273 z m -0.47202,-3.4681 c -0.12594,-1.20495 -0.39491,-1.70124 -0.39907,-0.73636 -0.004,1.00531 0.16164,1.85552 0.34064,1.74489 0.0927,-0.0573 0.11592,-0.45853 0.0584,-1.00853 z m -0.95558,-10.82724 c 0.10282,-2.86879 -0.0316,-4.37035 -0.39118,-4.37035 -0.16431,0 -0.18412,8.36134 -0.0202,8.52594 0.18201,0.18276 0.29784,-0.98739 0.41139,-4.15559 z m 0.78184,-12.7956 c 0.21061,-0.1538 0.31729,-5.57445 0.1097,-5.57445 -0.30471,0 -0.38971,0.57601 -0.45971,3.11532 -0.0671,2.43281 -0.0244,2.73254 0.35001,2.45913 z m -2.89579,-16.83383 c -0.0491,-0.12272 -0.0856,-0.0863 -0.0929,0.093 -0.007,0.16217 0.0297,0.25304 0.0808,0.20192 0.0511,-0.0511 0.0566,-0.18381 0.0121,-0.29487 z m -10.247011,-2.11521 c 0.417152,-0.14691 0.809746,-0.31838 0.872429,-0.38107 0.145829,-0.14583 -2.539478,-0.0266 -2.999475,0.13314 -0.587581,0.20409 -0.408592,-0.22795 0.423068,-1.02118 0.423068,-0.40353 0.769215,-0.79841 0.769215,-0.87752 0,-0.12579 -2.259877,0.65325 -2.45184,0.84522 -0.148089,0.14808 0.478234,1.07159 0.95752,1.41185 0.553231,0.39275 1.066498,0.36941 2.429083,-0.11044 z m 2.526701,-0.62512 c 0.0523,-0.0846 -0.009,-0.15384 -0.13568,-0.15384 -0.12692,0 -0.27355,0.0692 -0.325848,0.15384 -0.05229,0.0846 0.0088,0.15385 0.135688,0.15385 0.12692,0 0.27355,-0.0692 0.32584,-0.15385 z m 13.49532,-1.77673 c 0.8697,-0.85029 1.99187,-1.88873 2.49369,-2.30765 0.50183,-0.41892 1.09777,-0.95205 1.32432,-1.18474 0.22656,-0.23268 0.46665,-0.42307 0.53356,-0.42307 0.13797,0 1.15271,-1.01366 1.15271,-1.15149 0,-0.0494 -0.33827,-0.045 -0.75172,0.01 -0.64477,0.0855 -0.79932,0.0521 -1.08636,-0.23492 -0.47675,-0.47676 -0.3547,-0.84328 0.30091,-0.9036 0.71143,-0.0655 0.80451,-0.18439 0.60108,-0.76796 -0.20234,-0.58043 -0.61552,-0.64561 -0.94518,-0.14911 -0.15847,0.23866 -0.38367,0.34267 -0.74952,0.34615 -0.44203,0.004 -0.5211,0.0586 -0.51078,0.35112 0.007,0.19038 -0.0371,0.34615 -0.0974,0.34615 -0.0603,0 -0.14346,0.1293 -0.18479,0.28733 -0.0466,0.17834 -0.27226,0.32605 -0.59485,0.38942 -0.97799,0.19212 -1.09925,0.179 -1.1463,-0.12396 -0.0251,-0.16133 -0.17971,-0.42748 -0.34367,-0.59145 -0.245,-0.24499 -0.32807,-0.26125 -0.46626,-0.0913 -0.0925,0.11376 -0.38359,0.46438 -0.64693,0.77917 -0.53371,0.63797 -0.49257,0.88918 0.14564,0.88918 0.23574,0 0.55235,0.13673 0.70359,0.30385 0.26645,0.29442 0.25952,0.31829 -0.22319,0.76921 -0.58604,0.54744 -0.61948,0.55673 -0.61948,0.17208 0,-0.21754 -0.0795,-0.2725 -0.30768,-0.21282 -0.26014,0.068 -0.30769,0.20984 -0.30769,0.91774 0,0.5747 0.0536,0.80415 0.1709,0.73165 0.12133,-0.075 0.1415,0.11199 0.0696,0.64475 -0.1663,1.23128 -0.27412,2.90978 -0.18162,2.82725 0.0474,-0.0423 0.79779,-0.77261 1.66751,-1.6229 z m -15.033748,1.16136 c 0.05229,-0.0846 -0.01693,-0.15384 -0.153843,-0.15384 -0.136908,0 -0.206137,0.0692 -0.153843,0.15384 0.05229,0.0846 0.121523,0.15385 0.153843,0.15385 0.03232,0 0.101548,-0.0692 0.153843,-0.15385 z m 1.969138,-0.56421 0.49235,-0.25653 -0.44506,-0.12066 c -0.48896,-0.13255 -1.404352,0.22562 -1.243165,0.48642 0.13802,0.22333 0.646795,0.17685 1.195875,-0.10923 z m -1.788762,-0.34679 c 0.956582,-0.45255 1.445032,-0.9866 1.161582,-1.27005 -0.20127,-0.20126 -1.245561,0.0101 -1.469379,0.29741 -0.09915,0.12727 -0.40526,0.4523 -0.680255,0.7223 -0.274994,0.26999 -0.499989,0.5379 -0.499989,0.59535 0,0.22024 0.575051,0.0869 1.488041,-0.34501 z m -3.064931,-0.18362 c 0.563484,-0.20919 0.402775,-0.28996 -0.576911,-0.28996 -0.827312,0 -0.923057,0.0326 -0.923057,0.31465 0,0.27979 0.06394,0.30298 0.576911,0.20923 0.317301,-0.058 0.732677,-0.16325 0.923057,-0.23392 z m 1.346126,-1.98223 c 0.05229,-0.0846 -0.04338,-0.15385 -0.212607,-0.15385 -0.169227,0 -0.350471,0.0692 -0.402765,0.15385 -0.05229,0.0846 0.04338,0.15384 0.212606,0.15384 0.169228,0 0.350471,-0.0692 0.402766,-0.15384 z m 2.300405,-0.0247 c 0.667952,-0.30434 0.423922,-0.58725 -0.401981,-0.46604 -0.302932,0.0445 -0.436917,0.15313 -0.436917,0.35436 0,0.33214 0.274762,0.36872 0.838898,0.11168 z m 8.930122,-2.43679 c 0.0523,-0.0846 -0.0475,-0.15384 -0.22168,-0.15384 -0.17422,0 -0.31676,0.0692 -0.31676,0.15384 0,0.0846 0.0998,0.15384 0.22168,0.15384 0.12192,0 0.26447,-0.0692 0.31676,-0.15384 z m 10.99977,-1.23557 c 0,-0.17188 0.10384,-0.35236 0.23077,-0.40107 0.12692,-0.0487 0.23076,-0.18631 0.23076,-0.30579 0,-0.15902 -0.11336,-0.19004 -0.42307,-0.11574 -0.54469,0.13068 -0.51734,0.0868 -0.40491,0.64901 0.10798,0.53989 0.36645,0.66233 0.36645,0.17359 z m -7.00104,-0.48325 c 0.2337,-0.18383 0.59472,-0.50405 0.80228,-0.71161 l 0.37738,-0.37738 -0.69098,0.10362 c -0.91616,0.13739 -1.02799,-0.0889 -0.41861,-0.84721 0.26737,-0.33271 0.45001,-0.66338 0.40586,-0.73483 -0.0442,-0.0714 0.0191,-0.26123 0.14066,-0.42177 0.27985,-0.36971 0.28095,-0.45047 0.01,-0.72159 -0.19199,-0.19198 -0.16259,-0.2891 0.22451,-0.74174 0.24498,-0.28646 0.44823,-0.6437 0.45167,-0.79387 0.003,-0.15017 0.16989,-0.33525 0.36988,-0.41128 0.47888,-0.18207 0.65826,-0.62335 0.25339,-0.62335 -0.30698,0 -1.29009,0.88089 -1.69391,1.51777 -0.12692,0.20018 -0.36923,0.54454 -0.53845,0.76525 -0.26672,0.34787 -0.31128,0.66304 -0.33467,2.36677 -0.0148,1.081 0.0277,1.96545 0.0946,1.96545 0.0669,0 0.31282,-0.1504 0.54652,-0.33423 z m 2.14497,-1.04655 c 0.40988,-0.15583 0.52318,-0.52157 0.21967,-0.70914 -0.1612,-0.0996 -0.73672,0.47521 -0.74468,0.7438 -0.004,0.14933 0.0507,0.14569 0.52501,-0.0347 z m 5.16376,-0.0639 c 0,-0.12996 -0.21136,-0.23861 -0.53845,-0.2768 -0.50443,-0.0589 -0.70465,0.11941 -0.43589,0.38817 0.19715,0.19715 0.97434,0.10831 0.97434,-0.11137 z m 3.6153,-0.55528 c -0.42969,-0.18465 -1.27046,-0.18465 -1.38458,0 -0.0595,0.0962 0.23951,0.14979 0.7986,0.14303 0.64154,-0.008 0.80686,-0.0481 0.58598,-0.14303 z m -3.46146,-0.77933 c 0,-0.23644 -0.29828,-0.7591 -0.43321,-0.7591 -0.0631,0 -0.1931,0.20768 -0.28891,0.46153 -0.16875,0.44705 -0.16016,0.46153 0.27395,0.46153 0.24649,0 0.44817,-0.0738 0.44817,-0.16396 z m 11.26819,-2.39425 c 1.34331,-0.19562 0.5592,-0.72305 -1.05015,-0.70638 -1.17007,0.0121 -2.37205,0.26158 -2.37205,0.49229 0,0.37493 1.62122,0.47635 3.4222,0.21409 z m -37.113797,-0.98019 c 0.286982,-0.18547 -0.669173,-0.1899 -1.692272,-0.008 -0.664983,0.11832 -0.649811,0.12385 0.384608,0.14008 0.592295,0.009 1.180744,-0.0502 1.307664,-0.13223 z m 17.287017,-0.74008 c 0.14133,-0.85478 0.11584,-2.15328 -0.0442,-2.2522 -0.0778,-0.0481 -0.18445,0.38052 -0.23701,0.95244 -0.0526,0.57192 -0.13032,1.26381 -0.17278,1.53752 -0.06,0.38668 -0.0284,0.47896 0.14148,0.41376 0.12028,-0.0462 0.26091,-0.33934 0.31253,-0.65152 z m 4.15286,-1.12669 c 0.6476,-0.4596 0.88446,-0.75328 1.42022,-1.76089 0.41124,-0.77344 0.1525,-0.76578 -0.37796,0.0112 -0.4478,0.65591 -1.48953,1.60299 -2.15722,1.96122 -0.60129,0.32261 -0.51379,0.6519 0.10322,0.38845 0.22967,-0.0981 0.68495,-0.36804 1.01174,-0.59996 z m -5.76597,-2.09469 c -0.0278,-4.2032 -0.15653,-5.79377 -0.47374,-5.85419 -0.23205,-0.0442 -0.25629,0.10087 -0.21823,1.30612 0.0798,2.52862 0.46273,7.27878 0.58671,7.27878 0.0678,0 0.1152,-1.22882 0.10526,-2.73071 z m -12.17321,1.7692 c -0.07605,-0.23092 -0.731524,-0.35538 -0.731524,-0.13891 0,0.16184 0.253843,0.29917 0.58973,0.31906 0.112819,0.007 0.176626,-0.0744 0.141794,-0.18015 z m 3.12877,-0.34615 c -10e-4,-0.0846 -0.14324,-0.17597 -0.31581,-0.20301 -0.30941,-0.0485 -0.41626,0.12617 -0.2059,0.33653 0.14959,0.14959 0.52418,0.0537 0.52171,-0.13352 z m 1.52421,0.0769 c -0.30128,-0.1947 -0.50494,-0.1947 -0.38461,0 0.0523,0.0846 0.21215,0.15278 0.35523,0.15149 0.22419,-0.002 0.22825,-0.023 0.0294,-0.15149 z m -0.56657,-0.93121 c -0.21736,-0.20944 -1.953999,-1.06875 -2.159903,-1.06875 -0.619532,0 0.199223,0.76377 1.163313,1.08518 0.70109,0.23374 1.24688,0.22474 0.99659,-0.0164 z m -4.346293,0.003 c 0.434699,-0.23264 0.363908,-0.69561 -0.163817,-1.07139 l -0.461392,-0.32853 -0.150172,0.39498 c -0.183832,0.48351 -0.345696,0.49275 -0.939614,0.0537 -0.350987,-0.2595 -0.522504,-0.30297 -0.715368,-0.18132 -0.455985,0.28764 -0.366178,0.4557 0.456125,0.85358 0.894288,0.43272 1.521453,0.52136 1.974238,0.27903 z m 0.844949,-1.51857 c -0.04738,-0.0767 -0.224543,-0.10321 -0.393687,-0.059 -0.423306,0.1107 -0.385227,0.19838 0.08616,0.19838 0.216528,0 0.354917,-0.0627 0.307532,-0.1394 z m 10.493644,-3.78141 0.0413,-1.45786 -0.73355,-0.18471 c -0.40345,-0.10158 -0.76643,-0.17732 -0.80662,-0.16829 -0.18709,0.042 -0.14781,0.33507 0.0747,0.55762 0.21375,0.21375 0.91447,1.63992 1.20049,2.44334 0.0527,0.14807 0.11533,0.26889 0.13914,0.26849 0.0238,-4.4e-4 0.0619,-0.65677 0.0845,-1.45859 z m 3.62808,-0.36893 c 0.10199,-0.66809 -0.14036,-0.42148 -0.28479,0.28982 -0.0743,0.36606 -0.059,0.4892 0.048,0.38461 0.0865,-0.0846 0.19309,-0.3881 0.2368,-0.67443 z m -1.90014,-0.864 c 0,-0.5002 -0.0615,-0.69229 -0.22168,-0.69229 -0.12193,0 -0.25318,0.0519 -0.29168,0.11539 -0.0706,0.11644 0.34071,1.2692 0.45289,1.2692 0.0333,0 0.0605,-0.31153 0.0605,-0.6923 z m 2.91091,-0.6398 c 0.1068,-0.29538 0.16662,-0.56462 0.13292,-0.59833 -0.11095,-0.11094 -1.04387,0.83129 -1.04387,1.05429 0,0.45685 0.70923,0.10186 0.91095,-0.45596 z m 7.93501,0.40904 c 0.0523,-0.0846 0.0259,-0.15384 -0.0588,-0.15384 -0.0846,0 -0.19663,0.0692 -0.24892,0.15384 -0.0523,0.0846 -0.0259,0.15384 0.0588,0.15384 0.0846,0 0.19663,-0.0692 0.24892,-0.15384 z m 1.0101,-0.005 c 0.49001,-0.26225 0.36731,-0.60996 -0.21524,-0.60996 -0.62825,0 -0.75298,0.1086 -0.55326,0.48175 0.17508,0.32716 0.34408,0.35535 0.7685,0.12821 z m -12.09597,-1.4081 c -0.0542,-0.1709 -0.15642,-0.66698 -0.22707,-1.10242 -0.0707,-0.43543 -0.18486,-1.00346 -0.25379,-1.26229 -0.14288,-0.53649 -1.06444,-1.71843 -1.2192,-1.56367 -0.20346,0.20346 0.93977,3.93177 1.29449,4.2216 0.30706,0.25089 0.52765,0.0914 0.40557,-0.29322 z m -7.37527,-0.50953 c 0,-0.0846 -0.25961,-0.17532 -0.57691,-0.20159 -0.58152,-0.0481 -0.8074,0.19341 -0.30769,0.32901 0.4129,0.11205 0.8846,0.0441 0.8846,-0.12742 z m 11.90857,-0.49169 c 0.0888,-0.19494 0.11911,-0.35444 0.0673,-0.35444 -0.12603,0 -0.82186,0.81494 -0.8221,0.96282 -3.1e-4,0.22314 0.59431,-0.25618 0.75478,-0.60838 z m 0.91659,-1.20843 c 0.0486,-0.25093 0.0227,-0.26223 -0.1923,-0.0838 -0.29403,0.24403 -0.33064,0.52925 -0.0562,0.43787 0.10577,-0.0352 0.2176,-0.19455 0.24851,-0.35407 z m -13.12222,0.0676 c 0.13196,-0.21352 -0.20682,-0.43886 -0.66446,-0.44198 -0.41278,-0.003 -0.45252,0.22808 -0.0769,0.44685 0.35519,0.20688 0.61155,0.20519 0.74138,-0.005 z m 1.45088,-0.13665 c 0,-0.0846 -0.0305,-0.15384 -0.0678,-0.15384 -0.0373,0 -0.11063,0.0692 -0.16293,0.15384 -0.0523,0.0846 -0.0218,0.15384 0.0679,0.15384 0.0896,0 0.16292,-0.0692 0.16292,-0.15384 z m 12.58127,-0.31066 c 0.15327,-0.24542 0.15113,-0.30471 -0.011,-0.30471 -0.25641,0 -0.57052,0.31074 -0.57052,0.56439 0,0.26767 0.34972,0.1115 0.58152,-0.25968 z m 0.61076,-2.05466 c 0.27499,-0.30222 0.49999,-0.62057 0.49999,-0.70744 0,-0.0869 0.0533,-0.15794 0.11841,-0.15794 0.0651,0 0.39397,-0.35126 0.73076,-0.78057 0.80442,-1.02543 1.36245,-1.61091 1.82294,-1.91264 0.42408,-0.27787 0.65818,-0.96096 0.41326,-1.20588 -0.34251,-0.34252 -0.16754,-0.56235 0.4476,-0.56235 0.4456,0 0.65287,-0.0802 0.76921,-0.29758 0.32674,-0.61052 0.2061,-0.77933 -0.55697,-0.77933 -1.16886,0 -2.03933,-0.83524 -1.59789,-1.53321 0.11517,-0.1821 0.17172,-0.14911 0.29354,0.17132 0.1577,0.41478 0.449,0.59268 0.97046,0.59268 0.17011,0 0.48532,0.13846 0.70045,0.30769 0.21514,0.16922 0.48567,0.30768 0.60118,0.30768 0.31779,0 0.25154,-0.36449 -0.11267,-0.61987 -0.17748,-0.12445 -0.37975,-0.37229 -0.44949,-0.55078 -0.13609,-0.34826 -0.88054,-0.58016 -1.34148,-0.41787 -0.2044,0.072 -0.22937,0.0502 -0.1017,-0.0888 0.12432,-0.13531 0.0894,-0.34536 -0.13146,-0.79186 -0.16536,-0.33423 -0.36463,-0.6077 -0.44282,-0.6077 -0.38924,0 -2.00799,0.97245 -2.12237,1.27501 -0.15717,0.41571 -0.0758,0.58632 0.22473,0.47101 0.1764,-0.0677 0.22584,0.0544 0.22584,0.55755 0,0.60567 -0.0358,0.65826 -0.59838,0.87925 -0.52379,0.20575 -0.61073,0.31232 -0.69752,0.85508 -0.0545,0.34101 -0.0539,1.02004 10e-4,1.50895 0.0954,0.84316 -0.16896,2.57926 -0.36317,2.38505 -0.0465,-0.0465 -0.0906,-0.72522 -0.0981,-1.50827 -0.007,-0.78305 -0.0766,-1.4454 -0.15365,-1.47188 -0.0771,-0.0265 -0.37843,0.56126 -0.66966,1.30609 -0.44296,1.13291 -0.51895,1.50005 -0.46497,2.24639 0.0476,0.65855 0.15381,0.98121 0.4055,1.23231 0.28561,0.28496 0.36347,0.30389 0.47965,0.11666 0.0763,-0.12294 0.10133,-0.4103 0.0557,-0.63859 -0.0457,-0.22828 -0.0125,-0.54104 0.0737,-0.69503 0.13536,-0.24189 0.17034,-0.20713 0.25714,0.25557 0.0553,0.29456 0.0267,0.72972 -0.0636,0.96703 -0.0902,0.23732 -0.16405,0.49865 -0.16405,0.58073 0,0.24014 0.48769,-0.0832 1.03844,-0.68848 z m 1.34612,-8.24984 c 0.0523,-0.0846 0.16023,-0.15384 0.23985,-0.15384 0.0796,0 0.14476,0.0692 0.14476,0.15384 0,0.0846 -0.10793,0.15384 -0.23985,0.15384 -0.13191,0 -0.19705,-0.0692 -0.14476,-0.15384 z m -0.45526,7.87789 c -0.11924,-0.11923 -0.69968,0.52451 -0.6937,0.76934 0.003,0.10931 0.1793,3.1e-4 0.3925,-0.24208 0.2132,-0.24245 0.34874,-0.47972 0.3012,-0.52726 z m 0.63007,-0.53189 c 0.16897,-0.19038 0.61573,-0.62731 0.9928,-0.97096 0.41703,-0.38006 0.69518,-0.77176 0.71008,-0.99998 0.0218,-0.33463 -0.0482,-0.29568 -0.64827,0.36042 -0.98528,1.07728 -1.65981,1.95666 -1.50085,1.95666 0.0765,0 0.27727,-0.15576 0.44624,-0.34614 z m 3.01743,-1.81575 c 0.3173,-0.0881 0.57691,-0.22478 0.57691,-0.3037 0,-0.0789 0.28739,-0.2901 0.63865,-0.46929 0.48309,-0.24646 0.58613,-0.35906 0.42306,-0.4623 -0.33754,-0.21372 -1.00464,-0.16456 -1.21555,0.0896 -0.29531,0.35583 -0.47011,0.27337 -0.31048,-0.14647 0.11547,-0.30374 0.0997,-0.36049 -0.0807,-0.29123 -0.12329,0.0473 -0.22416,0.21774 -0.22416,0.37875 0,0.161 -0.13846,0.41128 -0.30768,0.55618 -0.29667,0.25401 -0.42906,0.81134 -0.19231,0.80958 0.0635,-4.4e-4 0.37499,-0.073 0.69229,-0.16108 z m 3.15695,-0.003 c 0.25969,-0.0905 0.51375,-0.27301 0.5646,-0.40551 0.0801,-0.20878 -0.0513,-0.23063 -0.9854,-0.16379 -1.04263,0.0746 -1.6303,0.31572 -1.45617,0.59748 0.11678,0.18896 1.30528,0.17111 1.87697,-0.0282 z m 5.96319,-2.21212 c 0.72732,-0.3039 0.67052,-0.5463 -0.12802,-0.5463 -0.66698,0 -1.03075,0.20088 -1.03075,0.56921 0,0.26361 0.49652,0.25379 1.15877,-0.0229 z m -7.85093,-0.39246 c 0.16923,-0.0727 0.24728,-0.13709 0.17346,-0.14303 -0.0738,-0.006 -0.048,-0.11466 0.0573,-0.24158 0.16184,-0.19501 0.12985,-0.23076 -0.20651,-0.23076 -0.34212,0 -0.71655,0.35646 -0.71655,0.68218 0,0.12162 0.32728,0.09 0.6923,-0.0668 z m 0.99998,-0.40796 c 0,-0.32441 -0.0394,-0.35098 -0.30769,-0.20741 -0.16923,0.0906 -0.30769,0.29421 -0.30769,0.45254 0,0.21212 0.081,0.2667 0.30769,0.20741 0.20069,-0.0525 0.30769,-0.20985 0.30769,-0.45254 z m 3.735,-0.23619 c 0.37939,-0.19488 0.18346,-0.43275 -0.35643,-0.43275 -0.52988,0 -1.6863,0.43438 -1.6863,0.63342 0,0.16444 1.64686,0.003 2.04273,-0.20067 z m -22.04358,-1.46629 c -0.16663,-0.25976 -0.17119,-0.25935 -0.0873,0.008 0.0487,0.15499 0.0966,0.39729 0.10639,0.53844 0.0161,0.23121 0.0247,0.23044 0.0873,-0.008 0.0382,-0.14541 -0.01,-0.38772 -0.10639,-0.53845 z m 1.73424,-0.31252 c 0.62765,-1.39234 1.9516,-3.76964 2.3347,-4.19222 0.19177,-0.21153 0.39081,-0.50459 0.44232,-0.65123 0.0515,-0.14665 0.18903,-0.23004 0.30559,-0.18531 0.23676,0.0909 0.48229,-0.15701 0.62804,-0.634 0.085,-0.27801 -0.0171,-0.35084 -0.83495,-0.59582 -1.1558,-0.34622 -1.2208,-0.73192 -0.14589,-0.86576 0.38003,-0.0473 0.91627,-0.18377 1.19166,-0.30323 0.40547,-0.17588 0.49054,-0.29118 0.4473,-0.60625 -0.0532,-0.38735 -0.0597,-0.3889 -1.46222,-0.3499 -1.04906,0.0292 -1.40822,-0.0101 -1.40647,-0.15384 0.004,-0.32036 0.25536,-0.61835 0.67084,-0.79502 0.37971,-0.16146 0.38416,-0.17882 0.12926,-0.50406 -0.25715,-0.32812 -0.28594,-0.33081 -1.11013,-0.10378 -0.6256,0.17231 -1.27707,0.21093 -2.49948,0.14817 -1.73692,-0.0892 -2.4235,0.041 -2.4235,0.45932 0,0.19673 0.1171,0.23773 0.53845,0.18854 0.29615,-0.0346 0.53845,-0.008 0.53845,0.0601 0,0.0676 0.0766,0.12295 0.17031,0.12295 0.0937,0 0.13045,-0.10384 0.0817,-0.23076 -0.0487,-0.12692 -0.0388,-0.22971 0.022,-0.22841 0.25119,0.005 0.47678,0.25547 0.57178,0.63396 0.0934,0.37222 0.0694,0.39642 -0.31932,0.32212 -0.36713,-0.0702 -0.40963,-0.0395 -0.33581,0.24283 0.0874,0.33416 0.008,0.36057 -1.57529,0.52741 -0.30902,0.0325 -0.37444,0.11272 -0.33289,0.40785 0.0285,0.20203 -0.0388,0.42327 -0.14939,0.49162 -0.30573,0.18896 -0.0502,0.33855 0.27499,0.16098 0.15632,-0.0854 0.48088,-0.19691 0.72126,-0.24787 0.30803,-0.0653 0.41074,-0.16124 0.34791,-0.32497 -0.0537,-0.13999 -0.0245,-0.19238 0.0734,-0.13184 0.0894,0.0553 0.12541,0.19732 0.08,0.31568 -0.0568,0.14812 0.0344,0.2152 0.29259,0.2152 0.23819,0 0.49935,0.16795 0.71526,0.45999 0.18704,0.25299 0.46603,0.49995 0.61997,0.54881 0.15395,0.0489 0.2799,0.21938 0.2799,0.37892 0,0.34409 -0.31298,1.07377 -0.46058,1.07377 -0.25075,0 -0.27522,-0.21565 -0.0615,-0.54184 0.29027,-0.44301 0.16843,-0.52048 -0.96772,-0.61541 -1.61017,-0.13453 -3.07085,-0.32925 -3.23616,-0.43142 -0.0892,-0.0551 -0.25653,0.0141 -0.37188,0.15387 -0.16381,0.19845 -0.16762,0.26827 -0.0174,0.31882 0.10576,0.0356 0.1923,0.1511 0.1923,0.25667 0,0.10557 0.17307,0.28457 0.38461,0.39778 0.21153,0.11321 0.3846,0.29947 0.3846,0.4139 0,0.3741 0.65569,0.55159 1.34852,0.36503 0.61751,-0.16628 0.62913,-0.18187 0.54085,-0.72584 -0.11204,-0.69042 0.24752,-0.66423 0.45931,0.0334 0.0755,0.24855 0.17463,0.55576 0.22038,0.68268 0.0851,0.23617 0.15868,0.69265 0.25403,1.57688 0.044,0.40789 0.12091,0.49999 0.4176,0.49999 0.3404,0 0.3664,0.0636 0.40608,0.99296 0.0244,0.57188 0.12987,1.08042 0.24866,1.19922 0.17246,0.17245 0.23864,0.0601 0.40379,-0.68527 0.10864,-0.49034 0.29741,-1.06461 0.41949,-1.27614 l 0.22195,-0.38461 -0.0909,0.38461 c -0.15287,0.64652 -0.38644,2.06108 -0.38738,2.3461 -0.002,0.56055 0.42546,0.23551 0.80902,-0.61537 z m 1.42081,-5.88449 c -0.0523,-0.0846 -0.0259,-0.15384 0.0588,-0.15384 0.0846,0 0.19662,0.0692 0.24892,0.15384 0.0523,0.0846 0.0259,0.15385 -0.0588,0.15385 -0.0846,0 -0.19663,-0.0692 -0.24892,-0.15385 z m 14.54204,6.14826 c 0.18289,-0.25685 0.29473,-0.56549 0.24853,-0.68588 -0.0959,-0.25001 -1.65611,-0.74609 -2.06082,-0.65527 -0.18923,0.0425 -0.0932,0.13634 0.32531,0.31802 0.52562,0.22818 0.58226,0.30372 0.49337,0.6579 -0.10657,0.42461 0.11854,0.83221 0.45964,0.83221 0.11079,0 0.35108,-0.21014 0.53397,-0.46698 z m -17.69582,-0.5142 c 0,-0.20095 -0.49463,-1.19079 -0.56158,-1.12384 -0.11197,0.11196 0.28513,1.18197 0.43864,1.18197 0.0676,0 0.12294,-0.0262 0.12294,-0.0581 z m 11.46001,-0.42069 c 0.22847,-0.22369 -0.15611,-0.40172 -0.69647,-0.32241 -0.53715,0.0788 -0.73921,0.31553 -0.43731,0.51227 0.23497,0.15314 0.89661,0.0423 1.13378,-0.18986 z m 14.45212,-0.27357 c 0.10826,-0.17517 -0.43782,-0.53074 -1.1977,-0.77986 -0.50201,-0.16458 -0.62792,-0.15913 -0.82269,0.0356 -0.18121,0.18121 -0.19302,0.29901 -0.0557,0.55561 0.14728,0.27518 0.31504,0.32563 1.08284,0.32563 0.49971,0 0.94668,-0.0617 0.99325,-0.13702 z m -7.91487,-0.43989 c -0.007,-0.36805 -0.82243,-0.80768 -1.49715,-0.80768 -0.48277,0 -0.36093,0.14693 0.49725,0.59964 0.63101,0.33287 1.00403,0.41048 0.9999,0.20804 z m 1.2925,-0.71555 c 0.41427,-0.87302 0.35393,-0.96287 -0.71165,-1.0595 -1.06599,-0.0967 -1.16933,-0.0661 -0.89486,0.26462 0.10396,0.12526 0.14778,0.29447 0.0974,0.37602 -0.099,0.16021 0.79879,0.93759 1.08607,0.94039 0.0961,8.8e-4 0.2865,-0.23374 0.42307,-0.52153 z m -5.63941,-0.49276 c -0.0511,-0.0511 -0.18381,-0.0566 -0.29486,-0.0121 -0.12273,0.0491 -0.0863,0.0856 0.0929,0.093 0.16218,0.007 0.25304,-0.0297 0.20192,-0.0808 z m 5.23203,-1.24402 c -0.14303,-0.14304 -0.30326,-0.21688 -0.35606,-0.16408 -0.1514,0.15141 0.081,0.42415 0.36148,0.42415 0.23484,0 0.23442,-0.0202 -0.005,-0.26007 z m -0.42123,-0.39733 c 0.84203,-0.42148 0.77823,-0.66887 -0.15384,-0.59657 -0.78473,0.0609 -1.07691,0.23924 -1.07691,0.65743 0,0.38493 0.37744,0.36627 1.23075,-0.0609 z m 3.76915,-0.72719 c 0.0523,-0.0846 -0.0169,-0.15384 -0.15384,-0.15384 -0.13691,0 -0.20614,0.0692 -0.15385,0.15384 0.0523,0.0846 0.12153,0.15384 0.15385,0.15384 0.0323,0 0.10154,-0.0692 0.15384,-0.15384 z m -4.8219,-0.64511 c 1.18667,-0.2451 1.2705,-0.52298 0.19819,-0.65695 -0.88986,-0.11118 -1.1454,-0.0418 -1.1454,0.31116 0,0.12193 -0.10793,0.22169 -0.23985,0.22169 -0.13191,0 -0.19705,0.0692 -0.14476,0.15384 0.12132,0.19629 0.25157,0.19338 1.33182,-0.0298 z m 2.04276,-0.60175 c -0.13424,-0.21722 -0.37464,-0.16062 -0.37464,0.0882 0,0.13724 0.0902,0.19131 0.22988,0.13772 0.12643,-0.0485 0.19158,-0.15019 0.14476,-0.22593 z m -24.25778,-0.0223 c -0.0347,-0.10577 -0.28279,-0.214 -0.55127,-0.24051 -0.26848,-0.0265 -0.48814,-0.11306 -0.48814,-0.19231 0,-0.0793 0.05192,-0.14851 0.11538,-0.15391 1.54201,-0.13125 1.65885,-0.29787 0.20887,-0.29787 -0.701908,0 -1.076578,0.0567 -1.016543,0.15384 0.05229,0.0846 0.193519,0.15385 0.313834,0.15385 0.120316,0 0.262192,0.17307 0.315286,0.38461 0.0798,0.31794 0.189193,0.3846 0.631123,0.3846 0.35878,0 0.51383,-0.0632 0.47146,-0.1923 z m 30.02425,-0.13284 c 1.1685,-0.19768 1.48155,-0.38892 0.84253,-0.51469 -0.24492,-0.0482 -0.74626,-0.18433 -1.11408,-0.3025 -0.65548,-0.21059 -0.6825,-0.2052 -1.36006,0.27143 l -0.6913,0.4863 0.437,0.0972 c 0.66926,0.14883 0.79849,0.14625 1.88591,-0.0377 z m -7.21801,-0.57997 c 0,-0.18264 -0.62665,-0.33742 -0.83437,-0.20609 -0.0911,0.0576 0.0421,0.1499 0.29592,0.20514 0.25384,0.0553 0.47884,0.10864 0.49999,0.11864 0.0211,0.01 0.0385,-0.0429 0.0385,-0.11769 z M 37.908674,207.2134 c 0.03898,-0.0634 -0.127884,-0.12264 -0.370814,-0.13152 -0.242931,-0.009 -0.405113,0.043 -0.360405,0.11539 0.100215,0.16215 0.634285,0.17393 0.731219,0.0161 z m 22.639111,-0.32954 c 0,-0.60867 -1.92566,-1.17184 -2.04347,-0.59763 -0.0793,0.3864 0.83634,0.90578 1.50502,0.85372 0.33743,-0.0263 0.53845,-0.12188 0.53845,-0.25609 z m 1.30637,-1.24329 c 0.35846,-0.22662 -0.0256,-0.49654 -0.62371,-0.43833 -0.48669,0.0474 -0.49776,0.0621 -0.23934,0.3189 0.30379,0.30185 0.5259,0.33259 0.86305,0.11943 z m -3.99862,-0.30137 c 0,-0.20017 -0.52084,-0.34467 -0.82358,-0.2285 -0.13836,0.0531 -0.21325,0.1585 -0.16644,0.23425 0.11305,0.18292 0.99002,0.17782 0.99002,-0.006 z m -3.38455,-1.26066 c 0.14152,-0.0837 -0.40865,-0.12114 -1.42258,-0.0969 -1.5894,0.038 -2.11999,0.17498 -1.23121,0.31787 0.58453,0.094 2.37293,-0.0549 2.65379,-0.22097 z m 3.85729,0.10999 c -0.46039,-0.55474 -2.78039,-0.68415 -2.78039,-0.15509 0,0.18371 0.14475,0.21078 0.73076,0.13666 0.40191,-0.0508 1.00767,-0.0256 1.34612,0.0562 0.8639,0.20861 0.90609,0.20635 0.70351,-0.0377 z m -4.91253,-0.55197 c 0.33653,0 0.57999,-0.0519 0.54101,-0.11538 -0.039,-0.0635 -0.57959,-0.0879 -1.20136,-0.0543 -0.81369,0.0439 -1.02272,0.0935 -0.74589,0.1767 0.21153,0.0636 0.4768,0.0881 0.58949,0.0543 0.11269,-0.0337 0.48023,-0.0613 0.81675,-0.0613 z m 2.20906,-0.30769 c -0.12016,-0.19443 -0.54526,-0.19443 -0.84613,0 -0.1713,0.11071 -0.0798,0.14974 0.35523,0.15149 0.35198,0.001 0.54802,-0.0591 0.4909,-0.15149 z m 2.8461,-0.0984 c 0,-0.0541 -0.12115,-0.19039 -0.26923,-0.30279 -0.3068,-0.2329 -1.11536,-0.28591 -1.11536,-0.0731 0,0.1558 0.69347,0.44318 1.11536,0.46221 0.14808,0.007 0.26923,-0.0321 0.26923,-0.0863 z m -2.1538,-0.51695 c 0,-0.0846 -0.10793,-0.15384 -0.23985,-0.15384 -0.13191,0 -0.19706,0.0692 -0.14476,0.15384 0.0523,0.0846 0.16022,0.15384 0.23985,0.15384 0.0796,0 0.14476,-0.0692 0.14476,-0.15384 z m -2.4315,75.61379 c 0.003,-0.25384 0.0376,-0.33906 0.0766,-0.18938 0.039,0.14969 0.0365,0.35738 -0.006,0.46153 -0.0421,0.10416 -0.074,-0.0183 -0.0709,-0.27215 z m 3.96993,-17.69194 c 0,-0.21153 0.0266,-0.3846 0.059,-0.3846 0.0324,0 0.0921,0.17307 0.13251,0.3846 0.0404,0.21154 0.0139,0.38461 -0.059,0.38461 -0.0729,0 -0.13251,-0.17307 -0.13251,-0.38461 z m 2.76917,-9.51144 c 0,-0.11217 0.16783,-0.36162 0.37296,-0.55433 l 0.37296,-0.35037 -0.25758,0.54931 c -0.26221,0.55921 -0.48834,0.72377 -0.48834,0.35539 z m -21.730311,-2.74941 c 0.18568,-0.18568 0.384003,-0.29119 0.440718,-0.23448 0.149679,0.14968 -0.243278,0.57208 -0.532203,0.57208 -0.197798,0 -0.179837,-0.0663 0.09149,-0.3376 z m -3.546154,-0.17634 c -0.18508,-0.48231 0.359531,-0.76223 2.004351,-1.03019 0.572997,-0.0934 1.468925,-0.38008 1.990949,-0.63719 0.937514,-0.46175 1.281587,-0.47258 1.281587,-0.0403 0,0.30039 0.741267,0.28739 1.711667,-0.03 0.513163,-0.16785 0.820767,-0.20043 0.923394,-0.0978 0.274385,0.27438 -0.268607,0.61209 -1.320272,0.82113 -0.769444,0.15294 -1.007103,0.26224 -1.007103,0.46318 0,0.42506 -0.358824,0.4427 -1.008321,0.0496 -0.814873,-0.49324 -1.242898,-0.46553 -2.617572,0.16944 -1.233852,0.56993 -1.828737,0.67082 -1.95868,0.3322 z m 4.89228,-1.48602 c -0.05229,-0.0846 -0.194839,-0.15384 -0.316766,-0.15384 -0.121926,0 -0.221685,0.0692 -0.221685,0.15384 0,0.0846 0.142545,0.15385 0.316766,0.15385 0.17422,0 0.273979,-0.0692 0.221685,-0.15385 z m 16.094785,-5.08963 c 0.0179,-0.97024 0.21811,-2.13178 0.2895,-1.67945 0.02,0.12691 0.0295,0.27882 0.0211,0.33756 -0.008,0.0587 -0.0562,0.57713 -0.10614,1.152 -0.11731,1.35059 -0.22771,1.45314 -0.20442,0.18989 z m -3.39734,-10.59223 c -0.20235,-0.37811 -0.20514,-0.77933 -0.005,-0.77933 0.0846,0 0.15384,0.13437 0.15384,0.29861 0,0.16423 0.0692,0.34139 0.15384,0.39369 0.0846,0.0523 0.15385,0.16022 0.15385,0.23984 0,0.25329 -0.29095,0.15582 -0.45612,-0.15281 z m 8.30211,-3.24082 c 0,-0.0846 0.0733,-0.15384 0.16292,-0.15384 0.0896,0 0.12014,0.0692 0.0678,0.15384 -0.0523,0.0846 -0.12561,0.15385 -0.16292,0.15385 -0.0373,0 -0.0678,-0.0692 -0.0678,-0.15385 z m 1.16371,-1.73736 c 0.0578,-0.15173 0.1438,-0.23711 0.19116,-0.18974 0.0474,0.0474 10e-5,0.1715 -0.10504,0.27586 -0.15193,0.15081 -0.16961,0.13314 -0.0861,-0.0861 z"
       id="path3208"
       inkscape:connector-curvature="0" />
  </g>
</svg>
