<?xml version="1.0" encoding="UTF-8" standalone="no"?>
<!-- Created with Inkscape (http://www.inkscape.org/) -->

<svg
   xmlns:dc="http://purl.org/dc/elements/1.1/"
   xmlns:cc="http://creativecommons.org/ns#"
   xmlns:rdf="http://www.w3.org/1999/02/22-rdf-syntax-ns#"
   xmlns:svg="http://www.w3.org/2000/svg"
   xmlns="http://www.w3.org/2000/svg"
   xmlns:sodipodi="http://sodipodi.sourceforge.net/DTD/sodipodi-0.dtd"
   xmlns:inkscape="http://www.inkscape.org/namespaces/inkscape"
   width="105mm"
   height="146mm"
   viewBox="0 0 105 146"
   version="1.1"
   id="svg8"
   inkscape:version="0.92.3 (2405546, 2018-03-11)"
   sodipodi:docname="nothofagus_1_intermediate_01.svg">
  <defs
     id="defs2" />
  <sodipodi:namedview
     id="base"
     pagecolor="#ffffff"
     bordercolor="#666666"
     borderopacity="1.0"
     inkscape:pageopacity="0.0"
     inkscape:pageshadow="2"
     inkscape:zoom="0.7"
     inkscape:cx="-0.54686088"
     inkscape:cy="204.43158"
     inkscape:document-units="mm"
     inkscape:current-layer="layer1"
     showgrid="false"
     inkscape:pagecheckerboard="true"
     height="147mm"
     inkscape:window-width="1920"
     inkscape:window-height="1055"
     inkscape:window-x="381"
     inkscape:window-y="0"
     inkscape:window-maximized="1"
     inkscape:snap-global="false" />
  <metadata
     id="metadata5">
    <rdf:RDF>
      <cc:Work
         rdf:about="">
        <dc:format>image/svg+xml</dc:format>
        <dc:type
           rdf:resource="http://purl.org/dc/dcmitype/StillImage" />
        <dc:title></dc:title>
      </cc:Work>
    </rdf:RDF>
  </metadata>
  <g
     inkscape:label="Layer 1"
     inkscape:groupmode="layer"
     id="layer1"
     transform="translate(0,-151)">
    <path
       style="fill:#000000;stroke-width:0.13921028"
       d="m 50.949477,299.15832 c -0.07528,-0.74957 -0.04868,-1.05477 0.118837,-1.36397 0.211902,-0.39113 0.216333,-0.37879 0.244588,0.68053 0.01583,0.59339 0.034,1.18329 0.04038,1.31091 0.0064,0.1276 -0.06004,0.25589 -0.147614,0.28508 -0.103592,0.0346 -0.19309,-0.28426 -0.256189,-0.91255 z m -1.699724,-0.39019 c -0.09141,-0.0372 -0.240273,-0.29848 -0.330824,-0.58065 -0.09054,-0.28218 -0.260266,-0.62254 -0.377143,-0.75635 -0.232114,-0.26576 -0.223854,-0.51759 0.23173,-7.06524 0.06127,-0.88051 0.09668,-2.32133 0.07868,-3.20183 -0.04623,-2.26246 -0.204418,-5.87708 -0.287853,-6.57751 -0.04705,-0.39496 -0.02414,-0.54552 0.06888,-0.45261 0.07666,0.0765 0.190161,0.76061 0.252231,1.52011 0.06586,0.80595 0.178164,1.40252 0.269713,1.43279 0.25107,0.083 0.293174,-0.23761 0.177523,-1.35198 -0.05959,-0.57425 -0.114854,-1.51392 -0.122795,-2.08816 -0.01036,-0.74516 -0.09081,-1.18358 -0.281193,-1.53132 -0.247756,-0.45254 -0.342813,-0.39914 -0.287789,0.16169 0.01249,0.1272 -0.03515,0.26704 -0.105853,0.31072 -0.217427,0.13438 -0.287734,-2.3167 -0.07263,-2.53181 0.118313,-0.11837 0.158434,-0.3817 0.113106,-0.74251 -0.04535,-0.36092 -0.01988,-0.52801 0.07185,-0.47131 0.07816,0.0483 0.142104,0.23703 0.142104,0.41941 0,0.18238 0.06085,0.3692 0.135221,0.41517 0.169732,0.10488 0.235091,-10.46242 0.06576,-10.63176 -0.06312,-0.063 -0.07439,0.3982 -0.125505,5.13541 -0.02904,2.69124 -0.175923,4.18813 -0.344333,3.5091 -0.04354,-0.17556 -0.03958,-0.83332 0.0087,-1.46171 0.04838,-0.62838 0.05741,-3.30376 0.02005,-5.94527 -0.03734,-2.64152 -0.06068,-5.17862 -0.05185,-5.63802 0.01248,-0.65014 -0.08459,-1.07906 -0.437972,-1.93527 l -0.454016,-1.1 -0.974191,-0.23268 c -2.216506,-0.5294 -4.748499,-2.25047 -5.612125,-3.81472 -0.216538,-0.3922 -0.520575,-0.9329 -0.67564,-1.20154 -0.155063,-0.26863 -0.567403,-1.02036 -0.91631,-1.67051 -1.165952,-2.17263 -1.286384,-2.36308 -1.496286,-2.36607 -0.114854,-0.001 -0.738978,-0.0271 -1.386953,-0.0566 -1.054008,-0.048 -1.208016,-0.0901 -1.461708,-0.40097 -0.184647,-0.22619 -0.493349,-0.38166 -0.884908,-0.44568 -0.522163,-0.0854 -0.881168,-0.37456 -0.695463,-0.56027 0.03305,-0.0331 0.776865,-0.24427 1.652919,-0.46937 1.708216,-0.43893 1.693738,-0.47352 -0.182105,-0.43492 -0.992491,0.0204 -1.218091,-0.013 -1.218091,-0.18044 0,-0.26442 0.29684,-0.37396 1.020661,-0.37662 0.981397,-0.004 1.067054,-0.20128 0.263637,-0.60839 -0.712496,-0.36106 -0.964162,-0.59127 -0.812329,-0.7431 0.07555,-0.0755 1.720448,0.12986 2.62546,0.32787 0.311248,0.068 0.382399,0.0352 0.380539,-0.1761 -0.0032,-0.36614 -1.308392,-2.47201 -2.521835,-4.06897 -0.719877,-0.94741 -0.966768,-1.47766 -1.240457,-2.66416 -0.13246,-0.57424 -0.345447,-1.41995 -0.473307,-1.87933 -0.127858,-0.45941 -0.352993,-1.53894 -0.5003,-2.39899 -0.147307,-0.86004 -0.425692,-1.93877 -0.618632,-2.39718 -0.192941,-0.45841 -0.355567,-1.10159 -0.361392,-1.42931 -0.0059,-0.32771 -0.08932,-0.81391 -0.185544,-1.08042 -0.149037,-0.41281 -0.245417,-0.48931 -0.650657,-0.51639 -0.261638,-0.0175 -0.680171,-0.0619 -0.930073,-0.0986 -0.343649,-0.0506 -0.539696,0.0125 -0.804552,0.25773 l -0.350185,0.32454 0.450536,0.15705 c 0.514225,0.17927 1.088963,0.67195 1.088963,0.93348 0,0.29803 -0.590208,0.61008 -1.153904,0.61008 -0.50163,0 -0.532357,0.024 -0.491063,0.38284 0.0446,0.3876 0.425055,0.64587 1.656556,1.12453 1.304712,0.50713 1.471092,0.61184 1.655811,1.04212 0.104728,0.24394 0.216138,0.49052 0.247579,0.54794 0.03144,0.0574 -0.07491,0.10438 -0.236335,0.10438 -0.208668,0 -0.315808,-0.11062 -0.370674,-0.38283 -0.06856,-0.34013 -0.248801,-0.45001 -1.615706,-0.98499 -1.610998,-0.63051 -1.982066,-0.65797 -2.546075,-0.18845 -0.216283,0.18005 -0.208517,0.15232 0.0348,-0.12424 0.413506,-0.46998 0.395294,-0.63648 -0.0975,-0.89131 -0.813483,-0.42067 -2.873793,-0.20251 -5.841914,0.61861 -0.580964,0.16071 -0.754805,0.0737 -0.564151,-0.28262 0.109486,-0.20457 0.293369,-0.26996 0.759178,-0.26996 1.262158,0 2.752393,-0.52288 1.637674,-0.57462 -0.210554,-0.01 -0.508117,-0.0362 -0.661249,-0.0587 -0.153131,-0.0225 -0.766012,-0.0865 -1.36196,-0.14226 -1.741469,-0.16293 -1.272215,-0.39733 0.955617,-0.47736 1.164896,-0.0418 1.863311,-0.11761 1.751238,-0.18989 -0.152728,-0.0985 -2.307787,-0.33719 -3.259035,-0.36089 -0.13399,-0.004 -0.243618,-0.0638 -0.243618,-0.13422 0,-0.22013 0.792638,-0.31436 1.348187,-0.16028 0.796343,0.22086 4.008995,0.37057 3.892061,0.18136 -0.05162,-0.0835 -0.453075,-0.19632 -0.892122,-0.25067 -0.439045,-0.0543 -1.041058,-0.18403 -1.337805,-0.28817 -0.296749,-0.10413 -0.782244,-0.18934 -1.078881,-0.18934 -0.296636,0 -0.539337,-0.0589 -0.539337,-0.131 0,-0.23139 0.192548,-0.2598 0.974471,-0.14371 1.286555,0.19102 3.619468,0.27433 3.619468,0.12928 0,-0.0732 -0.485497,-0.13734 -1.07888,-0.14266 -2.147677,-0.0192 -3.300025,-0.23212 -2.63602,-0.48693 0.178528,-0.0685 0.197837,-0.14733 0.08687,-0.35465 -0.151408,-0.28291 -0.126649,-0.3027 0.565394,-0.45195 0.315054,-0.0679 0.324664,-0.0576 0.101433,0.1095 -0.226793,0.16978 -0.208329,0.20276 0.229853,0.4107 0.331219,0.15718 0.862559,0.22609 1.74311,0.22609 1.476657,0 1.638291,-0.17702 0.605408,-0.66305 -0.516672,-0.24313 -0.828655,-0.29693 -1.426906,-0.24606 -0.421111,0.0358 -0.640367,0.0297 -0.487236,-0.0136 0.358376,-0.10138 0.607036,-0.33014 0.358823,-0.33014 -0.150233,0 -0.151267,-0.0396 -0.0056,-0.21506 0.197804,-0.23834 1.302846,-0.18653 3.07937,0.14439 0.509735,0.0949 1.001919,0.12619 1.093742,0.0694 0.247605,-0.15303 0.04601,-0.22223 -1.199383,-0.41166 -1.177261,-0.17908 -1.585783,-0.3306 -1.397916,-0.51847 0.128019,-0.12801 0.681623,-0.12732 3.291368,0.004 l 1.879339,0.0946 -0.417631,-0.27886 c -0.229696,-0.15336 -0.495188,-0.27927 -0.589979,-0.27977 -0.199083,-0.001 -2.857596,-0.8365 -2.955851,-0.92888 -0.148262,-0.13939 0.370441,-0.3189 0.713569,-0.24693 0.438534,0.092 0.664241,-0.15752 0.258892,-0.28618 -0.330843,-0.10501 -0.366577,-0.32435 -0.0713,-0.43766 0.116103,-0.0446 0.317378,0.0428 0.452433,0.1963 0.133812,0.15211 0.922829,0.51387 1.753373,0.80392 1.638713,0.57227 1.947453,0.84752 1.625467,1.44915 -0.137431,0.2568 -0.122595,0.33924 0.09008,0.50045 0.140042,0.10613 0.473879,0.23225 0.741859,0.28019 1.798996,0.32184 1.98938,0.54436 1.142037,1.33474 -0.49157,0.45853 -0.665543,0.53582 -1.206253,0.53582 -0.773335,0 -0.785043,0.0778 -0.269128,1.7896 0.770047,2.5549 1.297921,4.00109 2.039879,5.58854 0.268396,0.57424 0.658302,1.60788 0.866458,2.29697 1.026094,3.39684 1.390317,4.51183 1.682535,5.15078 0.175083,0.38283 0.469335,1.04059 0.653889,1.46171 0.362757,0.82772 0.540033,1.02276 1.076624,1.18451 0.191415,0.0577 0.535165,0.23683 0.763891,0.39807 0.545215,0.38434 1.707349,0.37164 2.576994,-0.0282 0.735836,-0.3383 1.123424,-0.1731 0.571807,0.2437 -0.348061,0.26301 -1.61153,0.70766 -2.01078,0.70766 -0.12726,0 -0.231383,0.0283 -0.231383,0.0631 0,0.25564 0.375746,0.7594 0.783643,1.05062 0.268097,0.19142 0.81224,0.61749 1.209204,0.94682 0.870517,0.7222 1.865077,1.32168 2.026841,1.22171 0.230069,-0.1422 0.416824,-3.94828 0.21014,-4.2827 -0.03847,-0.0623 -0.410799,-0.11325 -0.827392,-0.11325 -0.567775,0 -0.75744,-0.0504 -0.75744,-0.20123 0,-0.11062 -0.438513,-0.43165 -0.974472,-0.7133 -0.907489,-0.47686 -1.261448,-0.89521 -0.757441,-0.89521 0.413267,0 0.04216,-0.27925 -0.57894,-0.43565 -0.868319,-0.21864 -0.693617,-0.45613 0.396374,-0.53882 1.504977,-0.11412 1.47137,-0.44745 -0.06976,-0.69179 -2.410548,-0.38218 -3.120205,-0.60648 -2.720696,-0.8599 0.09933,-0.0631 0.37551,-0.11549 0.613731,-0.11674 0.382848,-0.002 0.425643,-0.0413 0.368658,-0.33938 -0.06304,-0.32977 -0.04483,-0.33684 0.819763,-0.3179 2.086733,0.0457 3.45968,-0.0398 3.450802,-0.21491 -0.0049,-0.0956 -0.177126,-0.51477 -0.382828,-0.93123 -0.307083,-0.62173 -0.45876,-0.77911 -0.847664,-0.87955 -0.578802,-0.14948 -1.547214,-0.78259 -2.580855,-1.68727 -0.426709,-0.37348 -0.974284,-0.71963 -1.216828,-0.76923 -0.242546,-0.0496 -0.466454,-0.16659 -0.497577,-0.25995 -0.0433,-0.12991 0.334195,-0.15243 1.608528,-0.0959 1.402241,0.0622 1.677832,0.0407 1.745678,-0.13611 0.061,-0.15899 -0.129189,-0.2743 -0.783675,-0.47512 -1.426205,-0.43762 -1.705833,-0.47363 -1.896312,-0.24411 -0.202188,0.24362 -0.50653,0.16108 -0.986476,-0.26757 -0.191414,-0.17095 -0.593503,-0.38936 -0.893532,-0.48537 -1.388364,-0.44423 -1.851655,-1.09811 -0.7969,-1.12473 2.542608,-0.0642 3.906115,-0.029 5.031478,0.12991 0.727374,0.10263 1.683706,0.21992 2.125182,0.26051 0.798157,0.0734 1.267171,0.31843 0.609462,0.31843 -0.18943,0 -0.495974,0.135 -0.681212,0.29999 l -0.336797,0.29999 0.258615,0.53527 c 0.276185,0.57164 0.345564,0.59346 1.419062,0.44632 l 0.648965,-0.0889 -0.054,-0.95314 c -0.0297,-0.52423 -0.111995,-1.03234 -0.18287,-1.12914 -0.170824,-0.23331 -0.339474,-0.77769 -0.952202,-3.07363 -0.361895,-1.35607 -0.736322,-2.36182 -1.269743,-3.41066 -0.780056,-1.5338 -1.065648,-1.88529 -1.437944,-1.76974 -0.118862,0.0368 -0.310086,0.006 -0.424934,-0.0668 -0.158303,-0.10151 -0.101358,-0.13442 0.235402,-0.13603 0.24432,-0.001 0.48488,-0.0679 0.53458,-0.14835 0.103193,-0.16697 -0.258814,-0.99984 -0.523795,-1.20511 -0.326233,-0.25272 -3.943555,-1.06957 -4.155726,-0.93845 -0.215933,0.13346 0.0029,0.34083 0.359677,0.34083 0.182376,0 0.364817,0.0538 0.405425,0.11949 0.0406,0.0657 -0.40987,0.11275 -1.00106,0.10438 -0.784465,-0.0112 -1.334087,0.0718 -2.034211,0.30636 -1.073257,0.35958 -1.45956,0.25222 -0.841566,-0.23389 0.254572,-0.20025 0.575187,-0.29634 0.988769,-0.29634 0.407571,0 0.638043,-0.0678 0.689871,-0.20282 0.0554,-0.14437 0.199909,-0.1784 0.50151,-0.11812 0.325736,0.0652 0.408807,0.0396 0.359333,-0.11037 -0.08231,-0.24957 -0.675105,-0.34089 -0.808786,-0.1246 -0.07647,0.12373 -0.201167,0.11324 -0.502979,-0.0421 -0.292406,-0.15053 -0.672904,-0.18695 -1.402204,-0.13423 -0.550496,0.0398 -1.114298,0.0285 -1.252893,-0.0254 -0.457018,-0.17711 0.19787,-0.49539 1.019294,-0.49539 0.8505,0 1.065816,-0.20866 0.593275,-0.57492 -0.283181,-0.21949 -0.301875,-0.27904 -0.124431,-0.3964 0.114854,-0.0759 0.287121,-0.13907 0.382828,-0.14023 0.387793,-0.005 0.135071,-0.30714 -0.475385,-0.56881 -0.861629,-0.36934 -0.683598,-0.51308 0.941953,-0.7605 1.945856,-0.29618 2.40603,-0.26545 3.487062,0.23283 0.777724,0.35848 0.985741,0.40566 1.158055,0.26265 0.115529,-0.0959 0.184002,-0.21646 0.152175,-0.26795 -0.112832,-0.18258 -2.146815,-1.13764 -3.148041,-1.47818 -1.117618,-0.38012 -2.353499,-0.45183 -2.957197,-0.17157 -0.265699,0.12335 -0.400721,0.31588 -0.463708,0.66124 -0.128777,0.7061 -0.26834,0.91489 -0.742945,1.11148 -0.244073,0.10113 -0.422951,0.27859 -0.422951,0.41967 0,0.47899 -0.349136,0.5966 -0.929061,0.31303 -0.395813,-0.19356 -0.890269,-0.26754 -1.92475,-0.28801 -0.765657,-0.0151 -1.726816,-0.0953 -2.13591,-0.17796 -0.630167,-0.12746 -0.733184,-0.19105 -0.674281,-0.4163 0.06378,-0.24385 -0.01512,-0.26585 -0.953303,-0.26585 -1.015721,0 -1.460871,-0.17024 -0.863682,-0.33031 0.171411,-0.0459 0.636844,-0.0844 1.034295,-0.0854 0.397451,-0.001 0.757862,-0.0589 0.800911,-0.12855 0.04305,-0.0697 0.532243,-0.20417 1.087096,-0.29893 0.554853,-0.0948 1.100552,-0.25701 1.212667,-0.36058 0.172896,-0.15973 0.05263,-0.18832 -0.792245,-0.18832 -0.990208,0 -1.420517,-0.17435 -0.865262,-0.35058 0.182904,-0.0581 0.261184,-0.16862 0.211337,-0.29853 -0.146316,-0.38128 0.201478,-0.73909 1.142513,-1.1754 0.51429,-0.23845 1.029042,-0.51331 1.14389,-0.61078 0.114854,-0.0975 0.55336,-0.27638 0.974471,-0.39755 1.524527,-0.43867 1.891681,-1.01771 0.556841,-0.8782 -0.895104,0.0935 -1.041596,-0.0196 -0.491711,-0.37992 0.197163,-0.12919 0.311508,-0.30861 0.268353,-0.42108 -0.111159,-0.28966 0.400363,-0.39836 1.050633,-0.22326 0.769174,0.20712 1.731774,0.21074 2.22037,0.009 0.497864,-0.20621 1.059059,-0.1439 1.059059,0.11761 0,0.11399 -0.268167,0.2615 -0.653481,0.35934 -0.359414,0.0913 -0.753983,0.24933 -0.876818,0.35128 -0.199708,0.16574 -0.161597,0.24827 0.360203,0.77994 0.574768,0.58565 0.586966,0.59036 0.811335,0.31328 0.182814,-0.22578 0.420487,-0.28862 1.203718,-0.31828 1.052362,-0.0398 1.500326,-0.20493 1.732264,-0.63831 0.217735,-0.40685 1.046185,-0.70871 2.225533,-0.81094 l 1.044078,-0.0905 0.04274,-0.44053 c 0.03304,-0.34052 -0.02066,-0.46066 -0.236513,-0.52917 -0.178718,-0.0567 -0.249772,-0.16545 -0.197368,-0.30202 0.06306,-0.16434 0.261349,-0.20337 0.86296,-0.16989 0.429594,0.024 0.86467,-0.009 0.966837,-0.0734 0.126586,-0.0797 0.303966,0.0245 0.556841,0.32712 0.223657,0.2676 0.661332,0.54612 1.101658,0.70105 0.888745,0.3127 3.236918,0.52933 3.236918,0.29861 0,-0.085 -0.140951,-0.19026 -0.313223,-0.23396 -0.18799,-0.0477 -0.466269,-0.35486 -0.696011,-0.76831 l -0.382789,-0.68886 h 0.475596 c 0.261577,0 0.510091,0.0783 0.552256,0.17401 0.04216,0.0958 0.0451,-0.0452 0.0065,-0.31323 -0.063,-0.43772 -0.02054,-0.51891 0.417843,-0.7989 0.7164,-0.45755 1.672833,-0.63823 2.439431,-0.46083 1.20068,0.27787 2.70941,0.20703 4.046288,-0.18998 0.95873,-0.28472 2.314873,-0.28172 3.159128,0.008 0.572121,0.19563 0.83531,0.20545 1.86518,0.0695 1.455474,-0.19199 2.350801,-0.20278 2.350801,-0.0283 0,0.19676 -0.481439,0.30963 -1.475839,0.34598 -1.771244,0.0648 -1.275353,0.589 0.872443,0.9223 1.143251,0.17741 1.700782,0.45898 1.250747,0.63168 -0.130537,0.0501 -0.70802,0.0211 -1.283295,-0.0644 -1.93327,-0.28754 -2.663618,-0.1508 -1.74149,0.32605 0.333421,0.17243 0.599817,0.18587 1.477326,0.0747 0.588806,-0.0747 1.129838,-0.0991 1.202297,-0.0543 0.07245,0.0448 0.09397,0.25341 0.04779,0.46362 -0.110659,0.50381 0.123719,0.68338 1.099126,0.84213 0.430255,0.0701 0.828359,0.15521 0.884675,0.18928 0.05631,0.0341 0.525982,-0.10637 1.043704,-0.3122 0.893164,-0.35502 0.930774,-0.3881 0.735279,-0.64664 -0.226826,-0.29996 -0.283982,-0.7597 -0.09445,-0.7597 0.06625,0 0.279716,0.12529 0.474391,0.27842 0.194677,0.15314 0.547669,0.27842 0.784432,0.27842 0.282001,0 0.430474,0.0692 0.430474,0.2006 0,0.26954 0.269185,0.42117 0.441606,0.24874 0.242458,-0.24246 -0.249714,-0.96911 -0.788295,-1.16386 -0.268715,-0.0971 -0.48857,-0.22673 -0.48857,-0.28792 0,-0.0612 1.27e-4,-0.15267 2.76e-4,-0.2033 3.95e-4,-0.17657 5.147755,-0.0346 5.793683,0.15974 0.474804,0.1429 0.854702,0.15401 1.62402,0.0476 0.552331,-0.0764 1.025719,-0.16035 1.051977,-0.18645 0.02625,-0.0261 -0.130506,-0.1396 -0.348355,-0.25226 -0.543003,-0.2808 -0.942484,-0.73678 -0.749811,-0.85585 0.158303,-0.0979 0.884598,0.092 1.628303,0.42571 0.241273,0.10825 0.638423,0.1968 0.882562,0.1968 0.288528,0 0.530132,0.1065 0.690325,0.30436 0.229657,0.28361 0.307032,0.29546 1.135997,0.17401 1.144926,-0.16775 1.985832,-0.0684 2.044771,0.24146 0.03556,0.18702 -0.100533,0.24644 -0.694701,0.30326 -0.406416,0.0388 -0.926873,0.0624 -1.156568,0.0526 -0.981593,-0.0427 -2.018551,0.0484 -2.018551,0.1773 0,0.0794 0.414892,0.13922 0.966255,0.13922 1.002582,0 1.352536,0.18311 0.934354,0.48889 -0.126549,0.0925 -0.230086,0.30008 -0.230086,0.46122 0,0.35971 -0.348498,0.55797 -1.181437,0.67213 -0.935943,0.12829 -0.620783,0.25862 0.500151,0.20684 l 0.97142,-0.045 -0.0869,0.34622 c -0.07631,0.30408 -0.02478,0.36673 0.423256,0.5146 0.458572,0.15133 0.529677,0.14048 0.703266,-0.10738 0.182295,-0.26026 0.238191,-0.26511 0.997795,-0.0864 0.442574,0.10413 1.408761,0.19033 2.147083,0.19152 1.453379,0.002 1.518384,0.0386 1.380369,0.76783 -0.07052,0.37264 -0.138939,0.42163 -0.635243,0.45474 -1.041586,0.0695 -1.218411,0.14954 -1.127804,0.51056 0.06326,0.25203 -0.0052,0.3851 -0.299653,0.58215 -0.735047,0.49194 -1.303786,0.75789 -1.537755,0.71908 -0.129799,-0.0216 -0.22232,0.0332 -0.2056,0.12161 0.01673,0.0884 -0.06159,0.19611 -0.174013,0.23924 -0.124443,0.0478 -0.204412,-0.004 -0.204412,-0.13294 0,-0.16939 -0.15908,-0.20311 -0.800462,-0.16966 -0.474853,0.0247 -0.772145,0.0984 -0.730853,0.18097 0.03828,0.0765 0.38283,0.12544 0.765657,0.10862 l 0.696053,-0.0306 -0.417634,0.19831 c -0.229695,0.10913 -0.699528,0.20791 -1.044076,0.21962 -1.712552,0.0582 -3.460465,0.68402 -1.92574,0.68944 0.813014,0.002 0.960193,0.12688 1.004212,0.84611 0.02064,0.33741 0.08921,0.80141 0.152354,1.0311 l 0.114817,0.41763 -0.299265,-0.2652 c -0.164597,-0.14586 -0.299266,-0.34523 -0.299266,-0.44305 0,-0.36021 -0.535232,-0.35296 -1.118362,0.0151 -0.529418,0.33421 -0.559741,0.38438 -0.363402,0.60132 0.349144,0.38581 0.484697,0.89388 0.329415,1.23471 -0.143458,0.31487 -0.703041,0.48363 -2.231609,0.67297 -0.432625,0.0536 -0.699967,0.16269 -0.7559,0.30844 -0.0476,0.12411 -0.01346,0.24989 0.07585,0.27967 0.29807,0.0994 0.793781,0.56382 0.70109,0.65689 -0.09722,0.0976 -0.79309,-0.22613 -1.370237,-0.63753 -0.31792,-0.22661 -2.337882,-0.68326 -3.022435,-0.68326 -0.16906,0 -0.315926,0.114 -0.358946,0.27843 -0.04004,0.15314 -0.174617,0.27843 -0.299049,0.27843 -0.237265,0 -0.905445,0.21907 -3.210479,1.05261 -0.765654,0.27687 -1.558009,0.53535 -1.760788,0.57438 -0.319954,0.0616 -0.425757,0.23052 -0.800458,1.27802 -0.526913,1.47302 -0.539797,1.68892 -0.100795,1.68892 0.182039,0 0.408965,0.094 0.504281,0.20882 0.09531,0.11487 0.370947,0.20882 0.612516,0.20882 0.497373,0 1.058005,0.33472 1.058005,0.63168 0,0.26682 -0.601913,0.40296 -0.952352,0.21541 -0.155229,-0.083 -0.474287,-0.15105 -0.709017,-0.15105 -0.380791,0 -0.426782,0.0447 -0.426782,0.41499 0,0.32325 -0.0747,0.43372 -0.33798,0.49979 -0.185887,0.0467 -0.462516,0.0453 -0.614731,-0.004 -0.351545,-0.11162 -0.495983,0.11449 -0.303251,0.47458 0.226971,0.42411 0.05398,0.8426 -0.664142,1.60666 -0.665026,0.70756 -1.142523,1.55753 -1.142523,2.03375 0,0.26888 0.125601,0.30584 1.101031,0.32399 0.26102,0.005 0.500427,0.0849 0.532013,0.17796 0.06747,0.19873 -1.144643,0.21977 -1.514018,0.0263 -0.146203,-0.0765 -0.275953,-0.0581 -0.358858,0.0512 -0.21427,0.28231 -0.565796,1.38169 -0.657076,2.05497 -0.04705,0.34704 -0.209039,0.83405 -0.359976,1.08225 -0.150935,0.24818 -0.274429,0.54087 -0.274429,0.65041 0,0.28351 0.896296,0.41845 1.526089,0.22977 0.942253,-0.28231 1.435588,-0.20504 1.926858,0.30184 0.558402,0.57612 0.557575,0.78987 -0.0052,1.34008 l -0.450133,0.44009 0.992738,-0.0405 c 0.809357,-0.033 1.045478,0.007 1.27825,0.21798 0.280933,0.25426 0.290129,0.2509 0.573286,-0.20914 0.158276,-0.25715 0.37897,-0.77051 0.490437,-1.14079 0.111459,-0.37029 0.340571,-0.89639 0.509129,-1.16911 0.289433,-0.46832 0.312608,-0.47925 0.417086,-0.19682 0.168376,0.45517 0.371133,0.36181 0.7045,-0.32435 0.328906,-0.67698 0.259548,-0.92837 -0.180346,-0.65365 -0.26787,0.16729 -0.270317,0.16114 -0.0622,-0.15649 0.143283,-0.21867 0.18692,-0.47919 0.128876,-0.76942 -0.11222,-0.56108 0.02289,-0.76212 1.562761,-2.32577 0.680595,-0.6911 1.57582,-1.66192 1.989392,-2.1574 l 0.751949,-0.90084 -0.543132,-0.0446 c -0.298725,-0.0245 -0.668425,-0.15613 -0.821554,-0.29248 -0.153133,-0.13635 -0.398527,-0.29062 -0.545318,-0.34282 -0.198967,-0.0708 -0.226716,-0.13511 -0.109024,-0.25279 0.117702,-0.11774 0.467538,-0.10276 1.374564,0.0588 1.307014,0.23271 1.615083,0.20227 1.547186,-0.15288 -0.04683,-0.24497 -0.843767,-0.40071 -2.163005,-0.42273 -1.197916,-0.02 -0.868711,-0.66882 0.527994,-1.04063 0.746155,-0.19863 0.751806,-0.20395 0.316909,-0.29843 -0.482637,-0.10488 -1.068278,-0.56879 -0.953137,-0.75509 0.03957,-0.064 0.307198,-0.0618 0.594727,0.005 0.92396,0.21455 2.017662,0.13931 3.167778,-0.21792 0.612525,-0.19026 1.223308,-0.34686 1.357298,-0.34801 0.361279,-0.004 0.295107,0.26214 -0.104404,0.41852 -1.137633,0.4453 -1.117066,0.43234 -0.888732,0.56013 0.12961,0.0725 0.43161,0.0638 0.740473,-0.0215 0.534703,-0.14765 0.913917,-0.0922 0.913917,0.13387 0,0.07 -0.133564,0.16227 -0.296811,0.20496 -0.231211,0.0604 -0.27778,0.14865 -0.210715,0.39906 0.04735,0.1768 0.08695,0.42397 0.088,0.54926 0.002,0.23814 0.686901,0.40571 1.926873,0.47145 0.515108,0.0273 0.62434,-0.016 0.753201,-0.29886 0.08289,-0.18194 0.265955,-0.33079 0.406797,-0.33079 0.288366,0 0.330025,0.14878 0.104729,0.37407 -0.108974,0.109 -0.106764,0.17889 0.0079,0.24976 0.265151,0.16387 0.80148,-0.0458 0.87942,-0.34389 0.08589,-0.32845 0.44219,-0.35655 1.480753,-0.11687 0.53812,0.12424 0.706671,0.22497 0.706671,0.42243 0,0.22845 -0.07871,0.24921 -0.661247,0.17451 -0.485358,-0.0623 -0.735312,-0.0277 -0.93967,0.12998 -0.27332,0.21086 -0.272045,0.21518 0.06961,0.23571 0.191414,0.0112 0.401601,0.0112 0.467086,-3.9e-4 0.06549,-0.0112 0.20401,0.0491 0.307837,0.13529 0.140123,0.11624 0.31711,0.11437 0.686782,-0.007 0.385383,-0.12719 0.543673,-0.12646 0.699907,0.004 0.111046,0.0921 0.170106,0.21899 0.131252,0.28186 -0.06282,0.10163 -0.881274,0.365 -1.875234,0.60345 -0.705772,0.16932 -0.790467,0.31964 -0.367538,0.65232 0.213067,0.16759 0.335945,0.35449 0.27306,0.41533 -0.06289,0.0608 -0.503773,0.19015 -0.979747,0.28739 -0.748097,0.15284 -0.965106,0.14596 -1.600916,-0.0507 -0.522356,-0.16155 -0.904119,-0.19546 -1.317297,-0.11699 -0.319982,0.0608 -0.65223,0.0669 -0.738323,0.0137 -0.297927,-0.18413 -1.559683,0.12646 -2.414969,0.59444 -0.472374,0.25848 -1.058924,0.53887 -1.303446,0.6231 -0.244525,0.0843 -0.973077,0.50118 -1.619005,0.92655 -0.645932,0.42538 -1.450424,0.89173 -1.787753,1.03632 -0.394206,0.16898 -0.620003,0.35628 -0.632007,0.52426 -0.127432,1.78322 -0.314422,2.17861 -2.020167,4.27166 -0.36238,0.44467 -1.012657,1.38042 -1.445056,2.07944 -0.432401,0.69903 -1.106999,1.5706 -1.49911,1.93682 -0.612932,0.57246 -0.740416,0.63838 -0.908891,0.46991 -0.168476,-0.16848 -0.139309,-0.24384 0.207946,-0.5373 1.013042,-0.85613 1.315704,-1.18417 1.692916,-1.83494 0.222225,-0.38338 0.383196,-0.75925 0.357714,-0.83526 -0.05358,-0.15981 -1.780484,-0.18994 -1.936699,-0.0338 -0.05745,0.0574 0.09393,0.10438 0.33638,0.10438 1.133853,0 0.0133,0.70184 -2.081542,1.30374 -0.430235,0.12361 -0.857666,0.31564 -0.949848,0.42671 -0.09218,0.11112 -0.243123,0.17296 -0.335429,0.13754 -0.0923,-0.0355 -0.283591,0.0202 -0.425079,0.12373 -0.210865,0.1542 -0.228902,0.24107 -0.100034,0.48187 0.09334,0.1744 0.104829,0.32612 0.02827,0.37344 -0.07092,0.0438 -0.233647,0.39493 -0.361623,0.78022 -0.263013,0.79181 -0.872962,1.94113 -1.030195,1.94113 -0.05726,0 -0.104105,0.0899 -0.104105,0.19981 0,0.15896 0.116216,0.14062 0.568443,-0.0897 0.312643,-0.15922 0.76229,-0.43707 0.999213,-0.61744 0.236925,-0.18036 0.496461,-0.32794 0.576749,-0.32794 0.08029,0 0.182247,-0.0945 0.226573,-0.21002 0.04432,-0.11549 0.251973,-0.28778 0.461439,-0.38282 0.209467,-0.095 0.569733,-0.34509 0.800589,-0.55564 0.477317,-0.43534 0.667599,-0.47154 0.914531,-0.17401 0.141376,0.17035 0.133526,0.20882 -0.04261,0.20882 -0.11875,0 -0.31436,0.0984 -0.434677,0.21876 -0.140171,0.14016 -0.218759,0.15905 -0.218759,0.0526 0,-0.12336 -0.0555,-0.12011 -0.215404,0.0126 -0.168047,0.13946 -0.176736,0.20267 -0.03952,0.28747 0.124343,0.0769 0.075,0.14706 -0.16836,0.23958 -0.189336,0.072 -0.586824,0.38084 -0.883309,0.68632 -0.364674,0.37575 -0.623563,0.53333 -0.800265,0.48712 -0.326897,-0.0855 -0.685998,0.19766 -0.584879,0.46118 0.04175,0.10888 0.136622,0.16032 0.210818,0.11449 0.0742,-0.0458 0.05196,0.0512 -0.04939,0.2156 -0.110622,0.17945 -0.281269,0.27406 -0.426895,0.23668 -0.211385,-0.0543 -1.616843,0.83592 -2.357051,1.49291 -0.128194,0.11374 -0.353353,0.27123 -0.500353,0.34991 -0.344539,0.18439 -1.022498,2.81939 -0.748867,2.9106 0.11026,0.0367 0.04523,0.17392 -0.182479,0.38495 -0.402129,0.37268 -0.445338,0.64734 -0.148531,0.94415 0.180844,0.18084 0.180844,0.21459 0,0.28399 -0.112882,0.0433 -0.205189,0.22167 -0.205129,0.39634 5.9e-5,0.17469 -0.101845,0.8312 -0.226449,1.45895 -0.124606,0.62774 -0.186655,1.24532 -0.137887,1.37241 0.07534,0.19634 0.155217,0.16601 0.531352,-0.20173 0.243476,-0.23803 0.614831,-0.509 0.825235,-0.60214 0.370258,-0.16388 0.678164,-0.6204 0.678164,-1.00549 0,-0.10301 0.09397,-0.22343 0.208814,-0.26751 0.155534,-0.0597 0.208816,0.0212 0.208816,0.3169 0,0.47779 0.43519,0.66013 0.739858,0.30999 0.411321,-0.47272 0.543424,-0.85943 0.366439,-1.07268 -0.135335,-0.16306 -0.111458,-0.19992 0.129552,-0.19992 0.162505,0 0.295465,-0.0734 0.295465,-0.16305 0,-0.0897 0.102494,-0.27631 0.227764,-0.41472 0.364781,-0.40308 -0.05636,-0.45941 -1.081624,-0.14468 -1.060387,0.32552 -1.544526,0.22902 -0.571007,-0.11387 1.132733,-0.3989 1.492365,-0.61338 1.535801,-0.91588 0.03151,-0.21949 -0.09358,-0.34867 -0.526936,-0.54408 -0.618142,-0.27874 -1.532942,-1.19574 -1.532942,-1.53662 0,-0.16855 0.151151,-0.2045 0.72994,-0.17361 l 0.729943,0.0389 -0.04439,-0.45242 c -0.03721,-0.37936 0.0022,-0.45244 0.24453,-0.45244 0.296432,0 0.398828,-0.33328 0.149703,-0.48724 -0.07656,-0.0473 -0.139211,-0.20937 -0.139211,-0.36012 0,-0.25344 0.06674,-0.26724 0.886155,-0.18328 0.70989,0.0727 1.055656,0.0321 1.738321,-0.20413 0.510659,-0.17672 1.409087,-0.3314 2.241845,-0.38598 1.311079,-0.0859 1.403696,-0.074 1.637528,0.20896 0.22132,0.26791 0.304507,0.28412 0.777142,0.15131 0.679024,-0.19079 1.28044,-0.12336 1.28044,0.14349 0,0.11299 -0.300216,0.3642 -0.667149,0.55817 -0.706066,0.37323 -0.928164,0.61432 -0.931637,1.01126 -0.0032,0.36933 0.509276,0.30109 1.091517,-0.14533 1.17288,-0.8993 1.829767,-0.86528 1.829767,0.0948 0,0.61837 -0.630329,1.39819 -1.149697,1.42237 -0.171605,0.007 -0.732582,0.0236 -1.246615,0.0348 -1.170995,0.0255 -1.496614,0.26496 -1.231195,0.90573 0.09489,0.22908 0.134882,0.53513 0.08887,0.6801 -0.107176,0.33767 -0.93004,0.73141 -1.52856,0.73141 -0.753608,0 -2.349141,0.89505 -3.390929,1.90221 -0.516214,0.49906 -1.23535,1.0945 -1.598081,1.32319 -0.362729,0.2287 -0.789846,0.59886 -0.949148,0.82258 -0.159301,0.22371 -0.366756,0.40676 -0.461009,0.40676 -0.09425,0 -0.248494,0.21328 -0.342756,0.47395 -0.09427,0.26068 -0.263459,0.50929 -0.375992,0.55248 -0.263889,0.10125 -0.2597,-0.0506 0.01211,-0.43862 0.200021,-0.28557 0.197341,-0.30914 -0.0348,-0.30613 -0.138331,0.002 -0.564735,0.17404 -0.947563,0.38281 -0.551493,0.30076 -0.70554,0.46261 -0.741738,0.77938 -0.06825,0.59725 0.134434,0.68196 0.7047,0.29444 0.280227,-0.19041 0.586391,-0.34621 0.680364,-0.34621 0.256385,0 -0.428341,0.67477 -1.025035,1.01013 l -0.523153,0.29404 -0.02289,1.40126 c -0.0406,2.48626 0.03156,4.94381 0.249636,8.50099 0.117352,1.91415 0.207522,3.64967 0.200393,3.85673 -0.0071,0.20706 0.08222,1.23504 0.198566,2.28438 0.202282,1.82448 0.203536,2.5084 0.0029,1.59502 -0.05165,-0.23517 -0.160998,-0.42758 -0.242988,-0.42758 -0.137675,0 -0.07794,1.86162 0.100508,3.13223 0.254533,1.81237 0.281965,2.43215 0.11056,2.49793 -0.117901,0.0452 -0.179082,0.34865 -0.179082,0.88814 0,1.60888 0.376815,5.58214 0.655849,6.91549 0.08724,0.41687 0.08757,0.41699 0.180175,0.0695 0.05103,-0.19141 0.105241,0.46636 0.120486,1.46171 0.01523,0.99535 0.07898,2.03323 0.141663,2.30639 0.148807,0.64854 0.03778,1.38269 -0.2091,1.38269 -0.227886,0 -0.246706,0.19639 -0.05343,0.55754 0.07967,0.14886 0.08644,0.29366 0.01577,0.33733 -0.213501,0.13196 -0.441804,-0.2858 -0.423152,-0.77431 0.05425,-1.42088 0.02749,-2.06953 -0.111196,-2.69596 -0.08476,-0.38283 -0.194572,-1.22852 -0.244028,-1.87934 -0.04946,-0.65081 -0.115229,-1.27725 -0.146155,-1.3921 -0.09829,-0.36497 -0.48883,-5.98189 -0.551719,-7.93499 -0.199031,-6.18108 -0.421029,-16.20188 -0.382418,-17.26207 0.132971,-3.6512 0.06646,-4.17631 -0.528953,-4.17631 -0.150437,0 -0.277982,0.0157 -0.283432,0.0348 -0.0055,0.0191 -0.06415,0.8805 -0.130435,1.91413 -0.08927,1.39197 -0.07152,2.24037 0.06848,3.27145 0.345569,2.54514 0.371972,2.88364 0.217481,2.78817 -0.0801,-0.0494 -0.146533,-0.19594 -0.147647,-0.32541 -0.0011,-0.12947 -0.100883,-0.5173 -0.221719,-0.86184 -0.292805,-0.83492 -0.369709,-6.36922 -0.0925,-6.65724 0.09737,-0.10113 0.178286,-0.47705 0.179803,-0.83526 0.003,-0.7034 0.217464,-2.35621 0.350884,-2.7039 0.17928,-0.4672 -1.711241,-2.03018 -1.962967,-1.62287 -0.106689,0.17261 0.842146,1.19795 1.219361,1.31767 0.137914,0.0438 0.250753,0.19996 0.250753,0.34706 0,0.38999 -0.686308,0.29653 -1.067036,-0.14531 -0.491296,-0.57014 -0.524302,-0.22417 -0.08216,0.86114 0.620605,1.52335 0.817214,2.33922 0.59657,2.47559 -0.140865,0.087 -0.159429,0.73768 -0.088,3.08429 0.04979,1.63568 0.121609,4.28949 0.159588,5.89738 0.03798,1.60787 0.134058,3.39324 0.213494,3.96749 0.198675,1.43621 0.364836,5.91693 0.247794,6.68208 -0.0527,0.34456 -0.07012,1.56613 -0.03871,2.71461 0.04259,1.55691 0.02086,1.97305 -0.0854,1.63572 -0.286511,-0.9095 -0.412986,-0.45371 -0.412986,1.4883 0,2.2513 0.20729,2.7524 0.464108,1.12189 0.03015,-0.19141 0.06335,0.23988 0.07378,0.95842 0.01049,0.71855 0.09224,1.70418 0.181809,2.19028 0.139726,0.75832 0.13218,0.91876 -0.05314,1.12973 -0.1188,0.13526 -0.251249,0.37119 -0.294343,0.52433 -0.168439,0.59856 -0.302013,2.44289 -0.289857,4.00229 0.007,0.89964 -0.02431,1.63077 -0.06961,1.62473 -0.0453,-0.006 -0.157138,-0.0414 -0.248539,-0.0787 z m 0.374998,-21.2874 c 0,-0.33004 -0.189152,-0.45766 -0.333095,-0.22477 -0.109561,0.17727 0.07033,0.72696 0.209712,0.64083 0.06786,-0.0419 0.123382,-0.22917 0.123383,-0.41606 z m 1.531314,-18.57636 c 0,-0.0765 -0.06264,-0.13922 -0.13921,-0.13922 -0.07656,0 -0.139211,0.0627 -0.139211,0.13922 0,0.0765 0.06264,0.13921 0.139211,0.13921 0.07656,0 0.13921,-0.0627 0.13921,-0.13921 z m 1.956867,-0.66217 c 1.240046,-0.84551 1.768839,-1.56982 1.140562,-1.56227 -0.260896,0.004 -1.844536,1.43473 -1.844536,1.66743 0,0.21144 0.306867,0.1656 0.703974,-0.10513 z m -1.748915,-0.58561 c 0.120273,-0.71194 -0.01049,-0.93623 -0.360983,-0.61906 -0.145529,0.13171 -0.2646,0.17396 -0.2646,0.0939 0,-0.08 -0.218249,-0.17104 -0.484996,-0.20218 l -0.484994,-0.0566 0.307904,0.32775 c 0.178505,0.19002 0.411583,0.30064 0.554601,0.26324 0.194332,-0.0508 0.246695,0.0213 0.246695,0.34008 0,0.62529 0.375039,0.51185 0.486373,-0.14713 z m 0.366163,0.23619 c -0.137486,-0.13647 -0.153476,-0.12049 -0.07794,0.0779 0.05228,0.13729 0.13012,0.21455 0.172981,0.17168 0.04286,-0.0428 8.9e-5,-0.15518 -0.09505,-0.24961 z m -3.636741,-0.93246 c 0,-0.17397 -0.49376,-0.4392 -0.606935,-0.32604 -0.121646,0.12161 0.183807,0.46036 0.415164,0.46036 0.105478,0 0.191771,-0.0604 0.191771,-0.13432 z m -1.148243,-0.31812 c -0.03177,-0.0958 -0.505745,-0.40355 -1.053282,-0.68408 -1.260988,-0.6461 -1.617578,-0.93521 -2.622047,-2.12587 -0.447945,-0.53098 -0.987039,-1.15607 -1.197987,-1.38911 -0.210948,-0.23303 -0.422802,-0.55033 -0.470786,-0.70511 -0.04798,-0.15478 -0.481966,-0.87653 -0.964402,-1.6039 -0.482437,-0.72739 -0.942463,-1.49479 -1.02228,-1.70534 -0.114205,-0.30127 -0.234828,-0.38282 -0.566196,-0.38282 -0.231592,0 -0.421076,0.0604 -0.421076,0.13427 0,0.24328 1.231526,2.15519 1.629025,2.52901 0.214238,0.20148 0.514451,0.60867 0.667141,0.90487 0.705667,1.36892 1.417083,2.5402 1.891356,3.11393 0.636993,0.77059 1.752248,1.45794 2.928343,1.80479 1.076303,0.31741 1.277323,0.3357 1.202191,0.10937 z m 3.824146,-0.83526 c 0.03541,-0.47853 0.04668,-1.6713 0.02506,-2.65057 l -0.03932,-1.78051 -0.634343,-1.28211 c -0.842821,-1.70349 -2.035956,-3.66066 -2.638671,-4.32835 -0.468558,-0.51909 -0.515778,-0.53777 -1.194191,-0.47258 -0.388489,0.0373 -0.746225,0.10775 -0.794967,0.15649 -0.04874,0.0487 -0.117189,0.97263 -0.152114,2.05309 -0.06149,1.9025 0.115279,3.50844 0.405956,3.68809 0.06562,0.0406 0.120148,0.21099 0.12116,0.37875 0.0029,0.47145 0.997923,2.14641 1.929753,3.24825 1.032317,1.22065 1.711557,1.66517 2.819627,1.84526 0.04822,0.007 0.11664,-0.37727 0.152046,-0.85581 z m 0.889233,0.2178 c 0.02146,-0.42232 0.179159,-1.37561 0.264301,-1.59774 0.09468,-0.24701 -0.619527,-1.0156 -0.787584,-0.84754 -0.07284,0.0729 -0.08667,0.70601 -0.0323,1.4794 0.07968,1.13361 0.131009,1.34514 0.317676,1.30922 0.122446,-0.0236 0.229512,-0.17806 0.237912,-0.34334 z m -4.121978,-0.0337 c 0,-0.071 -0.360206,-0.26317 -0.800459,-0.42691 -0.720109,-0.26782 -1.36984,-0.60191 -2.401377,-1.23479 l -0.348026,-0.21352 0.348026,0.38902 c 0.420622,0.47015 1.357784,1.04487 2.219293,1.36099 0.742697,0.27253 0.982543,0.30309 0.982543,0.12521 z m 9.222682,-0.20379 c 0.133989,-0.10176 0.243617,-0.22786 0.243617,-0.28033 0,-0.15527 0.65992,-0.76851 0.740402,-0.68802 0.04063,0.0406 0.204799,0.0323 0.364812,-0.0185 0.345382,-0.10962 0.2258,-0.40362 -0.126681,-0.31145 -0.133615,0.035 -0.332998,0.0131 -0.443074,-0.0485 -0.110073,-0.0615 -0.261542,-0.069 -0.336593,-0.0166 -0.140842,0.0985 -0.909463,1.07503 -1.088588,1.38309 -0.13685,0.23536 0.328786,0.22111 0.646105,-0.0197 z m -4.616928,-0.37765 c -0.122633,-0.30658 -0.134087,-0.31008 -0.1422,-0.0435 -0.0049,0.15952 0.03294,0.33179 0.08398,0.38283 0.166268,0.16627 0.194547,0.001 0.05822,-0.33942 z m -4.327332,-0.0562 c 0,-0.039 -0.34126,-0.44202 -0.758354,-0.89572 -1.003272,-1.09131 -1.883037,-2.86785 -1.896428,-3.82952 -0.0054,-0.38652 -0.05788,-0.82577 -0.116664,-0.97611 -0.08438,-0.21583 -0.127076,-0.14706 -0.202823,0.32663 -0.218728,1.36787 0.726788,3.97554 1.578127,4.35237 0.231916,0.10264 0.421665,0.23685 0.421665,0.29821 0,0.1633 0.658659,0.79495 0.828935,0.79495 0.08005,0 0.145538,-0.0318 0.145538,-0.0708 z m -2.287291,-1.28649 c -0.392167,-0.59809 -0.731026,-1.54158 -0.964169,-2.68454 -0.146725,-0.7193 -0.238628,-0.85834 -0.995681,-1.50629 -0.458719,-0.39262 -0.873713,-0.71441 -0.922207,-0.71509 -0.04849,-8e-4 -0.123631,0.13435 -0.166965,0.30007 -0.05793,0.22154 -0.126732,0.26452 -0.259857,0.16231 -0.09958,-0.0764 -0.633623,-0.4997 -1.186757,-0.94055 -0.553136,-0.44085 -1.067786,-0.78013 -1.143668,-0.75395 -0.148604,0.0513 0.696482,1.53066 1.580262,2.76641 1.021877,1.42882 3.735976,3.89368 4.287408,3.89368 0.06266,0 -0.0401,-0.23493 -0.228366,-0.52205 z m 13.448114,-0.0755 c -0.175053,-0.21093 -1.137684,-0.30779 -1.137684,-0.11449 0,0.18033 0.259636,0.27032 0.817504,0.28338 0.368657,0.009 0.437417,-0.0276 0.32018,-0.1689 z m 2.488696,-0.45013 c 0.433326,-0.22407 0.515607,-0.4623 0.251052,-0.72684 -0.120086,-0.12011 -0.310615,-0.0558 -0.768521,0.25924 -0.869183,0.598 -0.456263,0.97115 0.517469,0.4676 z m -9.178988,-0.73559 c 0.162479,-0.18279 0.402741,-1.04642 0.313791,-1.12793 -0.04911,-0.045 -0.116078,-0.007 -0.14883,0.0844 -0.03275,0.0914 -0.149461,0.13168 -0.259364,0.0895 -0.109897,-0.0422 -0.199821,-0.007 -0.199821,0.0774 0,0.26338 -0.242056,0.16898 -0.318756,-0.12436 -0.04004,-0.15313 -0.179342,-0.27842 -0.309551,-0.27842 -0.159038,0 -0.208909,0.0725 -0.151943,0.22099 0.04665,0.12148 0.12312,0.46064 0.169963,0.75356 0.07742,0.48421 0.118501,0.52659 0.452133,0.46674 0.201832,-0.0362 0.405403,-0.10912 0.452378,-0.16191 z m 8.40642,-0.47328 c 0,-0.25423 -0.791856,-0.15247 -1.006917,0.12939 -0.127186,0.16668 -0.13138,0.27348 -0.01619,0.41228 0.128531,0.15487 0.230614,0.13974 0.589283,-0.0874 0.238603,-0.15106 0.433823,-0.35551 0.433823,-0.45431 z m -20.179231,-0.64575 c -0.219866,-0.21527 -0.22346,-0.20449 -0.05622,0.16866 0.09826,0.21925 0.203949,0.32272 0.234872,0.22995 0.03093,-0.0928 -0.04947,-0.27215 -0.178647,-0.39861 z m 16.172236,0.3087 c 0.05555,-0.16936 -0.20973,-0.25543 -1.249994,-0.40553 -0.566973,-0.0818 -0.650967,-0.0642 -0.579671,0.12161 0.167174,0.43565 1.701792,0.67378 1.829665,0.28392 z m -4.495664,-1.33911 c 0.135727,-1.21193 0.124418,-1.36327 -0.115479,-1.54521 -0.186364,-0.14134 -0.173211,-0.25808 0.11217,-0.99538 0.411824,-1.06397 1.35015,-3.83855 1.382007,-4.08652 0.01487,-0.11574 -0.271328,-0.27893 -0.740411,-0.42226 -0.481253,-0.14704 -0.781345,-0.32037 -0.809709,-0.46765 -0.05077,-0.26363 0.165125,-0.33749 1.435142,-0.49102 0.77221,-0.0934 0.838512,-0.12908 0.878327,-0.4736 0.02369,-0.20495 0.133315,-0.44754 0.243618,-0.53909 0.110297,-0.0915 0.200552,-0.28474 0.200552,-0.42932 0,-0.1446 0.122208,-0.52845 0.271564,-0.85303 0.149358,-0.32457 0.465301,-1.08409 0.702094,-1.68784 0.236792,-0.60374 0.584424,-1.37336 0.772514,-1.71027 0.188091,-0.3369 0.341983,-0.68019 0.341983,-0.76287 0,-0.0827 0.219112,-0.61822 0.486916,-1.19008 0.44736,-0.95527 0.469979,-1.06393 0.27842,-1.33742 -0.114668,-0.16372 -0.208495,-0.41313 -0.208495,-0.55427 0,-0.14112 -0.068,-0.38365 -0.151111,-0.53895 l -0.151112,-0.28234 -0.301322,0.28223 c -0.165728,0.15525 -0.708512,0.46728 -1.206189,0.69344 -0.884701,0.402 -1.564322,0.96162 -2.191237,1.80431 -0.281827,0.37883 -0.289244,0.42795 -0.07694,0.50942 0.200971,0.0772 0.182383,0.12448 -0.128497,0.32761 -0.199899,0.13058 -0.653913,0.44104 -1.008918,0.68987 -0.7325,0.51344 -0.863109,0.5339 -1.557184,0.24389 -0.465286,-0.19441 -0.534801,-0.18848 -1.025917,0.0875 -0.289745,0.16283 -0.955822,0.77082 -1.48017,1.35105 -0.524347,0.58024 -1.184114,1.29829 -1.466149,1.5957 -0.282033,0.29739 -0.482874,0.61868 -0.446313,0.71396 0.03656,0.0953 0.269105,0.26985 0.516763,0.38796 0.735304,0.35063 1.347207,0.9385 1.347207,1.29429 0,0.24782 -0.115529,0.36298 -0.487236,0.48565 -0.717632,0.23684 -0.630075,0.43979 0.477537,1.10687 0.589483,0.35502 0.692775,0.64371 0.398764,1.11451 -0.143069,0.22908 -0.09333,0.37743 0.337773,1.00738 0.278053,0.4063 0.615765,1.02064 0.750474,1.36518 0.134709,0.34455 0.428027,0.97099 0.651815,1.3921 0.223791,0.42111 0.498644,0.93793 0.610785,1.1485 0.112145,0.21054 0.257731,0.38281 0.323528,0.38281 0.0658,0 0.161702,0.14095 0.213116,0.31323 0.124992,0.4188 0.46046,0.93966 0.605205,0.93966 0.06416,0 0.160517,-0.39152 0.214111,-0.87005 z m -0.74291,-0.52203 c -0.0042,-0.11487 0.05308,-0.30279 0.127294,-0.41764 0.164453,-0.25447 0.164453,-0.0347 0,0.34803 -0.07888,0.18358 -0.122246,0.20729 -0.127294,0.0695 z m -0.963245,-2.05336 c -0.334856,-0.8555 -0.246361,-1.41999 0.319453,-2.03772 0.465723,-0.50844 0.771086,-0.56533 0.771086,-0.14364 0,0.11199 -0.152377,0.27301 -0.338615,0.35786 -0.469844,0.21408 -0.688269,0.81473 -0.573816,1.57796 0.107126,0.71436 0.04105,0.80545 -0.178108,0.24554 z m 14.172275,3.31169 c 0.112632,-0.0713 0.162533,-0.17177 0.110897,-0.22341 -0.13291,-0.1329 -1.081339,0.0638 -1.081339,0.22427 0,0.16994 0.701351,0.1693 0.970441,-7.9e-4 z m 0.704844,-0.57119 c 0.196059,-0.36634 -0.03867,-0.68862 -0.427511,-0.58693 -0.329947,0.0863 -0.337685,0.16355 -0.0566,0.56486 0.265979,0.37973 0.292055,0.38093 0.484105,0.0221 z m -3.073695,-0.20751 c -0.467246,-0.563 -1.385796,-0.60234 -1.385796,-0.0593 0,0.24219 0.09531,0.27577 0.782702,0.27577 0.692168,0 0.761926,-0.025 0.603094,-0.21641 z m -1.803426,-0.46441 c 0,-0.13108 -0.836142,-0.27015 -1.098465,-0.18272 -0.377436,0.12582 -0.09905,0.3067 0.472018,0.3067 0.344546,0 0.626447,-0.0558 0.626447,-0.12398 z M 41.823159,248.3826 c -0.740385,-0.76103 -1.664707,-1.29819 -1.664707,-0.96741 0,0.19423 1.850826,1.56402 2.151943,1.59266 0.07336,0.007 -0.145891,-0.2744 -0.487236,-0.62525 z m 11.583695,0.20998 c -0.145408,-0.39308 -0.361778,-0.40582 -0.415936,-0.0245 -0.03365,0.23689 0.02463,0.31322 0.239132,0.31322 0.228522,0 0.262868,-0.0561 0.176804,-0.28874 z m 1.229467,-0.37393 c 0,-0.0582 0.149778,-0.26737 0.33284,-0.46479 0.387124,-0.41749 0.785688,-1.14551 0.769852,-1.40622 -0.0082,-0.13557 -0.02831,-0.13816 -0.08006,-0.01 -0.03798,0.0938 -0.376612,0.46967 -0.752508,0.83526 -0.676831,0.65828 -0.882085,1.15195 -0.478947,1.15195 0.114842,0 0.208814,-0.0477 0.208814,-0.10587 z m -18.236546,-0.29481 c 0,-0.0672 -0.08839,-0.19552 -0.196422,-0.28518 -0.148828,-0.12348 -0.22061,-0.12386 -0.296255,-10e-4 -0.05491,0.0888 -0.01351,0.21621 0.09202,0.28305 0.246998,0.15644 0.400664,0.15783 0.400664,0.004 z m 2.644995,-0.49938 c 0,-0.28184 -0.543362,-0.5613 -0.729482,-0.37518 -0.07851,0.0785 -0.105078,0.24093 -0.05903,0.36092 0.107588,0.28036 0.78851,0.29267 0.78851,0.0142 z m 0.895805,-0.34947 c 0.565808,-0.21513 0.457043,-0.56029 -0.176551,-0.56029 -0.645518,0 -0.754071,0.0873 -0.538364,0.43263 0.189509,0.30345 0.23238,0.31111 0.714915,0.12766 z m -4.368709,-0.21227 c -0.01086,-0.20664 -0.322358,-0.16867 -0.394612,0.0481 -0.03903,0.11711 0.02461,0.16928 0.169764,0.13921 0.127712,-0.0265 0.228892,-0.11074 0.224848,-0.18731 z m 18.267404,-0.59084 c 0.121234,-0.28757 0.325684,-0.87753 0.454333,-1.31104 0.165726,-0.55845 0.32078,-0.81778 0.531932,-0.88971 0.274212,-0.0934 0.266497,-0.10638 -0.09656,-0.16185 -0.217024,-0.0332 -0.476746,-0.0288 -0.577159,0.01 -0.169282,0.0649 -0.718654,1.43326 -0.661097,1.64656 0.0141,0.0522 -0.06631,0.31496 -0.17866,0.58388 -0.228284,0.54635 -0.146382,1.02138 0.135733,0.78724 0.09408,-0.078 0.270246,-0.37724 0.391482,-0.66481 z m 1.794854,-0.41844 c 0.89999,-0.92327 1.090352,-1.24371 1.090352,-1.83538 0,-0.49667 -0.150961,-0.52827 -0.751278,-0.15725 -0.545309,0.33702 -1.014676,0.96348 -1.275278,1.70212 -0.464691,1.31706 -0.157401,1.41242 0.936204,0.29051 z m -19.686717,-1.18331 c -0.03186,-0.0958 -0.176043,-0.1969 -0.320392,-0.22488 -0.227066,-0.0439 -0.237292,-0.0206 -0.07583,0.17401 0.220816,0.26608 0.478904,0.29921 0.396219,0.0508 z m 10.298595,-0.88456 c -0.04626,-0.0462 -0.166328,-0.0512 -0.266819,-0.0112 -0.111047,0.0444 -0.07806,0.0774 0.0841,0.0841 0.14675,0.006 0.228972,-0.0268 0.182714,-0.0732 z m -1.594289,-0.46584 c 0.184969,-0.70732 -0.595504,-0.95538 -2.036163,-0.64717 -1.507435,0.3225 -1.460641,0.44707 0.292999,0.77993 1.344478,0.2552 1.64775,0.23211 1.743164,-0.13276 z m 1.771202,-0.0617 c 0,-0.19907 -0.287962,-0.36291 -0.637833,-0.36291 -0.108586,0 -0.197428,0.12529 -0.197428,0.27841 0,0.21655 0.09281,0.27843 0.417631,0.27843 0.264164,0 0.41763,-0.0713 0.41763,-0.19393 z m 7.656565,-0.18096 c 0,-0.15735 -0.103617,-0.18185 -0.452432,-0.107 -0.585477,0.12556 -0.728195,0.2153 -0.533663,0.33553 0.261828,0.16182 0.986095,-0.006 0.986095,-0.2285 z m 1.392104,0.0431 c 0,-0.10588 -0.13189,-0.22707 -0.293088,-0.26922 -0.396734,-0.10376 -0.273797,-0.39995 0.266549,-0.64221 0.613063,-0.27484 0.621597,-0.78729 0.0146,-0.87638 -0.361168,-0.0531 -0.452286,-0.006 -0.572181,0.29741 -0.07843,0.19827 -0.140008,0.52865 -0.136834,0.7342 0.0031,0.20555 -0.08389,0.44815 -0.193476,0.53909 -0.337162,0.27983 -0.223805,0.40969 0.357595,0.40969 0.381298,0 0.556841,-0.0607 0.55684,-0.19258 z m 0.895803,-0.0824 c 0.454101,-0.17265 0.462336,-0.42108 0.01396,-0.42108 -0.200652,0 -0.404998,0.11562 -0.492133,0.27842 -0.16839,0.31463 -0.05957,0.3471 0.478173,0.14266 z M 47.323794,242.428 c 0.34972,-0.25572 0.207368,-0.5541 -0.481998,-1.01029 -0.645589,-0.42723 -0.795808,-0.36439 -0.969457,0.40554 -0.07072,0.31355 -0.05662,0.54819 0.03867,0.64347 0.211146,0.21115 1.104561,0.18667 1.412789,-0.0387 z m -2.292982,-0.29033 c 0,-0.2764 -0.08235,-0.30684 -1.113682,-0.4117 -0.629944,-0.0641 -0.841423,-0.0491 -0.696051,0.0492 0.114842,0.0777 0.365426,0.14437 0.556841,0.14825 0.191414,0.004 0.504638,0.0966 0.696051,0.20601 0.445319,0.25457 0.556841,0.25622 0.556841,0.009 z m 0.636888,-0.46181 c -0.141398,-0.1414 -0.397423,0.20833 -0.28531,0.38973 0.07676,0.12423 0.139891,0.10613 0.237289,-0.0679 0.07299,-0.13042 0.0946,-0.27524 0.04802,-0.32181 z m 11.253406,0.16059 c 0.331761,-0.12732 0.119062,-0.33344 -0.344056,-0.33344 -0.271118,0 -0.409415,0.0705 -0.409415,0.20881 0,0.21419 0.363427,0.2743 0.753471,0.1246 z M 41.33478,241.66604 c -0.57625,-0.50275 -0.925542,-0.67599 -1.241292,-0.61562 -0.193967,0.0371 -0.352666,0.11786 -0.352666,0.17959 0,0.11699 0.654043,0.35459 1.252893,0.4551 0.191413,0.0321 0.376215,0.0669 0.410669,0.0774 0.03446,0.01 0.0031,-0.033 -0.06961,-0.0964 z m 18.68434,-0.0873 c 0,-0.1115 -0.05323,-0.16979 -0.118275,-0.12959 -0.06505,0.0402 -0.08224,0.13141 -0.03819,0.20269 0.11257,0.18214 0.156468,0.16163 0.156468,-0.073 z m -24.095659,-1.41662 c -0.192879,-0.6024 -0.58163,-1.8157 -0.863886,-2.6962 -0.28226,-0.88051 -0.620809,-1.82018 -0.752333,-2.08816 -0.131522,-0.26798 -0.444519,-1.01972 -0.695544,-1.67053 -0.251027,-0.65081 -0.517744,-1.24593 -0.592705,-1.32249 -0.251832,-0.25723 0.0329,0.80638 0.460702,1.72096 0.227862,0.48712 0.414295,0.97347 0.414295,1.08076 0,0.10725 0.06097,0.30386 0.135495,0.4368 0.19584,0.3494 1.059173,3.18859 1.251966,4.11727 0.144728,0.69714 0.765155,1.74442 0.933625,1.57595 0.03249,-0.0325 -0.09874,-0.55196 -0.291615,-1.15436 z m 7.505821,1.06148 c -0.218212,-0.35308 -0.92744,-0.56943 -1.557101,-0.47501 -0.789369,0.11836 -0.559798,0.29177 0.613648,0.46349 0.44267,0.0648 0.855537,0.12541 0.917479,0.13474 0.06194,0.009 0.07363,-0.0461 0.02597,-0.12323 z m 0.696663,-0.27743 c -0.04732,-0.0765 -0.160646,-0.13825 -0.251834,-0.13708 -0.09962,0.001 -0.08246,0.0559 0.04303,0.13708 0.26744,0.17284 0.315632,0.17284 0.208816,0 z m 12.528926,-0.13921 c -0.04732,-0.0765 -0.144985,-0.13921 -0.217031,-0.13921 -0.07204,0 -0.130995,0.0627 -0.130995,0.13921 0,0.0765 0.09766,0.13921 0.217031,0.13921 0.119374,0 0.178315,-0.0627 0.130995,-0.13921 z m 1.740128,0.0639 c 0,-0.0413 -0.13707,-0.26064 -0.3046,-0.48723 -0.290375,-0.39276 -0.809081,-0.56764 -0.809081,-0.27278 0,0.0765 0.06264,0.1392 0.13921,0.1392 0.07656,0 0.13921,0.12073 0.13921,0.26821 0,0.24501 0.198792,0.36878 0.661249,0.41169 0.0957,0.009 0.174012,-0.0177 0.174012,-0.0591 z m -2.433466,-0.30003 c 0.123432,-0.16879 0.133836,-0.34733 0.03653,-0.62645 -0.184698,-0.52983 -0.346535,-0.49052 -0.516621,0.12549 -0.106577,0.38598 -0.09946,0.54318 0.02825,0.62431 0.235609,0.14968 0.256311,0.14404 0.451832,-0.12335 z m -10.957518,-0.77321 c -0.04035,-0.55775 -0.0764,-0.60326 -0.629016,-0.79429 -0.322415,-0.1115 -0.629778,-0.15909 -0.683031,-0.10588 -0.133606,0.13361 0.362619,1.19725 0.632098,1.35488 0.120735,0.0707 0.33274,0.13033 0.471133,0.13265 0.210446,0.004 0.244618,-0.0926 0.208816,-0.58741 z m -10.486722,-1.72897 c -0.737245,-2.46985 -1.464885,-4.18473 -1.455401,-3.43003 0.0066,0.52679 1.225765,4.37974 1.471885,4.6517 0.391011,0.43207 0.386933,0.12983 -0.01648,-1.22167 z m 11.64261,1.03292 c 0.04301,-1.26318 0.113481,-2.08945 0.184221,-2.16018 0.04334,-0.0433 0.0788,0.11287 0.0788,0.34715 0,0.24051 0.08649,0.45912 0.19866,0.50217 0.170204,0.0653 0.166516,0.17676 -0.02576,0.778 -0.258981,0.80986 -0.134731,1.07137 0.269696,0.56765 0.845658,-1.05326 2.338069,-2.44421 3.017701,-2.81253 0.56987,-0.30883 0.579601,-0.73019 0.02136,-0.92479 -0.774128,-0.26986 -0.248977,-0.65516 1.251489,-0.91822 l 0.487236,-0.0854 -0.556841,0.31713 -0.556842,0.31713 0.529084,0.0436 c 0.643323,0.0531 1.767886,-0.35063 1.767886,-0.63462 0,-0.157 -0.122483,-0.18828 -0.522038,-0.13332 -0.304728,0.0419 -0.898708,-0.0356 -1.426906,-0.18632 -0.497676,-0.14196 -1.135314,-0.29471 -1.416971,-0.33943 -0.281658,-0.0447 -0.656019,-0.19786 -0.831914,-0.34029 l -0.319808,-0.25897 0.522145,-0.21817 c 0.28718,-0.11999 0.755508,-0.25691 1.040729,-0.30427 0.865942,-0.1438 0.975222,-0.20046 0.692597,-0.35912 -0.426029,-0.23916 -0.292635,-0.54056 0.239249,-0.54056 0.37722,0 0.464899,-0.0468 0.400746,-0.21401 -0.121759,-0.31729 0.337927,-0.74286 0.91043,-0.84286 0.276609,-0.0483 0.565571,-0.16458 0.642136,-0.2584 0.142282,-0.17433 0.680306,-0.49446 0.831008,-0.49446 0.04601,0 0.01661,0.12529 -0.06535,0.27841 -0.08196,0.15314 -0.131141,0.28321 -0.109311,0.28908 0.373415,0.10013 0.553667,0.0603 0.664631,-0.14703 0.07866,-0.14699 0.35268,-0.2821 0.659678,-0.32527 0.28882,-0.0406 0.830787,-0.11899 1.204374,-0.17426 0.555275,-0.082 0.702636,-0.0586 0.807378,0.12853 0.07174,0.12821 0.301198,0.22895 0.521438,0.22895 0.329285,0 0.407501,-0.0709 0.480469,-0.43578 0.124268,-0.62136 -0.168866,-1.50323 -0.527757,-1.58771 -0.37102,-0.0874 -1.091195,0.11074 -1.160704,0.31933 -0.02933,0.088 0.15452,0.21752 0.408559,0.28785 0.383615,0.10613 0.418835,0.14588 0.207822,0.23416 -0.139738,0.0584 -0.513422,0.0286 -0.830407,-0.0664 -0.420234,-0.1259 -0.590448,-0.13036 -0.628426,-0.0163 -0.09937,0.2981 -0.46631,0.5689 -0.768025,0.56678 -0.200364,-0.001 -0.244941,-0.0392 -0.131362,-0.11137 0.09455,-0.0601 0.212012,-0.30968 0.261019,-0.55472 l 0.08911,-0.44551 -0.678651,-4e-4 c -0.781248,-3.9e-4 -1.727813,-0.4677 -1.470073,-0.72544 0.108012,-0.108 0.379058,-0.10075 0.958254,0.0256 0.444204,0.0969 0.93293,0.1689 1.086062,0.15998 1.087385,-0.0634 1.252892,-0.10039 1.252892,-0.27972 0,-0.22276 -0.01834,-0.23396 -1.611085,-0.98427 -0.988145,-0.46546 -1.339969,-0.56217 -2.045136,-0.56217 -0.818919,0 -1.184623,-0.15241 -0.854805,-0.35625 0.08639,-0.0534 0.516231,-0.0889 0.955215,-0.079 0.617015,0.0139 0.871291,-0.0454 1.120422,-0.26146 0.3932,-0.34103 0.30432,-0.44618 -0.528908,-0.62576 -0.355244,-0.0765 -0.616662,-0.20185 -0.580929,-0.27843 0.07102,-0.15216 0.591311,-0.15332 1.457071,-0.004 0.324729,0.0563 0.726802,0.0311 0.96458,-0.0606 0.405949,-0.15638 0.406532,-0.15828 0.132938,-0.43187 -0.15114,-0.15114 -0.867103,-0.43662 -1.591026,-0.6344 -1.989652,-0.5436 -1.990185,-0.54379 -2.049609,-0.72206 -0.03051,-0.0915 0.03656,-0.16643 0.149029,-0.16643 0.112482,0 0.380427,-0.0913 0.595444,-0.20283 0.354403,-0.18386 0.365649,-0.2111 0.120323,-0.29146 -0.14884,-0.0487 -0.442029,-0.15266 -0.65153,-0.23091 -0.496727,-0.18551 -1.604424,-0.016 -1.847832,0.28279 -0.196277,0.24092 -0.878571,1.10032 -1.421103,1.79 -0.782966,0.9953 -1.418723,2.88006 -1.517667,4.49924 -0.06369,1.04232 -0.186249,2.06658 -0.427943,3.57649 -0.04221,0.26371 0.01955,0.62599 0.151979,0.89145 0.310413,0.62224 0.323806,2.97865 0.01626,2.86062 -0.146718,-0.0563 -0.202393,0.01 -0.191563,0.22874 0.0084,0.16944 -0.08646,0.86443 -0.2108,1.54441 -0.288625,1.57844 -0.293352,2.17433 -0.01725,2.17433 0.13962,0 0.213922,-0.14993 0.224224,-0.45244 z m 0.576539,-8.52663 c 0.0015,-0.30627 0.03005,-0.41517 0.06335,-0.242 0.0333,0.17317 0.03204,0.42374 -0.0027,0.55684 -0.03485,0.13311 -0.06209,-0.009 -0.06054,-0.31484 z m 0.126084,-1.18329 c 0,-0.19141 0.0316,-0.26972 0.07022,-0.17401 0.03862,0.0956 0.03862,0.25231 0,0.34802 -0.03862,0.0958 -0.07022,0.0174 -0.07022,-0.17401 z m 9.896116,9.77952 c 0.213712,-0.24046 0.696778,-1.22614 0.733403,-1.49651 0.01036,-0.0765 0.08795,-0.38979 0.172393,-0.69605 0.458622,-1.66334 0.69787,-2.79597 0.609884,-2.88725 -0.09508,-0.0986 -2.385108,4.87091 -2.385108,5.17584 0,0.23889 0.633988,0.16887 0.869428,-0.096 z m 3.933328,-0.10438 c 0,-0.0765 -0.203596,-0.15882 -0.452434,-0.18282 -0.342898,-0.0331 -0.452433,0.0112 -0.452433,0.18282 0,0.17164 0.109535,0.2159 0.452433,0.18284 0.248838,-0.024 0.452434,-0.10625 0.452434,-0.18284 z m 3.973874,-0.0815 c 0.163974,-0.30639 0.10197,-0.4891 -0.119524,-0.35221 -0.178597,0.11037 -0.308744,0.64255 -0.157138,0.64255 0.0667,0 0.191201,-0.13065 0.276666,-0.29034 z m -19.60717,-1.20616 c 0.01532,-0.44025 0.0305,-1.11369 0.03371,-1.49652 l 0.0059,-0.69604 -1.387774,0.0385 c -1.465429,0.0407 -2.024283,0.23061 -1.09916,0.37355 1.336278,0.20646 2.14109,0.68252 2.14109,1.26649 0,0.35821 -0.506544,0.51353 -1.094722,0.33568 -0.364845,-0.11038 -0.364435,-0.111 0.07055,-0.12299 0.551399,-0.0151 0.709,-0.35743 0.28884,-0.62746 -0.169812,-0.10912 -0.684616,-0.27458 -1.14401,-0.36767 -2.119191,-0.42944 -2.65184,-0.30942 -1.941066,0.43739 0.575736,0.60493 0.814439,0.70948 1.24556,0.54557 0.497205,-0.18903 0.977825,-0.0459 1.155524,0.34409 0.08832,0.19385 0.386796,0.40729 0.74832,0.53514 0.932512,0.32978 0.946391,0.32174 0.977283,-0.56579 z m 0.856985,-2.71698 c 0.03364,-0.52538 0.09004,-0.98412 0.12535,-1.01942 0.0353,-0.0353 0.0034,-0.39148 -0.07109,-0.79149 -0.131096,-0.70484 -0.07796,-2.04254 0.172662,-4.34677 0.191907,-1.76442 0.266926,-2.13253 0.716313,-3.51488 0.329932,-1.0149 0.573581,-1.48286 1.10376,-2.11994 0.374202,-0.44964 0.745667,-0.8579 0.825477,-0.90723 0.313157,-0.19353 -0.02314,-0.30668 -0.587289,-0.19757 -0.980952,0.18972 -1.737796,0.15409 -1.82998,-0.0862 -0.0889,-0.23165 0.391678,-0.48159 0.931178,-0.48431 0.794604,-0.004 1.348238,-0.1782 1.348238,-0.4242 0,-0.13755 0.214149,-0.66095 0.47589,-1.1631 0.491981,-0.94387 0.499327,-1.1872 0.06229,-2.06355 -0.243304,-0.48788 -0.143693,-0.66314 0.376893,-0.66314 0.399001,0 0.488065,-0.0482 0.450054,-0.24362 -0.03934,-0.20225 -0.170069,-0.23561 -0.769839,-0.19646 -0.762921,0.0498 -0.731307,0.0688 -1.637171,-0.98146 -0.175847,-0.20388 -0.334975,-0.25245 -0.607464,-0.18545 -0.203061,0.0499 -0.58846,0.13763 -0.856439,0.19486 l -0.487236,0.10413 0.448307,0.23784 c 0.390681,0.20726 0.73498,0.60649 0.73498,0.85223 0,0.22211 -1.300994,0.0448 -1.900147,-0.25883 -0.366287,-0.18568 -0.727056,-0.29984 -0.801707,-0.25371 -0.07465,0.0461 -0.483927,0.15702 -0.909501,0.2464 l -0.77377,0.16251 0.417632,0.19278 c 0.817835,0.37749 0.816094,0.61744 -0.0071,0.98158 -0.416007,0.18402 -0.682013,0.40769 -0.774649,0.65133 -0.0776,0.20409 -0.233547,0.56593 -0.346557,0.80408 -0.222953,0.46984 -0.145268,0.83679 0.533966,2.52227 0.251571,0.62425 0.349251,0.72948 0.710707,0.76565 0.527872,0.0528 0.678021,0.38996 0.173673,0.38996 -0.501083,0 -0.496108,0.51184 0.0069,0.70306 0.341555,0.12986 0.360601,0.18206 0.280252,0.76827 -0.07283,0.53131 -0.02076,0.75158 0.335341,1.41892 0.231852,0.43447 0.580947,1.23046 0.775765,1.76886 0.881297,2.43555 0.916468,2.59521 0.896033,4.06786 -0.01346,0.96965 0.04477,1.57266 0.184026,1.90595 0.179291,0.4291 0.179048,0.49269 -0.002,0.53052 -0.168206,0.0351 -0.205841,0.36042 -0.206312,1.78311 -2.78e-4,0.95708 0.01061,1.80278 0.02441,1.87935 0.04585,0.25541 0.396242,-2.06154 0.458266,-3.0302 z m -3.321026,2.82138 c -0.04732,-0.0765 -0.191969,-0.13825 -0.32144,-0.13708 -0.202867,0.002 -0.206542,0.0207 -0.02658,0.13708 0.272624,0.17619 0.456913,0.17619 0.348026,0 z m -2.436181,-1.65563 c 0,-0.0684 -0.102831,-0.16377 -0.228505,-0.212 -0.191063,-0.0733 -0.199675,-0.0529 -0.05256,0.12435 0.200481,0.24157 0.281066,0.26671 0.281066,0.0876 z m 2.505785,-1.48371 c 0,-0.10874 -0.920794,-0.48013 -1.190416,-0.48013 -0.372074,0 -0.139425,0.34147 0.297035,0.43597 0.552022,0.11949 0.893381,0.13639 0.893381,0.0442 z m 24.910935,-0.26732 c 0.217849,-0.11262 0.808701,-0.48731 1.312999,-0.83258 1.200532,-0.82191 3.252971,-1.84702 4.164622,-2.08005 0.475428,-0.12148 0.741086,-0.26714 0.771841,-0.42308 0.04195,-0.21266 -0.09036,-0.23385 -1.252892,-0.20055 -2.069246,0.0593 -2.708469,0.21086 -3.06611,0.72717 -0.16707,0.24119 -0.808985,0.95811 -1.426481,1.59316 -0.617498,0.63505 -1.143602,1.21452 -1.169121,1.28769 -0.06739,0.19323 0.210734,0.16321 0.665142,-0.0718 z m -29.012895,-0.76439 c -0.135973,-0.15025 -0.474566,-0.34634 -0.752429,-0.43577 -0.277864,-0.0894 -0.56785,-0.20687 -0.644416,-0.26098 -0.07656,-0.0541 -0.285703,-0.0217 -0.464748,0.0719 -0.188664,0.0988 -0.264207,0.20822 -0.179671,0.26046 0.25128,0.1553 1.745308,0.6196 2.023295,0.62879 0.254699,0.009 0.255411,-0.002 0.01797,-0.26442 z M 58.81263,233.351 c 0,-0.11037 -0.09397,-0.2006 -0.208815,-0.2006 -0.209683,0 -0.286171,0.29387 -0.119799,0.46025 0.129916,0.12991 0.328608,-0.0271 0.328608,-0.25965 z m -7.412947,-0.01 c 0.172273,-0.0462 0.313223,-0.13707 0.313223,-0.20201 0,-0.27451 -0.513316,-0.37043 -1.252892,-0.23414 -1.064873,0.19623 -1.142851,0.22486 -1.044686,0.3837 0.09398,0.15206 1.476325,0.18861 1.984355,0.0524 z m -11.102019,-0.19066 c -0.275876,-0.1783 -1.531314,-0.1783 -1.531314,0 0,0.0782 0.381407,0.13826 0.870064,0.13706 0.613127,-0.001 0.8084,-0.0419 0.66125,-0.13706 z m 15.626353,-0.47529 c 0.614134,-0.26412 0.661439,-0.43402 0.156144,-0.56084 -0.701639,-0.17611 -1.72226,0.23758 -1.72226,0.69807 0,0.37269 0.477726,0.33083 1.566116,-0.13723 z m -1.892066,-0.47389 c -0.462156,-0.0541 -0.656181,0.0763 -0.373571,0.25097 0.119861,0.074 0.309489,0.0578 0.483206,-0.0413 0.272393,-0.15561 0.267206,-0.16552 -0.109636,-0.20959 z m 4.136096,0.0792 c 0.13137,-0.49021 0.09802,-1.54436 -0.05615,-1.77493 -0.121784,-0.18213 -0.15798,-0.17768 -0.283207,0.0348 -0.07897,0.134 -0.264858,0.24362 -0.413086,0.24362 -0.524704,0 -1.526393,0.3387 -1.526393,0.51612 0,0.099 0.113993,0.17994 0.253315,0.17994 0.139325,0 0.397953,0.16634 0.57473,0.36966 l 0.321412,0.36966 0.257438,-0.33487 c 0.213122,-0.2772 0.257971,-0.29258 0.260532,-0.0894 0.0034,0.26783 0.294468,0.79857 0.437978,0.79857 0.04922,0 0.127261,-0.14095 0.173428,-0.31322 z m 19.229154,-0.38283 c 0.04798,-0.0777 -0.05616,-0.13827 -0.235402,-0.13708 -0.258601,0.001 -0.280616,0.0285 -0.11262,0.13708 0.259035,0.16739 0.244566,0.16739 0.348025,0 z M 45.170022,231.634 c 0,-0.14494 -0.09397,-0.29958 -0.208814,-0.34366 -0.222952,-0.0855 -0.260633,0.0317 -0.124319,0.38699 0.11689,0.30461 0.333132,0.2765 0.333132,-0.0433 z m 14.173094,-0.75517 c -0.02774,-0.19491 -0.158741,-0.32016 -0.365447,-0.34945 -0.291802,-0.0413 -0.315986,-0.002 -0.256371,0.41763 0.03621,0.2548 0.07157,0.48115 0.07858,0.50299 0.007,0.0219 0.141845,-0.0295 0.299621,-0.11387 0.183524,-0.0983 0.271287,-0.26297 0.243618,-0.45733 z m -4.497979,0.0442 c -0.04732,-0.0765 -0.20763,-0.13921 -0.356241,-0.13921 -0.148613,0 -0.270205,0.0627 -0.270205,0.13921 0,0.0765 0.160308,0.13922 0.356241,0.13922 0.202045,0 0.319001,-0.0603 0.270205,-0.13922 z m 5.777227,0.009 c 0,-0.072 -0.06264,-0.16971 -0.13921,-0.21703 -0.07656,-0.0473 -0.139211,0.0112 -0.139211,0.13099 0,0.11937 0.06264,0.21704 0.139211,0.21704 0.07656,0 0.13921,-0.0589 0.13921,-0.131 z m -28.588802,-1.41802 c -0.195804,-0.44885 -0.205524,-0.4537 -0.216371,-0.10787 -0.0062,0.19913 0.06671,0.57499 0.16211,0.83526 0.168893,0.46072 0.174599,0.46357 0.216371,0.10787 0.0236,-0.20092 -0.04936,-0.57678 -0.16211,-0.83527 z m 12.913506,0.60891 c -0.133846,-0.5754 -0.560104,-1.51742 -0.735741,-1.62597 -0.239366,-0.14794 -0.187492,0.11437 0.217746,1.10118 0.377419,0.91903 0.681315,1.22691 0.517995,0.52479 z m 29.810863,0.0951 c 0.130775,-0.21161 0.08473,-0.2311 -0.806184,-0.34138 -0.555196,-0.0687 -0.800458,-0.0514 -0.800458,0.0562 0,0.0854 0.152916,0.15526 0.339808,0.15526 0.186896,0 0.378528,0.0627 0.425849,0.13922 0.11443,0.18516 0.72498,0.17843 0.840985,-0.009 z m 2.392752,-0.21405 c -0.04626,-0.0463 -0.166329,-0.0512 -0.266816,-0.0112 -0.111059,0.0445 -0.07807,0.0774 0.0841,0.0841 0.146752,0.006 0.228973,-0.0268 0.182713,-0.0732 z m -17.358685,-0.26983 c 0.131947,-0.15898 0.137571,-0.25534 0.02166,-0.37124 -0.115904,-0.11587 -0.301278,-0.0913 -0.714201,0.0949 -0.306714,0.13831 -0.524352,0.30537 -0.483637,0.37126 0.12501,0.20226 0.987275,0.13267 1.176174,-0.0949 z m -30.665961,-0.43011 c 0.420378,-0.11262 0.395903,-0.38674 -0.05279,-0.59118 -0.422295,-0.19241 -0.40196,-0.20395 -0.52192,0.29609 -0.0976,0.40682 -0.01,0.45179 0.574712,0.29509 z m 30.661066,-0.56896 0.348025,-0.15055 -0.487237,-0.23068 c -0.267979,-0.12688 -0.799741,-0.44641 -1.181693,-0.71006 -0.887186,-0.61241 -1.130917,-0.6304 -0.836855,-0.0617 0.118775,0.22969 0.277001,0.41763 0.351601,0.41763 0.0746,0 0.135635,0.19205 0.135635,0.42678 0,0.23473 0.06198,0.54259 0.13773,0.68413 0.132079,0.2468 0.15921,0.24746 0.661249,0.0162 0.287934,-0.13263 0.68013,-0.30889 0.871545,-0.3917 z m 1.922261,0.50704 c -0.02743,-0.0823 -0.109399,-0.14965 -0.182133,-0.14965 -0.07274,0 -0.154698,0.0673 -0.182133,0.14965 -0.02744,0.0823 0.05452,0.14965 0.182133,0.14965 0.12761,0 0.20957,-0.0673 0.182133,-0.14965 z m -33.940626,-0.26797 c 0,-0.0765 -0.128987,-0.13921 -0.286637,-0.13921 -0.157649,0 -0.24792,0.0627 -0.2006,0.13921 0.04732,0.0765 0.176307,0.13921 0.286637,0.13921 0.110335,0 0.2006,-0.0627 0.2006,-0.13921 z m 45.273681,0.0506 c 0.475508,-0.0787 0.50493,-0.10962 0.36199,-0.38129 -0.220324,-0.41877 -0.370185,-0.48565 -0.789717,-0.35241 -0.20255,0.0643 -0.665832,0.19538 -1.029519,0.29123 -0.363686,0.0959 -0.661246,0.23053 -0.661246,0.29931 0,0.0688 0.11835,0.0941 0.263008,0.0563 0.144657,-0.0378 0.348249,-0.0147 0.452434,0.0512 0.223836,0.14183 0.689296,0.15365 1.40305,0.0356 z m -46.564276,-0.27388 c -0.04626,-0.0463 -0.166328,-0.0512 -0.26682,-0.0112 -0.111058,0.0444 -0.07807,0.0774 0.0841,0.0841 0.14675,0.006 0.228971,-0.0268 0.182713,-0.0732 z m 43.854138,-0.1313 c 0.172271,-0.0376 0.313223,-0.12977 0.313223,-0.20489 0,-0.19413 -0.671078,-0.16528 -1.307349,0.0562 -0.841482,0.29292 -0.144768,0.39713 0.994126,0.14868 z m -14.999907,0.0149 c 0,-0.0338 -0.06264,-0.10014 -0.139211,-0.14743 -0.07656,-0.0473 -0.13921,-0.0197 -0.13921,0.0614 0,0.081 0.06264,0.14742 0.13921,0.14742 0.07656,0 0.139211,-0.0276 0.139211,-0.0614 z m 5.15078,-0.89347 c 0,-0.13329 0.06837,-0.31072 0.151926,-0.39429 0.128307,-0.1283 0.917424,-2.18718 1.003553,-2.61835 0.0153,-0.0765 -0.207109,-0.15866 -0.49423,-0.18242 -0.417389,-0.0346 -0.522039,-0.0998 -0.522039,-0.32546 0,-0.24965 0.06105,-0.27193 0.528522,-0.19295 0.625297,0.10563 0.853178,-0.0946 1.138024,-0.99988 0.101582,-0.32286 0.22548,-0.56184 0.275315,-0.53103 0.04983,0.0308 0.09327,-0.14355 0.09652,-0.38744 0.0032,-0.2439 0.168872,-0.78799 0.368037,-1.2091 0.383282,-0.81041 0.934622,-2.42533 0.934622,-2.73759 0,-0.10226 0.05651,-0.18583 0.125586,-0.18583 0.06907,0 0.03777,0.29185 -0.06961,0.64856 -0.107351,0.35673 -0.195191,0.71469 -0.195191,0.7955 0,0.25406 0.357152,-0.23583 0.624805,-0.85704 0.304447,-0.70659 0.193853,-0.89244 -0.558256,-0.9381 -0.774458,-0.0471 -0.91246,-0.29657 -0.304484,-0.5506 0.279077,-0.11661 0.603392,-0.212 0.720699,-0.212 0.375142,0 0.228299,-0.38516 -0.204346,-0.53598 -0.229695,-0.08 -0.417628,-0.21573 -0.417628,-0.30144 0,-0.0975 -0.221514,-0.13929 -0.591314,-0.11162 -0.489387,0.0366 -0.613324,-0.006 -0.718994,-0.24564 -0.08659,-0.19655 -0.473393,-0.40939 -1.201733,-0.66125 -1.226106,-0.42399 -1.664268,-0.46601 -1.664268,-0.15961 0,0.11649 -0.156611,0.28316 -0.348026,0.37037 -0.454204,0.20695 -0.439019,0.3381 0.06961,0.60112 0.8927,0.46162 0.283267,0.85675 -1.541161,0.9992 -0.862235,0.0673 -1.077453,0.13196 -1.183288,0.35538 -0.147408,0.31117 -1.017992,0.80159 -2.16852,1.22159 -0.765839,0.27957 -0.786072,0.30046 -0.778796,0.80436 0.0041,0.28455 -0.0409,0.6583 -0.100035,0.83058 -0.102281,0.29801 -0.07293,0.31322 0.604785,0.31322 0.645389,0 0.764587,0.0523 1.269129,0.55684 0.480042,0.48005 0.640887,0.55684 1.166241,0.55684 0.66735,0 1.028243,0.25562 0.751548,0.53231 -0.09006,0.09 -0.26084,0.1647 -0.379516,0.16587 -0.118675,0.001 -0.309743,0.0638 -0.424592,0.13922 -0.185613,0.12186 -0.185613,0.15231 0,0.27415 0.114854,0.0754 0.378142,0.13805 0.585093,0.13922 0.533036,0.004 1.103545,0.29293 1.056056,0.53665 -0.0458,0.23503 -0.826825,0.55277 -1.397531,0.56857 -0.602064,0.0166 -0.451808,0.25886 0.417631,0.67319 0.654502,0.31192 0.800459,0.44399 0.800459,0.72429 0,0.26734 -0.09961,0.37138 -0.452433,0.47256 -0.248838,0.0714 -0.452434,0.21467 -0.452434,0.31845 0,0.14384 0.278979,0.18867 1.174225,0.18867 1.251354,0 1.948578,0.17069 1.851632,0.45328 -0.04248,0.12386 -0.362963,0.15907 -1.124997,0.12374 -0.68205,-0.0317 -1.065599,0.004 -1.065599,0.0965 0,0.20891 0.568257,0.57829 0.90104,0.58571 0.155237,0.004 0.56415,0.15387 0.908694,0.33425 0.669556,0.35052 0.835263,0.34209 0.835263,-0.0425 z m 0,-5.58867 c -0.191415,-0.0638 -0.692572,-0.25289 -1.113683,-0.42027 -0.421111,-0.16739 -1.320831,-0.45097 -1.999377,-0.63019 -1.312486,-0.34666 -1.602383,-0.48021 -1.042413,-0.48021 0.655209,0 1.925272,0.29248 2.65661,0.61178 0.403264,0.17606 0.999445,0.43571 1.32485,0.57701 0.325404,0.14128 0.591643,0.30748 0.591643,0.36931 0,0.0618 -0.01566,0.107 -0.0348,0.10051 -0.01914,-0.006 -0.191415,-0.0642 -0.382829,-0.12789 z m -32.08797,5.63865 c 0,-0.16533 -0.559366,-0.26434 -0.854209,-0.1512 -0.114131,0.0438 -0.166343,0.14625 -0.116016,0.22768 0.113094,0.18297 0.97023,0.11536 0.97023,-0.0764 z m 28.472633,-0.75793 c -0.08423,-0.15738 -0.236212,-0.28614 -0.337749,-0.28614 -0.118538,0 -0.162306,-0.11674 -0.122284,-0.32605 0.107688,-0.56332 -0.304171,-0.8235 -1.130436,-0.71414 -0.390848,0.0517 -0.765931,0.14612 -0.833522,0.20975 -0.213266,0.20074 0.009,0.49949 0.562542,0.75606 0.294153,0.13634 0.848045,0.39532 1.230873,0.57551 0.719406,0.33859 0.89484,0.27879 0.630576,-0.21499 z m -26.106058,0.13148 c -0.04732,-0.0765 -0.17261,-0.1392 -0.278421,-0.1392 -0.105815,0 -0.2311,0.0627 -0.27842,0.1392 -0.04899,0.0793 0.07089,0.13922 0.27842,0.13922 0.207522,0 0.32741,-0.0599 0.278421,-0.13922 z m 1.759729,0 c 0.151389,0 0.236535,-0.0627 0.189215,-0.1392 -0.147634,-0.23888 -0.904867,-0.16817 -0.904867,0.0845 0,0.14679 0.0757,0.19465 0.220201,0.1392 0.12111,-0.0464 0.344064,-0.0845 0.495451,-0.0845 z m 10.616438,-1.55467 c -0.207822,-0.40827 -0.405702,-0.6608 -0.439732,-0.5612 -0.0617,0.18058 0.0869,0.63576 0.508966,1.55903 0.220885,0.4832 0.22309,0.48417 0.265679,0.11587 0.02374,-0.20525 -0.126085,-0.70345 -0.334913,-1.11369 z m -14.994017,1.07927 c -0.06992,-0.20974 -0.965307,-0.19036 -1.036235,0.0223 -0.04064,0.12186 0.112183,0.1668 0.514379,0.15104 0.341197,-0.0134 0.551876,-0.0834 0.521856,-0.17346 z m 5.323169,-0.27167 c -0.03317,-0.0306 -0.263919,-0.0993 -0.512757,-0.15258 -0.353796,-0.0758 -0.452434,-0.0511 -0.452434,0.11374 0,0.12518 0.15532,0.23038 0.382829,0.2593 0.355375,0.0452 0.720443,-0.093 0.582362,-0.22041 z m 22.915096,-1.88866 c -0.112657,-0.18228 -0.49296,-0.19728 -0.49296,-0.0195 0,0.0709 0.109623,0.15339 0.243618,0.18319 0.303798,0.0676 0.366745,0.0262 0.249342,-0.16372 z m -13.205209,-0.1746 c -0.04444,-0.11099 -0.07742,-0.078 -0.0841,0.0841 -0.006,0.14675 0.02686,0.22898 0.07312,0.18272 0.04626,-0.0463 0.0512,-0.16633 0.01099,-0.26683 z m -0.615631,-0.54614 c -0.06554,-0.2506 -0.316821,-0.378 -0.312826,-0.1586 0.0065,0.35384 0.187485,0.73569 0.27877,0.588 0.05656,-0.0915 0.07188,-0.28474 0.03406,-0.4294 z m -12.511,0.22039 c -0.573763,-0.25167 -1.266201,-0.4141 -1.126361,-0.26422 0.154405,0.16549 0.945028,0.44257 1.280945,0.4489 0.198002,0.004 0.153351,-0.0496 -0.154584,-0.18468 z m 33.599853,-0.15352 c 0.403587,-0.10812 0.39695,-0.24705 -0.02091,-0.43743 -0.375434,-0.17106 -0.501126,-0.10338 -0.501126,0.26996 0,0.27741 0.05089,0.29374 0.522039,0.16747 z m -6.545386,-0.6431 c -0.07644,-0.21982 -1.1656,-0.21009 -1.388097,0.0125 -0.122658,0.12261 0.03242,0.1616 0.643504,0.1616 0.583546,0 0.78845,-0.0479 0.744593,-0.17401 z m -4.037495,-0.46694 c -0.04626,-0.0463 -0.166328,-0.0512 -0.266819,-0.0112 -0.111059,0.0444 -0.07807,0.0774 0.0841,0.0842 0.14675,0.006 0.228972,-0.0269 0.182713,-0.0732 z m -11.064234,-0.13639 c 0.112557,-0.11262 -0.420296,-1.6225 -0.615061,-1.74287 -0.0871,-0.0538 -0.180811,-0.303 -0.208258,-0.55369 -0.05741,-0.52445 -0.111259,-0.60823 -0.311427,-0.48451 -0.23158,0.14313 -0.0086,0.95367 0.360166,1.30944 0.267285,0.25784 0.319458,0.41259 0.248307,0.73656 -0.113656,0.51745 0.24414,1.01719 0.526273,0.73507 z m 23.793627,-0.1476 c 0.705081,-0.0666 0.943163,-0.14405 0.989679,-0.32194 0.05424,-0.20741 0.249269,-0.22705 1.702798,-0.17142 l 1.641541,0.0628 -0.0942,-0.33156 c -0.219364,-0.77209 -0.261549,-1.65262 -0.08912,-1.86038 0.476016,-0.57356 1.179431,0.13665 1.341857,1.35483 0.09715,0.72859 0.09199,0.72633 1.181783,0.51765 0.412417,-0.0789 1.136822,-0.15078 1.609783,-0.15957 l 0.85993,-0.016 -0.218397,-0.33331 c -0.29122,-0.44446 -0.510727,-0.54753 -1.574718,-0.73939 -0.495669,-0.0894 -0.995184,-0.24287 -1.110031,-0.3411 -0.114854,-0.0983 -0.381088,-0.21953 -0.591646,-0.26955 -0.443275,-0.10525 -0.523669,-0.54847 -0.139211,-0.76735 0.193301,-0.10999 0.211891,-0.19055 0.09,-0.38974 -0.223476,-0.36519 -0.752722,-0.51066 -1.212046,-0.33316 -0.414871,0.16033 -0.391975,0.43013 0.0365,0.43013 0.140424,0 0.290557,0.0919 0.333633,0.2041 0.08469,0.22071 -0.346915,0.19021 -1.270252,-0.0898 -0.312433,-0.0948 -0.77278,-0.0876 -1.461708,0.0227 -0.553104,0.0885 -1.208563,0.19063 -1.456572,0.22684 -0.255886,0.0373 -0.726204,0.30407 -1.087349,0.61664 -0.350028,0.30295 -0.683515,0.55081 -0.741073,0.55081 -0.130569,0 -0.699708,1.28748 -0.807589,1.8269 -0.07849,0.39244 -0.06788,0.40045 0.528949,0.39948 0.334975,-4e-4 1.026836,-0.0404 1.537467,-0.0886 z m -12.211415,-0.5944 c -0.118451,-0.114 -0.644651,-0.20714 -0.940925,-0.1666 -0.06194,0.009 -0.0739,0.078 -0.02658,0.15462 0.04732,0.0765 0.314125,0.13922 0.592898,0.13922 0.309766,0 0.455438,-0.0495 0.374612,-0.12724 z m 17.43911,-0.57413 c -0.08765,-0.65345 -0.463625,-1.29768 -0.679485,-1.16427 -0.190507,0.11774 -0.07153,1.23697 0.16132,1.51753 0.09535,0.11487 0.26791,0.20889 0.383465,0.20889 0.16509,0 0.193948,-0.12048 0.1347,-0.56215 z m -30.3091,0.23117 c 0,-0.30337 -0.366673,-0.52842 -0.781305,-0.47954 -0.518847,0.0612 -0.570357,0.33411 -0.09571,0.50719 0.558089,0.20351 0.877025,0.19346 0.877025,-0.0277 z m 14.398151,0.0689 c 0.161145,-0.26073 -0.480093,-0.82765 -1.043897,-0.9229 -0.311119,-0.0526 -0.596913,-0.0643 -0.635098,-0.0261 -0.107126,0.10713 0.526567,0.66472 0.993057,0.87382 0.502765,0.22534 0.587427,0.23463 0.685938,0.0752 z m -2.147646,-0.4191 c 0,-0.0684 -0.09909,-0.16233 -0.220201,-0.20881 -0.390775,-0.14996 -0.754272,-0.09 -0.754272,0.12436 0,0.14583 0.146945,0.20881 0.487236,0.20881 0.267981,0 0.487237,-0.0559 0.487237,-0.12436 z m -2.833207,-0.51404 c 0.194197,-0.29638 0.187893,-0.3481 -0.0771,-0.63253 -0.158725,-0.17036 -0.335173,-0.26318 -0.392108,-0.20625 -0.139529,0.13953 -0.438704,1.16987 -0.36197,1.24661 0.137324,0.13733 0.633497,-0.10613 0.831176,-0.40783 z m -11.940485,0.27293 c 0.485301,-0.097 0.517305,-0.16489 0.250163,-0.53023 -0.23077,-0.3156 -0.773779,-0.32331 -1.412805,-0.0201 -0.483286,0.22933 -0.580179,0.36199 -0.397673,0.5445 0.116977,0.11699 0.988249,0.12024 1.560315,0.006 z m 2.163775,-0.27591 c 0.12111,-0.0464 0.220202,-0.20308 0.220202,-0.34803 0,-0.22186 -0.104517,-0.26318 -0.66125,-0.26139 -0.837085,0.002 -1.136338,0.16427 -0.878869,0.4745 0.182347,0.21971 0.906147,0.2937 1.319917,0.13492 z m 12.087878,-0.47262 c 0.711238,-0.14099 0.800459,-0.19636 0.800459,-0.49682 0,-0.27647 -0.06984,-0.33789 -0.382828,-0.33663 -0.859553,0.004 -1.420865,0.17734 -1.636946,0.5071 -0.248804,0.37974 -0.157632,0.64829 0.186954,0.55069 0.127545,-0.0362 0.592108,-0.13708 1.032361,-0.22434 z m 22.675738,-0.54517 c 0.148501,-0.1594 0.366748,-0.28981 0.484993,-0.28981 0.118251,0 0.188997,-0.0783 0.157218,-0.17401 -0.09259,-0.27888 -3.298091,-0.31522 -3.657187,-0.0415 -0.238219,0.1816 -0.247324,0.22921 -0.06691,0.34992 0.114842,0.0769 0.508342,0.14068 0.874432,0.14186 0.482341,0.001 0.689323,0.0639 0.751707,0.22647 0.120273,0.31343 1.098698,0.1703 1.455751,-0.21295 z m -24.273756,0.10176 c -0.08604,-0.25811 -0.385728,-0.30094 -0.385728,-0.0551 0,0.12123 0.09919,0.22042 0.220414,0.22042 0.121235,0 0.195621,-0.0744 0.165314,-0.16532 z m -15.002809,-0.1862 c 0,-0.0723 -0.334186,-0.21636 -0.939669,-0.40498 -0.453211,-0.14118 -0.389434,0.14857 0.06961,0.31622 0.425988,0.1556 0.870064,0.2009 0.870064,0.0888 z m 2.011589,-0.32558 c -0.200167,-0.18195 -1.033762,-0.43663 -1.429117,-0.43663 -0.42302,0 -0.302686,0.15052 0.297584,0.37223 0.524375,0.19369 1.323824,0.23918 1.131533,0.0644 z m 3.835244,-0.16643 c 0,-0.072 -0.09397,-0.13099 -0.208816,-0.13099 -0.215275,0 -0.276569,0.16426 -0.119798,0.32104 0.111221,0.11125 0.328608,-0.0145 0.328608,-0.19005 z m -11.695795,-0.0266 c -0.0059,-0.48319 -0.22798,-0.55813 -1.448298,-0.48874 -1.290767,0.0734 -1.413112,0.11599 -1.285738,0.44794 0.06632,0.17282 0.341802,0.21481 1.409301,0.21481 0.969822,0 1.326293,-0.0468 1.324735,-0.17401 z m 20.29493,0.009 c -0.08604,-0.25812 -0.385729,-0.30094 -0.385729,-0.0551 0,0.12123 0.09919,0.22042 0.220416,0.22042 0.121235,0 0.19562,-0.0744 0.165313,-0.16531 z m 15.503844,-0.24926 c 0.377892,-0.17148 0.921971,-0.27828 1.442106,-0.2831 l 0.835263,-0.007 -0.522041,-0.42647 c -0.729645,-0.59606 -0.675047,-0.7342 0.247335,-0.62578 0.558893,0.0657 0.880202,0.0331 1.174472,-0.11912 0.222801,-0.11524 0.503031,-0.1719 0.622729,-0.12596 0.142798,0.0548 0.217631,0.005 0.217631,-0.14456 0,-0.12546 -0.09397,-0.26414 -0.208811,-0.30822 -0.114855,-0.0441 -0.208817,-0.15866 -0.208817,-0.25465 0,-0.21448 1.03174,-0.349 2.088155,-0.27225 0.995377,0.0723 4.206636,-0.27621 3.828283,-0.41551 -0.699607,-0.25755 -0.867472,-0.52425 -0.390184,-0.61995 0.138035,-0.0277 0.295417,-0.12722 0.349745,-0.2212 0.07778,-0.13455 0.284842,-0.13213 0.974473,0.0112 0.481631,0.10026 1.432268,0.22506 2.112518,0.27738 1.578089,0.12136 1.595685,-0.13266 0.04193,-0.60515 -0.825173,-0.25094 -1.069931,-0.38361 -1.069931,-0.57998 0,-0.22116 -0.157419,-0.26442 -1.198412,-0.32937 -1.088525,-0.0679 -1.241559,-0.0455 -1.668888,0.24451 -0.565009,0.38341 -2.140166,0.58873 -2.745571,0.35786 -0.53314,-0.20331 -1.042974,-0.0562 -1.096054,0.31631 -0.04576,0.32105 -0.06339,0.32287 -1.436344,0.14806 -0.565999,-0.072 -0.854732,-0.0226 -1.53131,0.26229 -0.870324,0.3665 -1.031867,0.57725 -0.733411,0.95689 0.143296,0.18227 0.317781,0.20736 0.894222,0.12855 0.540855,-0.0739 0.700101,-0.0559 0.650487,0.0733 -0.09167,0.23888 -0.409525,0.34972 -1.297065,0.45229 -0.764589,0.0884 -0.766574,0.0899 -1.419451,1.06295 -0.574191,0.85582 -0.79096,1.3225 -0.614304,1.3225 0.02992,0 0.327485,-0.12386 0.661251,-0.27536 z m -33.737135,-0.0822 c 0.403698,-0.28276 0.27336,-0.47771 -0.31938,-0.47771 -0.564742,0 -0.766798,0.24913 -0.412291,0.50834 0.32278,0.23603 0.352744,0.23478 0.731671,-0.0307 z m 8.242054,-0.18253 c 0,-0.0672 -0.09793,-0.20342 -0.217613,-0.30276 -0.197342,-0.16377 -0.197342,-0.19194 0,-0.30239 0.241695,-0.13525 0.295894,-0.73918 0.0784,-0.8736 -0.07656,-0.0473 -0.13921,-0.20918 -0.13921,-0.35968 0,-0.1606 -0.137736,-0.32602 -0.333426,-0.40042 -0.183383,-0.0697 -0.357185,-0.19804 -0.386223,-0.28516 -0.03852,-0.11562 -0.390632,-0.0993 -1.302294,0.0602 -0.687224,0.12024 -1.685773,0.21876 -2.218999,0.219 -0.838311,4e-4 -0.941916,0.027 -0.765656,0.19698 0.11212,0.10813 0.642356,0.32842 1.178316,0.48963 0.53596,0.1612 1.569596,0.5946 2.29697,0.9631 1.314571,0.66597 1.809734,0.82882 1.809734,0.59514 z m 11.547492,-0.2848 c 0.03446,-0.006 0.0031,-0.0656 -0.06961,-0.13258 -0.07274,-0.067 -0.461134,-0.16317 -0.863103,-0.2136 -0.593161,-0.0744 -0.730855,-0.0529 -0.730855,0.11387 0,0.23164 0.915471,0.35946 1.663563,0.23227 z m 2.270231,-0.13009 c 0.135159,-0.13516 -0.04025,-0.16242 -0.837324,-0.13017 -0.741146,0.03 -1.008299,0.0913 -1.008307,0.23154 -1.2e-5,0.24328 1.588207,0.15606 1.845631,-0.10138 z m 15.533891,0.0483 c 0.12527,-0.12527 -0.04757,-0.18851 -0.781227,-0.28583 -0.515577,-0.0684 -0.728332,-0.0495 -0.728332,0.065 0,0.33983 1.213104,0.51727 1.509559,0.22082 z m -39.958279,-0.0785 c -0.02743,-0.0823 -0.0953,-0.14494 -0.15081,-0.1392 -0.05551,0.006 -0.198593,0.01 -0.317959,0.01 -0.119362,0 -0.178315,0.0627 -0.130995,0.13922 0.116141,0.18792 0.662713,0.17839 0.599764,-0.01 z m 11.921544,-0.11649 c 0.08785,-0.14214 -0.351685,-0.98454 -0.51442,-0.98592 -0.129177,-0.001 -0.139337,0.89227 -0.01161,1.02 0.13365,0.13366 0.434401,0.11412 0.526021,-0.0341 z m 1.202291,-0.15153 c 0.446879,0 0.301054,-0.20641 -0.379368,-0.53699 -0.375118,-0.18224 -0.698126,-0.26232 -0.769648,-0.19079 -0.179083,0.17908 0.429225,0.90151 0.67854,0.80585 0.111895,-0.0429 0.323606,-0.078 0.470476,-0.078 z m 30.475666,0 c 0,-0.0765 -0.313223,-0.13922 -0.696052,-0.13922 -0.382829,0 -0.696051,0.0627 -0.696051,0.13922 0,0.0765 0.313222,0.13921 0.696051,0.13921 0.382829,0 0.696052,-0.0627 0.696052,-0.13921 z m -18.607142,-0.40048 c 0.949409,-0.15417 0.498566,-0.36761 -0.673482,-0.31884 -1.103515,0.046 -1.431332,0.15217 -1.270806,0.41191 0.07938,0.12844 0.789552,0.0944 1.944288,-0.093 z m -2.41361,-0.0868 c 0,-0.14584 -0.146945,-0.20882 -0.487237,-0.20882 -0.340291,0 -0.487236,0.0629 -0.487236,0.20882 0,0.14583 0.146945,0.20881 0.487236,0.20881 0.340292,0 0.487237,-0.0629 0.487237,-0.20881 z m 24.629931,0.0125 c 0.08966,-0.108 0.112994,-0.22595 0.05185,-0.26207 -0.146972,-0.0868 -0.684623,0.12099 -0.801192,0.30953 -0.140028,0.22658 0.558641,0.18233 0.749341,-0.0474 z m -4.888909,-0.0624 c 0.121285,-0.0769 -0.08476,-0.19131 -0.617808,-0.34294 -0.825777,-0.23492 -0.984581,-0.22608 -0.81676,0.0454 0.210293,0.34026 1.082073,0.52103 1.434568,0.29747 z m -21.481152,-0.15874 c -0.04732,-0.0765 -0.144984,-0.13922 -0.217031,-0.13922 -0.07204,0 -0.130995,0.0627 -0.130995,0.13922 0,0.0765 0.09766,0.1392 0.217033,0.1392 0.119362,0 0.178315,-0.0627 0.130993,-0.1392 z m -20.181019,-0.34106 c 0.70871,-0.29612 0.605269,-0.54196 -0.317695,-0.75502 -0.440252,-0.10164 -0.877952,-0.24818 -0.972663,-0.32563 -0.232222,-0.1899 -0.814231,-0.0282 -1.166593,0.3242 l -0.287639,0.28763 0.317246,0.22221 c 0.606092,0.42452 1.728599,0.53857 2.427344,0.24661 z m 2.083684,0.0625 c 0.04732,-0.0765 -0.03926,-0.1392 -0.192385,-0.1392 -0.153131,0 -0.317136,0.0627 -0.364457,0.1392 -0.04732,0.0765 0.03926,0.13922 0.192384,0.13922 0.153132,0 0.317136,-0.0627 0.364458,-0.13922 z m 1.813417,-0.25158 c -0.04286,-0.0428 -0.155191,-9e-5 -0.249622,0.095 -0.136462,0.1375 -0.120473,0.15348 0.07793,0.0779 0.137293,-0.0523 0.214554,-0.13012 0.171693,-0.17298 z m 45.184079,0.0934 c 0.865068,-0.28923 0.790301,-0.41448 -0.221404,-0.37092 -0.796122,0.0343 -0.981479,0.0862 -1.019485,0.28551 -0.05596,0.29352 0.503289,0.33201 1.240889,0.0854 z m -33.568676,-0.17617 c -0.240585,-0.23033 -1.387132,-0.44462 -1.387132,-0.25925 0,0.13031 0.829861,0.40546 1.317527,0.43683 0.238589,0.0154 0.247463,-0.007 0.06961,-0.17758 z m 3.821868,-0.0285 c 0.146282,-0.0562 0.218781,-0.25474 0.215968,-0.59164 -0.0034,-0.41204 -0.03084,-0.46146 -0.146127,-0.26353 -0.107676,0.18488 -0.324887,0.24362 -0.900633,0.24362 -0.819235,0 -0.881097,0.0517 -0.528348,0.44148 0.228439,0.25243 0.919274,0.33887 1.35914,0.17007 z m -6.670707,-0.19391 c -0.04732,-0.0765 -0.211326,-0.13921 -0.364458,-0.13921 -0.153131,0 -0.239704,0.0627 -0.192384,0.13921 0.04732,0.0765 0.211326,0.1392 0.364456,0.1392 0.153133,0 0.239706,-0.0627 0.192386,-0.1392 z m 7.58696,0.009 c 0,-0.072 -0.06264,-0.16972 -0.13921,-0.21704 -0.07656,-0.0473 -0.13921,0.0112 -0.13921,0.131 0,0.11936 0.06264,0.21703 0.13921,0.21703 0.07656,0 0.13921,-0.0589 0.13921,-0.13099 z m 7.830578,0.0416 c 0.595995,-0.0985 0.673584,-0.33933 0.19231,-0.59691 -0.389515,-0.20846 -0.870314,-0.13903 -0.813871,0.11749 0.02182,0.0993 -0.03282,0.26776 -0.121459,0.37455 -0.186987,0.22532 -0.07853,0.24061 0.743015,0.10476 z m -17.296877,-0.32007 c 0,-0.20602 -0.269354,-0.3199 -0.524804,-0.22188 -0.200574,0.0769 -0.204495,0.1075 -0.02814,0.21902 0.265753,0.16807 0.552938,0.16956 0.552938,0.003 z M 38.38483,215.7696 c 0.1189,-0.11887 0.116828,-0.15878 -0.0082,-0.15878 -0.09188,0 -0.167052,-0.094 -0.167052,-0.20882 0,-0.23619 0.02779,-0.22712 -0.887299,-0.28971 -0.807902,-0.0552 -0.734267,0.0854 0.16716,0.31927 0.635064,0.16479 0.624975,0.16713 -0.424379,0.099 -0.5912,-0.0383 -1.293941,-0.16134 -1.561643,-0.27319 -0.267703,-0.11187 -0.544083,-0.20338 -0.614178,-0.20338 -0.198275,0 -0.278073,0.48987 -0.124505,0.76429 0.123856,0.2213 0.310991,0.23987 1.7998,0.17855 0.96725,-0.0398 1.727927,-0.13478 1.82036,-0.22721 z m 14.228626,0.12661 c 0.04495,-0.0727 -0.05979,-0.20796 -0.232757,-0.30053 -0.172963,-0.0925 -0.429842,-0.31496 -0.570845,-0.49421 -0.25936,-0.32973 -0.792999,-0.44984 -0.792999,-0.17849 0,0.081 0.06516,0.10712 0.14479,0.0579 0.09153,-0.0566 0.116627,0.03 0.06822,0.2354 -0.09807,0.41612 0.04643,0.62837 0.483042,0.70952 0.60798,0.11299 0.816646,0.10612 0.900549,-0.0296 z m 2.440497,-0.14619 c -0.273253,-0.17659 -0.795729,-0.17659 -0.904867,0 -0.05234,0.0846 0.1489,0.13838 0.513822,0.13708 0.438595,-0.001 0.543723,-0.0385 0.391045,-0.13708 z m -1.531313,-0.12436 c 0,-0.15647 -0.362103,-0.30244 -0.473626,-0.19091 -0.167577,0.16758 -0.07614,0.31523 0.195205,0.31523 0.153131,0 0.278421,-0.0559 0.278421,-0.12436 z m 11.415243,-0.0695 c 0,-0.13206 -0.416711,-0.19861 -0.490993,-0.0784 -0.04525,0.0732 0.04671,0.13313 0.204354,0.13313 0.157652,0 0.286639,-0.0246 0.286639,-0.0547 z m -31.34695,-0.47983 c 0.03431,-0.23552 -0.05193,-0.34252 -0.363639,-0.45118 -0.224736,-0.0783 -0.478191,-0.29515 -0.563232,-0.48181 l -0.154624,-0.33935 -1.047052,0.52031 c -1.226685,0.60955 -1.338951,0.86402 -0.387404,0.8781 0.363687,0.005 0.773119,0.0539 0.909849,0.108 0.136729,0.0541 0.54392,0.0929 0.904867,0.0864 0.567086,-0.01 0.662378,-0.0537 0.701235,-0.32049 z m 12.686726,0.26218 c 0.153272,-0.097 -0.02214,-0.23236 -0.718569,-0.55471 -0.506735,-0.23454 -0.963807,-0.42644 -1.015716,-0.42644 -0.110571,0 -0.614837,0.58347 -0.621612,0.71925 -0.01536,0.30763 1.93996,0.52501 2.355897,0.2619 z m 2.163805,-0.006 c -0.04732,-0.0765 -0.160646,-0.13826 -0.251834,-0.13708 -0.09962,0.001 -0.08245,0.0559 0.04301,0.13708 0.267441,0.17283 0.315632,0.17283 0.208816,0 z m -18.761485,-0.0842 c -0.04626,-0.0462 -0.166328,-0.0512 -0.266819,-0.0112 -0.111059,0.0445 -0.07807,0.0774 0.0841,0.0841 0.14675,0.006 0.228971,-0.0268 0.182714,-0.0732 z m 23.399909,-0.30962 c 0.04588,-0.31181 -0.155376,-0.38458 -0.59595,-0.21552 -0.20668,0.0793 -0.205537,0.10963 0.01326,0.35142 0.292083,0.32274 0.523135,0.26885 0.582694,-0.1359 z m -5.404081,0.20115 c 0,-0.0293 -0.125374,-0.0862 -0.278612,-0.12623 -0.153237,-0.0401 -0.243507,-0.0161 -0.200599,0.0533 0.07493,0.12124 0.479211,0.18272 0.479211,0.0729 z m 7.795777,-0.36427 c -0.273617,-0.17682 -0.696053,-0.17682 -0.696053,0 0,0.0765 0.203596,0.13826 0.452434,0.13708 0.343323,-0.001 0.402075,-0.0347 0.243619,-0.13708 z m 10.71919,0 c 0.162719,-0.10512 0.124306,-0.13541 -0.174011,-0.13707 -0.210557,-0.001 -0.382829,0.0606 -0.382829,0.13707 0,0.17603 0.284472,0.17603 0.55684,0 z m -26.101926,-0.27889 c 0,-0.16307 -0.152487,-0.20012 -0.696051,-0.16909 -0.932827,0.0533 -1.222642,0.17316 -0.765657,0.31679 0.576433,0.18118 1.461708,0.0918 1.461708,-0.1477 z m 25.05785,-0.2062 c 0.461483,-0.10263 1.044076,-0.5791 1.044076,-0.85394 0,-0.30347 -0.257771,-0.3558 -1.011275,-0.20529 -0.40087,0.08 -1.195626,0.18025 -1.76613,0.22264 -1.957195,0.14542 -2.127281,0.3644 -0.432519,0.55685 0.493226,0.0561 0.985325,0.19039 1.093547,0.29862 0.108224,0.10825 0.299797,0.16914 0.425719,0.13538 0.125924,-0.0338 0.416884,-0.10313 0.646582,-0.15426 z m -22.281447,-0.0596 c 0.04079,-0.066 -0.0901,-0.15138 -0.290863,-0.18976 -0.452924,-0.0867 -1.441463,0.0372 -1.441463,0.18051 0,0.14777 1.641301,0.15653 1.732326,0.009 z m 13.339836,-0.10387 c -0.09425,-0.0381 -0.282183,-0.0405 -0.417632,-0.005 -0.135446,0.0353 -0.05833,0.0666 0.171364,0.0693 0.229697,0.002 0.340517,-0.0261 0.246268,-0.0642 z m 2.074494,-0.11425 c 0.707367,0.0973 1.282271,-0.0135 1.153301,-0.22212 -0.04391,-0.071 -0.229809,-0.12918 -0.413102,-0.12918 -0.183294,0 -0.486444,-0.0698 -0.673673,-0.1551 -0.472615,-0.21534 -1.856505,0.22012 -1.616931,0.50879 0.117227,0.14126 0.247953,0.15313 0.525205,0.0477 0.203021,-0.0772 0.664362,-0.0998 1.0252,-0.0501 z m -9.882921,-0.16493 c 0.140545,-0.12719 0.389027,-0.29947 0.552183,-0.38282 0.398144,-0.20344 0.284626,-0.42576 -0.228959,-0.44843 -2.481032,-0.1095 -2.986628,-0.0614 -2.260039,0.21482 0.194682,0.074 0.469609,0.25694 0.610951,0.40651 0.226496,0.23966 0.519397,0.37181 0.942076,0.42503 0.07053,0.009 0.243241,-0.0879 0.383788,-0.21511 z m 1.019276,0.092 c 0.04732,-0.0765 -0.01532,-0.13922 -0.13921,-0.13922 -0.123882,0 -0.186531,0.0627 -0.13921,0.13922 0.04732,0.0765 0.10996,0.1392 0.13921,0.1392 0.02924,0 0.09189,-0.0627 0.13921,-0.1392 z m 4.559138,0.0469 c -0.0957,-0.0386 -0.252319,-0.0386 -0.348026,0 -0.09571,0.0386 -0.0174,0.0702 0.174012,0.0702 0.191415,0 0.26972,-0.0316 0.174014,-0.0702 z m 19.593844,-0.0469 c 0,-0.0765 -0.09027,-0.13922 -0.200596,-0.13922 -0.110335,0 -0.239317,0.0627 -0.286638,0.13922 -0.04732,0.0765 0.04295,0.1392 0.2006,0.1392 0.157647,0 0.286634,-0.0627 0.286634,-0.1392 z M 46.005285,213.6614 c 0,-0.0765 -0.04698,-0.14144 -0.104404,-0.14417 -0.05742,-0.002 -0.464435,-0.091 -0.904469,-0.19616 -0.89595,-0.21413 -1.204436,-0.0541 -0.493999,0.25638 0.533259,0.23299 1.502876,0.28715 1.502876,0.0839 z m 6.216423,-0.0757 c 0.09967,-0.25974 0.08062,-0.27833 -0.404394,-0.3947 -0.317414,-0.0762 -0.382829,-0.0458 -0.382829,0.17764 0,0.4192 0.641754,0.59616 0.787223,0.21706 z m 17.170904,0.0757 c 0,-0.0765 -0.09397,-0.1392 -0.208817,-0.1392 -0.114842,0 -0.208813,0.0627 -0.208813,0.1392 0,0.0765 0.09397,0.13921 0.208813,0.13921 0.114854,0 0.208817,-0.0627 0.208817,-0.13921 z m -18.552671,-0.0845 c -0.04626,-0.0462 -0.166327,-0.0512 -0.26682,-0.0112 -0.111058,0.0444 -0.07807,0.0774 0.0841,0.0841 0.14675,0.006 0.228972,-0.0268 0.182713,-0.0732 z m -9.950634,-0.17742 c 0.558338,-0.0246 0.490223,-0.40176 -0.09231,-0.51104 -0.261322,-0.0491 -0.619309,-0.0433 -0.795523,0.0125 -0.176214,0.0559 -0.554857,0.11911 -0.841429,0.14055 -0.587068,0.0438 -0.850926,0.16436 -0.742739,0.33941 0.06338,0.10251 0.495454,0.10575 2.471997,0.0185 z m 20.842708,-0.24918 c 0.113444,-0.10601 -0.329776,-0.3202 -0.667161,-0.32242 -0.347866,-0.002 -0.767451,0.32255 -0.614361,0.47564 0.09223,0.0923 1.154795,-0.0348 1.281522,-0.15322 z m 6.686127,0.10712 c 0,-0.0688 -0.281904,-0.14761 -0.626447,-0.17502 -0.704694,-0.0561 -0.766055,-0.0254 -0.313224,0.15667 0.412319,0.16573 0.939671,0.17603 0.939671,0.0183 z m -14.993643,-0.42339 c 0.398523,0.0528 0.753355,0.0698 0.788514,0.038 0.03516,-0.032 -0.215418,-0.30383 -0.556841,-0.60427 -0.436702,-0.38427 -0.744602,-0.54417 -1.038399,-0.53927 -0.229698,0.004 -0.652548,-0.0377 -0.93967,-0.0925 -0.496167,-0.0945 -0.522038,-0.0813 -0.522038,0.26676 0,0.28637 0.06831,0.3667 0.313223,0.36837 0.386293,0.002 0.584044,0.13114 0.704794,0.45801 0.06611,0.17897 0.155169,0.21645 0.309337,0.13016 0.119074,-0.0667 0.542558,-0.0779 0.94108,-0.0252 z m 6.362604,-0.009 c 0,-0.0765 -0.09027,-0.13921 -0.2006,-0.13921 -0.110335,0 -0.239317,0.0627 -0.286637,0.13921 -0.04732,0.0765 0.04295,0.13921 0.2006,0.13921 0.15765,0 0.286637,-0.0627 0.286637,-0.13921 z m -4.757746,-0.24335 c -0.05078,-0.27483 -1.195351,-0.90686 -1.406241,-0.77652 -0.07534,0.0466 0.106152,0.2928 0.403311,0.54718 0.599007,0.51278 1.075425,0.62172 1.00293,0.22934 z m 2.735207,-0.3627 c 0.157986,-0.11549 0.223976,-0.27745 0.170187,-0.41763 -0.0674,-0.17565 -0.275203,-0.2293 -0.892684,-0.23047 -0.442655,-7.9e-4 -1.039744,-0.0403 -1.326865,-0.0878 -0.417438,-0.0691 -0.522039,-0.0427 -0.522039,0.13136 0,0.22984 0.163957,0.30348 1.009274,0.4533 0.287121,0.0509 0.522039,0.14819 0.522039,0.21623 0,0.19249 0.752267,0.1455 1.040088,-0.0649 z m 12.184888,-0.004 c 0,-0.28821 -0.332563,-0.50798 -0.910677,-0.6018 -0.437518,-0.071 -0.557787,-0.0322 -0.774982,0.25035 -0.141401,0.18392 -0.258487,0.38138 -0.260187,0.4388 -0.0016,0.0574 0.435414,0.10438 0.971376,0.10438 0.734893,0 0.97447,-0.0472 0.97447,-0.19176 z m 7.378144,0.0526 c 0,-0.16339 -0.107001,-0.16339 -0.487236,0 -0.246714,0.106 -0.234826,0.12073 0.104404,0.12942 0.210554,0.005 0.382825,-0.0528 0.382825,-0.12942 z M 50.738434,211.851 c 0,-0.22106 -0.09321,-0.27867 -0.452434,-0.27963 -0.248838,-8e-4 -0.796978,-0.0401 -1.218089,-0.0875 -1.053485,-0.11886 -0.764629,0.17081 0.42844,0.42956 1.2001,0.26028 1.242083,0.25817 1.242083,-0.0624 z m 25.116068,0.19392 c 0.385603,-0.14796 0.237178,-0.33314 -0.267033,-0.33314 -0.460674,0 -0.602475,0.11674 -0.394427,0.32483 0.115541,0.11561 0.373555,0.11874 0.66146,0.009 z m -28.657953,-0.55333 c -0.319172,-0.23338 -0.495213,-0.25248 -0.495213,-0.0537 0,0.15645 0.583072,0.42118 0.695833,0.31594 0.03816,-0.0356 -0.05212,-0.15361 -0.20062,-0.2622 z m 26.650792,-0.0582 c 0,-0.0765 -0.121597,-0.13922 -0.270208,-0.13922 -0.14861,0 -0.308917,0.0627 -0.356238,0.13922 -0.04879,0.0789 0.06816,0.13921 0.270202,0.13921 0.195933,0 0.356244,-0.0627 0.356244,-0.13921 z m -21.513935,-0.28804 c -0.04405,-0.0713 -0.178031,-0.12959 -0.297736,-0.12959 -0.176963,0 -0.185489,0.0387 -0.04562,0.20727 0.179742,0.21658 0.482833,0.14799 0.343352,-0.0777 z m 0.771603,0.0256 c 0,-0.28848 -0.616067,-0.76192 -0.877885,-0.67464 -0.09794,0.0326 0.01417,0.23396 0.276202,0.496 0.511233,0.51123 0.601683,0.53809 0.601683,0.17864 z m -3.286135,0.0399 c 0.185801,-0.0713 0.170894,-0.14614 -0.103992,-0.52204 -0.176485,-0.24135 -0.294101,-0.55671 -0.261366,-0.7008 0.05383,-0.23695 -0.01174,-0.25602 -0.685088,-0.19937 -0.788586,0.0663 -1.523671,0.35184 -1.613029,0.6265 -0.09015,0.2771 0.542147,0.57978 1.494875,0.71558 0.497676,0.0709 0.915404,0.13672 0.928283,0.14617 0.01287,0.01 0.121023,-0.0202 0.240311,-0.0661 z m 21.286645,-0.19273 c 0.148106,-0.13377 -1.327941,-0.28268 -1.738309,-0.17536 -0.310828,0.0813 -0.30803,0.0888 0.09625,0.25906 0.40898,0.17224 1.415497,0.12098 1.642055,-0.0837 z m -19.615098,-0.22586 c 0.150687,-0.39268 -1.281242,-0.99437 -1.504969,-0.63238 -0.106102,0.17168 0.202247,0.51545 0.677818,0.75567 0.450156,0.22737 0.707295,0.18905 0.827151,-0.12324 z m 16.788509,0.21903 c 0,-0.20356 -0.328156,-0.30381 -0.788702,-0.24097 l -0.394585,0.0538 0.348024,0.15653 c 0.445509,0.20038 0.835263,0.21466 0.835263,0.0306 z m -11.968884,-0.34361 c 0,-0.0765 -0.345265,-0.15799 -0.767257,-0.18095 -0.627872,-0.0342 -0.767258,-0.001 -0.767258,0.18095 0,0.18226 0.139386,0.21513 0.767258,0.18097 0.421992,-0.023 0.767257,-0.10438 0.767257,-0.18097 z m -2.091355,-0.12273 c 0,-0.19235 -1.182173,-0.66726 -1.319399,-0.53003 -0.03999,0.0399 -0.07174,0.17188 -0.07057,0.29312 0.0019,0.19314 0.01883,0.19457 0.13708,0.0112 0.116715,-0.18061 0.135234,-0.17747 0.137079,0.0232 0.0025,0.26776 0.194012,0.36797 0.732984,0.38344 0.238189,0.006 0.382829,-0.0617 0.382829,-0.18133 z m -2.296969,-0.36453 c -0.04732,-0.0765 -0.211327,-0.13921 -0.364457,-0.13921 -0.153132,0 -0.239706,0.0627 -0.192384,0.13921 0.04732,0.0765 0.211325,0.13922 0.364456,0.13922 0.153132,0 0.239705,-0.0627 0.192385,-0.13922 z m 5.777226,-0.2088 c 0.151349,-0.18237 0.04477,-0.20883 -0.841417,-0.20883 -1.066119,0 -1.189205,0.11325 -0.308605,0.28409 0.815991,0.15824 0.964283,0.14854 1.150022,-0.0753 z m -2.644995,-0.15867 c 0,-0.18996 -0.50546,-0.45914 -0.870065,-0.46336 -0.430279,-0.005 -0.539133,0.35194 -0.13921,0.45645 0.384698,0.10051 1.009275,0.10476 1.009275,0.008 z m -4.097754,86.02261 c -0.07555,-0.19841 -0.05956,-0.2144 0.07793,-0.0779 0.09514,0.0944 0.137911,0.20676 0.09505,0.24962 -0.04286,0.0428 -0.120698,-0.0345 -0.172979,-0.17169 z m -0.06756,-0.53965 c 0.0067,-0.16218 0.03967,-0.19516 0.0841,-0.0841 0.04022,0.10051 0.03527,0.22055 -0.01099,0.26681 -0.04626,0.0463 -0.07916,-0.036 -0.07312,-0.18271 z m 1.948944,-4.0371 c 0.0067,-0.16217 0.03967,-0.19516 0.0841,-0.0841 0.04022,0.10051 0.03527,0.22056 -0.01099,0.26681 -0.04626,0.0462 -0.07916,-0.0359 -0.07311,-0.18271 z m -2.90211,-3.67746 c 0,-0.26799 0.02865,-0.37762 0.06366,-0.24362 0.03501,0.13398 0.03501,0.35324 0,0.48723 -0.03501,0.13399 -0.06366,0.0243 -0.06366,-0.24361 z m 2.879518,-0.31323 c -0.0474,-0.1422 -0.138513,-0.88967 -0.212122,-1.74013 -0.07421,-0.8575 -0.05481,-1.00927 0.129038,-1.00927 0.23204,0 0.232859,0.0522 -0.03064,-1.94894 -0.231885,-1.76107 -0.310872,-3.01041 -0.176024,-2.78422 0.109761,0.18411 0.461996,3.57534 0.636215,6.12526 0.034,0.49767 0.104554,1.0145 0.156793,1.14848 0.07212,0.18499 0.02437,0.24362 -0.198343,0.24362 -0.161324,0 -0.298535,-0.0156 -0.304915,-0.0348 z m -4.634744,-11.87278 c -0.04774,-0.12436 -0.08039,-0.36203 -0.07255,-0.52804 0.009,-0.19081 0.0563,-0.12298 0.128554,0.18445 0.121597,0.51735 0.08854,0.72024 -0.056,0.34359 z m 2.482863,-10.09662 c -0.05047,-0.0817 -0.0619,-0.17833 -0.02541,-0.21482 0.03648,-0.0365 0.103442,0.0303 0.14878,0.14846 0.09413,0.24532 0.01391,0.28846 -0.12337,0.0664 z m -0.03674,-1.59167 c 0.0029,-0.22969 0.03403,-0.3068 0.06933,-0.17136 0.0353,0.13546 0.03297,0.32339 -0.0051,0.41764 -0.03813,0.0943 -0.06701,-0.0166 -0.06418,-0.24628 z m 2.617856,-9.40182 c -0.156682,-0.10513 -0.108973,-0.12348 0.191093,-0.0735 0.21995,0.0366 0.433986,0.10051 0.475635,0.14221 0.135829,0.13583 -0.452166,0.0753 -0.666728,-0.0687 z M 25.64346,232.29792 c 0.09443,-0.0951 0.206762,-0.1379 0.249622,-0.095 0.04286,0.0428 -0.0344,0.12073 -0.171691,0.17297 -0.198403,0.0755 -0.214393,0.0596 -0.07794,-0.0779 z"
       id="path3061"
       inkscape:connector-curvature="0" />
  </g>
</svg>
