<?xml version="1.0" encoding="UTF-8" standalone="no"?>
<!-- Created with Inkscape (http://www.inkscape.org/) -->

<svg
   xmlns:dc="http://purl.org/dc/elements/1.1/"
   xmlns:cc="http://creativecommons.org/ns#"
   xmlns:rdf="http://www.w3.org/1999/02/22-rdf-syntax-ns#"
   xmlns:svg="http://www.w3.org/2000/svg"
   xmlns="http://www.w3.org/2000/svg"
   xmlns:sodipodi="http://sodipodi.sourceforge.net/DTD/sodipodi-0.dtd"
   xmlns:inkscape="http://www.inkscape.org/namespaces/inkscape"
   width="105mm"
   height="146mm"
   viewBox="0 0 105 146"
   version="1.1"
   id="svg8"
   inkscape:version="0.92.3 (2405546, 2018-03-11)"
   sodipodi:docname="nothofagus_0_young_01.svg">
  <defs
     id="defs2" />
  <sodipodi:namedview
     id="base"
     pagecolor="#ffffff"
     bordercolor="#666666"
     borderopacity="1.0"
     inkscape:pageopacity="0.0"
     inkscape:pageshadow="2"
     inkscape:zoom="0.7"
     inkscape:cx="-0.54686088"
     inkscape:cy="204.43158"
     inkscape:document-units="mm"
     inkscape:current-layer="layer1"
     showgrid="false"
     inkscape:pagecheckerboard="true"
     height="147mm"
     inkscape:window-width="1920"
     inkscape:window-height="1055"
     inkscape:window-x="381"
     inkscape:window-y="0"
     inkscape:window-maximized="1"
     inkscape:snap-global="false" />
  <metadata
     id="metadata5">
    <rdf:RDF>
      <cc:Work
         rdf:about="">
        <dc:format>image/svg+xml</dc:format>
        <dc:type
           rdf:resource="http://purl.org/dc/dcmitype/StillImage" />
        <dc:title></dc:title>
      </cc:Work>
    </rdf:RDF>
  </metadata>
  <g
     inkscape:label="Layer 1"
     inkscape:groupmode="layer"
     id="layer1"
     transform="translate(0,-151)">
    <path
       style="fill:#000000;stroke-width:0.05035062"
       d="m 48.708925,297.72023 c -0.01345,-0.16056 0.01109,-0.78864 0.03771,-0.96673 0.0204,-0.13621 0.01236,-0.18475 -0.02662,-0.16067 -0.03071,0.019 -0.05585,0.11101 -0.05585,0.2045 0,0.20415 -0.0784,0.42829 -0.149805,0.42829 -0.02837,0 -0.0516,-0.0974 -0.0516,-0.21651 0,-0.20096 -0.06515,-0.33735 -0.161122,-0.33735 -0.02215,0 -0.04028,0.0982 -0.04028,0.21819 0,0.12 -0.01528,0.23346 -0.03397,0.25215 -0.04333,0.0434 -0.217009,-0.21705 -0.217449,-0.32601 -1.99e-4,-0.0453 -0.04864,-0.0948 -0.107683,-0.11025 -0.08417,-0.022 -0.100329,-0.0532 -0.07484,-0.14434 0.01788,-0.0639 0.04643,-0.21124 0.06345,-0.32731 0.028,-0.191 0.01358,-0.23133 -0.151735,-0.42446 -0.100473,-0.11737 -0.182668,-0.23014 -0.182668,-0.25058 0,-0.0204 -0.08213,-0.088 -0.182492,-0.14997 -0.212254,-0.13119 -0.855176,-0.26011 -1.335127,-0.26774 -0.341658,-0.006 -0.546756,-0.10482 -0.546756,-0.26487 0,-0.0373 -0.03399,-0.0678 -0.07553,-0.0678 -0.04154,0 -0.07553,0.0226 -0.07553,0.0504 0,0.0673 -0.260694,0.064 -0.43729,-0.006 -0.07796,-0.0306 -0.334333,-0.0628 -0.569722,-0.0714 -0.235389,-0.009 -0.492191,-0.0404 -0.57067,-0.0704 -0.170658,-0.0656 -0.265398,-0.0255 -0.180869,0.0763 0.03242,0.039 0.141153,0.0724 0.24161,0.0741 0.100462,0.002 0.329926,0.0327 0.509929,0.069 l 0.327279,0.0658 -0.200534,0.0877 c -0.163641,0.0715 -0.284068,0.0819 -0.654559,0.0562 -0.954304,-0.0661 -1.170265,-0.10826 -1.348622,-0.26329 -0.09137,-0.0794 -0.270768,-0.20981 -0.398679,-0.28978 -0.222442,-0.13906 -0.343118,-0.30181 -0.343118,-0.46276 0,-0.13898 0.131621,-0.12643 0.549331,0.0523 0.228941,0.098 0.436905,0.17817 0.462143,0.17817 0.109114,0 0.02814,-0.0904 -0.204865,-0.22877 -0.22684,-0.13467 -0.277903,-0.20093 -0.240164,-0.31168 0.0069,-0.0203 0.05223,-0.0303 0.100706,-0.022 0.04846,0.008 0.08812,-0.009 0.08812,-0.0386 0,-0.10671 0.0799,-0.0496 0.173348,0.1239 0.09852,0.18294 0.13104,0.19766 0.556737,0.25205 0.24674,0.0315 0.249747,0.0303 0.151051,-0.0606 -0.05538,-0.051 -0.16301,-0.13274 -0.239165,-0.18161 -0.118645,-0.0762 -0.194164,-0.23761 -0.111139,-0.23761 0.01503,0 0.15664,0.0963 0.314692,0.21387 0.412222,0.30679 0.496478,0.34618 0.564723,0.26394 0.04348,-0.0523 0.0033,-0.11588 -0.180329,-0.28519 -0.129943,-0.11979 -0.323886,-0.27006 -0.430985,-0.33394 -0.107095,-0.0639 -0.194725,-0.15097 -0.194725,-0.19354 0,-0.0876 0.216784,-0.0725 0.91848,0.064 0.21439,0.0417 0.410287,0.0632 0.435328,0.0477 0.02505,-0.0154 0.11019,0.006 0.189233,0.0468 0.164399,0.0857 0.470984,0.10116 0.470984,0.0236 0,-0.0286 -0.03966,-0.0659 -0.08812,-0.083 -0.125899,-0.0445 -0.314691,-0.22371 -0.314691,-0.29883 0,-0.0877 0.03659,-0.10327 0.339866,-0.14422 0.225081,-0.0304 0.264341,-0.0235 0.264341,0.0461 0,0.12657 0.119427,0.14376 0.381217,0.0549 0.131746,-0.0447 0.268044,-0.0704 0.302882,-0.057 0.07371,0.0283 0.04784,0.18546 -0.06858,0.41682 -0.06562,0.1304 -0.06863,0.17396 -0.01635,0.23695 0.03523,0.0425 0.04934,0.10094 0.03136,0.1301 -0.04847,0.0784 0.04255,0.0944 0.666556,0.11684 0.311849,0.0112 0.583743,0.0373 0.604208,0.0579 0.02047,0.0206 0.0372,0.0965 0.0372,0.16853 0,0.10172 0.04469,0.15422 0.199891,0.23469 0.109935,0.057 0.340581,0.24992 0.512536,0.42869 l 0.312643,0.32505 0.03477,-0.13855 c 0.01912,-0.0762 0.01769,-0.2678 -0.0032,-0.42576 -0.06458,-0.48862 -0.04164,-0.87597 0.07426,-1.25433 0.116231,-0.37942 0.143597,-0.69097 0.0831,-0.94618 -0.0698,-0.29451 -1.11092,-0.94375 -1.650043,-1.02897 -0.236018,-0.0373 -0.241089,-0.0354 -0.212131,0.08 0.0363,0.14468 -3e-4,0.14952 -0.132302,0.0175 -0.122879,-0.12288 -0.351842,-0.14577 -0.251753,-0.0252 0.09198,0.11081 0.0049,0.0963 -0.414082,-0.0691 -0.201494,-0.0795 -0.494509,-0.18153 -0.651146,-0.22662 -0.249681,-0.0719 -0.281343,-0.0952 -0.256808,-0.18898 0.02709,-0.1036 0.01679,-0.10604 -0.319415,-0.076 -0.19107,0.0171 -0.370056,0.0347 -0.397748,0.0392 -0.0277,0.004 -0.118324,-0.007 -0.201404,-0.0237 -0.185748,-0.0392 -0.434139,0.13129 -0.335364,0.23006 0.04428,0.0443 0.11313,0.0318 0.284989,-0.0517 0.228638,-0.11108 0.323432,-0.0692 0.113313,0.05 -0.178696,0.10138 -0.859654,0.22211 -1.042383,0.18474 -0.09077,-0.0185 -0.235905,-0.0134 -0.32254,0.0114 -0.08663,0.0248 -0.282285,0.0468 -0.434779,0.0487 -0.28478,0.003 -0.606566,0.0861 -0.365374,0.0936 0.06231,0.002 0.113289,0.0266 0.113289,0.0548 0,0.0283 -0.05098,0.0408 -0.113289,0.0281 -0.06231,-0.0128 -0.20392,-0.0373 -0.314691,-0.0543 -0.110778,-0.0171 -0.320473,-0.0679 -0.466003,-0.11288 -0.260201,-0.0804 -0.267239,-0.0797 -0.423287,0.0356 -0.144868,0.10715 -0.163961,0.11014 -0.21928,0.0345 -0.03333,-0.0456 -0.09009,-0.0828 -0.12615,-0.0828 -0.08275,0 -0.502469,-0.24379 -0.502114,-0.29164 1.43e-4,-0.0196 0.04154,-0.1036 0.09199,-0.18669 0.08971,-0.14774 0.101571,-0.15135 0.541004,-0.16436 0.728329,-0.0215 1.43112,-0.0927 1.43112,-0.14492 0,-0.0111 -0.02746,-0.0633 -0.06103,-0.1171 -0.08911,-0.1427 -0.02172,-0.17276 0.176464,-0.0788 0.151542,0.0719 0.231556,0.0751 0.620885,0.025 0.275955,-0.0355 0.469237,-0.086 0.505253,-0.13192 0.04893,-0.0623 0.118731,-0.066 0.433324,-0.0222 0.206247,0.0287 0.491543,0.0384 0.633991,0.0215 0.236622,-0.0281 0.258998,-0.0219 0.258998,0.0713 0,0.082 -0.04359,0.10849 -0.222118,0.13531 -0.135484,0.0203 -0.234343,0.0651 -0.253459,0.11498 -0.04503,0.11735 0.06148,0.16247 0.243154,0.10293 0.0863,-0.0283 0.236198,-0.0614 0.333123,-0.0738 0.191982,-0.0243 1.276381,0.15009 1.555224,0.25012 0.137973,0.0495 0.177424,0.0494 0.194284,-8.5e-4 0.02961,-0.0881 0.113465,-0.0788 0.113465,0.0125 0,0.0756 0.02378,0.0824 0.352455,0.10038 0.228887,0.0125 0.561649,-0.077 0.538968,-0.14505 -0.0098,-0.0292 -0.106651,-0.0707 -0.215389,-0.0921 -0.380467,-0.0751 -0.42428,-0.0923 -0.42428,-0.1663 0,-0.041 0.02832,-0.0753 0.06294,-0.0762 0.03462,-8.6e-4 6.28e-4,-0.048 -0.07553,-0.10493 -0.190059,-0.1418 -0.179548,-0.24541 0.02518,-0.24817 0.09,-10e-4 0.244375,-0.0311 0.34305,-0.0663 0.143673,-0.0514 0.213876,-0.0517 0.352454,-10e-4 0.09786,0.0354 0.430094,0.0642 0.764665,0.0663 0.56775,0.003 0.591619,-4.2e-4 0.591619,-0.10138 0,-0.10549 -0.676438,-0.90179 -0.76603,-0.90179 -0.02572,0 -0.08076,0.0339 -0.122299,0.0755 -0.05472,0.0547 -0.188989,0.0756 -0.487321,0.0761 -0.226488,2.9e-4 -0.523022,0.0343 -0.658964,0.0755 -0.272968,0.0827 -0.583618,0.0994 -0.583618,0.0312 0,-0.0241 0.132644,-0.0589 0.294764,-0.0772 0.16212,-0.0183 0.336137,-0.0636 0.386704,-0.10061 0.08786,-0.0642 0.08707,-0.0699 -0.01778,-0.12595 -0.148031,-0.0792 -0.590567,-0.0208 -0.81474,0.10737 -0.247483,0.14161 -0.695187,0.17448 -0.955835,0.0702 -0.113736,-0.0455 -0.363197,-0.10494 -0.554357,-0.13205 -0.337894,-0.0479 -0.755585,-0.21706 -0.755585,-0.30597 0,-0.0242 -0.06784,-0.0304 -0.150751,-0.0139 -0.11364,0.0227 -0.453457,-0.0538 -0.453457,-0.10205 0,-0.003 -0.02111,-0.0804 -0.0469,-0.17035 -0.04023,-0.14025 -0.02884,-0.18501 0.08,-0.31435 0.06979,-0.083 0.158877,-0.15082 0.197955,-0.15082 0.03908,0 0.07105,-0.0314 0.07105,-0.0697 0,-0.0429 0.05315,-0.0689 0.138464,-0.0676 0.07616,0.001 0.200773,-0.0153 0.276928,-0.0365 0.116158,-0.0324 0.138465,-0.0231 0.138465,0.0576 0,0.12916 0.09575,0.21693 0.236648,0.21693 0.143412,0 0.149389,-0.0999 0.01297,-0.21673 -0.05657,-0.0485 -0.08983,-0.10915 -0.07391,-0.13487 0.03448,-0.0558 0.153685,-0.0179 0.332439,0.10582 0.133135,0.0921 0.625424,0.19285 1.077908,0.22062 0.138464,0.009 0.268747,0.0176 0.289516,0.0203 0.02078,0.002 0.03776,0.0501 0.03776,0.1056 0,0.0554 0.02832,0.10083 0.06294,0.10094 0.03462,1e-4 0.138603,0.0464 0.231083,0.10271 0.232625,0.14182 0.141847,0.24957 -0.210275,0.24957 -0.237602,0 -0.250331,0.006 -0.173815,0.0825 0.04541,0.0454 0.14656,0.0814 0.22478,0.0801 0.396886,-0.007 0.551069,-0.0261 0.612348,-0.0765 0.03703,-0.0305 0.263608,-0.0583 0.503507,-0.0619 0.314547,-0.004 0.485229,-0.0322 0.612073,-0.0985 0.158839,-0.0831 0.166162,-0.0957 0.07553,-0.13116 -0.05521,-0.0215 -0.186824,-0.0408 -0.292493,-0.0427 -0.26301,-0.004 -0.413239,-0.0874 -0.333642,-0.18328 0.03287,-0.0396 0.09098,-0.072 0.129127,-0.072 0.111024,0 0.08002,-0.0906 -0.04393,-0.12843 -0.341291,-0.10405 -0.328545,-0.32473 0.01876,-0.32473 0.199065,0 0.238155,-0.0376 0.140501,-0.13529 -0.09683,-0.0968 0.04172,-0.12708 0.21782,-0.0476 0.09031,0.0408 0.215176,0.0888 0.277485,0.1067 0.06892,0.0199 0.11329,0.0721 0.11329,0.13339 0,0.0758 0.02817,0.0968 0.113288,0.0847 0.09262,-0.0132 0.110733,-0.0437 0.09929,-0.16714 -0.01259,-0.13588 8.99e-4,-0.15157 0.134392,-0.15621 0.137055,-0.004 0.144831,0.004 0.10176,0.11752 -0.05226,0.13744 -0.02365,0.21492 0.07933,0.21492 0.03792,0 0.100984,0.032 0.140119,0.0712 0.108171,0.10815 0.451262,0.28128 0.557468,0.28128 0.07131,0 0.08459,-0.0214 0.05456,-0.0881 -0.02182,-0.0485 -0.04177,-0.15608 -0.04434,-0.23916 -0.0061,-0.19886 -0.06008,-0.27692 -0.191317,-0.27692 -0.127278,0 -0.39,-0.23621 -0.39,-0.35064 0,-0.044 -0.158604,-0.23744 -0.352454,-0.4298 -0.193851,-0.19236 -0.352455,-0.38838 -0.352455,-0.4356 0,-0.0587 -0.09173,-0.11944 -0.289516,-0.1919 -0.352368,-0.12907 -0.342871,-0.12462 -0.591619,-0.27697 -0.261774,-0.16033 -0.370785,-0.15794 -0.609242,0.0133 -0.108005,0.0775 -0.332316,0.19386 -0.498472,0.25843 -0.166157,0.0645 -0.347895,0.17057 -0.403862,0.23555 -0.114571,0.13304 -0.395699,0.21151 -0.448965,0.12533 -0.01883,-0.0305 -0.100894,-0.0555 -0.182333,-0.0555 -0.204982,0 -0.185263,-0.0562 0.06591,-0.18787 0.302128,-0.15838 0.628027,-0.26516 0.811941,-0.26602 0.08652,-4.3e-4 0.213953,-0.0335 0.283185,-0.0734 0.06924,-0.0401 0.199514,-0.11183 0.289517,-0.15964 0.196837,-0.10449 0.206272,-0.18439 0.03605,-0.30508 -0.07017,-0.0498 -0.223112,-0.16044 -0.339866,-0.24596 -0.116755,-0.0855 -0.382215,-0.24353 -0.589912,-0.35112 -0.386255,-0.2001 -0.669785,-0.45301 -0.888214,-0.79232 -0.06771,-0.10515 -0.155021,-0.20346 -0.194039,-0.21844 -0.03902,-0.015 -0.09711,-0.10648 -0.129106,-0.20346 -0.0616,-0.18665 -0.06886,-0.18779 -0.385267,-0.0607 -0.247031,0.0993 -0.49471,-0.0343 -0.567913,-0.30608 -0.04127,-0.15329 -0.08009,-0.20339 -0.157531,-0.20339 -0.08798,0 -0.09799,-0.0217 -0.06958,-0.15106 0.02756,-0.12551 0.01737,-0.15104 -0.06032,-0.15104 -0.05142,0 -0.140075,-0.0326 -0.197003,-0.0725 -0.09242,-0.0648 -0.131887,-0.0593 -0.368657,0.0504 -0.308575,0.14296 -0.433489,0.1531 -0.542542,0.044 -0.06037,-0.0603 -0.127192,-0.0699 -0.285919,-0.0406 -0.297756,0.0549 -0.467713,0.0356 -0.707432,-0.0804 -0.228207,-0.11048 -0.383119,-0.12934 -0.458875,-0.0559 -0.02631,0.0255 -0.150863,0.0573 -0.27679,0.0709 -0.125925,0.0134 -0.325911,0.0506 -0.444411,0.0824 -0.133069,0.0358 -0.238051,0.0403 -0.27455,0.0116 -0.0325,-0.0255 -0.122749,-0.0616 -0.20055,-0.0802 -0.117185,-0.0281 -0.139063,-0.0572 -0.127505,-0.17058 0.02735,-0.26812 -0.05792,-0.5484 -0.184403,-0.60602 -0.0657,-0.0299 -0.143317,-0.0991 -0.172482,-0.15351 -0.0442,-0.0826 -0.02732,-0.12071 0.10146,-0.22907 0.168636,-0.14191 0.248038,-0.15963 0.333262,-0.0744 0.03477,0.0348 0.13281,0.0426 0.261824,0.0207 0.154679,-0.0262 0.206231,-0.0581 0.206231,-0.12814 0,-0.13858 0.07968,-0.16306 0.247774,-0.0761 0.08252,0.0427 0.23104,0.0777 0.330051,0.0777 h 0.180021 l -0.08046,-0.15561 c -0.08142,-0.15743 -0.06919,-0.29756 0.02595,-0.29756 0.02856,0 0.05193,0.0454 0.05193,0.10072 0,0.0724 0.03357,0.10072 0.119711,0.10072 0.06584,0 0.147917,0.0339 0.182392,0.0755 0.05591,0.0673 0.302104,0.11025 0.302104,0.0527 0,-0.0125 -0.05924,-0.0821 -0.13164,-0.15453 l -0.131641,-0.13164 0.104355,-0.0972 c 0.130911,-0.12197 0.151356,-0.12038 0.329829,0.0255 0.09269,0.0758 0.134724,0.14785 0.115488,0.19798 -0.03419,0.0891 0.005,0.12192 0.218834,0.18324 0.140723,0.0404 0.147693,0.0357 0.118778,-0.0795 -0.02568,-0.10238 -0.01224,-0.12238 0.08208,-0.12238 0.06204,0 0.193767,0.05 0.292721,0.1112 0.196686,0.12155 0.493216,0.14813 1.342488,0.12032 0.110035,-0.003 0.146264,0.0155 0.133421,0.0705 -0.0097,0.0415 -0.02319,0.123 -0.02998,0.18104 -0.0068,0.058 -0.02862,0.13183 -0.0485,0.164 -0.02044,0.0331 -3.52e-4,0.0722 0.04632,0.0901 0.05806,0.0223 0.0735,0.0673 0.05219,0.15227 -0.02466,0.0983 -0.001,0.13665 0.127645,0.20715 0.08685,0.0476 0.204252,0.12245 0.260882,0.16633 0.101349,0.0785 0.101494,0.0822 0.0092,0.23853 l -0.09378,0.15877 0.171413,0.17686 c 0.09427,0.0973 0.198533,0.17685 0.231676,0.17685 0.03314,0 0.07331,0.0339 0.08925,0.0755 0.01594,0.0416 0.08084,0.0755 0.144214,0.0755 0.106408,0 0.113866,-0.0183 0.0974,-0.23917 -0.02233,-0.29947 -0.09616,-0.39032 -0.139819,-0.17203 -0.01777,0.0888 -0.05203,0.17373 -0.07616,0.18864 -0.05554,0.0343 -0.05531,0.0292 0.01327,-0.29057 0.0603,-0.28114 0.16264,-0.47797 0.302434,-0.58162 0.04795,-0.0356 0.07372,-0.10327 0.0597,-0.15692 -0.02447,-0.0936 0.220729,-0.63711 0.346981,-0.76914 0.03615,-0.0378 0.09302,-0.13043 0.126366,-0.20582 0.03405,-0.077 0.13594,-0.16853 0.232432,-0.20884 0.223089,-0.0932 0.262674,-0.16428 0.13569,-0.24358 -0.13017,-0.0813 -0.130906,-0.17227 -0.002,-0.24129 0.06077,-0.0325 0.100695,-0.10548 0.100695,-0.18387 0,-0.1114 0.01795,-0.12654 0.125557,-0.10593 0.0712,0.0136 0.150031,-0.006 0.182093,-0.0442 0.07873,-0.0948 0.418392,-0.17879 0.569795,-0.14079 0.06928,0.0174 0.139259,0.0735 0.155514,0.12473 0.01625,0.0512 0.07938,0.10826 0.140269,0.12666 0.1437,0.0435 0.337292,0.22162 0.337292,0.31028 0,0.0382 0.06797,0.0931 0.151051,0.12203 0.224887,0.0784 0.2071,0.28916 -0.05035,0.59666 -0.208745,0.24933 -0.246294,0.34699 -0.138464,0.36013 0.03462,0.004 0.0856,0.01 0.11329,0.0139 0.0947,0.0118 0.177896,0.0861 0.1489,0.13295 -0.04341,0.0702 -0.242424,0.0565 -0.353125,-0.0245 -0.126916,-0.0928 -0.223756,-0.0164 -0.223756,0.17646 0,0.0931 -0.03635,0.16256 -0.103912,0.19873 -0.101482,0.0543 -0.0999,0.0606 0.06776,0.2661 0.179509,0.22012 0.269622,0.48743 0.164314,0.48743 -0.0326,0 -0.107128,-0.0852 -0.16562,-0.18922 -0.149464,-0.26593 -0.352007,-0.44847 -0.421033,-0.37944 -0.0389,0.0389 -0.03871,0.0835 6.71e-4,0.15714 0.0796,0.14874 0.07269,0.1563 -0.114811,0.12588 -0.09341,-0.0152 -0.184058,-0.004 -0.201452,0.0236 -0.03474,0.0562 -0.221156,0.0247 -0.32226,-0.0545 -0.104278,-0.0816 -0.125006,-0.008 -0.07011,0.24942 0.05941,0.27857 0.05125,0.30419 -0.06114,0.19181 -0.04745,-0.0475 -0.08152,-0.16417 -0.08152,-0.27933 0,-0.14226 -0.02121,-0.19781 -0.07553,-0.19781 -0.04154,0 -0.07553,0.0293 -0.07553,0.0652 0,0.0358 -0.09063,0.16235 -0.201402,0.28115 -0.204615,0.21943 -0.245733,0.34447 -0.14605,0.44416 0.08534,0.0853 0.004,0.26631 -0.121684,0.27086 -0.06044,0.002 -0.08654,0.0138 -0.05799,0.0257 0.07874,0.0329 1.083283,0.99723 1.082055,1.0387 -0.0022,0.076 -0.189721,-0.0407 -0.518152,-0.32238 -0.331109,-0.28396 -0.6535,-0.46489 -0.763191,-0.42833 -0.02962,0.01 0.04663,0.0841 0.169442,0.16484 0.122807,0.0808 0.326688,0.25086 0.453068,0.37794 0.447605,0.45011 1.2245,1.00643 1.300014,0.93092 0.01658,-0.0165 -0.03453,-0.0976 -0.113571,-0.18014 -0.182004,-0.18998 -0.122772,-0.26552 0.06622,-0.0844 0.173274,0.166 0.244596,0.16798 0.437287,0.0121 0.145295,-0.11754 0.147401,-0.12491 0.05525,-0.19352 -0.10248,-0.0763 -0.07258,-0.18729 0.05047,-0.18729 0.04103,0 0.140304,-0.0486 0.220618,-0.10793 0.128213,-0.0948 0.18627,-0.10382 0.475973,-0.0741 0.251609,0.0257 0.357039,0.0161 0.444045,-0.0409 0.123307,-0.0807 0.20238,-0.0545 0.253676,0.0846 0.02436,0.066 0.08923,0.0881 0.258645,0.0881 0.177254,0 0.294592,-0.0435 0.542849,-0.20092 0.42793,-0.27148 0.643994,-0.25797 0.643994,0.0403 0,0.10882 0.01692,0.11856 0.163639,0.0946 0.500123,-0.0815 0.507045,-0.0866 0.632348,-0.46452 0.06394,-0.19283 0.140912,-0.37325 0.171049,-0.40095 0.0388,-0.0356 0.04373,-0.021 0.01688,0.0504 -0.139316,0.37006 -0.185142,0.53864 -0.154697,0.56908 0.08917,0.0892 0.376459,-0.50085 0.378425,-0.77719 4.57e-4,-0.0647 0.04084,-0.1179 0.101461,-0.13375 0.07687,-0.0201 0.102403,-0.0721 0.107882,-0.21987 0.01148,-0.30937 -0.006,-0.78381 -0.03545,-0.96277 -0.03026,-0.18387 -0.12278,-0.17333 -0.12278,0.014 0,0.066 -0.01835,0.13127 -0.04076,0.14513 -0.05322,0.033 -0.0092,-0.59017 0.0441,-0.62449 0.09784,-0.063 0.139791,-0.32765 0.144166,-0.90976 0.0041,-0.54235 -0.0043,-0.6107 -0.06427,-0.52364 -0.03792,0.0551 -0.08767,0.19078 -0.110556,0.30154 -0.03227,0.15624 -0.04603,0.17534 -0.06138,0.0852 -0.01087,-0.0639 0.0042,-0.18512 0.03355,-0.26928 0.09533,-0.27345 0.121679,-0.77208 0.05542,-1.04831 -0.05112,-0.21309 -0.05048,-0.28497 0.0034,-0.38573 0.05415,-0.10116 0.05521,-0.25923 0.0058,-0.86405 -0.0333,-0.40711 -0.06051,-0.87616 -0.06045,-1.04232 1.57e-4,-0.55524 -0.09493,-0.72763 -0.555459,-1.00701 -0.0913,-0.0554 -0.247091,-0.14985 -0.346213,-0.20993 -0.19056,-0.1155 -0.356447,-0.14848 -0.356447,-0.0709 0,0.0255 0.05947,0.11716 0.132141,0.20354 0.07268,0.0864 0.118971,0.17021 0.102869,0.18631 -0.06029,0.0602 -0.171632,-0.0303 -0.256063,-0.20817 -0.048,-0.10116 -0.125201,-0.19585 -0.171571,-0.21046 -0.04637,-0.0146 -0.166696,-0.0699 -0.267391,-0.12283 -0.100695,-0.0529 -0.272516,-0.0963 -0.381826,-0.0963 -0.109313,0 -0.21557,-0.0169 -0.236138,-0.0374 -0.02056,-0.0205 -0.12797,-0.0602 -0.238671,-0.0881 -0.25373,-0.0639 -0.257123,-0.13897 -0.0088,-0.19437 0.105897,-0.0236 0.24919,-0.0707 0.318422,-0.1046 0.06924,-0.0339 0.203672,-0.0662 0.298756,-0.0719 0.09508,-0.006 0.202077,-0.0344 0.237762,-0.064 0.04739,-0.0394 0.08732,-0.0314 0.148127,0.0294 0.051,0.051 0.144173,0.0773 0.240569,0.068 0.14326,-0.014 0.156215,-0.0297 0.144923,-0.17615 -0.01627,-0.21101 0.06522,-0.41819 0.164488,-0.41819 0.06147,0 0.07271,0.0364 0.05053,0.16365 -0.03886,0.22292 0.01297,0.27983 0.271963,0.29863 0.214364,0.0155 0.221418,0.0215 0.229134,0.19228 0.0043,0.0969 -0.02281,0.23921 -0.06042,0.31618 -0.07931,0.16231 -0.04784,0.24644 0.07581,0.20265 0.182609,-0.0647 0.271589,-0.18501 0.24289,-0.32851 -0.02543,-0.12716 -0.0062,-0.14914 0.221546,-0.2529 0.238604,-0.1087 0.322436,-0.24006 0.201097,-0.31505 -0.08864,-0.0548 -0.05085,-0.24912 0.06452,-0.33185 0.283785,-0.20346 0.552534,-0.13569 0.502378,0.12669 -0.01962,0.1026 0.0014,0.13765 0.107139,0.17783 0.07237,0.0275 0.13157,0.0627 0.13157,0.0781 0,0.0668 -0.358716,0.37926 -0.403604,0.35152 -0.02725,-0.0169 -0.04955,-0.003 -0.04955,0.0308 0,0.0809 -0.286672,0.52553 -0.464099,0.71979 -0.174736,0.19131 -0.175088,0.25198 -0.0024,0.42276 0.121125,0.11983 0.135682,0.16792 0.121223,0.40052 -0.01373,0.22086 -0.0024,0.26433 0.06846,0.26433 0.04669,0 0.09591,-0.0421 0.109391,-0.0937 0.03007,-0.11499 0.396298,-0.32868 0.497039,-0.29002 0.138176,0.053 0.04591,-0.21038 -0.190117,-0.54274 -0.16321,-0.22982 -0.172237,-0.28196 -0.04883,-0.28196 0.04985,0 0.115264,-0.0246 0.145369,-0.0548 0.03942,-0.0394 0.06479,-0.0385 0.09067,0.003 0.02162,0.0349 -0.0062,0.0691 -0.06985,0.0857 -0.135713,0.0355 -0.133906,0.0912 0.0061,0.18929 0.174739,0.12239 0.328301,0.0984 0.412495,-0.0645 0.06198,-0.11987 0.09853,-0.13915 0.22787,-0.12016 0.09313,0.0136 0.154042,4.2e-4 0.154042,-0.0335 0,-0.0308 0.03776,-0.056 0.08391,-0.056 0.04615,0 0.06692,-0.017 0.04615,-0.0377 -0.02076,-0.0207 -0.06257,-0.0378 -0.09289,-0.0378 -0.09402,0 -0.133639,-0.2696 -0.07116,-0.48415 0.07032,-0.24147 0.166373,-0.24178 0.144287,-4.4e-4 -0.0085,0.0935 -0.0022,0.20458 0.01398,0.2469 0.04663,0.12151 0.174258,-0.0794 0.176206,-0.27742 0.0013,-0.1339 0.02551,-0.16868 0.136711,-0.19659 0.07431,-0.0186 0.193262,-0.0642 0.26434,-0.10138 0.07108,-0.0371 0.181739,-0.0676 0.245914,-0.0678 0.09017,-2.8e-4 0.110024,-0.0213 0.08738,-0.0926 -0.02967,-0.0935 0.137644,-0.2098 0.301803,-0.2098 0.14729,0 0.07631,0.17965 -0.09038,0.22875 -0.193616,0.057 -0.235566,0.1901 -0.10531,0.33403 0.09061,0.10016 0.0887,0.10527 -0.09629,0.2606 -0.205019,0.17213 -0.233499,0.23398 -0.107739,0.23398 0.06275,0 0.07334,0.0305 0.04701,0.13535 -0.04705,0.18747 -0.158276,0.25608 -0.480451,0.29643 -0.219354,0.0275 -0.305326,0.0661 -0.413521,0.18604 -0.07513,0.0833 -0.143099,0.16523 -0.151051,0.18217 -0.01657,0.0353 -0.09291,0.0895 -0.724178,0.51418 l -0.457963,0.3081 0.01664,0.58609 c 0.01741,0.61353 0.05542,0.91337 0.11575,0.91337 0.0826,0 0.777109,-0.25497 0.842644,-0.30937 0.03924,-0.0326 0.05976,-0.0894 0.0456,-0.12632 -0.01416,-0.0369 0.02446,-0.11558 0.08582,-0.17482 0.116562,-0.11255 0.983792,-0.54756 1.091624,-0.54756 0.03415,0 0.13896,-0.0365 0.232911,-0.0811 0.142513,-0.0677 0.165814,-0.10105 0.140614,-0.2014 -0.02683,-0.10693 -0.0133,-0.12035 0.12125,-0.12035 0.09818,0 0.24472,-0.0701 0.416597,-0.19922 0.298057,-0.22396 0.445951,-0.21881 0.20422,0.007 -0.08643,0.0807 -0.157146,0.1709 -0.157146,0.20027 0,0.0802 0.349136,10e-4 0.514393,-0.11661 0.11609,-0.0826 0.140165,-0.0865 0.140165,-0.0226 0,0.0425 -0.05098,0.10393 -0.113289,0.13669 -0.06231,0.0327 -0.187715,0.12415 -0.278681,0.20317 -0.09097,0.079 -0.221247,0.14367 -0.289515,0.14367 -0.14238,0 -0.172409,0.13568 -0.04117,0.18604 0.07476,0.0287 0.142488,0.0115 0.433142,-0.10971 0.150914,-0.063 0.09647,0.048 -0.07253,0.14792 -0.202579,0.11966 -0.476181,0.18399 -0.909302,0.21379 -0.211849,0.0145 -0.339867,0.004 -0.339867,-0.0277 0,-0.0282 0.06056,-0.0584 0.134582,-0.0671 0.07402,-0.009 0.144949,-0.0475 0.157622,-0.086 0.01771,-0.0539 -0.01054,-0.0621 -0.121993,-0.0355 -0.07976,0.019 -0.224338,0.0522 -0.321263,0.0738 -0.280528,0.0624 -0.675247,0.27891 -0.729733,0.4002 -0.0275,0.0612 -0.0783,0.10039 -0.112892,0.0872 -0.03459,-0.0133 -0.09602,0.0399 -0.136507,0.11822 -0.05368,0.10382 -0.169689,0.18175 -0.428213,0.28778 -0.490279,0.20107 -0.47754,0.33604 0.03171,0.33604 0.214349,0 0.287149,0.0212 0.342157,0.0997 0.05791,0.0826 0.102803,0.0936 0.262158,0.0639 l 0.192282,-0.0358 -0.106995,0.11773 c -0.158557,0.17448 -0.238998,0.34432 -0.16308,0.34432 0.03341,0 0.104555,-0.0396 0.158109,-0.0881 0.05355,-0.0485 0.162959,-0.0881 0.24313,-0.0881 0.127847,0 0.145766,0.0183 0.145766,0.14853 0,0.11553 -0.01343,0.13511 -0.06042,0.0881 -0.07003,-0.07 -0.140982,-0.0792 -0.140982,-0.0182 0,0.0232 0.124618,0.0845 0.276928,0.13631 0.152312,0.0518 0.276929,0.11325 0.276929,0.13662 0,0.0234 -0.0827,0.0771 -0.18379,0.11928 -0.290688,0.12146 -1.145225,0.0223 -1.515484,-0.17586 -0.217626,-0.11647 -0.284053,0.10926 -0.18805,0.63902 0.01693,0.0934 0.0062,0.19657 -0.02429,0.23328 -0.04031,0.0486 -0.03581,0.0731 0.01722,0.0934 0.09594,0.0368 0.09111,1.53845 -0.0053,1.65456 -0.04135,0.0498 -0.04811,0.12343 -0.02034,0.22169 0.02286,0.0809 0.03288,0.17235 0.02224,0.20319 -0.01343,0.0389 0.06033,0.0354 0.241816,-0.0117 0.143628,-0.0373 0.264631,-0.0738 0.268893,-0.0812 0.134573,-0.23424 0.194442,-0.279 0.488299,-0.36516 0.453833,-0.13304 0.5785,-0.25276 0.424057,-0.40719 -0.06234,-0.0623 -0.08248,-0.0613 -0.151051,0.007 -0.04351,0.0435 -0.07912,0.10871 -0.07912,0.14489 0,0.0362 -0.03726,0.0967 -0.08279,0.13447 -0.07413,0.0616 -0.07872,0.0556 -0.04397,-0.0568 0.03518,-0.11375 0.113946,-0.2693 0.252637,-0.49894 0.0277,-0.0458 0.114222,-0.15052 0.192286,-0.23258 0.07807,-0.0821 0.212067,-0.24535 0.297783,-0.36284 0.08572,-0.1175 0.20675,-0.24698 0.268963,-0.28773 0.06222,-0.0408 0.139099,-0.15285 0.170855,-0.24906 0.04437,-0.13445 0.08913,-0.17858 0.193308,-0.1906 0.116921,-0.0135 0.13772,-0.0416 0.151198,-0.20448 0.0085,-0.10382 0.03692,-0.18881 0.06294,-0.18881 0.02602,0 0.04731,0.0226 0.04731,0.0504 0,0.17188 0.448541,-0.15262 0.577745,-0.41796 0.157086,-0.32261 0.324096,-0.48835 0.492091,-0.48835 0.149201,0 0.152614,0.0179 0.05385,0.28145 -0.0113,0.0302 0.01109,0.0811 0.04975,0.11322 0.05461,0.0454 0.116159,0.0333 0.275725,-0.0541 0.200779,-0.11003 0.340108,-0.0956 0.221639,0.0229 -0.07411,0.0741 -0.07791,0.27392 -0.0061,0.31834 0.02944,0.0182 0.0961,-0.006 0.148139,-0.0526 0.05203,-0.0471 0.123417,-0.076 0.158621,-0.0643 0.04188,0.014 0.01679,0.0623 -0.07261,0.14012 -0.07514,0.0653 -0.136618,0.14939 -0.136618,0.18681 0,0.0374 -0.03444,0.0813 -0.07653,0.0974 -0.04684,0.018 -0.07126,0.0797 -0.06294,0.1593 0.01189,0.11374 -0.02538,0.14909 -0.299168,0.28374 -0.172016,0.0846 -0.313627,0.175 -0.314692,0.20091 -0.0011,0.026 0.04509,0.0972 0.102559,0.15833 0.150479,0.16018 0.03471,0.19809 -0.144477,0.0473 l -0.149217,-0.12556 -0.171281,0.13781 c -0.190082,0.15293 -0.201538,0.30073 -0.02605,0.336 0.06029,0.0121 0.238661,0.0348 0.396397,0.0505 0.25587,0.0254 0.301144,0.0152 0.4199,-0.0948 0.124457,-0.11535 0.735607,-0.43074 0.834654,-0.43074 0.10766,0 0.03007,0.10548 -0.125382,0.17042 -0.09354,0.039 -0.185513,0.0961 -0.204374,0.12655 -0.05826,0.0943 0.144133,0.0628 0.441517,-0.0688 0.224839,-0.0994 0.274891,-0.10837 0.250443,-0.0446 -0.02611,0.0681 0.0017,0.0748 0.19101,0.0459 l 0.221567,-0.0337 -0.125875,0.10238 c -0.06924,0.0564 -0.142871,0.10293 -0.16364,0.10349 -0.02078,5.6e-4 -0.03776,0.0337 -0.03776,0.0737 0,0.0846 0.02701,0.10327 0.213988,0.14801 0.113303,0.0271 0.138465,0.0161 0.138465,-0.0606 0,-0.0657 0.06021,-0.11173 0.201403,-0.15404 0.145934,-0.0437 0.201402,-0.0875 0.201402,-0.15901 0,-0.10316 0.09672,-0.13164 0.178744,-0.0526 0.02631,0.0254 0.102703,0.0537 0.169766,0.0629 0.248762,0.0344 0.159939,0.13507 -0.219754,0.24912 -0.20928,0.0629 -0.380509,0.13218 -0.380509,0.15404 0,0.0219 0.06231,0.0536 0.138464,0.0706 0.340045,0.0756 0.332304,0.0695 0.230924,0.18161 -0.0881,0.0974 -0.08781,0.10316 0.0089,0.17561 0.0671,0.0503 0.172191,0.0672 0.319212,0.0514 0.192532,-0.0206 0.210209,-0.0145 0.145391,0.0502 -0.04059,0.0406 -0.164905,0.086 -0.276272,0.10094 -0.16176,0.0217 -0.223772,0.006 -0.308331,-0.0786 -0.09268,-0.0926 -0.143549,-0.10194 -0.408651,-0.0742 -0.180182,0.0189 -0.302803,0.0122 -0.302803,-0.0163 0,-0.0264 0.116023,-0.0497 0.25783,-0.0518 0.278651,-0.004 0.42405,-0.11026 0.242984,-0.17726 -0.112853,-0.0417 -0.388532,0.002 -0.429307,0.0677 -0.01491,0.0241 -0.09374,0.0438 -0.175179,0.0438 -0.183151,0 -0.184451,0.0236 -0.0097,0.17515 0.182094,0.15775 0.102647,0.2441 -0.229227,0.24913 -0.192335,0.003 -0.282751,-0.0257 -0.425805,-0.13476 -0.0999,-0.0762 -0.228815,-0.13847 -0.286497,-0.13847 -0.07236,0 -0.131471,-0.0586 -0.19068,-0.18881 -0.0472,-0.10382 -0.09042,-0.19654 -0.09607,-0.20598 -0.0057,-0.01 -0.232897,-0.0285 -0.505,-0.0424 -0.272102,-0.0139 -0.516257,-0.0458 -0.542565,-0.071 -0.06269,-0.0599 -0.380147,-0.0592 -0.380147,7.1e-4 0,0.0256 -0.07073,0.11721 -0.157184,0.20366 -0.178917,0.17892 -0.169915,0.22917 0.0276,0.15407 0.07487,-0.0285 0.173691,-0.0518 0.219589,-0.0518 0.116717,0 -0.03379,0.0951 -0.39211,0.24768 -0.152311,0.0649 -0.325674,0.14027 -0.385252,0.16756 -0.05958,0.0273 -0.135312,0.0406 -0.168298,0.0296 -0.03299,-0.0111 -0.138792,0.0544 -0.235128,0.14521 -0.09634,0.0909 -0.217519,0.16519 -0.269299,0.16519 -0.118713,0 -0.184079,0.0992 -0.09974,0.15127 0.04691,0.029 0.03625,0.0539 -0.04059,0.0951 -0.0573,0.0306 -0.140362,0.0558 -0.184568,0.0558 -0.0442,0 -0.149938,0.0792 -0.23496,0.17606 -0.154303,0.17574 -0.260231,0.19202 -0.233891,0.0359 0.02701,-0.15999 -0.139744,-0.10926 -0.363706,0.11059 -0.381809,0.3749 -0.404375,0.40982 -0.45141,0.69881 -0.02507,0.15403 -0.08142,0.34935 -0.125208,0.43404 -0.04379,0.0847 -0.09238,0.26201 -0.107961,0.39402 -0.01558,0.13201 -0.04878,0.28535 -0.07379,0.34074 -0.025,0.0553 -0.06699,0.19133 -0.0933,0.30209 -0.150899,0.63515 -0.226843,0.87402 -0.269496,0.84766 -0.02954,-0.0183 -0.03401,0.0527 -0.01165,0.18503 0.03554,0.21037 0.03377,0.214 -0.08995,0.18295 -0.137038,-0.0344 -0.187061,0.0313 -0.187061,0.24568 0,0.15119 0.04145,0.17503 0.231813,0.13329 0.183257,-0.0402 0.8759,-0.59822 0.8759,-0.70568 0,-0.10682 -0.157673,-0.0964 -0.29542,0.0195 -0.08091,0.0681 -0.183477,0.12378 -0.227942,0.12378 -0.156939,0 -0.07764,-0.14137 0.194575,-0.3469 0.151482,-0.11437 0.298043,-0.25021 0.325693,-0.30187 0.0451,-0.0843 0.02455,-0.0974 -0.199896,-0.12713 -0.31511,-0.0418 -0.328254,-0.14232 -0.03617,-0.27668 0.117695,-0.0541 0.327279,-0.21509 0.465744,-0.35767 0.27285,-0.28094 0.414005,-0.37097 0.667145,-0.42549 0.143454,-0.0309 0.16364,-0.0223 0.16364,0.0694 0,0.0595 -0.0326,0.10471 -0.07553,0.10471 -0.04257,0 -0.07553,0.045 -0.07553,0.10327 0,0.0568 -0.03456,0.17004 -0.07681,0.25175 -0.09586,0.18537 -0.08298,0.18513 0.127169,-0.002 0.213603,-0.19071 0.296691,-0.19071 0.334831,0 0.0263,0.1315 0.168675,0.22332 0.168675,0.10882 0,-0.0233 0.05741,-0.0684 0.127575,-0.10039 0.104821,-0.0478 0.132849,-0.0444 0.157158,0.019 0.01627,0.0424 -0.0099,0.12073 -0.05816,0.17405 -0.111845,0.12359 -0.06412,0.25175 0.09374,0.25175 0.06714,0 0.134145,0.0315 0.148904,0.07 0.01938,0.0505 0.07332,0.0605 0.194201,0.0356 0.154821,-0.0317 0.167368,-0.0489 0.167368,-0.22902 0,-0.18002 0.01709,-0.20346 0.226577,-0.31066 0.124619,-0.0638 0.347001,-0.14339 0.494184,-0.17693 0.233628,-0.0532 0.26426,-0.0743 0.241261,-0.16595 -0.03125,-0.12451 0.01601,-0.20482 0.120516,-0.20482 0.04896,0 0.07112,-0.0409 0.06299,-0.11633 -0.01237,-0.11483 -0.0078,-0.11588 0.352455,-0.0811 0.200743,0.0194 0.372539,0.0548 0.38177,0.0785 0.0092,0.0238 0.0772,0.0436 0.151053,0.0438 0.270098,10e-4 0.511897,0.0634 0.511897,0.13191 0,0.0379 0.02832,0.0692 0.06294,0.0697 0.03462,4.2e-4 0.114411,0.0145 0.177322,0.0314 0.105476,0.0283 0.110501,0.0204 0.06453,-0.1005 -0.04026,-0.10593 -0.03316,-0.14006 0.03697,-0.17758 0.111568,-0.0597 0.967354,-0.008 0.967354,0.0588 0,0.0734 0.161251,0.18381 0.271379,0.18566 0.05233,8.6e-4 0.120502,0.0363 0.151489,0.0786 0.03098,0.0424 0.146772,0.0846 0.257304,0.0938 0.110534,0.009 0.229287,0.0199 0.263902,0.0236 0.03462,0.003 0.06294,0.0388 0.06294,0.078 0,0.0853 -0.303686,0.14574 -0.717861,0.14285 -0.261084,-0.002 -0.29276,0.01 -0.318872,0.11351 -0.02296,0.0915 -0.07575,0.12252 -0.253867,0.14923 -0.123681,0.0185 -0.286737,0.0201 -0.362347,0.003 -0.07562,-0.0166 -0.363384,0.0157 -0.639495,0.072 -0.772191,0.15715 -0.832397,0.16205 -1.171229,0.0952 -0.249106,-0.0491 -0.379508,-0.0496 -0.610584,-0.002 -0.385223,0.0795 -0.851928,0.2343 -1.191192,0.39494 -0.232926,0.11026 -0.273122,0.14967 -0.273122,0.26762 0,0.10338 -0.04842,0.17188 -0.191522,0.27104 -0.105342,0.073 -0.218626,0.13273 -0.251753,0.13273 -0.03313,0 -0.06023,0.0581 -0.06023,0.12918 0,0.0711 -0.02346,0.17302 -0.05212,0.22658 -0.06989,0.13059 0.02832,0.12916 0.22835,-0.003 0.186694,-0.12363 0.226577,-0.12546 0.226577,-0.01 0,0.0497 -0.113289,0.17674 -0.251753,0.28234 -0.138464,0.1056 -0.251753,0.20067 -0.251753,0.21127 0,0.0111 0.173337,0.016 0.385192,0.012 0.321678,-0.007 0.3964,0.008 0.453156,0.0856 0.03738,0.0511 0.06796,0.10815 0.06796,0.12668 0,0.053 -0.417068,0.48029 -0.525846,0.53873 -0.09087,0.0488 -0.09293,0.0676 -0.02886,0.26166 0.06647,0.20141 0.06418,0.2139 -0.06251,0.34058 -0.186824,0.18683 -0.569079,0.21263 -1.038359,0.0701 -0.194337,-0.059 -0.367157,-0.12967 -0.384043,-0.157 -0.08655,-0.14004 -0.688036,0.062 -0.907951,0.30504 -0.04899,0.0541 -0.138699,0.0984 -0.199347,0.0984 -0.06065,0 -0.145515,0.0397 -0.188594,0.0881 -0.08606,0.0968 -0.199028,0.45919 -0.16188,0.5193 0.01286,0.0208 0.137819,0.001 0.277689,-0.0435 0.203201,-0.065 0.273878,-0.0691 0.351679,-0.0205 0.117499,0.0734 0.249788,0.0794 0.249788,0.0114 0,-0.0272 0.05888,-0.0642 0.13083,-0.0822 0.110955,-0.0278 0.126638,-0.0538 0.103235,-0.17081 l -0.0276,-0.13798 0.815663,0.007 c 0.448614,0.003 1.245077,-0.0134 1.769915,-0.0374 l 0.954254,-0.0436 -0.209632,-0.19553 c -0.115297,-0.10759 -0.182186,-0.19527 -0.148642,-0.19492 0.03354,2.9e-4 0.161186,0.0936 0.28365,0.20739 0.213947,0.19867 0.232516,0.20559 0.474474,0.17694 0.378552,-0.0448 0.389539,-0.11553 0.02416,-0.15544 -0.489299,-0.0535 -0.728955,-0.3267 -0.358408,-0.40867 0.159944,-0.0354 0.87229,-0.32488 0.94158,-0.38267 0.027,-0.0225 0.02409,-0.0648 -0.0071,-0.10316 -0.06108,-0.0752 -0.02323,-0.59376 0.04335,-0.59376 0.02417,0 0.04395,0.0445 0.04395,0.099 0,0.13643 0.148284,0.20317 0.451425,0.20317 0.198471,0 0.264012,-0.02 0.289154,-0.0881 0.01788,-0.0485 0.05618,-0.10393 0.08512,-0.12317 0.03129,-0.0208 0.01238,-0.0482 -0.04668,-0.0677 -0.05461,-0.018 -0.161223,-0.0557 -0.236917,-0.084 -0.07569,-0.0283 -0.214676,-0.0369 -0.30885,-0.0193 -0.133805,0.0251 -0.178364,0.0135 -0.203892,-0.053 -0.04113,-0.10715 -0.0087,-0.13536 0.279178,-0.24239 0.130164,-0.0484 0.281306,-0.15195 0.342413,-0.2346 0.08783,-0.11879 0.142728,-0.14573 0.278478,-0.13657 0.093,0.007 0.204832,-0.0183 0.248526,-0.0546 0.0654,-0.0542 0.13776,-0.0543 0.4092,-4.2e-4 0.397503,0.079 0.468829,0.14472 0.38839,0.35782 -0.051,0.13513 -0.04639,0.15526 0.04084,0.17807 0.132096,0.0345 0.124064,0.13747 -0.01954,0.25044 -0.166837,0.13123 -0.290147,0.36774 -0.191733,0.36774 0.0598,0 0.637273,-0.44336 0.935041,-0.71789 0.231169,-0.21313 0.250281,-0.24953 0.284819,-0.54243 0.0371,-0.31463 0.155792,-0.50113 0.188736,-0.29655 0.02206,0.13699 0.233387,0.21109 0.524824,0.18404 0.187901,-0.0174 0.239165,-0.007 0.239165,0.0526 0,0.0617 -0.06638,0.0705 -0.377629,0.0506 -0.368051,-0.0236 -0.377629,-0.0213 -0.377629,0.0922 0,0.34832 -0.321833,0.88395 -0.889056,1.47968 -0.21433,0.2251 -0.22138,0.31065 -0.01657,0.20104 0.05883,-0.0315 0.232515,-0.17095 0.385959,-0.30991 0.18399,-0.16663 0.295948,-0.23569 0.328801,-0.20284 0.08031,0.0803 -9.99e-4,0.24393 -0.24024,0.48311 -0.122901,0.1229 -0.223454,0.23554 -0.223454,0.25032 0,0.0774 0.365177,0.0809 0.623296,0.006 0.158618,-0.0461 0.322606,-0.0707 0.36442,-0.0547 0.101793,0.039 0.371751,-0.10471 0.371751,-0.19799 0,-0.0869 0.07965,-0.0986 0.128842,-0.0191 0.06248,0.10105 -0.08036,0.27275 -0.319054,0.38344 -0.195083,0.0904 -0.219543,0.11576 -0.141014,0.14589 0.06282,0.0241 0.178572,-0.01 0.341619,-0.10215 0.135636,-0.0762 0.277006,-0.12697 0.314157,-0.11271 0.06647,0.0255 0.41429,-0.0417 0.909039,-0.1756 0.197228,-0.0534 0.255238,-0.0927 0.267843,-0.18143 0.0204,-0.14364 -0.07688,-0.14708 -0.355258,-0.0125 -0.246866,0.11927 -0.290214,0.12385 -0.290214,0.0307 0,-0.10038 0.434747,-0.29088 0.622179,-0.27266 0.144367,0.014 0.158255,0.0308 0.158255,0.1916 0,0.097 0.0199,0.20708 0.04421,0.2448 0.04998,0.0775 -0.04122,0.156 -0.182679,0.15723 -0.132248,10e-4 -0.105998,0.0861 0.03777,0.12215 0.218938,0.0549 0.147862,0.16484 -0.130504,0.20176 -0.141009,0.0188 -0.339265,0.0861 -0.440569,0.14968 -0.101305,0.0637 -0.2464,0.15366 -0.32244,0.20008 -0.121502,0.0742 -0.130653,0.0967 -0.07553,0.18562 0.09413,0.1519 -0.0197,0.19717 -0.497927,0.19807 -0.379726,7.1e-4 -0.415507,-0.008 -0.49057,-0.1228 -0.07966,-0.12158 -0.08482,-0.12238 -0.320483,-0.0498 -0.465666,0.14344 -0.466091,0.14346 -0.466091,0.0277 0,-0.0814 0.03127,-0.10616 0.134268,-0.10616 0.07385,0 0.117017,-0.017 0.09594,-0.0378 -0.02109,-0.0207 -0.121155,-0.0377 -0.22238,-0.0377 -0.149452,0 -0.186925,-0.0202 -0.19935,-0.10726 -0.01425,-0.0999 -0.03826,-0.10571 -0.352453,-0.0843 -0.185435,0.0127 -0.398095,0.0462 -0.472579,0.0743 -0.07448,0.0283 -0.157885,0.0375 -0.185335,0.0205 -0.02745,-0.017 -0.06415,-0.008 -0.08154,0.0203 -0.01739,0.0282 -0.0777,0.0511 -0.134002,0.0511 -0.0563,0 -0.160841,0.046 -0.232298,0.10216 -0.09963,0.0783 -0.139111,0.0873 -0.169326,0.0384 -0.02535,-0.041 -0.188389,-0.069 -0.457052,-0.0784 -0.229706,-0.008 -0.462964,-0.0197 -0.51835,-0.0258 -0.175004,-0.0194 -0.111663,0.13066 0.07553,0.17893 0.09692,0.0249 0.194346,0.0774 0.216492,0.11649 0.04528,0.0799 0.710213,0.0969 1.06875,0.0273 0.236093,-0.0458 0.325978,-0.026 0.325978,0.0721 0,0.0762 -0.116621,0.11341 -0.421537,0.1344 l -0.194958,0.0134 0.09985,0.12272 c 0.06894,0.0847 0.221513,0.1555 0.492828,0.22857 0.342472,0.0922 0.550316,0.22191 0.47519,0.29648 -0.01286,0.0128 -0.125355,7.1e-4 -0.249972,-0.0268 -0.124618,-0.0275 -0.313898,-0.0621 -0.420622,-0.077 -0.17825,-0.0246 -0.191362,-0.0184 -0.161079,0.077 0.06153,0.19387 -0.16149,0.24786 -1.159514,0.28071 -0.880187,0.029 -1.42791,-0.0155 -1.563421,-0.12716 -0.03136,-0.0258 -0.05827,-0.13702 -0.05979,-0.2471 -0.0023,-0.16918 0.01322,-0.20015 0.100573,-0.20015 0.09978,0 0.100373,-0.004 0.01734,-0.13127 -0.06002,-0.0916 -0.07005,-0.14721 -0.03318,-0.18407 0.03687,-0.0368 0.114381,0.003 0.256585,0.13125 0.228564,0.2065 0.476284,0.25119 0.517554,0.0934 0.01836,-0.0702 -0.02302,-0.10527 -0.182941,-0.15501 -0.113668,-0.0354 -0.240655,-0.0942 -0.282195,-0.13058 -0.07714,-0.0677 -0.995173,-0.16768 -1.61122,-0.17544 -0.414322,-0.006 -0.649767,-0.045 -0.791251,-0.13364 -0.129556,-0.0812 -0.316463,-0.0927 -0.316463,-0.0195 0,0.0277 -0.09858,0.0504 -0.219064,0.0504 -0.25121,0 -0.502978,0.0754 -0.693257,0.20786 -0.07254,0.0505 -0.193027,0.11498 -0.26775,0.1434 -0.121179,0.046 -0.132611,0.0414 -0.105776,-0.0432 0.01899,-0.0599 0.0017,-0.10571 -0.04694,-0.12434 -0.04658,-0.0179 -0.07702,-10e-4 -0.07702,0.041 0,0.0388 -0.09418,0.13442 -0.209297,0.21241 -0.218482,0.14802 -0.337492,0.29152 -0.28516,0.34385 0.03715,0.0372 0.625615,0.13456 0.783972,0.12978 0.130188,-0.004 0.15021,0.10349 0.03683,0.19763 -0.07376,0.0612 -0.308967,0.0512 -0.766905,-0.0326 -0.155994,-0.0285 -0.16364,-0.0226 -0.16364,0.12681 0,0.0884 -0.02637,0.15677 -0.06042,0.15677 -0.04675,0 -0.04684,0.0135 -4.57e-4,0.06 0.04641,0.0464 0.119,0.0448 0.32079,-0.007 0.296538,-0.076 1.099537,-0.11851 1.099537,-0.0582 0,0.0634 -0.177251,0.2065 -0.255718,0.20635 -0.03936,-10e-5 -0.169495,0.0509 -0.289191,0.11328 -0.211693,0.11037 -0.216793,0.1188 -0.186975,0.31003 0.04132,0.26497 0.05658,0.28174 0.256524,0.28174 0.120438,0 0.173256,0.0231 0.173256,0.0755 0,0.0416 -0.02266,0.0755 -0.05035,0.0755 -0.0277,0 -0.05035,0.0573 -0.05035,0.12746 0,0.15011 -0.119702,0.21299 -0.230454,0.12108 -0.06681,-0.0555 -0.115918,-0.0221 -0.339226,0.23062 -0.143609,0.1625 -0.406456,0.44404 -0.584107,0.62564 l -0.323,0.3302 -0.0019,0.83078 c -0.0013,0.55442 0.01816,0.86722 0.05842,0.94033 0.05697,0.10349 0.06883,0.10527 0.212315,0.0337 0.177355,-0.0885 0.397277,-0.29733 0.679275,-0.64507 0.280653,-0.34608 0.668307,-0.78307 0.830396,-0.93608 0.07502,-0.0708 0.176822,-0.19045 0.226231,-0.26586 0.0494,-0.0754 0.200974,-0.18491 0.336811,-0.24335 0.272839,-0.11738 0.360476,-0.22564 0.287786,-0.35553 -0.04073,-0.0728 -0.005,-0.0933 0.256022,-0.14723 0.299113,-0.0618 0.303357,-0.065 0.303357,-0.23378 0,-0.21268 0.202114,-0.41739 0.500303,-0.50673 0.183073,-0.0549 0.205972,-0.0783 0.193535,-0.1982 -0.01379,-0.13292 -0.0087,-0.13561 0.228788,-0.11888 0.190791,0.0134 0.257423,-0.002 0.310633,-0.0755 0.0511,-0.0699 0.133636,-0.0926 0.336139,-0.0926 0.266919,0 0.646029,0.13435 0.646029,0.22893 0,0.0643 -0.042,0.061 -0.331865,-0.0269 -0.263709,-0.08 -0.485968,-0.0974 -0.54099,-0.0424 -0.05048,0.0505 0.120107,0.21807 0.221982,0.21807 0.148824,0 0.243104,0.055 0.215863,0.12604 -0.01618,0.0421 0.01794,0.0735 0.09129,0.084 0.16087,0.0229 0.131884,0.10793 -0.0553,0.16235 -0.08517,0.0247 -0.154845,0.074 -0.154845,0.10936 0,0.0354 -0.08497,0.0914 -0.188814,0.12458 -0.103846,0.0332 -0.302104,0.12263 -0.440568,0.19887 -0.138464,0.0762 -0.359056,0.17847 -0.490205,0.22716 -0.340925,0.12658 -0.378858,0.19234 -0.188961,0.32755 0.12824,0.0913 0.195396,0.10505 0.379716,0.0773 0.177257,-0.0266 0.223924,-0.0184 0.223924,0.0393 0,0.11686 -0.292346,0.27133 -0.730084,0.38577 -0.08308,0.0217 -0.190703,0.0558 -0.239166,0.0759 -0.06003,0.0247 -0.08812,0.0132 -0.08812,-0.0364 0,-0.0431 0.112501,-0.11097 0.276927,-0.16686 0.152312,-0.0518 0.27693,-0.12236 0.27693,-0.15686 0,-0.0897 -0.340067,-0.17134 -0.56453,-0.13545 -0.104899,0.0168 -0.19073,0.0476 -0.19073,0.0686 0,0.021 -0.127748,0.09 -0.283882,0.15328 -0.288878,0.11725 -0.701419,0.49387 -1.302163,1.18878 -0.233305,0.26987 -0.368934,0.42004 -0.923429,1.02238 -0.200044,0.21731 -0.209789,0.22168 -0.280489,0.12587 -0.136435,-0.18487 -0.197277,-0.0205 -0.209721,0.56658 -0.01413,0.66689 -0.04661,0.80883 -0.189728,0.82922 -0.09272,0.0132 -0.108548,0.0484 -0.108548,0.24115 0,0.17481 -0.01985,0.22954 -0.08812,0.24285 -0.04846,0.01 -0.09062,-0.0128 -0.0937,-0.0495 z m -0.231008,-1.33959 c -0.04694,-0.13189 -0.12248,-0.21424 -0.169717,-0.18504 -0.04543,0.0281 -0.01158,0.1595 0.06737,0.26162 0.06605,0.0854 0.140247,0.0299 0.102336,-0.0765 z m 0.284066,-0.27532 c 0.043,-0.37958 -0.03646,-1.00355 -0.141133,-1.10823 -0.09737,-0.0974 -0.196823,0.0403 -0.119069,0.16472 0.07983,0.12783 0.07775,0.15048 -0.01385,0.15048 -0.09021,0 -0.08967,-0.006 -0.02024,0.19389 0.0304,0.0872 0.07308,0.15856 0.09483,0.15856 0.02175,0 0.05096,0.0397 0.06489,0.0881 0.01393,0.0485 0.04304,0.13135 0.06467,0.1842 0.03515,0.0859 0.02236,0.0927 -0.120164,0.0642 -0.186616,-0.0373 -0.204012,0.0208 -0.0493,0.16502 0.154842,0.14425 0.217947,0.12818 0.239381,-0.061 z m -0.65168,-0.76307 c 0,-0.20203 -0.564209,-0.73808 -1.00399,-0.95386 -0.396082,-0.19435 -0.677229,-0.24326 -0.625648,-0.10882 0.01583,0.0413 0.116244,0.0985 0.223154,0.12732 0.106907,0.0287 0.226022,0.0975 0.264694,0.15273 0.04173,0.0596 0.101982,0.0882 0.148211,0.0704 0.08143,-0.0313 0.470306,0.18315 0.577102,0.31817 0.03402,0.043 0.0493,0.12821 0.03397,0.1893 -0.02032,0.081 0.0091,0.14023 0.108582,0.21844 0.179523,0.14121 0.27393,0.13648 0.27393,-0.0138 z m -1.409817,-0.32355 c 0,-0.0695 -0.23945,-0.17506 -0.323883,-0.14266 -0.10522,0.0404 -0.100262,0.12119 0.0092,0.14979 0.152968,0.0399 0.314691,0.0363 0.314691,-0.007 z m 0.230935,-0.15501 c -0.0772,-0.0805 -0.185482,-0.15831 -0.240632,-0.17273 -0.09661,-0.0253 -0.097,-0.0226 -0.01076,0.0728 0.07469,0.0825 0.287146,0.22113 0.369706,0.24116 0.0121,0.003 -0.04115,-0.0606 -0.118352,-0.14116 z m -3.705129,-0.0468 c 0,-0.0755 -0.222819,-0.14055 -0.377629,-0.11015 -0.142426,0.028 -0.145301,0.0332 -0.05035,0.0895 0.115662,0.0687 0.427981,0.0837 0.427981,0.0206 z m 2.014025,-0.13396 c -0.03448,-0.0416 -0.09319,-0.0755 -0.130461,-0.0755 -0.03957,0 -0.05572,0.0314 -0.0388,0.0755 0.01594,0.0415 0.07465,0.0755 0.13046,0.0755 0.0845,0 0.09099,-0.0126 0.0388,-0.0755 z m -2.629905,-0.18607 c -0.02395,-0.0719 -0.286028,-0.14987 -0.356683,-0.10616 -0.0283,0.0175 -0.0098,0.0599 0.04307,0.0986 0.115959,0.0848 0.341155,0.0903 0.31361,0.008 z m 5.971268,-0.26705 c -0.03451,-0.09 -0.03724,-0.0898 -0.07384,0.003 -0.02091,0.0534 -0.0396,0.1302 -0.04155,0.17075 -0.003,0.063 0.0078,0.0625 0.07384,-0.003 0.04802,-0.048 0.06378,-0.11281 0.04155,-0.17075 z m 0.585986,-0.32732 c 0,-0.0277 -0.01,-0.0504 -0.02221,-0.0504 -0.01221,0 -0.03621,0.0226 -0.05332,0.0504 -0.01711,0.0277 -0.0071,0.0504 0.02221,0.0504 0.02933,0 0.05332,-0.0226 0.05332,-0.0504 z m 2.064375,-0.0504 c 0,-0.0277 0.03399,-0.0504 0.07553,-0.0504 0.04154,0 0.07553,-0.0275 0.07553,-0.061 0,-0.0336 0.06231,-0.11119 0.138464,-0.17248 0.09887,-0.0795 0.123082,-0.12714 0.08469,-0.16643 -0.05019,-0.0514 -0.114562,0.0128 -0.439155,0.43772 -0.03172,0.0415 -0.02885,0.0629 0.0084,0.0629 0.03108,0 0.05652,-0.0226 0.05652,-0.0504 z m -6.908105,-0.16112 c 0.123018,-0.12301 0.100983,-0.13201 -0.543787,-0.22188 -0.205522,-0.0286 -0.219548,-0.0242 -0.150935,0.0481 0.07854,0.0828 0.420156,0.22442 0.556258,0.23061 0.04293,0.002 0.105232,-0.0236 0.138464,-0.0569 z m 4.235983,-0.13137 c -0.0031,-0.12098 -0.0082,-0.12471 -0.04681,-0.0348 -0.06011,0.13989 -0.06011,0.23855 0,0.2014 0.0277,-0.0171 0.04876,-0.0921 0.04681,-0.16661 z m -2.765745,-0.2927 c 0,-0.0796 -0.04538,-0.087 -0.145801,-0.0233 -0.04113,0.0261 -0.05655,0.0803 -0.03717,0.13078 0.02692,0.0701 0.04712,0.0747 0.108038,0.0241 0.04121,-0.0342 0.07493,-0.0934 0.07493,-0.13155 z m 6.39453,-0.0426 c 0,-0.045 -0.02952,-0.0626 -0.07553,-0.0449 -0.04154,0.016 -0.07553,0.0493 -0.07553,0.074 0,0.0247 0.03399,0.0449 0.07553,0.0449 0.04154,0 0.07553,-0.0333 0.07553,-0.074 z m -2.25955,-0.7613 c 0.171906,-0.1005 0.295875,-0.23677 0.295875,-0.32523 0,-0.12126 -0.107661,-0.15066 -0.254289,-0.0694 -0.06784,0.0376 -0.196979,0.0691 -0.28698,0.0701 l -0.16364,0.002 v 0.27821 0.27823 l 0.157627,-0.0894 c 0.0867,-0.0491 0.199829,-0.11407 0.251407,-0.14422 z m 3.820419,-0.27558 c 0.489627,-0.0811 0.55404,-0.1425 0.129631,-0.12354 -0.280688,0.0125 -0.324897,0.003 -0.276101,-0.0551 0.04637,-0.0559 0.03746,-0.07 -0.04406,-0.07 -0.07624,0 -0.09568,0.0247 -0.07666,0.0975 0.02073,0.0793 -0.0084,0.10382 -0.155765,0.13148 -0.09969,0.0188 -0.181257,0.0566 -0.181257,0.0842 0,0.0276 0.05098,0.0385 0.113289,0.0241 0.0623,-0.0143 0.283223,-0.0542 0.490919,-0.0886 z m -3.876998,-0.24972 c 0,-0.0863 -0.245918,-0.17594 -0.309153,-0.11271 -0.03007,0.0301 -0.03944,0.0793 -0.02084,0.10937 0.04287,0.0693 0.329991,0.0722 0.329991,0.003 z m 0.229289,-0.29664 c -0.04305,-0.0697 -0.27964,-0.072 -0.27964,-0.002 0,0.0704 0.215817,0.149 0.270025,0.0982 0.02389,-0.0224 0.02822,-0.0653 0.0096,-0.0954 z m -1.59679,-0.17473 c 0.0151,-0.0795 -0.0033,-0.0895 -0.113963,-0.0617 -0.09416,0.0236 -0.140406,0.0111 -0.161424,-0.0436 -0.01621,-0.0423 -0.08163,-0.0768 -0.145403,-0.0768 h -0.115946 l 0.133921,0.15301 c 0.152831,0.17461 0.37218,0.19046 0.402815,0.0291 z m -6.497267,-0.29288 c 0.09152,-0.0915 0.07285,-0.14105 -0.05286,-0.14029 -0.274468,0.002 -0.446511,0.11511 -0.251753,0.166 0.161464,0.0421 0.24365,0.0353 0.30462,-0.0257 z m 5.518277,-0.0487 c -0.01426,-0.0231 -0.05992,-0.0419 -0.10146,-0.0419 -0.04154,0 -0.06386,0.0189 -0.04959,0.0419 0.01426,0.0231 0.05992,0.0419 0.101461,0.0419 0.04154,0 0.06386,-0.0189 0.04959,-0.0419 z m -1.278754,-0.0561 c 0,-0.0355 -0.0623,-0.0695 -0.138465,-0.0758 -0.07616,-0.007 -0.271738,-0.0353 -0.434629,-0.0648 -0.375769,-0.0679 -0.487446,0.009 -0.173983,0.11993 0.277547,0.0982 0.747077,0.11109 0.747077,0.0206 z m -3.121738,-0.0751 c 0,-0.0455 -0.02974,-0.0611 -0.07964,-0.0419 -0.0438,0.0169 -0.09046,0.0305 -0.103668,0.0305 -0.01321,0 -0.01236,0.0189 0.0019,0.0419 0.04334,0.0701 0.181414,0.0468 0.181414,-0.0306 z m 5.572135,-0.13505 c 0,-0.0404 -0.01888,-0.0617 -0.04196,-0.0474 -0.02307,0.0143 -0.04196,0.0472 -0.04196,0.0733 0,0.0261 0.01888,0.0474 0.04196,0.0474 0.02308,0 0.04196,-0.0329 0.04196,-0.0733 z m -5.066043,-0.20674 c 0.05787,-0.0698 0.03762,-0.0769 -0.178714,-0.0629 -0.138228,0.009 -0.252962,0.043 -0.264701,0.0786 -0.03147,0.0956 0.362647,0.0816 0.443415,-0.0158 z m 11.326304,0.0294 c 0,-0.0739 -0.235235,-0.2133 -0.327463,-0.19414 -0.119843,0.0248 -0.105299,0.10914 0.03101,0.17966 0.144734,0.0749 0.296453,0.0823 0.296453,0.0145 z m 1.61122,-0.0965 c 0,-0.0247 -0.03584,-0.0587 -0.07964,-0.0755 -0.112536,-0.0431 -0.121758,-0.0398 -0.121758,0.0449 0,0.0419 0.04476,0.0755 0.100706,0.0755 0.05538,0 0.100706,-0.0202 0.100706,-0.0449 z m -13.594669,-0.0809 0.176228,-0.0679 -0.151052,-10e-4 c -0.08308,-8.6e-4 -0.219025,0.0296 -0.302104,0.0677 -0.146556,0.0671 -0.147305,0.0692 -0.02518,0.0694 0.06924,1.5e-4 0.205179,-0.0303 0.302104,-0.0677 z m 4.650251,-0.12793 c -0.0563,-0.0561 -0.619193,-0.14425 -0.645882,-0.10105 -0.02388,0.0386 0.254104,0.18918 0.401311,0.21732 0.127218,0.0243 0.302132,-0.0588 0.244571,-0.11625 z m 1.442175,-0.12383 c 0.05134,-0.0619 0.0479,-0.0755 -0.01901,-0.0755 -0.04492,0 -0.08169,0.0339 -0.08169,0.0755 0,0.0416 0.0085,0.0755 0.01901,0.0755 0.01043,0 0.04722,-0.034 0.08169,-0.0755 z m 6.860479,-0.0582 c 0.105797,-0.0654 -0.142048,-0.13178 -0.459329,-0.12305 -0.368819,0.01 -0.384775,0.0165 -0.338967,0.13592 0.02803,0.0731 0.08214,0.0802 0.390178,0.0516 0.196697,-0.0183 0.38035,-0.0473 0.408118,-0.0645 z m -6.759778,-0.24154 c 0,-0.003 0.06558,-0.19784 0.14572,-0.43218 0.175166,-0.51218 0.279837,-0.94879 0.237584,-0.99105 -0.04011,-0.0401 -0.03464,-0.05 -0.2148,0.38875 -0.15126,0.36836 -0.319556,0.88999 -0.319556,0.99046 0,0.0275 0.03399,0.0501 0.07553,0.0501 0.04154,0 0.07553,-0.002 0.07553,-0.006 z m 6.470055,-0.0779 c 0.08042,-0.0345 0.06207,-0.044 -0.09109,-0.0468 -0.115799,-0.002 -0.179457,0.0164 -0.160668,0.0468 0.03675,0.0595 0.113365,0.0595 0.251753,0 z m -6.71606,-0.2918 c -0.03086,-0.01 -0.05609,-0.0503 -0.05609,-0.0887 0,-0.0385 -0.07364,-0.10781 -0.16364,-0.15395 -0.09,-0.0461 -0.228793,-0.13828 -0.308426,-0.20476 -0.07963,-0.0664 -0.156697,-0.10892 -0.171255,-0.0944 -0.0348,0.0348 0.429114,0.53395 0.591967,0.63693 0.114243,0.0722 0.128706,0.0724 0.145214,0.002 0.01009,-0.043 -0.0069,-0.0867 -0.03776,-0.0971 z m 5.935626,0.0149 c 0,-0.0416 -0.01699,-0.0765 -0.03776,-0.0776 -0.677319,-0.0385 -1.019472,-0.0388 -1.042861,-10e-4 -0.03169,0.0512 0.231193,0.0962 0.702995,0.1199 0.166157,0.009 0.319096,0.0195 0.339866,0.0247 0.02076,0.006 0.03776,-0.0245 0.03776,-0.066 z m 0.600012,0.008 c -0.01154,-0.01 -0.09715,-0.0435 -0.190236,-0.0749 -0.14791,-0.0499 -0.16142,-0.0477 -0.107128,0.0177 0.03418,0.0412 0.119779,0.0749 0.190235,0.0749 0.07046,0 0.118662,-0.008 0.107129,-0.0177 z m -5.655204,-0.31022 c 0.09021,-0.13768 0.174388,-0.45769 0.131634,-0.50045 -0.04089,-0.0409 -0.212206,0.12749 -0.212206,0.20856 0,0.0383 -0.03162,0.11968 -0.07028,0.18102 -0.03866,0.0613 -0.08612,0.16444 -0.105465,0.22912 -0.03201,0.10704 -0.02567,0.11252 0.07028,0.0611 0.05801,-0.031 0.141724,-0.11177 0.186039,-0.17941 z m 10.306856,0.0636 c 0.116259,-0.0623 0.220819,-0.11896 0.232358,-0.12588 0.01154,-0.007 0.0079,-0.0257 -0.0082,-0.0417 -0.05084,-0.0508 -0.591848,0.1453 -0.591848,0.21457 0,0.0976 0.128687,0.0811 0.367653,-0.0469 z m -3.256408,-0.11476 c -0.0213,-0.0555 0.01283,-0.0854 0.122277,-0.10737 0.0835,-0.0168 0.173122,-0.0702 0.199157,-0.11881 0.03836,-0.0717 0.0184,-0.10049 -0.105154,-0.15162 -0.219205,-0.0908 -0.59776,-0.1006 -0.56478,-0.0147 0.01408,0.0367 0.0021,0.0667 -0.02664,0.0667 -0.02873,0 -0.05948,0.051 -0.06833,0.11329 -0.01109,0.0777 -0.0556,0.11802 -0.141967,0.12835 -0.403356,0.0482 -0.204629,0.1446 0.320079,0.15521 0.24539,0.004 0.289942,-0.007 0.26536,-0.071 z m -7.816491,-0.14461 c 0.139559,-0.2941 0.102526,-0.32176 -0.334129,-0.24958 -0.23225,0.0384 -0.239476,0.12186 -0.02518,0.29075 0.214492,0.16904 0.262143,0.16358 0.359304,-0.0412 z m 10.025512,-0.0302 c 0,-0.0582 -0.07794,-0.079 -0.339868,-0.0904 -0.354818,-0.0155 -0.443415,0.0433 -0.201402,0.13378 0.204929,0.0767 0.54127,0.0497 0.54127,-0.0434 z m -1.56087,0 c 0.01712,-0.0277 -0.0042,-0.0504 -0.04737,-0.0504 -0.04317,0 -0.0785,0.0226 -0.0785,0.0504 0,0.0277 0.02132,0.0504 0.04738,0.0504 0.02606,0 0.06138,-0.0226 0.0785,-0.0504 z m 2.390197,-0.0484 c 0.04074,-0.0257 0.05944,-0.0615 0.04156,-0.0793 -0.04853,-0.0485 -0.247589,0.0268 -0.214088,0.081 0.03611,0.0585 0.07817,0.058 0.17253,-10e-4 z m -12.392309,-0.0572 c 0.08721,-0.0304 0.158565,-0.0765 0.158565,-0.10249 0,-0.0274 -0.04127,-0.0251 -0.09867,0.006 -0.05426,0.0291 -0.12507,0.0468 -0.157346,0.0396 -0.03228,-0.008 -0.06907,0.0151 -0.08176,0.0497 -0.02813,0.0766 -0.01989,0.0771 0.179204,0.008 z m 8.333574,-0.0203 c 0.03198,-0.0833 -0.07488,-0.0958 -0.244786,-0.0286 -0.05538,0.022 -0.129023,0.0293 -0.163638,0.0163 -0.107262,-0.0403 -0.06937,-0.16392 0.06596,-0.21537 0.231464,-0.088 0.08369,-0.1478 -0.175231,-0.0709 -0.364335,0.10815 -0.623585,0.22454 -0.585411,0.2627 0.04086,0.0408 0.461097,0.0946 0.815163,0.10438 0.188531,0.006 0.266837,-0.0134 0.287936,-0.0684 z m 2.219118,0.0264 c 0.139055,-0.0529 0.1757,-0.1523 0.05613,-0.1523 -0.04017,0 -0.09309,-0.0358 -0.117601,-0.0796 -0.04032,-0.0721 -0.06219,-0.0723 -0.229081,-0.002 -0.207976,0.0869 -0.222073,0.11813 -0.09639,0.21353 0.10623,0.0807 0.214577,0.0865 0.386939,0.021 z m -5.35951,-0.11654 c 0.243003,-0.12295 0.16311,-0.35989 -0.166833,-0.49478 -0.08801,-0.0359 -0.188351,-0.0931 -0.223002,-0.12694 -0.08061,-0.0788 -0.260771,-0.0277 -0.591556,0.16751 -0.283067,0.16706 -0.333457,0.31753 -0.125877,0.37589 0.532392,0.14969 0.912994,0.17661 1.107268,0.0783 z m 7.955844,-0.0111 c 0.05344,-0.0643 0.0395,-0.0755 -0.09454,-0.0755 -0.149801,0 -0.196636,0.0445 -0.123649,0.11749 0.05617,0.0561 0.152052,0.0377 0.218185,-0.0419 z M 50.39766,288.73786 c 0.103901,-0.10393 0.09983,-0.158 -0.01655,-0.22028 -0.10338,-0.0554 -0.156085,0.0132 -0.156085,0.20282 0,0.11718 0.06622,0.12388 0.172631,0.0174 z m 7.243791,-0.21038 c 0.345459,-0.36551 0.79073,-0.90575 0.79073,-0.95937 0,-0.0264 0.03399,-0.0761 0.07553,-0.11059 0.04154,-0.0345 0.07553,-0.099 0.07553,-0.14343 0,-0.051 -0.09727,0.0158 -0.264341,0.18166 -0.341024,0.33854 -0.459817,0.43783 -0.775755,0.64831 -0.289367,0.1928 -0.41836,0.32048 -0.323764,0.32048 0.04385,0 0.04408,0.0265 0.001,0.10715 -0.04471,0.0835 -0.04233,0.1166 0.01087,0.15028 0.121239,0.0769 0.180407,0.0488 0.410296,-0.19445 z m -7.502534,0.0377 c 0.02187,-0.0836 0.0016,-0.10072 -0.120005,-0.10072 -0.156501,0 -0.183157,0.0437 -0.08592,0.14098 0.09007,0.0901 0.176244,0.0732 0.205921,-0.0403 z m -1.021601,0.0311 c 0,-0.0111 -0.04531,-0.0312 -0.100706,-0.0456 -0.05538,-0.0145 -0.100706,-0.006 -0.100706,0.0193 0,0.0251 0.04531,0.0457 0.100706,0.0457 0.05538,0 0.100706,-0.009 0.100706,-0.0193 z m -3.452699,-0.13701 c -0.05336,-0.0209 -0.153665,-0.0386 -0.222897,-0.0393 -0.120953,-10e-4 -0.119968,0.001 0.02518,0.0643 0.08308,0.036 0.183382,0.0538 0.222896,0.0393 0.05495,-0.0202 0.04904,-0.0353 -0.02518,-0.0643 z m -2.367985,-0.0535 c -0.01426,-0.0231 -0.04725,-0.0419 -0.07331,-0.0419 -0.02605,0 -0.04737,0.0189 -0.04737,0.0419 0,0.0231 0.03299,0.0419 0.07331,0.0419 0.04032,0 0.06164,-0.0189 0.04737,-0.0419 z m 1.060309,-0.0384 c 0.0335,-0.0542 -0.165563,-0.12953 -0.214085,-0.081 -0.01788,0.0179 8.27e-4,0.0536 0.04156,0.0793 0.09436,0.0597 0.13642,0.0601 0.172528,10e-4 z m -0.687144,-0.0578 c -0.0099,-0.0297 -0.03957,-0.0541 -0.06588,-0.0541 -0.02631,0 -0.05595,0.0244 -0.06588,0.0541 -0.0099,0.0297 0.01972,0.0541 0.06588,0.0541 0.04615,0 0.0758,-0.0244 0.06588,-0.0541 z m 7.046151,-0.0785 c 0.198604,-0.0532 0.121905,-0.11932 -0.138464,-0.11932 -0.190214,0 -0.251753,0.0184 -0.251753,0.0755 0,0.0796 0.180594,0.0999 0.390217,0.0438 z m 2.097045,-0.18996 c -0.02025,-0.0528 0.0172,-0.0693 0.148188,-0.0657 0.318299,0.009 0.479869,-0.27533 0.189448,-0.33341 -0.269335,-0.0539 -0.49714,0.017 -0.634783,0.19745 l -0.128186,0.16806 0.164864,0.0476 c 0.237662,0.0686 0.291051,0.0657 0.260469,-0.014 z m -2.546206,-0.19884 c 0.01281,-0.0666 -0.0079,-0.0872 -0.07437,-0.0743 -0.05066,0.01 -0.100085,0.0592 -0.109846,0.10981 -0.01281,0.0666 0.0079,0.0872 0.07437,0.0743 0.05066,-0.01 0.100084,-0.0592 0.109846,-0.10981 z m 0.323144,-0.083 c -0.05861,-0.0475 -0.112932,-0.17546 -0.133955,-0.31565 -0.01944,-0.1297 -0.05584,-0.24847 -0.08087,-0.26394 -0.02504,-0.0154 -0.09239,0.0638 -0.149673,0.17604 -0.0904,0.17721 -0.09398,0.20808 -0.02711,0.23375 0.04238,0.0163 0.07706,0.0611 0.07706,0.0997 0,0.0386 0.02266,0.0701 0.05035,0.0701 0.0277,0 0.05035,0.0323 0.05035,0.0719 0,0.0906 0.154218,0.12831 0.244334,0.0598 0.05566,-0.0424 0.05009,-0.0664 -0.03048,-0.13164 z m 1.01144,-0.004 c 0.120225,-0.0559 0.1383,-0.0886 0.114548,-0.20736 -0.02443,-0.12212 -0.01251,-0.14101 0.0889,-0.14101 0.178325,0 0.422651,-0.0986 0.455323,-0.18374 0.02381,-0.0621 -8.13e-4,-0.0697 -0.134427,-0.0414 -0.08997,0.0191 -0.26555,0.0756 -0.390167,0.12575 -0.124619,0.0501 -0.362526,0.13068 -0.528682,0.17902 -0.375186,0.10915 -0.450027,0.16037 -0.371919,0.25448 0.135679,0.16349 0.433368,0.16901 0.766423,0.0142 z m 5.269941,0.10482 c 0,-0.0277 -0.02132,-0.0504 -0.04737,-0.0504 -0.02606,0 -0.06138,0.0226 -0.0785,0.0504 -0.01712,0.0277 0.0042,0.0504 0.04737,0.0504 0.04317,0 0.0785,-0.0226 0.0785,-0.0504 z m -6.948386,-0.63235 c 0,-0.1478 -0.01722,-0.17325 -0.117157,-0.17325 -0.103412,0 -0.114409,0.0192 -0.09374,0.16363 0.04193,0.29309 0.210902,0.3008 0.210902,0.01 z m 1.177934,0.0784 c 0.02634,-0.0262 -0.01222,-0.059 -0.0929,-0.0793 -0.108759,-0.0273 -0.165225,-0.008 -0.266893,0.0943 l -0.128949,0.12895 0.221848,-0.0497 c 0.122015,-0.0273 0.242116,-0.0698 0.266891,-0.0943 z m -1.58074,0.034 c 0,-0.10005 -0.206616,-0.27328 -0.376096,-0.31538 -0.08224,-0.0204 -0.317384,-0.14672 -0.522554,-0.28066 -0.205169,-0.13394 -0.392786,-0.24352 -0.416926,-0.24352 -0.09608,0 -0.03177,0.0976 0.223372,0.33886 0.274159,0.25929 0.447271,0.3678 0.777549,0.48737 0.250324,0.0906 0.314655,0.0934 0.314655,0.0133 z m 7.724704,-0.16522 c 0.0438,-0.0169 0.07964,-0.0734 0.07964,-0.12587 0,-0.0777 -0.03736,-0.0953 -0.201403,-0.0953 -0.218024,0 -0.276685,0.10216 -0.113288,0.19737 0.105054,0.0612 0.130849,0.0638 0.235047,0.0238 z m -8.08527,-0.36105 c -0.237794,-0.28244 -0.668905,-0.61539 -0.796814,-0.61539 -0.21752,0 0.193597,0.41568 0.622508,0.62941 0.314606,0.15678 0.317889,0.15651 0.174306,-0.0141 z m 0.763575,-0.0114 c 0.09221,-0.0987 0.132234,-0.18597 0.11519,-0.25114 -0.01654,-0.0632 0.0037,-0.11131 0.05512,-0.13106 0.133205,-0.0511 0.09233,-0.16101 -0.07342,-0.19741 -0.08506,-0.0186 -0.159868,-0.0262 -0.166244,-0.0165 -0.01198,0.018 -0.193004,0.57297 -0.22327,0.68452 -0.03212,0.11842 0.151166,0.0631 0.292617,-0.0883 z m 1.598453,-0.0879 c 0.01229,-0.0369 -0.02242,-0.0629 -0.08395,-0.0629 -0.06185,0 -0.104899,0.0325 -0.104899,0.0792 0,0.0925 0.157117,0.079 0.18884,-0.0163 z m -1.921506,-0.006 c -0.01468,-0.0237 -0.0051,-0.11854 0.02134,-0.21066 0.05457,-0.19027 0.03321,-0.2397 -0.06745,-0.15616 -0.05196,0.0432 -0.110878,0.043 -0.235515,-4.3e-4 -0.142341,-0.0496 -0.154803,-0.0663 -0.08672,-0.11608 0.07136,-0.0521 0.06978,-0.0642 -0.01541,-0.11741 -0.09655,-0.0602 -0.382137,-0.0317 -0.428223,0.0428 -0.03564,0.0577 0.638039,0.59812 0.747584,0.59973 0.05009,7.2e-4 0.07908,-0.0181 0.0644,-0.0418 z m 2.336875,-0.20858 c 0.06924,-0.0541 0.145036,-0.0989 0.168454,-0.0996 0.02341,-5.8e-4 0.10633,-0.0465 0.184245,-0.10194 0.07791,-0.0555 0.177883,-0.087 0.222151,-0.07 0.11159,0.0428 0.33146,-0.11226 0.33146,-0.23379 0,-0.0551 0.02832,-0.14649 0.06294,-0.20304 0.0528,-0.0863 0.04935,-0.11047 -0.0214,-0.15075 -0.04639,-0.0264 -0.110456,-0.12707 -0.14237,-0.22379 -0.03191,-0.0967 -0.0736,-0.17584 -0.09263,-0.17584 -0.05702,0 -0.461095,0.43551 -0.461095,0.49698 0,0.0782 0.10613,0.0687 0.223613,-0.0202 0.166213,-0.12572 0.272786,-0.0879 0.112889,0.04 -0.12799,0.10238 -0.136431,0.12769 -0.08651,0.259 0.04442,0.11685 0.04261,0.13554 -0.0092,0.095 -0.0355,-0.0278 -0.115975,-0.0632 -0.178839,-0.0785 -0.08952,-0.022 -0.130605,0.003 -0.189548,0.11752 -0.04139,0.0801 -0.165378,0.19699 -0.275534,0.25989 -0.110157,0.0629 -0.200455,0.13137 -0.200668,0.15213 -7.71e-4,0.0745 0.228709,0.0335 0.352067,-0.0629 z m 1.044775,-0.13243 c 0.0623,-0.0168 0.113288,-0.0503 0.113288,-0.0749 0,-0.0731 -0.184206,-0.0504 -0.251753,0.0311 -0.06773,0.0816 -0.03789,0.0911 0.138465,0.0438 z m -1.145477,-0.23981 c 0,-0.0111 -0.03516,-0.0333 -0.07815,-0.0498 -0.04481,-0.0172 -0.06502,-0.009 -0.04737,0.0197 0.02957,0.0478 0.125519,0.0708 0.125519,0.0299 z m -3.556725,-0.20668 c 0.05456,-0.14219 -0.507003,-0.37079 -0.733931,-0.29877 -0.105964,0.0336 -0.105864,0.0344 0.01506,0.12739 0.06692,0.0515 0.195555,0.10793 0.285863,0.12554 0.0903,0.0176 0.176611,0.052 0.191785,0.0766 0.04462,0.0722 0.209788,0.0511 0.24122,-0.0307 z m 1.844804,0.0268 c 0,-0.0762 -0.189671,-0.16219 -0.226494,-0.1026 -0.01716,0.0277 -0.0172,0.0732 -1.01e-4,0.10083 0.03987,0.0644 0.226579,0.066 0.226579,0.002 z m 0.282363,-0.0898 c 0.07402,-0.0975 0.09283,-0.26435 0.02982,-0.26435 -0.07798,0 -0.161122,0.12212 -0.161122,0.23665 0,0.13845 0.04071,0.14704 0.131312,0.0277 z m -3.278225,-0.0629 c -0.01711,-0.0277 -0.06944,-0.05 -0.11626,-0.0496 -0.07337,7.1e-4 -0.07471,0.008 -0.0097,0.0496 0.09861,0.0637 0.16526,0.0637 0.125877,0 z m 1.549847,-0.12587 c -0.01388,-0.0633 -0.265907,-0.0984 -0.265907,-0.0369 0,0.0779 0.06733,0.11726 0.174156,0.10194 0.05653,-0.008 0.09781,-0.0374 0.09175,-0.0651 z m -1.222568,-0.20189 c 0,-0.0695 0.04531,-0.16517 0.100706,-0.21259 0.133007,-0.11389 0.12705,-0.15703 -0.02993,-0.2167 -0.106196,-0.0404 -0.176824,-0.0245 -0.37763,0.0847 -0.135853,0.074 -0.247006,0.16205 -0.247006,0.1958 0,0.0828 0.114534,0.17235 0.286298,0.22391 0.229506,0.0689 0.267559,0.0582 0.267559,-0.0752 z m 3.337748,-0.0247 c 0.0145,-0.0555 0.0058,-0.0881 -0.0193,-0.0725 -0.02511,0.0155 -0.04566,0.0609 -0.04566,0.10072 0,0.10426 0.03421,0.0893 0.06496,-0.0282 z m 4.982692,7.2e-4 c 0.199712,-10e-4 0.170564,-0.0866 -0.03776,-0.11094 -0.09692,-0.0113 -0.176227,1.3e-4 -0.176227,0.0255 0,0.0254 -0.04531,0.0343 -0.100706,0.0197 -0.05538,-0.0145 -0.100695,-0.01 -0.100695,0.0111 0,0.0741 0.07507,0.10959 0.174946,0.0829 0.05609,-0.0151 0.164291,-0.0277 0.240446,-0.0281 z m -5.378206,-0.10016 c 0.138622,-0.0527 0.175836,-0.15229 0.0569,-0.15229 -0.134202,0 -0.336841,0.10016 -0.30544,0.15096 0.03897,0.063 0.08555,0.0633 0.248533,10e-4 z M 49.82468,285.1326 c 0.157632,-0.12668 0.18614,-0.17332 0.139956,-0.22896 -0.0319,-0.0384 -0.07132,-0.0517 -0.08762,-0.0294 -0.01629,0.0222 -0.114587,0.10371 -0.218436,0.18117 -0.103845,0.0774 -0.188814,0.16224 -0.188814,0.18853 0,0.095 0.161042,0.0445 0.35491,-0.1113 z m 6.36278,-0.0729 c 0.110179,-0.0423 0.100007,-0.12048 -0.01567,-0.12048 -0.05242,0 -0.108359,0.0339 -0.124295,0.0755 -0.03095,0.0806 0.01148,0.0943 0.139965,0.0449 z m 1.044658,-0.0935 c 0.0029,-0.0267 -0.03247,-0.072 -0.07852,-0.10071 -0.06228,-0.0388 -0.09608,-0.0328 -0.131892,0.0234 -0.02648,0.0415 -0.0485,0.0941 -0.04892,0.11663 -0.0011,0.0581 0.252992,0.0196 0.259334,-0.0393 z m -1.544046,-0.0269 c 0.03962,-0.0641 -0.07704,-0.0641 -0.176227,0 -0.06141,0.0397 -0.0549,0.0489 0.0348,0.0496 0.06067,4.4e-4 0.12432,-0.0218 0.141436,-0.0496 z m -8.211491,-0.14402 c 0.01473,-0.0238 0.01385,-0.0562 -0.002,-0.0721 -0.03929,-0.0393 -0.169934,0.0149 -0.169934,0.0704 0,0.0576 0.136539,0.0588 0.171887,10e-4 z m 2.922723,-0.14942 c -0.150994,-0.0183 -0.254674,0.053 -0.201667,0.1388 0.02374,0.0384 0.08112,0.0282 0.186091,-0.0334 l 0.151768,-0.089 z m -0.645292,-0.007 c 0.08091,-0.0628 0.09607,-0.10515 0.06043,-0.1688 -0.06782,-0.12118 -0.250613,-0.10515 -0.465764,0.0408 -0.102015,0.0692 -0.207141,0.12587 -0.233604,0.12587 -0.05568,0 -0.06378,0.0682 -0.014,0.11804 0.05796,0.058 0.538818,-0.0274 0.65293,-0.11597 z m 7.868364,0.0805 c -0.01154,-0.01 -0.08895,-0.0333 -0.172032,-0.0519 -0.110312,-0.0246 -0.130683,-0.02 -0.07553,0.0173 0.06799,0.046 0.298082,0.0781 0.247557,0.0345 z m -6.765893,-0.23701 c 0.05419,-0.0876 -0.0075,-0.10626 -0.07659,-0.0231 -0.03971,0.0478 -0.04354,0.0768 -0.01009,0.0768 0.02945,0 0.06848,-0.0242 0.08673,-0.0537 z m 0.319418,-0.29875 -0.0042,-0.12588 -0.04031,0.12588 c -0.02217,0.0692 -0.04223,0.15986 -0.04456,0.2014 -0.0038,0.0671 0.0012,0.0671 0.04456,0 0.02684,-0.0415 0.0469,-0.13217 0.04456,-0.2014 z m -7.078616,-0.64163 c 0.08896,-0.0485 -0.07306,-0.14541 -0.209516,-0.12539 -0.08033,0.0118 -0.161394,-0.003 -0.180155,-0.0337 -0.03992,-0.0646 -0.229569,-0.075 -0.229569,-0.0126 0,0.0234 0.03965,0.078 0.08812,0.12128 0.131111,0.11716 0.367438,0.13964 0.531126,0.0505 z m -0.166085,-0.2521 c -10e-7,-0.0207 -0.07716,-0.0993 -0.171447,-0.17455 -0.141437,-0.11286 -0.181426,-0.12478 -0.228471,-0.0681 -0.04446,0.0536 -0.02737,0.0921 0.07754,0.17456 0.131262,0.10327 0.322386,0.14361 0.322383,0.0681 z m 7.616849,-0.9189 0.02705,-0.32727 -0.08964,0.22657 c -0.05366,0.13566 -0.0794,0.29502 -0.0641,0.39712 0.03587,0.2395 0.09355,0.1046 0.12669,-0.29642 z m -9.907801,0.30211 c 0.01882,-0.0305 -0.05081,-0.0504 -0.176227,-0.0504 -0.125409,0 -0.195049,0.0199 -0.176228,0.0504 0.01712,0.0277 0.09641,0.0504 0.176228,0.0504 0.07981,0 0.159112,-0.0226 0.176227,-0.0504 z m 2.21679,-0.0526 c 0.04062,-0.0658 -0.06564,-0.1992 -0.158579,-0.1992 -0.08542,0 -0.09055,0.1097 -0.009,0.19134 0.0743,0.0743 0.124992,0.0766 0.16752,0.008 z m -1.436356,-0.0969 c 0,-0.0268 -0.03399,-0.0357 -0.07553,-0.0197 -0.04154,0.016 -0.07553,0.0379 -0.07553,0.0488 0,0.0111 0.03399,0.0197 0.07553,0.0197 0.04154,0 0.07553,-0.022 0.07553,-0.0488 z m -2.995862,-0.25334 c 0.01712,-0.0277 -0.0055,-0.0504 -0.05035,-0.0504 -0.04481,0 -0.06746,0.0226 -0.05035,0.0504 0.01711,0.0277 0.03978,0.0504 0.05035,0.0504 0.01054,0 0.03323,-0.0226 0.05035,-0.0504 z m 3.27237,-0.056 c 0.07477,-0.0732 -0.05109,-0.13148 -0.227944,-0.10549 -0.175801,0.0258 -0.241932,0.10327 -0.143128,0.16766 0.0769,0.0501 0.29345,0.0139 0.371072,-0.0621 z m 0.529102,-0.0729 c 0,-0.0438 -0.04985,-0.0725 -0.125876,-0.0725 -0.147371,0 -0.153304,0.0158 -0.04629,0.12275 0.0876,0.0876 0.172168,0.0629 0.172168,-0.0503 z m 1.903254,-0.0826 c 0.08097,-0.081 0.07637,-0.17445 -0.0102,-0.20767 -0.10481,-0.0403 -0.253621,0.0874 -0.216057,0.18527 0.03737,0.0974 0.141023,0.1076 0.226269,0.0224 z m 1.017083,-0.0709 c 0,-0.0111 -0.03399,-0.0197 -0.07553,-0.0197 -0.04154,0 -0.07553,0.022 -0.07553,0.0488 0,0.0268 0.03399,0.0357 0.07553,0.0197 0.04154,-0.016 0.07553,-0.0379 0.07553,-0.0488 z m -5.437867,-0.0672 c 0,-0.0261 -0.02374,-0.062 -0.05277,-0.08 -0.0739,-0.0457 -0.212036,0.0152 -0.174036,0.0766 0.0396,0.0641 0.226798,0.0668 0.226798,0.003 z m 12.690298,-0.21157 c 0.03026,-0.1124 0.04528,-0.21412 0.03337,-0.22603 -0.02833,-0.0283 -0.175408,0.19683 -0.188298,0.28825 -0.03849,0.27297 0.07718,0.22652 0.154934,-0.0622 z m -10.072066,0.0751 c 0,-0.13852 -0.0807,-0.15193 -0.210025,-0.0349 -0.13092,0.11847 -0.114492,0.16232 0.05898,0.15739 0.123725,-0.003 0.151052,-0.0257 0.151052,-0.12251 z m -4.270572,-0.0284 c -0.03613,-0.0362 -0.05958,-0.039 -0.05958,-0.008 0,0.0672 0.05954,0.12675 0.09315,0.0932 0.01431,-0.0143 -7.99e-4,-0.0528 -0.03357,-0.0856 z m 12.427373,-0.22406 c 0,-0.34359 -0.02487,-0.33618 -0.07044,0.021 -0.02173,0.17026 -0.0152,0.26433 0.01836,0.26433 0.02975,0 0.05209,-0.12233 0.05209,-0.28532 z m 2.64974,0.18863 c 0.06761,-0.0531 0.102792,-0.10914 0.0782,-0.12432 -0.02459,-0.0152 -0.09728,0.0283 -0.161515,0.0967 -0.13885,0.14779 -0.09004,0.16398 0.08331,0.0276 z m -0.259096,-0.20404 c 0.153228,-0.20769 0.157929,-0.25312 0.02619,-0.25312 -0.06495,0 -0.100695,0.0336 -0.100695,0.0945 0,0.052 -0.03154,0.1207 -0.07008,0.15269 -0.03854,0.0319 -0.08173,0.10271 -0.09595,0.15706 -0.03647,0.13948 0.08021,0.0661 0.240546,-0.15117 z m -8.709648,0.10771 c 0,-0.0911 -0.09855,-0.0744 -0.118097,0.02 -0.01087,0.0525 0.008,0.0755 0.05035,0.0614 0.03726,-0.0124 0.06775,-0.049 0.06775,-0.0813 z m 10.951262,0.0419 c 0,-0.0277 -0.02266,-0.0504 -0.05035,-0.0504 -0.0277,0 -0.05035,0.0226 -0.05035,0.0504 0,0.0277 0.02266,0.0504 0.05035,0.0504 0.0277,0 0.05035,-0.0226 0.05035,-0.0504 z m 0.730084,0 c -0.01711,-0.0277 -0.05378,-0.0504 -0.08147,-0.0504 -0.02769,0 -0.03635,0.0226 -0.01923,0.0504 0.01712,0.0277 0.05378,0.0504 0.08147,0.0504 0.0277,0 0.03635,-0.0226 0.01923,-0.0504 z m -15.306486,-0.0322 c 0.0669,-0.0256 0.07028,-0.0408 0.01671,-0.0748 -0.113267,-0.0718 -0.243423,-0.0525 -0.211245,0.0314 0.03192,0.0832 0.06909,0.0915 0.19454,0.0434 z m 5.5537,-0.42699 c 0.0118,-0.14112 -0.0052,-0.18762 -0.07553,-0.206 -0.06965,-0.0182 -0.0916,0.007 -0.09436,0.10671 -0.002,0.0718 -0.02216,0.17211 -0.04485,0.22301 -0.03449,0.0773 -0.02151,0.0897 0.07913,0.0755 0.09809,-0.0139 0.123197,-0.0508 0.135611,-0.19926 z m -1.1733,0.006 c 0.01711,-0.0277 -0.0029,-0.0504 -0.0444,-0.0504 -0.04154,0 -0.08953,0.0226 -0.10664,0.0504 -0.01711,0.0277 0.0029,0.0504 0.0444,0.0504 0.04154,0 0.08953,-0.0226 0.106641,-0.0504 z m 0.872241,-0.0671 c 0.01065,-0.0547 -0.01717,-0.084 -0.07972,-0.084 -0.132203,0 -0.173227,0.053 -0.104788,0.1355 0.0712,0.0858 0.16284,0.0602 0.184513,-0.0516 z m -0.956853,-0.22787 c 0.02278,-0.15264 -0.112201,-0.13767 -0.184235,0.0204 -0.07825,0.17175 -0.07599,0.17706 0.05486,0.12899 0.06231,-0.0229 0.120529,-0.0902 0.129379,-0.14943 z m 8.672703,-0.009 c 0.05356,-0.0286 0.09739,-0.10415 0.09739,-0.1678 0,-0.11306 -0.01402,-0.11772 -0.259416,-0.0864 -0.01806,0.002 -0.05654,0.0722 -0.0855,0.15526 -0.04715,0.13526 -0.04206,0.15104 0.04874,0.15104 0.05576,0 0.145218,-0.0234 0.198783,-0.0521 z m -8.372137,-0.25776 c 0.01456,-0.075 -0.206679,-0.21128 -0.258661,-0.1593 -0.01516,0.0152 0.0084,0.0824 0.05233,0.14954 0.08482,0.12946 0.182195,0.13407 0.206324,0.01 z m 0.541823,0.0621 c 0.02631,-0.0255 0.122308,-0.0653 0.213333,-0.0885 0.152087,-0.0387 0.159788,-0.0499 0.09504,-0.1385 -0.06933,-0.0948 -0.07323,-0.0947 -0.240861,0.003 -0.09372,0.0548 -0.177794,0.13795 -0.186838,0.18491 -0.01789,0.0929 0.04318,0.11286 0.119333,0.0389 z m 8.411014,-0.0348 c 0.166349,-0.079 0.210862,-0.14123 0.133486,-0.18678 -0.06774,-0.0399 -0.26434,0.0616 -0.26434,0.13634 0,0.0402 -0.02832,0.0844 -0.06294,0.0984 -0.03462,0.014 -0.0437,0.0272 -0.0202,0.0294 0.0235,0.002 0.119803,-0.0326 0.213989,-0.0773 z m 0.635776,-0.1703 c 0.104765,-0.0639 0.133603,-0.10061 0.07911,-0.10072 -0.114023,-2.7e-4 -0.342235,0.10571 -0.342235,0.15895 0,0.0683 0.08706,0.0491 0.263123,-0.0582 z m -1.048782,-0.18096 c 0.01689,-0.044 0.0186,-0.0997 0.0038,-0.12368 -0.04528,-0.0733 -0.174778,0.007 -0.174778,0.10849 0,0.11559 0.128115,0.12701 0.171004,0.0152 z m -8.104505,-0.0194 c 0.253017,-0.0962 0.07974,-0.30638 -0.185537,-0.22505 -0.187548,0.0575 -0.248903,0.12623 -0.183271,0.20531 0.06733,0.0811 0.190055,0.0877 0.368808,0.0197 z m 9.343319,-0.47957 c 0,-0.0416 -0.03264,-0.0755 -0.07255,-0.0755 -0.08411,0 -0.140901,0.0719 -0.09391,0.11885 0.06018,0.0601 0.166467,0.0325 0.166467,-0.0434 z m -0.491747,-0.10615 c -0.0074,-0.0524 -0.01531,-0.17038 -0.01763,-0.26217 -0.004,-0.1599 -0.0082,-0.16331 -0.09859,-0.0815 -0.142397,0.12887 -0.16379,0.25603 -0.06176,0.36717 0.109213,0.11896 0.196413,0.10748 0.177974,-0.0235 z m -3.309725,-0.0197 c -0.05013,-0.0554 -0.127273,-0.10016 -0.171443,-0.0996 -0.05847,8.6e-4 -0.04607,0.0279 0.04557,0.0996 0.164303,0.12853 0.242186,0.12853 0.125876,0 z m 0.244619,-0.47876 c -0.03571,-0.0931 -0.238007,-0.14941 -0.357795,-0.0997 -0.07458,0.031 -0.06486,0.047 0.06283,0.10382 0.208029,0.0926 0.331433,0.0909 0.29497,-0.004 z m -1.025054,-1.51305 c 0,-0.20287 -0.01903,-0.31849 -0.04935,-0.29976 -0.03694,0.0228 -0.03866,0.38508 -0.003,0.61742 0.0011,0.007 0.01327,0.0126 0.02711,0.0126 0.01384,0 0.02518,-0.14861 0.02518,-0.33025 z m 3.012306,-0.0368 c 0.04068,-0.049 0.03064,-0.0668 -0.04083,-0.0721 -0.05212,-0.004 -0.121719,0.0253 -0.15465,0.065 -0.04858,0.0586 -0.04087,0.0721 0.04083,0.0721 0.05538,0 0.124979,-0.0293 0.15465,-0.065 z m -3.176964,-2.13478 c 0.01852,-0.0556 -0.13341,-0.13717 -0.176048,-0.0945 -0.0133,0.0133 -0.01009,0.061 0.0072,0.10604 0.03316,0.0864 0.138568,0.0792 0.168814,-0.0115 z m -0.640952,-0.21704 c 0,-0.11827 -0.02221,-0.15106 -0.102281,-0.15106 -0.112855,0 -0.176231,0.10937 -0.131263,0.22658 0.01594,0.0416 0.07501,0.0755 0.131263,0.0755 0.08007,0 0.102281,-0.0328 0.102281,-0.15105 z m 0.947354,-0.1133 c 0.02017,-0.10648 -0.125027,-0.11671 -0.255033,-0.018 -0.131609,0.0999 -0.107195,0.13953 0.07512,0.12192 0.107506,-0.01 0.168926,-0.0458 0.179919,-0.10394 z m 2.23229,-0.0629 c -0.03826,-0.21866 -0.229766,-0.23271 -0.30314,-0.0222 l -0.05369,0.154 0.187222,-0.0155 c 0.155715,-0.0129 0.184257,-0.0325 0.169602,-0.11624 z m -1.950172,-0.45726 c 0.07831,-0.0301 0.108792,-0.17525 0.04929,-0.23475 -0.04012,-0.0402 -0.28519,0.0546 -0.330342,0.1276 -0.07386,0.11952 0.08801,0.18124 0.28105,0.10715 z M 40.891601,287.0698 c -0.01945,-0.0194 -0.116149,-0.0299 -0.214907,-0.0233 -0.172954,0.0116 -0.320387,-0.0569 -0.320387,-0.14897 0,-0.0243 0.08497,-0.0445 0.188815,-0.0447 0.262844,-7.1e-4 0.566444,-0.0553 0.566444,-0.10182 0,-0.0748 -0.320054,-0.14939 -0.641092,-0.14939 -0.328691,0 -0.389412,-0.0525 -0.199457,-0.17227 0.06168,-0.0389 0.113188,-0.0359 0.18812,0.0111 0.0869,0.0542 0.150727,0.0471 0.404526,-0.0455 0.165741,-0.0605 0.313317,-0.12925 0.327948,-0.15292 0.01463,-0.0236 0.103224,-0.043 0.196884,-0.043 0.168961,0 0.270285,-0.0678 0.182484,-0.12201 -0.02516,-0.0155 -0.122564,-0.0382 -0.216462,-0.0501 -0.0939,-0.012 -0.232962,-0.0375 -0.309033,-0.0566 -0.239852,-0.0602 -1.192683,0.26964 -1.192683,0.41287 0,0.0371 0.01832,0.0675 0.04073,0.0675 0.0224,0 0.08471,0.0333 0.138464,0.074 0.08458,0.064 0.0864,0.0741 0.01349,0.0755 -0.04634,8.5e-4 -0.154744,-0.0577 -0.240901,-0.13021 l -0.156651,-0.13182 0.151053,-0.11144 c 0.08308,-0.0613 0.293444,-0.15116 0.467478,-0.19971 0.174035,-0.0486 0.38554,-0.12147 0.47001,-0.16206 0.124354,-0.0598 0.196225,-0.063 0.37763,-0.0169 0.34426,0.0875 0.500975,0.11328 0.500975,0.0822 0,-0.0155 -0.05894,-0.0917 -0.130988,-0.16936 -0.106718,-0.11493 -0.116103,-0.14406 -0.05065,-0.15728 0.04419,-0.009 0.142785,0.0258 0.219101,0.0772 0.176757,0.11898 0.5014,0.26683 0.581032,0.2646 0.03368,-10e-4 0.151861,-0.0455 0.262632,-0.0989 0.213013,-0.10294 0.42798,-0.13092 0.42798,-0.0558 0,0.0247 -0.05665,0.0591 -0.125876,0.0765 -0.06924,0.0174 -0.125877,0.0538 -0.125877,0.081 0,0.061 0.374733,0.0649 0.57983,0.006 0.08315,-0.0239 0.202946,-0.0242 0.266211,-8.5e-4 0.09729,0.036 0.106563,0.0583 0.06014,0.14509 -0.03018,0.0564 -0.04003,0.12658 -0.02189,0.15595 0.03897,0.063 0.265436,0.0159 0.374465,-0.078 0.12006,-0.10338 0.348668,-0.12635 0.397044,-0.0399 0.03653,0.0653 0.08358,0.0608 0.358338,-0.0343 0.173959,-0.0602 0.383559,-0.14424 0.465778,-0.18676 0.115838,-0.0599 0.144471,-0.0622 0.127199,-0.01 -0.02303,0.0691 -0.321365,0.23517 -0.662198,0.36866 -0.164642,0.0645 -0.185226,0.0881 -0.132299,0.15188 0.03447,0.0416 0.09388,0.0755 0.132037,0.0755 0.0866,0 0.0916,0.13273 0.0064,0.17075 -0.03462,0.0154 -0.0069,0.023 0.06169,0.0168 0.08209,-0.008 0.130338,0.0173 0.141339,0.0725 0.03911,0.19641 -0.493629,0.12682 -0.777878,-0.10161 -0.176376,-0.14173 -0.219161,-0.15561 -0.339163,-0.11003 -0.07553,0.0287 -0.210363,0.0522 -0.299629,0.0522 -0.08927,0 -0.245959,0.0427 -0.348206,0.0948 -0.102248,0.0521 -0.310969,0.11037 -0.463831,0.1295 -0.152862,0.0191 -0.310001,0.0668 -0.349197,0.10604 -0.05952,0.0596 -0.138657,0.0618 -0.48033,0.0134 -0.384334,-0.0544 -0.42077,-0.0512 -0.602704,0.051 -0.215608,0.12118 -0.224059,0.12345 -0.274018,0.0734 z m 1.281447,-0.41781 c 0.113756,0 0.03171,-0.14169 -0.09223,-0.15929 -0.167919,-0.0238 -0.314691,10e-4 -0.314691,0.0546 0,0.0582 0.216616,0.15153 0.293634,0.12649 0.03688,-0.012 0.08786,-0.0217 0.113289,-0.0217 z m -0.55399,-0.24323 c -0.141078,-0.0208 -0.20155,0.0323 -0.104921,0.0921 0.04521,0.0279 0.09975,0.0222 0.145314,-0.0153 0.06151,-0.0507 0.05517,-0.0627 -0.0404,-0.0768 z m 1.045571,-0.0343 c 0.0453,-0.0453 -0.102359,-0.12364 -0.234669,-0.12452 -0.06414,-4.2e-4 -0.165583,0.0254 -0.225455,0.0575 -0.106518,0.057 -0.106718,0.0591 -0.0093,0.0995 0.102658,0.0425 0.416115,0.0209 0.469401,-0.0325 z m 0.716911,-0.17984 c 0.05769,-0.0577 0.09538,-0.11441 0.08376,-0.12604 -0.01162,-0.0116 -0.126806,-0.007 -0.255949,0.0111 -0.316601,0.0434 -0.313726,0.18455 0.0043,0.21406 0.03462,0.003 0.110145,-0.0414 0.167835,-0.0991 z m 17.492646,0.14654 c -0.166158,-0.0245 -0.573997,-0.0515 -0.906312,-0.0597 -0.601333,-0.015 -0.892492,-0.0802 -1.169827,-0.26192 -0.187493,-0.12286 -0.145147,-0.22351 0.09403,-0.22351 0.231262,0 0.597463,0.0953 0.597463,0.15539 0,0.0213 -0.130283,0.0277 -0.289517,0.0143 -0.274249,-0.0231 -0.282879,-0.0205 -0.16364,0.0505 0.06924,0.0413 0.239167,0.0895 0.377631,0.10726 0.138463,0.0178 0.29016,0.0432 0.337102,0.0564 0.06706,0.0189 0.08325,-0.007 0.07553,-0.11694 -0.0084,-0.12091 0.0069,-0.13864 0.107461,-0.12454 0.0645,0.009 0.193658,-0.0199 0.287003,-0.0641 0.183135,-0.087 0.502568,-0.0782 1.144615,0.0312 0.508648,0.0866 0.593668,0.26896 0.180849,0.38778 -0.329516,0.0948 -0.346829,0.0961 -0.672387,0.048 z m -6.246455,-0.24179 c 0.136828,-0.0547 0.256327,-0.0919 0.265558,-0.0827 0.04036,0.0404 -0.127932,0.12129 -0.312931,0.15047 l -0.201402,0.0317 z m -9.454547,-1.14253 c -0.01846,-0.0184 -0.03357,-0.057 -0.03357,-0.0856 0,-0.0316 0.02345,-0.0286 0.05958,0.008 0.03277,0.0328 0.04787,0.0713 0.03357,0.0856 -0.01431,0.0143 -0.04112,0.0111 -0.05958,-0.008 z m 5.865405,-2.23221 c 0,-0.0692 0.01142,-0.0976 0.0254,-0.0629 0.01397,0.0346 0.01397,0.0913 0,0.12588 -0.01396,0.0346 -0.0254,0.007 -0.0254,-0.0629 z m 2.056425,0 c 0,-0.0277 0.06231,-0.05 0.138466,-0.0496 0.107893,5.8e-4 0.121791,0.0115 0.06294,0.0496 -0.09851,0.0637 -0.201404,0.0637 -0.201404,0 z m -2.032128,-1.09513 c -0.01369,-0.0485 -0.03966,-0.18324 -0.05774,-0.29952 -0.02857,-0.18392 -0.05492,-0.21868 -0.202674,-0.26744 -0.09341,-0.0308 -0.18396,-0.10061 -0.201226,-0.15496 -0.02386,-0.0752 -0.07083,-0.0963 -0.195799,-0.0879 -0.12937,0.009 -0.219438,-0.0354 -0.422662,-0.20669 -0.232536,-0.19608 -0.283129,-0.21721 -0.507981,-0.21214 -0.137347,0.003 -0.345723,-0.0283 -0.463056,-0.0697 -0.117334,-0.0414 -0.254978,-0.062 -0.305877,-0.0459 -0.05456,0.0173 -0.146889,-0.0134 -0.224972,-0.0748 -0.07284,-0.0572 -0.17618,-0.10416 -0.229652,-0.10416 -0.140461,0 -0.292003,-0.0924 -0.292003,-0.178 0,-0.0871 0.107372,-0.0973 0.186946,-0.0177 0.05959,0.0596 0.165509,0.0211 0.165509,-0.0602 0,-0.0267 -0.05665,-0.0702 -0.125877,-0.0965 -0.06924,-0.0263 -0.125876,-0.0808 -0.125876,-0.12098 0,-0.0401 -0.05304,-0.11484 -0.117881,-0.16584 -0.149724,-0.11777 -0.250779,-0.30143 -0.187407,-0.3406 0.02609,-0.0161 0.104655,0.0324 0.174593,0.10782 0.15624,0.1685 0.205425,0.12735 0.205874,-0.17226 3.57e-4,-0.24289 0.09364,-0.34607 0.150605,-0.16659 0.04843,0.15259 0.274881,0.4053 0.363182,0.4053 0.05647,0 0.06823,-0.0329 0.04491,-0.12587 -0.04074,-0.16231 -0.0142,-0.15865 0.221194,0.0305 0.10704,0.0861 0.213583,0.14468 0.236769,0.13035 0.0542,-0.0335 0.183175,0.0626 0.257158,0.19159 0.03177,0.0553 0.05844,0.0713 0.05929,0.0355 0.002,-0.087 -0.348188,-0.41311 -0.443627,-0.41311 -0.02563,0 -0.05848,-0.0454 -0.073,-0.10094 -0.01983,-0.0759 0.0038,-0.10848 0.09516,-0.13142 0.311507,-0.0782 0.669611,0.13203 0.523935,0.30757 -0.04435,0.0535 -0.03388,0.0812 0.04685,0.12442 0.05717,0.0306 0.103956,0.0902 0.103956,0.13236 0,0.0421 0.01922,0.0649 0.04273,0.0504 0.05003,-0.0309 0.225375,0.12316 0.341015,0.29964 0.08834,0.13483 0.198583,0.16973 0.151908,0.0482 -0.05149,-0.13419 0.05299,-0.0803 0.188338,0.0972 0.07246,0.095 0.182767,0.17996 0.245142,0.18881 0.08124,0.0115 0.117929,0.0554 0.129342,0.15457 0.0088,0.0762 -0.0082,0.13847 -0.03776,0.13847 -0.07329,0 -0.06488,0.15731 0.01395,0.26101 0.03545,0.0466 0.125553,0.10005 0.200239,0.11885 0.155889,0.0392 0.225226,0.22127 0.149115,0.3917 -0.02691,0.0602 -0.03865,0.19455 -0.02606,0.29839 0.0235,0.19403 -0.01226,0.25766 -0.05659,0.10072 z m -0.888207,-1.29653 c 0,-0.0415 -0.03399,-0.0755 -0.07553,-0.0755 -0.07862,0 -0.0999,0.0596 -0.04196,0.11749 0.05793,0.0579 0.117485,0.0367 0.117485,-0.0419 z m 0.309446,-0.1409 c -0.149481,-0.14949 -0.200707,-0.0617 -0.0547,0.0937 0.07217,0.0769 0.128752,0.10504 0.140411,0.0701 0.01076,-0.0323 -0.02783,-0.10593 -0.08572,-0.16383 z m 7.734065,0.7159 c -0.146467,-0.0853 -0.108626,-0.23103 0.06923,-0.2666 0.253255,-0.0507 0.28881,-0.0407 0.259271,0.0722 -0.01992,0.0762 0.0013,0.11112 0.08024,0.13175 0.05904,0.0154 0.10735,0.0481 0.10735,0.0725 0,0.0611 -0.407534,0.0534 -0.516094,-0.01 z m -2.051787,-1.20438 c 0,-0.0277 0.02266,-0.0504 0.05035,-0.0504 0.0277,0 0.05035,0.0226 0.05035,0.0504 0,0.0277 -0.02266,0.0504 -0.05035,0.0504 -0.0277,0 -0.05035,-0.0226 -0.05035,-0.0504 z m -5.335025,-1.05791 c -0.187379,-0.26858 -0.347388,-0.40226 -0.481486,-0.40226 -0.153573,0 -0.120211,0.11407 0.05697,0.1948 0.06927,0.0316 0.112531,0.0791 0.09614,0.1056 -0.01875,0.0303 -0.07315,0.0285 -0.146522,-0.004 -0.106352,-0.0485 -0.179617,-0.12444 -0.544209,-0.56435 l -0.118507,-0.14299 -0.298254,0.0968 c -0.291284,0.0946 -0.306471,0.0947 -0.64986,0.004 -0.193382,-0.0508 -0.379954,-0.0923 -0.414603,-0.0923 -0.132871,0 -0.567289,-0.31734 -0.624935,-0.45651 -0.03289,-0.0794 -0.09134,-0.17054 -0.129905,-0.20254 -0.100385,-0.0833 -0.0865,-0.14657 0.03217,-0.14657 0.127394,0 0.181684,-0.12709 0.09758,-0.22843 -0.07416,-0.0894 -0.06625,-0.0996 0.10907,-0.14162 0.08803,-0.0211 0.153668,-0.007 0.19498,0.0433 0.03425,0.0413 0.09769,0.075 0.14098,0.075 0.04329,0 0.131144,0.0492 0.195238,0.10948 l 0.116533,0.10948 v -0.13168 c 0,-0.0724 -0.02266,-0.14568 -0.05035,-0.1628 -0.0277,-0.0171 -0.05035,-0.0627 -0.05035,-0.10127 0,-0.0543 0.05943,-0.0643 0.264342,-0.0442 0.43096,0.0425 0.499194,0.0651 0.481382,0.15984 -0.0089,0.0475 -0.06708,0.10871 -0.129222,0.13602 -0.135883,0.0598 -0.147665,0.12652 -0.02233,0.12652 0.136516,0 0.361654,-0.1174 0.3621,-0.18881 1.99e-4,-0.0346 0.03437,-0.0629 0.07592,-0.0629 0.04154,0 0.07553,0.0339 0.07553,0.0755 0,0.0416 -0.03399,0.0755 -0.07553,0.0755 -0.04154,0 -0.07553,0.0339 -0.07553,0.0755 0,0.0416 0.02065,0.0755 0.0459,0.0755 0.02525,0 0.21474,0.16993 0.421094,0.37764 0.206352,0.20769 0.388586,0.37762 0.404962,0.37762 0.01637,0 0.08642,0.0567 0.15565,0.12588 0.06924,0.0692 0.172222,0.12588 0.228866,0.12588 0.06664,0 0.102991,0.0328 0.102991,0.0932 0,0.0512 0.06932,0.18884 0.154035,0.30579 0.08472,0.11695 0.146765,0.25039 0.137879,0.29653 -0.01201,0.0623 -0.04759,0.0388 -0.138721,-0.0918 z m -1.339058,-1.00221 c 0.01567,-0.0254 -0.08606,-0.0707 -0.226083,-0.10072 -0.358216,-0.0769 -0.458067,-0.068 -0.286191,0.0252 0.07681,0.0417 0.161778,0.0621 0.188814,0.0454 0.02703,-0.0168 0.04916,-0.007 0.04916,0.023 0,0.0652 0.234634,0.0714 0.274304,0.008 z m -0.324654,-0.45741 c 0,-0.0277 -0.01,-0.0504 -0.02221,-0.0504 -0.01221,0 -0.03621,0.0226 -0.05332,0.0504 -0.01711,0.0277 -0.0071,0.0504 0.02221,0.0504 0.02933,0 0.05332,-0.0226 0.05332,-0.0504 z m -0.970298,-0.0808 c -0.01673,-0.0168 -0.06015,-0.0185 -0.0965,-0.004 -0.04017,0.0161 -0.02824,0.0279 0.03043,0.0304 0.05308,0.002 0.08282,-0.01 0.06609,-0.0264 z"
       id="path2933"
       inkscape:connector-curvature="0" />
  </g>
</svg>
